<?xml version="1.0" standalone="no"?>
<!DOCTYPE svg PUBLIC "-//W3C//DTD SVG 1.1//EN" "http://www.w3.org/Graphics/SVG/1.1/DTD/svg11.dtd" >
<svg xmlns="http://www.w3.org/2000/svg" xmlns:xlink="http://www.w3.org/1999/xlink" version="1.1">
<metadata>
Created by FontForge 20201107 at Fri Jun 16 12:36:38 2023
 By 
Copyright 2022 The Figtree Project Authors (https://github.com/erikdkennedy/figtree)
</metadata>
<defs>
<font id="Figtree-LightItalic" horiz-adv-x="583" >
  <font-face 
    font-family="Figtree Light"
    font-weight="300"
    font-style="italic"
    font-stretch="normal"
    units-per-em="1000"
    panose-1="0 0 0 0 0 0 0 0 0 0"
    ascent="800"
    descent="-200"
    x-height="500"
    cap-height="700"
    bbox="-170 -222 1125 912"
    underline-thickness="50"
    underline-position="-125"
    slope="-9.5"
    unicode-range="U+000D-2265"
  />
<missing-glyph horiz-adv-x="708" 
d="M100 -170v960h508v-960h-508zM158 -112h392v844h-392v-844z" />
    <glyph glyph-name=".notdef" horiz-adv-x="708" 
d="M100 -170v960h508v-960h-508zM158 -112h392v844h-392v-844z" />
    <glyph glyph-name=".null" horiz-adv-x="0" 
 />
    <glyph glyph-name="nonmarkingreturn" horiz-adv-x="333" 
 />
    <glyph glyph-name="CR" unicode="&#xd;" horiz-adv-x="600" 
 />
    <glyph glyph-name="space" unicode=" " horiz-adv-x="250" 
 />
    <glyph glyph-name="exclam" unicode="!" horiz-adv-x="292" 
d="M104 193l85 507h64l-85 -507h-64zM106 -14q-13 0 -23.5 7t-15.5 18.5t-3 24.5q3 17 17.5 29.5t31.5 12.5q14 0 24 -7t15 -18t3 -25q-3 -17 -17.5 -29.5t-31.5 -12.5z" />
    <glyph glyph-name="quotedbl" unicode="&#x22;" horiz-adv-x="284" 
d="M105 490l33 226h62l-43 -226h-52zM207 490l33 226h62l-43 -226h-52z" />
    <glyph glyph-name="numbersign" unicode="#" horiz-adv-x="629" 
d="M307 0l227 700h53l-228 -700h-52zM2 200l13 42h563l-13 -42h-563zM77 0l227 700h53l-228 -700h-52zM86 458l13 42h562l-13 -42h-562z" />
    <glyph glyph-name="dollar" unicode="$" horiz-adv-x="566" 
d="M260 23q-72 0 -118 20t-70 52.5t-31 67.5l58 18q9 -41 47.5 -70.5t100.5 -29.5q82 0 133 32t59 84q8 47 -27.5 75.5t-98.5 44.5l-60 16q-40 11 -72.5 32.5t-48.5 55t-8 81.5q14 83 74.5 129t163.5 46q63 0 104.5 -21.5t64.5 -53.5t27 -63l-59 -19q-11 47 -50 73t-98 26
q-65 0 -109.5 -32.5t-53.5 -85.5q-8 -47 16 -71t69 -35l63 -15q91 -22 134 -74t33 -110q-8 -47 -38.5 -86.5t-81.5 -63t-123 -23.5zM206 -103l148 883h59l-148 -883h-59z" />
    <glyph glyph-name="percent" unicode="%" horiz-adv-x="775" 
d="M57 0l615 700h79l-617 -700h-77zM230 390q-46 0 -77.5 21.5t-45.5 59t-6 86.5q8 47 33 82.5t62 56t81 20.5q46 0 78 -21.5t45.5 -59t5.5 -86.5q-7 -46 -32.5 -82t-62.5 -56.5t-81 -20.5zM231 444q42 0 75 32t41 81q8 46 -12 75t-59 29q-42 0 -75 -31.5t-41 -80.5
q-7 -46 12.5 -75.5t58.5 -29.5zM531 -16q-46 0 -77.5 21.5t-45.5 59.5t-6 86q8 47 33 82.5t62 56t81 20.5q46 0 78 -21.5t45.5 -59t5.5 -86.5q-7 -46 -32.5 -82t-62.5 -56.5t-81 -20.5zM533 38q42 0 75 32t40 81q8 46 -12 75.5t-59 29.5q-42 0 -75 -32t-41 -81
q-7 -46 13 -75.5t59 -29.5z" />
    <glyph glyph-name="ampersand" unicode="&#x26;" horiz-adv-x="642" 
d="M221 -15q-59 0 -101.5 24t-62 65.5t-10.5 96.5q11 69 57 115t105 83l84 52q65 40 105.5 80t40.5 83q0 34 -23 53.5t-62 19.5q-40 0 -73 -28t-40 -68q-5 -30 9 -54t37 -59l96 -142l201 -306h-80l-180 274l-91 137q-17 26 -31.5 51t-21.5 51t-2 56q7 42 33 75t64 52t81 19
q48 0 83.5 -19.5t52.5 -54.5t9 -82q-6 -38 -32.5 -71.5t-64.5 -62.5t-82 -56l-83 -51q-28 -17 -55.5 -37.5t-47 -48.5t-26.5 -69q-9 -53 22.5 -86.5t89.5 -33.5q57 0 107.5 19.5t91.5 55t68 84.5t37 107h63q-15 -94 -67.5 -167.5t-130 -115t-170.5 -41.5z" />
    <glyph glyph-name="quotesingle" unicode="'" horiz-adv-x="182" 
d="M105 490l33 226h62l-43 -226h-52z" />
    <glyph glyph-name="parenleft" unicode="(" horiz-adv-x="341" 
d="M169 -99q-36 61 -62 132.5t-35.5 152.5t5.5 168q15 86 50 165t84.5 150t105.5 132l66 -2q-57 -64 -107.5 -137.5t-86 -152.5t-49.5 -163q-20 -122 8.5 -236t81.5 -211z" />
    <glyph glyph-name="parenright" unicode=")" horiz-adv-x="342" 
d="M206 799q37 -61 63 -132.5t35 -152t-6 -168.5q-14 -85 -49.5 -164.5t-84.5 -150.5t-106 -132l-66 2q58 65 108 138t85.5 152.5t49.5 162.5q20 122 -8.5 236t-81.5 211z" />
    <glyph glyph-name="asterisk" unicode="*" horiz-adv-x="478" 
d="M266 548l22 168h60l-34 -168h-48zM294 525l-7 46l166 57l9 -57zM344 397l-72 140l43 28l82 -133zM191 394l-44 36l125 132l36 -29zM279 526l-155 46l29 58l149 -58z" />
    <glyph glyph-name="plus" unicode="+" horiz-adv-x="620" 
d="M252 73l76 450h57l-76 -450h-57zM88 269l10 57h450l-10 -57h-450z" />
    <glyph glyph-name="comma" unicode="," horiz-adv-x="214" 
d="M-17 -116l89 202h72l-104 -202h-57z" />
    <glyph glyph-name="hyphen" unicode="-" horiz-adv-x="420" 
d="M63 269l10 57h300l-10 -57h-300z" />
    <glyph glyph-name="period" unicode="." horiz-adv-x="192" 
d="M56 -14q-13 0 -23.5 7t-15.5 18.5t-3 24.5q3 17 17.5 29.5t31.5 12.5q14 0 24 -7t15 -18t3 -25q-3 -17 -17.5 -29.5t-31.5 -12.5z" />
    <glyph glyph-name="slash" unicode="/" horiz-adv-x="373" 
d="M-41 -84l415 831h67l-413 -831h-69z" />
    <glyph glyph-name="zero" unicode="0" horiz-adv-x="638" 
d="M279 -12q-60 0 -105.5 27t-73.5 76t-37 116t4 147q18 105 65 186t114.5 126.5t145.5 45.5q60 0 105.5 -27t74 -76t37.5 -116t-5 -147q-17 -105 -64.5 -185.5t-115 -126.5t-145.5 -46zM281 46q61 0 114.5 39.5t92 109t53.5 159.5q15 88 1 155.5t-53 106t-98 38.5
q-61 0 -115 -39.5t-92.5 -109t-53.5 -159.5q-14 -88 0 -155.5t53 -106t98 -38.5z" />
    <glyph glyph-name="one" unicode="1" horiz-adv-x="410" 
d="M182 0l113 666l10 34h60l-119 -700h-64zM113 536l9 58q19 0 51 15.5t67 40t63 51.5l35 -49q-58 -48 -115.5 -82t-109.5 -34z" />
    <glyph glyph-name="two" unicode="2" horiz-adv-x="551" 
d="M91 55l-63 3q6 34 22.5 66.5t43.5 63t67 58.5l181 121q30 20 54 45.5t40 53t20 53.5q9 56 -24.5 95.5t-98.5 39.5q-46 0 -84 -17.5t-65 -45.5t-41 -59l-63 18q19 43 55.5 80t86.5 59.5t106 22.5q68 0 114 -26.5t66.5 -72t11.5 -102.5q-8 -49 -42.5 -97t-98.5 -95
l-173 -117q-33 -22 -57.5 -46.5t-38.5 -49.5t-19 -51zM18 0l10 58h49h377l-10 -58h-426z" />
    <glyph glyph-name="three" unicode="3" horiz-adv-x="539" 
d="M224 -12q-48 0 -84 14.5t-60.5 36t-40.5 42.5l53 38q10 -15 25 -32t40.5 -29t64.5 -12q51 0 92.5 20.5t68.5 56t34 79.5q9 50 -13.5 83t-70 49.5t-115.5 16.5h-12l9 56h8q64 0 115 -14t85.5 -41.5t49.5 -67.5t6 -92q-10 -61 -46.5 -107t-91 -71.5t-117.5 -25.5zM206 351
l9 57h8q93 0 157 33t74 94q8 48 -25 83.5t-99 35.5q-45 0 -83 -18t-70 -48l-40 40q25 25 55.5 44t66 29.5t76.5 10.5q61 0 105 -25t65 -66.5t12 -92.5q-7 -42 -32.5 -75t-65 -55.5t-91 -34.5t-111.5 -12h-11z" />
    <glyph glyph-name="four" unicode="4" horiz-adv-x="616" 
d="M91 197l-44 34l400 469l39 -37zM39 182l8 49l46 10h491l-9 -59h-536zM330 0l110 654l7 46h63l-117 -700h-63z" />
    <glyph glyph-name="five" unicode="5" horiz-adv-x="572" 
d="M249 -12q-39 0 -79.5 11.5t-74.5 35.5t-55 63l49 37q33 -48 74.5 -69.5t87.5 -21.5q52 0 94.5 22t71.5 60.5t37 89.5q13 74 -24.5 119.5t-109.5 45.5q-42 0 -85 -17.5t-69 -43.5l-57 15l91 365h365l-9 -58h-365l9 56h64l-93 -363h-62q19 23 44 41.5t53 32t57.5 21
t57.5 7.5q68 0 115 -29.5t68.5 -81t10.5 -118.5q-11 -65 -48.5 -114.5t-94 -77.5t-123.5 -28z" />
    <glyph glyph-name="six" unicode="6" horiz-adv-x="560" 
d="M258 -12q-74 0 -118.5 28t-65 77t-22 112t10.5 133q15 93 45.5 163t73 117t94 70.5t108.5 23.5q53 0 102 -17t84 -46l-44 -43q-28 23 -63 35.5t-70 12.5q-112 0 -186 -93.5t-97 -279.5l-12 21q35 63 94.5 99t132.5 36q60 0 105.5 -25.5t71 -67.5t25.5 -93t-19 -98
t-55 -84.5t-85.5 -59t-109.5 -21.5zM260 46q61 0 106.5 29.5t71 76t25.5 98.5q0 59 -38 94t-101 35q-50 0 -93 -21.5t-71.5 -60t-37.5 -88.5q-12 -73 26.5 -118t111.5 -45z" />
    <glyph glyph-name="seven" unicode="7" horiz-adv-x="530" 
d="M34 0l481 672l51 -30l-459 -642h-73zM111 642l9 58h455l-9 -58h-37h-418z" />
    <glyph glyph-name="eight" unicode="8" horiz-adv-x="615" 
d="M267 -12q-73 0 -125.5 25t-77 70t-15.5 103q10 59 48.5 103.5t97 69.5t130.5 25q74 0 126.5 -26.5t77 -72.5t14.5 -107q-9 -56 -47.5 -99t-97.5 -67t-131 -24zM269 46q55 0 100.5 18.5t75 51t36.5 74.5q11 62 -33 99.5t-124 37.5q-54 0 -99.5 -18.5t-75 -51t-36.5 -75.5
q-10 -61 33.5 -98.5t122.5 -37.5zM326 337q-65 0 -112 24t-68.5 66.5t-12.5 98.5q10 55 44 97t87 65.5t116 23.5q66 0 112.5 -24.5t68.5 -68.5t12 -101q-9 -54 -43.5 -94.5t-87 -63.5t-116.5 -23zM327 394q47 0 86 16t64.5 45t31.5 66q11 59 -25.5 96t-104.5 37
q-46 0 -85.5 -18t-65.5 -49.5t-33 -73.5q-9 -53 28 -86t104 -33z" />
    <glyph glyph-name="nine" unicode="9" horiz-adv-x="560" 
d="M335 712q74 0 118.5 -28t65 -77t22 -112t-10.5 -133q-15 -93 -45.5 -163t-73 -117t-94 -70.5t-108.5 -23.5q-52 0 -101.5 17t-84.5 46l44 43q29 -23 64 -35.5t69 -12.5q113 0 186.5 93.5t96.5 279.5l12 -21q-34 -63 -94 -99t-133 -36q-60 0 -105.5 25.5t-71 68
t-25.5 92.5q0 51 19 98t55 84.5t85.5 59t109.5 21.5zM333 654q-60 0 -106 -29.5t-71.5 -76t-25.5 -98.5q0 -58 38 -93.5t101 -35.5q51 0 93.5 21.5t71.5 60t37 88.5q12 73 -26.5 118t-111.5 45z" />
    <glyph glyph-name="colon" unicode=":" horiz-adv-x="234" 
d="M147 410q-13 0 -23.5 7t-15.5 18.5t-3 24.5q3 17 17.5 29.5t31.5 12.5q14 0 24 -7t15 -18t3 -25q-3 -17 -17.5 -29.5t-31.5 -12.5zM80 -2q-13 0 -23.5 7t-15.5 18.5t-3 24.5q3 17 17.5 29.5t31.5 12.5q14 0 24 -7t15 -18t3 -25q-3 -17 -17.5 -29.5t-31.5 -12.5z" />
    <glyph glyph-name="semicolon" unicode=";" horiz-adv-x="241" 
d="M143 410q-13 0 -23.5 7t-15.5 18.5t-3 24.5q3 17 17.5 29.5t31.5 12.5q14 0 24 -7t15 -18t3 -25q-3 -17 -17.5 -29.5t-31.5 -12.5zM-17 -116l89 202h72l-104 -202h-57z" />
    <glyph glyph-name="less" unicode="&#x3c;" horiz-adv-x="620" 
d="M510 489l-12 -67l-356 -156l10 64zM152 328l304 -161l-10 -58l-304 157z" />
    <glyph glyph-name="equal" unicode="=" horiz-adv-x="620" 
d="M130 369l9 57h400l-9 -57h-400zM96 169l10 57h400l-10 -57h-400z" />
    <glyph glyph-name="greater" unicode="&#x3e;" horiz-adv-x="620" 
d="M126 107l12 67l356 156l-10 -64zM484 268l-304 161l10 58l304 -157z" />
    <glyph glyph-name="question" unicode="?" horiz-adv-x="501" 
d="M190 304l10 58h42q48 0 88 19t67 53.5t34 79.5q11 62 -24.5 101t-101.5 39q-52 0 -95 -24t-61 -59l-56 24q29 52 84.5 84.5t128.5 32.5q65 0 111 -26.5t66.5 -73t10.5 -106.5t-46 -105.5t-90.5 -71t-121.5 -25.5h-46zM173 -14q-22 0 -34 14t-8 36q3 19 16.5 30.5
t32.5 11.5q22 0 34 -14t8 -36q-3 -19 -16.5 -30.5t-32.5 -11.5zM170 183l30 179h64l-30 -179h-64z" />
    <glyph glyph-name="at" unicode="@" horiz-adv-x="988" 
d="M440 -213q-102 0 -182 34.5t-132 97.5t-72 148.5t-3 188.5q17 101 64.5 185t119.5 145.5t162 95t191 33.5q94 0 166.5 -34t119 -96.5t64 -147.5t0.5 -187q-10 -58 -31 -107t-51.5 -84t-66.5 -54.5t-76 -19.5q-37 0 -59.5 14t-30.5 40.5t-2 62.5l63 377h66l-63 -379
q-4 -25 4 -41t25 -16q36 0 68.5 27.5t56.5 75t34 108.5q20 119 -10.5 209.5t-102 142t-176.5 51.5q-88 0 -167 -30t-142.5 -85t-105.5 -129.5t-57 -164.5q-20 -118 15.5 -209t116 -142.5t196.5 -51.5q42 0 92 10.5t87 26.5l24 -49q-46 -21 -103.5 -33.5t-101.5 -12.5z
M430 15q-68 0 -115 31t-67.5 86t-9.5 125q12 69 49 121.5t92.5 82t121.5 29.5q65 0 109.5 -31t64 -85t7.5 -125q-11 -68 -47 -121t-89 -83t-116 -30zM441 73q52 0 95.5 23.5t73.5 65.5t39 95q13 77 -26.5 126t-113.5 49q-52 0 -96 -23.5t-73.5 -64.5t-38.5 -95
q-13 -77 26 -126.5t114 -49.5z" />
    <glyph glyph-name="A" unicode="A" horiz-adv-x="668" 
d="M-32 0l405 700h70l-401 -700h-74zM551 0l-168 700h62l171 -700h-65zM140 217l10 58h370l-10 -58h-370z" />
    <glyph glyph-name="B" unicode="B" horiz-adv-x="610" 
d="M58 0l117 700h213q71 0 118 -22.5t67 -65.5t10 -103q-18 -110 -117 -156q50 -25 71.5 -68t11.5 -102q-15 -87 -79.5 -135t-167.5 -48h-244zM132 59h176q73 0 121 35.5t58 96.5q11 65 -30 100t-127 35h-154zM186 385h177q64 0 106.5 35.5t52.5 96.5q10 60 -26 92.5
t-113 32.5h-154z" />
    <glyph glyph-name="C" unicode="C" horiz-adv-x="720" 
d="M349 -12q-100 0 -169.5 47t-99.5 129.5t-13 189.5q14 79 49 144.5t87.5 113.5t117.5 74t138 26q60 0 113.5 -22t93.5 -61t57 -89l-56 -29q-14 43 -46 75t-74 50t-89 18q-60 0 -114.5 -22.5t-98.5 -64t-74 -97.5t-41 -124q-15 -89 8.5 -157t78.5 -106.5t134 -38.5
q50 0 100.5 21t94 57.5t71.5 82.5l49 -37q-35 -53 -87 -94t-112 -63.5t-118 -22.5z" />
    <glyph glyph-name="D" unicode="D" horiz-adv-x="683" 
d="M58 0l117 700h209q94 0 159.5 -45.5t94.5 -125t11 -183.5q-13 -76 -47 -139.5t-85.5 -109.5t-115 -71.5t-134.5 -25.5h-209zM132 58h143q54 0 105.5 23t94 64t72 94.5t39.5 114.5q14 80 -10 145t-76.5 104t-124.5 39h-146z" />
    <glyph glyph-name="E" unicode="E" horiz-adv-x="593" 
d="M58 0l117 700h403l-9 -58h-340l-42 -252h315l-9 -58h-315l-46 -274h339l-10 -58h-403z" />
    <glyph glyph-name="F" unicode="F" horiz-adv-x="537" 
d="M58 0l117 700h401l-9 -58h-338l-44 -267h303l-10 -58h-303l-53 -317h-64z" />
    <glyph glyph-name="G" unicode="G" horiz-adv-x="767" 
d="M373 -12q-107 0 -182 47t-108 129.5t-16 188.5q14 79 51 145t93 114t126 74t149 26q54 0 104.5 -18.5t90 -50.5t60.5 -73l-53 -33q-16 35 -47.5 61.5t-72 41t-83.5 14.5q-66 0 -125.5 -22.5t-107 -64t-79.5 -98t-43 -124.5q-14 -87 12 -154.5t86.5 -106t146.5 -38.5
q74 0 137 31.5t105.5 87t54.5 126.5h62q-11 -67 -43 -122.5t-80.5 -96t-109 -62.5t-128.5 -22zM496 291l10 59h238l-10 -59h-28h-210z" />
    <glyph glyph-name="H" unicode="H" horiz-adv-x="752" 
d="M58 0l117 700h64l-117 -700h-64zM546 0l117 700h64l-117 -700h-64zM178 332l9 58h424l-9 -58h-424z" />
    <glyph glyph-name="I" unicode="I" horiz-adv-x="264" 
d="M58 0l117 700h64l-117 -700h-64z" />
    <glyph glyph-name="J" unicode="J" horiz-adv-x="500" 
d="M144 -11q-32 0 -58 8t-46 22.5t-34.5 34.5t-24.5 43l49 31q11 -23 26.5 -41.5t38 -29t51.5 -10.5q39 0 80.5 19t74 62.5t44.5 115.5l76 456h64l-82 -490q-9 -57 -35.5 -98.5t-64 -68.5t-79 -40.5t-80.5 -13.5z" />
    <glyph glyph-name="K" unicode="K" horiz-adv-x="588" 
d="M153 264l-36 41l449 395h79zM58 0l117 700h60l-117 -700h-60zM465 0l-232 356l44 43l263 -399h-75z" />
    <glyph glyph-name="L" unicode="L" horiz-adv-x="513" 
d="M58 0l117 700h64l-107 -642h339l-10 -58h-403z" />
    <glyph glyph-name="M" unicode="M" horiz-adv-x="841" 
d="M58 0l117 700h64l193 -380l319 380h65l-117 -700h-64l99 594l-319 -383l-194 381l-99 -592h-64z" />
    <glyph glyph-name="N" unicode="N" horiz-adv-x="774" 
d="M58 0l117 700h64l346 -600l100 600h64l-117 -700h-64l-345 599l-101 -599h-64z" />
    <glyph glyph-name="O" unicode="O" horiz-adv-x="772" 
d="M349 -12q-75 0 -133.5 26.5t-96 75.5t-51.5 116t-1 148q18 106 73.5 186.5t138 126t180.5 45.5q75 0 133 -27t95 -76t51 -116t0 -147q-17 -105 -73 -186t-137.5 -126.5t-178.5 -45.5zM351 46q80 0 148 39.5t114.5 109t61.5 159.5q15 88 -8 155.5t-76.5 106t-132.5 38.5
q-80 0 -149.5 -39.5t-116.5 -109t-62 -159.5q-14 -88 9 -155.5t78 -106t134 -38.5z" />
    <glyph glyph-name="P" unicode="P" horiz-adv-x="570" 
d="M58 0l117 700h213q66 0 112.5 -28t67.5 -78t10 -115q-10 -62 -43 -110.5t-81.5 -75.5t-106.5 -27h-181l-44 -266h-64zM176 325h177q40 0 74 20.5t58 57.5t32 84q11 69 -26 112t-108 43h-154z" />
    <glyph glyph-name="Q" unicode="Q" horiz-adv-x="776" 
d="M349 -12q-75 0 -133.5 26.5t-96 75.5t-51.5 116t-1 148q18 106 73.5 186.5t138 126t180.5 45.5q75 0 133 -27t95 -76t51 -116t0 -147q-17 -105 -73 -186t-137.5 -126.5t-178.5 -45.5zM637 -38l-207 249l50 42l205 -248zM351 46q80 0 148 39.5t114.5 109t61.5 159.5
q15 88 -8 155.5t-76.5 106t-132.5 38.5q-80 0 -149.5 -39.5t-116.5 -109t-62 -159.5q-14 -88 9 -155.5t78 -106t134 -38.5z" />
    <glyph glyph-name="R" unicode="R" horiz-adv-x="618" 
d="M58 0l117 700h213q67 0 113.5 -27t68 -74.5t10.5 -109.5q-10 -59 -48.5 -105t-96.5 -72t-125 -26h-140l-48 -286h-64zM457 0l-122 290l57 31l133 -321h-68zM180 345h166q40 0 76.5 19.5t62.5 54t33 78.5q11 65 -26.5 105t-108.5 40h-154z" />
    <glyph glyph-name="S" unicode="S" horiz-adv-x="617" 
d="M279 -12q-60 0 -103 13t-72 35t-45 49.5t-21 57.5l62 19q9 -47 52.5 -81.5t113.5 -34.5q57 0 108 17.5t82.5 52t31.5 86.5q0 37 -18 59t-51 35t-77 23l-68 16q-40 10 -73.5 29.5t-53.5 51t-20 76.5q0 66 34.5 115.5t94.5 77t137 27.5q70 0 117 -24t72 -59t29 -70l-61 -19
q-13 55 -56.5 84.5t-111.5 29.5q-51 0 -94.5 -19.5t-69.5 -54t-26 -79.5q0 -46 28 -69.5t74 -34.5l83 -20q62 -15 100.5 -38t56.5 -56.5t18 -80.5q0 -61 -37 -109.5t-99 -76.5t-137 -28z" />
    <glyph glyph-name="T" unicode="T" horiz-adv-x="540" 
d="M196 0l108 642h-228l9 58h520l-9 -58h-228l-108 -642h-64z" />
    <glyph glyph-name="U" unicode="U" horiz-adv-x="709" 
d="M311 -16q-78 0 -132 33.5t-78 92.5t-12 135l76 455h64l-76 -455q-10 -60 7.5 -105.5t57.5 -71.5t97 -26q60 0 111 26t85 72t43 105l76 455h64l-76 -455q-13 -77 -56.5 -136t-108.5 -92t-142 -33z" />
    <glyph glyph-name="V" unicode="V" horiz-adv-x="681" 
d="M267 0l411 700h68l-412 -700h-67zM262 0l-177 700h65l176 -700h-64z" />
    <glyph glyph-name="W" unicode="W" horiz-adv-x="950" 
d="M611 0l339 700h65l-338 -700h-66zM184 0l-99 700h63l100 -700h-64zM188 0l329 700h65l-328 -700h-66zM607 0l-89 700h63l90 -700h-64z" />
    <glyph glyph-name="X" unicode="X" horiz-adv-x="589" 
d="M-33 0l334 385l277 315h77l-327 -370l-281 -330h-80zM460 0l-169 330l-205 370h75l169 -315l206 -385h-76z" />
    <glyph glyph-name="Y" unicode="Y" horiz-adv-x="588" 
d="M334 292l-46 36l290 372h76zM220 0l56 336h64l-56 -336h-64zM270 292l-184 408h74l166 -372z" />
    <glyph glyph-name="Z" unicode="Z" horiz-adv-x="644" 
d="M18 58l593 616l49 -32l-561 -584h-81zM8 0l10 58h541l-10 -58h-541zM119 642l9 58h541l-9 -58h-541z" />
    <glyph glyph-name="bracketleft" unicode="[" horiz-adv-x="316" 
d="M41 -100l151 900h136l-10 -58h-72l-131 -784h72l-10 -58h-136z" />
    <glyph glyph-name="backslash" unicode="\" horiz-adv-x="651" 
d="M580 -84h-69l-413 831h67z" />
    <glyph glyph-name="bracketright" unicode="]" horiz-adv-x="316" 
d="M308 800l-151 -900h-136l10 58h72l131 784h-72l10 58h136z" />
    <glyph glyph-name="asciicircum" unicode="^" horiz-adv-x="539" 
d="M101 373l210 327h67l-213 -327h-64zM419 373l-107 327h66l102 -327h-61z" />
    <glyph glyph-name="underscore" unicode="_" horiz-adv-x="440" 
d="M-31 -57l9 57h400l-9 -57h-400z" />
    <glyph glyph-name="grave" unicode="`" horiz-adv-x="160" 
d="M46 574l-88 126h83l77 -126h-72z" />
    <glyph glyph-name="a" unicode="a" 
d="M409 0l13 93l68 407h60l-84 -500h-57zM232 -12q-56 0 -99 26.5t-67.5 73.5t-24.5 108q0 59 19.5 115.5t55.5 101.5t85.5 72t110.5 27q56 0 96 -25.5t62 -71.5t22 -107q0 -80 -22.5 -140t-60.5 -100t-84 -60t-93 -20zM245 42q49 0 87.5 23t65.5 61.5t41 84.5t14 92
q0 70 -35 112.5t-96 42.5q-50 0 -90.5 -22.5t-70 -60t-45 -83t-15.5 -92.5q0 -70 39 -114t105 -44z" />
    <glyph glyph-name="b" unicode="b" horiz-adv-x="584" 
d="M33 0l117 700h60l-101 -607l-19 -93h-57zM352 512q56 0 99 -26.5t67.5 -73.5t24.5 -108q0 -59 -19.5 -115.5t-55.5 -101.5t-85.5 -72t-110.5 -27q-55 0 -95.5 25.5t-62.5 71.5t-22 107q0 80 22.5 140t60.5 100t84 60t93 20zM339 458q-49 0 -87.5 -23t-65.5 -61.5
t-41 -84.5t-14 -92q0 -70 35 -112.5t96 -42.5q50 0 90.5 22.5t70 60t45 83t15.5 92.5q0 70 -39 114t-105 44z" />
    <glyph glyph-name="c" unicode="c" horiz-adv-x="540" 
d="M251 -12q-73 0 -123.5 34t-72.5 94t-9 138q13 76 53 134t100 91t130 33q48 0 86.5 -15t66 -42t41.5 -64l-55 -24q-16 43 -52.5 66.5t-87.5 23.5q-55 0 -102 -27t-79 -74.5t-43 -109.5q-10 -60 5.5 -105.5t52.5 -71.5t90 -26q56 0 103 28.5t78 77.5l50 -32
q-40 -61 -100.5 -95t-131.5 -34z" />
    <glyph glyph-name="d" unicode="d" 
d="M409 0l13 93l101 607h60l-117 -700h-57zM232 -12q-56 0 -99 26.5t-67.5 73.5t-24.5 108q0 59 19.5 115.5t55.5 101.5t85.5 72t110.5 27q56 0 96 -25.5t62 -71.5t22 -107q0 -80 -22.5 -140t-60.5 -100t-84 -60t-93 -20zM245 42q49 0 87.5 23t65.5 61.5t41 84.5t14 92
q0 70 -35 112.5t-96 42.5q-50 0 -90.5 -22.5t-70 -60t-45 -83t-15.5 -92.5q0 -70 39 -114t105 -44z" />
    <glyph glyph-name="e" unicode="e" horiz-adv-x="543" 
d="M251 -12q-73 0 -123.5 34t-72.5 94t-9 138q13 76 53 134t99 91t128 33q72 0 116.5 -34.5t61 -95t3.5 -139.5h-403q-9 -59 6.5 -104t52 -70.5t89.5 -25.5q59 0 105.5 29.5t76.5 74.5l47 -35q-25 -37 -60 -65t-78 -43.5t-92 -15.5zM118 298h335q2 71 -29 115t-99 44
q-69 0 -125 -44t-82 -115z" />
    <glyph glyph-name="f" unicode="f" horiz-adv-x="359" 
d="M83 0l94 562q13 77 52.5 113.5t109.5 36.5q17 0 38.5 -6.5t49.5 -18.5l-27 -49q-25 10 -41.5 14.5t-25.5 4.5q-40 0 -64 -25t-32 -74l-94 -558h-60zM63 445l9 55h308l-9 -55h-308z" />
    <glyph glyph-name="g" unicode="g" horiz-adv-x="582" 
d="M193 -212q-46 0 -83 10t-61 22l-34 17l27 48q11 -7 33.5 -17t53.5 -17.5t65 -7.5q80 0 140.5 49t78.5 156l76 452h60l-76 -456q-14 -87 -56 -144t-100.5 -84.5t-123.5 -27.5zM233 0q-67 0 -113.5 33.5t-66 93t-6.5 135.5q13 74 50.5 130t93 88t120.5 32t109 -33t62.5 -91
t5.5 -134q-12 -74 -49 -131.5t-90 -90t-116 -32.5zM246 53q49 0 91.5 27t72 74t39.5 108q10 58 -3 102.5t-45 70t-80 25.5q-53 0 -98 -26.5t-76 -73t-41 -106.5q-10 -59 4.5 -104.5t49.5 -71t86 -25.5z" />
    <glyph glyph-name="h" unicode="h" horiz-adv-x="554" 
d="M33 0l117 700h60l-117 -700h-60zM392 0l43 258l65 26l-48 -284h-60zM435 258q14 83 1.5 125.5t-42.5 57.5t-71 15q-73 0 -122.5 -53.5t-65.5 -147.5l-37 4q14 80 45.5 136.5t80 86.5t111.5 30q92 0 138.5 -57t26.5 -171l-4 -26h-61z" />
    <glyph glyph-name="i" unicode="i" horiz-adv-x="221" 
d="M37 0l86 500h60l-86 -500h-60zM181 630q-16 0 -28 12t-12 28q0 17 12 28.5t28 11.5q17 0 28.5 -11.5t11.5 -28.5q0 -16 -11.5 -28t-28.5 -12z" />
    <glyph glyph-name="j" unicode="j" horiz-adv-x="248" 
d="M-37 -215q-17 0 -38.5 6.5t-48.5 18.5l27 49q48 -19 66 -19q80 0 97 99l94 561h60l-95 -565q-13 -76 -52.5 -113t-109.5 -37zM219 630q-16 0 -28 12t-12 28q0 17 12 28.5t28 11.5q17 0 28.5 -11.5t11.5 -28.5q0 -16 -11.5 -28t-28.5 -12z" />
    <glyph glyph-name="k" unicode="k" horiz-adv-x="464" 
d="M33 0l117 700h60l-117 -700h-60zM125 174l-37 41l317 285h82zM348 0l-150 304l44 43l179 -347h-73z" />
    <glyph glyph-name="l" unicode="l" horiz-adv-x="212" 
d="M33 0l119 700h60l-119 -700h-60z" />
    <glyph glyph-name="m" unicode="m" horiz-adv-x="843" 
d="M33 0l84 500h56l-12 -92l-68 -408h-60zM357 0l43 257l65 30l-48 -287h-60zM400 257q14 83 4.5 126t-35.5 58t-62 15q-64 0 -109.5 -53.5t-61.5 -147.5l-37 4q20 120 76.5 186.5t143.5 66.5q83 0 124.5 -57t21.5 -171zM681 0l43 257l65 29l-48 -286h-60zM724 257
q14 83 4.5 126t-35.5 58t-62 15q-64 0 -109.5 -53.5t-61.5 -147.5l-37 4q20 120 76.5 186.5t143.5 66.5q83 0 124.5 -57t21.5 -171z" />
    <glyph glyph-name="n" unicode="n" horiz-adv-x="554" 
d="M33 0l84 500h56l-12 -92l-68 -408h-60zM392 0l43 258h61l-44 -258h-60zM435 258q14 83 1.5 125.5t-42.5 57.5t-71 15q-73 0 -122.5 -53.5t-65.5 -147.5l-37 4q14 80 45.5 136.5t80 86.5t111.5 30q92 0 138.5 -57t26.5 -171l-4 -26h-61z" />
    <glyph glyph-name="o" unicode="o" horiz-adv-x="579" 
d="M251 -12q-73 0 -123.5 34t-72.5 94t-9 138q13 76 53 134t100 91t130 33q73 0 123.5 -34t72 -94t8.5 -138q-12 -76 -52.5 -134t-100 -91t-129.5 -33zM252 43q55 0 101.5 27t79 74.5t42.5 109.5q10 60 -5 105.5t-51.5 71.5t-90.5 26q-55 0 -102 -27t-79 -74.5t-43 -109.5
q-10 -60 5.5 -105.5t52.5 -71.5t90 -26z" />
    <glyph glyph-name="p" unicode="p" horiz-adv-x="588" 
d="M5 -200l117 700h56l-12 -92l-101 -608h-60zM356 512q56 0 99 -26.5t67.5 -73.5t24.5 -108q0 -59 -19.5 -115.5t-55.5 -101.5t-85.5 -72t-110.5 -27q-55 0 -95.5 25.5t-62.5 71.5t-22 107q0 80 22.5 140t60.5 100t84 60t93 20zM343 458q-49 0 -87.5 -23t-65.5 -61.5
t-41 -84.5t-14 -92q0 -70 35 -112.5t96 -42.5q50 0 90.5 22.5t70 60t45 83t15.5 92.5q0 70 -39 114t-105 44z" />
    <glyph glyph-name="q" unicode="q" horiz-adv-x="588" 
d="M373 -200l101 607l19 93h57l-117 -700h-60zM232 -12q-56 0 -99 26.5t-67.5 73.5t-24.5 108q0 59 19.5 115.5t55.5 101.5t85.5 72t110.5 27q56 0 96 -25.5t62 -71.5t22 -107q0 -80 -22.5 -140t-60.5 -100t-84 -60t-93 -20zM245 42q49 0 87.5 23t65.5 61.5t41 84.5t14 92
q0 70 -35 112.5t-96 42.5q-50 0 -90.5 -22.5t-70 -60t-45 -83t-15.5 -92.5q0 -70 39 -114t105 -44z" />
    <glyph glyph-name="r" unicode="r" horiz-adv-x="324" 
d="M33 0l84 500h60l-84 -500h-60zM104 276q14 81 52 131t90 72.5t106 22.5l-5 -55q-44 0 -87.5 -16t-76 -53t-43.5 -100z" />
    <glyph glyph-name="s" unicode="s" horiz-adv-x="466" 
d="M205 -12q-58 0 -97 17.5t-60 45t-27 56.5l56 16q11 -37 44 -58.5t74 -21.5q35 0 69 11.5t56 34t22 56.5q0 29 -22.5 47t-67.5 31l-47 13q-58 16 -89.5 47t-31.5 71q0 48 25.5 83.5t71.5 55t107 19.5q66 0 107 -28.5t52 -76.5l-56 -19q-11 39 -37.5 54t-75.5 15
q-56 0 -95 -28t-39 -69q0 -19 20.5 -37.5t63.5 -29.5l41 -11q72 -19 103 -55t31 -80q0 -46 -27 -82t-71.5 -56.5t-99.5 -20.5z" />
    <glyph glyph-name="t" unicode="t" horiz-adv-x="379" 
d="M218 -12q-67 0 -98.5 37.5t-20.5 104.5l88 526h60l-89 -530q-7 -40 10.5 -61.5t56.5 -21.5q13 0 26.5 5t38.5 18l20 -54q-33 -16 -53 -20t-39 -4zM63 445l9 55h308l-9 -55h-308z" />
    <glyph glyph-name="u" unicode="u" horiz-adv-x="554" 
d="M381 0l12 92l68 408h60l-84 -500h-56zM54 216l48 284h60l-43 -258zM119 242q-14 -83 -1.5 -125.5t43 -57.5t70.5 -15q73 0 122.5 53.5t65.5 147.5l37 -4q-13 -80 -45 -136.5t-80 -86.5t-112 -30q-91 0 -137.5 57t-27.5 171l4 26h61z" />
    <glyph glyph-name="v" unicode="v" horiz-adv-x="507" 
d="M181 0l293 500h65l-294 -500h-64zM180 0l-128 500h59l127 -500h-58z" />
    <glyph glyph-name="w" unicode="w" horiz-adv-x="764" 
d="M139 0l-87 500h59l88 -500h-60zM139 0l255 500h60l-254 -500h-61zM482 0l-87 500h59l88 -500h-60zM481 0l254 500h61l-253 -500h-62z" />
    <glyph glyph-name="x" unicode="x" horiz-adv-x="452" 
d="M-32 0l252 288l180 212h74l-231 -267l-199 -233h-76zM329 0l-117 233l-145 267h70l109 -212l154 -288h-71z" />
    <glyph glyph-name="y" unicode="y" horiz-adv-x="506" 
d="M25 -212q-17 0 -38.5 6.5t-49.5 18.5l27 49q48 -19 67 -19q30 0 52.5 17t38.5 45l79 134l273 461h64l-342 -582q-25 -42 -49 -71t-53 -44t-69 -15zM180 0l-128 500h61l116 -460l11 -40h-60z" />
    <glyph glyph-name="z" unicode="z" horiz-adv-x="497" 
d="M64 20l-47 32l415 431l46 -32zM8 0l9 52l43 3h354l-9 -55h-397zM83 445l9 55h394l-8 -49l-43 -6h-352z" />
    <glyph glyph-name="braceleft" unicode="{" horiz-adv-x="386" 
d="M78 339l3 36q40 0 64 12t38 42.5t23 86.5q15 86 31 141t39 86.5t56 44t82 12.5l-6 -58q-39 -1 -64 -21t-42 -70t-33 -142q-9 -51 -21.5 -84.5t-33.5 -52t-54 -26t-82 -7.5zM267 -100q-65 0 -96.5 24.5t-34.5 88t16 179.5q9 54 6 83t-22 39.5t-59 10.5l3 36q66 0 99 -15
t40.5 -53.5t-4.5 -109.5q-15 -89 -15.5 -137.5t17 -67.5t56.5 -20z" />
    <glyph glyph-name="bar" unicode="|" horiz-adv-x="258" 
d="M21 -220l169 1010h58l-169 -1010h-58z" />
    <glyph glyph-name="braceright" unicode="}" horiz-adv-x="385" 
d="M341 361l-3 -36q-40 0 -64 -12t-38 -42.5t-23 -86.5q-15 -85 -31 -140.5t-39 -87t-56 -44t-82 -12.5l6 58q39 1 64 21t42.5 70.5t32.5 141.5q9 51 21.5 84.5t33.5 52t54 26t82 7.5zM152 800q65 0 96.5 -24.5t35 -88t-16.5 -179.5q-9 -54 -6 -82.5t22 -39.5t59 -11l-3 -36
q-65 0 -98.5 15t-40.5 54t4 109q15 90 15.5 138t-17 67t-56.5 20z" />
    <glyph glyph-name="asciitilde" unicode="~" horiz-adv-x="522" 
d="M348 237q-28 0 -54 17t-43 39q-20 27 -33.5 36.5t-27.5 9.5q-25 0 -43 -20t-30 -54h-54q8 38 25 67.5t44.5 46.5t64.5 17q28 0 54.5 -17t42.5 -39q14 -18 24 -28t19 -14t18 -4q26 0 43.5 20t29.5 54h54q-8 -38 -25.5 -67.5t-44 -46.5t-64.5 -17z" />
    <glyph glyph-name="uni00A0" unicode="&#xa0;" horiz-adv-x="250" 
 />
    <glyph glyph-name="exclamdown" unicode="&#xa1;" horiz-adv-x="292" 
d="M188 305l-85 -507h-64l85 507h64zM186 512q14 0 24 -7t15 -18t3 -25q-3 -17 -17.5 -29.5t-31.5 -12.5q-13 0 -23.5 7t-15.5 18.5t-3 24.5q3 17 17.5 29.5t31.5 12.5z" />
    <glyph glyph-name="cent" unicode="&#xa2;" horiz-adv-x="540" 
d="M213 0l119 700h56l-120 -700h-55zM269 98q-73 0 -123.5 34t-72.5 94t-9 138q13 76 53 134t100 91t130 33q48 0 86.5 -15t66 -42t41.5 -64l-55 -24q-16 43 -52.5 66.5t-87.5 23.5q-55 0 -102 -27t-79 -74.5t-43 -109.5q-10 -60 5.5 -105.5t52.5 -71.5t90 -26
q56 0 103 28.5t78 77.5l50 -32q-40 -61 -100.5 -95t-131.5 -34z" />
    <glyph glyph-name="sterling" unicode="&#xa3;" horiz-adv-x="569" 
d="M107 122l67 399q10 57 41.5 100t79 67t103.5 24q58 0 98.5 -24.5t58.5 -69.5t7 -109l-60 14q10 59 -19.5 95t-85.5 36q-39 0 -73 -18t-56.5 -48.5t-29.5 -70.5l-65 -384zM44 0v58q21 0 40 19t23 45l66 11q-7 -42 -26 -72t-46 -45.5t-57 -15.5zM8 0l10 58h469l-10 -58
h-469zM57 291l10 59h342l-10 -59h-342z" />
    <glyph glyph-name="currency" unicode="&#xa4;" horiz-adv-x="538" 
d="M266 189q-48 0 -81.5 21t-48.5 58.5t-8 85.5q8 45 33.5 79t64.5 53.5t85 19.5q49 0 82.5 -20.5t49 -56.5t7.5 -83q-7 -46 -33.5 -81.5t-65.5 -55.5t-85 -20zM106 162l-34 39l81 71l36 -38zM405 162l-50 60l45 39l50 -60zM267 243q47 0 81.5 31t42.5 80q8 43 -14.5 70.5
t-66.5 27.5q-46 0 -80.5 -29.5t-42.5 -76.5q-7 -45 15 -74t65 -29zM183 429l-61 71l44 40l62 -72zM424 435l-36 38l77 67l35 -40z" />
    <glyph glyph-name="yen" unicode="&#xa5;" horiz-adv-x="522" 
d="M301 296l-47 32l263 384h72zM186 0l56 336h64l-56 -336h-64zM81 194l8 52h340l-8 -52h-340zM98 296l8 52h340l-8 -52h-340zM237 296l-150 416h70l135 -384z" />
    <glyph glyph-name="brokenbar" unicode="&#xa6;" horiz-adv-x="258" 
d="M117 350l73 440h58l-73 -440h-58zM21 -220l74 440h58l-74 -440h-58z" />
    <glyph glyph-name="section" unicode="&#xa7;" horiz-adv-x="588" 
d="M249 -90q-59 0 -98 17.5t-60.5 44.5t-26.5 58l63 18q6 -34 35.5 -57.5t78.5 -23.5q63 0 103 26t47 67q6 35 -20 57.5t-75 34.5l-56 14q-52 14 -86 49t-24 95q12 71 64.5 110t138.5 39q51 0 84.5 -17.5t51.5 -45.5t22 -58l-51 -14q-9 37 -46 57.5t-78 20.5
q-49 0 -81.5 -26t-39.5 -69q-6 -35 13 -54t56 -28l55 -14q74 -19 109.5 -61.5t27.5 -92.5q-10 -61 -63 -104t-144 -43zM286 163q-51 0 -84.5 18t-51 47t-21.5 60l35 13q6 -21 22 -39t42.5 -28.5t62.5 -10.5q57 0 94 25t43 65q6 35 -20 57t-75 35l-56 15q-52 14 -86 48.5
t-24 94.5q12 71 64.5 110t138.5 39q53 0 89 -17.5t56 -44.5t24 -56l-62 -17q-7 37 -37 57.5t-77 20.5q-53 0 -88.5 -26t-42.5 -69q-6 -35 13 -53.5t56 -27.5l56 -14q75 -19 109.5 -62t26.5 -93q-10 -61 -63 -104t-144 -43z" />
    <glyph glyph-name="dieresis" unicode="&#xa8;" horiz-adv-x="270" 
d="M84 630q-16 0 -28 12t-12 28q0 17 12 28.5t28 11.5q17 0 28.5 -11.5t11.5 -28.5q0 -16 -11.5 -28t-28.5 -12zM326 630q-16 0 -28 12t-12 28q0 17 12 28.5t28 11.5q17 0 28.5 -11.5t11.5 -28.5q0 -16 -11.5 -28t-28.5 -12z" />
    <glyph glyph-name="copyright" unicode="&#xa9;" horiz-adv-x="823" 
d="M393 152q-55 0 -95.5 25.5t-58.5 72t-9 107.5q10 56 40.5 99t75.5 67.5t98 24.5q57 0 99 -30.5t56 -75.5l-53 -15q-10 32 -36 50.5t-60 18.5q-40 0 -74.5 -20t-57.5 -54.5t-30 -80.5q-10 -60 18 -99t82 -39q40 0 75.5 23.5t57.5 57.5l51 -29q-29 -47 -78 -75t-101 -28z
M372 -11q-76 0 -137.5 28.5t-103.5 78.5t-59 116t-5 142q13 74 51.5 139t96 114t127 77t143.5 28q76 0 137.5 -28.5t103 -79t59 -116.5t4.5 -142q-12 -74 -50.5 -139t-96 -114t-127 -76.5t-143.5 -27.5zM374 45q87 0 162 39.5t126 109.5t66 160q15 88 -12 156t-87 107
t-145 39q-87 0 -162.5 -40t-127 -109.5t-66.5 -160.5q-14 -88 13 -156t87.5 -106.5t145.5 -38.5z" />
    <glyph glyph-name="ordfeminine" unicode="&#xaa;" horiz-adv-x="378" 
d="M195 393q-49 0 -82 34t-33 88q0 50 19.5 93.5t56 71t86.5 27.5q49 0 76 -32t27 -85q0 -43 -11.5 -79t-32 -62.5t-47.5 -41t-59 -14.5zM212 446q33 0 57 20t37 50t13 60q0 35 -18.5 56.5t-50.5 21.5t-57 -19t-39 -48t-14 -61q0 -35 19.5 -57.5t52.5 -22.5zM294 400l7 56
l41 244h58l-51 -300h-55z" />
    <glyph glyph-name="guillemotleft" unicode="&#xab;" horiz-adv-x="522" 
d="M235 298l191 202h78l-191 -202h-78zM360 96l-123 202h74l123 -202h-74zM58 298l191 202h78l-191 -202h-78zM183 96l-123 202h74l123 -202h-74z" />
    <glyph glyph-name="logicalnot" unicode="&#xac;" horiz-adv-x="620" 
d="M119 299l10 57h360l-10 -57h-360zM406 201l26 155h57l-26 -155h-57z" />
    <glyph glyph-name="registered" unicode="&#xae;" horiz-adv-x="626" 
d="M305 176q-60 0 -106.5 20t-77 56.5t-42 86t-1.5 109.5q10 58 37.5 106.5t68.5 83.5t92.5 54.5t109.5 19.5q60 0 106.5 -20t77 -56.5t42 -86t1.5 -109.5q-10 -58 -37.5 -106.5t-68.5 -83.5t-92.5 -54.5t-109.5 -19.5zM305 228q64 0 118 28t90.5 78t46.5 114
q11 64 -7.5 111.5t-61 74t-105.5 26.5q-64 0 -118 -28t-90 -77.5t-47 -114.5q-10 -63 8 -111t60.5 -74.5t105.5 -26.5zM222 301l48 292h100q44 0 69.5 -27t17.5 -69q-4 -27 -22.5 -48t-47.5 -32l49 -116h-52l-44 108h-53l-18 -108h-47zM294 453h56q21 0 39 15t22 37
q3 20 -9 32.5t-37 12.5h-55z" />
    <glyph glyph-name="macron" unicode="&#xaf;" horiz-adv-x="300" 
d="M55 580l10 57h300l-10 -57h-300z" />
    <glyph glyph-name="degree" unicode="&#xb0;" horiz-adv-x="364" 
d="M218 447q-37 0 -64.5 19t-40.5 51t-7 69q6 35 28 63.5t54 45.5t67 17q37 0 65 -18.5t42 -48.5t7 -67q-5 -35 -28 -65t-55.5 -48t-67.5 -18zM220 502q32 0 58.5 25t32.5 59q5 29 -11.5 50t-45.5 21q-31 0 -57.5 -23.5t-32.5 -55.5q-4 -31 12 -53.5t44 -22.5z" />
    <glyph glyph-name="plusminus" unicode="&#xb1;" horiz-adv-x="620" 
d="M263 139l69 408h57l-69 -408h-57zM96 314l9 57h450l-9 -57h-450zM43 0l9 51h450l-9 -51h-450z" />
    <glyph glyph-name="uni00B2" unicode="&#xb2;" horiz-adv-x="359" 
d="M126 403l-57 27q5 30 28.5 60t63.5 56l88 58q26 17 46 40t22 43q4 27 -13 45.5t-49 18.5q-33 0 -58.5 -19t-37.5 -45l-62 16q17 42 59.5 73t97.5 31q66 0 100.5 -36t25.5 -90q-6 -36 -29 -65t-63 -56l-82 -54q-19 -13 -36 -28.5t-28.5 -33.5t-15.5 -41zM60 380l9 50l47 6
h228l-9 -56h-275z" />
    <glyph glyph-name="uni00B3" unicode="&#xb3;" horiz-adv-x="329" 
d="M189 373q-52 0 -83.5 22.5t-40.5 54.5l57 20q6 -11 13.5 -21t20 -15.5t30.5 -5.5q40 0 67 22.5t31 56.5q5 32 -19.5 50.5t-77.5 18.5h-19l8 46h13q49 0 86.5 -15.5t56.5 -44.5t12 -70q-6 -37 -29 -63.5t-56 -41t-70 -14.5zM170 584l7 45h14q47 0 79 16.5t36 49.5
q3 21 -12 39t-48 18q-22 0 -42.5 -10t-37.5 -32l-50 26q14 23 35.5 39t47.5 24t52 8q39 0 67 -15t42 -41t8 -59q-6 -35 -32 -59.5t-65 -36.5t-85 -12h-16z" />
    <glyph glyph-name="acute" unicode="&#xb4;" horiz-adv-x="205" 
d="M54 574l140 126h86l-149 -126h-77z" />
    <glyph glyph-name="uni00B5" unicode="&#xb5;" horiz-adv-x="554" 
d="M-15 -200l117 700h60l-71 -426l-1 -2l-45 -272h-60zM218 -12q-82 0 -122.5 57t-21.5 171l45 26q-14 -83 -2 -125.5t42.5 -57.5t70.5 -15q73 0 122.5 53.5t65.5 147.5l37 -4q-20 -120 -81 -186.5t-156 -66.5zM381 0l12 92l68 408h60l-84 -500h-56z" />
    <glyph glyph-name="paragraph" unicode="&#xb6;" horiz-adv-x="531" 
d="M197 -84l58 350h-22q-58 0 -98.5 28.5t-58 78.5t-6.5 114q11 63 43.5 111t81 75t106.5 27h205l-131 -784h-64l121 726h-50l-121 -726h-64z" />
    <glyph glyph-name="periodcentered" unicode="&#xb7;" horiz-adv-x="253" 
d="M135 275q-13 0 -23.5 7t-15.5 18.5t-3 24.5q3 17 17.5 29.5t31.5 12.5q14 0 24 -7t15 -18t3 -25q-3 -17 -17.5 -29.5t-31.5 -12.5z" />
    <glyph glyph-name="cedilla" unicode="&#xb8;" horiz-adv-x="202" 
d="M38 -210q-22 0 -47.5 6.5t-61.5 28.5l27 39q17 -10 36.5 -19t37.5 -9q26 0 43.5 13t17.5 38q0 23 -21 34t-58 17l44 69l47 -15l-17 -26q24 -9 39 -30t15 -44q0 -52 -27 -77t-75 -25z" />
    <glyph glyph-name="uni00B9" unicode="&#xb9;" horiz-adv-x="283" 
d="M159 380l65 387l11 33h56l-71 -420h-61zM118 683l9 56q13 0 32.5 9t39.5 23t35 29l35 -42q-43 -37 -79.5 -56.5t-71.5 -18.5z" />
    <glyph glyph-name="ordmasculine" unicode="&#xba;" horiz-adv-x="366" 
d="M212 393q-46 0 -78 20.5t-46 57t-6 83.5q11 68 59.5 110.5t113.5 42.5q46 0 77.5 -20.5t46 -57t6.5 -83.5q-7 -45 -32 -79.5t-61.5 -54t-79.5 -19.5zM213 448q41 0 72.5 30t39.5 76q8 44 -12.5 71t-58.5 27q-41 0 -72.5 -29.5t-39.5 -76.5q-7 -43 12.5 -70.5t58.5 -27.5z
" />
    <glyph glyph-name="guillemotright" unicode="&#xbb;" horiz-adv-x="522" 
d="M303 298l-191 -202h-78l191 202h78zM178 500l123 -202h-74l-123 202h74zM480 298l-191 -202h-78l191 202h78zM355 500l123 -202h-74l-123 202h74z" />
    <glyph glyph-name="onequarter" unicode="&#xbc;" horiz-adv-x="825" 
d="M142 280l65 387l11 33h56l-71 -420h-61zM101 583l9 56q13 0 32.5 9t39.5 23t35 29l35 -42q-43 -37 -79.5 -56.5t-71.5 -18.5zM113 0l481 700h75l-481 -700h-75zM494 117l-43 27l236 276l33 -35zM443 94l8 50l38 5h298l-9 -55h-335zM621 0l65 383l1 37h65l-71 -420h-60z
" />
    <glyph glyph-name="onehalf" unicode="&#xbd;" horiz-adv-x="858" 
d="M142 280l65 387l11 33h56l-71 -420h-61zM101 583l9 56q13 0 32.5 9t39.5 23t35 29l35 -42q-43 -37 -79.5 -56.5t-71.5 -18.5zM113 0l481 700h75l-481 -700h-75zM561 23l-57 27q5 30 28.5 60t63.5 56l88 58q26 17 46 40t22 43q4 27 -13 45.5t-49 18.5q-33 0 -58.5 -19
t-37.5 -45l-62 16q17 42 59.5 73t97.5 31q66 0 100.5 -36t25.5 -90q-6 -36 -29 -65t-63 -56l-82 -54q-19 -13 -36 -28.5t-28.5 -33.5t-15.5 -41zM495 0l9 50l47 6h228l-9 -56h-275z" />
    <glyph glyph-name="threequarters" unicode="&#xbe;" horiz-adv-x="871" 
d="M172 273q-52 0 -83.5 22.5t-40.5 54.5l57 20q6 -11 13.5 -21t20 -15.5t30.5 -5.5q40 0 67 22.5t31 56.5q5 32 -19.5 50.5t-77.5 18.5h-19l8 46h13q49 0 86.5 -15.5t56.5 -44.5t12 -70q-6 -37 -29 -63.5t-56 -41t-70 -14.5zM153 484l7 45h14q47 0 79 16.5t36 49.5
q3 21 -12 39t-48 18q-22 0 -42.5 -10t-37.5 -32l-50 26q14 23 35.5 39t47.5 24t52 8q39 0 67 -15t42 -41t8 -59q-6 -35 -32 -59.5t-65 -36.5t-85 -12h-16zM159 0l481 700h75l-481 -700h-75zM540 117l-43 27l236 276l33 -35zM489 94l8 50l38 5h298l-9 -55h-335zM667 0l65 383
l1 37h65l-71 -420h-60z" />
    <glyph glyph-name="questiondown" unicode="&#xbf;" horiz-adv-x="460" 
d="M280 195l-10 -58h-42q-47 0 -87.5 -19t-67 -53t-34.5 -80q-10 -61 25 -100.5t101 -39.5q52 0 95 24t61 59l56 -24q-28 -52 -84 -84.5t-129 -32.5q-65 0 -110.5 26.5t-66.5 73t-11 106.5q10 61 46 106t91 70.5t121 25.5h46zM297 513q22 0 34 -14t8 -36q-3 -19 -16.5 -30.5
t-32.5 -11.5q-22 0 -34 14t-8 36q3 19 16.5 30.5t32.5 11.5zM300 316l-30 -179h-64l30 179h64z" />
    <glyph glyph-name="Agrave" unicode="&#xc0;" horiz-adv-x="668" 
d="M-32 0l405 700h70l-401 -700h-74zM551 0l-168 700h62l171 -700h-65zM140 217l10 58h370l-10 -58h-370zM444 744l-88 126h83l77 -126h-72z" />
    <glyph glyph-name="Aacute" unicode="&#xc1;" horiz-adv-x="668" 
d="M-32 0l405 700h70l-401 -700h-74zM551 0l-168 700h62l171 -700h-65zM140 217l10 58h370l-10 -58h-370zM356 744l140 126h86l-149 -126h-77z" />
    <glyph glyph-name="Acircumflex" unicode="&#xc2;" horiz-adv-x="668" 
d="M-32 0l405 700h70l-401 -700h-74zM551 0l-168 700h62l171 -700h-65zM140 217l10 58h370l-10 -58h-370zM256 756l141 126h81v-1l-137 -125h-85zM506 756l-99 126h2h70l99 -126h-72z" />
    <glyph glyph-name="Atilde" unicode="&#xc3;" horiz-adv-x="668" 
d="M-32 0l405 700h70l-401 -700h-74zM551 0l-168 700h62l171 -700h-65zM140 217l10 58h370l-10 -58h-370zM504 742q-25 0 -40.5 11t-25.5 25t-19 25t-23 11q-18 0 -29 -9t-18 -28h-54q5 34 32 63.5t76 29.5q25 0 40 -11t24 -25t18 -25t22 -11q19 0 30 9.5t17 28.5h54
q-10 -34 -33.5 -64t-70.5 -30z" />
    <glyph glyph-name="Adieresis" unicode="&#xc4;" horiz-adv-x="668" 
d="M-32 0l405 700h70l-401 -700h-74zM551 0l-168 700h62l171 -700h-65zM140 217l10 58h370l-10 -58h-370zM313 800q-16 0 -28 12t-12 28q0 17 12 28.5t28 11.5q17 0 28.5 -11.5t11.5 -28.5q0 -16 -11.5 -28t-28.5 -12zM555 800q-16 0 -28 12t-12 28q0 17 12 28.5t28 11.5
q17 0 28.5 -11.5t11.5 -28.5q0 -16 -11.5 -28t-28.5 -12z" />
    <glyph glyph-name="Aring" unicode="&#xc5;" horiz-adv-x="668" 
d="M-32 0l405 700h70l-401 -700h-74zM551 0l-168 700h62l171 -700h-65zM140 217l10 58h370l-10 -58h-370zM419 734q-34 0 -55.5 22t-21.5 53q0 26 12.5 47.5t35.5 35t53 13.5q33 0 54 -21.5t21 -53.5q0 -28 -12.5 -49.5t-35 -34t-51.5 -12.5zM423 780q20 0 33 13.5t13 38.5
q0 27 -30 27q-21 0 -34 -13.5t-13 -36.5q0 -13 8.5 -21t22.5 -8z" />
    <glyph glyph-name="AE" unicode="&#xc6;" horiz-adv-x="996" 
d="M-32 0l556 700h457l-9 -58h-340l-42 -252h315l-9 -58h-316l-45 -274h339l-10 -58h-403l36 217h-284l-171 -217h-74zM259 275h248l61 367h-19z" />
    <glyph glyph-name="Ccedilla" unicode="&#xc7;" horiz-adv-x="720" 
d="M349 -12q-100 0 -169.5 47t-99.5 129.5t-13 189.5q14 79 49 144.5t87.5 113.5t117.5 74t138 26q60 0 113.5 -22t93.5 -61t57 -89l-56 -29q-14 43 -46 75t-74 50t-89 18q-60 0 -114.5 -22.5t-98.5 -64t-74 -97.5t-41 -124q-15 -89 8.5 -157t78.5 -106.5t134 -38.5
q50 0 100.5 21t94 57.5t71.5 82.5l49 -37q-35 -53 -87 -94t-112 -63.5t-118 -22.5zM293 -210q-22 0 -47.5 6.5t-61.5 28.5l27 39q17 -10 36.5 -19t37.5 -9q26 0 43.5 13t17.5 38q0 23 -21 34t-58 17l44 69l47 -15l-17 -26q24 -9 39 -30t15 -44q0 -52 -27 -77t-75 -25z" />
    <glyph glyph-name="Egrave" unicode="&#xc8;" horiz-adv-x="593" 
d="M58 0l117 700h403l-9 -58h-340l-42 -252h315l-9 -58h-315l-46 -274h339l-10 -58h-403zM416 744l-88 126h83l77 -126h-72z" />
    <glyph glyph-name="Eacute" unicode="&#xc9;" horiz-adv-x="593" 
d="M58 0l117 700h403l-9 -58h-340l-42 -252h315l-9 -58h-315l-46 -274h339l-10 -58h-403zM328 744l140 126h86l-149 -126h-77z" />
    <glyph glyph-name="Ecircumflex" unicode="&#xca;" horiz-adv-x="593" 
d="M58 0l117 700h403l-9 -58h-340l-42 -252h315l-9 -58h-315l-46 -274h339l-10 -58h-403zM228 756l141 126h81v-1l-137 -125h-85zM478 756l-99 126h2h70l99 -126h-72z" />
    <glyph glyph-name="Edieresis" unicode="&#xcb;" horiz-adv-x="593" 
d="M58 0l117 700h403l-9 -58h-340l-42 -252h315l-9 -58h-315l-46 -274h339l-10 -58h-403zM285 800q-16 0 -28 12t-12 28q0 17 12 28.5t28 11.5q17 0 28.5 -11.5t11.5 -28.5q0 -16 -11.5 -28t-28.5 -12zM527 800q-16 0 -28 12t-12 28q0 17 12 28.5t28 11.5q17 0 28.5 -11.5
t11.5 -28.5q0 -16 -11.5 -28t-28.5 -12z" />
    <glyph glyph-name="Igrave" unicode="&#xcc;" horiz-adv-x="264" 
d="M58 0l117 700h64l-117 -700h-64zM240 744l-88 126h83l77 -126h-72z" />
    <glyph glyph-name="Iacute" unicode="&#xcd;" horiz-adv-x="264" 
d="M58 0l117 700h64l-117 -700h-64zM152 744l140 126h86l-149 -126h-77z" />
    <glyph glyph-name="Icircumflex" unicode="&#xce;" horiz-adv-x="264" 
d="M58 0l117 700h64l-117 -700h-64zM52 756l141 126h81v-1l-137 -125h-85zM302 756l-99 126h2h70l99 -126h-72z" />
    <glyph glyph-name="Idieresis" unicode="&#xcf;" horiz-adv-x="266" 
d="M171 800q-16 0 -28 12t-12 28q0 17 12 28.5t28 11.5q17 0 28.5 -11.5t11.5 -28.5q0 -16 -11.5 -28t-28.5 -12zM293 800q-16 0 -28 12t-12 28q0 17 12 28.5t28 11.5q17 0 28.5 -11.5t11.5 -28.5q0 -16 -11.5 -28t-28.5 -12zM60 0l117 700h64l-117 -700h-64z" />
    <glyph glyph-name="Eth" unicode="&#xd0;" horiz-adv-x="753" 
d="M92 320l9 58h315l-9 -58h-315zM128 0l117 700h209q94 0 159.5 -45.5t94.5 -125t11 -183.5q-13 -76 -47 -139.5t-85.5 -109.5t-115 -71.5t-134.5 -25.5h-209zM202 58h143q54 0 105.5 23t94 64t72 94.5t39.5 114.5q14 80 -10 145t-76.5 104t-124.5 39h-146z" />
    <glyph glyph-name="Ntilde" unicode="&#xd1;" horiz-adv-x="774" 
d="M58 0l117 700h64l346 -600l100 600h64l-117 -700h-64l-345 599l-101 -599h-64zM549 742q-25 0 -40.5 11t-25.5 25t-19 25t-23 11q-18 0 -29 -9t-18 -28h-54q5 34 32 63.5t76 29.5q25 0 40 -11t24 -25t18 -25t22 -11q19 0 30 9.5t17 28.5h54q-10 -34 -33.5 -64t-70.5 -30z
" />
    <glyph glyph-name="Ograve" unicode="&#xd2;" horiz-adv-x="772" 
d="M349 -12q-75 0 -133.5 26.5t-96 75.5t-51.5 116t-1 148q18 106 73.5 186.5t138 126t180.5 45.5q75 0 133 -27t95 -76t51 -116t0 -147q-17 -105 -73 -186t-137.5 -126.5t-178.5 -45.5zM351 46q80 0 148 39.5t114.5 109t61.5 159.5q15 88 -8 155.5t-76.5 106t-132.5 38.5
q-80 0 -149.5 -39.5t-116.5 -109t-62 -159.5q-14 -88 9 -155.5t78 -106t134 -38.5zM494 744l-88 126h83l77 -126h-72z" />
    <glyph glyph-name="Oacute" unicode="&#xd3;" horiz-adv-x="772" 
d="M349 -12q-75 0 -133.5 26.5t-96 75.5t-51.5 116t-1 148q18 106 73.5 186.5t138 126t180.5 45.5q75 0 133 -27t95 -76t51 -116t0 -147q-17 -105 -73 -186t-137.5 -126.5t-178.5 -45.5zM351 46q80 0 148 39.5t114.5 109t61.5 159.5q15 88 -8 155.5t-76.5 106t-132.5 38.5
q-80 0 -149.5 -39.5t-116.5 -109t-62 -159.5q-14 -88 9 -155.5t78 -106t134 -38.5zM406 744l140 126h86l-149 -126h-77z" />
    <glyph glyph-name="Ocircumflex" unicode="&#xd4;" horiz-adv-x="772" 
d="M349 -12q-75 0 -133.5 26.5t-96 75.5t-51.5 116t-1 148q18 106 73.5 186.5t138 126t180.5 45.5q75 0 133 -27t95 -76t51 -116t0 -147q-17 -105 -73 -186t-137.5 -126.5t-178.5 -45.5zM351 46q80 0 148 39.5t114.5 109t61.5 159.5q15 88 -8 155.5t-76.5 106t-132.5 38.5
q-80 0 -149.5 -39.5t-116.5 -109t-62 -159.5q-14 -88 9 -155.5t78 -106t134 -38.5zM306 756l141 126h81v-1l-137 -125h-85zM556 756l-99 126h2h70l99 -126h-72z" />
    <glyph glyph-name="Otilde" unicode="&#xd5;" horiz-adv-x="772" 
d="M349 -12q-75 0 -133.5 26.5t-96 75.5t-51.5 116t-1 148q18 106 73.5 186.5t138 126t180.5 45.5q75 0 133 -27t95 -76t51 -116t0 -147q-17 -105 -73 -186t-137.5 -126.5t-178.5 -45.5zM351 46q80 0 148 39.5t114.5 109t61.5 159.5q15 88 -8 155.5t-76.5 106t-132.5 38.5
q-80 0 -149.5 -39.5t-116.5 -109t-62 -159.5q-14 -88 9 -155.5t78 -106t134 -38.5zM554 742q-25 0 -40.5 11t-25.5 25t-19 25t-23 11q-18 0 -29 -9t-18 -28h-54q5 34 32 63.5t76 29.5q25 0 40 -11t24 -25t18 -25t22 -11q19 0 30 9.5t17 28.5h54q-10 -34 -33.5 -64t-70.5 -30
z" />
    <glyph glyph-name="Odieresis" unicode="&#xd6;" horiz-adv-x="772" 
d="M349 -12q-75 0 -133.5 26.5t-96 75.5t-51.5 116t-1 148q18 106 73.5 186.5t138 126t180.5 45.5q75 0 133 -27t95 -76t51 -116t0 -147q-17 -105 -73 -186t-137.5 -126.5t-178.5 -45.5zM351 46q80 0 148 39.5t114.5 109t61.5 159.5q15 88 -8 155.5t-76.5 106t-132.5 38.5
q-80 0 -149.5 -39.5t-116.5 -109t-62 -159.5q-14 -88 9 -155.5t78 -106t134 -38.5zM363 800q-16 0 -28 12t-12 28q0 17 12 28.5t28 11.5q17 0 28.5 -11.5t11.5 -28.5q0 -16 -11.5 -28t-28.5 -12zM605 800q-16 0 -28 12t-12 28q0 17 12 28.5t28 11.5q17 0 28.5 -11.5
t11.5 -28.5q0 -16 -11.5 -28t-28.5 -12z" />
    <glyph glyph-name="multiply" unicode="&#xd7;" horiz-adv-x="620" 
d="M437 109l-283 338l44 40l284 -339zM138 109l-34 39l393 339l35 -40z" />
    <glyph glyph-name="Oslash" unicode="&#xd8;" horiz-adv-x="789" 
d="M3 0l730 700h86l-730 -700h-86zM358 -12q-75 0 -133.5 26.5t-96 75.5t-51.5 116t-1 148q18 106 73.5 186.5t138 126t180.5 45.5q75 0 133 -27t95 -76t51 -116t0 -147q-17 -105 -73 -186t-137.5 -126.5t-178.5 -45.5zM360 46q80 0 148 39.5t114.5 109t61.5 159.5
q15 88 -8 155.5t-76.5 106t-132.5 38.5q-80 0 -149.5 -39.5t-116.5 -109t-62 -159.5q-14 -88 9 -155.5t78 -106t134 -38.5z" />
    <glyph glyph-name="Ugrave" unicode="&#xd9;" horiz-adv-x="709" 
d="M311 -16q-78 0 -132 33.5t-78 92.5t-12 135l76 455h64l-76 -455q-10 -60 7.5 -105.5t57.5 -71.5t97 -26q60 0 111 26t85 72t43 105l76 455h64l-76 -455q-13 -77 -56.5 -136t-108.5 -92t-142 -33zM463 744l-88 126h83l77 -126h-72z" />
    <glyph glyph-name="Uacute" unicode="&#xda;" horiz-adv-x="709" 
d="M311 -16q-78 0 -132 33.5t-78 92.5t-12 135l76 455h64l-76 -455q-10 -60 7.5 -105.5t57.5 -71.5t97 -26q60 0 111 26t85 72t43 105l76 455h64l-76 -455q-13 -77 -56.5 -136t-108.5 -92t-142 -33zM375 744l140 126h86l-149 -126h-77z" />
    <glyph glyph-name="Ucircumflex" unicode="&#xdb;" horiz-adv-x="709" 
d="M311 -16q-78 0 -132 33.5t-78 92.5t-12 135l76 455h64l-76 -455q-10 -60 7.5 -105.5t57.5 -71.5t97 -26q60 0 111 26t85 72t43 105l76 455h64l-76 -455q-13 -77 -56.5 -136t-108.5 -92t-142 -33zM275 756l141 126h81v-1l-137 -125h-85zM525 756l-99 126h2h70l99 -126h-72
z" />
    <glyph glyph-name="Udieresis" unicode="&#xdc;" horiz-adv-x="709" 
d="M311 -16q-78 0 -132 33.5t-78 92.5t-12 135l76 455h64l-76 -455q-10 -60 7.5 -105.5t57.5 -71.5t97 -26q60 0 111 26t85 72t43 105l76 455h64l-76 -455q-13 -77 -56.5 -136t-108.5 -92t-142 -33zM332 800q-16 0 -28 12t-12 28q0 17 12 28.5t28 11.5q17 0 28.5 -11.5
t11.5 -28.5q0 -16 -11.5 -28t-28.5 -12zM574 800q-16 0 -28 12t-12 28q0 17 12 28.5t28 11.5q17 0 28.5 -11.5t11.5 -28.5q0 -16 -11.5 -28t-28.5 -12z" />
    <glyph glyph-name="Yacute" unicode="&#xdd;" horiz-adv-x="588" 
d="M334 292l-46 36l290 372h76zM220 0l56 336h64l-56 -336h-64zM270 292l-184 408h74l166 -372zM314 744l140 126h86l-149 -126h-77z" />
    <glyph glyph-name="Thorn" unicode="&#xde;" horiz-adv-x="570" 
d="M146 145l10 59h176q40 0 74 20.5t58 57.5t32 84q12 69 -25 112t-109 43h-154l10 58h150q66 0 112.5 -28t67.5 -78t10 -115q-10 -62 -43 -110.5t-82 -75.5t-107 -27h-180zM58 1l117 700h64l-117 -700h-64z" />
    <glyph glyph-name="germandbls" unicode="&#xdf;" horiz-adv-x="555" 
d="M33 0l87 521q10 57 42.5 100t82.5 67t109 24q61 0 103.5 -25t62.5 -69t10 -101q-7 -45 -26 -79.5t-48.5 -58t-67.5 -36t-85 -12.5h-45l9 58h2q68 0 109 16.5t62 47t28 72.5q10 57 -22 93t-93 36q-42 0 -78 -18t-60 -48.5t-31 -70.5l-87 -517h-64zM197 0l10 59h46
q73 0 120.5 34.5t57.5 93.5q11 62 -23 96.5t-105 34.5h-48l10 59h14q115 0 172.5 -53t41.5 -145q-14 -85 -78.5 -132t-167.5 -47h-50z" />
    <glyph glyph-name="agrave" unicode="&#xe0;" 
d="M409 0l13 93l68 407h60l-84 -500h-57zM232 -12q-56 0 -99 26.5t-67.5 73.5t-24.5 108q0 59 19.5 115.5t55.5 101.5t85.5 72t110.5 27q56 0 96 -25.5t62 -71.5t22 -107q0 -80 -22.5 -140t-60.5 -100t-84 -60t-93 -20zM245 42q49 0 87.5 23t65.5 61.5t41 84.5t14 92
q0 70 -35 112.5t-96 42.5q-50 0 -90.5 -22.5t-70 -60t-45 -83t-15.5 -92.5q0 -70 39 -114t105 -44zM350 574l-88 126h83l77 -126h-72z" />
    <glyph glyph-name="aacute" unicode="&#xe1;" 
d="M409 0l13 93l68 407h60l-84 -500h-57zM232 -12q-56 0 -99 26.5t-67.5 73.5t-24.5 108q0 59 19.5 115.5t55.5 101.5t85.5 72t110.5 27q56 0 96 -25.5t62 -71.5t22 -107q0 -80 -22.5 -140t-60.5 -100t-84 -60t-93 -20zM245 42q49 0 87.5 23t65.5 61.5t41 84.5t14 92
q0 70 -35 112.5t-96 42.5q-50 0 -90.5 -22.5t-70 -60t-45 -83t-15.5 -92.5q0 -70 39 -114t105 -44zM262 574l140 126h86l-149 -126h-77z" />
    <glyph glyph-name="acircumflex" unicode="&#xe2;" 
d="M409 0l13 93l68 407h60l-84 -500h-57zM232 -12q-56 0 -99 26.5t-67.5 73.5t-24.5 108q0 59 19.5 115.5t55.5 101.5t85.5 72t110.5 27q56 0 96 -25.5t62 -71.5t22 -107q0 -80 -22.5 -140t-60.5 -100t-84 -60t-93 -20zM245 42q49 0 87.5 23t65.5 61.5t41 84.5t14 92
q0 70 -35 112.5t-96 42.5q-50 0 -90.5 -22.5t-70 -60t-45 -83t-15.5 -92.5q0 -70 39 -114t105 -44zM162 586l141 126h81v-1l-137 -125h-85zM412 586l-99 126h2h70l99 -126h-72z" />
    <glyph glyph-name="atilde" unicode="&#xe3;" 
d="M409 0l13 93l68 407h60l-84 -500h-57zM232 -12q-56 0 -99 26.5t-67.5 73.5t-24.5 108q0 59 19.5 115.5t55.5 101.5t85.5 72t110.5 27q56 0 96 -25.5t62 -71.5t22 -107q0 -80 -22.5 -140t-60.5 -100t-84 -60t-93 -20zM245 42q49 0 87.5 23t65.5 61.5t41 84.5t14 92
q0 70 -35 112.5t-96 42.5q-50 0 -90.5 -22.5t-70 -60t-45 -83t-15.5 -92.5q0 -70 39 -114t105 -44zM410 572q-25 0 -40.5 11t-25.5 25t-19 25t-23 11q-18 0 -29 -9t-18 -28h-54q5 34 32 63.5t76 29.5q25 0 40 -11t24 -25t18 -25t22 -11q19 0 30 9.5t17 28.5h54
q-10 -34 -33.5 -64t-70.5 -30z" />
    <glyph glyph-name="adieresis" unicode="&#xe4;" 
d="M409 0l13 93l68 407h60l-84 -500h-57zM232 -12q-56 0 -99 26.5t-67.5 73.5t-24.5 108q0 59 19.5 115.5t55.5 101.5t85.5 72t110.5 27q56 0 96 -25.5t62 -71.5t22 -107q0 -80 -22.5 -140t-60.5 -100t-84 -60t-93 -20zM245 42q49 0 87.5 23t65.5 61.5t41 84.5t14 92
q0 70 -35 112.5t-96 42.5q-50 0 -90.5 -22.5t-70 -60t-45 -83t-15.5 -92.5q0 -70 39 -114t105 -44zM219 630q-16 0 -28 12t-12 28q0 17 12 28.5t28 11.5q17 0 28.5 -11.5t11.5 -28.5q0 -16 -11.5 -28t-28.5 -12zM461 630q-16 0 -28 12t-12 28q0 17 12 28.5t28 11.5
q17 0 28.5 -11.5t11.5 -28.5q0 -16 -11.5 -28t-28.5 -12z" />
    <glyph glyph-name="aring" unicode="&#xe5;" 
d="M409 0l13 93l68 407h60l-84 -500h-57zM232 -12q-56 0 -99 26.5t-67.5 73.5t-24.5 108q0 59 19.5 115.5t55.5 101.5t85.5 72t110.5 27q56 0 96 -25.5t62 -71.5t22 -107q0 -80 -22.5 -140t-60.5 -100t-84 -60t-93 -20zM245 42q49 0 87.5 23t65.5 61.5t41 84.5t14 92
q0 70 -35 112.5t-96 42.5q-50 0 -90.5 -22.5t-70 -60t-45 -83t-15.5 -92.5q0 -70 39 -114t105 -44zM325 564q-34 0 -55.5 22t-21.5 53q0 26 12.5 47.5t35.5 35t53 13.5q33 0 54 -21.5t21 -53.5q0 -28 -12.5 -49.5t-35 -34t-51.5 -12.5zM329 610q20 0 33 13.5t13 38.5
q0 27 -30 27q-21 0 -34 -13.5t-13 -36.5q0 -13 8.5 -21t22.5 -8z" />
    <glyph glyph-name="ae" unicode="&#xe6;" horiz-adv-x="879" 
d="M377 180l8 90q5 64 -1.5 105t-30.5 61.5t-72 20.5q-49 0 -88 -20t-66 -58l-52 28q42 54 94 79.5t113 25.5q68 0 108.5 -27.5t54 -82t-0.5 -136.5l-15 -86h-52zM192 -12q-90 0 -133.5 42t-31.5 115q12 72 67.5 112t143.5 40h190l-9 -55h-178q-72 0 -109.5 -27.5
t-45.5 -77.5q-7 -44 19.5 -69t83.5 -25q74 0 125 56t66 145l53 -4q-19 -115 -82.5 -183.5t-158.5 -68.5zM587 -12q-73 0 -123.5 34t-72.5 94t-9 138q13 76 53 134t99 91t128 33q72 0 116.5 -34.5t61 -95t3.5 -139.5h-403q-9 -59 6.5 -104t52 -70.5t89.5 -25.5
q59 0 105.5 29.5t76.5 74.5l47 -35q-25 -37 -60 -65t-78 -43.5t-92 -15.5zM454 298h335q2 71 -29 115t-99 44q-69 0 -125 -44t-82 -115z" />
    <glyph glyph-name="ccedilla" unicode="&#xe7;" horiz-adv-x="540" 
d="M251 -12q-73 0 -123.5 34t-72.5 94t-9 138q13 76 53 134t100 91t130 33q48 0 86.5 -15t66 -42t41.5 -64l-55 -24q-16 43 -52.5 66.5t-87.5 23.5q-55 0 -102 -27t-79 -74.5t-43 -109.5q-10 -60 5.5 -105.5t52.5 -71.5t90 -26q56 0 103 28.5t78 77.5l50 -32
q-40 -61 -100.5 -95t-131.5 -34zM195 -210q-22 0 -47.5 6.5t-61.5 28.5l27 39q17 -10 36.5 -19t37.5 -9q26 0 43.5 13t17.5 38q0 23 -21 34t-58 17l44 69l47 -15l-17 -26q24 -9 39 -30t15 -44q0 -52 -27 -77t-75 -25z" />
    <glyph glyph-name="egrave" unicode="&#xe8;" horiz-adv-x="543" 
d="M251 -12q-73 0 -123.5 34t-72.5 94t-9 138q13 76 53 134t99 91t128 33q72 0 116.5 -34.5t61 -95t3.5 -139.5h-403q-9 -59 6.5 -104t52 -70.5t89.5 -25.5q59 0 105.5 29.5t76.5 74.5l47 -35q-25 -37 -60 -65t-78 -43.5t-92 -15.5zM118 298h335q2 71 -29 115t-99 44
q-69 0 -125 -44t-82 -115zM364 574l-88 126h83l77 -126h-72z" />
    <glyph glyph-name="eacute" unicode="&#xe9;" horiz-adv-x="543" 
d="M251 -12q-73 0 -123.5 34t-72.5 94t-9 138q13 76 53 134t99 91t128 33q72 0 116.5 -34.5t61 -95t3.5 -139.5h-403q-9 -59 6.5 -104t52 -70.5t89.5 -25.5q59 0 105.5 29.5t76.5 74.5l47 -35q-25 -37 -60 -65t-78 -43.5t-92 -15.5zM118 298h335q2 71 -29 115t-99 44
q-69 0 -125 -44t-82 -115zM276 574l140 126h86l-149 -126h-77z" />
    <glyph glyph-name="ecircumflex" unicode="&#xea;" horiz-adv-x="543" 
d="M251 -12q-73 0 -123.5 34t-72.5 94t-9 138q13 76 53 134t99 91t128 33q72 0 116.5 -34.5t61 -95t3.5 -139.5h-403q-9 -59 6.5 -104t52 -70.5t89.5 -25.5q59 0 105.5 29.5t76.5 74.5l47 -35q-25 -37 -60 -65t-78 -43.5t-92 -15.5zM118 298h335q2 71 -29 115t-99 44
q-69 0 -125 -44t-82 -115zM176 586l141 126h81v-1l-137 -125h-85zM426 586l-99 126h2h70l99 -126h-72z" />
    <glyph glyph-name="edieresis" unicode="&#xeb;" horiz-adv-x="543" 
d="M251 -12q-73 0 -123.5 34t-72.5 94t-9 138q13 76 53 134t99 91t128 33q72 0 116.5 -34.5t61 -95t3.5 -139.5h-403q-9 -59 6.5 -104t52 -70.5t89.5 -25.5q59 0 105.5 29.5t76.5 74.5l47 -35q-25 -37 -60 -65t-78 -43.5t-92 -15.5zM118 298h335q2 71 -29 115t-99 44
q-69 0 -125 -44t-82 -115zM233 630q-16 0 -28 12t-12 28q0 17 12 28.5t28 11.5q17 0 28.5 -11.5t11.5 -28.5q0 -16 -11.5 -28t-28.5 -12zM475 630q-16 0 -28 12t-12 28q0 17 12 28.5t28 11.5q17 0 28.5 -11.5t11.5 -28.5q0 -16 -11.5 -28t-28.5 -12z" />
    <glyph glyph-name="igrave" unicode="&#xec;" horiz-adv-x="221" 
d="M37 0l86 500h60l-86 -500h-60zM190 574l-88 126h83l77 -126h-72z" />
    <glyph glyph-name="iacute" unicode="&#xed;" horiz-adv-x="221" 
d="M37 0l86 500h60l-86 -500h-60zM102 574l140 126h86l-149 -126h-77z" />
    <glyph glyph-name="icircumflex" unicode="&#xee;" horiz-adv-x="221" 
d="M37 0l86 500h60l-86 -500h-60zM2 586l141 126h81v-1l-137 -125h-85zM252 586l-99 126h2h70l99 -126h-72z" />
    <glyph glyph-name="idieresis" unicode="&#xef;" horiz-adv-x="221" 
d="M115 630q-16 0 -28 12t-12 28q0 17 12 28.5t28 11.5q17 0 28.5 -11.5t11.5 -28.5q0 -16 -11.5 -28t-28.5 -12zM237 630q-16 0 -28 12t-12 28q0 17 12 28.5t28 11.5q17 0 28.5 -11.5t11.5 -28.5q0 -16 -11.5 -28t-28.5 -12zM37 0l86 500h60l-86 -500h-60z" />
    <glyph glyph-name="eth" unicode="&#xf0;" horiz-adv-x="589" 
d="M251 -12q-73 0 -123.5 34t-72.5 94t-9 138q13 76 53 134t100 91t130 33q30 0 56.5 -7.5t47.5 -22t37 -34.5t26 -45l38 -155q-13 -77 -53.5 -135.5t-100 -91.5t-129.5 -33zM252 43q55 0 101.5 27t79 74.5t42.5 109.5q10 60 -5.5 105.5t-52 71.5t-89.5 26q-55 0 -102 -27
t-79 -74.5t-43 -109.5q-10 -60 5.5 -105.5t52.5 -71.5t90 -26zM534 248l-60 4q15 90 9 161t-35 124t-83 88t-135 53l19 59q73 -16 127 -45.5t90.5 -72.5t56 -99t22 -124t-10.5 -148zM339 535l-21 43l194 109l19 -42z" />
    <glyph glyph-name="ntilde" unicode="&#xf1;" horiz-adv-x="554" 
d="M33 0l84 500h56l-12 -92l-68 -408h-60zM392 0l43 258h61l-44 -258h-60zM435 258q14 83 1.5 125.5t-42.5 57.5t-71 15q-73 0 -122.5 -53.5t-65.5 -147.5l-37 4q14 80 45.5 136.5t80 86.5t111.5 30q92 0 138.5 -57t26.5 -171l-4 -26h-61zM422 572q-25 0 -40.5 11t-25.5 25
t-19 25t-23 11q-18 0 -29 -9t-18 -28h-54q5 34 32 63.5t76 29.5q25 0 40 -11t24 -25t18 -25t22 -11q19 0 30 9.5t17 28.5h54q-10 -34 -33.5 -64t-70.5 -30z" />
    <glyph glyph-name="ograve" unicode="&#xf2;" horiz-adv-x="579" 
d="M251 -12q-73 0 -123.5 34t-72.5 94t-9 138q13 76 53 134t100 91t130 33q73 0 123.5 -34t72 -94t8.5 -138q-12 -76 -52.5 -134t-100 -91t-129.5 -33zM252 43q55 0 101.5 27t79 74.5t42.5 109.5q10 60 -5 105.5t-51.5 71.5t-90.5 26q-55 0 -102 -27t-79 -74.5t-43 -109.5
q-10 -60 5.5 -105.5t52.5 -71.5t90 -26zM367 574l-88 126h83l77 -126h-72z" />
    <glyph glyph-name="oacute" unicode="&#xf3;" horiz-adv-x="579" 
d="M251 -12q-73 0 -123.5 34t-72.5 94t-9 138q13 76 53 134t100 91t130 33q73 0 123.5 -34t72 -94t8.5 -138q-12 -76 -52.5 -134t-100 -91t-129.5 -33zM252 43q55 0 101.5 27t79 74.5t42.5 109.5q10 60 -5 105.5t-51.5 71.5t-90.5 26q-55 0 -102 -27t-79 -74.5t-43 -109.5
q-10 -60 5.5 -105.5t52.5 -71.5t90 -26zM279 574l140 126h86l-149 -126h-77z" />
    <glyph glyph-name="ocircumflex" unicode="&#xf4;" horiz-adv-x="579" 
d="M251 -12q-73 0 -123.5 34t-72.5 94t-9 138q13 76 53 134t100 91t130 33q73 0 123.5 -34t72 -94t8.5 -138q-12 -76 -52.5 -134t-100 -91t-129.5 -33zM252 43q55 0 101.5 27t79 74.5t42.5 109.5q10 60 -5 105.5t-51.5 71.5t-90.5 26q-55 0 -102 -27t-79 -74.5t-43 -109.5
q-10 -60 5.5 -105.5t52.5 -71.5t90 -26zM179 586l141 126h81v-1l-137 -125h-85zM429 586l-99 126h2h70l99 -126h-72z" />
    <glyph glyph-name="otilde" unicode="&#xf5;" horiz-adv-x="579" 
d="M251 -12q-73 0 -123.5 34t-72.5 94t-9 138q13 76 53 134t100 91t130 33q73 0 123.5 -34t72 -94t8.5 -138q-12 -76 -52.5 -134t-100 -91t-129.5 -33zM252 43q55 0 101.5 27t79 74.5t42.5 109.5q10 60 -5 105.5t-51.5 71.5t-90.5 26q-55 0 -102 -27t-79 -74.5t-43 -109.5
q-10 -60 5.5 -105.5t52.5 -71.5t90 -26zM427 572q-25 0 -40.5 11t-25.5 25t-19 25t-23 11q-18 0 -29 -9t-18 -28h-54q5 34 32 63.5t76 29.5q25 0 40 -11t24 -25t18 -25t22 -11q19 0 30 9.5t17 28.5h54q-10 -34 -33.5 -64t-70.5 -30z" />
    <glyph glyph-name="odieresis" unicode="&#xf6;" horiz-adv-x="579" 
d="M251 -12q-73 0 -123.5 34t-72.5 94t-9 138q13 76 53 134t100 91t130 33q73 0 123.5 -34t72 -94t8.5 -138q-12 -76 -52.5 -134t-100 -91t-129.5 -33zM252 43q55 0 101.5 27t79 74.5t42.5 109.5q10 60 -5 105.5t-51.5 71.5t-90.5 26q-55 0 -102 -27t-79 -74.5t-43 -109.5
q-10 -60 5.5 -105.5t52.5 -71.5t90 -26zM236 630q-16 0 -28 12t-12 28q0 17 12 28.5t28 11.5q17 0 28.5 -11.5t11.5 -28.5q0 -16 -11.5 -28t-28.5 -12zM478 630q-16 0 -28 12t-12 28q0 17 12 28.5t28 11.5q17 0 28.5 -11.5t11.5 -28.5q0 -16 -11.5 -28t-28.5 -12z" />
    <glyph glyph-name="divide" unicode="&#xf7;" horiz-adv-x="620" 
d="M123 269l10 57h380l-10 -57h-380zM290 109q-18 0 -28.5 13t-7.5 31q2 15 14.5 25.5t27.5 10.5q18 0 28.5 -13t7.5 -31q-2 -15 -14.5 -25.5t-27.5 -10.5zM340 406q-18 0 -29 13t-8 31q3 15 15.5 25.5t27.5 10.5q18 0 28.5 -13t7.5 -31q-2 -15 -14.5 -25.5t-27.5 -10.5z
" />
    <glyph glyph-name="oslash" unicode="&#xf8;" horiz-adv-x="585" 
d="M-10 0l523 500h82l-524 -500h-81zM253 -12q-73 0 -123.5 34t-72.5 94t-9 138q13 76 53 134t100 91t130 33q73 0 123.5 -34t72 -94t8.5 -138q-12 -76 -52.5 -134t-100 -91t-129.5 -33zM254 43q55 0 101.5 27t79 74.5t42.5 109.5q10 60 -5 105.5t-51.5 71.5t-90.5 26
q-55 0 -102 -27t-79 -74.5t-43 -109.5q-10 -60 5.5 -105.5t52.5 -71.5t90 -26z" />
    <glyph glyph-name="ugrave" unicode="&#xf9;" horiz-adv-x="554" 
d="M381 0l12 92l68 408h60l-84 -500h-56zM54 216l48 284h60l-43 -258zM119 242q-14 -83 -1.5 -125.5t43 -57.5t70.5 -15q73 0 122.5 53.5t65.5 147.5l37 -4q-13 -80 -45 -136.5t-80 -86.5t-112 -30q-91 0 -137.5 57t-27.5 171l4 26h61zM348 574l-88 126h83l77 -126h-72z" />
    <glyph glyph-name="uacute" unicode="&#xfa;" horiz-adv-x="554" 
d="M381 0l12 92l68 408h60l-84 -500h-56zM54 216l48 284h60l-43 -258zM119 242q-14 -83 -1.5 -125.5t43 -57.5t70.5 -15q73 0 122.5 53.5t65.5 147.5l37 -4q-13 -80 -45 -136.5t-80 -86.5t-112 -30q-91 0 -137.5 57t-27.5 171l4 26h61zM260 574l140 126h86l-149 -126h-77z
" />
    <glyph glyph-name="ucircumflex" unicode="&#xfb;" horiz-adv-x="554" 
d="M381 0l12 92l68 408h60l-84 -500h-56zM54 216l48 284h60l-43 -258zM119 242q-14 -83 -1.5 -125.5t43 -57.5t70.5 -15q73 0 122.5 53.5t65.5 147.5l37 -4q-13 -80 -45 -136.5t-80 -86.5t-112 -30q-91 0 -137.5 57t-27.5 171l4 26h61zM160 586l141 126h81v-1l-137 -125h-85
zM410 586l-99 126h2h70l99 -126h-72z" />
    <glyph glyph-name="udieresis" unicode="&#xfc;" horiz-adv-x="554" 
d="M381 0l12 92l68 408h60l-84 -500h-56zM54 216l48 284h60l-43 -258zM119 242q-14 -83 -1.5 -125.5t43 -57.5t70.5 -15q73 0 122.5 53.5t65.5 147.5l37 -4q-13 -80 -45 -136.5t-80 -86.5t-112 -30q-91 0 -137.5 57t-27.5 171l4 26h61zM217 630q-16 0 -28 12t-12 28
q0 17 12 28.5t28 11.5q17 0 28.5 -11.5t11.5 -28.5q0 -16 -11.5 -28t-28.5 -12zM459 630q-16 0 -28 12t-12 28q0 17 12 28.5t28 11.5q17 0 28.5 -11.5t11.5 -28.5q0 -16 -11.5 -28t-28.5 -12z" />
    <glyph glyph-name="yacute" unicode="&#xfd;" horiz-adv-x="506" 
d="M25 -212q-17 0 -38.5 6.5t-49.5 18.5l27 49q48 -19 67 -19q30 0 52.5 17t38.5 45l79 134l273 461h64l-342 -582q-25 -42 -49 -71t-53 -44t-69 -15zM180 0l-128 500h61l116 -460l11 -40h-60zM244 574l140 126h86l-149 -126h-77z" />
    <glyph glyph-name="thorn" unicode="&#xfe;" 
d="M0 -200l150 900h60l-150 -900h-60zM351 512q56 0 99 -26.5t67.5 -73.5t24.5 -108q0 -59 -19.5 -115.5t-55.5 -101.5t-85.5 -72t-110.5 -27q-55 0 -95.5 25.5t-62.5 71.5t-22 107q0 80 22.5 140t60.5 100t84 60t93 20zM338 458q-49 0 -87.5 -23t-65.5 -61.5t-41 -84.5
t-14 -92q0 -70 35 -112.5t96 -42.5q50 0 90.5 22.5t70 60t45 83t15.5 92.5q0 70 -39 114t-105 44z" />
    <glyph glyph-name="ydieresis" unicode="&#xff;" horiz-adv-x="506" 
d="M25 -212q-17 0 -38.5 6.5t-49.5 18.5l27 49q48 -19 67 -19q30 0 52.5 17t38.5 45l79 134l273 461h64l-342 -582q-25 -42 -49 -71t-53 -44t-69 -15zM180 0l-128 500h61l116 -460l11 -40h-60zM201 630q-16 0 -28 12t-12 28q0 17 12 28.5t28 11.5q17 0 28.5 -11.5
t11.5 -28.5q0 -16 -11.5 -28t-28.5 -12zM443 630q-16 0 -28 12t-12 28q0 17 12 28.5t28 11.5q17 0 28.5 -11.5t11.5 -28.5q0 -16 -11.5 -28t-28.5 -12z" />
    <glyph glyph-name="Amacron" unicode="&#x100;" horiz-adv-x="668" 
d="M-32 0l405 700h70l-401 -700h-74zM551 0l-168 700h62l171 -700h-65zM140 217l10 58h370l-10 -58h-370zM269 750l10 57h300l-10 -57h-300z" />
    <glyph glyph-name="amacron" unicode="&#x101;" 
d="M409 0l13 93l68 407h60l-84 -500h-57zM232 -12q-56 0 -99 26.5t-67.5 73.5t-24.5 108q0 59 19.5 115.5t55.5 101.5t85.5 72t110.5 27q56 0 96 -25.5t62 -71.5t22 -107q0 -80 -22.5 -140t-60.5 -100t-84 -60t-93 -20zM245 42q49 0 87.5 23t65.5 61.5t41 84.5t14 92
q0 70 -35 112.5t-96 42.5q-50 0 -90.5 -22.5t-70 -60t-45 -83t-15.5 -92.5q0 -70 39 -114t105 -44zM175 580l10 57h300l-10 -57h-300z" />
    <glyph glyph-name="Abreve" unicode="&#x102;" horiz-adv-x="668" 
d="M-32 0l405 700h70l-401 -700h-74zM551 0l-168 700h62l171 -700h-65zM140 217l10 58h370l-10 -58h-370zM421 739q-48 0 -83 17t-51 46.5t-10 67.5h61q-5 -34 18.5 -55.5t65.5 -21.5q46 0 78.5 22t38.5 55h62q-6 -39 -31.5 -68.5t-63.5 -46t-85 -16.5z" />
    <glyph glyph-name="abreve" unicode="&#x103;" 
d="M409 0l13 93l68 407h60l-84 -500h-57zM232 -12q-56 0 -99 26.5t-67.5 73.5t-24.5 108q0 59 19.5 115.5t55.5 101.5t85.5 72t110.5 27q56 0 96 -25.5t62 -71.5t22 -107q0 -80 -22.5 -140t-60.5 -100t-84 -60t-93 -20zM245 42q49 0 87.5 23t65.5 61.5t41 84.5t14 92
q0 70 -35 112.5t-96 42.5q-50 0 -90.5 -22.5t-70 -60t-45 -83t-15.5 -92.5q0 -70 39 -114t105 -44zM327 569q-48 0 -83 17t-51 46.5t-10 67.5h61q-5 -34 18.5 -55.5t65.5 -21.5q46 0 78.5 22t38.5 55h62q-6 -39 -31.5 -68.5t-63.5 -46t-85 -16.5z" />
    <glyph glyph-name="Aogonek" unicode="&#x104;" horiz-adv-x="668" 
d="M-32 0l405 700h70l-401 -700h-74zM551 0l-168 700h62l171 -700h-65zM140 217l10 58h370l-10 -58h-370zM533 -212q-52 0 -77 23.5t-18 68.5q4 24 22.5 47t46 44.5t58.5 41.5l51 -13q-26 -17 -52 -37t-44.5 -42.5t-22.5 -48.5q-5 -29 31 -29q20 0 36.5 5t20.5 7l15 -48
q-14 -9 -31.5 -14t-35.5 -5z" />
    <glyph glyph-name="aogonek" unicode="&#x105;" 
d="M409 0l13 93l68 407h60l-84 -500h-57zM232 -12q-56 0 -99 26.5t-67.5 73.5t-24.5 108q0 59 19.5 115.5t55.5 101.5t85.5 72t110.5 27q56 0 96 -25.5t62 -71.5t22 -107q0 -80 -22.5 -140t-60.5 -100t-84 -60t-93 -20zM245 42q49 0 87.5 23t65.5 61.5t41 84.5t14 92
q0 70 -35 112.5t-96 42.5q-50 0 -90.5 -22.5t-70 -60t-45 -83t-15.5 -92.5q0 -70 39 -114t105 -44zM383 -212q-52 0 -77 23.5t-18 68.5q4 24 22.5 47t46 44.5t58.5 41.5l51 -13q-26 -17 -52 -37t-44.5 -42.5t-22.5 -48.5q-5 -29 31 -29q20 0 36.5 5t20.5 7l15 -48
q-14 -9 -31.5 -14t-35.5 -5z" />
    <glyph glyph-name="Cacute" unicode="&#x106;" horiz-adv-x="720" 
d="M349 -12q-100 0 -169.5 47t-99.5 129.5t-13 189.5q14 79 49 144.5t87.5 113.5t117.5 74t138 26q60 0 113.5 -22t93.5 -61t57 -89l-56 -29q-14 43 -46 75t-74 50t-89 18q-60 0 -114.5 -22.5t-98.5 -64t-74 -97.5t-41 -124q-15 -89 8.5 -157t78.5 -106.5t134 -38.5
q50 0 100.5 21t94 57.5t71.5 82.5l49 -37q-35 -53 -87 -94t-112 -63.5t-118 -22.5zM406 744l140 126h86l-149 -126h-77z" />
    <glyph glyph-name="cacute" unicode="&#x107;" horiz-adv-x="540" 
d="M251 -12q-73 0 -123.5 34t-72.5 94t-9 138q13 76 53 134t100 91t130 33q48 0 86.5 -15t66 -42t41.5 -64l-55 -24q-16 43 -52.5 66.5t-87.5 23.5q-55 0 -102 -27t-79 -74.5t-43 -109.5q-10 -60 5.5 -105.5t52.5 -71.5t90 -26q56 0 103 28.5t78 77.5l50 -32
q-40 -61 -100.5 -95t-131.5 -34zM279 574l140 126h86l-149 -126h-77z" />
    <glyph glyph-name="Ccircumflex" unicode="&#x108;" horiz-adv-x="720" 
d="M349 -12q-100 0 -169.5 47t-99.5 129.5t-13 189.5q14 79 49 144.5t87.5 113.5t117.5 74t138 26q60 0 113.5 -22t93.5 -61t57 -89l-56 -29q-14 43 -46 75t-74 50t-89 18q-60 0 -114.5 -22.5t-98.5 -64t-74 -97.5t-41 -124q-15 -89 8.5 -157t78.5 -106.5t134 -38.5
q50 0 100.5 21t94 57.5t71.5 82.5l49 -37q-35 -53 -87 -94t-112 -63.5t-118 -22.5zM306 756l141 126h81v-1l-137 -125h-85zM556 756l-99 126h2h70l99 -126h-72z" />
    <glyph glyph-name="ccircumflex" unicode="&#x109;" horiz-adv-x="540" 
d="M251 -12q-73 0 -123.5 34t-72.5 94t-9 138q13 76 53 134t100 91t130 33q48 0 86.5 -15t66 -42t41.5 -64l-55 -24q-16 43 -52.5 66.5t-87.5 23.5q-55 0 -102 -27t-79 -74.5t-43 -109.5q-10 -60 5.5 -105.5t52.5 -71.5t90 -26q56 0 103 28.5t78 77.5l50 -32
q-40 -61 -100.5 -95t-131.5 -34zM179 586l141 126h81v-1l-137 -125h-85zM429 586l-99 126h2h70l99 -126h-72z" />
    <glyph glyph-name="Cdotaccent" unicode="&#x10a;" horiz-adv-x="720" 
d="M349 -12q-100 0 -169.5 47t-99.5 129.5t-13 189.5q14 79 49 144.5t87.5 113.5t117.5 74t138 26q60 0 113.5 -22t93.5 -61t57 -89l-56 -29q-14 43 -46 75t-74 50t-89 18q-60 0 -114.5 -22.5t-98.5 -64t-74 -97.5t-41 -124q-15 -89 8.5 -157t78.5 -106.5t134 -38.5
q50 0 100.5 21t94 57.5t71.5 82.5l49 -37q-35 -53 -87 -94t-112 -63.5t-118 -22.5zM485 800q-16 0 -28 12t-12 28q0 17 12 28.5t28 11.5q17 0 28.5 -11.5t11.5 -28.5q0 -16 -11.5 -28t-28.5 -12z" />
    <glyph glyph-name="cdotaccent" unicode="&#x10b;" horiz-adv-x="540" 
d="M251 -12q-73 0 -123.5 34t-72.5 94t-9 138q13 76 53 134t100 91t130 33q48 0 86.5 -15t66 -42t41.5 -64l-55 -24q-16 43 -52.5 66.5t-87.5 23.5q-55 0 -102 -27t-79 -74.5t-43 -109.5q-10 -60 5.5 -105.5t52.5 -71.5t90 -26q56 0 103 28.5t78 77.5l50 -32
q-40 -61 -100.5 -95t-131.5 -34zM358 630q-16 0 -28 12t-12 28q0 17 12 28.5t28 11.5q17 0 28.5 -11.5t11.5 -28.5q0 -16 -11.5 -28t-28.5 -12z" />
    <glyph glyph-name="Ccaron" unicode="&#x10c;" horiz-adv-x="720" 
d="M349 -12q-100 0 -169.5 47t-99.5 129.5t-13 189.5q14 79 49 144.5t87.5 113.5t117.5 74t138 26q60 0 113.5 -22t93.5 -61t57 -89l-56 -29q-14 43 -46 75t-74 50t-89 18q-60 0 -114.5 -22.5t-98.5 -64t-74 -97.5t-41 -124q-15 -89 8.5 -157t78.5 -106.5t134 -38.5
q50 0 100.5 21t94 57.5t71.5 82.5l49 -37q-35 -53 -87 -94t-112 -63.5t-118 -22.5zM427 744v1l137 125h85l-141 -126h-81zM426 744l-99 126h72l99 -126h-2h-70z" />
    <glyph glyph-name="ccaron" unicode="&#x10d;" horiz-adv-x="540" 
d="M251 -12q-73 0 -123.5 34t-72.5 94t-9 138q13 76 53 134t100 91t130 33q48 0 86.5 -15t66 -42t41.5 -64l-55 -24q-16 43 -52.5 66.5t-87.5 23.5q-55 0 -102 -27t-79 -74.5t-43 -109.5q-10 -60 5.5 -105.5t52.5 -71.5t90 -26q56 0 103 28.5t78 77.5l50 -32
q-40 -61 -100.5 -95t-131.5 -34zM300 574v1l137 125h85l-141 -126h-81zM299 574l-99 126h72l99 -126h-2h-70z" />
    <glyph glyph-name="Dcaron" unicode="&#x10e;" horiz-adv-x="683" 
d="M58 0l117 700h209q94 0 159.5 -45.5t94.5 -125t11 -183.5q-13 -76 -47 -139.5t-85.5 -109.5t-115 -71.5t-134.5 -25.5h-209zM132 58h143q54 0 105.5 23t94 64t72 94.5t39.5 114.5q14 80 -10 145t-76.5 104t-124.5 39h-146zM349 744v1l137 125h85l-141 -126h-81zM348 744
l-99 126h72l99 -126h-2h-70z" />
    <glyph glyph-name="dcaron" unicode="&#x10f;" 
d="M409 0l13 93l101 607h60l-117 -700h-57zM232 -12q-56 0 -99 26.5t-67.5 73.5t-24.5 108q0 59 19.5 115.5t55.5 101.5t85.5 72t110.5 27q56 0 96 -25.5t62 -71.5t22 -107q0 -80 -22.5 -140t-60.5 -100t-84 -60t-93 -20zM245 42q49 0 87.5 23t65.5 61.5t41 84.5t14 92
q0 70 -35 112.5t-96 42.5q-50 0 -90.5 -22.5t-70 -60t-45 -83t-15.5 -92.5q0 -70 39 -114t105 -44zM577 527l84 172h72l-99 -172h-57z" />
    <glyph glyph-name="Dcroat" unicode="&#x110;" horiz-adv-x="753" 
d="M92 320l9 58h315l-9 -58h-315zM128 0l117 700h209q94 0 159.5 -45.5t94.5 -125t11 -183.5q-13 -76 -47 -139.5t-85.5 -109.5t-115 -71.5t-134.5 -25.5h-209zM202 58h143q54 0 105.5 23t94 64t72 94.5t39.5 114.5q14 80 -10 145t-76.5 104t-124.5 39h-146z" />
    <glyph glyph-name="dcroat" unicode="&#x111;" horiz-adv-x="582" 
d="M333 571l9 55h308l-9 -55h-308zM409 0l13 93l101 607h60l-117 -700h-57zM232 -12q-56 0 -99 26.5t-67.5 73.5t-24.5 108q0 59 19.5 115.5t55.5 101.5t85.5 72t110.5 27q56 0 96 -25.5t62 -71.5t22 -107q0 -80 -22.5 -140t-60.5 -100t-84 -60t-93 -20zM245 42
q49 0 87.5 23t65.5 61.5t41 84.5t14 92q0 70 -35 112.5t-96 42.5q-50 0 -90.5 -22.5t-70 -60t-45 -83t-15.5 -92.5q0 -70 39 -114t105 -44z" />
    <glyph glyph-name="Emacron" unicode="&#x112;" horiz-adv-x="593" 
d="M58 0l117 700h403l-9 -58h-340l-42 -252h315l-9 -58h-315l-46 -274h339l-10 -58h-403zM241 750l10 57h300l-10 -57h-300z" />
    <glyph glyph-name="emacron" unicode="&#x113;" horiz-adv-x="543" 
d="M251 -12q-73 0 -123.5 34t-72.5 94t-9 138q13 76 53 134t99 91t128 33q72 0 116.5 -34.5t61 -95t3.5 -139.5h-403q-9 -59 6.5 -104t52 -70.5t89.5 -25.5q59 0 105.5 29.5t76.5 74.5l47 -35q-25 -37 -60 -65t-78 -43.5t-92 -15.5zM118 298h335q2 71 -29 115t-99 44
q-69 0 -125 -44t-82 -115zM189 580l10 57h300l-10 -57h-300z" />
    <glyph glyph-name="Edotaccent" unicode="&#x116;" horiz-adv-x="593" 
d="M58 0l117 700h403l-9 -58h-340l-42 -252h315l-9 -58h-315l-46 -274h339l-10 -58h-403zM407 800q-16 0 -28 12t-12 28q0 17 12 28.5t28 11.5q17 0 28.5 -11.5t11.5 -28.5q0 -16 -11.5 -28t-28.5 -12z" />
    <glyph glyph-name="edotaccent" unicode="&#x117;" horiz-adv-x="543" 
d="M251 -12q-73 0 -123.5 34t-72.5 94t-9 138q13 76 53 134t99 91t128 33q72 0 116.5 -34.5t61 -95t3.5 -139.5h-403q-9 -59 6.5 -104t52 -70.5t89.5 -25.5q59 0 105.5 29.5t76.5 74.5l47 -35q-25 -37 -60 -65t-78 -43.5t-92 -15.5zM118 298h335q2 71 -29 115t-99 44
q-69 0 -125 -44t-82 -115zM355 630q-16 0 -28 12t-12 28q0 17 12 28.5t28 11.5q17 0 28.5 -11.5t11.5 -28.5q0 -16 -11.5 -28t-28.5 -12z" />
    <glyph glyph-name="Eogonek" unicode="&#x118;" horiz-adv-x="593" 
d="M58 0l117 700h403l-9 -58h-340l-42 -252h315l-9 -58h-315l-46 -274h339l-10 -58h-403zM378 -212q-52 0 -77 23.5t-18 68.5q4 24 22.5 47t46 44.5t58.5 41.5l51 -13q-26 -17 -52 -37t-44.5 -42.5t-22.5 -48.5q-5 -29 31 -29q20 0 36.5 5t20.5 7l15 -48q-14 -9 -31.5 -14
t-35.5 -5z" />
    <glyph glyph-name="eogonek" unicode="&#x119;" horiz-adv-x="543" 
d="M251 -12q-73 0 -123.5 34t-72.5 94t-9 138q13 76 53 134t99 91t128 33q72 0 116.5 -34.5t61 -95t3.5 -139.5h-403q-9 -59 6.5 -104t52 -70.5t89.5 -25.5q59 0 105.5 29.5t76.5 74.5l47 -35q-25 -37 -60 -65t-78 -43.5t-92 -15.5zM118 298h335q2 71 -29 115t-99 44
q-69 0 -125 -44t-82 -115zM377 -195q-31 0 -55.5 9.5t-38.5 26.5t-14 39q0 23 10 47t28.5 47t43.5 43t55 35l18 -2q-40 -31 -66.5 -74t-26.5 -80q0 -16 11.5 -26t28.5 -10q18 0 37.5 3.5t32.5 8.5l16 -48q-17 -8 -39.5 -13.5t-40.5 -5.5z" />
    <glyph glyph-name="Ecaron" unicode="&#x11a;" horiz-adv-x="593" 
d="M58 0l117 700h403l-9 -58h-340l-42 -252h315l-9 -58h-315l-46 -274h339l-10 -58h-403zM349 744v1l137 125h85l-141 -126h-81zM348 744l-99 126h72l99 -126h-2h-70z" />
    <glyph glyph-name="ecaron" unicode="&#x11b;" horiz-adv-x="543" 
d="M251 -12q-73 0 -123.5 34t-72.5 94t-9 138q13 76 53 134t99 91t128 33q72 0 116.5 -34.5t61 -95t3.5 -139.5h-403q-9 -59 6.5 -104t52 -70.5t89.5 -25.5q59 0 105.5 29.5t76.5 74.5l47 -35q-25 -37 -60 -65t-78 -43.5t-92 -15.5zM118 298h335q2 71 -29 115t-99 44
q-69 0 -125 -44t-82 -115zM297 574v1l137 125h85l-141 -126h-81zM296 574l-99 126h72l99 -126h-2h-70z" />
    <glyph glyph-name="Gcircumflex" unicode="&#x11c;" horiz-adv-x="767" 
d="M373 -12q-107 0 -182 47t-108 129.5t-16 188.5q14 79 51 145t93 114t126 74t149 26q54 0 104.5 -18.5t90 -50.5t60.5 -73l-53 -33q-16 35 -47.5 61.5t-72 41t-83.5 14.5q-66 0 -125.5 -22.5t-107 -64t-79.5 -98t-43 -124.5q-14 -87 12 -154.5t86.5 -106t146.5 -38.5
q74 0 137 31.5t105.5 87t54.5 126.5h62q-11 -67 -43 -122.5t-80.5 -96t-109 -62.5t-128.5 -22zM496 291l10 59h238l-10 -59h-28h-210zM329 786l141 126h81v-1l-137 -125h-85zM579 786l-99 126h2h70l99 -126h-72z" />
    <glyph glyph-name="gcircumflex" unicode="&#x11d;" horiz-adv-x="582" 
d="M193 -212q-46 0 -83 10t-61 22l-34 17l27 48q11 -7 33.5 -17t53.5 -17.5t65 -7.5q80 0 140.5 49t78.5 156l76 452h60l-76 -456q-14 -87 -56 -144t-100.5 -84.5t-123.5 -27.5zM233 0q-67 0 -113.5 33.5t-66 93t-6.5 135.5q13 74 50.5 130t93 88t120.5 32t109 -33t62.5 -91
t5.5 -134q-12 -74 -49 -131.5t-90 -90t-116 -32.5zM246 53q49 0 91.5 27t72 74t39.5 108q10 58 -3 102.5t-45 70t-80 25.5q-53 0 -98 -26.5t-76 -73t-41 -106.5q-10 -59 4.5 -104.5t49.5 -71t86 -25.5zM160 586l141 126h81v-1l-137 -125h-85zM410 586l-99 126h2h70l99 -126
h-72z" />
    <glyph glyph-name="Gbreve" unicode="&#x11e;" horiz-adv-x="767" 
d="M373 -12q-107 0 -182 47t-108 129.5t-16 188.5q14 79 51 145t93 114t126 74t149 26q54 0 104.5 -18.5t90 -50.5t60.5 -73l-53 -33q-16 35 -47.5 61.5t-72 41t-83.5 14.5q-66 0 -125.5 -22.5t-107 -64t-79.5 -98t-43 -124.5q-14 -87 12 -154.5t86.5 -106t146.5 -38.5
q74 0 137 31.5t105.5 87t54.5 126.5h62q-11 -67 -43 -122.5t-80.5 -96t-109 -62.5t-128.5 -22zM496 291l10 59h238l-10 -59h-28h-210zM494 769q-48 0 -83 17t-51 46.5t-10 67.5h61q-5 -34 18.5 -55.5t65.5 -21.5q46 0 78.5 22t38.5 55h62q-6 -39 -31.5 -68.5t-63.5 -46
t-85 -16.5z" />
    <glyph glyph-name="gbreve" unicode="&#x11f;" horiz-adv-x="582" 
d="M193 -212q-46 0 -83 10t-61 22l-34 17l27 48q11 -7 33.5 -17t53.5 -17.5t65 -7.5q80 0 140.5 49t78.5 156l76 452h60l-76 -456q-14 -87 -56 -144t-100.5 -84.5t-123.5 -27.5zM233 0q-67 0 -113.5 33.5t-66 93t-6.5 135.5q13 74 50.5 130t93 88t120.5 32t109 -33t62.5 -91
t5.5 -134q-12 -74 -49 -131.5t-90 -90t-116 -32.5zM246 53q49 0 91.5 27t72 74t39.5 108q10 58 -3 102.5t-45 70t-80 25.5q-53 0 -98 -26.5t-76 -73t-41 -106.5q-10 -59 4.5 -104.5t49.5 -71t86 -25.5zM325 569q-48 0 -83 17t-51 46.5t-10 67.5h61q-5 -34 18.5 -55.5
t65.5 -21.5q46 0 78.5 22t38.5 55h62q-6 -39 -31.5 -68.5t-63.5 -46t-85 -16.5z" />
    <glyph glyph-name="Gdotaccent" unicode="&#x120;" horiz-adv-x="767" 
d="M373 -12q-107 0 -182 47t-108 129.5t-16 188.5q14 79 51 145t93 114t126 74t149 26q54 0 104.5 -18.5t90 -50.5t60.5 -73l-53 -33q-16 35 -47.5 61.5t-72 41t-83.5 14.5q-66 0 -125.5 -22.5t-107 -64t-79.5 -98t-43 -124.5q-14 -87 12 -154.5t86.5 -106t146.5 -38.5
q74 0 137 31.5t105.5 87t54.5 126.5h62q-11 -67 -43 -122.5t-80.5 -96t-109 -62.5t-128.5 -22zM496 291l10 59h238l-10 -59h-28h-210zM508 830q-16 0 -28 12t-12 28q0 17 12 28.5t28 11.5q17 0 28.5 -11.5t11.5 -28.5q0 -16 -11.5 -28t-28.5 -12z" />
    <glyph glyph-name="gdotaccent" unicode="&#x121;" horiz-adv-x="582" 
d="M193 -212q-46 0 -83 10t-61 22l-34 17l27 48q11 -7 33.5 -17t53.5 -17.5t65 -7.5q80 0 140.5 49t78.5 156l76 452h60l-76 -456q-14 -87 -56 -144t-100.5 -84.5t-123.5 -27.5zM233 0q-67 0 -113.5 33.5t-66 93t-6.5 135.5q13 74 50.5 130t93 88t120.5 32t109 -33t62.5 -91
t5.5 -134q-12 -74 -49 -131.5t-90 -90t-116 -32.5zM246 53q49 0 91.5 27t72 74t39.5 108q10 58 -3 102.5t-45 70t-80 25.5q-53 0 -98 -26.5t-76 -73t-41 -106.5q-10 -59 4.5 -104.5t49.5 -71t86 -25.5zM339 630q-16 0 -28 12t-12 28q0 17 12 28.5t28 11.5q17 0 28.5 -11.5
t11.5 -28.5q0 -16 -11.5 -28t-28.5 -12z" />
    <glyph glyph-name="uni0122" unicode="&#x122;" horiz-adv-x="767" 
d="M373 -12q-107 0 -182 47t-108 129.5t-16 188.5q14 79 51 145t93 114t126 74t149 26q54 0 104.5 -18.5t90 -50.5t60.5 -73l-53 -33q-16 35 -47.5 61.5t-72 41t-83.5 14.5q-66 0 -125.5 -22.5t-107 -64t-79.5 -98t-43 -124.5q-14 -87 12 -154.5t86.5 -106t146.5 -38.5
q74 0 137 31.5t105.5 87t54.5 126.5h62q-11 -67 -43 -122.5t-80.5 -96t-109 -62.5t-128.5 -22zM496 291l10 59h238l-10 -59h-28h-210zM260 -200l69 136h72l-84 -136h-57z" />
    <glyph glyph-name="uni0123" unicode="&#x123;" horiz-adv-x="582" 
d="M193 -212q-46 0 -83 10t-61 22l-34 17l27 48q11 -7 33.5 -17t53.5 -17.5t65 -7.5q80 0 140.5 49t78.5 156l76 452h60l-76 -456q-14 -87 -56 -144t-100.5 -84.5t-123.5 -27.5zM233 0q-67 0 -113.5 33.5t-66 93t-6.5 135.5q13 74 50.5 130t93 88t120.5 32t109 -33t62.5 -91
t5.5 -134q-12 -74 -49 -131.5t-90 -90t-116 -32.5zM246 53q49 0 91.5 27t72 74t39.5 108q10 58 -3 102.5t-45 70t-80 25.5q-53 0 -98 -26.5t-76 -73t-41 -106.5q-10 -59 4.5 -104.5t49.5 -71t86 -25.5zM453 712l-89 -126h-72l104 126h57z" />
    <glyph glyph-name="Hcircumflex" unicode="&#x124;" horiz-adv-x="752" 
d="M58 0l117 700h64l-117 -700h-64zM546 0l117 700h64l-117 -700h-64zM178 332l9 58h424l-9 -58h-424zM301 786l141 126h81v-1l-137 -125h-85zM551 786l-99 126h2h70l99 -126h-72z" />
    <glyph glyph-name="hcircumflex" unicode="&#x125;" horiz-adv-x="554" 
d="M33 0l117 700h60l-117 -700h-60zM392 0l43 258l65 26l-48 -284h-60zM435 258q14 83 1.5 125.5t-42.5 57.5t-71 15q-73 0 -122.5 -53.5t-65.5 -147.5l-37 4q14 80 45.5 136.5t80 86.5t111.5 30q92 0 138.5 -57t26.5 -171l-4 -26h-61zM31 786l141 126h81v-1l-137 -125h-85z
M281 786l-99 126h2h70l99 -126h-72z" />
    <glyph glyph-name="Hbar" unicode="&#x126;" horiz-adv-x="752" 
d="M47 500l10 58h742l-10 -58h-742zM58 0l117 700h64l-117 -700h-64zM546 0l117 700h64l-117 -700h-64zM178 332l9 58h424l-9 -58h-424z" />
    <glyph glyph-name="hbar" unicode="&#x127;" horiz-adv-x="554" 
d="M54 571l9 55h308l-9 -55h-308zM33 0l117 700h60l-117 -700h-60zM392 0l43 258l65 26l-48 -284h-60zM435 258q14 83 1.5 125.5t-42.5 57.5t-71 15q-73 0 -122.5 -53.5t-65.5 -147.5l-37 4q14 80 45.5 136.5t80 86.5t111.5 30q92 0 138.5 -57t26.5 -171l-4 -26h-61z" />
    <glyph glyph-name="Imacron" unicode="&#x12a;" horiz-adv-x="264" 
d="M58 0l117 700h64l-117 -700h-64zM65 750l10 57h300l-10 -57h-300z" />
    <glyph glyph-name="imacron" unicode="&#x12b;" horiz-adv-x="221" 
d="M37 0l86 500h60l-86 -500h-60zM37 580l9 57h250l-9 -57h-250z" />
    <glyph glyph-name="Iogonek" unicode="&#x12e;" horiz-adv-x="264" 
d="M58 0l117 700h64l-117 -700h-64zM39 -212q-52 0 -77 23.5t-18 68.5q4 24 22.5 47t46 44.5t58.5 41.5l51 -13q-26 -17 -52 -37t-44.5 -42.5t-22.5 -48.5q-5 -29 31 -29q20 0 36.5 5t20.5 7l15 -48q-14 -9 -31.5 -14t-35.5 -5z" />
    <glyph glyph-name="iogonek" unicode="&#x12f;" horiz-adv-x="221" 
d="M37 0l86 500h60l-86 -500h-60zM181 630q-16 0 -28 12t-12 28q0 17 12 28.5t28 11.5q17 0 28.5 -11.5t11.5 -28.5q0 -16 -11.5 -28t-28.5 -12zM14 -212q-52 0 -77 23.5t-18 68.5q4 24 22.5 47t46 44.5t58.5 41.5l51 -13q-26 -17 -52 -37t-44.5 -42.5t-22.5 -48.5
q-5 -29 31 -29q20 0 36.5 5t20.5 7l15 -48q-14 -9 -31.5 -14t-35.5 -5z" />
    <glyph glyph-name="Idotaccent" unicode="&#x130;" horiz-adv-x="264" 
d="M58 0l117 700h64l-117 -700h-64zM231 800q-16 0 -28 12t-12 28q0 17 12 28.5t28 11.5q17 0 28.5 -11.5t11.5 -28.5q0 -16 -11.5 -28t-28.5 -12z" />
    <glyph glyph-name="dotlessi" unicode="&#x131;" horiz-adv-x="221" 
d="M37 0l86 500h60l-86 -500h-60z" />
    <glyph glyph-name="IJ" unicode="&#x132;" horiz-adv-x="764" 
d="M58 0l117 700h64l-117 -700h-64zM408 -11q-32 0 -58 8t-46 22.5t-34.5 34.5t-24.5 43l49 31q11 -23 26.5 -41.5t38 -29t51.5 -10.5q39 0 80.5 19t74 62.5t44.5 115.5l76 456h64l-82 -490q-9 -57 -35.5 -98.5t-64 -68.5t-79 -40.5t-80.5 -13.5z" />
    <glyph glyph-name="ij" unicode="&#x133;" horiz-adv-x="469" 
d="M37 0l86 500h60l-86 -500h-60zM181 630q-16 0 -28 12t-12 28q0 17 12 28.5t28 11.5q17 0 28.5 -11.5t11.5 -28.5q0 -16 -11.5 -28t-28.5 -12zM184 -215q-17 0 -38.5 6.5t-48.5 18.5l27 49q48 -19 66 -19q80 0 97 99l94 561h60l-95 -565q-13 -76 -52.5 -113t-109.5 -37z
M440 630q-16 0 -28 12t-12 28q0 17 12 28.5t28 11.5q17 0 28.5 -11.5t11.5 -28.5q0 -16 -11.5 -28t-28.5 -12z" />
    <glyph glyph-name="Jcircumflex" unicode="&#x134;" horiz-adv-x="500" 
d="M144 -11q-32 0 -58 8t-46 22.5t-34.5 34.5t-24.5 43l49 31q11 -23 26.5 -41.5t38 -29t51.5 -10.5q39 0 80.5 19t74 62.5t44.5 115.5l76 456h64l-82 -490q-9 -57 -35.5 -98.5t-64 -68.5t-79 -40.5t-80.5 -13.5zM298 756l141 126h81v-1l-137 -125h-85zM548 756l-99 126h2
h70l99 -126h-72z" />
    <glyph glyph-name="jcircumflex" unicode="&#x135;" horiz-adv-x="248" 
d="M-37 -215q-17 0 -38.5 6.5t-48.5 18.5l27 49q48 -19 66 -19q80 0 97 99l94 561h60l-95 -565q-13 -76 -52.5 -113t-109.5 -37zM40 586l141 126h81v-1l-137 -125h-85zM290 586l-99 126h2h70l99 -126h-72z" />
    <glyph glyph-name="uni0136" unicode="&#x136;" horiz-adv-x="588" 
d="M153 264l-36 41l449 395h79zM58 0l117 700h60l-117 -700h-60zM465 0l-232 356l44 43l263 -399h-75zM141 -200l69 136h72l-84 -136h-57z" />
    <glyph glyph-name="uni0137" unicode="&#x137;" horiz-adv-x="464" 
d="M33 0l117 700h60l-117 -700h-60zM125 174l-37 41l317 285h82zM348 0l-150 304l44 43l179 -347h-73zM88 -200l69 136h72l-84 -136h-57z" />
    <glyph glyph-name="Lacute" unicode="&#x139;" horiz-adv-x="513" 
d="M58 0l117 700h64l-107 -642h339l-10 -58h-403zM152 744l140 126h86l-149 -126h-77z" />
    <glyph glyph-name="lacute" unicode="&#x13a;" horiz-adv-x="212" 
d="M33 0l119 700h60l-119 -700h-60zM127 744l140 126h86l-149 -126h-77z" />
    <glyph glyph-name="uni013B" unicode="&#x13b;" horiz-adv-x="513" 
d="M58 0l117 700h64l-107 -642h339l-10 -58h-403zM131 -200l69 136h72l-84 -136h-57z" />
    <glyph glyph-name="uni013C" unicode="&#x13c;" horiz-adv-x="212" 
d="M33 0l119 700h60l-119 -700h-60zM-48 -200l69 136h72l-84 -136h-57z" />
    <glyph glyph-name="Lcaron" unicode="&#x13d;" horiz-adv-x="513" 
d="M58 0l117 700h64l-107 -642h339l-10 -58h-403zM283 586l84 172h72l-99 -172h-57z" />
    <glyph glyph-name="lcaron" unicode="&#x13e;" horiz-adv-x="212" 
d="M33 0l119 700h60l-119 -700h-60zM208 527l84 172h72l-99 -172h-57z" />
    <glyph glyph-name="Lslash" unicode="&#x141;" horiz-adv-x="513" 
d="M7 266l9 58l299 124l-9 -58zM58 0l117 700h64l-107 -642h339l-10 -58h-403z" />
    <glyph glyph-name="lslash" unicode="&#x142;" horiz-adv-x="280" 
d="M24 269l9 58l259 115l-9 -58zM67 0l119 700h60l-119 -700h-60z" />
    <glyph glyph-name="Nacute" unicode="&#x143;" horiz-adv-x="774" 
d="M58 0l117 700h64l346 -600l100 600h64l-117 -700h-64l-345 599l-101 -599h-64zM401 744l140 126h86l-149 -126h-77z" />
    <glyph glyph-name="nacute" unicode="&#x144;" horiz-adv-x="554" 
d="M33 0l84 500h56l-12 -92l-68 -408h-60zM392 0l43 258h61l-44 -258h-60zM435 258q14 83 1.5 125.5t-42.5 57.5t-71 15q-73 0 -122.5 -53.5t-65.5 -147.5l-37 4q14 80 45.5 136.5t80 86.5t111.5 30q92 0 138.5 -57t26.5 -171l-4 -26h-61zM274 574l140 126h86l-149 -126h-77
z" />
    <glyph glyph-name="uni0145" unicode="&#x145;" horiz-adv-x="774" 
d="M58 0l117 700h64l346 -600l100 600h64l-117 -700h-64l-345 599l-101 -599h-64zM234 -200l69 136h72l-84 -136h-57z" />
    <glyph glyph-name="uni0146" unicode="&#x146;" horiz-adv-x="554" 
d="M33 0l84 500h56l-12 -92l-68 -408h-60zM392 0l43 258h61l-44 -258h-60zM435 258q14 83 1.5 125.5t-42.5 57.5t-71 15q-73 0 -122.5 -53.5t-65.5 -147.5l-37 4q14 80 45.5 136.5t80 86.5t111.5 30q92 0 138.5 -57t26.5 -171l-4 -26h-61zM132 -200l69 136h72l-84 -136h-57z
" />
    <glyph glyph-name="Ncaron" unicode="&#x147;" horiz-adv-x="774" 
d="M58 0l117 700h64l346 -600l100 600h64l-117 -700h-64l-345 599l-101 -599h-64zM422 744v1l137 125h85l-141 -126h-81zM421 744l-99 126h72l99 -126h-2h-70z" />
    <glyph glyph-name="ncaron" unicode="&#x148;" horiz-adv-x="554" 
d="M33 0l84 500h56l-12 -92l-68 -408h-60zM392 0l43 258h61l-44 -258h-60zM435 258q14 83 1.5 125.5t-42.5 57.5t-71 15q-73 0 -122.5 -53.5t-65.5 -147.5l-37 4q14 80 45.5 136.5t80 86.5t111.5 30q92 0 138.5 -57t26.5 -171l-4 -26h-61zM295 574v1l137 125h85l-141 -126
h-81zM294 574l-99 126h72l99 -126h-2h-70z" />
    <glyph glyph-name="Eng" unicode="&#x14a;" horiz-adv-x="774" 
d="M460 -212q-17 0 -38.5 6.5t-49.5 18.5l27 49q25 -10 41.5 -14.5t25.5 -4.5q40 0 64 25t32 74l94 561h60l-94 -565q-13 -76 -52.5 -113t-109.5 -37zM58 0l117 700h64l346 -600l100 600h64l-117 -700h-64l-345 599l-101 -599h-64z" />
    <glyph glyph-name="eng" unicode="&#x14b;" horiz-adv-x="554" 
d="M280 -212q-17 0 -38.5 6.5t-48.5 18.5l27 49q25 -10 41 -14.5t25 -4.5q81 0 96 96l10 61h60l-11 -65q-13 -75 -52 -111t-109 -36zM33 0l84 500h56l-12 -92l-68 -408h-60zM392 0l43 258h61l-44 -258h-60zM435 258q14 83 1.5 125.5t-42.5 57.5t-71 15q-73 0 -122.5 -53.5
t-65.5 -147.5l-37 4q14 80 45.5 136.5t80 86.5t111.5 30q92 0 138.5 -57t26.5 -171l-4 -26h-61z" />
    <glyph glyph-name="Omacron" unicode="&#x14c;" horiz-adv-x="772" 
d="M349 -12q-75 0 -133.5 26.5t-96 75.5t-51.5 116t-1 148q18 106 73.5 186.5t138 126t180.5 45.5q75 0 133 -27t95 -76t51 -116t0 -147q-17 -105 -73 -186t-137.5 -126.5t-178.5 -45.5zM351 46q80 0 148 39.5t114.5 109t61.5 159.5q15 88 -8 155.5t-76.5 106t-132.5 38.5
q-80 0 -149.5 -39.5t-116.5 -109t-62 -159.5q-14 -88 9 -155.5t78 -106t134 -38.5zM319 750l10 57h300l-10 -57h-300z" />
    <glyph glyph-name="omacron" unicode="&#x14d;" horiz-adv-x="579" 
d="M251 -12q-73 0 -123.5 34t-72.5 94t-9 138q13 76 53 134t100 91t130 33q73 0 123.5 -34t72 -94t8.5 -138q-12 -76 -52.5 -134t-100 -91t-129.5 -33zM252 43q55 0 101.5 27t79 74.5t42.5 109.5q10 60 -5 105.5t-51.5 71.5t-90.5 26q-55 0 -102 -27t-79 -74.5t-43 -109.5
q-10 -60 5.5 -105.5t52.5 -71.5t90 -26zM192 580l10 57h300l-10 -57h-300z" />
    <glyph glyph-name="Ohungarumlaut" unicode="&#x150;" horiz-adv-x="772" 
d="M349 -12q-75 0 -133.5 26.5t-96 75.5t-51.5 116t-1 148q18 106 73.5 186.5t138 126t180.5 45.5q75 0 133 -27t95 -76t51 -116t0 -147q-17 -105 -73 -186t-137.5 -126.5t-178.5 -45.5zM351 46q80 0 148 39.5t114.5 109t61.5 159.5q15 88 -8 155.5t-76.5 106t-132.5 38.5
q-80 0 -149.5 -39.5t-116.5 -109t-62 -159.5q-14 -88 9 -155.5t78 -106t134 -38.5zM495 744l121 126h90l-129 -126h-82zM325 744l121 126h90l-129 -126h-82z" />
    <glyph glyph-name="ohungarumlaut" unicode="&#x151;" horiz-adv-x="579" 
d="M251 -12q-73 0 -123.5 34t-72.5 94t-9 138q13 76 53 134t100 91t130 33q73 0 123.5 -34t72 -94t8.5 -138q-12 -76 -52.5 -134t-100 -91t-129.5 -33zM252 43q55 0 101.5 27t79 74.5t42.5 109.5q10 60 -5 105.5t-51.5 71.5t-90.5 26q-55 0 -102 -27t-79 -74.5t-43 -109.5
q-10 -60 5.5 -105.5t52.5 -71.5t90 -26zM368 574l121 126h90l-129 -126h-82zM198 574l121 126h90l-129 -126h-82z" />
    <glyph glyph-name="OE" unicode="&#x152;" horiz-adv-x="1140" 
d="M348 -12q-103 0 -172 45t-98 127.5t-11 193.5q12 79 47.5 144.5t88 113.5t118.5 74t139 26q94 0 159 -42.5t92 -124.5t7 -199q-14 -86 -48 -153t-83.5 -112.5t-110 -69t-128.5 -23.5zM350 46q77 0 142.5 35.5t111 104t61.5 168.5q17 98 -5 164.5t-74 101t-128 34.5
q-80 0 -149.5 -39.5t-116.5 -109t-62 -159.5q-15 -91 6.5 -158.5t76.5 -104.5t137 -37zM605 0l117 700h403l-9 -58h-340l-42 -252h315l-9 -58h-315l-46 -274h339l-10 -58h-403z" />
    <glyph glyph-name="oe" unicode="&#x153;" horiz-adv-x="982" 
d="M251 -12q-73 0 -123.5 34t-72.5 94t-9 138q13 76 53 134t100 91t130 33q73 0 123.5 -34t72 -94t8.5 -138q-12 -76 -52.5 -134t-100 -91t-129.5 -33zM252 43q55 0 101.5 27t79 74.5t42.5 109.5q10 60 -5 105.5t-51.5 71.5t-90.5 26q-55 0 -102 -27t-79 -74.5t-43 -109.5
q-10 -60 5.5 -105.5t52.5 -71.5t90 -26zM690 -12q-73 0 -123.5 34t-72.5 94t-9 138q13 76 53 134t99 91t128 33q72 0 116.5 -34.5t61 -95t3.5 -139.5h-403q-9 -59 6.5 -104t52 -70.5t89.5 -25.5q59 0 105.5 29.5t76.5 74.5l47 -35q-25 -37 -60 -65t-78 -43.5t-92 -15.5z
M557 298h335q2 71 -29 115t-99 44q-69 0 -125 -44t-82 -115z" />
    <glyph glyph-name="Racute" unicode="&#x154;" horiz-adv-x="618" 
d="M58 0l117 700h213q67 0 113.5 -27t68 -74.5t10.5 -109.5q-10 -59 -48.5 -105t-96.5 -72t-125 -26h-140l-48 -286h-64zM457 0l-122 290l57 31l133 -321h-68zM180 345h166q40 0 76.5 19.5t62.5 54t33 78.5q11 65 -26.5 105t-108.5 40h-154zM308 744l140 126h86l-149 -126
h-77z" />
    <glyph glyph-name="racute" unicode="&#x155;" horiz-adv-x="324" 
d="M33 0l84 500h60l-84 -500h-60zM104 276q14 81 52 131t90 72.5t106 22.5l-5 -55q-44 0 -87.5 -16t-76 -53t-43.5 -100zM147 574l140 126h86l-149 -126h-77z" />
    <glyph glyph-name="uni0156" unicode="&#x156;" horiz-adv-x="618" 
d="M58 0l117 700h213q67 0 113.5 -27t68 -74.5t10.5 -109.5q-10 -59 -48.5 -105t-96.5 -72t-125 -26h-140l-48 -286h-64zM457 0l-122 290l57 31l133 -321h-68zM180 345h166q40 0 76.5 19.5t62.5 54t33 78.5q11 65 -26.5 105t-108.5 40h-154zM156 -200l69 136h72l-84 -136
h-57z" />
    <glyph glyph-name="uni0157" unicode="&#x157;" horiz-adv-x="324" 
d="M33 0l84 500h60l-84 -500h-60zM104 276q14 81 52 131t90 72.5t106 22.5l-5 -55q-44 0 -87.5 -16t-76 -53t-43.5 -100zM-26 -200l69 136h72l-84 -136h-57z" />
    <glyph glyph-name="Rcaron" unicode="&#x158;" horiz-adv-x="618" 
d="M58 0l117 700h213q67 0 113.5 -27t68 -74.5t10.5 -109.5q-10 -59 -48.5 -105t-96.5 -72t-125 -26h-140l-48 -286h-64zM457 0l-122 290l57 31l133 -321h-68zM180 345h166q40 0 76.5 19.5t62.5 54t33 78.5q11 65 -26.5 105t-108.5 40h-154zM329 744v1l137 125h85l-141 -126
h-81zM328 744l-99 126h72l99 -126h-2h-70z" />
    <glyph glyph-name="rcaron" unicode="&#x159;" horiz-adv-x="324" 
d="M33 0l84 500h60l-84 -500h-60zM104 276q14 81 52 131t90 72.5t106 22.5l-5 -55q-44 0 -87.5 -16t-76 -53t-43.5 -100zM168 574v1l137 125h85l-141 -126h-81zM167 574l-99 126h72l99 -126h-2h-70z" />
    <glyph glyph-name="Sacute" unicode="&#x15a;" horiz-adv-x="617" 
d="M279 -12q-60 0 -103 13t-72 35t-45 49.5t-21 57.5l62 19q9 -47 52.5 -81.5t113.5 -34.5q57 0 108 17.5t82.5 52t31.5 86.5q0 37 -18 59t-51 35t-77 23l-68 16q-40 10 -73.5 29.5t-53.5 51t-20 76.5q0 66 34.5 115.5t94.5 77t137 27.5q70 0 117 -24t72 -59t29 -70l-61 -19
q-13 55 -56.5 84.5t-111.5 29.5q-51 0 -94.5 -19.5t-69.5 -54t-26 -79.5q0 -46 28 -69.5t74 -34.5l83 -20q62 -15 100.5 -38t56.5 -56.5t18 -80.5q0 -61 -37 -109.5t-99 -76.5t-137 -28zM340 744l140 126h86l-149 -126h-77z" />
    <glyph glyph-name="sacute" unicode="&#x15b;" horiz-adv-x="466" 
d="M205 -12q-58 0 -97 17.5t-60 45t-27 56.5l56 16q11 -37 44 -58.5t74 -21.5q35 0 69 11.5t56 34t22 56.5q0 29 -22.5 47t-67.5 31l-47 13q-58 16 -89.5 47t-31.5 71q0 48 25.5 83.5t71.5 55t107 19.5q66 0 107 -28.5t52 -76.5l-56 -19q-11 39 -37.5 54t-75.5 15
q-56 0 -95 -28t-39 -69q0 -19 20.5 -37.5t63.5 -29.5l41 -11q72 -19 103 -55t31 -80q0 -46 -27 -82t-71.5 -56.5t-99.5 -20.5zM238 574l140 126h86l-149 -126h-77z" />
    <glyph glyph-name="Scircumflex" unicode="&#x15c;" horiz-adv-x="617" 
d="M279 -12q-60 0 -103 13t-72 35t-45 49.5t-21 57.5l62 19q9 -47 52.5 -81.5t113.5 -34.5q57 0 108 17.5t82.5 52t31.5 86.5q0 37 -18 59t-51 35t-77 23l-68 16q-40 10 -73.5 29.5t-53.5 51t-20 76.5q0 66 34.5 115.5t94.5 77t137 27.5q70 0 117 -24t72 -59t29 -70l-61 -19
q-13 55 -56.5 84.5t-111.5 29.5q-51 0 -94.5 -19.5t-69.5 -54t-26 -79.5q0 -46 28 -69.5t74 -34.5l83 -20q62 -15 100.5 -38t56.5 -56.5t18 -80.5q0 -61 -37 -109.5t-99 -76.5t-137 -28zM240 756l141 126h81v-1l-137 -125h-85zM490 756l-99 126h2h70l99 -126h-72z" />
    <glyph glyph-name="scircumflex" unicode="&#x15d;" horiz-adv-x="466" 
d="M205 -12q-58 0 -97 17.5t-60 45t-27 56.5l56 16q11 -37 44 -58.5t74 -21.5q35 0 69 11.5t56 34t22 56.5q0 29 -22.5 47t-67.5 31l-47 13q-58 16 -89.5 47t-31.5 71q0 48 25.5 83.5t71.5 55t107 19.5q66 0 107 -28.5t52 -76.5l-56 -19q-11 39 -37.5 54t-75.5 15
q-56 0 -95 -28t-39 -69q0 -19 20.5 -37.5t63.5 -29.5l41 -11q72 -19 103 -55t31 -80q0 -46 -27 -82t-71.5 -56.5t-99.5 -20.5zM138 586l141 126h81v-1l-137 -125h-85zM388 586l-99 126h2h70l99 -126h-72z" />
    <glyph glyph-name="Scedilla" unicode="&#x15e;" horiz-adv-x="617" 
d="M279 -12q-60 0 -103 13t-72 35t-45 49.5t-21 57.5l62 19q9 -47 52.5 -81.5t113.5 -34.5q57 0 108 17.5t82.5 52t31.5 86.5q0 37 -18 59t-51 35t-77 23l-68 16q-40 10 -73.5 29.5t-53.5 51t-20 76.5q0 66 34.5 115.5t94.5 77t137 27.5q70 0 117 -24t72 -59t29 -70l-61 -19
q-13 55 -56.5 84.5t-111.5 29.5q-51 0 -94.5 -19.5t-69.5 -54t-26 -79.5q0 -46 28 -69.5t74 -34.5l83 -20q62 -15 100.5 -38t56.5 -56.5t18 -80.5q0 -61 -37 -109.5t-99 -76.5t-137 -28zM221 -210q-22 0 -47.5 6.5t-61.5 28.5l27 39q17 -10 36.5 -19t37.5 -9q26 0 43.5 13
t17.5 38q0 23 -21 34t-58 17l44 69l47 -15l-17 -26q24 -9 39 -30t15 -44q0 -52 -27 -77t-75 -25z" />
    <glyph glyph-name="scedilla" unicode="&#x15f;" horiz-adv-x="466" 
d="M205 -12q-58 0 -97 17.5t-60 45t-27 56.5l56 16q11 -37 44 -58.5t74 -21.5q35 0 69 11.5t56 34t22 56.5q0 29 -22.5 47t-67.5 31l-47 13q-58 16 -89.5 47t-31.5 71q0 48 25.5 83.5t71.5 55t107 19.5q66 0 107 -28.5t52 -76.5l-56 -19q-11 39 -37.5 54t-75.5 15
q-56 0 -95 -28t-39 -69q0 -19 20.5 -37.5t63.5 -29.5l41 -11q72 -19 103 -55t31 -80q0 -46 -27 -82t-71.5 -56.5t-99.5 -20.5zM149 -222q-22 0 -47.5 6.5t-61.5 28.5l27 39q17 -10 36.5 -19t37.5 -9q26 0 43.5 13t17.5 38q0 23 -21 34t-58 17l44 69l47 -15l-17 -26
q24 -9 39 -30t15 -44q0 -52 -27 -77t-75 -25z" />
    <glyph glyph-name="Scaron" unicode="&#x160;" horiz-adv-x="617" 
d="M279 -12q-60 0 -103 13t-72 35t-45 49.5t-21 57.5l62 19q9 -47 52.5 -81.5t113.5 -34.5q57 0 108 17.5t82.5 52t31.5 86.5q0 37 -18 59t-51 35t-77 23l-68 16q-40 10 -73.5 29.5t-53.5 51t-20 76.5q0 66 34.5 115.5t94.5 77t137 27.5q70 0 117 -24t72 -59t29 -70l-61 -19
q-13 55 -56.5 84.5t-111.5 29.5q-51 0 -94.5 -19.5t-69.5 -54t-26 -79.5q0 -46 28 -69.5t74 -34.5l83 -20q62 -15 100.5 -38t56.5 -56.5t18 -80.5q0 -61 -37 -109.5t-99 -76.5t-137 -28zM361 744v1l137 125h85l-141 -126h-81zM360 744l-99 126h72l99 -126h-2h-70z" />
    <glyph glyph-name="scaron" unicode="&#x161;" horiz-adv-x="466" 
d="M205 -12q-58 0 -97 17.5t-60 45t-27 56.5l56 16q11 -37 44 -58.5t74 -21.5q35 0 69 11.5t56 34t22 56.5q0 29 -22.5 47t-67.5 31l-47 13q-58 16 -89.5 47t-31.5 71q0 48 25.5 83.5t71.5 55t107 19.5q66 0 107 -28.5t52 -76.5l-56 -19q-11 39 -37.5 54t-75.5 15
q-56 0 -95 -28t-39 -69q0 -19 20.5 -37.5t63.5 -29.5l41 -11q72 -19 103 -55t31 -80q0 -46 -27 -82t-71.5 -56.5t-99.5 -20.5zM259 574v1l137 125h85l-141 -126h-81zM258 574l-99 126h72l99 -126h-2h-70z" />
    <glyph glyph-name="Tcaron" unicode="&#x164;" horiz-adv-x="540" 
d="M196 0l108 642h-228l9 58h520l-9 -58h-228l-108 -642h-64zM311 744v1l137 125h85l-141 -126h-81zM310 744l-99 126h72l99 -126h-2h-70z" />
    <glyph glyph-name="tcaron" unicode="&#x165;" horiz-adv-x="379" 
d="M218 -12q-67 0 -98.5 37.5t-20.5 104.5l88 526h60l-89 -530q-7 -40 10.5 -61.5t56.5 -21.5q13 0 26.5 5t38.5 18l20 -54q-33 -16 -53 -20t-39 -4zM63 445l9 55h308l-9 -55h-308zM279 553l84 172h72l-99 -172h-57z" />
    <glyph glyph-name="Umacron" unicode="&#x16a;" horiz-adv-x="709" 
d="M311 -16q-78 0 -132 33.5t-78 92.5t-12 135l76 455h64l-76 -455q-10 -60 7.5 -105.5t57.5 -71.5t97 -26q60 0 111 26t85 72t43 105l76 455h64l-76 -455q-13 -77 -56.5 -136t-108.5 -92t-142 -33zM288 750l10 57h300l-10 -57h-300z" />
    <glyph glyph-name="umacron" unicode="&#x16b;" horiz-adv-x="554" 
d="M381 0l12 92l68 408h60l-84 -500h-56zM54 216l48 284h60l-43 -258zM119 242q-14 -83 -1.5 -125.5t43 -57.5t70.5 -15q73 0 122.5 53.5t65.5 147.5l37 -4q-13 -80 -45 -136.5t-80 -86.5t-112 -30q-91 0 -137.5 57t-27.5 171l4 26h61zM173 580l10 57h300l-10 -57h-300z" />
    <glyph glyph-name="Ubreve" unicode="&#x16c;" horiz-adv-x="709" 
d="M311 -16q-78 0 -132 33.5t-78 92.5t-12 135l76 455h64l-76 -455q-10 -60 7.5 -105.5t57.5 -71.5t97 -26q60 0 111 26t85 72t43 105l76 455h64l-76 -455q-13 -77 -56.5 -136t-108.5 -92t-142 -33zM440 739q-48 0 -83 17t-51 46.5t-10 67.5h61q-5 -34 18.5 -55.5
t65.5 -21.5q46 0 78.5 22t38.5 55h62q-6 -39 -31.5 -68.5t-63.5 -46t-85 -16.5z" />
    <glyph glyph-name="ubreve" unicode="&#x16d;" horiz-adv-x="554" 
d="M381 0l12 92l68 408h60l-84 -500h-56zM54 216l48 284h60l-43 -258zM119 242q-14 -83 -1.5 -125.5t43 -57.5t70.5 -15q73 0 122.5 53.5t65.5 147.5l37 -4q-13 -80 -45 -136.5t-80 -86.5t-112 -30q-91 0 -137.5 57t-27.5 171l4 26h61zM325 569q-48 0 -83 17t-51 46.5
t-10 67.5h61q-5 -34 18.5 -55.5t65.5 -21.5q46 0 78.5 22t38.5 55h62q-6 -39 -31.5 -68.5t-63.5 -46t-85 -16.5z" />
    <glyph glyph-name="Uring" unicode="&#x16e;" horiz-adv-x="709" 
d="M311 -16q-78 0 -132 33.5t-78 92.5t-12 135l76 455h64l-76 -455q-10 -60 7.5 -105.5t57.5 -71.5t97 -26q60 0 111 26t85 72t43 105l76 455h64l-76 -455q-13 -77 -56.5 -136t-108.5 -92t-142 -33zM438 734q-34 0 -55.5 22t-21.5 53q0 26 12.5 47.5t35.5 35t53 13.5
q33 0 54 -21.5t21 -53.5q0 -28 -12.5 -49.5t-35 -34t-51.5 -12.5zM442 780q20 0 33 13.5t13 38.5q0 27 -30 27q-21 0 -34 -13.5t-13 -36.5q0 -13 8.5 -21t22.5 -8z" />
    <glyph glyph-name="uring" unicode="&#x16f;" horiz-adv-x="554" 
d="M381 0l12 92l68 408h60l-84 -500h-56zM54 216l48 284h60l-43 -258zM119 242q-14 -83 -1.5 -125.5t43 -57.5t70.5 -15q73 0 122.5 53.5t65.5 147.5l37 -4q-13 -80 -45 -136.5t-80 -86.5t-112 -30q-91 0 -137.5 57t-27.5 171l4 26h61zM323 564q-34 0 -55.5 22t-21.5 53
q0 26 12.5 47.5t35.5 35t53 13.5q33 0 54 -21.5t21 -53.5q0 -28 -12.5 -49.5t-35 -34t-51.5 -12.5zM327 610q20 0 33 13.5t13 38.5q0 27 -30 27q-21 0 -34 -13.5t-13 -36.5q0 -13 8.5 -21t22.5 -8z" />
    <glyph glyph-name="Uhungarumlaut" unicode="&#x170;" horiz-adv-x="709" 
d="M311 -16q-78 0 -132 33.5t-78 92.5t-12 135l76 455h64l-76 -455q-10 -60 7.5 -105.5t57.5 -71.5t97 -26q60 0 111 26t85 72t43 105l76 455h64l-76 -455q-13 -77 -56.5 -136t-108.5 -92t-142 -33zM464 744l121 126h90l-129 -126h-82zM294 744l121 126h90l-129 -126h-82z
" />
    <glyph glyph-name="uhungarumlaut" unicode="&#x171;" horiz-adv-x="554" 
d="M381 0l12 92l68 408h60l-84 -500h-56zM54 216l48 284h60l-43 -258zM119 242q-14 -83 -1.5 -125.5t43 -57.5t70.5 -15q73 0 122.5 53.5t65.5 147.5l37 -4q-13 -80 -45 -136.5t-80 -86.5t-112 -30q-91 0 -137.5 57t-27.5 171l4 26h61zM349 574l121 126h90l-129 -126h-82z
M179 574l121 126h90l-129 -126h-82z" />
    <glyph glyph-name="Uogonek" unicode="&#x172;" horiz-adv-x="709" 
d="M311 -16q-78 0 -132 33.5t-78 92.5t-12 135l76 455h64l-76 -455q-10 -60 7.5 -105.5t57.5 -71.5t97 -26q60 0 111 26t85 72t43 105l76 455h64l-76 -455q-13 -77 -56.5 -136t-108.5 -92t-142 -33zM456 -195q-31 0 -55.5 9.5t-38.5 26.5t-14 39q0 23 10 47t28.5 47t43.5 43
t55 35l18 -2q-40 -31 -66.5 -74t-26.5 -80q0 -16 11.5 -26t28.5 -10q18 0 37.5 3.5t32.5 8.5l16 -48q-17 -8 -39.5 -13.5t-40.5 -5.5z" />
    <glyph glyph-name="uogonek" unicode="&#x173;" horiz-adv-x="554" 
d="M381 0l12 92l68 408h60l-84 -500h-56zM54 216l48 284h60l-43 -258zM119 242q-14 -83 -1.5 -125.5t43 -57.5t70.5 -15q73 0 122.5 53.5t65.5 147.5l37 -4q-13 -80 -45 -136.5t-80 -86.5t-112 -30q-91 0 -137.5 57t-27.5 171l4 26h61zM354 -212q-52 0 -77 23.5t-18 68.5
q4 24 22.5 47t46 44.5t58.5 41.5l51 -13q-26 -17 -52 -37t-44.5 -42.5t-22.5 -48.5q-5 -29 31 -29q20 0 36.5 5t20.5 7l15 -48q-14 -9 -31.5 -14t-35.5 -5z" />
    <glyph glyph-name="Wcircumflex" unicode="&#x174;" horiz-adv-x="950" 
d="M611 0l339 700h65l-338 -700h-66zM184 0l-99 700h63l100 -700h-64zM188 0l329 700h65l-328 -700h-66zM607 0l-89 700h63l90 -700h-64zM394 756l141 126h81v-1l-137 -125h-85zM644 756l-99 126h2h70l99 -126h-72z" />
    <glyph glyph-name="wcircumflex" unicode="&#x175;" horiz-adv-x="764" 
d="M139 0l-87 500h59l88 -500h-60zM139 0l255 500h60l-254 -500h-61zM482 0l-87 500h59l88 -500h-60zM481 0l254 500h61l-253 -500h-62zM274 586l141 126h81v-1l-137 -125h-85zM524 586l-99 126h2h70l99 -126h-72z" />
    <glyph glyph-name="Ycircumflex" unicode="&#x176;" horiz-adv-x="588" 
d="M334 292l-46 36l290 372h76zM220 0l56 336h64l-56 -336h-64zM270 292l-184 408h74l166 -372zM214 756l141 126h81v-1l-137 -125h-85zM464 756l-99 126h2h70l99 -126h-72z" />
    <glyph glyph-name="ycircumflex" unicode="&#x177;" horiz-adv-x="506" 
d="M25 -212q-17 0 -38.5 6.5t-49.5 18.5l27 49q48 -19 67 -19q30 0 52.5 17t38.5 45l79 134l273 461h64l-342 -582q-25 -42 -49 -71t-53 -44t-69 -15zM180 0l-128 500h61l116 -460l11 -40h-60zM144 586l141 126h81v-1l-137 -125h-85zM394 586l-99 126h2h70l99 -126h-72z" />
    <glyph glyph-name="Ydieresis" unicode="&#x178;" horiz-adv-x="588" 
d="M334 292l-46 36l290 372h76zM220 0l56 336h64l-56 -336h-64zM270 292l-184 408h74l166 -372zM271 800q-16 0 -28 12t-12 28q0 17 12 28.5t28 11.5q17 0 28.5 -11.5t11.5 -28.5q0 -16 -11.5 -28t-28.5 -12zM513 800q-16 0 -28 12t-12 28q0 17 12 28.5t28 11.5
q17 0 28.5 -11.5t11.5 -28.5q0 -16 -11.5 -28t-28.5 -12z" />
    <glyph glyph-name="Zacute" unicode="&#x179;" horiz-adv-x="644" 
d="M18 58l593 616l49 -32l-561 -584h-81zM8 0l10 58h541l-10 -58h-541zM119 642l9 58h541l-9 -58h-541zM343 744l140 126h86l-149 -126h-77z" />
    <glyph glyph-name="zacute" unicode="&#x17a;" horiz-adv-x="497" 
d="M64 20l-47 32l415 431l46 -32zM8 0l9 52l43 3h354l-9 -55h-397zM83 445l9 55h394l-8 -49l-43 -6h-352zM239 574l140 126h86l-149 -126h-77z" />
    <glyph glyph-name="Zdotaccent" unicode="&#x17b;" horiz-adv-x="644" 
d="M18 58l593 616l49 -32l-561 -584h-81zM8 0l10 58h541l-10 -58h-541zM119 642l9 58h541l-9 -58h-541zM422 800q-16 0 -28 12t-12 28q0 17 12 28.5t28 11.5q17 0 28.5 -11.5t11.5 -28.5q0 -16 -11.5 -28t-28.5 -12z" />
    <glyph glyph-name="zdotaccent" unicode="&#x17c;" horiz-adv-x="497" 
d="M64 20l-47 32l415 431l46 -32zM8 0l9 52l43 3h354l-9 -55h-397zM83 445l9 55h394l-8 -49l-43 -6h-352zM318 630q-16 0 -28 12t-12 28q0 17 12 28.5t28 11.5q17 0 28.5 -11.5t11.5 -28.5q0 -16 -11.5 -28t-28.5 -12z" />
    <glyph glyph-name="Zcaron" unicode="&#x17d;" horiz-adv-x="644" 
d="M18 58l593 616l49 -32l-561 -584h-81zM8 0l10 58h541l-10 -58h-541zM119 642l9 58h541l-9 -58h-541zM364 744v1l137 125h85l-141 -126h-81zM363 744l-99 126h72l99 -126h-2h-70z" />
    <glyph glyph-name="zcaron" unicode="&#x17e;" horiz-adv-x="497" 
d="M64 20l-47 32l415 431l46 -32zM8 0l9 52l43 3h354l-9 -55h-397zM83 445l9 55h394l-8 -49l-43 -6h-352zM260 574v1l137 125h85l-141 -126h-81zM259 574l-99 126h72l99 -126h-2h-70z" />
    <glyph glyph-name="uni01CD" unicode="&#x1cd;" horiz-adv-x="668" 
d="M-32 0l405 700h70l-401 -700h-74zM551 0l-168 700h62l171 -700h-65zM140 217l10 58h370l-10 -58h-370zM377 744v1l137 125h85l-141 -126h-81zM376 744l-99 126h72l99 -126h-2h-70z" />
    <glyph glyph-name="uni01CE" unicode="&#x1ce;" 
d="M409 0l13 93l68 407h60l-84 -500h-57zM232 -12q-56 0 -99 26.5t-67.5 73.5t-24.5 108q0 59 19.5 115.5t55.5 101.5t85.5 72t110.5 27q56 0 96 -25.5t62 -71.5t22 -107q0 -80 -22.5 -140t-60.5 -100t-84 -60t-93 -20zM245 42q49 0 87.5 23t65.5 61.5t41 84.5t14 92
q0 70 -35 112.5t-96 42.5q-50 0 -90.5 -22.5t-70 -60t-45 -83t-15.5 -92.5q0 -70 39 -114t105 -44zM283 574v1l137 125h85l-141 -126h-81zM282 574l-99 126h72l99 -126h-2h-70z" />
    <glyph glyph-name="uni0218" unicode="&#x218;" horiz-adv-x="617" 
d="M279 -12q-60 0 -103 13t-72 35t-45 49.5t-21 57.5l62 19q9 -47 52.5 -81.5t113.5 -34.5q57 0 108 17.5t82.5 52t31.5 86.5q0 37 -18 59t-51 35t-77 23l-68 16q-40 10 -73.5 29.5t-53.5 51t-20 76.5q0 66 34.5 115.5t94.5 77t137 27.5q70 0 117 -24t72 -59t29 -70l-61 -19
q-13 55 -56.5 84.5t-111.5 29.5q-51 0 -94.5 -19.5t-69.5 -54t-26 -79.5q0 -46 28 -69.5t74 -34.5l83 -20q62 -15 100.5 -38t56.5 -56.5t18 -80.5q0 -61 -37 -109.5t-99 -76.5t-137 -28zM166 -200l69 136h72l-84 -136h-57z" />
    <glyph glyph-name="uni0219" unicode="&#x219;" horiz-adv-x="466" 
d="M205 -12q-58 0 -97 17.5t-60 45t-27 56.5l56 16q11 -37 44 -58.5t74 -21.5q35 0 69 11.5t56 34t22 56.5q0 29 -22.5 47t-67.5 31l-47 13q-58 16 -89.5 47t-31.5 71q0 48 25.5 83.5t71.5 55t107 19.5q66 0 107 -28.5t52 -76.5l-56 -19q-11 39 -37.5 54t-75.5 15
q-56 0 -95 -28t-39 -69q0 -19 20.5 -37.5t63.5 -29.5l41 -11q72 -19 103 -55t31 -80q0 -46 -27 -82t-71.5 -56.5t-99.5 -20.5zM94 -212l69 136h72l-84 -136h-57z" />
    <glyph glyph-name="uni021A" unicode="&#x21a;" horiz-adv-x="540" 
d="M196 0l108 642h-228l9 58h520l-9 -58h-228l-108 -642h-64zM117 -200l69 136h72l-84 -136h-57z" />
    <glyph glyph-name="uni021B" unicode="&#x21b;" horiz-adv-x="379" 
d="M218 -12q-67 0 -98.5 37.5t-20.5 104.5l88 526h60l-89 -530q-7 -40 10.5 -61.5t56.5 -21.5q13 0 26.5 5t38.5 18l20 -54q-33 -16 -53 -20t-39 -4zM63 445l9 55h308l-9 -55h-308zM66 -200l69 136h72l-84 -136h-57z" />
    <glyph glyph-name="uni0237" unicode="&#x237;" horiz-adv-x="248" 
d="M-37 -215q-17 0 -38.5 6.5t-48.5 18.5l27 49q48 -19 66 -19q80 0 97 99l94 561h60l-95 -565q-13 -76 -52.5 -113t-109.5 -37z" />
    <glyph glyph-name="circumflex" unicode="&#x2c6;" horiz-adv-x="325" 
d="M56 586l141 126h81v-1l-137 -125h-85zM306 586l-99 126h2h70l99 -126h-72z" />
    <glyph glyph-name="caron" unicode="&#x2c7;" horiz-adv-x="325" 
d="M175 574v1l137 125h85l-141 -126h-81zM174 574l-99 126h72l99 -126h-2h-70z" />
    <glyph glyph-name="breve" unicode="&#x2d8;" horiz-adv-x="324" 
d="M219 569q-48 0 -83 17t-51 46.5t-10 67.5h61q-5 -34 18.5 -55.5t65.5 -21.5q46 0 78.5 22t38.5 55h62q-6 -39 -31.5 -68.5t-63.5 -46t-85 -16.5z" />
    <glyph glyph-name="dotaccent" unicode="&#x2d9;" horiz-adv-x="0" 
d="M111 630q-16 0 -28 12t-12 28q0 17 12 28.5t28 11.5q17 0 28.5 -11.5t11.5 -28.5q0 -16 -11.5 -28t-28.5 -12z" />
    <glyph glyph-name="ring" unicode="&#x2da;" horiz-adv-x="275" 
d="M193 564q-34 0 -55.5 22t-21.5 53q0 26 12.5 47.5t35.5 35t53 13.5q33 0 54 -21.5t21 -53.5q0 -28 -12.5 -49.5t-35 -34t-51.5 -12.5zM197 610q20 0 33 13.5t13 38.5q0 27 -30 27q-21 0 -34 -13.5t-13 -36.5q0 -13 8.5 -21t22.5 -8z" />
    <glyph glyph-name="ogonek" unicode="&#x2db;" horiz-adv-x="213" 
d="M73 -212q-52 0 -77 23.5t-18 68.5q4 24 22.5 47t46 44.5t58.5 41.5l51 -13q-26 -17 -52 -37t-44.5 -42.5t-22.5 -48.5q-5 -29 31 -29q20 0 36.5 5t20.5 7l15 -48q-14 -9 -31.5 -14t-35.5 -5z" />
    <glyph glyph-name="tilde" unicode="&#x2dc;" horiz-adv-x="306" 
d="M270 572q-25 0 -40.5 11t-25.5 25t-19 25t-23 11q-18 0 -29 -9t-18 -28h-54q5 34 32 63.5t76 29.5q25 0 40 -11t24 -25t18 -25t22 -11q19 0 30 9.5t17 28.5h54q-10 -34 -33.5 -64t-70.5 -30z" />
    <glyph glyph-name="hungarumlaut" unicode="&#x2dd;" horiz-adv-x="360" 
d="M224 574l121 126h90l-129 -126h-82zM54 574l121 126h90l-129 -126h-82z" />
    <glyph glyph-name="gravecomb" unicode="&#x300;" horiz-adv-x="0" 
d="M213 574l-88 126h83l77 -126h-72z" />
    <glyph glyph-name="acutecomb" unicode="&#x301;" horiz-adv-x="0" 
d="M54 574l140 126h86l-149 -126h-77z" />
    <glyph glyph-name="uni0302" unicode="&#x302;" horiz-adv-x="0" 
d="M56 586l141 126h81v-1l-137 -125h-85zM306 586l-99 126h2h70l99 -126h-72z" />
    <glyph glyph-name="tildecomb" unicode="&#x303;" horiz-adv-x="0" 
d="M270 572q-25 0 -40.5 11t-25.5 25t-19 25t-23 11q-18 0 -29 -9t-18 -28h-54q5 34 32 63.5t76 29.5q25 0 40 -11t24 -25t18 -25t22 -11q19 0 30 9.5t17 28.5h54q-10 -34 -33.5 -64t-70.5 -30z" />
    <glyph glyph-name="uni0304" unicode="&#x304;" horiz-adv-x="0" 
d="M55 580l10 57h300l-10 -57h-300z" />
    <glyph glyph-name="uni0306" unicode="&#x306;" horiz-adv-x="0" 
d="M219 569q-48 0 -83 17t-51 46.5t-10 67.5h61q-5 -34 18.5 -55.5t65.5 -21.5q46 0 78.5 22t38.5 55h62q-6 -39 -31.5 -68.5t-63.5 -46t-85 -16.5z" />
    <glyph glyph-name="uni0307" unicode="&#x307;" horiz-adv-x="0" 
d="M111 630q-16 0 -28 12t-12 28q0 17 12 28.5t28 11.5q17 0 28.5 -11.5t11.5 -28.5q0 -16 -11.5 -28t-28.5 -12z" />
    <glyph glyph-name="uni0308" unicode="&#x308;" horiz-adv-x="0" 
d="M84 630q-16 0 -28 12t-12 28q0 17 12 28.5t28 11.5q17 0 28.5 -11.5t11.5 -28.5q0 -16 -11.5 -28t-28.5 -12zM326 630q-16 0 -28 12t-12 28q0 17 12 28.5t28 11.5q17 0 28.5 -11.5t11.5 -28.5q0 -16 -11.5 -28t-28.5 -12z" />
    <glyph glyph-name="uni030A" unicode="&#x30a;" horiz-adv-x="0" 
d="M193 564q-34 0 -55.5 22t-21.5 53q0 26 12.5 47.5t35.5 35t53 13.5q33 0 54 -21.5t21 -53.5q0 -28 -12.5 -49.5t-35 -34t-51.5 -12.5zM197 610q20 0 33 13.5t13 38.5q0 27 -30 27q-21 0 -34 -13.5t-13 -36.5q0 -13 8.5 -21t22.5 -8z" />
    <glyph glyph-name="uni030B" unicode="&#x30b;" horiz-adv-x="0" 
d="M224 574l121 126h90l-129 -126h-82zM54 574l121 126h90l-129 -126h-82z" />
    <glyph glyph-name="uni030C" unicode="&#x30c;" horiz-adv-x="0" 
d="M175 574v1l137 125h85l-141 -126h-81zM174 574l-99 126h72l99 -126h-2h-70z" />
    <glyph glyph-name="uni0312" unicode="&#x312;" horiz-adv-x="0" 
d="M217 712l-89 -126h-72l104 126h57z" />
    <glyph glyph-name="uni0326" unicode="&#x326;" horiz-adv-x="0" 
d="M-75 -200l69 136h72l-84 -136h-57z" />
    <glyph glyph-name="uni0327" unicode="&#x327;" horiz-adv-x="0" 
d="M38 -210q-22 0 -47.5 6.5t-61.5 28.5l27 39q17 -10 36.5 -19t37.5 -9q26 0 43.5 13t17.5 38q0 23 -21 34t-58 17l44 69l47 -15l-17 -26q24 -9 39 -30t15 -44q0 -52 -27 -77t-75 -25z" />
    <glyph glyph-name="uni0328" unicode="&#x328;" horiz-adv-x="0" 
d="M73 -212q-52 0 -77 23.5t-18 68.5q4 24 22.5 47t46 44.5t58.5 41.5l51 -13q-26 -17 -52 -37t-44.5 -42.5t-22.5 -48.5q-5 -29 31 -29q20 0 36.5 5t20.5 7l15 -48q-14 -9 -31.5 -14t-35.5 -5z" />
    <glyph glyph-name="Wgrave" unicode="&#x1e80;" horiz-adv-x="950" 
d="M611 0l339 700h65l-338 -700h-66zM184 0l-99 700h63l100 -700h-64zM188 0l329 700h65l-328 -700h-66zM607 0l-89 700h63l90 -700h-64zM582 744l-88 126h83l77 -126h-72z" />
    <glyph glyph-name="wgrave" unicode="&#x1e81;" horiz-adv-x="764" 
d="M139 0l-87 500h59l88 -500h-60zM139 0l255 500h60l-254 -500h-61zM482 0l-87 500h59l88 -500h-60zM481 0l254 500h61l-253 -500h-62zM462 574l-88 126h83l77 -126h-72z" />
    <glyph glyph-name="Wacute" unicode="&#x1e82;" horiz-adv-x="950" 
d="M611 0l339 700h65l-338 -700h-66zM184 0l-99 700h63l100 -700h-64zM188 0l329 700h65l-328 -700h-66zM607 0l-89 700h63l90 -700h-64zM494 744l140 126h86l-149 -126h-77z" />
    <glyph glyph-name="wacute" unicode="&#x1e83;" horiz-adv-x="764" 
d="M139 0l-87 500h59l88 -500h-60zM139 0l255 500h60l-254 -500h-61zM482 0l-87 500h59l88 -500h-60zM481 0l254 500h61l-253 -500h-62zM374 574l140 126h86l-149 -126h-77z" />
    <glyph glyph-name="Wdieresis" unicode="&#x1e84;" horiz-adv-x="950" 
d="M611 0l339 700h65l-338 -700h-66zM184 0l-99 700h63l100 -700h-64zM188 0l329 700h65l-328 -700h-66zM607 0l-89 700h63l90 -700h-64zM451 800q-16 0 -28 12t-12 28q0 17 12 28.5t28 11.5q17 0 28.5 -11.5t11.5 -28.5q0 -16 -11.5 -28t-28.5 -12zM693 800q-16 0 -28 12
t-12 28q0 17 12 28.5t28 11.5q17 0 28.5 -11.5t11.5 -28.5q0 -16 -11.5 -28t-28.5 -12z" />
    <glyph glyph-name="wdieresis" unicode="&#x1e85;" horiz-adv-x="764" 
d="M139 0l-87 500h59l88 -500h-60zM139 0l255 500h60l-254 -500h-61zM482 0l-87 500h59l88 -500h-60zM481 0l254 500h61l-253 -500h-62zM331 630q-16 0 -28 12t-12 28q0 17 12 28.5t28 11.5q17 0 28.5 -11.5t11.5 -28.5q0 -16 -11.5 -28t-28.5 -12zM573 630q-16 0 -28 12
t-12 28q0 17 12 28.5t28 11.5q17 0 28.5 -11.5t11.5 -28.5q0 -16 -11.5 -28t-28.5 -12z" />
    <glyph glyph-name="uni1E9E" unicode="&#x1e9e;" horiz-adv-x="559" 
d="M58 0l91 542q14 82 68 126t151 44q50 0 84.5 -12t57 -31t35.5 -39t21 -36l-52 -47q-11 24 -26 48.5t-44 41.5t-82 17q-65 0 -103.5 -34t-47.5 -92l-89 -528h-64zM269 -12q-20 0 -52 11t-56 42l49 38q6 -6 21.5 -19.5t47.5 -13.5q66 0 105.5 37.5t49.5 103.5
q11 62 -19.5 97t-96.5 35h-63l9 58h59q97 0 143.5 -52.5t30.5 -145.5q-15 -91 -73 -141t-155 -50zM258 340l6 42l263 254l38 -41l-263 -255h-44z" />
    <glyph glyph-name="Ygrave" unicode="&#x1ef2;" horiz-adv-x="588" 
d="M334 292l-46 36l290 372h76zM220 0l56 336h64l-56 -336h-64zM270 292l-184 408h74l166 -372zM402 744l-88 126h83l77 -126h-72z" />
    <glyph glyph-name="ygrave" unicode="&#x1ef3;" horiz-adv-x="506" 
d="M25 -212q-17 0 -38.5 6.5t-49.5 18.5l27 49q48 -19 67 -19q30 0 52.5 17t38.5 45l79 134l273 461h64l-342 -582q-25 -42 -49 -71t-53 -44t-69 -15zM180 0l-128 500h61l116 -460l11 -40h-60zM332 574l-88 126h83l77 -126h-72z" />
    <glyph glyph-name="endash" unicode="&#x2013;" horiz-adv-x="550" 
d="M3 269l10 57h550l-10 -57h-550z" />
    <glyph glyph-name="emdash" unicode="&#x2014;" horiz-adv-x="1100" 
d="M3 269l10 57h1100l-10 -57h-1100z" />
    <glyph glyph-name="quoteleft" unicode="&#x2018;" horiz-adv-x="168" 
d="M223 700l-89 -202h-72l104 202h57z" />
    <glyph glyph-name="quoteright" unicode="&#x2019;" horiz-adv-x="168" 
d="M62 498l89 202h72l-104 -202h-57z" />
    <glyph glyph-name="quotesinglbase" unicode="&#x201a;" horiz-adv-x="197" 
d="M-17 -116l89 202h72l-104 -202h-57z" />
    <glyph glyph-name="quotedblleft" unicode="&#x201c;" horiz-adv-x="298" 
d="M222 699l-89 -202h-72l104 202h57zM353 699l-89 -202h-72l104 202h57z" />
    <glyph glyph-name="quotedblright" unicode="&#x201d;" horiz-adv-x="299" 
d="M193 498l89 202h72l-104 -202h-57zM62 498l89 202h72l-104 -202h-57z" />
    <glyph glyph-name="quotedblbase" unicode="&#x201e;" horiz-adv-x="278" 
d="M90 -116l89 202h72l-104 -202h-57zM-41 -116l89 202h72l-104 -202h-57z" />
    <glyph glyph-name="dagger" unicode="&#x2020;" horiz-adv-x="478" 
d="M166 0l84 472l33 228h62l-43 -228l-74 -472h-62zM57 446l9 56l214 -5l215 5l-9 -56l-213 5z" />
    <glyph glyph-name="daggerdbl" unicode="&#x2021;" horiz-adv-x="478" 
d="M133 -200l42 224l33 226l42 222l33 228h62l-43 -228l-32 -222l-43 -226l-32 -224h-62zM-17 -3l9 56l214 -5l214 5l-9 -56l-213 5zM58 446l9 56l213 -5l215 5l-9 -56l-213 5z" />
    <glyph glyph-name="bullet" unicode="&#x2022;" horiz-adv-x="497" 
d="M241 183q-28 0 -49 14.5t-30.5 38t-5.5 50.5q5 26 21 47.5t39.5 34t49.5 12.5q28 0 49 -14t31.5 -37t5.5 -51q-4 -25 -21 -47t-40.5 -35t-49.5 -13z" />
    <glyph glyph-name="ellipsis" unicode="&#x2026;" horiz-adv-x="576" 
d="M56 -14q-13 0 -23.5 7t-15.5 18.5t-3 24.5q3 17 17.5 29.5t31.5 12.5q14 0 24 -7t15 -18t3 -25q-3 -17 -17.5 -29.5t-31.5 -12.5zM248 -14q-13 0 -23.5 7t-15.5 18.5t-3 24.5q3 17 17.5 29.5t31.5 12.5q14 0 24 -7t15 -18t3 -25q-3 -17 -17.5 -29.5t-31.5 -12.5zM440 -14
q-13 0 -23.5 7t-15.5 18.5t-3 24.5q3 17 17.5 29.5t31.5 12.5q14 0 24 -7t15 -18t3 -25q-3 -17 -17.5 -29.5t-31.5 -12.5z" />
    <glyph glyph-name="guilsinglleft" unicode="&#x2039;" horiz-adv-x="345" 
d="M58 298l191 202h78l-191 -202h-78zM183 96l-123 202h74l123 -202h-74z" />
    <glyph glyph-name="guilsinglright" unicode="&#x203a;" horiz-adv-x="345" 
d="M303 298l-191 -202h-78l191 202h78zM178 500l123 -202h-74l-123 202h74z" />
    <glyph glyph-name="fraction" unicode="&#x2044;" horiz-adv-x="216" 
d="M-170 0l481 700h75l-481 -700h-75z" />
    <glyph glyph-name="uni2070" unicode="&#x2070;" horiz-adv-x="407" 
d="M228 373q-52 0 -86 29.5t-46.5 79.5t-2.5 112q11 63 39.5 111t70 75t89.5 27q49 0 83.5 -27.5t49 -77t3.5 -116.5q-10 -62 -39.5 -110.5t-71 -75.5t-89.5 -27zM230 430q48 0 87 46.5t51 119.5q11 68 -10.5 111.5t-66.5 43.5q-47 0 -86 -45.5t-52 -121.5
q-11 -67 11 -110.5t66 -43.5z" />
    <glyph glyph-name="uni2074" unicode="&#x2074;" horiz-adv-x="391" 
d="M124 497l-43 27l236 276l33 -35zM73 474l8 50l38 5h298l-9 -55h-335zM251 380l65 383l1 37h65l-71 -420h-60z" />
    <glyph glyph-name="uni2075" unicode="&#x2075;" horiz-adv-x="369" 
d="M213 373q-27 0 -54 8.5t-48 26t-31 43.5l56 20q14 -23 34 -33.5t42 -10.5q39 0 67.5 24t35.5 64q6 35 -12.5 57t-53.5 22q-21 0 -42.5 -9.5t-35.5 -23.5l-55 14l60 225h229l-9 -57h-223l3 55h62l-65 -227l-41 5q13 16 33.5 31.5t46.5 26t54 10.5q54 0 88 -36t23 -101
q-6 -39 -29.5 -69.5t-58.5 -47.5t-76 -17z" />
    <glyph glyph-name="uni2076" unicode="&#x2076;" horiz-adv-x="354" 
d="M212 373q-59 0 -89 29t-36.5 75.5t2.5 100.5q12 69 38.5 120.5t67.5 80t93 28.5q33 0 64 -10t53 -28l-38 -43q-17 14 -38 20t-38 6q-55 0 -95 -48.5t-53 -146.5l-12 14q20 35 53 55t73 20q41 0 70 -18.5t42.5 -50t6.5 -72.5q-10 -58 -55 -95t-109 -37zM213 427
q38 0 67 24.5t35 62.5q6 35 -12.5 57.5t-53.5 22.5q-37 0 -66 -25t-36 -63q-6 -35 13 -57t53 -22z" />
    <glyph glyph-name="uni2077" unicode="&#x2077;" horiz-adv-x="338" 
d="M81 380l257 375l63 -4l-249 -371h-71zM114 743l9 57h286l-8 -49l-57 -8h-230z" />
    <glyph glyph-name="uni2078" unicode="&#x2078;" horiz-adv-x="392" 
d="M221 373q-72 0 -109.5 33.5t-28.5 86.5t54.5 86.5t115.5 33.5q76 0 111 -37t26 -90q-8 -49 -53 -81t-116 -32zM222 426q41 0 71.5 21t35.5 54q5 30 -16 49t-59 19q-40 0 -71 -21t-36 -55q-5 -30 16 -48.5t59 -18.5zM254 623q38 0 63.5 19t30.5 50q5 28 -13 45.5t-50 17.5
q-37 0 -63 -20.5t-31 -54.5q-4 -25 14.5 -41t48.5 -16zM256 582q-65 0 -98.5 32t-25.5 83q8 49 50 79.5t103 30.5q66 0 99.5 -33t24.5 -87q-7 -45 -49 -75t-104 -30z" />
    <glyph glyph-name="uni2079" unicode="&#x2079;" horiz-adv-x="353" 
d="M179 373q-33 0 -63 10t-53 28l38 43q17 -13 38 -19.5t37 -6.5q58 0 97 48.5t52 146.5l12 -14q-20 -35 -53.5 -55t-73.5 -20q-41 0 -70 18.5t-42 50.5t-6 73q10 58 55 94.5t108 36.5q59 0 88.5 -28t37 -74t-1.5 -101q-11 -69 -38 -121t-67.5 -81t-94.5 -29zM218 586
q38 0 67 25t36 64q5 32 -13 55t-54 23q-37 0 -66 -24t-35 -61q-6 -34 11 -58t54 -24z" />
    <glyph glyph-name="uni2080" unicode="&#x2080;" horiz-adv-x="407" 
d="M147 -106q-52 0 -86 29.5t-46.5 79.5t-2.5 112q11 63 39.5 111t70 75t89.5 27q49 0 83.5 -27.5t49 -77t3.5 -116.5q-10 -62 -39.5 -110.5t-71 -75.5t-89.5 -27zM149 -49q48 0 87 46.5t51 119.5q11 68 -10.5 111.5t-66.5 43.5q-47 0 -86 -45.5t-52 -121.5
q-11 -67 11 -110.5t66 -43.5z" />
    <glyph glyph-name="uni2081" unicode="&#x2081;" horiz-adv-x="283" 
d="M78 -100l65 387l11 33h56l-71 -420h-61zM37 203l9 56q13 0 32.5 9t39.5 23t35 29l35 -42q-43 -37 -79.5 -56.5t-71.5 -18.5z" />
    <glyph glyph-name="uni2082" unicode="&#x2082;" horiz-adv-x="359" 
d="M45 -77l-57 27q5 30 28.5 60t63.5 56l88 58q26 17 46 40t22 43q4 27 -13 45.5t-49 18.5q-33 0 -58.5 -19t-37.5 -45l-62 16q17 42 59.5 73t97.5 31q66 0 100.5 -36t25.5 -90q-6 -36 -29 -65t-63 -56l-82 -54q-19 -13 -36 -28.5t-28.5 -33.5t-15.5 -41zM-21 -100l9 50
l47 6h228l-9 -56h-275z" />
    <glyph glyph-name="uni2083" unicode="&#x2083;" horiz-adv-x="329" 
d="M108 -106q-52 0 -83.5 22.5t-40.5 54.5l57 20q6 -11 13.5 -21t20 -15.5t30.5 -5.5q40 0 67 22.5t31 56.5q5 32 -19.5 50.5t-77.5 18.5h-19l8 46h13q49 0 86.5 -15.5t56.5 -44.5t12 -70q-6 -37 -29 -63.5t-56 -41t-70 -14.5zM89 105l7 45h14q47 0 79 16.5t36 49.5
q3 21 -12 39t-48 18q-22 0 -42.5 -10t-37.5 -32l-50 26q14 23 35.5 39t47.5 24t52 8q39 0 67 -15t42 -41t8 -59q-6 -35 -32 -59.5t-65 -36.5t-85 -12h-16z" />
    <glyph glyph-name="uni2084" unicode="&#x2084;" horiz-adv-x="391" 
d="M43 17l-43 27l236 276l33 -35zM-8 -6l8 50l38 5h298l-9 -55h-335zM170 -100l65 383l1 37h65l-71 -420h-60z" />
    <glyph glyph-name="uni2085" unicode="&#x2085;" horiz-adv-x="369" 
d="M132 -106q-27 0 -54 8.5t-48 26t-31 43.5l56 20q14 -23 34 -33.5t42 -10.5q39 0 67.5 24t35.5 64q6 35 -12.5 57t-53.5 22q-21 0 -42.5 -9.5t-35.5 -23.5l-55 14l60 225h229l-9 -57h-223l3 55h62l-65 -227l-41 5q13 16 33.5 31.5t46.5 26t54 10.5q54 0 88 -36t23 -101
q-6 -39 -29.5 -69.5t-58.5 -47.5t-76 -17z" />
    <glyph glyph-name="uni2086" unicode="&#x2086;" horiz-adv-x="354" 
d="M131 -106q-59 0 -89 29t-36.5 75.5t2.5 100.5q12 69 38.5 120.5t67.5 80t93 28.5q33 0 64 -10t53 -28l-38 -43q-17 14 -38 20t-38 6q-55 0 -95 -48.5t-53 -146.5l-12 14q20 35 53 55t73 20q41 0 70 -18.5t42.5 -50t6.5 -72.5q-10 -58 -55 -95t-109 -37zM132 -52
q38 0 67 24.5t35 62.5q6 35 -12.5 57.5t-53.5 22.5q-37 0 -66 -25t-36 -63q-6 -35 13 -57t53 -22z" />
    <glyph glyph-name="uni2087" unicode="&#x2087;" horiz-adv-x="338" 
d="M0 -100l257 375l63 -4l-249 -371h-71zM33 263l9 57h286l-8 -49l-57 -8h-230z" />
    <glyph glyph-name="uni2088" unicode="&#x2088;" horiz-adv-x="392" 
d="M140 -106q-72 0 -109.5 33.5t-28.5 86.5t54.5 86.5t115.5 33.5q76 0 111 -37t26 -90q-8 -49 -53 -81t-116 -32zM141 -53q41 0 71.5 21t35.5 54q5 30 -16 49t-59 19q-40 0 -71 -21t-36 -55q-5 -30 16 -48.5t59 -18.5zM173 144q38 0 63.5 19t30.5 50q5 28 -13 45.5
t-50 17.5q-37 0 -63 -20.5t-31 -54.5q-4 -25 14.5 -41t48.5 -16zM175 103q-65 0 -98.5 32t-25.5 83q8 49 50 79.5t103 30.5q66 0 99.5 -33t24.5 -87q-7 -45 -49 -75t-104 -30z" />
    <glyph glyph-name="uni2089" unicode="&#x2089;" horiz-adv-x="353" 
d="M98 -106q-33 0 -63 10t-53 28l38 43q17 -13 38 -19.5t37 -6.5q58 0 97 48.5t52 146.5l12 -14q-20 -35 -53.5 -55t-73.5 -20q-41 0 -70 18.5t-42 50.5t-6 73q10 58 55 94.5t108 36.5q59 0 88.5 -28t37 -74t-1.5 -101q-11 -69 -38 -121t-67.5 -81t-94.5 -29zM137 107
q38 0 67 25t36 64q5 32 -13 55t-54 23q-37 0 -66 -24t-35 -61q-6 -34 11 -58t54 -24z" />
    <glyph glyph-name="Euro" unicode="&#x20ac;" horiz-adv-x="650" 
d="M335 -12q-81 0 -136 47t-76.5 129.5t-4.5 189.5q18 105 65.5 186t115.5 126.5t146 45.5q49 0 92 -22t74 -61t43 -89l-58 -29q-13 64 -56 103.5t-96 39.5q-61 0 -115.5 -39.5t-93.5 -109t-54 -159.5q-15 -88 0 -156t55 -106t101 -38q38 0 77 20.5t74 56.5t58 82l50 -37
q-30 -53 -73.5 -94t-92 -63.5t-95.5 -22.5zM21 258l9 52h429l-9 -52h-429zM43 390l9 52h429l-9 -52h-429z" />
    <glyph glyph-name="trademark" unicode="&#x2122;" horiz-adv-x="848" 
d="M395 280l70 420h66l104 -202l169 202h67l-70 -420h-62l53 318l-174 -206l-107 208l-53 -320h-63zM143 280l60 363h-130l9 57h324l-9 -57h-132l-60 -363h-62z" />
    <glyph glyph-name="oneeighth" unicode="&#x215b;" horiz-adv-x="891" 
d="M142 280l65 387l11 33h56l-71 -420h-61zM101 583l9 56q13 0 32.5 9t39.5 23t35 29l35 -42q-43 -37 -79.5 -56.5t-71.5 -18.5zM113 0l481 700h75l-481 -700h-75zM656 -6q-72 0 -109.5 33.5t-28.5 86.5t54.5 86.5t115.5 33.5q76 0 111 -37t26 -90q-8 -49 -53 -81t-116 -32z
M657 47q41 0 71.5 21t35.5 54q5 30 -16 49t-59 19q-40 0 -71 -21t-36 -55q-5 -30 16 -48.5t59 -18.5zM689 244q38 0 63.5 19t30.5 50q5 28 -13 45.5t-50 17.5q-37 0 -63 -20.5t-31 -54.5q-4 -25 14.5 -41t48.5 -16zM691 203q-65 0 -98.5 32t-25.5 83q8 49 50 79.5t103 30.5
q66 0 99.5 -33t24.5 -87q-7 -45 -49 -75t-104 -30z" />
    <glyph glyph-name="threeeighths" unicode="&#x215c;" horiz-adv-x="937" 
d="M172 273q-52 0 -83.5 22.5t-40.5 54.5l57 20q6 -11 13.5 -21t20 -15.5t30.5 -5.5q40 0 67 22.5t31 56.5q5 32 -19.5 50.5t-77.5 18.5h-19l8 46h13q49 0 86.5 -15.5t56.5 -44.5t12 -70q-6 -37 -29 -63.5t-56 -41t-70 -14.5zM153 484l7 45h14q47 0 79 16.5t36 49.5
q3 21 -12 39t-48 18q-22 0 -42.5 -10t-37.5 -32l-50 26q14 23 35.5 39t47.5 24t52 8q39 0 67 -15t42 -41t8 -59q-6 -35 -32 -59.5t-65 -36.5t-85 -12h-16zM159 0l481 700h75l-481 -700h-75zM702 -6q-72 0 -109.5 33.5t-28.5 86.5t54.5 86.5t115.5 33.5q76 0 111 -37t26 -90
q-8 -49 -53 -81t-116 -32zM703 47q41 0 71.5 21t35.5 54q5 30 -16 49t-59 19q-40 0 -71 -21t-36 -55q-5 -30 16 -48.5t59 -18.5zM735 244q38 0 63.5 19t30.5 50q5 28 -13 45.5t-50 17.5q-37 0 -63 -20.5t-31 -54.5q-4 -25 14.5 -41t48.5 -16zM737 203q-65 0 -98.5 32
t-25.5 83q8 49 50 79.5t103 30.5q66 0 99.5 -33t24.5 -87q-7 -45 -49 -75t-104 -30z" />
    <glyph glyph-name="fiveeighths" unicode="&#x215d;" horiz-adv-x="977" 
d="M196 273q-27 0 -54 8.5t-48 26t-31 43.5l56 20q14 -23 34 -33.5t42 -10.5q39 0 67.5 24t35.5 64q6 35 -12.5 57t-53.5 22q-21 0 -42.5 -9.5t-35.5 -23.5l-55 14l60 225h229l-9 -57h-223l3 55h62l-65 -227l-41 5q13 16 33.5 31.5t46.5 26t54 10.5q54 0 88 -36t23 -101
q-6 -39 -29.5 -69.5t-58.5 -47.5t-76 -17zM199 0l481 700h75l-481 -700h-75zM742 -6q-72 0 -109.5 33.5t-28.5 86.5t54.5 86.5t115.5 33.5q76 0 111 -37t26 -90q-8 -49 -53 -81t-116 -32zM743 47q41 0 71.5 21t35.5 54q5 30 -16 49t-59 19q-40 0 -71 -21t-36 -55
q-5 -30 16 -48.5t59 -18.5zM775 244q38 0 63.5 19t30.5 50q5 28 -13 45.5t-50 17.5q-37 0 -63 -20.5t-31 -54.5q-4 -25 14.5 -41t48.5 -16zM777 203q-65 0 -98.5 32t-25.5 83q8 49 50 79.5t103 30.5q66 0 99.5 -33t24.5 -87q-7 -45 -49 -75t-104 -30z" />
    <glyph glyph-name="seveneighths" unicode="&#x215e;" horiz-adv-x="906" 
d="M64 280l257 375l63 -4l-249 -371h-71zM97 643l9 57h286l-8 -49l-57 -8h-230zM128 0l481 700h75l-481 -700h-75zM671 -6q-72 0 -109.5 33.5t-28.5 86.5t54.5 86.5t115.5 33.5q76 0 111 -37t26 -90q-8 -49 -53 -81t-116 -32zM672 47q41 0 71.5 21t35.5 54q5 30 -16 49
t-59 19q-40 0 -71 -21t-36 -55q-5 -30 16 -48.5t59 -18.5zM704 244q38 0 63.5 19t30.5 50q5 28 -13 45.5t-50 17.5q-37 0 -63 -20.5t-31 -54.5q-4 -25 14.5 -41t48.5 -16zM706 203q-65 0 -98.5 32t-25.5 83q8 49 50 79.5t103 30.5q66 0 99.5 -33t24.5 -87q-7 -45 -49 -75
t-104 -30z" />
    <glyph glyph-name="arrowleft" unicode="&#x2190;" horiz-adv-x="740" 
d="M132 326l243 -238l-40 -44l-267 254zM417 551l28 -44l-321 -238l-56 29zM683 326l-10 -57h-550l10 57h550z" />
    <glyph glyph-name="arrowup" unicode="&#x2191;" horiz-adv-x="687" 
d="M155 370l-39 34l304 308l19 -60zM574 370l-192 282l38 60l203 -308zM273 0l109 652h57l-109 -652h-57z" />
    <glyph glyph-name="arrowright" unicode="&#x2192;" horiz-adv-x="740" 
d="M624 269l-243 238l40 44l267 -254zM339 44l-28 44l321 238l56 -29zM73 269l10 57h550l-10 -57h-550z" />
    <glyph glyph-name="arrowdown" unicode="&#x2193;" horiz-adv-x="687" 
d="M566 330l39 -34l-304 -308l-19 60zM147 330l192 -282l-38 -60l-203 308zM448 700l-109 -652h-57l109 652h57z" />
    <glyph glyph-name="uni2196" unicode="&#x2196;" horiz-adv-x="724" 
d="M573 177l-385 461l45 40l385 -461zM560 640h-366l-18 60h394zM169 305h-60l66 395l55 -27z" />
    <glyph glyph-name="uni2197" unicode="&#x2197;" horiz-adv-x="724" 
d="M129 177l-35 40l537 461l35 -40zM294 640l10 60h395l-37 -60h-368zM573 305l61 368l65 27l-66 -395h-60z" />
    <glyph glyph-name="uni2198" unicode="&#x2198;" horiz-adv-x="723" 
d="M139 484l45 40l386 -461l-46 -40zM587 395h60l-67 -395l-54 28zM196 60h368l16 -60h-394z" />
    <glyph glyph-name="uni2199" unicode="&#x2199;" horiz-adv-x="724" 
d="M126 22l-35 40l537 461l35 -40zM58 0l66 395h60l-61 -368zM58 0l37 60h368l-10 -60h-395z" />
    <glyph glyph-name="minus" unicode="&#x2212;" horiz-adv-x="620" 
d="M123 269l10 57h380l-10 -57h-380z" />
    <glyph glyph-name="uni2215" unicode="&#x2215;" horiz-adv-x="620" 
d="M-8 0l600 700h69l-599 -700h-70z" />
    <glyph glyph-name="notequal" unicode="&#x2260;" horiz-adv-x="620" 
d="M139 70l332 512h65l-331 -512h-66zM135 399l9 57h400l-9 -57h-400zM101 199l10 57h400l-10 -57h-400z" />
    <glyph glyph-name="lessequal" unicode="&#x2264;" horiz-adv-x="620" 
d="M97 0l9 51h331l-9 -51h-331zM510 489l-12 -67l-356 -156l10 64zM152 328l304 -161l-10 -58l-304 157z" />
    <glyph glyph-name="greaterequal" unicode="&#x2265;" horiz-adv-x="620" 
d="M108 0l9 51h331l-9 -51h-331zM126 107l12 67l356 156l-10 -64zM484 268l-304 161l10 58l304 -157z" />
    <glyph glyph-name="uni004A0301" horiz-adv-x="500" 
d="M144 -11q-32 0 -58 8t-46 22.5t-34.5 34.5t-24.5 43l49 31q11 -23 26.5 -41.5t38 -29t51.5 -10.5q39 0 80.5 19t74 62.5t44.5 115.5l76 456h64l-82 -490q-9 -57 -35.5 -98.5t-64 -68.5t-79 -40.5t-80.5 -13.5zM398 744l140 126h86l-149 -126h-77z" />
    <glyph glyph-name="I.ss02" horiz-adv-x="364" 
d="M8 0l10 58h100l98 584h-100l9 58h264l-9 -58h-100l-98 -584h100l-10 -58h-264z" />
    <glyph glyph-name="IJ.ss02" horiz-adv-x="864" 
d="M8 0l10 58h100l98 584h-100l9 58h264l-9 -58h-100l-98 -584h100l-10 -58h-264zM508 -11q-32 0 -58 8t-46 22.5t-34.5 34.5t-24.5 43l49 31q11 -23 26.5 -41.5t38 -29t51.5 -10.5q39 0 80.5 19t74 62.5t44.5 115.5l76 456h64l-82 -490q-9 -57 -35.5 -98.5t-64 -68.5
t-79 -40.5t-80.5 -13.5z" />
    <glyph glyph-name="Iacute.ss02" horiz-adv-x="364" 
d="M8 0l10 58h100l98 584h-100l9 58h264l-9 -58h-100l-98 -584h100l-10 -58h-264zM203 740l140 120h86l-149 -120h-77z" />
    <glyph glyph-name="Icircumflex.ss02" horiz-adv-x="364" 
d="M8 0l10 58h100l98 584h-100l9 58h264l-9 -58h-100l-98 -584h100l-10 -58h-264zM103 756l141 126h81v-1l-137 -125h-85zM353 756l-99 126h2h70l99 -126h-72z" />
    <glyph glyph-name="Idieresis.ss02" horiz-adv-x="364" 
d="M342 800q-16 0 -28 12t-12 28q0 17 12 28.5t28 11.5q17 0 28.5 -11.5t11.5 -28.5q0 -16 -11.5 -28t-28.5 -12zM221 800q-16 0 -28 12t-12 28q0 17 12 28.5t28 11.5q17 0 28.5 -11.5t11.5 -28.5q0 -16 -11.5 -28t-28.5 -12zM8 0l10 58h100l98 584h-100l9 58h264l-9 -58
h-100l-98 -584h100l-10 -58h-264z" />
    <glyph glyph-name="Idotaccent.ss02" horiz-adv-x="364" 
d="M8 0l10 58h100l98 584h-100l9 58h264l-9 -58h-100l-98 -584h100l-10 -58h-264zM282 800q-16 0 -28 12t-12 28q0 17 12 28.5t28 11.5q17 0 28.5 -11.5t11.5 -28.5q0 -16 -11.5 -28t-28.5 -12z" />
    <glyph glyph-name="Igrave.ss02" horiz-adv-x="364" 
d="M8 0l10 58h100l98 584h-100l9 58h264l-9 -58h-100l-98 -584h100l-10 -58h-264zM291 744l-88 126h83l77 -126h-72z" />
    <glyph glyph-name="Imacron.ss02" horiz-adv-x="364" 
d="M8 0l10 58h100l98 584h-100l9 58h264l-9 -58h-100l-98 -584h100l-10 -58h-264zM116 750l10 57h300l-10 -57h-300z" />
    <glyph glyph-name="Iogonek.ss02" horiz-adv-x="364" 
d="M8 0l10 58h100l98 584h-100l9 58h264l-9 -58h-100l-98 -584h100l-10 -58h-264zM131 -212q-52 0 -77 23.5t-18 68.5q4 24 22.5 47t46 44.5t58.5 41.5l51 -13q-26 -17 -52 -37t-44.5 -42.5t-22.5 -48.5q-5 -29 31 -29q20 0 36.5 5t20.5 7l15 -48q-14 -9 -31.5 -14t-35.5 -5
z" />
    <glyph glyph-name="i.loclTRK" horiz-adv-x="221" 
d="M37 0l86 500h60l-86 -500h-60zM181 630q-16 0 -28 12t-12 28q0 17 12 28.5t28 11.5q17 0 28.5 -11.5t11.5 -28.5q0 -16 -11.5 -28t-28.5 -12z" />
    <glyph glyph-name="uni006A0301" horiz-adv-x="248" 
d="M-37 -215q-17 0 -38.5 6.5t-48.5 18.5l27 49q48 -19 66 -19q80 0 97 99l94 561h60l-95 -565q-13 -76 -52.5 -113t-109.5 -37zM140 574l140 126h86l-149 -126h-77z" />
    <glyph glyph-name="a.ss01" 
d="M409 0l13 93l68 407h60l-84 -500h-57zM232 -12q-56 0 -99 26.5t-67.5 73.5t-24.5 108q0 59 19.5 115.5t55.5 101.5t85.5 72t110.5 27q56 0 96 -25.5t62 -71.5t22 -107q0 -80 -22.5 -140t-60.5 -100t-84 -60t-93 -20zM245 42q49 0 87.5 23t65.5 61.5t41 84.5t14 92
q0 70 -35 112.5t-96 42.5q-50 0 -90.5 -22.5t-70 -60t-45 -83t-15.5 -92.5q0 -70 39 -114t105 -44z" />
    <glyph glyph-name="aacute.ss01" 
d="M409 0l13 93l68 407h60l-84 -500h-57zM232 -12q-56 0 -99 26.5t-67.5 73.5t-24.5 108q0 59 19.5 115.5t55.5 101.5t85.5 72t110.5 27q56 0 96 -25.5t62 -71.5t22 -107q0 -80 -22.5 -140t-60.5 -100t-84 -60t-93 -20zM245 42q49 0 87.5 23t65.5 61.5t41 84.5t14 92
q0 70 -35 112.5t-96 42.5q-50 0 -90.5 -22.5t-70 -60t-45 -83t-15.5 -92.5q0 -70 39 -114t105 -44zM262 574l140 126h86l-149 -126h-77z" />
    <glyph glyph-name="abreve.ss01" 
d="M409 0l13 93l68 407h60l-84 -500h-57zM232 -12q-56 0 -99 26.5t-67.5 73.5t-24.5 108q0 59 19.5 115.5t55.5 101.5t85.5 72t110.5 27q56 0 96 -25.5t62 -71.5t22 -107q0 -80 -22.5 -140t-60.5 -100t-84 -60t-93 -20zM245 42q49 0 87.5 23t65.5 61.5t41 84.5t14 92
q0 70 -35 112.5t-96 42.5q-50 0 -90.5 -22.5t-70 -60t-45 -83t-15.5 -92.5q0 -70 39 -114t105 -44zM327 569q-48 0 -83 17t-51 46.5t-10 67.5h61q-5 -34 18.5 -55.5t65.5 -21.5q46 0 78.5 22t38.5 55h62q-6 -39 -31.5 -68.5t-63.5 -46t-85 -16.5z" />
    <glyph glyph-name="uni01CE.ss01" 
d="M409 0l13 93l68 407h60l-84 -500h-57zM232 -12q-56 0 -99 26.5t-67.5 73.5t-24.5 108q0 59 19.5 115.5t55.5 101.5t85.5 72t110.5 27q56 0 96 -25.5t62 -71.5t22 -107q0 -80 -22.5 -140t-60.5 -100t-84 -60t-93 -20zM245 42q49 0 87.5 23t65.5 61.5t41 84.5t14 92
q0 70 -35 112.5t-96 42.5q-50 0 -90.5 -22.5t-70 -60t-45 -83t-15.5 -92.5q0 -70 39 -114t105 -44zM283 574v1l137 125h85l-141 -126h-81zM282 574l-99 126h72l99 -126h-2h-70z" />
    <glyph glyph-name="acircumflex.ss01" 
d="M409 0l13 93l68 407h60l-84 -500h-57zM232 -12q-56 0 -99 26.5t-67.5 73.5t-24.5 108q0 59 19.5 115.5t55.5 101.5t85.5 72t110.5 27q56 0 96 -25.5t62 -71.5t22 -107q0 -80 -22.5 -140t-60.5 -100t-84 -60t-93 -20zM245 42q49 0 87.5 23t65.5 61.5t41 84.5t14 92
q0 70 -35 112.5t-96 42.5q-50 0 -90.5 -22.5t-70 -60t-45 -83t-15.5 -92.5q0 -70 39 -114t105 -44zM162 586l141 126h81v-1l-137 -125h-85zM412 586l-99 126h2h70l99 -126h-72z" />
    <glyph glyph-name="adieresis.ss01" 
d="M409 0l13 93l68 407h60l-84 -500h-57zM232 -12q-56 0 -99 26.5t-67.5 73.5t-24.5 108q0 59 19.5 115.5t55.5 101.5t85.5 72t110.5 27q56 0 96 -25.5t62 -71.5t22 -107q0 -80 -22.5 -140t-60.5 -100t-84 -60t-93 -20zM245 42q49 0 87.5 23t65.5 61.5t41 84.5t14 92
q0 70 -35 112.5t-96 42.5q-50 0 -90.5 -22.5t-70 -60t-45 -83t-15.5 -92.5q0 -70 39 -114t105 -44zM219 630q-16 0 -28 12t-12 28q0 17 12 28.5t28 11.5q17 0 28.5 -11.5t11.5 -28.5q0 -16 -11.5 -28t-28.5 -12zM461 630q-16 0 -28 12t-12 28q0 17 12 28.5t28 11.5
q17 0 28.5 -11.5t11.5 -28.5q0 -16 -11.5 -28t-28.5 -12z" />
    <glyph glyph-name="agrave.ss01" 
d="M409 0l13 93l68 407h60l-84 -500h-57zM232 -12q-56 0 -99 26.5t-67.5 73.5t-24.5 108q0 59 19.5 115.5t55.5 101.5t85.5 72t110.5 27q56 0 96 -25.5t62 -71.5t22 -107q0 -80 -22.5 -140t-60.5 -100t-84 -60t-93 -20zM245 42q49 0 87.5 23t65.5 61.5t41 84.5t14 92
q0 70 -35 112.5t-96 42.5q-50 0 -90.5 -22.5t-70 -60t-45 -83t-15.5 -92.5q0 -70 39 -114t105 -44zM350 574l-88 126h83l77 -126h-72z" />
    <glyph glyph-name="amacron.ss01" 
d="M409 0l13 93l68 407h60l-84 -500h-57zM232 -12q-56 0 -99 26.5t-67.5 73.5t-24.5 108q0 59 19.5 115.5t55.5 101.5t85.5 72t110.5 27q56 0 96 -25.5t62 -71.5t22 -107q0 -80 -22.5 -140t-60.5 -100t-84 -60t-93 -20zM245 42q49 0 87.5 23t65.5 61.5t41 84.5t14 92
q0 70 -35 112.5t-96 42.5q-50 0 -90.5 -22.5t-70 -60t-45 -83t-15.5 -92.5q0 -70 39 -114t105 -44zM175 580l10 57h300l-10 -57h-300z" />
    <glyph glyph-name="aogonek.ss01" 
d="M409 0l13 93l68 407h60l-84 -500h-57zM232 -12q-56 0 -99 26.5t-67.5 73.5t-24.5 108q0 59 19.5 115.5t55.5 101.5t85.5 72t110.5 27q56 0 96 -25.5t62 -71.5t22 -107q0 -80 -22.5 -140t-60.5 -100t-84 -60t-93 -20zM245 42q49 0 87.5 23t65.5 61.5t41 84.5t14 92
q0 70 -35 112.5t-96 42.5q-50 0 -90.5 -22.5t-70 -60t-45 -83t-15.5 -92.5q0 -70 39 -114t105 -44zM383 -212q-52 0 -77 23.5t-18 68.5q4 24 22.5 47t46 44.5t58.5 41.5l51 -13q-26 -17 -52 -37t-44.5 -42.5t-22.5 -48.5q-5 -29 31 -29q20 0 36.5 5t20.5 7l15 -48
q-14 -9 -31.5 -14t-35.5 -5z" />
    <glyph glyph-name="aring.ss01" 
d="M409 0l13 93l68 407h60l-84 -500h-57zM232 -12q-56 0 -99 26.5t-67.5 73.5t-24.5 108q0 59 19.5 115.5t55.5 101.5t85.5 72t110.5 27q56 0 96 -25.5t62 -71.5t22 -107q0 -80 -22.5 -140t-60.5 -100t-84 -60t-93 -20zM245 42q49 0 87.5 23t65.5 61.5t41 84.5t14 92
q0 70 -35 112.5t-96 42.5q-50 0 -90.5 -22.5t-70 -60t-45 -83t-15.5 -92.5q0 -70 39 -114t105 -44zM325 564q-34 0 -55.5 22t-21.5 53q0 26 12.5 47.5t35.5 35t53 13.5q33 0 54 -21.5t21 -53.5q0 -28 -12.5 -49.5t-35 -34t-51.5 -12.5zM329 610q20 0 33 13.5t13 38.5
q0 27 -30 27q-21 0 -34 -13.5t-13 -36.5q0 -13 8.5 -21t22.5 -8z" />
    <glyph glyph-name="atilde.ss01" 
d="M409 0l13 93l68 407h60l-84 -500h-57zM232 -12q-56 0 -99 26.5t-67.5 73.5t-24.5 108q0 59 19.5 115.5t55.5 101.5t85.5 72t110.5 27q56 0 96 -25.5t62 -71.5t22 -107q0 -80 -22.5 -140t-60.5 -100t-84 -60t-93 -20zM245 42q49 0 87.5 23t65.5 61.5t41 84.5t14 92
q0 70 -35 112.5t-96 42.5q-50 0 -90.5 -22.5t-70 -60t-45 -83t-15.5 -92.5q0 -70 39 -114t105 -44zM410 572q-25 0 -40.5 11t-25.5 25t-19 25t-23 11q-18 0 -29 -9t-18 -28h-54q5 34 32 63.5t76 29.5q25 0 40 -11t24 -25t18 -25t22 -11q19 0 30 9.5t17 28.5h54
q-10 -34 -33.5 -64t-70.5 -30z" />
    <glyph glyph-name="l.ss02" horiz-adv-x="284" 
d="M162 -12q-61 0 -89.5 37.5t-17.5 104.5l95 570h60l-96 -574q-7 -40 6 -61.5t43 -21.5q14 0 26 4t37 19l20 -54q-30 -16 -48.5 -20t-35.5 -4z" />
    <glyph glyph-name="lacute.ss02" horiz-adv-x="284" 
d="M162 -12q-61 0 -89.5 37.5t-17.5 104.5l95 570h60l-96 -574q-7 -40 6 -61.5t43 -21.5q14 0 26 4t37 19l20 -54q-30 -16 -48.5 -20t-35.5 -4zM125 744l140 126h86l-149 -126h-77z" />
    <glyph glyph-name="lcaron.ss02" horiz-adv-x="284" 
d="M162 -12q-61 0 -89.5 37.5t-17.5 104.5l95 570h60l-96 -574q-7 -40 6 -61.5t43 -21.5q14 0 26 4t37 19l20 -54q-30 -16 -48.5 -20t-35.5 -4zM206 527l84 172h72l-99 -172h-57z" />
    <glyph glyph-name="uni013C.ss02" horiz-adv-x="284" 
d="M162 -12q-61 0 -89.5 37.5t-17.5 104.5l95 570h60l-96 -574q-7 -40 6 -61.5t43 -21.5q14 0 26 4t37 19l20 -54q-30 -16 -48.5 -20t-35.5 -4zM49 -200l69 136h72l-84 -136h-57z" />
    <glyph glyph-name="lslash.ss02" horiz-adv-x="321" 
d="M24 269l9 58l259 115l-9 -58zM197 -12q-61 0 -89.5 37.5t-17.5 104.5l95 570h60l-96 -574q-7 -40 6 -61.5t43 -21.5q14 0 26 4t37 19l20 -54q-30 -16 -48.5 -20t-35.5 -4z" />
    <glyph glyph-name="zero.ss02" horiz-adv-x="638" 
d="M103 159l436 417l29 -47l-424 -404zM279 -12q-60 0 -105.5 27t-73.5 76t-37 116t4 147q18 105 65 186t114.5 126.5t145.5 45.5q60 0 105.5 -27t74 -76t37.5 -116t-5 -147q-17 -105 -64.5 -185.5t-115 -126.5t-145.5 -46zM281 46q61 0 114.5 39.5t92 109t53.5 159.5
q15 88 1 155.5t-53 106t-98 38.5q-61 0 -115 -39.5t-92.5 -109t-53.5 -159.5q-14 -88 0 -155.5t53 -106t98 -38.5z" />
    <glyph glyph-name="zero.tf" horiz-adv-x="620" 
d="M270 -12q-60 0 -105.5 27t-73.5 76t-37 116t4 147q18 105 65 186t114.5 126.5t145.5 45.5q60 0 105.5 -27t74 -76t37.5 -116t-5 -147q-17 -105 -64.5 -185.5t-115 -126.5t-145.5 -46zM272 46q61 0 114.5 39.5t92 109t53.5 159.5q15 88 1 155.5t-53 106t-98 38.5
q-61 0 -115 -39.5t-92.5 -109t-53.5 -159.5q-14 -88 0 -155.5t53 -106t98 -38.5z" />
    <glyph glyph-name="one.tf" horiz-adv-x="620" 
d="M98 0l10 57h379l-10 -57h-379zM255 0l113 666l10 34h60l-119 -700h-64zM186 536l9 58q19 0 51 15.5t67 40t63 51.5l35 -49q-58 -48 -115.5 -82t-109.5 -34z" />
    <glyph glyph-name="two.tf" horiz-adv-x="620" 
d="M133 55l-63 3q6 34 22.5 66.5t43.5 63t67 58.5l181 121q30 20 54 45.5t40 53t20 53.5q9 56 -24.5 95.5t-98.5 39.5q-46 0 -84 -17.5t-65 -45.5t-41 -59l-63 18q19 43 55.5 80t86.5 59.5t106 22.5q68 0 114 -26.5t66.5 -72t11.5 -102.5q-8 -49 -42.5 -97t-98.5 -95
l-173 -117q-33 -22 -57.5 -46.5t-38.5 -49.5t-19 -51zM60 0l10 58h49h377l-10 -58h-426z" />
    <glyph glyph-name="three.tf" horiz-adv-x="620" 
d="M260 -12q-48 0 -84 14.5t-60.5 36t-40.5 42.5l53 38q10 -15 25 -32t40.5 -29t64.5 -12q51 0 92.5 20.5t68.5 56t34 79.5q9 50 -13.5 83t-70 49.5t-115.5 16.5h-12l9 56h8q64 0 115 -14t85.5 -41.5t49.5 -67.5t6 -92q-10 -61 -46.5 -107t-91 -71.5t-117.5 -25.5zM242 351
l9 57h8q93 0 157 33t74 94q8 48 -25 83.5t-99 35.5q-45 0 -83 -18t-70 -48l-40 40q25 25 55.5 44t66 29.5t76.5 10.5q61 0 105 -25t65 -66.5t12 -92.5q-7 -42 -32.5 -75t-65 -55.5t-91 -34.5t-111.5 -12h-11z" />
    <glyph glyph-name="four.tf" horiz-adv-x="620" 
d="M93 197l-44 34l400 469l39 -37zM41 182l8 49l46 10h491l-9 -59h-536zM332 0l110 654l7 46h63l-117 -700h-63z" />
    <glyph glyph-name="five.tf" horiz-adv-x="620" 
d="M273 -12q-39 0 -79.5 11.5t-74.5 35.5t-55 63l49 37q33 -48 74.5 -69.5t87.5 -21.5q52 0 94.5 22t71.5 60.5t37 89.5q13 74 -24.5 119.5t-109.5 45.5q-42 0 -85 -17.5t-69 -43.5l-57 15l91 365h365l-9 -58h-365l9 56h64l-93 -363h-62q19 23 44 41.5t53 32t57.5 21
t57.5 7.5q68 0 115 -29.5t68.5 -81t10.5 -118.5q-11 -65 -48.5 -114.5t-94 -77.5t-123.5 -28z" />
    <glyph glyph-name="six.tf" horiz-adv-x="620" 
d="M288 -12q-74 0 -118.5 28t-65 77t-22 112t10.5 133q15 93 45.5 163t73 117t94 70.5t108.5 23.5q53 0 102 -17t84 -46l-44 -43q-28 23 -63 35.5t-70 12.5q-112 0 -186 -93.5t-97 -279.5l-12 21q35 63 94.5 99t132.5 36q60 0 105.5 -25.5t71 -67.5t25.5 -93t-19 -98
t-55 -84.5t-85.5 -59t-109.5 -21.5zM290 46q61 0 106.5 29.5t71 76t25.5 98.5q0 59 -38 94t-101 35q-50 0 -93 -21.5t-71.5 -60t-37.5 -88.5q-12 -73 26.5 -118t111.5 -45z" />
    <glyph glyph-name="seven.tf" horiz-adv-x="620" 
d="M79 0l481 672l51 -30l-459 -642h-73zM156 642l9 58h455l-9 -58h-37h-418z" />
    <glyph glyph-name="eight.tf" horiz-adv-x="620" 
d="M269 -12q-73 0 -125.5 25t-77 70t-15.5 103q10 59 48.5 103.5t97 69.5t130.5 25q74 0 126.5 -26.5t77 -72.5t14.5 -107q-9 -56 -47.5 -99t-97.5 -67t-131 -24zM271 46q55 0 100.5 18.5t75 51t36.5 74.5q11 62 -33 99.5t-124 37.5q-54 0 -99.5 -18.5t-75 -51t-36.5 -75.5
q-10 -61 33.5 -98.5t122.5 -37.5zM328 337q-65 0 -112 24t-68.5 66.5t-12.5 98.5q10 55 44 97t87 65.5t116 23.5q66 0 112.5 -24.5t68.5 -68.5t12 -101q-9 -54 -43.5 -94.5t-87 -63.5t-116.5 -23zM329 394q47 0 86 16t64.5 45t31.5 66q11 59 -25.5 96t-104.5 37
q-46 0 -85.5 -18t-65.5 -49.5t-33 -73.5q-9 -53 28 -86t104 -33z" />
    <glyph glyph-name="nine.tf" horiz-adv-x="620" 
d="M365 712q74 0 118.5 -28t65 -77t22 -112t-10.5 -133q-15 -93 -45.5 -163t-73 -117t-94 -70.5t-108.5 -23.5q-52 0 -101.5 17t-84.5 46l44 43q29 -23 64 -35.5t69 -12.5q113 0 186.5 93.5t96.5 279.5l12 -21q-34 -63 -94 -99t-133 -36q-60 0 -105.5 25.5t-71 68
t-25.5 92.5q0 51 19 98t55 84.5t85.5 59t109.5 21.5zM363 654q-60 0 -106 -29.5t-71.5 -76t-25.5 -98.5q0 -58 38 -93.5t101 -35.5q51 0 93.5 21.5t71.5 60t37 88.5q12 73 -26.5 118t-111.5 45z" />
    <glyph glyph-name="zero.tf.ss02" horiz-adv-x="620" 
d="M94 159l436 417l29 -47l-424 -404zM270 -12q-60 0 -105.5 27t-73.5 76t-37 116t4 147q18 105 65 186t114.5 126.5t145.5 45.5q60 0 105.5 -27t74 -76t37.5 -116t-5 -147q-17 -105 -64.5 -185.5t-115 -126.5t-145.5 -46zM272 46q61 0 114.5 39.5t92 109t53.5 159.5
q15 88 1 155.5t-53 106t-98 38.5q-61 0 -115 -39.5t-92.5 -109t-53.5 -159.5q-14 -88 0 -155.5t53 -106t98 -38.5z" />
    <glyph glyph-name="zero.dnom" horiz-adv-x="407" 
d="M164 -6q-52 0 -86 29.5t-46.5 79.5t-2.5 112q11 63 39.5 111t70 75t89.5 27q49 0 83.5 -27.5t49 -77t3.5 -116.5q-10 -62 -39.5 -110.5t-71 -75.5t-89.5 -27zM166 51q48 0 87 46.5t51 119.5q11 68 -10.5 111.5t-66.5 43.5q-47 0 -86 -45.5t-52 -121.5q-11 -67 11 -110.5
t66 -43.5z" />
    <glyph glyph-name="one.dnom" horiz-adv-x="283" 
d="M95 0l65 387l11 33h56l-71 -420h-61zM54 303l9 56q13 0 32.5 9t39.5 23t35 29l35 -42q-43 -37 -79.5 -56.5t-71.5 -18.5z" />
    <glyph glyph-name="two.dnom" horiz-adv-x="359" 
d="M62 23l-57 27q5 30 28.5 60t63.5 56l88 58q26 17 46 40t22 43q4 27 -13 45.5t-49 18.5q-33 0 -58.5 -19t-37.5 -45l-62 16q17 42 59.5 73t97.5 31q66 0 100.5 -36t25.5 -90q-6 -36 -29 -65t-63 -56l-82 -54q-19 -13 -36 -28.5t-28.5 -33.5t-15.5 -41zM-4 0l9 50l47 6h228
l-9 -56h-275z" />
    <glyph glyph-name="three.dnom" horiz-adv-x="329" 
d="M125 -6q-52 0 -83.5 22.5t-40.5 54.5l57 20q6 -11 13.5 -21t20 -15.5t30.5 -5.5q40 0 67 22.5t31 56.5q5 32 -19.5 50.5t-77.5 18.5h-19l8 46h13q49 0 86.5 -15.5t56.5 -44.5t12 -70q-6 -37 -29 -63.5t-56 -41t-70 -14.5zM106 205l7 45h14q47 0 79 16.5t36 49.5
q3 21 -12 39t-48 18q-22 0 -42.5 -10t-37.5 -32l-50 26q14 23 35.5 39t47.5 24t52 8q39 0 67 -15t42 -41t8 -59q-6 -35 -32 -59.5t-65 -36.5t-85 -12h-16z" />
    <glyph glyph-name="four.dnom" horiz-adv-x="391" 
d="M60 117l-43 27l236 276l33 -35zM9 94l8 50l38 5h298l-9 -55h-335zM187 0l65 383l1 37h65l-71 -420h-60z" />
    <glyph glyph-name="five.dnom" horiz-adv-x="369" 
d="M149 -6q-27 0 -54 8.5t-48 26t-31 43.5l56 20q14 -23 34 -33.5t42 -10.5q39 0 67.5 24t35.5 64q6 35 -12.5 57t-53.5 22q-21 0 -42.5 -9.5t-35.5 -23.5l-55 14l60 225h229l-9 -57h-223l3 55h62l-65 -227l-41 5q13 16 33.5 31.5t46.5 26t54 10.5q54 0 88 -36t23 -101
q-6 -39 -29.5 -69.5t-58.5 -47.5t-76 -17z" />
    <glyph glyph-name="six.dnom" horiz-adv-x="354" 
d="M148 -6q-59 0 -89 29t-36.5 75.5t2.5 100.5q12 69 38.5 120.5t67.5 80t93 28.5q33 0 64 -10t53 -28l-38 -43q-17 14 -38 20t-38 6q-55 0 -95 -48.5t-53 -146.5l-12 14q20 35 53 55t73 20q41 0 70 -18.5t42.5 -50t6.5 -72.5q-10 -58 -55 -95t-109 -37zM149 48
q38 0 67 24.5t35 62.5q6 35 -12.5 57.5t-53.5 22.5q-37 0 -66 -25t-36 -63q-6 -35 13 -57t53 -22z" />
    <glyph glyph-name="seven.dnom" horiz-adv-x="338" 
d="M17 0l257 375l63 -4l-249 -371h-71zM50 363l9 57h286l-8 -49l-57 -8h-230z" />
    <glyph glyph-name="eight.dnom" horiz-adv-x="392" 
d="M157 -6q-72 0 -109.5 33.5t-28.5 86.5t54.5 86.5t115.5 33.5q76 0 111 -37t26 -90q-8 -49 -53 -81t-116 -32zM158 47q41 0 71.5 21t35.5 54q5 30 -16 49t-59 19q-40 0 -71 -21t-36 -55q-5 -30 16 -48.5t59 -18.5zM190 244q38 0 63.5 19t30.5 50q5 28 -13 45.5t-50 17.5
q-37 0 -63 -20.5t-31 -54.5q-4 -25 14.5 -41t48.5 -16zM192 203q-65 0 -98.5 32t-25.5 83q8 49 50 79.5t103 30.5q66 0 99.5 -33t24.5 -87q-7 -45 -49 -75t-104 -30z" />
    <glyph glyph-name="nine.dnom" horiz-adv-x="353" 
d="M115 -6q-33 0 -63 10t-53 28l38 43q17 -13 38 -19.5t37 -6.5q58 0 97 48.5t52 146.5l12 -14q-20 -35 -53.5 -55t-73.5 -20q-41 0 -70 18.5t-42 50.5t-6 73q10 58 55 94.5t108 36.5q59 0 88.5 -28t37 -74t-1.5 -101q-11 -69 -38 -121t-67.5 -81t-94.5 -29zM154 207
q38 0 67 25t36 64q5 32 -13 55t-54 23q-37 0 -66 -24t-35 -61q-6 -34 11 -58t54 -24z" />
    <glyph glyph-name="zero.numr" horiz-adv-x="407" 
d="M211 273q-52 0 -86 29.5t-46.5 79.5t-2.5 112q11 63 39.5 111t70 75t89.5 27q49 0 83.5 -27.5t49 -77t3.5 -116.5q-10 -62 -39.5 -110.5t-71 -75.5t-89.5 -27zM213 330q48 0 87 46.5t51 119.5q11 68 -10.5 111.5t-66.5 43.5q-47 0 -86 -45.5t-52 -121.5
q-11 -67 11 -110.5t66 -43.5z" />
    <glyph glyph-name="one.numr" horiz-adv-x="283" 
d="M142 280l65 387l11 33h56l-71 -420h-61zM101 583l9 56q13 0 32.5 9t39.5 23t35 29l35 -42q-43 -37 -79.5 -56.5t-71.5 -18.5z" />
    <glyph glyph-name="two.numr" horiz-adv-x="359" 
d="M109 303l-57 27q5 30 28.5 60t63.5 56l88 58q26 17 46 40t22 43q4 27 -13 45.5t-49 18.5q-33 0 -58.5 -19t-37.5 -45l-62 16q17 42 59.5 73t97.5 31q66 0 100.5 -36t25.5 -90q-6 -36 -29 -65t-63 -56l-82 -54q-19 -13 -36 -28.5t-28.5 -33.5t-15.5 -41zM43 280l9 50l47 6
h228l-9 -56h-275z" />
    <glyph glyph-name="three.numr" horiz-adv-x="329" 
d="M172 273q-52 0 -83.5 22.5t-40.5 54.5l57 20q6 -11 13.5 -21t20 -15.5t30.5 -5.5q40 0 67 22.5t31 56.5q5 32 -19.5 50.5t-77.5 18.5h-19l8 46h13q49 0 86.5 -15.5t56.5 -44.5t12 -70q-6 -37 -29 -63.5t-56 -41t-70 -14.5zM153 484l7 45h14q47 0 79 16.5t36 49.5
q3 21 -12 39t-48 18q-22 0 -42.5 -10t-37.5 -32l-50 26q14 23 35.5 39t47.5 24t52 8q39 0 67 -15t42 -41t8 -59q-6 -35 -32 -59.5t-65 -36.5t-85 -12h-16z" />
    <glyph glyph-name="four.numr" horiz-adv-x="391" 
d="M107 397l-43 27l236 276l33 -35zM56 374l8 50l38 5h298l-9 -55h-335zM234 280l65 383l1 37h65l-71 -420h-60z" />
    <glyph glyph-name="five.numr" horiz-adv-x="369" 
d="M196 273q-27 0 -54 8.5t-48 26t-31 43.5l56 20q14 -23 34 -33.5t42 -10.5q39 0 67.5 24t35.5 64q6 35 -12.5 57t-53.5 22q-21 0 -42.5 -9.5t-35.5 -23.5l-55 14l60 225h229l-9 -57h-223l3 55h62l-65 -227l-41 5q13 16 33.5 31.5t46.5 26t54 10.5q54 0 88 -36t23 -101
q-6 -39 -29.5 -69.5t-58.5 -47.5t-76 -17z" />
    <glyph glyph-name="six.numr" horiz-adv-x="354" 
d="M195 273q-59 0 -89 29t-36.5 75.5t2.5 100.5q12 69 38.5 120.5t67.5 80t93 28.5q33 0 64 -10t53 -28l-38 -43q-17 14 -38 20t-38 6q-55 0 -95 -48.5t-53 -146.5l-12 14q20 35 53 55t73 20q41 0 70 -18.5t42.5 -50t6.5 -72.5q-10 -58 -55 -95t-109 -37zM196 327
q38 0 67 24.5t35 62.5q6 35 -12.5 57.5t-53.5 22.5q-37 0 -66 -25t-36 -63q-6 -35 13 -57t53 -22z" />
    <glyph glyph-name="seven.numr" horiz-adv-x="338" 
d="M64 280l257 375l63 -4l-249 -371h-71zM97 643l9 57h286l-8 -49l-57 -8h-230z" />
    <glyph glyph-name="eight.numr" horiz-adv-x="392" 
d="M204 273q-72 0 -109.5 33.5t-28.5 86.5t54.5 86.5t115.5 33.5q76 0 111 -37t26 -90q-8 -49 -53 -81t-116 -32zM205 326q41 0 71.5 21t35.5 54q5 30 -16 49t-59 19q-40 0 -71 -21t-36 -55q-5 -30 16 -48.5t59 -18.5zM237 523q38 0 63.5 19t30.5 50q5 28 -13 45.5t-50 17.5
q-37 0 -63 -20.5t-31 -54.5q-4 -25 14.5 -41t48.5 -16zM239 482q-65 0 -98.5 32t-25.5 83q8 49 50 79.5t103 30.5q66 0 99.5 -33t24.5 -87q-7 -45 -49 -75t-104 -30z" />
    <glyph glyph-name="nine.numr" horiz-adv-x="353" 
d="M162 273q-33 0 -63 10t-53 28l38 43q17 -13 38 -19.5t37 -6.5q58 0 97 48.5t52 146.5l12 -14q-20 -35 -53.5 -55t-73.5 -20q-41 0 -70 18.5t-42 50.5t-6 73q10 58 55 94.5t108 36.5q59 0 88.5 -28t37 -74t-1.5 -101q-11 -69 -38 -121t-67.5 -81t-94.5 -29zM201 486
q38 0 67 25t36 64q5 32 -13 55t-54 23q-37 0 -66 -24t-35 -61q-6 -34 11 -58t54 -24z" />
    <glyph glyph-name="periodcentered.loclCAT" horiz-adv-x="92" 
d="M55 265q-13 0 -23.5 7t-15.5 18.5t-3 24.5q3 17 17.5 29.5t31.5 12.5q14 0 24 -7t15 -18t3 -25q-3 -17 -17.5 -29.5t-31.5 -12.5z" />
    <glyph glyph-name="periodcentered.loclCAT.case" horiz-adv-x="0" 
d="M-33 305q-13 0 -23.5 7t-15.5 18.5t-3 24.5q3 17 17.5 29.5t31.5 12.5q14 0 24 -7t15 -18t3 -25q-3 -17 -17.5 -29.5t-31.5 -12.5z" />
    <glyph glyph-name="uni030C.alt" horiz-adv-x="0" 
d="M46 527l84 172h72l-99 -172h-57z" />
    <glyph glyph-name="uni0328.alt" horiz-adv-x="0" 
d="M61 -212q-31 0 -55.5 9.5t-38.5 26.5t-14 39q0 23 10 47t28.5 47t43.5 43t55 35l18 -2q-40 -31 -66.5 -74t-26.5 -80q0 -16 11.5 -26t28.5 -10q18 0 37.5 3.5t32.5 8.5l16 -48q-17 -8 -39.5 -13.5t-40.5 -5.5z" />
    <glyph glyph-name="uni0304.narrow" horiz-adv-x="0" 
d="M80 580l9 57h250l-9 -57h-250z" />
    </font>
</defs>
</svg>
