<?xml version="1.0" standalone="no"?>
<!DOCTYPE svg PUBLIC "-//W3C//DTD SVG 1.1//EN" "http://www.w3.org/Graphics/SVG/1.1/DTD/svg11.dtd" >
<svg xmlns="http://www.w3.org/2000/svg" xmlns:xlink="http://www.w3.org/1999/xlink" version="1.1">
<metadata>
Created by FontForge 20201107 at Fri Jun 16 12:36:38 2023
 By 
Copyright 2022 The Figtree Project Authors (https://github.com/erikdkennedy/figtree)
</metadata>
<defs>
<font id="Figtree-Italic" horiz-adv-x="587" >
  <font-face 
    font-family="Figtree"
    font-weight="400"
    font-style="italic"
    font-stretch="normal"
    units-per-em="1000"
    panose-1="0 0 0 0 0 0 0 0 0 0"
    ascent="800"
    descent="-200"
    x-height="500"
    cap-height="700"
    bbox="-173 -222 1123 917"
    underline-thickness="50"
    underline-position="-125"
    slope="-9.5"
    unicode-range="U+000D-2265"
  />
<missing-glyph horiz-adv-x="708" 
d="M100 -170v960h508v-960h-508zM158 -112h392v844h-392v-844z" />
    <glyph glyph-name=".notdef" horiz-adv-x="708" 
d="M100 -170v960h508v-960h-508zM158 -112h392v844h-392v-844z" />
    <glyph glyph-name=".null" horiz-adv-x="0" 
 />
    <glyph glyph-name="nonmarkingreturn" horiz-adv-x="333" 
 />
    <glyph glyph-name="CR" unicode="&#xd;" horiz-adv-x="600" 
 />
    <glyph glyph-name="space" unicode=" " horiz-adv-x="247" 
 />
    <glyph glyph-name="exclam" unicode="!" horiz-adv-x="298" 
d="M100 203l81 497h86l-86 -497h-81zM110 -14q-16 0 -28.5 8.5t-18.5 22t-4 29.5q4 21 21 36t38 15q17 0 29 -8.5t18 -22t4 -30.5q-4 -20 -21 -35t-38 -15z" />
    <glyph glyph-name="quotedbl" unicode="&#x22;" horiz-adv-x="320" 
d="M106 482l32 234h80l-47 -234h-65zM226 482l32 234h80l-47 -234h-65z" />
    <glyph glyph-name="numbersign" unicode="#" horiz-adv-x="630" 
d="M299 0l227 700h66l-228 -700h-65zM1 195l17 56h563l-17 -56h-563zM73 0l227 700h66l-228 -700h-65zM81 444l19 56h562l-18 -56h-563z" />
    <glyph glyph-name="dollar" unicode="$" horiz-adv-x="563" 
d="M259 23q-71 0 -118 20.5t-72.5 53.5t-31.5 69l77 21q8 -38 42.5 -64.5t91.5 -27.5q73 0 119.5 30t54.5 78q7 40 -23.5 66t-87.5 40l-65 17q-41 12 -73.5 34t-48 57t-7.5 83q14 84 75.5 130.5t165.5 46.5q63 0 105 -20.5t66 -53t29 -67.5l-77 -22q-9 42 -44 66.5t-88 24.5
q-60 0 -101 -30t-49 -79q-7 -41 14.5 -62.5t62.5 -32.5l68 -16q87 -22 128.5 -74.5t31.5 -112.5q-8 -49 -39.5 -89t-83 -63t-122.5 -23zM197 -103l148 883h73l-148 -883h-73z" />
    <glyph glyph-name="percent" unicode="%" horiz-adv-x="785" 
d="M54 0l615 700h94l-617 -700h-92zM231 384q-48 0 -80 22t-46.5 60.5t-6.5 88.5q8 47 33 83t62.5 56.5t82.5 20.5q47 0 79.5 -22t46.5 -60.5t6 -88.5q-7 -46 -32.5 -82.5t-63 -57t-81.5 -20.5zM230 447q40 0 71 30.5t39 77.5q7 42 -10.5 69t-53.5 27q-40 0 -71 -30t-39 -77
q-6 -42 11.5 -69.5t52.5 -27.5zM543 -15q-47 0 -79.5 22t-47 61t-6.5 88q8 47 33.5 83t63 56.5t81.5 20.5q47 0 80 -22t46.5 -60t5.5 -89q-7 -46 -32.5 -82.5t-63 -57t-81.5 -20.5zM543 48q40 0 71.5 30.5t37.5 77.5q8 42 -10 69.5t-54 27.5q-40 0 -71 -30.5t-39 -77.5
q-6 -42 12 -69.5t53 -27.5z" />
    <glyph glyph-name="ampersand" unicode="&#x26;" horiz-adv-x="643" 
d="M220 -14q-60 0 -103.5 24t-63.5 66.5t-11 97.5q11 64 54 109.5t100 81.5l102 63q60 36 97.5 73t37.5 77q0 30 -21 47.5t-56 17.5q-38 0 -69.5 -25.5t-37.5 -62.5q-5 -28 8.5 -50.5t33.5 -55.5l100 -146l200 -303h-100l-171 260l-97 146q-18 29 -32.5 54.5t-20.5 51
t-2 53.5q8 43 35 77t67 53t85 19q52 0 90 -20t56 -56.5t10 -85.5q-6 -38 -32.5 -71.5t-66.5 -64t-89 -60.5l-83 -51q-25 -15 -49.5 -34t-41.5 -44.5t-24 -61.5q-8 -47 20 -76.5t79 -29.5q53 0 102 17.5t89.5 50.5t67 79t36.5 102l79 -2q-15 -93 -68.5 -166t-133.5 -113.5
t-176 -40.5z" />
    <glyph glyph-name="quotesingle" unicode="'" horiz-adv-x="200" 
d="M106 482l32 234h80l-47 -234h-65z" />
    <glyph glyph-name="parenleft" unicode="(" horiz-adv-x="354" 
d="M166 -99q-36 61 -62 132.5t-35.5 153t5.5 168.5q15 86 49.5 164.5t84 149.5t105.5 132l86 -2q-57 -64 -108 -137.5t-86.5 -153t-49.5 -163.5q-20 -122 8 -235.5t81 -210.5z" />
    <glyph glyph-name="parenright" unicode=")" horiz-adv-x="354" 
d="M221 799q37 -61 63 -132.5t35.5 -152.5t-6.5 -169q-14 -85 -49 -164t-83.5 -150t-105.5 -132l-87 2q58 65 108.5 138t86 153t49.5 163q20 122 -8 235.5t-81 210.5z" />
    <glyph glyph-name="asterisk" unicode="*" horiz-adv-x="481" 
d="M264 543l21 173h70l-38 -173h-53zM295 517l-8 51l171 61l10 -66zM342 385l-72 145l47 31l87 -135zM192 382l-52 42l130 135l41 -32zM279 518l-161 46l33 67l153 -62z" />
    <glyph glyph-name="plus" unicode="+" horiz-adv-x="623" 
d="M246 71l77 454h71l-77 -454h-71zM87 262l12 71h454l-13 -71h-453z" />
    <glyph glyph-name="comma" unicode="," horiz-adv-x="227" 
d="M-21 -115l92 211h91l-114 -211h-69z" />
    <glyph glyph-name="hyphen" unicode="-" horiz-adv-x="417" 
d="M60 261l13 73h300l-13 -73h-300z" />
    <glyph glyph-name="period" unicode="." horiz-adv-x="208" 
d="M65 -14q-16 0 -28.5 8.5t-18.5 22.5t-4 30q4 20 21 35t38 15q17 0 29 -8.5t18 -22t4 -30.5q-4 -20 -21 -35t-38 -15z" />
    <glyph glyph-name="slash" unicode="/" horiz-adv-x="390" 
d="M-41 -84l415 831h84l-413 -831h-86z" />
    <glyph glyph-name="zero" unicode="0" horiz-adv-x="641" 
d="M285 -12q-62 0 -109.5 27.5t-77 77t-39 117.5t3.5 148q18 104 65 184t115 125t147 45q62 0 109 -27.5t77 -77.5t39.5 -117.5t-4.5 -147.5q-17 -103 -64.5 -183t-115 -125.5t-146.5 -45.5zM286 65q59 0 108.5 37t85 101.5t49.5 148.5q14 82 1 146t-50 101t-93 37t-106 -37
t-85.5 -101.5t-49.5 -149.5q-13 -82 0 -146t49 -100.5t91 -36.5z" />
    <glyph glyph-name="one" unicode="1" horiz-adv-x="414" 
d="M175 0l111 655l14 45h76l-119 -700h-82zM106 520l12 76q21 0 53 15t66 39.5t61 50.5l47 -60q-60 -51 -121 -86.5t-118 -34.5z" />
    <glyph glyph-name="two" unicode="2" horiz-adv-x="559" 
d="M107 47l-79 24q6 33 24 66.5t47.5 64.5t71.5 60l164 108q29 19 53 43t40.5 50.5t20.5 52.5q7 50 -23.5 85t-89.5 35q-42 0 -77 -16.5t-60 -42.5t-38 -55l-84 22q19 45 56 83t89 61.5t111 23.5q71 0 119 -27t69.5 -74t11.5 -106q-8 -53 -45 -101.5t-102 -94.5l-155 -103
q-32 -22 -58.5 -47t-43 -53t-22.5 -59zM16 0l12 71l64 4h379l-13 -75h-442z" />
    <glyph glyph-name="three" unicode="3" horiz-adv-x="544" 
d="M230 -12q-52 0 -92 16t-65.5 41t-38.5 54l74 36q9 -15 22 -31.5t36.5 -28.5t60.5 -12q47 0 85 19t62.5 51.5t30.5 73.5q8 43 -12 72.5t-62.5 44.5t-105.5 15h-21l10 66h15q63 0 114 -14.5t86 -42t50.5 -67.5t6.5 -92q-10 -61 -47 -106.5t-92 -70t-117 -24.5zM205 346
l10 65h16q86 0 144.5 30.5t66.5 88.5q7 43 -23 75t-88 32q-42 0 -78 -17.5t-65 -50.5l-62 41q24 32 57 55t72 35t82 12q63 0 108.5 -25t67.5 -67.5t13 -95.5q-8 -43 -34 -76.5t-66.5 -56t-91.5 -34t-110 -11.5h-19z" />
    <glyph glyph-name="four" unicode="4" horiz-adv-x="621" 
d="M99 196l-58 39l397 465l46 -48zM30 170l11 65l55 10h494l-12 -75h-548zM324 0l109 646l5 54h85l-117 -700h-82z" />
    <glyph glyph-name="five" unicode="5" horiz-adv-x="574" 
d="M251 -12q-42 0 -85 13t-77.5 39.5t-52.5 67.5l71 35q28 -43 65.5 -62.5t78.5 -19.5q48 0 87.5 20.5t66 56t33.5 82.5q12 66 -21.5 107.5t-99.5 41.5q-40 0 -79 -17t-63 -41l-75 19l95 370h374l-12 -76h-368l6 73h84l-100 -371l-65 5q17 21 41.5 40.5t53 34.5t60 24
t63.5 8q65 0 111.5 -29t67.5 -80t10 -118q-11 -66 -49 -116t-95 -78.5t-126 -28.5z" />
    <glyph glyph-name="six" unicode="6" horiz-adv-x="566" 
d="M260 -12q-74 0 -119 27.5t-67 75.5t-24.5 110.5t9.5 132.5q15 89 44.5 159t72 119t95.5 74.5t115 25.5q55 0 104.5 -17t85.5 -46l-54 -58q-28 23 -62.5 34.5t-66.5 11.5q-103 0 -173 -87t-92 -262l-16 22q34 61 91.5 95.5t127.5 34.5q60 0 105.5 -25.5t70.5 -68.5t25 -95
t-19.5 -99.5t-56 -84.5t-86.5 -58t-110 -21zM263 62q55 0 97 27t65.5 69.5t23.5 91.5q0 53 -34.5 85t-91.5 32q-47 0 -86.5 -20t-65.5 -56.5t-34 -83.5q-10 -64 25 -104.5t101 -40.5z" />
    <glyph glyph-name="seven" unicode="7" horiz-adv-x="537" 
d="M38 0l455 648l78 -18l-437 -630h-96zM104 623l13 77h465l-11 -70l-66 -7h-401z" />
    <glyph glyph-name="eight" unicode="8" horiz-adv-x="614" 
d="M268 -12q-77 0 -130.5 25t-78 70.5t-15.5 103.5q10 60 48 104.5t97 69.5t134 25q78 0 131.5 -27t78 -73.5t14.5 -108.5q-9 -56 -47 -98.5t-97.5 -66.5t-134.5 -24zM271 62q51 0 92.5 17.5t68.5 48t33 69.5q9 56 -30.5 90t-111.5 34q-50 0 -92 -17.5t-69 -48.5t-33 -71
q-8 -55 31.5 -88.5t110.5 -33.5zM327 337q-69 0 -117.5 24t-70 67t-12.5 99q10 55 44 96.5t87.5 65t119.5 23.5q70 0 118 -24.5t70 -69t12 -101.5q-9 -54 -43.5 -94t-87.5 -63t-120 -23zM327 400q44 0 80 15t59.5 43t28.5 63q9 52 -24.5 85t-94.5 33q-42 0 -78.5 -16.5
t-60.5 -46.5t-30 -69q-7 -48 26.5 -77.5t93.5 -29.5z" />
    <glyph glyph-name="nine" unicode="9" horiz-adv-x="566" 
d="M339 712q74 0 119 -27.5t66.5 -75.5t24 -110.5t-9.5 -132.5q-14 -90 -44 -160t-72 -118.5t-95.5 -74t-115.5 -25.5q-53 0 -103 17t-86 46l53 58q29 -23 63.5 -34.5t66.5 -11.5q103 0 172.5 87t92.5 262l16 -22q-34 -61 -91.5 -96t-127.5 -35q-60 0 -105.5 26t-71 69
t-25.5 95t19.5 99.5t56 84.5t87 58t110.5 21zM336 638q-55 0 -97 -27t-65.5 -69.5t-23.5 -91.5q0 -53 34.5 -85.5t91.5 -32.5q47 0 86.5 20.5t66 56.5t32.5 83q10 65 -25 105.5t-100 40.5z" />
    <glyph glyph-name="colon" unicode=":" horiz-adv-x="253" 
d="M155 391q-16 0 -29 8t-19 22t-4 30q4 21 21.5 36t37.5 15q17 0 29.5 -8.5t18.5 -22t3 -30.5q-3 -20 -20.5 -35t-37.5 -15zM91 -2q-16 0 -29 8.5t-19 22.5t-3 30q3 20 20.5 35t37.5 15q17 0 29 -8.5t18.5 -22t3.5 -29.5q-3 -21 -20.5 -36t-37.5 -15z" />
    <glyph glyph-name="semicolon" unicode=";" horiz-adv-x="259" 
d="M151 390q-16 0 -28.5 8.5t-18.5 22.5t-4 30q4 20 21.5 35t37.5 15q17 0 29 -8.5t18 -22t4 -30.5q-4 -20 -21 -35t-38 -15zM-20 -115l93 211h90l-113 -211h-70z" />
    <glyph glyph-name="less" unicode="&#x3c;" horiz-adv-x="623" 
d="M520 497l-15 -84l-367 -153l11 76zM149 334l317 -160l-13 -73l-315 159z" />
    <glyph glyph-name="equal" unicode="=" horiz-adv-x="623" 
d="M131 362l11 71h400l-11 -71h-400zM97 162l12 71h400l-12 -71h-400z" />
    <glyph glyph-name="greater" unicode="&#x3e;" horiz-adv-x="623" 
d="M119 99l15 84l368 153l-12 -76zM490 262l-316 160l12 73l316 -159z" />
    <glyph glyph-name="question" unicode="?" horiz-adv-x="504" 
d="M184 301l10 65l50 2q44 0 81.5 17.5t62.5 49.5t32 75q10 56 -22.5 91.5t-92.5 35.5q-48 0 -87.5 -22.5t-56.5 -55.5l-73 29q29 56 86 90t132 34q67 0 114.5 -27.5t69 -75.5t10.5 -110q-9 -59 -45 -104t-90.5 -69.5t-122.5 -24.5h-58zM179 -14q-25 0 -40.5 16.5
t-11.5 42.5q2 23 18.5 37.5t39.5 14.5q25 0 40 -17t12 -42q-3 -23 -19 -37.5t-39 -14.5zM166 188l27 171h84l-30 -171h-81z" />
    <glyph glyph-name="at" unicode="@" horiz-adv-x="991" 
d="M437 -212q-102 0 -181.5 34t-131 95.5t-72 144t-6.5 180.5q14 106 61.5 193t120.5 150t164.5 96.5t193.5 33.5q97 0 170.5 -34t120.5 -95t65.5 -143.5t3.5 -178.5q-8 -63 -29 -114.5t-53 -88t-69.5 -56.5t-78.5 -20q-38 0 -63 15t-34.5 42t-3.5 64l60 373h79l-62 -372
q-4 -25 3.5 -40.5t24.5 -15.5q35 0 66 26.5t54 72.5t33 105q19 115 -11 203.5t-101.5 139t-176.5 50.5q-87 0 -165.5 -30t-141 -84.5t-103 -130t-53.5 -166.5q-17 -111 18 -197t112 -135.5t188 -49.5q45 0 94 11.5t84 27.5l31 -58q-46 -22 -104.5 -35t-106.5 -13zM431 15
q-67 0 -113 31t-66 86.5t-9 125.5q12 69 48.5 121t90 81.5t117.5 29.5q65 0 110 -31.5t64.5 -85.5t7.5 -125q-11 -68 -47 -121t-88.5 -82.5t-114.5 -29.5zM450 87q48 0 88 22t67.5 61t35.5 88q12 70 -23.5 114.5t-102.5 44.5q-48 0 -88.5 -21.5t-68 -59.5t-35.5 -88
q-12 -71 23.5 -116t103.5 -45z" />
    <glyph glyph-name="A" unicode="A" horiz-adv-x="682" 
d="M-33 0l402 700h91l-396 -700h-97zM545 0l-164 700h81l168 -700h-85zM135 199l13 76h389l-13 -76h-389z" />
    <glyph glyph-name="B" unicode="B" horiz-adv-x="611" 
d="M51 0l117 700h219q71 0 119.5 -22.5t69 -66.5t10.5 -107q-17 -102 -112 -149q48 -25 69 -67.5t11 -102.5q-15 -88 -81 -136.5t-169 -48.5h-253zM148 76h159q68 0 112 33t52 91q10 57 -27 88.5t-113 31.5h-143zM200 393h156q62 0 101 33t47 90q9 54 -23.5 83t-102.5 29
h-139z" />
    <glyph glyph-name="C" unicode="C" horiz-adv-x="722" 
d="M350 -12q-99 0 -169 45.5t-101.5 125.5t-17.5 184q12 80 46 147t87 117t120 77.5t142 27.5q65 0 120 -23t95 -64.5t56 -93.5l-77 -32q-13 41 -42.5 71.5t-68.5 47.5t-84 17q-58 0 -110 -22t-93.5 -62.5t-69 -94.5t-37.5 -118q-12 -81 10 -143t73 -97t124 -35
q48 0 95.5 20t88 54.5t67.5 78.5l70 -42q-36 -55 -88 -97t-113.5 -65.5t-122.5 -23.5z" />
    <glyph glyph-name="D" unicode="D" horiz-adv-x="688" 
d="M51 0l117 700h213q98 0 166 -46t98.5 -125.5t12.5 -183.5q-13 -76 -48 -139.5t-87.5 -109t-118.5 -71t-140 -25.5h-213zM149 78h126q52 0 102 21t90.5 59.5t69 89t37.5 107.5q13 75 -10 135t-74 96t-121 36h-130z" />
    <glyph glyph-name="E" unicode="E" horiz-adv-x="592" 
d="M51 0l117 700h414l-12 -77h-330l-38 -226h301l-13 -76h-300l-41 -244h331l-13 -77h-416z" />
    <glyph glyph-name="F" unicode="F" horiz-adv-x="542" 
d="M51 0l117 700h414l-12 -77h-330l-40 -239h291l-13 -77h-291l-51 -307h-85z" />
    <glyph glyph-name="G" unicode="G" horiz-adv-x="760" 
d="M370 -12q-106 0 -180.5 45.5t-108 125.5t-19.5 183q12 80 47.5 147.5t91.5 117.5t127 77.5t152 27.5q57 0 108.5 -19t90.5 -51.5t60 -74.5l-73 -41q-15 33 -44 57.5t-66.5 38t-78.5 13.5q-62 0 -117.5 -22t-100 -62t-74 -94.5t-39.5 -119.5q-11 -80 13 -141t80 -96
t134 -35q69 0 127.5 29t97.5 79.5t52 115.5l82 3q-11 -65 -42.5 -120.5t-80 -96.5t-109.5 -64t-130 -23zM477 284l12 73h254l-11 -65l-42 -8h-213z" />
    <glyph glyph-name="H" unicode="H" horiz-adv-x="751" 
d="M51 0l117 700h85l-117 -700h-85zM532 0l117 700h84l-117 -700h-84zM180 322l12 77h424l-12 -77h-424z" />
    <glyph glyph-name="I" unicode="I" horiz-adv-x="271" 
d="M51 0l117 700h85l-117 -700h-85z" />
    <glyph glyph-name="J" unicode="J" horiz-adv-x="515" 
d="M159 -12q-38 0 -67.5 10.5t-51 28.5t-35 41t-21.5 47l68 32q10 -21 24 -40t35 -30.5t50 -11.5q38 0 76.5 17.5t68.5 57.5t41 107l75 453h84l-82 -491q-9 -56 -35 -97.5t-63.5 -69t-81 -41t-85.5 -13.5z" />
    <glyph glyph-name="K" unicode="K" horiz-adv-x="610" 
d="M151 240l-23 77l432 383h107zM51 0l117 700h81l-117 -700h-81zM461 0l-229 356l62 54l267 -410h-100z" />
    <glyph glyph-name="L" unicode="L" horiz-adv-x="520" 
d="M51 0l117 700h85l-104 -623h330l-13 -77h-415z" />
    <glyph glyph-name="M" unicode="M" horiz-adv-x="846" 
d="M51 0l117 700h88l182 -358l300 358h89l-117 -700h-84l94 563l-304 -364l-186 364l-94 -563h-85z" />
    <glyph glyph-name="N" unicode="N" horiz-adv-x="774" 
d="M51 0l117 700h86l323 -565l94 565h85l-117 -700h-85l-323 566l-95 -566h-85z" />
    <glyph glyph-name="O" unicode="O" horiz-adv-x="777" 
d="M357 -12q-77 0 -137.5 27t-100 76.5t-54.5 117t-1 149.5q17 105 72.5 184.5t138 124.5t180.5 45q77 0 137 -27.5t99 -77t54 -117.5t1 -149q-17 -104 -72.5 -183.5t-137.5 -124.5t-179 -45zM360 65q75 0 138 36.5t106.5 101t57.5 148.5q14 83 -8 147t-73.5 100.5
t-127.5 36.5q-74 0 -139 -36.5t-108.5 -101t-57.5 -148.5q-14 -83 8.5 -147t75.5 -100.5t128 -36.5z" />
    <glyph glyph-name="P" unicode="P" horiz-adv-x="579" 
d="M51 0l117 700h225q69 0 117 -29t70 -80t11 -118q-11 -63 -45.5 -112t-85.5 -76.5t-113 -27.5h-169l-42 -257h-85zM191 334h163q39 0 71.5 19.5t54.5 53.5t29 76q9 63 -25 101.5t-98 38.5h-146z" />
    <glyph glyph-name="Q" unicode="Q" horiz-adv-x="780" 
d="M357 -12q-77 0 -137.5 27t-100 76.5t-54.5 117t-1 149.5q17 105 72.5 184.5t138 124.5t180.5 45q77 0 137 -27.5t99 -77t54 -117.5t1 -149q-17 -104 -72.5 -183.5t-137.5 -124.5t-179 -45zM630 -39l-210 253l64 53l208 -251zM360 65q75 0 138 36.5t106.5 101t57.5 148.5
q14 83 -8 147t-73.5 100.5t-127.5 36.5q-74 0 -139 -36.5t-108.5 -101t-57.5 -148.5q-14 -83 8.5 -147t75.5 -100.5t128 -36.5z" />
    <glyph glyph-name="R" unicode="R" horiz-adv-x="626" 
d="M51 0l117 700h225q69 0 117.5 -28t71 -77t10.5 -112q-10 -61 -49 -108t-98 -73.5t-128 -26.5h-135l-46 -275h-85zM447 0l-120 287l72 44l139 -331h-91zM195 353h153q39 0 73 17.5t58 49.5t30 73q9 59 -25.5 94.5t-98.5 35.5h-145z" />
    <glyph glyph-name="S" unicode="S" horiz-adv-x="614" 
d="M278 -13q-59 0 -102.5 13.5t-73.5 36t-47 50.5t-21 59l83 22q9 -43 48 -74t104 -31q51 0 96.5 15.5t73.5 47t28 77.5q0 34 -16 53.5t-45 31.5t-68 21l-72 17q-42 11 -75.5 32t-52.5 55t-18 81q2 66 37 114.5t95 75.5t137 27q70 0 117.5 -23t73.5 -58.5t32 -74.5l-82 -23
q-11 49 -50.5 76.5t-102.5 27.5q-46 0 -85.5 -17t-62.5 -48t-23 -72t25.5 -63t67.5 -33l83 -20q62 -15 99.5 -39.5t54.5 -58.5t17 -79q0 -65 -37 -114.5t-100 -77t-138 -27.5z" />
    <glyph glyph-name="T" unicode="T" horiz-adv-x="552" 
d="M192 0l105 623h-223l12 77h530l-12 -77h-223l-105 -623h-84z" />
    <glyph glyph-name="U" unicode="U" horiz-adv-x="707" 
d="M312 -15q-81 0 -136.5 33.5t-80 93.5t-12.5 137l75 451h85l-76 -451q-9 -56 7 -98t53 -65.5t89 -23.5q57 0 104.5 24t79 66.5t40.5 96.5l75 451h84l-75 -451q-13 -79 -57 -138.5t-109.5 -92.5t-145.5 -33z" />
    <glyph glyph-name="V" unicode="V" horiz-adv-x="693" 
d="M264 0l403 700h91l-407 -700h-87zM257 0l-173 700h87l169 -700h-83z" />
    <glyph glyph-name="W" unicode="W" horiz-adv-x="960" 
d="M606 0l333 700h86l-334 -700h-85zM181 0l-97 700h84l95 -700h-82zM188 0l323 700h83l-323 -700h-83zM600 0l-84 700h80l86 -700h-82z" />
    <glyph glyph-name="X" unicode="X" horiz-adv-x="614" 
d="M-33 0l334 384l276 316h102l-326 -368l-281 -332h-105zM461 0l-168 332l-205 368h98l168 -315l207 -385h-100z" />
    <glyph glyph-name="Y" unicode="Y" horiz-adv-x="604" 
d="M351 291l-68 35l289 374h100zM218 0l56 336h84l-56 -336h-84zM269 291l-184 409h96l165 -374z" />
    <glyph glyph-name="Z" unicode="Z" horiz-adv-x="641" 
d="M18 78l557 571l82 -27l-531 -544h-108zM5 0l13 78h544l-13 -78h-544zM112 622l13 78h544l-12 -78h-545z" />
    <glyph glyph-name="bracketleft" unicode="[" horiz-adv-x="324" 
d="M34 -100l151 900h157l-12 -75h-79l-125 -750h78l-13 -75h-157z" />
    <glyph glyph-name="backslash" unicode="\" horiz-adv-x="668" 
d="M597 -84h-86l-413 831h84z" />
    <glyph glyph-name="bracketright" unicode="]" horiz-adv-x="324" 
d="M322 800l-151 -900h-157l13 75h79l125 750h-79l13 75h157z" />
    <glyph glyph-name="asciicircum" unicode="^" horiz-adv-x="551" 
d="M99 373l210 327h83l-213 -327h-80zM418 373l-107 327h80l102 -327h-75z" />
    <glyph glyph-name="underscore" unicode="_" horiz-adv-x="438" 
d="M-35 -73l12 73h400l-12 -73h-400z" />
    <glyph glyph-name="grave" unicode="`" horiz-adv-x="133" 
d="M69 571l-91 129h100l79 -129h-88z" />
    <glyph glyph-name="a" unicode="a" 
d="M399 0l12 93l68 407h80l-84 -500h-76zM230 -12q-59 0 -103 28t-67.5 77.5t-21.5 114.5q2 59 21.5 113.5t55 97.5t83.5 68t107 25t99 -27.5t60 -76t17 -113.5q-1 -76 -23 -133.5t-57.5 -96t-79.5 -58t-91 -19.5zM252 61q44 0 78.5 20t59 54t37.5 75t14 83q1 66 -32 106
t-90 40q-45 0 -81 -20t-63 -53t-41 -73.5t-15 -82.5q-1 -66 35.5 -107.5t97.5 -41.5z" />
    <glyph glyph-name="b" unicode="b" horiz-adv-x="588" 
d="M28 0l117 700h80l-101 -607l-20 -93h-76zM357 512q60 0 104 -28t67.5 -77.5t21.5 -114.5q-2 -59 -21.5 -113.5t-55 -97.5t-83.5 -68t-107 -25q-58 0 -98.5 27.5t-60.5 76t-18 113.5q2 76 23.5 133.5t57.5 96t80 58t90 19.5zM336 439q-44 0 -78.5 -20t-59 -54t-38 -75
t-13.5 -83q-1 -66 32 -106t90 -40q44 0 80.5 20t63 53t41 73.5t14.5 82.5q1 66 -35 107.5t-97 41.5z" />
    <glyph glyph-name="c" unicode="c" horiz-adv-x="543" 
d="M254 -12q-74 0 -125 34t-74.5 92.5t-12.5 133.5q10 78 50 137.5t100.5 93t132.5 33.5q50 0 91 -16t70 -45t42 -67l-75 -28q-15 39 -48.5 60.5t-80.5 21.5q-51 0 -93.5 -24.5t-71.5 -68t-38 -100.5q-8 -54 6.5 -95t48 -64.5t82.5 -23.5q51 0 94 26t71 70l68 -37
q-40 -64 -101.5 -98.5t-135.5 -34.5z" />
    <glyph glyph-name="d" unicode="d" 
d="M399 0l12 93l101 607h80l-117 -700h-76zM230 -12q-59 0 -103 28t-67.5 77.5t-21.5 114.5q2 59 21.5 113.5t55 97.5t83.5 68t107 25t99 -27.5t60 -76t17 -113.5q-1 -76 -23 -133.5t-57.5 -96t-79.5 -58t-91 -19.5zM252 61q44 0 78.5 20t59 54t37.5 75t14 83q1 66 -32 106
t-90 40q-45 0 -81 -20t-63 -53t-41 -73.5t-15 -82.5q-1 -66 35.5 -107.5t97.5 -41.5z" />
    <glyph glyph-name="e" unicode="e" horiz-adv-x="547" 
d="M252 -12q-75 1 -126.5 36t-74 95t-9.5 138q13 76 54 134t101 90t131 31q73 -1 119 -36t63.5 -96.5t3.5 -142.5h-394q-7 -54 7.5 -94.5t47.5 -63t81 -22.5q54 -1 97 26t70 68l64 -39q-25 -40 -61.5 -68t-81 -42.5t-92.5 -13.5zM135 301h306q1 64 -27.5 104t-90.5 40
q-63 1 -113.5 -39t-74.5 -105z" />
    <glyph glyph-name="f" unicode="f" horiz-adv-x="368" 
d="M78 0l93 559q14 78 55.5 116.5t115.5 38.5q21 0 45 -7.5t51 -20.5l-37 -61q-22 9 -37.5 13.5t-24.5 4.5q-37 0 -59 -23.5t-29 -70.5l-93 -549h-80zM59 431l11 69h317l-12 -69h-316z" />
    <glyph glyph-name="g" unicode="g" horiz-adv-x="586" 
d="M198 -212q-49 0 -88 10t-64.5 22.5t-37.5 19.5l37 62q12 -7 34 -17t53 -17.5t67 -7.5q74 0 130.5 45.5t72.5 143.5l76 451h80l-76 -453q-14 -87 -54.5 -144.5t-100 -86t-129.5 -28.5zM232 4q-69 0 -116 33t-66.5 92.5t-6.5 136.5q13 73 50 128.5t91.5 86.5t119.5 31
q66 0 109.5 -33t60.5 -91t4 -135q-12 -73 -47.5 -129.5t-86.5 -88t-112 -31.5zM253 73q45 0 83.5 24t65.5 66.5t36 97.5q9 53 -3.5 93.5t-42 64t-74.5 23.5q-48 0 -88.5 -24t-68.5 -66t-37 -96q-9 -53 4.5 -94.5t45.5 -65t79 -23.5z" />
    <glyph glyph-name="h" unicode="h" horiz-adv-x="558" 
d="M28 0l117 700h80l-117 -700h-80zM379 0l43 258l85 21l-48 -279h-80zM422 258q13 74 2 112.5t-38 52.5t-64 14q-67 0 -112 -47.5t-59 -132.5l-39 3q13 80 45 136.5t80 86t109 29.5q92 0 136.5 -56.5t24.5 -171.5l-4 -26h-81z" />
    <glyph glyph-name="i" unicode="i" horiz-adv-x="233" 
d="M33 0l86 500h80l-86 -500h-80zM186 616q-20 0 -35 15t-15 35q0 21 15 35.5t35 14.5q21 0 35.5 -14.5t14.5 -35.5q0 -20 -14.5 -35t-35.5 -15z" />
    <glyph glyph-name="j" unicode="j" horiz-adv-x="256" 
d="M-35 -215q-20 0 -43 7t-49 20l39 65q43 -18 61 -18q72 0 87 89l92 552h81l-94 -558q-13 -78 -56.5 -117.5t-117.5 -39.5zM220 616q-20 0 -35 15t-15 35q0 21 15 35.5t35 14.5q21 0 35.5 -14.5t14.5 -35.5q0 -20 -14.5 -35t-35.5 -15z" />
    <glyph glyph-name="k" unicode="k" horiz-adv-x="485" 
d="M28 0l117 700h80l-117 -700h-80zM137 161l-46 55l313 284h104zM345 0l-144 287l59 56l180 -343h-95z" />
    <glyph glyph-name="l" unicode="l" horiz-adv-x="222" 
d="M28 0l119 700h80l-119 -700h-80z" />
    <glyph glyph-name="m" unicode="m" horiz-adv-x="851" 
d="M28 0l84 500h75l-11 -92l-68 -408h-80zM350 0l43 257l85 30l-48 -287h-80zM393 257q13 74 4.5 113t-32 53t-56.5 14q-60 0 -101.5 -48t-56.5 -133l-38 5q20 120 76.5 185.5t141.5 65.5t126 -57.5t21 -171.5zM672 0l43 257l85 29l-48 -286h-80zM715 257q13 74 4.5 113
t-32 53t-56.5 14q-60 0 -101.5 -48t-56.5 -133l-38 5q20 120 76.5 185.5t141.5 65.5t126 -57.5t21 -171.5z" />
    <glyph glyph-name="n" unicode="n" horiz-adv-x="558" 
d="M28 0l84 500h75l-11 -92l-68 -408h-80zM379 0l43 258l82 5l-45 -263h-80zM422 258q13 74 2 112.5t-38 52.5t-64 14q-67 0 -112 -47.5t-60 -132.5l-39 3q14 80 46 136.5t80 86t109 29.5q92 0 136.5 -56.5t24.5 -171.5l-4 -26h-81z" />
    <glyph glyph-name="o" unicode="o" horiz-adv-x="581" 
d="M256 -12q-74 0 -127 34.5t-76.5 95t-10.5 139.5q13 75 53 132.5t100 90t130 32.5q75 0 128 -34.5t76 -95t9 -139.5q-12 -75 -52 -132.5t-99.5 -90t-130.5 -32.5zM258 62q50 0 92 24t71 67t38 99q9 55 -5 97t-47.5 65.5t-82.5 23.5q-50 0 -92.5 -24t-71.5 -67t-39 -99
q-9 -55 5.5 -97t49 -65.5t82.5 -23.5z" />
    <glyph glyph-name="p" unicode="p" horiz-adv-x="592" 
d="M0 -200l117 700h75l-11 -92l-101 -608h-80zM362 512q59 0 103 -28t68 -77.5t21 -114.5q-2 -59 -21.5 -113.5t-55 -97.5t-83.5 -68t-107 -25q-58 0 -98.5 27.5t-60.5 76t-17 113.5q1 76 23 133.5t57.5 96t79.5 58t91 19.5zM340 439q-44 0 -78.5 -20t-59 -54t-37.5 -75
t-14 -83q-1 -66 32 -106t90 -40q45 0 81 20t63 53t41 73.5t15 82.5q1 66 -35.5 107.5t-97.5 41.5z" />
    <glyph glyph-name="q" unicode="q" horiz-adv-x="592" 
d="M362 -200l101 607l20 93h76l-117 -700h-80zM230 -12q-59 0 -103 28t-67.5 77.5t-21.5 114.5q2 59 21.5 113.5t55 97.5t83.5 68t107 25t99 -27.5t60 -76t17 -113.5q-1 -76 -23 -133.5t-57.5 -96t-79.5 -58t-91 -19.5zM252 61q44 0 78.5 20t59 54t37.5 75t14 83
q1 66 -32 106t-90 40q-45 0 -81 -20t-63 -53t-41 -73.5t-15 -82.5q-1 -66 35.5 -107.5t97.5 -41.5z" />
    <glyph glyph-name="r" unicode="r" horiz-adv-x="340" 
d="M28 0l84 500h80l-84 -500h-80zM117 272q14 81 52.5 132t91 74.5t106.5 23.5l-9 -75q-44 0 -87.5 -15t-75 -48.5t-41.5 -90.5z" />
    <glyph glyph-name="s" unicode="s" horiz-adv-x="470" 
d="M202 -12q-56 0 -95.5 17t-61.5 44t-28 57l73 23q10 -35 40.5 -54.5t67.5 -19.5q31 0 60.5 10.5t49 30.5t19.5 50q0 26 -21 42t-62 28l-46 13q-58 16 -89 47.5t-31 72.5q0 49 26.5 86t74 57t110.5 20q69 0 110.5 -29t52.5 -78l-71 -24q-10 35 -34.5 49t-69.5 14
q-49 0 -83.5 -24.5t-34.5 -61.5q0 -17 19 -33.5t59 -27.5l41 -11q70 -18 101.5 -54t31.5 -81q0 -49 -29 -85.5t-76 -57t-104 -20.5z" />
    <glyph glyph-name="t" unicode="t" horiz-adv-x="387" 
d="M221 -12q-72 0 -104.5 38.5t-20.5 108.5l87 521h80l-87 -516q-6 -38 9.5 -58t51.5 -20q12 0 25.5 5t35.5 16l23 -66q-32 -17 -55.5 -23t-44.5 -6zM59 429l11 71h317l-12 -71h-316z" />
    <glyph glyph-name="u" unicode="u" horiz-adv-x="558" 
d="M371 0l11 92l68 408h80l-84 -500h-75zM52 221l47 279h80l-43 -258zM136 242q-13 -73 -2 -112t38.5 -53t63.5 -14q67 0 112 47.5t60 132.5l39 -3q-13 -80 -45.5 -136.5t-80 -86t-109.5 -29.5q-91 0 -135.5 56.5t-25.5 171.5l4 26h81z" />
    <glyph glyph-name="v" unicode="v" horiz-adv-x="521" 
d="M181 0l287 500h86l-293 -500h-80zM177 0l-126 500h80l122 -500h-76z" />
    <glyph glyph-name="w" unicode="w" horiz-adv-x="786" 
d="M140 0l-87 500h80l84 -500h-77zM143 0l252 500h75l-250 -500h-77zM483 0l-83 500h75l84 -500h-76zM483 0l252 500h82l-254 -500h-80z" />
    <glyph glyph-name="x" unicode="x" horiz-adv-x="475" 
d="M-32 0l252 287l180 213h97l-235 -270l-195 -230h-99zM329 0l-115 230l-147 270h93l109 -213l154 -287h-94z" />
    <glyph glyph-name="y" unicode="y" horiz-adv-x="525" 
d="M41 -212q-20 0 -44 7.5t-51 20.5l38 65q43 -19 63 -19q27 0 48.5 15.5t36.5 41.5l80 135l260 446h87l-335 -571q-26 -45 -51.5 -76.5t-56.5 -48t-75 -16.5zM183 0l-133 500h85l111 -445l15 -55h-78z" />
    <glyph glyph-name="z" unicode="z" horiz-adv-x="491" 
d="M68 19l-54 45l409 420l53 -46zM3 0l11 64l54 6h348l-12 -70h-401zM75 430l12 70h399l-10 -62l-55 -8h-346z" />
    <glyph glyph-name="braceleft" unicode="{" horiz-adv-x="389" 
d="M76 339l4 43q39 0 63 11.5t37.5 41t22.5 82.5q14 86 30.5 141t40.5 86t58.5 43.5t86.5 12.5l-9 -71q-36 -1 -59.5 -20t-39.5 -66.5t-31 -134.5q-9 -51 -22 -84.5t-35.5 -51.5t-58 -25.5t-88.5 -7.5zM271 -100q-67 0 -100.5 24.5t-37.5 88.5t15 180q9 51 6 78.5t-22 37
t-58 9.5l4 43q71 0 106.5 -15t44.5 -54t-3 -110q-14 -84 -15 -129t15.5 -63t53.5 -19z" />
    <glyph glyph-name="bar" unicode="|" horiz-adv-x="257" 
d="M14 -220l169 1010h71l-169 -1010h-71z" />
    <glyph glyph-name="braceright" unicode="}" horiz-adv-x="388" 
d="M346 361l-5 -43q-39 0 -62.5 -11.5t-37 -41t-22.5 -82.5q-15 -85 -31 -140.5t-40 -86.5t-58.5 -43.5t-86.5 -12.5l9 71q36 1 59.5 20t40 67t30.5 134q9 51 22 84.5t35.5 51.5t58 25.5t88.5 7.5zM150 800q69 0 102 -24.5t37 -88.5t-16 -180q-8 -51 -5 -78t22 -37t58 -10
l-4 -43q-70 0 -106.5 15t-44.5 54.5t3 109.5q14 84 14.5 129t-15.5 63t-54 19z" />
    <glyph glyph-name="asciitilde" unicode="~" horiz-adv-x="562" 
d="M372 222q-32 0 -61.5 18t-47.5 46q-18 26 -31.5 37.5t-30.5 11.5q-24 0 -42 -19.5t-30 -53.5h-68q8 43 27.5 77t51 53t72.5 19q35 0 64 -18.5t44 -42.5q13 -17 22.5 -28.5t19.5 -17.5t21 -6q27 0 44 20t28 53h69q-9 -43 -29 -77t-50 -53t-73 -19z" />
    <glyph glyph-name="uni00A0" unicode="&#xa0;" horiz-adv-x="247" 
 />
    <glyph glyph-name="exclamdown" unicode="&#xa1;" horiz-adv-x="294" 
d="M198 295l-81 -497h-87l86 497h82zM188 512q16 0 28.5 -8.5t18.5 -22t4 -30.5q-4 -20 -21 -35t-38 -15q-16 0 -28.5 8.5t-19 22.5t-3.5 30q4 20 21 35t38 15z" />
    <glyph glyph-name="cent" unicode="&#xa2;" horiz-adv-x="543" 
d="M213 0l119 700h60l-119 -700h-60zM272 98q-74 0 -125 34t-74.5 92.5t-12.5 133.5q10 78 50 137.5t100.5 93t132.5 33.5q50 0 91 -16t70 -45t42 -67l-75 -28q-15 39 -48.5 60.5t-80.5 21.5q-51 0 -93.5 -24.5t-71.5 -68t-38 -100.5q-8 -54 6.5 -95t48 -64.5t82.5 -23.5
q51 0 94 26t71 70l68 -37q-40 -64 -101.5 -98.5t-135.5 -34.5z" />
    <glyph glyph-name="sterling" unicode="&#xa3;" horiz-adv-x="576" 
d="M106 141l63 373q11 61 43 105.5t81 68.5t108 24q60 0 102.5 -24.5t61.5 -70.5t7 -112l-79 16q9 54 -17.5 85.5t-76.5 31.5q-36 0 -67.5 -16.5t-52 -45.5t-27.5 -67l-61 -359zM42 15v62q21 0 40.5 19t23.5 45l85 9q-7 -42 -28.5 -72.5t-53 -46.5t-67.5 -16zM6 0l13 77h482
l-13 -77h-482zM55 288l12 72h361l-13 -72h-360z" />
    <glyph glyph-name="currency" unicode="&#xa4;" horiz-adv-x="555" 
d="M274 179q-52 0 -88 22.5t-52 62.5t-9 91q9 48 36 84t68.5 57t89.5 21q53 0 89 -22t52.5 -61t8.5 -89q-8 -49 -36 -86.5t-69 -58.5t-90 -21zM111 150l-43 49l95 83l45 -47zM414 150l-63 75l56 48l63 -74zM275 249q46 0 79 30.5t40 77.5q6 39 -15 64t-61 25
q-45 0 -78 -28.5t-40 -74.5q-5 -41 15.5 -67.5t59.5 -26.5zM193 417l-74 85l55 50l74 -86zM428 424l-45 47l94 81l43 -50z" />
    <glyph glyph-name="yen" unicode="&#xa5;" horiz-adv-x="543" 
d="M320 294l-68 32l262 384h96zM186 0l56 336h84l-56 -336h-84zM79 189l9 59h363l-10 -59h-362zM96 294l9 59h363l-9 -59h-363zM238 294l-152 416h92l134 -384z" />
    <glyph glyph-name="brokenbar" unicode="&#xa6;" horiz-adv-x="271" 
d="M117 350l73 440h71l-73 -440h-71zM21 -220l74 440h71l-74 -440h-71z" />
    <glyph glyph-name="section" unicode="&#xa7;" horiz-adv-x="570" 
d="M241 -90q-59 0 -99 18t-62.5 45.5t-26.5 58.5l74 20q5 -32 32.5 -54t72.5 -22q59 0 97 24.5t44 63.5q6 32 -17.5 52.5t-68.5 31.5l-59 15q-53 15 -87 51.5t-24 97.5q12 71 65.5 110.5t140.5 39.5q51 0 85.5 -17t53.5 -45.5t23 -60.5l-63 -17q-8 35 -41 54.5t-72 19.5
q-47 0 -78 -25t-38 -66q-5 -31 12.5 -48t51.5 -26l59 -15q72 -19 107 -62.5t26 -95.5q-10 -63 -63.5 -105.5t-144.5 -42.5zM279 160q-52 0 -87 18.5t-53.5 48t-21.5 60.5l48 15q5 -20 20.5 -37t40 -26.5t55.5 -9.5q53 0 88.5 23.5t41.5 61.5q5 32 -18 52t-68 32l-59 16
q-54 15 -87.5 51t-23.5 97q12 71 65.5 110.5t139.5 39.5q54 0 90.5 -17t57 -44.5t25.5 -58.5l-73 -19q-6 34 -33.5 53.5t-71.5 19.5q-50 0 -84 -24.5t-40 -66.5q-6 -31 12 -48t52 -25l60 -15q73 -19 107 -63t25 -96q-10 -63 -63.5 -105.5t-144.5 -42.5z" />
    <glyph glyph-name="dieresis" unicode="&#xa8;" horiz-adv-x="325" 
d="M106 620q-20 0 -34 14t-14 34t14 34t34 14t34 -14t14 -34t-14 -34t-34 -14zM352 620q-19 0 -33.5 14t-14.5 34t14.5 34t33.5 14q20 0 34 -14t14 -34t-14 -34t-34 -14z" />
    <glyph glyph-name="copyright" unicode="&#xa9;" horiz-adv-x="815" 
d="M391 152q-56 0 -96.5 25.5t-58.5 72t-9 107.5q10 56 40.5 99t76 67.5t98.5 24.5q60 0 102.5 -31.5t55.5 -79.5l-64 -17q-9 31 -33 48.5t-56 17.5q-37 0 -69.5 -18.5t-54 -51t-28.5 -75.5q-9 -56 17 -92t76 -36q39 0 71.5 22t53.5 54l61 -30q-29 -49 -78.5 -78t-104.5 -29
zM369 -11q-77 0 -139 28t-104 78t-58.5 116.5t-4.5 143.5q13 75 51 140t95 113.5t126.5 76t143.5 27.5q77 0 139 -28.5t103.5 -78.5t59 -116.5t4.5 -143.5q-13 -75 -51 -139.5t-95 -113.5t-126 -76t-144 -27zM370 54q85 0 158 38.5t123 107t64 155.5q15 85 -11 151
t-84 103.5t-140 37.5q-86 0 -159.5 -39t-123.5 -107t-65 -156q-13 -85 13 -151t84 -103t141 -37z" />
    <glyph glyph-name="ordfeminine" unicode="&#xaa;" horiz-adv-x="378" 
d="M193 393q-49 0 -82.5 33.5t-33.5 87.5q0 51 19 95t55.5 71t87.5 27q49 0 74.5 -31t25.5 -83q0 -41 -10 -77t-29.5 -63.5t-46.5 -43.5t-60 -16zM214 456q30 0 52 18t34 45t12 54q0 32 -17 51.5t-47 19.5q-28 0 -51 -17t-35.5 -43t-12.5 -55q0 -32 17.5 -52.5t47.5 -20.5z
M288 400l7 56l41 244h68l-51 -300h-65z" />
    <glyph glyph-name="guillemotleft" unicode="&#xab;" horiz-adv-x="553" 
d="M250 298l188 202h100l-187 -202h-101zM372 96l-120 202h97l119 -202h-96zM57 298l188 202h100l-187 -202h-101zM179 96l-120 202h97l119 -202h-96z" />
    <glyph glyph-name="logicalnot" unicode="&#xac;" horiz-adv-x="623" 
d="M120 293l12 72h362l-13 -72h-361zM393 190l29 175h72l-30 -175h-71z" />
    <glyph glyph-name="registered" unicode="&#xae;" horiz-adv-x="623" 
d="M304 171q-60 0 -107 20.5t-78.5 57.5t-43 87t-1.5 110q9 58 37 107t69.5 84t93 55t109.5 20q60 0 107 -20.5t78.5 -57.5t43.5 -87.5t2 -110.5q-10 -58 -38 -106.5t-69.5 -84t-93 -55t-109.5 -19.5zM304 226q63 0 117 28t90 77.5t46 113.5q11 64 -7.5 111.5t-61 74
t-105.5 26.5t-117 -28t-89.5 -77.5t-46.5 -113.5q-10 -64 8 -111.5t60.5 -74t105.5 -26.5zM219 299l48 292h102q45 0 71 -27.5t18 -70.5q-4 -27 -21.5 -47.5t-46.5 -32.5l48 -114h-58l-43 106h-49l-17 -106h-52zM296 453h52q20 0 37.5 14.5t21.5 35.5q3 18 -8 29.5t-35 11.5
h-53z" />
    <glyph glyph-name="macron" unicode="&#xaf;" horiz-adv-x="307" 
d="M54 575l13 73h306l-12 -73h-307z" />
    <glyph glyph-name="degree" unicode="&#xb0;" horiz-adv-x="367" 
d="M218 440q-38 0 -66 18.5t-41.5 50t-8.5 68.5q5 38 27 68.5t56 48.5t72 18t66.5 -18t43 -48t8.5 -67q-4 -38 -27 -70t-57.5 -50.5t-72.5 -18.5zM223 504q30 0 54.5 23t29.5 55q4 27 -11.5 46.5t-42.5 19.5q-29 0 -53.5 -22t-29.5 -52q-3 -29 12 -49.5t41 -20.5z" />
    <glyph glyph-name="plusminus" unicode="&#xb1;" horiz-adv-x="623" 
d="M259 146l69 411h71l-69 -411h-71zM96 316l12 70h453l-11 -70h-454zM44 5l11 63h453l-11 -63h-453z" />
    <glyph glyph-name="uni00B2" unicode="&#xb2;" horiz-adv-x="361" 
d="M134 399l-66 38q5 29 31 60t67 57l79 52q26 16 46 37.5t22 41.5q3 24 -12 40.5t-44 16.5q-31 0 -54.5 -17.5t-34.5 -42.5l-73 18q17 43 60.5 75t100.5 32q69 0 104.5 -37t25.5 -92q-6 -38 -30 -67.5t-65 -55.5l-73 -47q-19 -13 -37 -28.5t-30.5 -35t-16.5 -45.5zM58 380
l10 57l55 8h229l-10 -65h-284z" />
    <glyph glyph-name="uni00B3" unicode="&#xb3;" horiz-adv-x="331" 
d="M192 373q-55 0 -89 24t-41 62l68 19q5 -10 11.5 -20t18 -16t28.5 -6q37 0 62 21t28 52q4 27 -17.5 44t-69.5 17h-24l9 51h16q48 0 86 -16t57.5 -45t12.5 -69q-6 -37 -29.5 -63.5t-56.5 -40.5t-70 -14zM169 581l8 50h18q44 0 73 15t32 47q3 18 -11 34.5t-43 16.5
q-20 0 -39.5 -10t-35.5 -33l-61 26q14 26 36.5 44t50.5 27t55 9q40 0 69 -15.5t43 -41.5t8 -60q-6 -36 -32.5 -60.5t-66 -36.5t-83.5 -12h-21z" />
    <glyph glyph-name="acute" unicode="&#xb4;" horiz-adv-x="262" 
d="M87 571l135 129h103l-146 -129h-92z" />
    <glyph glyph-name="uni00B5" unicode="&#xb5;" horiz-adv-x="558" 
d="M-18 -200l117 700h80l-70 -422l-5 -1l-45 -277h-77zM223 -12q-79 0 -117.5 57t-19.5 172l50 24q-13 -73 -2.5 -111.5t37.5 -52.5t62 -14q68 0 113.5 48t60.5 133l39 -5q-20 -120 -77 -185.5t-146 -65.5zM371 0l11 92l68 408h80l-84 -500h-75z" />
    <glyph glyph-name="paragraph" unicode="&#xb6;" horiz-adv-x="546" 
d="M202 -84l56 341h-18q-62 0 -105 29t-62 80.5t-8 117.5q11 64 45 112.5t85.5 76t112.5 27.5h220l-131 -784h-73l118 707h-49l-118 -707h-73z" />
    <glyph glyph-name="periodcentered" unicode="&#xb7;" horiz-adv-x="255" 
d="M136 270q-16 0 -28.5 8.5t-18.5 22.5t-4 30q4 20 21 35t38 15q17 0 29 -8.5t18 -22t4 -30.5q-4 -20 -21 -35t-38 -15z" />
    <glyph glyph-name="cedilla" unicode="&#xb8;" horiz-adv-x="208" 
d="M37 -210q-23 0 -48.5 7t-59.5 28l27 44q16 -9 34.5 -17t34.5 -8q26 0 42.5 12t16.5 34q0 21 -20 31.5t-55 15.5l45 70l55 -13l-19 -27q25 -9 40.5 -30t15.5 -44q0 -52 -29 -77.5t-80 -25.5z" />
    <glyph glyph-name="uni00B9" unicode="&#xb9;" horiz-adv-x="283" 
d="M155 380l64 381l13 39h64l-71 -420h-70zM114 675l10 65q14 0 33.5 9t39 23t34.5 28l41 -47q-43 -38 -81.5 -59t-76.5 -19z" />
    <glyph glyph-name="ordmasculine" unicode="&#xba;" horiz-adv-x="365" 
d="M213 393q-47 0 -80 20.5t-47.5 57.5t-6.5 84q11 68 59.5 110t114.5 42q47 0 79.5 -20.5t47 -57.5t6.5 -84q-7 -45 -32 -79t-61.5 -53.5t-79.5 -19.5zM213 457q37 0 66.5 28t36.5 70q7 39 -11 63.5t-52 24.5q-38 0 -67 -27.5t-37 -70.5q-6 -39 11.5 -63.5t52.5 -24.5z" />
    <glyph glyph-name="guillemotright" unicode="&#xbb;" horiz-adv-x="553" 
d="M319 298l-188 -202h-100l187 202h101zM197 500l121 -202h-98l-119 202h96zM512 298l-188 -202h-99l187 202h100zM390 500l121 -202h-98l-119 202h96z" />
    <glyph glyph-name="onequarter" unicode="&#xbc;" horiz-adv-x="830" 
d="M138 280l64 381l13 39h64l-71 -420h-70zM97 575l10 65q14 0 33.5 9t39 23t34.5 28l41 -47q-43 -38 -81.5 -59t-76.5 -19zM110 0l481 700h82l-481 -700h-82zM500 116l-50 30l234 274l37 -41zM440 88l10 58l42 5h300l-11 -63h-341zM620 0l64 379v41h76l-71 -420h-69z" />
    <glyph glyph-name="onehalf" unicode="&#xbd;" horiz-adv-x="862" 
d="M138 280l64 381l13 39h64l-71 -420h-70zM97 575l10 65q14 0 33.5 9t39 23t34.5 28l41 -47q-43 -38 -81.5 -59t-76.5 -19zM110 0l481 700h82l-481 -700h-82zM571 19l-66 38q5 29 31 60t67 57l79 52q26 16 46 37.5t22 41.5q3 24 -12 40.5t-44 16.5q-31 0 -54.5 -17.5
t-34.5 -42.5l-73 18q17 43 60.5 75t100.5 32q69 0 104.5 -37t25.5 -92q-6 -38 -30 -67.5t-65 -55.5l-73 -47q-19 -13 -37 -28.5t-30.5 -35t-16.5 -45.5zM495 0l10 57l55 8h229l-10 -65h-284z" />
    <glyph glyph-name="threequarters" unicode="&#xbe;" horiz-adv-x="878" 
d="M175 273q-55 0 -89 24t-41 62l68 19q5 -10 11.5 -20t18 -16t28.5 -6q37 0 62 21t28 52q4 27 -17.5 44t-69.5 17h-24l9 51h16q48 0 86 -16t57.5 -45t12.5 -69q-6 -37 -29.5 -63.5t-56.5 -40.5t-70 -14zM152 481l8 50h18q44 0 73 15t32 47q3 18 -11 34.5t-43 16.5
q-20 0 -39.5 -10t-35.5 -33l-61 26q14 26 36.5 44t50.5 27t55 9q40 0 69 -15.5t43 -41.5t8 -60q-6 -36 -32.5 -60.5t-66 -36.5t-83.5 -12h-21zM158 0l481 700h82l-481 -700h-82zM549 116l-50 30l234 274l37 -41zM489 88l10 58l42 5h300l-11 -63h-341zM669 0l64 379v41h76
l-71 -420h-69z" />
    <glyph glyph-name="questiondown" unicode="&#xbf;" horiz-adv-x="463" 
d="M290 198l-10 -66l-50 -1q-43 -1 -81 -18.5t-62.5 -49t-32.5 -74.5q-9 -56 23 -91.5t92 -35.5q49 0 88.5 22.5t56.5 55.5l72 -29q-28 -56 -85.5 -90t-132.5 -34q-67 0 -114 27t-68.5 75t-11.5 110q10 61 45.5 105t90.5 69t122 25h58zM295 513q26 0 41 -17t12 -42
q-3 -23 -19 -37.5t-39 -14.5q-26 0 -41 16.5t-12 42.5q3 22 19.5 37t38.5 15zM309 311l-28 -171h-83l29 171h82z" />
    <glyph glyph-name="Agrave" unicode="&#xc0;" horiz-adv-x="682" 
d="M-33 0l402 700h91l-396 -700h-97zM545 0l-164 700h81l168 -700h-85zM135 199l13 76h389l-13 -76h-389zM437 746l-91 129h100l79 -129h-88z" />
    <glyph glyph-name="Aacute" unicode="&#xc1;" horiz-adv-x="682" 
d="M-33 0l402 700h91l-396 -700h-97zM545 0l-164 700h81l168 -700h-85zM135 199l13 76h389l-13 -76h-389zM355 746l135 129h103l-146 -129h-92z" />
    <glyph glyph-name="Acircumflex" unicode="&#xc2;" horiz-adv-x="682" 
d="M-33 0l402 700h91l-396 -700h-97zM545 0l-164 700h81l168 -700h-85zM135 199l13 76h389l-13 -76h-389zM251 757l143 130h95v-2l-140 -128h-98zM507 757l-102 129l2 1h83l100 -130h-83z" />
    <glyph glyph-name="Atilde" unicode="&#xc3;" horiz-adv-x="682" 
d="M-33 0l402 700h91l-396 -700h-97zM545 0l-164 700h81l168 -700h-85zM135 199l13 76h389l-13 -76h-389zM510 741q-28 0 -44 11t-25.5 25t-18 25t-22.5 11q-17 0 -28 -9t-19 -29h-63q8 42 36.5 72t79.5 30q27 0 42.5 -11t24.5 -25t18 -25t22 -11q19 0 29.5 10t16.5 28h64
q-12 -40 -38 -71t-75 -31z" />
    <glyph glyph-name="Adieresis" unicode="&#xc4;" horiz-adv-x="682" 
d="M-33 0l402 700h91l-396 -700h-97zM545 0l-164 700h81l168 -700h-85zM135 199l13 76h389l-13 -76h-389zM318 795q-20 0 -34 14t-14 34t14 34t34 14t34 -14t14 -34t-14 -34t-34 -14zM564 795q-19 0 -33.5 14t-14.5 34t14.5 34t33.5 14q20 0 34 -14t14 -34t-14 -34t-34 -14z
" />
    <glyph glyph-name="Aring" unicode="&#xc5;" horiz-adv-x="682" 
d="M-33 0l402 700h91l-396 -700h-97zM545 0l-164 700h81l168 -700h-85zM135 199l13 76h389l-13 -76h-389zM426 732q-37 0 -61.5 23.5t-24.5 58.5q0 29 14 52t39 37t56 14q37 0 60.5 -23.5t23.5 -58.5q0 -31 -14 -54t-38.5 -36t-54.5 -13zM430 786q19 0 32 13.5t13 36.5
q0 27 -29 27q-21 0 -33.5 -13.5t-12.5 -35.5q0 -12 8 -20t22 -8z" />
    <glyph glyph-name="AE" unicode="&#xc6;" horiz-adv-x="1003" 
d="M-33 0l545 700h481l-12 -77h-330l-38 -226h300l-12 -76h-301l-40 -244h330l-13 -77h-415l33 199h-275l-155 -199h-98zM276 275h232l58 348h-20z" />
    <glyph glyph-name="Ccedilla" unicode="&#xc7;" horiz-adv-x="722" 
d="M350 -12q-99 0 -169 45.5t-101.5 125.5t-17.5 184q12 80 46 147t87 117t120 77.5t142 27.5q65 0 120 -23t95 -64.5t56 -93.5l-77 -32q-13 41 -42.5 71.5t-68.5 47.5t-84 17q-58 0 -110 -22t-93.5 -62.5t-69 -94.5t-37.5 -118q-12 -81 10 -143t73 -97t124 -35
q48 0 95.5 20t88 54.5t67.5 78.5l70 -42q-36 -55 -88 -97t-113.5 -65.5t-122.5 -23.5zM288 -210q-23 0 -48.5 7t-59.5 28l27 44q16 -9 34.5 -17t34.5 -8q26 0 42.5 12t16.5 34q0 21 -20 31.5t-55 15.5l45 70l55 -13l-19 -27q25 -9 40.5 -30t15.5 -44q0 -52 -29 -77.5
t-80 -25.5z" />
    <glyph glyph-name="Egrave" unicode="&#xc8;" horiz-adv-x="592" 
d="M51 0l117 700h414l-12 -77h-330l-38 -226h301l-13 -76h-300l-41 -244h331l-13 -77h-416zM399 746l-91 129h100l79 -129h-88z" />
    <glyph glyph-name="Eacute" unicode="&#xc9;" horiz-adv-x="592" 
d="M51 0l117 700h414l-12 -77h-330l-38 -226h301l-13 -76h-300l-41 -244h331l-13 -77h-416zM318 746l135 129h103l-146 -129h-92z" />
    <glyph glyph-name="Ecircumflex" unicode="&#xca;" horiz-adv-x="592" 
d="M51 0l117 700h414l-12 -77h-330l-38 -226h301l-13 -76h-300l-41 -244h331l-13 -77h-416zM214 757l143 130h95v-2l-140 -128h-98zM470 757l-102 129l2 1h83l100 -130h-83z" />
    <glyph glyph-name="Edieresis" unicode="&#xcb;" horiz-adv-x="592" 
d="M51 0l117 700h414l-12 -77h-330l-38 -226h301l-13 -76h-300l-41 -244h331l-13 -77h-416zM280 795q-20 0 -34 14t-14 34t14 34t34 14t34 -14t14 -34t-14 -34t-34 -14zM526 795q-19 0 -33.5 14t-14.5 34t14.5 34t33.5 14q20 0 34 -14t14 -34t-14 -34t-34 -14z" />
    <glyph glyph-name="Igrave" unicode="&#xcc;" horiz-adv-x="271" 
d="M51 0l117 700h85l-117 -700h-85zM231 746l-91 129h100l79 -129h-88z" />
    <glyph glyph-name="Iacute" unicode="&#xcd;" horiz-adv-x="271" 
d="M51 0l117 700h85l-117 -700h-85zM149 746l135 129h103l-146 -129h-92z" />
    <glyph glyph-name="Icircumflex" unicode="&#xce;" horiz-adv-x="271" 
d="M51 0l117 700h85l-117 -700h-85zM45 757l143 130h95v-2l-140 -128h-98zM301 757l-102 129l2 1h83l100 -130h-83z" />
    <glyph glyph-name="Idieresis" unicode="&#xcf;" horiz-adv-x="277" 
d="M170 795q-19 0 -33.5 14t-14.5 34t14.5 34t33.5 14q21 0 35 -14t14 -34t-14 -34t-35 -14zM306 795q-20 0 -34 14t-14 34t14 34t34 14t34 -14t14 -34t-14 -34t-34 -14zM55 0l117 700h85l-117 -700h-85z" />
    <glyph glyph-name="Eth" unicode="&#xd0;" horiz-adv-x="751" 
d="M84 314l11 70h319l-11 -70h-319zM115 0l117 700h213q97 0 165 -46t98.5 -125.5t12.5 -183.5q-13 -76 -47.5 -139.5t-87.5 -109t-119 -71t-139 -25.5h-213zM212 78h126q53 0 102.5 21t90.5 59.5t69 89t37 107.5q13 75 -10 135t-73.5 96t-121.5 36h-129z" />
    <glyph glyph-name="Ntilde" unicode="&#xd1;" horiz-adv-x="774" 
d="M51 0l117 700h86l323 -565l94 565h85l-117 -700h-85l-323 566l-95 -566h-85zM549 738q-28 0 -44 11t-25.5 25t-18 25t-22.5 11q-17 0 -28 -9t-19 -29h-63q8 42 36.5 72t79.5 30q27 0 42.5 -11t24.5 -25t18 -25t22 -11q19 0 29.5 10t16.5 28h64q-12 -40 -38 -71t-75 -31z
" />
    <glyph glyph-name="Ograve" unicode="&#xd2;" horiz-adv-x="777" 
d="M357 -12q-77 0 -137.5 27t-100 76.5t-54.5 117t-1 149.5q17 105 72.5 184.5t138 124.5t180.5 45q77 0 137 -27.5t99 -77t54 -117.5t1 -149q-17 -104 -72.5 -183.5t-137.5 -124.5t-179 -45zM360 65q75 0 138 36.5t106.5 101t57.5 148.5q14 83 -8 147t-73.5 100.5
t-127.5 36.5q-74 0 -139 -36.5t-108.5 -101t-57.5 -148.5q-14 -83 8.5 -147t75.5 -100.5t128 -36.5zM479 746l-91 129h100l79 -129h-88z" />
    <glyph glyph-name="Oacute" unicode="&#xd3;" horiz-adv-x="777" 
d="M357 -12q-77 0 -137.5 27t-100 76.5t-54.5 117t-1 149.5q17 105 72.5 184.5t138 124.5t180.5 45q77 0 137 -27.5t99 -77t54 -117.5t1 -149q-17 -104 -72.5 -183.5t-137.5 -124.5t-179 -45zM360 65q75 0 138 36.5t106.5 101t57.5 148.5q14 83 -8 147t-73.5 100.5
t-127.5 36.5q-74 0 -139 -36.5t-108.5 -101t-57.5 -148.5q-14 -83 8.5 -147t75.5 -100.5t128 -36.5zM397 746l135 129h103l-146 -129h-92z" />
    <glyph glyph-name="Ocircumflex" unicode="&#xd4;" horiz-adv-x="777" 
d="M357 -12q-77 0 -137.5 27t-100 76.5t-54.5 117t-1 149.5q17 105 72.5 184.5t138 124.5t180.5 45q77 0 137 -27.5t99 -77t54 -117.5t1 -149q-17 -104 -72.5 -183.5t-137.5 -124.5t-179 -45zM360 65q75 0 138 36.5t106.5 101t57.5 148.5q14 83 -8 147t-73.5 100.5
t-127.5 36.5q-74 0 -139 -36.5t-108.5 -101t-57.5 -148.5q-14 -83 8.5 -147t75.5 -100.5t128 -36.5zM293 757l143 130h95v-2l-140 -128h-98zM549 757l-102 129l2 1h83l100 -130h-83z" />
    <glyph glyph-name="Otilde" unicode="&#xd5;" horiz-adv-x="777" 
d="M357 -12q-77 0 -137.5 27t-100 76.5t-54.5 117t-1 149.5q17 105 72.5 184.5t138 124.5t180.5 45q77 0 137 -27.5t99 -77t54 -117.5t1 -149q-17 -104 -72.5 -183.5t-137.5 -124.5t-179 -45zM360 65q75 0 138 36.5t106.5 101t57.5 148.5q14 83 -8 147t-73.5 100.5
t-127.5 36.5q-74 0 -139 -36.5t-108.5 -101t-57.5 -148.5q-14 -83 8.5 -147t75.5 -100.5t128 -36.5zM551 741q-28 0 -44 11t-25.5 25t-18 25t-22.5 11q-17 0 -28 -9t-19 -29h-63q8 42 36.5 72t79.5 30q27 0 42.5 -11t24.5 -25t18 -25t22 -11q19 0 29.5 10t16.5 28h64
q-12 -40 -38 -71t-75 -31z" />
    <glyph glyph-name="Odieresis" unicode="&#xd6;" horiz-adv-x="777" 
d="M357 -12q-77 0 -137.5 27t-100 76.5t-54.5 117t-1 149.5q17 105 72.5 184.5t138 124.5t180.5 45q77 0 137 -27.5t99 -77t54 -117.5t1 -149q-17 -104 -72.5 -183.5t-137.5 -124.5t-179 -45zM360 65q75 0 138 36.5t106.5 101t57.5 148.5q14 83 -8 147t-73.5 100.5
t-127.5 36.5q-74 0 -139 -36.5t-108.5 -101t-57.5 -148.5q-14 -83 8.5 -147t75.5 -100.5t128 -36.5zM359 795q-20 0 -34 14t-14 34t14 34t34 14t34 -14t14 -34t-14 -34t-34 -14zM605 795q-19 0 -33.5 14t-14.5 34t14.5 34t33.5 14q20 0 34 -14t14 -34t-14 -34t-34 -14z" />
    <glyph glyph-name="multiply" unicode="&#xd7;" horiz-adv-x="623" 
d="M434 104l-284 338l55 50l285 -339zM144 104l-43 49l393 339l44 -50z" />
    <glyph glyph-name="Oslash" unicode="&#xd8;" horiz-adv-x="792" 
d="M-1 0l728 700h99l-728 -700h-99zM364 -12q-77 0 -137.5 27t-100 76.5t-54.5 117t-1 149.5q17 105 72.5 184.5t138 124.5t180.5 45q77 0 137 -27.5t99 -77t54 -117.5t1 -149q-17 -104 -72.5 -183.5t-137.5 -124.5t-179 -45zM367 65q75 0 138 36.5t106.5 101t57.5 148.5
q14 83 -8 147t-73.5 100.5t-127.5 36.5q-75 0 -139.5 -36.5t-108 -101t-57.5 -148.5q-14 -83 8.5 -147t75.5 -100.5t128 -36.5z" />
    <glyph glyph-name="Ugrave" unicode="&#xd9;" horiz-adv-x="707" 
d="M312 -15q-81 0 -136.5 33.5t-80 93.5t-12.5 137l75 451h85l-76 -451q-9 -56 7 -98t53 -65.5t89 -23.5q57 0 104.5 24t79 66.5t40.5 96.5l75 451h84l-75 -451q-13 -79 -57 -138.5t-109.5 -92.5t-145.5 -33zM449 746l-91 129h100l79 -129h-88z" />
    <glyph glyph-name="Uacute" unicode="&#xda;" horiz-adv-x="707" 
d="M312 -15q-81 0 -136.5 33.5t-80 93.5t-12.5 137l75 451h85l-76 -451q-9 -56 7 -98t53 -65.5t89 -23.5q57 0 104.5 24t79 66.5t40.5 96.5l75 451h84l-75 -451q-13 -79 -57 -138.5t-109.5 -92.5t-145.5 -33zM367 746l135 129h103l-146 -129h-92z" />
    <glyph glyph-name="Ucircumflex" unicode="&#xdb;" horiz-adv-x="707" 
d="M312 -15q-81 0 -136.5 33.5t-80 93.5t-12.5 137l75 451h85l-76 -451q-9 -56 7 -98t53 -65.5t89 -23.5q57 0 104.5 24t79 66.5t40.5 96.5l75 451h84l-75 -451q-13 -79 -57 -138.5t-109.5 -92.5t-145.5 -33zM263 757l143 130h95v-2l-140 -128h-98zM519 757l-102 129l2 1h83
l100 -130h-83z" />
    <glyph glyph-name="Udieresis" unicode="&#xdc;" horiz-adv-x="707" 
d="M312 -15q-81 0 -136.5 33.5t-80 93.5t-12.5 137l75 451h85l-76 -451q-9 -56 7 -98t53 -65.5t89 -23.5q57 0 104.5 24t79 66.5t40.5 96.5l75 451h84l-75 -451q-13 -79 -57 -138.5t-109.5 -92.5t-145.5 -33zM330 795q-20 0 -34 14t-14 34t14 34t34 14t34 -14t14 -34
t-14 -34t-34 -14zM576 795q-19 0 -33.5 14t-14.5 34t14.5 34t33.5 14q20 0 34 -14t14 -34t-14 -34t-34 -14z" />
    <glyph glyph-name="Yacute" unicode="&#xdd;" horiz-adv-x="604" 
d="M351 291l-68 35l289 374h100zM218 0l56 336h84l-56 -336h-84zM269 291l-184 409h96l165 -374zM314 741l135 129h103l-146 -129h-92z" />
    <glyph glyph-name="Thorn" unicode="&#xde;" horiz-adv-x="583" 
d="M157 139l13 78h166q39 0 71.5 19t54 53.5t28.5 76.5q10 63 -23.5 101.5t-99.5 38.5h-150l14 77h145q66 0 114 -28t70.5 -77.5t13.5 -113.5q-8 -65 -42 -116t-86.5 -80t-115.5 -29h-173zM53 1l117 700h85l-117 -700h-85z" />
    <glyph glyph-name="germandbls" unicode="&#xdf;" horiz-adv-x="564" 
d="M28 0l86 514q11 61 44.5 105.5t85 68.5t113.5 24q64 0 108.5 -25t65.5 -70t11 -105q-7 -43 -26.5 -77.5t-50 -59t-69.5 -37.5t-86 -13h-45l12 72h2q61 0 98 15t57 43.5t26 67.5q10 52 -19.5 83.5t-84.5 31.5q-40 0 -73.5 -16.5t-56 -45.5t-29.5 -67l-86 -509h-83zM206 0
l13 76h43q67 0 111 32.5t53 86.5q9 55 -21.5 85.5t-95.5 30.5h-47l12 71h13q120 0 178 -52t42 -149q-15 -86 -80.5 -133.5t-167.5 -47.5h-53z" />
    <glyph glyph-name="agrave" unicode="&#xe0;" 
d="M399 0l12 93l68 407h80l-84 -500h-76zM230 -12q-59 0 -103 28t-67.5 77.5t-21.5 114.5q2 59 21.5 113.5t55 97.5t83.5 68t107 25t99 -27.5t60 -76t17 -113.5q-1 -76 -23 -133.5t-57.5 -96t-79.5 -58t-91 -19.5zM252 61q44 0 78.5 20t59 54t37.5 75t14 83q1 66 -32 106
t-90 40q-45 0 -81 -20t-63 -53t-41 -73.5t-15 -82.5q-1 -66 35.5 -107.5t97.5 -41.5zM342 571l-91 129h100l79 -129h-88z" />
    <glyph glyph-name="aacute" unicode="&#xe1;" 
d="M399 0l12 93l68 407h80l-84 -500h-76zM230 -12q-59 0 -103 28t-67.5 77.5t-21.5 114.5q2 59 21.5 113.5t55 97.5t83.5 68t107 25t99 -27.5t60 -76t17 -113.5q-1 -76 -23 -133.5t-57.5 -96t-79.5 -58t-91 -19.5zM252 61q44 0 78.5 20t59 54t37.5 75t14 83q1 66 -32 106
t-90 40q-45 0 -81 -20t-63 -53t-41 -73.5t-15 -82.5q-1 -66 35.5 -107.5t97.5 -41.5zM261 571l135 129h103l-146 -129h-92z" />
    <glyph glyph-name="acircumflex" unicode="&#xe2;" 
d="M399 0l12 93l68 407h80l-84 -500h-76zM230 -12q-59 0 -103 28t-67.5 77.5t-21.5 114.5q2 59 21.5 113.5t55 97.5t83.5 68t107 25t99 -27.5t60 -76t17 -113.5q-1 -76 -23 -133.5t-57.5 -96t-79.5 -58t-91 -19.5zM252 61q44 0 78.5 20t59 54t37.5 75t14 83q1 66 -32 106
t-90 40q-45 0 -81 -20t-63 -53t-41 -73.5t-15 -82.5q-1 -66 35.5 -107.5t97.5 -41.5zM157 582l143 130h95v-2l-140 -128h-98zM413 582l-102 129l2 1h83l100 -130h-83z" />
    <glyph glyph-name="atilde" unicode="&#xe3;" 
d="M399 0l12 93l68 407h80l-84 -500h-76zM230 -12q-59 0 -103 28t-67.5 77.5t-21.5 114.5q2 59 21.5 113.5t55 97.5t83.5 68t107 25t99 -27.5t60 -76t17 -113.5q-1 -76 -23 -133.5t-57.5 -96t-79.5 -58t-91 -19.5zM252 61q44 0 78.5 20t59 54t37.5 75t14 83q1 66 -32 106
t-90 40q-45 0 -81 -20t-63 -53t-41 -73.5t-15 -82.5q-1 -66 35.5 -107.5t97.5 -41.5zM415 566q-28 0 -44 11t-25.5 25t-18 25t-22.5 11q-17 0 -28 -9t-19 -29h-63q8 42 36.5 72t79.5 30q27 0 42.5 -11t24.5 -25t18 -25t22 -11q19 0 29.5 10t16.5 28h64q-12 -40 -38 -71
t-75 -31z" />
    <glyph glyph-name="adieresis" unicode="&#xe4;" 
d="M399 0l12 93l68 407h80l-84 -500h-76zM230 -12q-59 0 -103 28t-67.5 77.5t-21.5 114.5q2 59 21.5 113.5t55 97.5t83.5 68t107 25t99 -27.5t60 -76t17 -113.5q-1 -76 -23 -133.5t-57.5 -96t-79.5 -58t-91 -19.5zM252 61q44 0 78.5 20t59 54t37.5 75t14 83q1 66 -32 106
t-90 40q-45 0 -81 -20t-63 -53t-41 -73.5t-15 -82.5q-1 -66 35.5 -107.5t97.5 -41.5zM223 620q-20 0 -34 14t-14 34t14 34t34 14t34 -14t14 -34t-14 -34t-34 -14zM469 620q-19 0 -33.5 14t-14.5 34t14.5 34t33.5 14q20 0 34 -14t14 -34t-14 -34t-34 -14z" />
    <glyph glyph-name="aring" unicode="&#xe5;" 
d="M399 0l12 93l68 407h80l-84 -500h-76zM230 -12q-59 0 -103 28t-67.5 77.5t-21.5 114.5q2 59 21.5 113.5t55 97.5t83.5 68t107 25t99 -27.5t60 -76t17 -113.5q-1 -76 -23 -133.5t-57.5 -96t-79.5 -58t-91 -19.5zM252 61q44 0 78.5 20t59 54t37.5 75t14 83q1 66 -32 106
t-90 40q-45 0 -81 -20t-63 -53t-41 -73.5t-15 -82.5q-1 -66 35.5 -107.5t97.5 -41.5zM332 557q-37 0 -61.5 23.5t-24.5 58.5q0 29 14 52t39 37t56 14q37 0 60.5 -23.5t23.5 -58.5q0 -31 -14 -54t-38.5 -36t-54.5 -13zM336 611q19 0 32 13.5t13 36.5q0 27 -29 27
q-21 0 -33.5 -13.5t-12.5 -35.5q0 -12 8 -20t22 -8z" />
    <glyph glyph-name="ae" unicode="&#xe6;" horiz-adv-x="878" 
d="M368 177l8 90q5 59 0 97.5t-27 58t-68 19.5q-45 0 -80.5 -18.5t-61.5 -53.5l-70 33q43 55 96.5 82t117.5 27q68 0 109.5 -28t55.5 -82.5t1 -133.5l-16 -91h-65zM189 -12q-90 0 -134 42t-32 116q12 73 67 111.5t143 38.5h184l-11 -63h-160q-67 0 -101.5 -25t-42.5 -71
q-6 -38 18 -60t75 -22q68 0 115 50.5t60 131.5l68 -2q-19 -114 -84.5 -180.5t-164.5 -66.5zM583 -12q-74 1 -125.5 36t-74 95t-9.5 138q13 76 53.5 134t101 90t130.5 31q73 -1 119 -36t63.5 -96.5t4.5 -142.5h-395q-7 -54 7.5 -94.5t48 -63t80.5 -22.5q54 -1 97.5 26
t69.5 68l65 -39q-26 -40 -62.5 -68t-80.5 -42.5t-93 -13.5zM466 301h306q1 64 -27.5 104t-90.5 40q-63 1 -113.5 -39t-74.5 -105z" />
    <glyph glyph-name="ccedilla" unicode="&#xe7;" horiz-adv-x="543" 
d="M254 -12q-74 0 -125 34t-74.5 92.5t-12.5 133.5q10 78 50 137.5t100.5 93t132.5 33.5q50 0 91 -16t70 -45t42 -67l-75 -28q-15 39 -48.5 60.5t-80.5 21.5q-51 0 -93.5 -24.5t-71.5 -68t-38 -100.5q-8 -54 6.5 -95t48 -64.5t82.5 -23.5q51 0 94 26t71 70l68 -37
q-40 -64 -101.5 -98.5t-135.5 -34.5zM192 -210q-23 0 -48.5 7t-59.5 28l27 44q16 -9 34.5 -17t34.5 -8q26 0 42.5 12t16.5 34q0 21 -20 31.5t-55 15.5l45 70l55 -13l-19 -27q25 -9 40.5 -30t15.5 -44q0 -52 -29 -77.5t-80 -25.5z" />
    <glyph glyph-name="egrave" unicode="&#xe8;" horiz-adv-x="547" 
d="M252 -12q-75 1 -126.5 36t-74 95t-9.5 138q13 76 54 134t101 90t131 31q73 -1 119 -36t63.5 -96.5t3.5 -142.5h-394q-7 -54 7.5 -94.5t47.5 -63t81 -22.5q54 -1 97 26t70 68l64 -39q-25 -40 -61.5 -68t-81 -42.5t-92.5 -13.5zM135 301h306q1 64 -27.5 104t-90.5 40
q-63 1 -113.5 -39t-74.5 -105zM352 571l-91 129h100l79 -129h-88z" />
    <glyph glyph-name="eacute" unicode="&#xe9;" horiz-adv-x="547" 
d="M252 -12q-75 1 -126.5 36t-74 95t-9.5 138q13 76 54 134t101 90t131 31q73 -1 119 -36t63.5 -96.5t3.5 -142.5h-394q-7 -54 7.5 -94.5t47.5 -63t81 -22.5q54 -1 97 26t70 68l64 -39q-25 -40 -61.5 -68t-81 -42.5t-92.5 -13.5zM135 301h306q1 64 -27.5 104t-90.5 40
q-63 1 -113.5 -39t-74.5 -105zM270 571l135 129h103l-146 -129h-92z" />
    <glyph glyph-name="ecircumflex" unicode="&#xea;" horiz-adv-x="547" 
d="M252 -12q-75 1 -126.5 36t-74 95t-9.5 138q13 76 54 134t101 90t131 31q73 -1 119 -36t63.5 -96.5t3.5 -142.5h-394q-7 -54 7.5 -94.5t47.5 -63t81 -22.5q54 -1 97 26t70 68l64 -39q-25 -40 -61.5 -68t-81 -42.5t-92.5 -13.5zM135 301h306q1 64 -27.5 104t-90.5 40
q-63 1 -113.5 -39t-74.5 -105zM166 582l143 130h95v-2l-140 -128h-98zM422 582l-102 129l2 1h83l100 -130h-83z" />
    <glyph glyph-name="edieresis" unicode="&#xeb;" horiz-adv-x="547" 
d="M252 -12q-75 1 -126.5 36t-74 95t-9.5 138q13 76 54 134t101 90t131 31q73 -1 119 -36t63.5 -96.5t3.5 -142.5h-394q-7 -54 7.5 -94.5t47.5 -63t81 -22.5q54 -1 97 26t70 68l64 -39q-25 -40 -61.5 -68t-81 -42.5t-92.5 -13.5zM135 301h306q1 64 -27.5 104t-90.5 40
q-63 1 -113.5 -39t-74.5 -105zM233 620q-20 0 -34 14t-14 34t14 34t34 14t34 -14t14 -34t-14 -34t-34 -14zM479 620q-19 0 -33.5 14t-14.5 34t14.5 34t33.5 14q20 0 34 -14t14 -34t-14 -34t-34 -14z" />
    <glyph glyph-name="igrave" unicode="&#xec;" horiz-adv-x="233" 
d="M33 0l86 500h80l-86 -500h-80zM182 571l-91 129h100l79 -129h-88z" />
    <glyph glyph-name="iacute" unicode="&#xed;" horiz-adv-x="233" 
d="M33 0l86 500h80l-86 -500h-80zM100 571l135 129h103l-146 -129h-92z" />
    <glyph glyph-name="icircumflex" unicode="&#xee;" horiz-adv-x="233" 
d="M33 0l86 500h80l-86 -500h-80zM-4 582l143 130h95v-2l-140 -128h-98zM252 582l-102 129l2 1h83l100 -130h-83z" />
    <glyph glyph-name="idieresis" unicode="&#xef;" horiz-adv-x="233" 
d="M114 620q-19 0 -33.5 14t-14.5 34t14.5 34t33.5 14q21 0 35 -14t14 -34t-14 -34t-35 -14zM250 620q-20 0 -34 14t-14 34t14 34t34 14t34 -14t14 -34t-14 -34t-34 -14zM33 0l86 500h80l-86 -500h-80z" />
    <glyph glyph-name="eth" unicode="&#xf0;" horiz-adv-x="584" 
d="M250 -12q-74 0 -125.5 33.5t-74 92.5t-9.5 135q13 74 52 130.5t98 89t128 32.5q31 0 58.5 -8.5t49.5 -24t38 -36t23 -45.5l45 -142q-13 -76 -53.5 -134t-100 -90.5t-129.5 -32.5zM251 61q50 0 92 24t71 66.5t38 97.5q9 53 -4.5 93t-46 63t-79.5 23q-50 0 -92.5 -24.5
t-71 -67t-38.5 -97.5q-9 -52 4.5 -92t46.5 -63t80 -23zM533 245l-76 21q14 84 9 149.5t-32.5 114.5t-79.5 82t-131 51l23 73q77 -16 132.5 -46.5t91.5 -74.5t54.5 -101t20 -124.5t-11.5 -144.5zM325 522l-22 47l214 119l21 -46z" />
    <glyph glyph-name="ntilde" unicode="&#xf1;" horiz-adv-x="558" 
d="M28 0l84 500h75l-11 -92l-68 -408h-80zM379 0l43 258l82 5l-45 -263h-80zM422 258q13 74 2 112.5t-38 52.5t-64 14q-67 0 -112 -47.5t-60 -132.5l-39 3q14 80 46 136.5t80 86t109 29.5q92 0 136.5 -56.5t24.5 -171.5l-4 -26h-81zM432 566q-28 0 -44 11t-25.5 25t-18 25
t-22.5 11q-17 0 -28 -9t-19 -29h-63q8 42 36.5 72t79.5 30q27 0 42.5 -11t24.5 -25t18 -25t22 -11q19 0 29.5 10t16.5 28h64q-12 -40 -38 -71t-75 -31z" />
    <glyph glyph-name="ograve" unicode="&#xf2;" horiz-adv-x="581" 
d="M256 -12q-74 0 -127 34.5t-76.5 95t-10.5 139.5q13 75 53 132.5t100 90t130 32.5q75 0 128 -34.5t76 -95t9 -139.5q-12 -75 -52 -132.5t-99.5 -90t-130.5 -32.5zM258 62q50 0 92 24t71 67t38 99q9 55 -5 97t-47.5 65.5t-82.5 23.5q-50 0 -92.5 -24t-71.5 -67t-39 -99
q-9 -55 5.5 -97t49 -65.5t82.5 -23.5zM354 571l-91 129h100l79 -129h-88z" />
    <glyph glyph-name="oacute" unicode="&#xf3;" horiz-adv-x="581" 
d="M256 -12q-74 0 -127 34.5t-76.5 95t-10.5 139.5q13 75 53 132.5t100 90t130 32.5q75 0 128 -34.5t76 -95t9 -139.5q-12 -75 -52 -132.5t-99.5 -90t-130.5 -32.5zM258 62q50 0 92 24t71 67t38 99q9 55 -5 97t-47.5 65.5t-82.5 23.5q-50 0 -92.5 -24t-71.5 -67t-39 -99
q-9 -55 5.5 -97t49 -65.5t82.5 -23.5zM272 571l135 129h103l-146 -129h-92z" />
    <glyph glyph-name="ocircumflex" unicode="&#xf4;" horiz-adv-x="581" 
d="M256 -12q-74 0 -127 34.5t-76.5 95t-10.5 139.5q13 75 53 132.5t100 90t130 32.5q75 0 128 -34.5t76 -95t9 -139.5q-12 -75 -52 -132.5t-99.5 -90t-130.5 -32.5zM258 62q50 0 92 24t71 67t38 99q9 55 -5 97t-47.5 65.5t-82.5 23.5q-50 0 -92.5 -24t-71.5 -67t-39 -99
q-9 -55 5.5 -97t49 -65.5t82.5 -23.5zM168 582l143 130h95v-2l-140 -128h-98zM424 582l-102 129l2 1h83l100 -130h-83z" />
    <glyph glyph-name="otilde" unicode="&#xf5;" horiz-adv-x="581" 
d="M256 -12q-74 0 -127 34.5t-76.5 95t-10.5 139.5q13 75 53 132.5t100 90t130 32.5q75 0 128 -34.5t76 -95t9 -139.5q-12 -75 -52 -132.5t-99.5 -90t-130.5 -32.5zM258 62q50 0 92 24t71 67t38 99q9 55 -5 97t-47.5 65.5t-82.5 23.5q-50 0 -92.5 -24t-71.5 -67t-39 -99
q-9 -55 5.5 -97t49 -65.5t82.5 -23.5zM427 566q-28 0 -44 11t-25.5 25t-18 25t-22.5 11q-17 0 -28 -9t-19 -29h-63q8 42 36.5 72t79.5 30q27 0 42.5 -11t24.5 -25t18 -25t22 -11q19 0 29.5 10t16.5 28h64q-12 -40 -38 -71t-75 -31z" />
    <glyph glyph-name="odieresis" unicode="&#xf6;" horiz-adv-x="581" 
d="M256 -12q-74 0 -127 34.5t-76.5 95t-10.5 139.5q13 75 53 132.5t100 90t130 32.5q75 0 128 -34.5t76 -95t9 -139.5q-12 -75 -52 -132.5t-99.5 -90t-130.5 -32.5zM258 62q50 0 92 24t71 67t38 99q9 55 -5 97t-47.5 65.5t-82.5 23.5q-50 0 -92.5 -24t-71.5 -67t-39 -99
q-9 -55 5.5 -97t49 -65.5t82.5 -23.5zM235 620q-20 0 -34 14t-14 34t14 34t34 14t34 -14t14 -34t-14 -34t-34 -14zM481 620q-19 0 -33.5 14t-14.5 34t14.5 34t33.5 14q20 0 34 -14t14 -34t-14 -34t-34 -14z" />
    <glyph glyph-name="divide" unicode="&#xf7;" horiz-adv-x="623" 
d="M119 262l13 71h388l-12 -71h-389zM292 99q-21 0 -33.5 15t-8.5 36q2 16 16 28t31 12q20 0 32.5 -15t8.5 -36q-2 -16 -16 -28t-30 -12zM343 405q-21 0 -33.5 15t-9.5 36q3 16 17 28t31 12q21 0 33 -15t9 -36q-3 -16 -16.5 -28t-30.5 -12z" />
    <glyph glyph-name="oslash" unicode="&#xf8;" horiz-adv-x="586" 
d="M-14 0l523 500h91l-524 -500h-90zM258 -12q-74 0 -127 34.5t-76.5 95t-10.5 139.5q13 75 53 132.5t100 90t130 32.5q75 0 128 -34.5t76 -95t9 -139.5q-12 -75 -52 -132.5t-99.5 -90t-130.5 -32.5zM260 62q50 0 92 24t71 67t38 99q9 55 -5 97t-47.5 65.5t-82.5 23.5
q-50 0 -92.5 -24t-71.5 -67t-39 -99q-9 -55 5.5 -97t49 -65.5t82.5 -23.5z" />
    <glyph glyph-name="ugrave" unicode="&#xf9;" horiz-adv-x="558" 
d="M371 0l11 92l68 408h80l-84 -500h-75zM52 221l47 279h80l-43 -258zM136 242q-13 -73 -2 -112t38.5 -53t63.5 -14q67 0 112 47.5t60 132.5l39 -3q-13 -80 -45.5 -136.5t-80 -86t-109.5 -29.5q-91 0 -135.5 56.5t-25.5 171.5l4 26h81zM337 571l-91 129h100l79 -129h-88z
" />
    <glyph glyph-name="uacute" unicode="&#xfa;" horiz-adv-x="558" 
d="M371 0l11 92l68 408h80l-84 -500h-75zM52 221l47 279h80l-43 -258zM136 242q-13 -73 -2 -112t38.5 -53t63.5 -14q67 0 112 47.5t60 132.5l39 -3q-13 -80 -45.5 -136.5t-80 -86t-109.5 -29.5q-91 0 -135.5 56.5t-25.5 171.5l4 26h81zM255 571l135 129h103l-146 -129h-92z
" />
    <glyph glyph-name="ucircumflex" unicode="&#xfb;" horiz-adv-x="558" 
d="M371 0l11 92l68 408h80l-84 -500h-75zM52 221l47 279h80l-43 -258zM136 242q-13 -73 -2 -112t38.5 -53t63.5 -14q67 0 112 47.5t60 132.5l39 -3q-13 -80 -45.5 -136.5t-80 -86t-109.5 -29.5q-91 0 -135.5 56.5t-25.5 171.5l4 26h81zM151 582l143 130h95v-2l-140 -128h-98
zM407 582l-102 129l2 1h83l100 -130h-83z" />
    <glyph glyph-name="udieresis" unicode="&#xfc;" horiz-adv-x="558" 
d="M371 0l11 92l68 408h80l-84 -500h-75zM52 221l47 279h80l-43 -258zM136 242q-13 -73 -2 -112t38.5 -53t63.5 -14q67 0 112 47.5t60 132.5l39 -3q-13 -80 -45.5 -136.5t-80 -86t-109.5 -29.5q-91 0 -135.5 56.5t-25.5 171.5l4 26h81zM218 620q-20 0 -34 14t-14 34t14 34
t34 14t34 -14t14 -34t-14 -34t-34 -14zM464 620q-19 0 -33.5 14t-14.5 34t14.5 34t33.5 14q20 0 34 -14t14 -34t-14 -34t-34 -14z" />
    <glyph glyph-name="yacute" unicode="&#xfd;" horiz-adv-x="525" 
d="M41 -212q-20 0 -44 7.5t-51 20.5l38 65q43 -19 63 -19q27 0 48.5 15.5t36.5 41.5l80 135l260 446h87l-335 -571q-26 -45 -51.5 -76.5t-56.5 -48t-75 -16.5zM183 0l-133 500h85l111 -445l15 -55h-78zM246 571l135 129h103l-146 -129h-92z" />
    <glyph glyph-name="thorn" unicode="&#xfe;" 
d="M-5 -200l150 900h80l-150 -900h-80zM357 512q59 0 103 -28t68 -77.5t21 -114.5q-2 -59 -21.5 -113.5t-55 -97.5t-83.5 -68t-107 -25q-58 0 -98.5 27.5t-60.5 76t-17 113.5q1 76 23 133.5t57.5 96t79.5 58t91 19.5zM335 439q-44 0 -78.5 -20t-59 -54t-37.5 -75t-14 -83
q-1 -66 32 -106t90 -40q45 0 81 20t63 53t41 73.5t15 82.5q1 66 -35.5 107.5t-97.5 41.5z" />
    <glyph glyph-name="ydieresis" unicode="&#xff;" horiz-adv-x="525" 
d="M41 -212q-20 0 -44 7.5t-51 20.5l38 65q43 -19 63 -19q27 0 48.5 15.5t36.5 41.5l80 135l260 446h87l-335 -571q-26 -45 -51.5 -76.5t-56.5 -48t-75 -16.5zM183 0l-133 500h85l111 -445l15 -55h-78zM209 620q-20 0 -34 14t-14 34t14 34t34 14t34 -14t14 -34t-14 -34
t-34 -14zM455 620q-19 0 -33.5 14t-14.5 34t14.5 34t33.5 14q20 0 34 -14t14 -34t-14 -34t-34 -14z" />
    <glyph glyph-name="Amacron" unicode="&#x100;" horiz-adv-x="682" 
d="M-33 0l402 700h91l-396 -700h-97zM545 0l-164 700h81l168 -700h-85zM135 199l13 76h389l-13 -76h-389zM272 750l13 73h306l-12 -73h-307z" />
    <glyph glyph-name="amacron" unicode="&#x101;" 
d="M399 0l12 93l68 407h80l-84 -500h-76zM230 -12q-59 0 -103 28t-67.5 77.5t-21.5 114.5q2 59 21.5 113.5t55 97.5t83.5 68t107 25t99 -27.5t60 -76t17 -113.5q-1 -76 -23 -133.5t-57.5 -96t-79.5 -58t-91 -19.5zM252 61q44 0 78.5 20t59 54t37.5 75t14 83q1 66 -32 106
t-90 40q-45 0 -81 -20t-63 -53t-41 -73.5t-15 -82.5q-1 -66 35.5 -107.5t97.5 -41.5zM177 575l13 73h306l-12 -73h-307z" />
    <glyph glyph-name="Abreve" unicode="&#x102;" horiz-adv-x="682" 
d="M-33 0l402 700h91l-396 -700h-97zM545 0l-164 700h81l168 -700h-85zM135 199l13 76h389l-13 -76h-389zM429 739q-51 0 -87.5 17.5t-53.5 48.5t-11 70h78q-4 -31 17 -51t59 -20q41 0 70 20.5t34 50.5h80q-7 -41 -33 -71.5t-65.5 -47.5t-87.5 -17z" />
    <glyph glyph-name="abreve" unicode="&#x103;" 
d="M399 0l12 93l68 407h80l-84 -500h-76zM230 -12q-59 0 -103 28t-67.5 77.5t-21.5 114.5q2 59 21.5 113.5t55 97.5t83.5 68t107 25t99 -27.5t60 -76t17 -113.5q-1 -76 -23 -133.5t-57.5 -96t-79.5 -58t-91 -19.5zM252 61q44 0 78.5 20t59 54t37.5 75t14 83q1 66 -32 106
t-90 40q-45 0 -81 -20t-63 -53t-41 -73.5t-15 -82.5q-1 -66 35.5 -107.5t97.5 -41.5zM335 564q-51 0 -87.5 17.5t-53.5 48.5t-11 70h78q-4 -31 17 -51t59 -20q41 0 70 20.5t34 50.5h80q-7 -41 -33 -71.5t-65.5 -47.5t-87.5 -17z" />
    <glyph glyph-name="Aogonek" unicode="&#x104;" horiz-adv-x="682" 
d="M-33 0l402 700h91l-396 -700h-97zM545 0l-164 700h81l168 -700h-85zM135 199l13 76h389l-13 -76h-389zM549 -212q-53 0 -81 24.5t-23 71.5q4 22 20 44t41.5 43t55.5 40l68 -11q-25 -16 -49.5 -34.5t-42 -40t-20.5 -45.5q-5 -27 27 -27q18 0 33 5t19 7l20 -59
q-14 -9 -31.5 -13.5t-36.5 -4.5z" />
    <glyph glyph-name="aogonek" unicode="&#x105;" 
d="M399 0l12 93l68 407h80l-84 -500h-76zM230 -12q-59 0 -103 28t-67.5 77.5t-21.5 114.5q2 59 21.5 113.5t55 97.5t83.5 68t107 25t99 -27.5t60 -76t17 -113.5q-1 -76 -23 -133.5t-57.5 -96t-79.5 -58t-91 -19.5zM252 61q44 0 78.5 20t59 54t37.5 75t14 83q1 66 -32 106
t-90 40q-45 0 -81 -20t-63 -53t-41 -73.5t-15 -82.5q-1 -66 35.5 -107.5t97.5 -41.5zM393 -212q-53 0 -81 24.5t-23 71.5q4 22 20 44t41.5 43t55.5 40l68 -11q-25 -16 -49.5 -34.5t-42 -40t-20.5 -45.5q-5 -27 27 -27q18 0 33 5t19 7l20 -59q-14 -9 -31.5 -13.5t-36.5 -4.5z
" />
    <glyph glyph-name="Cacute" unicode="&#x106;" horiz-adv-x="722" 
d="M350 -12q-99 0 -169 45.5t-101.5 125.5t-17.5 184q12 80 46 147t87 117t120 77.5t142 27.5q65 0 120 -23t95 -64.5t56 -93.5l-77 -32q-13 41 -42.5 71.5t-68.5 47.5t-84 17q-58 0 -110 -22t-93.5 -62.5t-69 -94.5t-37.5 -118q-12 -81 10 -143t73 -97t124 -35
q48 0 95.5 20t88 54.5t67.5 78.5l70 -42q-36 -55 -88 -97t-113.5 -65.5t-122.5 -23.5zM399 746l135 129h103l-146 -129h-92z" />
    <glyph glyph-name="cacute" unicode="&#x107;" horiz-adv-x="543" 
d="M254 -12q-74 0 -125 34t-74.5 92.5t-12.5 133.5q10 78 50 137.5t100.5 93t132.5 33.5q50 0 91 -16t70 -45t42 -67l-75 -28q-15 39 -48.5 60.5t-80.5 21.5q-51 0 -93.5 -24.5t-71.5 -68t-38 -100.5q-8 -54 6.5 -95t48 -64.5t82.5 -23.5q51 0 94 26t71 70l68 -37
q-40 -64 -101.5 -98.5t-135.5 -34.5zM273 571l135 129h103l-146 -129h-92z" />
    <glyph glyph-name="Ccircumflex" unicode="&#x108;" horiz-adv-x="722" 
d="M350 -12q-99 0 -169 45.5t-101.5 125.5t-17.5 184q12 80 46 147t87 117t120 77.5t142 27.5q65 0 120 -23t95 -64.5t56 -93.5l-77 -32q-13 41 -42.5 71.5t-68.5 47.5t-84 17q-58 0 -110 -22t-93.5 -62.5t-69 -94.5t-37.5 -118q-12 -81 10 -143t73 -97t124 -35
q48 0 95.5 20t88 54.5t67.5 78.5l70 -42q-36 -55 -88 -97t-113.5 -65.5t-122.5 -23.5zM295 757l143 130h95v-2l-140 -128h-98zM551 757l-102 129l2 1h83l100 -130h-83z" />
    <glyph glyph-name="ccircumflex" unicode="&#x109;" horiz-adv-x="543" 
d="M254 -12q-74 0 -125 34t-74.5 92.5t-12.5 133.5q10 78 50 137.5t100.5 93t132.5 33.5q50 0 91 -16t70 -45t42 -67l-75 -28q-15 39 -48.5 60.5t-80.5 21.5q-51 0 -93.5 -24.5t-71.5 -68t-38 -100.5q-8 -54 6.5 -95t48 -64.5t82.5 -23.5q51 0 94 26t71 70l68 -37
q-40 -64 -101.5 -98.5t-135.5 -34.5zM169 582l143 130h95v-2l-140 -128h-98zM425 582l-102 129l2 1h83l100 -130h-83z" />
    <glyph glyph-name="Cdotaccent" unicode="&#x10a;" horiz-adv-x="722" 
d="M350 -12q-99 0 -169 45.5t-101.5 125.5t-17.5 184q12 80 46 147t87 117t120 77.5t142 27.5q65 0 120 -23t95 -64.5t56 -93.5l-77 -32q-13 41 -42.5 71.5t-68.5 47.5t-84 17q-58 0 -110 -22t-93.5 -62.5t-69 -94.5t-37.5 -118q-12 -81 10 -143t73 -97t124 -35
q48 0 95.5 20t88 54.5t67.5 78.5l70 -42q-36 -55 -88 -97t-113.5 -65.5t-122.5 -23.5zM485 791q-20 0 -35 15t-15 35q0 21 15 35.5t35 14.5q21 0 35.5 -14.5t14.5 -35.5q0 -20 -14.5 -35t-35.5 -15z" />
    <glyph glyph-name="cdotaccent" unicode="&#x10b;" horiz-adv-x="543" 
d="M254 -12q-74 0 -125 34t-74.5 92.5t-12.5 133.5q10 78 50 137.5t100.5 93t132.5 33.5q50 0 91 -16t70 -45t42 -67l-75 -28q-15 39 -48.5 60.5t-80.5 21.5q-51 0 -93.5 -24.5t-71.5 -68t-38 -100.5q-8 -54 6.5 -95t48 -64.5t82.5 -23.5q51 0 94 26t71 70l68 -37
q-40 -64 -101.5 -98.5t-135.5 -34.5zM359 616q-20 0 -35 15t-15 35q0 21 15 35.5t35 14.5q21 0 35.5 -14.5t14.5 -35.5q0 -20 -14.5 -35t-35.5 -15z" />
    <glyph glyph-name="Ccaron" unicode="&#x10c;" horiz-adv-x="722" 
d="M350 -12q-99 0 -169 45.5t-101.5 125.5t-17.5 184q12 80 46 147t87 117t120 77.5t142 27.5q65 0 120 -23t95 -64.5t56 -93.5l-77 -32q-13 41 -42.5 71.5t-68.5 47.5t-84 17q-58 0 -110 -22t-93.5 -62.5t-69 -94.5t-37.5 -118q-12 -81 10 -143t73 -97t124 -35
q48 0 95.5 20t88 54.5t67.5 78.5l70 -42q-36 -55 -88 -97t-113.5 -65.5t-122.5 -23.5zM420 746v1l140 128h97l-142 -129h-95zM419 746l-100 129h83l102 -129h-2h-83z" />
    <glyph glyph-name="ccaron" unicode="&#x10d;" horiz-adv-x="543" 
d="M254 -12q-74 0 -125 34t-74.5 92.5t-12.5 133.5q10 78 50 137.5t100.5 93t132.5 33.5q50 0 91 -16t70 -45t42 -67l-75 -28q-15 39 -48.5 60.5t-80.5 21.5q-51 0 -93.5 -24.5t-71.5 -68t-38 -100.5q-8 -54 6.5 -95t48 -64.5t82.5 -23.5q51 0 94 26t71 70l68 -37
q-40 -64 -101.5 -98.5t-135.5 -34.5zM294 571v1l140 128h97l-142 -129h-95zM293 571l-100 129h83l102 -129h-2h-83z" />
    <glyph glyph-name="Dcaron" unicode="&#x10e;" horiz-adv-x="688" 
d="M51 0l117 700h213q98 0 166 -46t98.5 -125.5t12.5 -183.5q-13 -76 -48 -139.5t-87.5 -109t-118.5 -71t-140 -25.5h-213zM149 78h126q52 0 102 21t90.5 59.5t69 89t37.5 107.5q13 75 -10 135t-74 96t-121 36h-130zM342 746v1l140 128h97l-142 -129h-95zM341 746l-100 129
h83l102 -129h-2h-83z" />
    <glyph glyph-name="dcaron" unicode="&#x10f;" 
d="M399 0l12 93l101 607h80l-117 -700h-76zM230 -12q-59 0 -103 28t-67.5 77.5t-21.5 114.5q2 59 21.5 113.5t55 97.5t83.5 68t107 25t99 -27.5t60 -76t17 -113.5q-1 -76 -23 -133.5t-57.5 -96t-79.5 -58t-91 -19.5zM252 61q44 0 78.5 20t59 54t37.5 75t14 83q1 66 -32 106
t-90 40q-45 0 -81 -20t-63 -53t-41 -73.5t-15 -82.5q-1 -66 35.5 -107.5t97.5 -41.5zM585 531l78 168h85l-94 -168h-69z" />
    <glyph glyph-name="Dcroat" unicode="&#x110;" horiz-adv-x="751" 
d="M84 314l11 70h319l-11 -70h-319zM115 0l117 700h213q97 0 165 -46t98.5 -125.5t12.5 -183.5q-13 -76 -47.5 -139.5t-87.5 -109t-119 -71t-139 -25.5h-213zM212 78h126q53 0 102.5 21t90.5 59.5t69 89t37 107.5q13 75 -10 135t-73.5 96t-121.5 36h-129z" />
    <glyph glyph-name="dcroat" unicode="&#x111;" horiz-adv-x="586" 
d="M329 567l10 63h316l-10 -63h-316zM399 0l12 93l101 607h80l-117 -700h-76zM230 -12q-59 0 -103 28t-67.5 77.5t-21.5 114.5q2 59 21.5 113.5t55 97.5t83.5 68t107 25t99 -27.5t60 -76t17 -113.5q-1 -76 -23 -133.5t-57.5 -96t-79.5 -58t-91 -19.5zM252 61q44 0 78.5 20
t59 54t37.5 75t14 83q1 66 -32 106t-90 40q-45 0 -81 -20t-63 -53t-41 -73.5t-15 -82.5q-1 -66 35.5 -107.5t97.5 -41.5z" />
    <glyph glyph-name="Emacron" unicode="&#x112;" horiz-adv-x="592" 
d="M51 0l117 700h414l-12 -77h-330l-38 -226h301l-13 -76h-300l-41 -244h331l-13 -77h-416zM234 750l13 73h306l-12 -73h-307z" />
    <glyph glyph-name="emacron" unicode="&#x113;" horiz-adv-x="547" 
d="M252 -12q-75 1 -126.5 36t-74 95t-9.5 138q13 76 54 134t101 90t131 31q73 -1 119 -36t63.5 -96.5t3.5 -142.5h-394q-7 -54 7.5 -94.5t47.5 -63t81 -22.5q54 -1 97 26t70 68l64 -39q-25 -40 -61.5 -68t-81 -42.5t-92.5 -13.5zM135 301h306q1 64 -27.5 104t-90.5 40
q-63 1 -113.5 -39t-74.5 -105zM187 575l13 73h306l-12 -73h-307z" />
    <glyph glyph-name="Edotaccent" unicode="&#x116;" horiz-adv-x="592" 
d="M51 0l117 700h414l-12 -77h-330l-38 -226h301l-13 -76h-300l-41 -244h331l-13 -77h-416zM403 791q-20 0 -35 15t-15 35q0 21 15 35.5t35 14.5q21 0 35.5 -14.5t14.5 -35.5q0 -20 -14.5 -35t-35.5 -15z" />
    <glyph glyph-name="edotaccent" unicode="&#x117;" horiz-adv-x="547" 
d="M252 -12q-75 1 -126.5 36t-74 95t-9.5 138q13 76 54 134t101 90t131 31q73 -1 119 -36t63.5 -96.5t3.5 -142.5h-394q-7 -54 7.5 -94.5t47.5 -63t81 -22.5q54 -1 97 26t70 68l64 -39q-25 -40 -61.5 -68t-81 -42.5t-92.5 -13.5zM135 301h306q1 64 -27.5 104t-90.5 40
q-63 1 -113.5 -39t-74.5 -105zM356 616q-20 0 -35 15t-15 35q0 21 15 35.5t35 14.5q21 0 35.5 -14.5t14.5 -35.5q0 -20 -14.5 -35t-35.5 -15z" />
    <glyph glyph-name="Eogonek" unicode="&#x118;" horiz-adv-x="592" 
d="M51 0l117 700h414l-12 -77h-330l-38 -226h301l-13 -76h-300l-41 -244h331l-13 -77h-416zM386 -212q-53 0 -81 24.5t-23 71.5q4 22 20 44t41.5 43t55.5 40l68 -11q-25 -16 -49.5 -34.5t-42 -40t-20.5 -45.5q-5 -27 27 -27q18 0 33 5t19 7l20 -59q-14 -9 -31.5 -13.5
t-36.5 -4.5z" />
    <glyph glyph-name="eogonek" unicode="&#x119;" horiz-adv-x="547" 
d="M252 -12q-75 1 -126.5 36t-74 95t-9.5 138q13 76 54 134t101 90t131 31q73 -1 119 -36t63.5 -96.5t3.5 -142.5h-394q-7 -54 7.5 -94.5t47.5 -63t81 -22.5q54 -1 97 26t70 68l64 -39q-25 -40 -61.5 -68t-81 -42.5t-92.5 -13.5zM135 301h306q1 64 -27.5 104t-90.5 40
q-63 1 -113.5 -39t-74.5 -105zM385 -198q-34 0 -61 10t-42 28t-15 42t11 48.5t31.5 47t46.5 42t56 34.5l21 -3q-42 -33 -67.5 -74t-25.5 -76q0 -15 11 -24.5t27 -9.5q17 0 35 3.5t30 8.5l21 -59q-17 -8 -39 -13t-40 -5z" />
    <glyph glyph-name="Ecaron" unicode="&#x11a;" horiz-adv-x="592" 
d="M51 0l117 700h414l-12 -77h-330l-38 -226h301l-13 -76h-300l-41 -244h331l-13 -77h-416zM339 746v1l140 128h97l-142 -129h-95zM338 746l-100 129h83l102 -129h-2h-83z" />
    <glyph glyph-name="ecaron" unicode="&#x11b;" horiz-adv-x="547" 
d="M252 -12q-75 1 -126.5 36t-74 95t-9.5 138q13 76 54 134t101 90t131 31q73 -1 119 -36t63.5 -96.5t3.5 -142.5h-394q-7 -54 7.5 -94.5t47.5 -63t81 -22.5q54 -1 97 26t70 68l64 -39q-25 -40 -61.5 -68t-81 -42.5t-92.5 -13.5zM135 301h306q1 64 -27.5 104t-90.5 40
q-63 1 -113.5 -39t-74.5 -105zM292 571v1l140 128h97l-142 -129h-95zM291 571l-100 129h83l102 -129h-2h-83z" />
    <glyph glyph-name="Gcircumflex" unicode="&#x11c;" horiz-adv-x="760" 
d="M370 -12q-106 0 -180.5 45.5t-108 125.5t-19.5 183q12 80 47.5 147.5t91.5 117.5t127 77.5t152 27.5q57 0 108.5 -19t90.5 -51.5t60 -74.5l-73 -41q-15 33 -44 57.5t-66.5 38t-78.5 13.5q-62 0 -117.5 -22t-100 -62t-74 -94.5t-39.5 -119.5q-11 -80 13 -141t80 -96
t134 -35q69 0 127.5 29t97.5 79.5t52 115.5l82 3q-11 -65 -42.5 -120.5t-80 -96.5t-109.5 -64t-130 -23zM477 284l12 73h254l-11 -65l-42 -8h-213zM315 782l143 130h95v-2l-140 -128h-98zM571 782l-102 129l2 1h83l100 -130h-83z" />
    <glyph glyph-name="gcircumflex" unicode="&#x11d;" horiz-adv-x="586" 
d="M198 -212q-49 0 -88 10t-64.5 22.5t-37.5 19.5l37 62q12 -7 34 -17t53 -17.5t67 -7.5q74 0 130.5 45.5t72.5 143.5l76 451h80l-76 -453q-14 -87 -54.5 -144.5t-100 -86t-129.5 -28.5zM232 4q-69 0 -116 33t-66.5 92.5t-6.5 136.5q13 73 50 128.5t91.5 86.5t119.5 31
q66 0 109.5 -33t60.5 -91t4 -135q-12 -73 -47.5 -129.5t-86.5 -88t-112 -31.5zM253 73q45 0 83.5 24t65.5 66.5t36 97.5q9 53 -3.5 93.5t-42 64t-74.5 23.5q-48 0 -88.5 -24t-68.5 -66t-37 -96q-9 -53 4.5 -94.5t45.5 -65t79 -23.5zM155 582l143 130h95v-2l-140 -128h-98z
M411 582l-102 129l2 1h83l100 -130h-83z" />
    <glyph glyph-name="Gbreve" unicode="&#x11e;" horiz-adv-x="760" 
d="M370 -12q-106 0 -180.5 45.5t-108 125.5t-19.5 183q12 80 47.5 147.5t91.5 117.5t127 77.5t152 27.5q57 0 108.5 -19t90.5 -51.5t60 -74.5l-73 -41q-15 33 -44 57.5t-66.5 38t-78.5 13.5q-62 0 -117.5 -22t-100 -62t-74 -94.5t-39.5 -119.5q-11 -80 13 -141t80 -96
t134 -35q69 0 127.5 29t97.5 79.5t52 115.5l82 3q-11 -65 -42.5 -120.5t-80 -96.5t-109.5 -64t-130 -23zM477 284l12 73h254l-11 -65l-42 -8h-213zM493 764q-51 0 -87.5 17.5t-53.5 48.5t-11 70h78q-4 -31 17 -51t59 -20q41 0 70 20.5t34 50.5h80q-7 -41 -33 -71.5
t-65.5 -47.5t-87.5 -17z" />
    <glyph glyph-name="gbreve" unicode="&#x11f;" horiz-adv-x="586" 
d="M198 -212q-49 0 -88 10t-64.5 22.5t-37.5 19.5l37 62q12 -7 34 -17t53 -17.5t67 -7.5q74 0 130.5 45.5t72.5 143.5l76 451h80l-76 -453q-14 -87 -54.5 -144.5t-100 -86t-129.5 -28.5zM232 4q-69 0 -116 33t-66.5 92.5t-6.5 136.5q13 73 50 128.5t91.5 86.5t119.5 31
q66 0 109.5 -33t60.5 -91t4 -135q-12 -73 -47.5 -129.5t-86.5 -88t-112 -31.5zM253 73q45 0 83.5 24t65.5 66.5t36 97.5q9 53 -3.5 93.5t-42 64t-74.5 23.5q-48 0 -88.5 -24t-68.5 -66t-37 -96q-9 -53 4.5 -94.5t45.5 -65t79 -23.5zM334 564q-51 0 -87.5 17.5t-53.5 48.5
t-11 70h78q-4 -31 17 -51t59 -20q41 0 70 20.5t34 50.5h80q-7 -41 -33 -71.5t-65.5 -47.5t-87.5 -17z" />
    <glyph glyph-name="Gdotaccent" unicode="&#x120;" horiz-adv-x="760" 
d="M370 -12q-106 0 -180.5 45.5t-108 125.5t-19.5 183q12 80 47.5 147.5t91.5 117.5t127 77.5t152 27.5q57 0 108.5 -19t90.5 -51.5t60 -74.5l-73 -41q-15 33 -44 57.5t-66.5 38t-78.5 13.5q-62 0 -117.5 -22t-100 -62t-74 -94.5t-39.5 -119.5q-11 -80 13 -141t80 -96
t134 -35q69 0 127.5 29t97.5 79.5t52 115.5l82 3q-11 -65 -42.5 -120.5t-80 -96.5t-109.5 -64t-130 -23zM477 284l12 73h254l-11 -65l-42 -8h-213zM505 816q-20 0 -35 15t-15 35q0 21 15 35.5t35 14.5q21 0 35.5 -14.5t14.5 -35.5q0 -20 -14.5 -35t-35.5 -15z" />
    <glyph glyph-name="gdotaccent" unicode="&#x121;" horiz-adv-x="586" 
d="M198 -212q-49 0 -88 10t-64.5 22.5t-37.5 19.5l37 62q12 -7 34 -17t53 -17.5t67 -7.5q74 0 130.5 45.5t72.5 143.5l76 451h80l-76 -453q-14 -87 -54.5 -144.5t-100 -86t-129.5 -28.5zM232 4q-69 0 -116 33t-66.5 92.5t-6.5 136.5q13 73 50 128.5t91.5 86.5t119.5 31
q66 0 109.5 -33t60.5 -91t4 -135q-12 -73 -47.5 -129.5t-86.5 -88t-112 -31.5zM253 73q45 0 83.5 24t65.5 66.5t36 97.5q9 53 -3.5 93.5t-42 64t-74.5 23.5q-48 0 -88.5 -24t-68.5 -66t-37 -96q-9 -53 4.5 -94.5t45.5 -65t79 -23.5zM345 616q-20 0 -35 15t-15 35
q0 21 15 35.5t35 14.5q21 0 35.5 -14.5t14.5 -35.5q0 -20 -14.5 -35t-35.5 -15z" />
    <glyph glyph-name="uni0122" unicode="&#x122;" horiz-adv-x="760" 
d="M370 -12q-106 0 -180.5 45.5t-108 125.5t-19.5 183q12 80 47.5 147.5t91.5 117.5t127 77.5t152 27.5q57 0 108.5 -19t90.5 -51.5t60 -74.5l-73 -41q-15 33 -44 57.5t-66.5 38t-78.5 13.5q-62 0 -117.5 -22t-100 -62t-74 -94.5t-39.5 -119.5q-11 -80 13 -141t80 -96
t134 -35q69 0 127.5 29t97.5 79.5t52 115.5l82 3q-11 -65 -42.5 -120.5t-80 -96.5t-109.5 -64t-130 -23zM477 284l12 73h254l-11 -65l-42 -8h-213zM249 -200l70 140h88l-88 -140h-70z" />
    <glyph glyph-name="uni0123" unicode="&#x123;" horiz-adv-x="586" 
d="M198 -212q-49 0 -88 10t-64.5 22.5t-37.5 19.5l37 62q12 -7 34 -17t53 -17.5t67 -7.5q74 0 130.5 45.5t72.5 143.5l76 451h80l-76 -453q-14 -87 -54.5 -144.5t-100 -86t-129.5 -28.5zM232 4q-69 0 -116 33t-66.5 92.5t-6.5 136.5q13 73 50 128.5t91.5 86.5t119.5 31
q66 0 109.5 -33t60.5 -91t4 -135q-12 -73 -47.5 -129.5t-86.5 -88t-112 -31.5zM253 73q45 0 83.5 24t65.5 66.5t36 97.5q9 53 -3.5 93.5t-42 64t-74.5 23.5q-48 0 -88.5 -24t-68.5 -66t-37 -96q-9 -53 4.5 -94.5t45.5 -65t79 -23.5zM467 712l-93 -130h-90l113 130h70z" />
    <glyph glyph-name="Hcircumflex" unicode="&#x124;" horiz-adv-x="751" 
d="M51 0l117 700h85l-117 -700h-85zM532 0l117 700h84l-117 -700h-84zM180 322l12 77h424l-12 -77h-424zM289 782l143 130h95v-2l-140 -128h-98zM545 782l-102 129l2 1h83l100 -130h-83z" />
    <glyph glyph-name="hcircumflex" unicode="&#x125;" horiz-adv-x="558" 
d="M28 0l117 700h80l-117 -700h-80zM379 0l43 258l85 21l-48 -279h-80zM422 258q13 74 2 112.5t-38 52.5t-64 14q-67 0 -112 -47.5t-59 -132.5l-39 3q13 80 45 136.5t80 86t109 29.5q92 0 136.5 -56.5t24.5 -171.5l-4 -26h-81zM24 782l143 130h95v-2l-140 -128h-98zM280 782
l-102 129l2 1h83l100 -130h-83z" />
    <glyph glyph-name="Hbar" unicode="&#x126;" horiz-adv-x="751" 
d="M47 501l12 69h741l-12 -69h-741zM51 0l117 700h85l-117 -700h-85zM532 0l117 700h84l-117 -700h-84zM180 322l12 77h424l-12 -77h-424z" />
    <glyph glyph-name="hbar" unicode="&#x127;" horiz-adv-x="558" 
d="M53 567l11 63h315l-10 -63h-316zM28 0l117 700h80l-117 -700h-80zM379 0l43 258l85 21l-48 -279h-80zM422 258q13 74 2 112.5t-38 52.5t-64 14q-67 0 -112 -47.5t-59 -132.5l-39 3q13 80 45 136.5t80 86t109 29.5q92 0 136.5 -56.5t24.5 -171.5l-4 -26h-81z" />
    <glyph glyph-name="Imacron" unicode="&#x12a;" horiz-adv-x="271" 
d="M51 0l117 700h85l-117 -700h-85zM65 750l13 73h306l-12 -73h-307z" />
    <glyph glyph-name="imacron" unicode="&#x12b;" horiz-adv-x="233" 
d="M33 0l86 500h80l-86 -500h-80zM35 575l12 73h265l-12 -73h-265z" />
    <glyph glyph-name="Iogonek" unicode="&#x12e;" horiz-adv-x="271" 
d="M51 0l117 700h85l-117 -700h-85zM56 -212q-53 0 -81 24.5t-23 71.5q4 22 20 44t41.5 43t55.5 40l68 -11q-25 -16 -49.5 -34.5t-42 -40t-20.5 -45.5q-5 -27 27 -27q18 0 33 5t19 7l20 -59q-14 -9 -31.5 -13.5t-36.5 -4.5z" />
    <glyph glyph-name="iogonek" unicode="&#x12f;" horiz-adv-x="233" 
d="M33 0l86 500h80l-86 -500h-80zM186 616q-20 0 -35 15t-15 35q0 21 15 35.5t35 14.5q21 0 35.5 -14.5t14.5 -35.5q0 -20 -14.5 -35t-35.5 -15zM32 -212q-53 0 -81 24.5t-23 71.5q4 22 20 44t41.5 43t55.5 40l68 -11q-25 -16 -49.5 -34.5t-42 -40t-20.5 -45.5
q-5 -27 27 -27q18 0 33 5t19 7l20 -59q-14 -9 -31.5 -13.5t-36.5 -4.5z" />
    <glyph glyph-name="Idotaccent" unicode="&#x130;" horiz-adv-x="271" 
d="M51 0l117 700h85l-117 -700h-85zM235 791q-20 0 -35 15t-15 35q0 21 15 35.5t35 14.5q21 0 35.5 -14.5t14.5 -35.5q0 -20 -14.5 -35t-35.5 -15z" />
    <glyph glyph-name="dotlessi" unicode="&#x131;" horiz-adv-x="233" 
d="M33 0l86 500h80l-86 -500h-80z" />
    <glyph glyph-name="IJ" unicode="&#x132;" horiz-adv-x="785" 
d="M51 0l117 700h85l-117 -700h-85zM430 -12q-38 0 -67.5 10.5t-51 28.5t-35 41t-21.5 47l68 32q10 -21 24 -40t35 -30.5t50 -11.5q38 0 76.5 17.5t68.5 57.5t41 107l75 453h84l-82 -491q-9 -56 -35 -97.5t-63.5 -69t-81 -41t-85.5 -13.5z" />
    <glyph glyph-name="ij" unicode="&#x133;" horiz-adv-x="489" 
d="M33 0l86 500h80l-86 -500h-80zM186 616q-20 0 -35 15t-15 35q0 21 15 35.5t35 14.5q21 0 35.5 -14.5t14.5 -35.5q0 -20 -14.5 -35t-35.5 -15zM198 -215q-20 0 -43 7t-49 20l39 65q43 -18 61 -18q72 0 87 89l92 552h81l-94 -558q-13 -78 -56.5 -117.5t-117.5 -39.5z
M453 616q-20 0 -35 15t-15 35q0 21 15 35.5t35 14.5q21 0 35.5 -14.5t14.5 -35.5q0 -20 -14.5 -35t-35.5 -15z" />
    <glyph glyph-name="Jcircumflex" unicode="&#x134;" horiz-adv-x="515" 
d="M159 -12q-38 0 -67.5 10.5t-51 28.5t-35 41t-21.5 47l68 32q10 -21 24 -40t35 -30.5t50 -11.5q38 0 76.5 17.5t68.5 57.5t41 107l75 453h84l-82 -491q-9 -56 -35 -97.5t-63.5 -69t-81 -41t-85.5 -13.5zM298 752l143 130h95v-2l-140 -128h-98zM554 752l-102 129l2 1h83
l100 -130h-83z" />
    <glyph glyph-name="jcircumflex" unicode="&#x135;" horiz-adv-x="256" 
d="M-35 -215q-20 0 -43 7t-49 20l39 65q43 -18 61 -18q72 0 87 89l92 552h81l-94 -558q-13 -78 -56.5 -117.5t-117.5 -39.5zM31 582l143 130h95v-2l-140 -128h-98zM287 582l-102 129l2 1h83l100 -130h-83z" />
    <glyph glyph-name="uni0136" unicode="&#x136;" horiz-adv-x="610" 
d="M151 240l-23 77l432 383h107zM51 0l117 700h81l-117 -700h-81zM461 0l-229 356l62 54l267 -410h-100zM145 -200l70 140h88l-88 -140h-70z" />
    <glyph glyph-name="uni0137" unicode="&#x137;" horiz-adv-x="485" 
d="M28 0l117 700h80l-117 -700h-80zM137 161l-46 55l313 284h104zM345 0l-144 287l59 56l180 -343h-95zM89 -200l70 140h88l-88 -140h-70z" />
    <glyph glyph-name="Lacute" unicode="&#x139;" horiz-adv-x="520" 
d="M51 0l117 700h85l-104 -623h330l-13 -77h-415zM149 746l135 129h103l-146 -129h-92z" />
    <glyph glyph-name="lacute" unicode="&#x13a;" horiz-adv-x="222" 
d="M28 0l119 700h80l-119 -700h-80zM124 741l135 129h103l-146 -129h-92z" />
    <glyph glyph-name="uni013B" unicode="&#x13b;" horiz-adv-x="520" 
d="M51 0l117 700h85l-104 -623h330l-13 -77h-415zM124 -200l70 140h88l-88 -140h-70z" />
    <glyph glyph-name="uni013C" unicode="&#x13c;" horiz-adv-x="222" 
d="M28 0l119 700h80l-119 -700h-80zM-50 -200l70 140h88l-88 -140h-70z" />
    <glyph glyph-name="Lcaron" unicode="&#x13d;" horiz-adv-x="520" 
d="M51 0l117 700h85l-104 -623h330l-13 -77h-415zM291 590l78 168h85l-94 -168h-69z" />
    <glyph glyph-name="lcaron" unicode="&#x13e;" horiz-adv-x="222" 
d="M28 0l119 700h80l-119 -700h-80zM222 531l78 168h85l-94 -168h-69z" />
    <glyph glyph-name="Lslash" unicode="&#x141;" horiz-adv-x="520" 
d="M5 258l12 74l310 133l-12 -73zM51 0l117 700h85l-104 -623h330l-13 -77h-415z" />
    <glyph glyph-name="lslash" unicode="&#x142;" horiz-adv-x="282" 
d="M19 258l11 72l269 121l-11 -71zM58 0l119 700h80l-119 -700h-80z" />
    <glyph glyph-name="Nacute" unicode="&#x143;" horiz-adv-x="774" 
d="M51 0l117 700h86l323 -565l94 565h85l-117 -700h-85l-323 566l-95 -566h-85zM395 743l135 129h103l-146 -129h-92z" />
    <glyph glyph-name="nacute" unicode="&#x144;" horiz-adv-x="558" 
d="M28 0l84 500h75l-11 -92l-68 -408h-80zM379 0l43 258l82 5l-45 -263h-80zM422 258q13 74 2 112.5t-38 52.5t-64 14q-67 0 -112 -47.5t-60 -132.5l-39 3q14 80 46 136.5t80 86t109 29.5q92 0 136.5 -56.5t24.5 -171.5l-4 -26h-81zM277 571l135 129h103l-146 -129h-92z" />
    <glyph glyph-name="uni0145" unicode="&#x145;" horiz-adv-x="774" 
d="M51 0l117 700h86l323 -565l94 565h85l-117 -700h-85l-323 566l-95 -566h-85zM227 -200l70 140h88l-88 -140h-70z" />
    <glyph glyph-name="uni0146" unicode="&#x146;" horiz-adv-x="558" 
d="M28 0l84 500h75l-11 -92l-68 -408h-80zM379 0l43 258l82 5l-45 -263h-80zM422 258q13 74 2 112.5t-38 52.5t-64 14q-67 0 -112 -47.5t-60 -132.5l-39 3q14 80 46 136.5t80 86t109 29.5q92 0 136.5 -56.5t24.5 -171.5l-4 -26h-81zM126 -200l70 140h88l-88 -140h-70z" />
    <glyph glyph-name="Ncaron" unicode="&#x147;" horiz-adv-x="774" 
d="M51 0l117 700h86l323 -565l94 565h85l-117 -700h-85l-323 566l-95 -566h-85zM416 743v1l140 128h97l-142 -129h-95zM415 743l-100 129h83l102 -129h-2h-83z" />
    <glyph glyph-name="ncaron" unicode="&#x148;" horiz-adv-x="558" 
d="M28 0l84 500h75l-11 -92l-68 -408h-80zM379 0l43 258l82 5l-45 -263h-80zM422 258q13 74 2 112.5t-38 52.5t-64 14q-67 0 -112 -47.5t-60 -132.5l-39 3q14 80 46 136.5t80 86t109 29.5q92 0 136.5 -56.5t24.5 -171.5l-4 -26h-81zM299 571v1l140 128h97l-142 -129h-95z
M298 571l-100 129h83l102 -129h-2h-83z" />
    <glyph glyph-name="Eng" unicode="&#x14a;" horiz-adv-x="774" 
d="M457 -213q-21 0 -44 7.5t-50 20.5l37 64q22 -9 37.5 -13.5t23.5 -4.5q36 0 58.5 23t29.5 67l93 551h80l-92 -558q-14 -78 -56.5 -117.5t-116.5 -39.5zM51 0l117 700h86l323 -565l94 565h85l-117 -700h-85l-323 566l-95 -566h-85z" />
    <glyph glyph-name="eng" unicode="&#x14b;" horiz-adv-x="558" 
d="M278 -213q-21 0 -44 7.5t-49 20.5l38 64q22 -9 36.5 -13.5t23.5 -4.5q73 0 88 86l8 52h80l-10 -57q-14 -79 -55.5 -117t-115.5 -38zM28 -1l84 500h75l-11 -92l-68 -408h-80zM379 -1l43 257l82 5l-45 -262h-80zM422 256q13 74 2 112.5t-38 53t-64 14.5q-67 0 -112 -47.5
t-60 -132.5l-39 3q14 80 46 136t80 86t109 30q92 0 136.5 -57t24.5 -171l-4 -27h-81z" />
    <glyph glyph-name="Omacron" unicode="&#x14c;" horiz-adv-x="777" 
d="M357 -12q-77 0 -137.5 27t-100 76.5t-54.5 117t-1 149.5q17 105 72.5 184.5t138 124.5t180.5 45q77 0 137 -27.5t99 -77t54 -117.5t1 -149q-17 -104 -72.5 -183.5t-137.5 -124.5t-179 -45zM360 65q75 0 138 36.5t106.5 101t57.5 148.5q14 83 -8 147t-73.5 100.5
t-127.5 36.5q-74 0 -139 -36.5t-108.5 -101t-57.5 -148.5q-14 -83 8.5 -147t75.5 -100.5t128 -36.5zM313 750l13 73h306l-12 -73h-307z" />
    <glyph glyph-name="omacron" unicode="&#x14d;" horiz-adv-x="581" 
d="M256 -12q-74 0 -127 34.5t-76.5 95t-10.5 139.5q13 75 53 132.5t100 90t130 32.5q75 0 128 -34.5t76 -95t9 -139.5q-12 -75 -52 -132.5t-99.5 -90t-130.5 -32.5zM258 62q50 0 92 24t71 67t38 99q9 55 -5 97t-47.5 65.5t-82.5 23.5q-50 0 -92.5 -24t-71.5 -67t-39 -99
q-9 -55 5.5 -97t49 -65.5t82.5 -23.5zM189 575l13 73h306l-12 -73h-307z" />
    <glyph glyph-name="Ohungarumlaut" unicode="&#x150;" horiz-adv-x="777" 
d="M357 -12q-77 0 -137.5 27t-100 76.5t-54.5 117t-1 149.5q17 105 72.5 184.5t138 124.5t180.5 45q77 0 137 -27.5t99 -77t54 -117.5t1 -149q-17 -104 -72.5 -183.5t-137.5 -124.5t-179 -45zM360 65q75 0 138 36.5t106.5 101t57.5 148.5q14 83 -8 147t-73.5 100.5
t-127.5 36.5q-74 0 -139 -36.5t-108.5 -101t-57.5 -148.5q-14 -83 8.5 -147t75.5 -100.5t128 -36.5zM496 746l121 129h104l-132 -129h-93zM315 746l121 129h105l-132 -129h-94z" />
    <glyph glyph-name="ohungarumlaut" unicode="&#x151;" horiz-adv-x="581" 
d="M256 -12q-74 0 -127 34.5t-76.5 95t-10.5 139.5q13 75 53 132.5t100 90t130 32.5q75 0 128 -34.5t76 -95t9 -139.5q-12 -75 -52 -132.5t-99.5 -90t-130.5 -32.5zM258 62q50 0 92 24t71 67t38 99q9 55 -5 97t-47.5 65.5t-82.5 23.5q-50 0 -92.5 -24t-71.5 -67t-39 -99
q-9 -55 5.5 -97t49 -65.5t82.5 -23.5zM371 571l121 129h104l-132 -129h-93zM190 571l121 129h105l-132 -129h-94z" />
    <glyph glyph-name="OE" unicode="&#x152;" horiz-adv-x="1133" 
d="M350 -12q-101 0 -171 44t-101 124.5t-16 187.5q10 81 45 148t88 116.5t121 76.5t145 27q91 0 155.5 -41.5t93 -120.5t11.5 -190q-11 -86 -44 -155t-83 -117.5t-111.5 -74t-132.5 -25.5zM354 66q74 0 137 35t106 101t56 160q14 87 -7 148t-69.5 92.5t-118.5 31.5
q-76 0 -142.5 -38t-111 -105t-57.5 -153q-12 -81 9 -142.5t72 -95.5t126 -34zM592 0l117 700h414l-12 -77h-330l-38 -226h301l-12 -76h-301l-41 -244h331l-13 -77h-416z" />
    <glyph glyph-name="oe" unicode="&#x153;" horiz-adv-x="985" 
d="M256 -12q-74 0 -127 34.5t-76.5 95t-10.5 139.5q13 75 53 132.5t100 90t130 32.5q75 0 128 -34.5t76 -95t9 -139.5q-12 -75 -52 -132.5t-99.5 -90t-130.5 -32.5zM258 62q50 0 92 24t71 67t38 99q9 55 -5 97t-47.5 65.5t-82.5 23.5q-50 0 -92.5 -24t-71.5 -67t-39 -99
q-9 -55 5.5 -97t49 -65.5t82.5 -23.5zM690 -12q-75 1 -126.5 36t-74 95t-9.5 138q13 76 54 134t101 90t131 31q73 -1 119 -36t63.5 -96.5t3.5 -142.5h-394q-7 -54 7.5 -94.5t47.5 -63t81 -22.5q54 -1 97 26t70 68l64 -39q-25 -40 -61.5 -68t-81 -42.5t-92.5 -13.5zM573 301
h306q1 64 -27.5 104t-90.5 40q-63 1 -113.5 -39t-74.5 -105z" />
    <glyph glyph-name="Racute" unicode="&#x154;" horiz-adv-x="626" 
d="M51 0l117 700h225q69 0 117.5 -28t71 -77t10.5 -112q-10 -61 -49 -108t-98 -73.5t-128 -26.5h-135l-46 -275h-85zM447 0l-120 287l72 44l139 -331h-91zM195 353h153q39 0 73 17.5t58 49.5t30 73q9 59 -25.5 94.5t-98.5 35.5h-145zM303 746l135 129h103l-146 -129h-92z
" />
    <glyph glyph-name="racute" unicode="&#x155;" horiz-adv-x="340" 
d="M28 0l84 500h80l-84 -500h-80zM117 272q14 81 52.5 132t91 74.5t106.5 23.5l-9 -75q-44 0 -87.5 -15t-75 -48.5t-41.5 -90.5zM145 571l135 129h103l-146 -129h-92z" />
    <glyph glyph-name="uni0156" unicode="&#x156;" horiz-adv-x="626" 
d="M51 0l117 700h225q69 0 117.5 -28t71 -77t10.5 -112q-10 -61 -49 -108t-98 -73.5t-128 -26.5h-135l-46 -275h-85zM447 0l-120 287l72 44l139 -331h-91zM195 353h153q39 0 73 17.5t58 49.5t30 73q9 59 -25.5 94.5t-98.5 35.5h-145zM153 -200l70 140h88l-88 -140h-70z" />
    <glyph glyph-name="uni0157" unicode="&#x157;" horiz-adv-x="340" 
d="M28 0l84 500h80l-84 -500h-80zM117 272q14 81 52.5 132t91 74.5t106.5 23.5l-9 -75q-44 0 -87.5 -15t-75 -48.5t-41.5 -90.5zM-27 -200l70 140h88l-88 -140h-70z" />
    <glyph glyph-name="Rcaron" unicode="&#x158;" horiz-adv-x="626" 
d="M51 0l117 700h225q69 0 117.5 -28t71 -77t10.5 -112q-10 -61 -49 -108t-98 -73.5t-128 -26.5h-135l-46 -275h-85zM447 0l-120 287l72 44l139 -331h-91zM195 353h153q39 0 73 17.5t58 49.5t30 73q9 59 -25.5 94.5t-98.5 35.5h-145zM325 746v1l140 128h97l-142 -129h-95z
M324 746l-100 129h83l102 -129h-2h-83z" />
    <glyph glyph-name="rcaron" unicode="&#x159;" horiz-adv-x="340" 
d="M28 0l84 500h80l-84 -500h-80zM117 272q14 81 52.5 132t91 74.5t106.5 23.5l-9 -75q-44 0 -87.5 -15t-75 -48.5t-41.5 -90.5zM166 571v1l140 128h97l-142 -129h-95zM165 571l-100 129h83l102 -129h-2h-83z" />
    <glyph glyph-name="Sacute" unicode="&#x15a;" horiz-adv-x="614" 
d="M278 -13q-59 0 -102.5 13.5t-73.5 36t-47 50.5t-21 59l83 22q9 -43 48 -74t104 -31q51 0 96.5 15.5t73.5 47t28 77.5q0 34 -16 53.5t-45 31.5t-68 21l-72 17q-42 11 -75.5 32t-52.5 55t-18 81q2 66 37 114.5t95 75.5t137 27q70 0 117.5 -23t73.5 -58.5t32 -74.5l-82 -23
q-11 49 -50.5 76.5t-102.5 27.5q-46 0 -85.5 -17t-62.5 -48t-23 -72t25.5 -63t67.5 -33l83 -20q62 -15 99.5 -39.5t54.5 -58.5t17 -79q0 -65 -37 -114.5t-100 -77t-138 -27.5zM329 746l135 129h103l-146 -129h-92z" />
    <glyph glyph-name="sacute" unicode="&#x15b;" horiz-adv-x="470" 
d="M202 -12q-56 0 -95.5 17t-61.5 44t-28 57l73 23q10 -35 40.5 -54.5t67.5 -19.5q31 0 60.5 10.5t49 30.5t19.5 50q0 26 -21 42t-62 28l-46 13q-58 16 -89 47.5t-31 72.5q0 49 26.5 86t74 57t110.5 20q69 0 110.5 -29t52.5 -78l-71 -24q-10 35 -34.5 49t-69.5 14
q-49 0 -83.5 -24.5t-34.5 -61.5q0 -17 19 -33.5t59 -27.5l41 -11q70 -18 101.5 -54t31.5 -81q0 -49 -29 -85.5t-76 -57t-104 -20.5zM231 571l135 129h103l-146 -129h-92z" />
    <glyph glyph-name="Scircumflex" unicode="&#x15c;" horiz-adv-x="614" 
d="M278 -13q-59 0 -102.5 13.5t-73.5 36t-47 50.5t-21 59l83 22q9 -43 48 -74t104 -31q51 0 96.5 15.5t73.5 47t28 77.5q0 34 -16 53.5t-45 31.5t-68 21l-72 17q-42 11 -75.5 32t-52.5 55t-18 81q2 66 37 114.5t95 75.5t137 27q70 0 117.5 -23t73.5 -58.5t32 -74.5l-82 -23
q-11 49 -50.5 76.5t-102.5 27.5q-46 0 -85.5 -17t-62.5 -48t-23 -72t25.5 -63t67.5 -33l83 -20q62 -15 99.5 -39.5t54.5 -58.5t17 -79q0 -65 -37 -114.5t-100 -77t-138 -27.5zM225 757l143 130h95v-2l-140 -128h-98zM481 757l-102 129l2 1h83l100 -130h-83z" />
    <glyph glyph-name="scircumflex" unicode="&#x15d;" horiz-adv-x="470" 
d="M202 -12q-56 0 -95.5 17t-61.5 44t-28 57l73 23q10 -35 40.5 -54.5t67.5 -19.5q31 0 60.5 10.5t49 30.5t19.5 50q0 26 -21 42t-62 28l-46 13q-58 16 -89 47.5t-31 72.5q0 49 26.5 86t74 57t110.5 20q69 0 110.5 -29t52.5 -78l-71 -24q-10 35 -34.5 49t-69.5 14
q-49 0 -83.5 -24.5t-34.5 -61.5q0 -17 19 -33.5t59 -27.5l41 -11q70 -18 101.5 -54t31.5 -81q0 -49 -29 -85.5t-76 -57t-104 -20.5zM127 582l143 130h95v-2l-140 -128h-98zM383 582l-102 129l2 1h83l100 -130h-83z" />
    <glyph glyph-name="Scedilla" unicode="&#x15e;" horiz-adv-x="614" 
d="M278 -13q-59 0 -102.5 13.5t-73.5 36t-47 50.5t-21 59l83 22q9 -43 48 -74t104 -31q51 0 96.5 15.5t73.5 47t28 77.5q0 34 -16 53.5t-45 31.5t-68 21l-72 17q-42 11 -75.5 32t-52.5 55t-18 81q2 66 37 114.5t95 75.5t137 27q70 0 117.5 -23t73.5 -58.5t32 -74.5l-82 -23
q-11 49 -50.5 76.5t-102.5 27.5q-46 0 -85.5 -17t-62.5 -48t-23 -72t25.5 -63t67.5 -33l83 -20q62 -15 99.5 -39.5t54.5 -58.5t17 -79q0 -65 -37 -114.5t-100 -77t-138 -27.5zM215 -210q-23 0 -48.5 7t-59.5 28l27 44q16 -9 34.5 -17t34.5 -8q26 0 42.5 12t16.5 34
q0 21 -20 31.5t-55 15.5l45 70l55 -13l-19 -27q25 -9 40.5 -30t15.5 -44q0 -52 -29 -77.5t-80 -25.5z" />
    <glyph glyph-name="scedilla" unicode="&#x15f;" horiz-adv-x="470" 
d="M202 -12q-56 0 -95.5 17t-61.5 44t-28 57l73 23q10 -35 40.5 -54.5t67.5 -19.5q31 0 60.5 10.5t49 30.5t19.5 50q0 26 -21 42t-62 28l-46 13q-58 16 -89 47.5t-31 72.5q0 49 26.5 86t74 57t110.5 20q69 0 110.5 -29t52.5 -78l-71 -24q-10 35 -34.5 49t-69.5 14
q-49 0 -83.5 -24.5t-34.5 -61.5q0 -17 19 -33.5t59 -27.5l41 -11q70 -18 101.5 -54t31.5 -81q0 -49 -29 -85.5t-76 -57t-104 -20.5zM143 -222q-23 0 -48.5 7t-59.5 28l27 44q16 -9 34.5 -17t34.5 -8q26 0 42.5 12t16.5 34q0 21 -20 31.5t-55 15.5l45 70l55 -13l-19 -27
q25 -9 40.5 -30t15.5 -44q0 -52 -29 -77.5t-80 -25.5z" />
    <glyph glyph-name="Scaron" unicode="&#x160;" horiz-adv-x="614" 
d="M278 -13q-59 0 -102.5 13.5t-73.5 36t-47 50.5t-21 59l83 22q9 -43 48 -74t104 -31q51 0 96.5 15.5t73.5 47t28 77.5q0 34 -16 53.5t-45 31.5t-68 21l-72 17q-42 11 -75.5 32t-52.5 55t-18 81q2 66 37 114.5t95 75.5t137 27q70 0 117.5 -23t73.5 -58.5t32 -74.5l-82 -23
q-11 49 -50.5 76.5t-102.5 27.5q-46 0 -85.5 -17t-62.5 -48t-23 -72t25.5 -63t67.5 -33l83 -20q62 -15 99.5 -39.5t54.5 -58.5t17 -79q0 -65 -37 -114.5t-100 -77t-138 -27.5zM351 746v1l140 128h97l-142 -129h-95zM350 746l-100 129h83l102 -129h-2h-83z" />
    <glyph glyph-name="scaron" unicode="&#x161;" horiz-adv-x="470" 
d="M202 -12q-56 0 -95.5 17t-61.5 44t-28 57l73 23q10 -35 40.5 -54.5t67.5 -19.5q31 0 60.5 10.5t49 30.5t19.5 50q0 26 -21 42t-62 28l-46 13q-58 16 -89 47.5t-31 72.5q0 49 26.5 86t74 57t110.5 20q69 0 110.5 -29t52.5 -78l-71 -24q-10 35 -34.5 49t-69.5 14
q-49 0 -83.5 -24.5t-34.5 -61.5q0 -17 19 -33.5t59 -27.5l41 -11q70 -18 101.5 -54t31.5 -81q0 -49 -29 -85.5t-76 -57t-104 -20.5zM252 571v1l140 128h97l-142 -129h-95zM251 571l-100 129h83l102 -129h-2h-83z" />
    <glyph glyph-name="Tcaron" unicode="&#x164;" horiz-adv-x="552" 
d="M192 0l105 623h-223l12 77h530l-12 -77h-223l-105 -623h-84zM310 746v1l140 128h97l-142 -129h-95zM309 746l-100 129h83l102 -129h-2h-83z" />
    <glyph glyph-name="tcaron" unicode="&#x165;" horiz-adv-x="392" 
d="M221 -12q-72 0 -104.5 38.5t-20.5 108.5l87 521h80l-87 -516q-6 -38 9.5 -58t51.5 -20q12 0 25.5 5t35.5 16l23 -66q-32 -17 -55.5 -23t-44.5 -6zM59 429l11 71h317l-12 -71h-316zM291 557l78 168h85l-94 -168h-69z" />
    <glyph glyph-name="Umacron" unicode="&#x16a;" horiz-adv-x="707" 
d="M312 -15q-81 0 -136.5 33.5t-80 93.5t-12.5 137l75 451h85l-76 -451q-9 -56 7 -98t53 -65.5t89 -23.5q57 0 104.5 24t79 66.5t40.5 96.5l75 451h84l-75 -451q-13 -79 -57 -138.5t-109.5 -92.5t-145.5 -33zM284 750l13 73h306l-12 -73h-307z" />
    <glyph glyph-name="umacron" unicode="&#x16b;" horiz-adv-x="558" 
d="M371 0l11 92l68 408h80l-84 -500h-75zM52 221l47 279h80l-43 -258zM136 242q-13 -73 -2 -112t38.5 -53t63.5 -14q67 0 112 47.5t60 132.5l39 -3q-13 -80 -45.5 -136.5t-80 -86t-109.5 -29.5q-91 0 -135.5 56.5t-25.5 171.5l4 26h81zM172 575l13 73h306l-12 -73h-307z" />
    <glyph glyph-name="Ubreve" unicode="&#x16c;" horiz-adv-x="707" 
d="M312 -15q-81 0 -136.5 33.5t-80 93.5t-12.5 137l75 451h85l-76 -451q-9 -56 7 -98t53 -65.5t89 -23.5q57 0 104.5 24t79 66.5t40.5 96.5l75 451h84l-75 -451q-13 -79 -57 -138.5t-109.5 -92.5t-145.5 -33zM441 739q-51 0 -87.5 17.5t-53.5 48.5t-11 70h78q-4 -31 17 -51
t59 -20q41 0 70 20.5t34 50.5h80q-7 -41 -33 -71.5t-65.5 -47.5t-87.5 -17z" />
    <glyph glyph-name="ubreve" unicode="&#x16d;" horiz-adv-x="558" 
d="M371 0l11 92l68 408h80l-84 -500h-75zM52 221l47 279h80l-43 -258zM136 242q-13 -73 -2 -112t38.5 -53t63.5 -14q67 0 112 47.5t60 132.5l39 -3q-13 -80 -45.5 -136.5t-80 -86t-109.5 -29.5q-91 0 -135.5 56.5t-25.5 171.5l4 26h81zM329 564q-51 0 -87.5 17.5t-53.5 48.5
t-11 70h78q-4 -31 17 -51t59 -20q41 0 70 20.5t34 50.5h80q-7 -41 -33 -71.5t-65.5 -47.5t-87.5 -17z" />
    <glyph glyph-name="Uring" unicode="&#x16e;" horiz-adv-x="707" 
d="M312 -15q-81 0 -136.5 33.5t-80 93.5t-12.5 137l75 451h85l-76 -451q-9 -56 7 -98t53 -65.5t89 -23.5q57 0 104.5 24t79 66.5t40.5 96.5l75 451h84l-75 -451q-13 -79 -57 -138.5t-109.5 -92.5t-145.5 -33zM438 732q-37 0 -61.5 23.5t-24.5 58.5q0 29 14 52t39 37t56 14
q37 0 60.5 -23.5t23.5 -58.5q0 -31 -14 -54t-38.5 -36t-54.5 -13zM442 786q19 0 32 13.5t13 36.5q0 27 -29 27q-21 0 -33.5 -13.5t-12.5 -35.5q0 -12 8 -20t22 -8z" />
    <glyph glyph-name="uring" unicode="&#x16f;" horiz-adv-x="558" 
d="M371 0l11 92l68 408h80l-84 -500h-75zM52 221l47 279h80l-43 -258zM136 242q-13 -73 -2 -112t38.5 -53t63.5 -14q67 0 112 47.5t60 132.5l39 -3q-13 -80 -45.5 -136.5t-80 -86t-109.5 -29.5q-91 0 -135.5 56.5t-25.5 171.5l4 26h81zM326 557q-37 0 -61.5 23.5t-24.5 58.5
q0 29 14 52t39 37t56 14q37 0 60.5 -23.5t23.5 -58.5q0 -31 -14 -54t-38.5 -36t-54.5 -13zM330 611q19 0 32 13.5t13 36.5q0 27 -29 27q-21 0 -33.5 -13.5t-12.5 -35.5q0 -12 8 -20t22 -8z" />
    <glyph glyph-name="Uhungarumlaut" unicode="&#x170;" horiz-adv-x="707" 
d="M312 -15q-81 0 -136.5 33.5t-80 93.5t-12.5 137l75 451h85l-76 -451q-9 -56 7 -98t53 -65.5t89 -23.5q57 0 104.5 24t79 66.5t40.5 96.5l75 451h84l-75 -451q-13 -79 -57 -138.5t-109.5 -92.5t-145.5 -33zM466 746l121 129h104l-132 -129h-93zM285 746l121 129h105
l-132 -129h-94z" />
    <glyph glyph-name="uhungarumlaut" unicode="&#x171;" horiz-adv-x="558" 
d="M371 0l11 92l68 408h80l-84 -500h-75zM52 221l47 279h80l-43 -258zM136 242q-13 -73 -2 -112t38.5 -53t63.5 -14q67 0 112 47.5t60 132.5l39 -3q-13 -80 -45.5 -136.5t-80 -86t-109.5 -29.5q-91 0 -135.5 56.5t-25.5 171.5l4 26h81zM355 571l121 129h104l-132 -129h-93z
M174 571l121 129h105l-132 -129h-94z" />
    <glyph glyph-name="Uogonek" unicode="&#x172;" horiz-adv-x="707" 
d="M312 -15q-81 0 -136.5 33.5t-80 93.5t-12.5 137l75 451h85l-76 -451q-9 -56 7 -98t53 -65.5t89 -23.5q57 0 104.5 24t79 66.5t40.5 96.5l75 451h84l-75 -451q-13 -79 -57 -138.5t-109.5 -92.5t-145.5 -33zM459 -198q-34 0 -61 10t-42 28t-15 42t11 48.5t31.5 47t46.5 42
t56 34.5l21 -3q-42 -33 -67.5 -74t-25.5 -76q0 -15 11 -24.5t27 -9.5q17 0 35 3.5t30 8.5l21 -59q-17 -8 -39 -13t-40 -5z" />
    <glyph glyph-name="uogonek" unicode="&#x173;" horiz-adv-x="558" 
d="M371 0l11 92l68 408h80l-84 -500h-75zM52 221l47 279h80l-43 -258zM136 242q-13 -73 -2 -112t38.5 -53t63.5 -14q67 0 112 47.5t60 132.5l39 -3q-13 -80 -45.5 -136.5t-80 -86t-109.5 -29.5q-91 0 -135.5 56.5t-25.5 171.5l4 26h81zM366 -212q-53 0 -81 24.5t-23 71.5
q4 22 20 44t41.5 43t55.5 40l68 -11q-25 -16 -49.5 -34.5t-42 -40t-20.5 -45.5q-5 -27 27 -27q18 0 33 5t19 7l20 -59q-14 -9 -31.5 -13.5t-36.5 -4.5z" />
    <glyph glyph-name="Wcircumflex" unicode="&#x174;" horiz-adv-x="960" 
d="M606 0l333 700h86l-334 -700h-85zM181 0l-97 700h84l95 -700h-82zM188 0l323 700h83l-323 -700h-83zM600 0l-84 700h80l86 -700h-82zM388 752l143 130h95v-2l-140 -128h-98zM644 752l-102 129l2 1h83l100 -130h-83z" />
    <glyph glyph-name="wcircumflex" unicode="&#x175;" horiz-adv-x="786" 
d="M140 0l-87 500h80l84 -500h-77zM143 0l252 500h75l-250 -500h-77zM483 0l-83 500h75l84 -500h-76zM483 0l252 500h82l-254 -500h-80zM273 582l143 130h95v-2l-140 -128h-98zM529 582l-102 129l2 1h83l100 -130h-83z" />
    <glyph glyph-name="Ycircumflex" unicode="&#x176;" horiz-adv-x="604" 
d="M351 291l-68 35l289 374h100zM218 0l56 336h84l-56 -336h-84zM269 291l-184 409h96l165 -374zM210 752l143 130h95v-2l-140 -128h-98zM466 752l-102 129l2 1h83l100 -130h-83z" />
    <glyph glyph-name="ycircumflex" unicode="&#x177;" horiz-adv-x="525" 
d="M41 -212q-20 0 -44 7.5t-51 20.5l38 65q43 -19 63 -19q27 0 48.5 15.5t36.5 41.5l80 135l260 446h87l-335 -571q-26 -45 -51.5 -76.5t-56.5 -48t-75 -16.5zM183 0l-133 500h85l111 -445l15 -55h-78zM142 582l143 130h95v-2l-140 -128h-98zM398 582l-102 129l2 1h83
l100 -130h-83z" />
    <glyph glyph-name="Ydieresis" unicode="&#x178;" horiz-adv-x="604" 
d="M351 291l-68 35l289 374h100zM218 0l56 336h84l-56 -336h-84zM269 291l-184 409h96l165 -374zM277 790q-20 0 -34 14t-14 34t14 34t34 14t34 -14t14 -34t-14 -34t-34 -14zM523 790q-19 0 -33.5 14t-14.5 34t14.5 34t33.5 14q20 0 34 -14t14 -34t-14 -34t-34 -14z" />
    <glyph glyph-name="Zacute" unicode="&#x179;" horiz-adv-x="641" 
d="M18 78l557 571l82 -27l-531 -544h-108zM5 0l13 78h544l-13 -78h-544zM112 622l13 78h544l-12 -78h-545zM334 746l135 129h103l-146 -129h-92z" />
    <glyph glyph-name="zacute" unicode="&#x17a;" horiz-adv-x="491" 
d="M68 19l-54 45l409 420l53 -46zM3 0l11 64l54 6h348l-12 -70h-401zM75 430l12 70h399l-10 -62l-55 -8h-346zM229 571l135 129h103l-146 -129h-92z" />
    <glyph glyph-name="Zdotaccent" unicode="&#x17b;" horiz-adv-x="641" 
d="M18 78l557 571l82 -27l-531 -544h-108zM5 0l13 78h544l-13 -78h-544zM112 622l13 78h544l-12 -78h-545zM420 791q-20 0 -35 15t-15 35q0 21 15 35.5t35 14.5q21 0 35.5 -14.5t14.5 -35.5q0 -20 -14.5 -35t-35.5 -15z" />
    <glyph glyph-name="zdotaccent" unicode="&#x17c;" horiz-adv-x="491" 
d="M68 19l-54 45l409 420l53 -46zM3 0l11 64l54 6h348l-12 -70h-401zM75 430l12 70h399l-10 -62l-55 -8h-346zM314 616q-20 0 -35 15t-15 35q0 21 15 35.5t35 14.5q21 0 35.5 -14.5t14.5 -35.5q0 -20 -14.5 -35t-35.5 -15z" />
    <glyph glyph-name="Zcaron" unicode="&#x17d;" horiz-adv-x="641" 
d="M18 78l557 571l82 -27l-531 -544h-108zM5 0l13 78h544l-13 -78h-544zM112 622l13 78h544l-12 -78h-545zM356 746v1l140 128h97l-142 -129h-95zM355 746l-100 129h83l102 -129h-2h-83z" />
    <glyph glyph-name="zcaron" unicode="&#x17e;" horiz-adv-x="491" 
d="M68 19l-54 45l409 420l53 -46zM3 0l11 64l54 6h348l-12 -70h-401zM75 430l12 70h399l-10 -62l-55 -8h-346zM250 571v1l140 128h97l-142 -129h-95zM249 571l-100 129h83l102 -129h-2h-83z" />
    <glyph glyph-name="uni01CD" unicode="&#x1cd;" horiz-adv-x="682" 
d="M-33 0l402 700h91l-396 -700h-97zM545 0l-164 700h81l168 -700h-85zM135 199l13 76h389l-13 -76h-389zM377 746v1l140 128h97l-142 -129h-95zM376 746l-100 129h83l102 -129h-2h-83z" />
    <glyph glyph-name="uni01CE" unicode="&#x1ce;" 
d="M399 0l12 93l68 407h80l-84 -500h-76zM230 -12q-59 0 -103 28t-67.5 77.5t-21.5 114.5q2 59 21.5 113.5t55 97.5t83.5 68t107 25t99 -27.5t60 -76t17 -113.5q-1 -76 -23 -133.5t-57.5 -96t-79.5 -58t-91 -19.5zM252 61q44 0 78.5 20t59 54t37.5 75t14 83q1 66 -32 106
t-90 40q-45 0 -81 -20t-63 -53t-41 -73.5t-15 -82.5q-1 -66 35.5 -107.5t97.5 -41.5zM282 571v1l140 128h97l-142 -129h-95zM281 571l-100 129h83l102 -129h-2h-83z" />
    <glyph glyph-name="uni0218" unicode="&#x218;" horiz-adv-x="614" 
d="M278 -13q-59 0 -102.5 13.5t-73.5 36t-47 50.5t-21 59l83 22q9 -43 48 -74t104 -31q51 0 96.5 15.5t73.5 47t28 77.5q0 34 -16 53.5t-45 31.5t-68 21l-72 17q-42 11 -75.5 32t-52.5 55t-18 81q2 66 37 114.5t95 75.5t137 27q70 0 117.5 -23t73.5 -58.5t32 -74.5l-82 -23
q-11 49 -50.5 76.5t-102.5 27.5q-46 0 -85.5 -17t-62.5 -48t-23 -72t25.5 -63t67.5 -33l83 -20q62 -15 99.5 -39.5t54.5 -58.5t17 -79q0 -65 -37 -114.5t-100 -77t-138 -27.5zM156 -200l70 140h88l-88 -140h-70z" />
    <glyph glyph-name="uni0219" unicode="&#x219;" horiz-adv-x="470" 
d="M202 -12q-56 0 -95.5 17t-61.5 44t-28 57l73 23q10 -35 40.5 -54.5t67.5 -19.5q31 0 60.5 10.5t49 30.5t19.5 50q0 26 -21 42t-62 28l-46 13q-58 16 -89 47.5t-31 72.5q0 49 26.5 86t74 57t110.5 20q69 0 110.5 -29t52.5 -78l-71 -24q-10 35 -34.5 49t-69.5 14
q-49 0 -83.5 -24.5t-34.5 -61.5q0 -17 19 -33.5t59 -27.5l41 -11q70 -18 101.5 -54t31.5 -81q0 -49 -29 -85.5t-76 -57t-104 -20.5zM84 -212l70 140h88l-88 -140h-70z" />
    <glyph glyph-name="uni021A" unicode="&#x21a;" horiz-adv-x="552" 
d="M192 0l105 623h-223l12 77h530l-12 -77h-223l-105 -623h-84zM116 -200l70 140h88l-88 -140h-70z" />
    <glyph glyph-name="uni021B" unicode="&#x21b;" horiz-adv-x="387" 
d="M221 -12q-72 0 -104.5 38.5t-20.5 108.5l87 521h80l-87 -516q-6 -38 9.5 -58t51.5 -20q12 0 25.5 5t35.5 16l23 -66q-32 -17 -55.5 -23t-44.5 -6zM59 429l11 71h317l-12 -71h-316zM62 -200l70 140h88l-88 -140h-70z" />
    <glyph glyph-name="uni0237" unicode="&#x237;" horiz-adv-x="256" 
d="M-35 -215q-20 0 -43 7t-49 20l39 65q43 -18 61 -18q72 0 87 89l92 552h81l-94 -558q-13 -78 -56.5 -117.5t-117.5 -39.5z" />
    <glyph glyph-name="circumflex" unicode="&#x2c6;" horiz-adv-x="345" 
d="M55 582l143 130h95v-2l-140 -128h-98zM311 582l-102 129l2 1h83l100 -130h-83z" />
    <glyph glyph-name="caron" unicode="&#x2c7;" horiz-adv-x="341" 
d="M176 571v1l140 128h97l-142 -129h-95zM175 571l-100 129h83l102 -129h-2h-83z" />
    <glyph glyph-name="breve" unicode="&#x2d8;" horiz-adv-x="338" 
d="M227 564q-51 0 -87.5 17.5t-53.5 48.5t-11 70h78q-4 -31 17 -51t59 -20q41 0 70 20.5t34 50.5h80q-7 -41 -33 -71.5t-65.5 -47.5t-87.5 -17z" />
    <glyph glyph-name="dotaccent" unicode="&#x2d9;" horiz-adv-x="33" 
d="M120 616q-20 0 -35 15t-15 35q0 21 15 35.5t35 14.5q21 0 35.5 -14.5t14.5 -35.5q0 -20 -14.5 -35t-35.5 -15z" />
    <glyph glyph-name="ring" unicode="&#x2da;" horiz-adv-x="288" 
d="M200 557q-37 0 -61.5 23.5t-24.5 58.5q0 29 14 52t39 37t56 14q37 0 60.5 -23.5t23.5 -58.5q0 -31 -14 -54t-38.5 -36t-54.5 -13zM204 611q19 0 32 13.5t13 36.5q0 27 -29 27q-21 0 -33.5 -13.5t-12.5 -35.5q0 -12 8 -20t22 -8z" />
    <glyph glyph-name="ogonek" unicode="&#x2db;" horiz-adv-x="220" 
d="M79 -212q-53 0 -81 24.5t-23 71.5q4 22 20 44t41.5 43t55.5 40l68 -11q-25 -16 -49.5 -34.5t-42 -40t-20.5 -45.5q-5 -27 27 -27q18 0 33 5t19 7l20 -59q-14 -9 -31.5 -13.5t-36.5 -4.5z" />
    <glyph glyph-name="tilde" unicode="&#x2dc;" horiz-adv-x="324" 
d="M280 566q-28 0 -44 11t-25.5 25t-18 25t-22.5 11q-17 0 -28 -9t-19 -29h-63q8 42 36.5 72t79.5 30q27 0 42.5 -11t24.5 -25t18 -25t22 -11q19 0 29.5 10t16.5 28h64q-12 -40 -38 -71t-75 -31z" />
    <glyph glyph-name="hungarumlaut" unicode="&#x2dd;" horiz-adv-x="384" 
d="M234 571l121 129h104l-132 -129h-93zM53 571l121 129h105l-132 -129h-94z" />
    <glyph glyph-name="gravecomb" unicode="&#x300;" horiz-adv-x="0" 
d="M208 571l-91 129h100l79 -129h-88z" />
    <glyph glyph-name="acutecomb" unicode="&#x301;" horiz-adv-x="0" 
d="M87 571l135 129h103l-146 -129h-92z" />
    <glyph glyph-name="uni0302" unicode="&#x302;" horiz-adv-x="0" 
d="M55 582l143 130h95v-2l-140 -128h-98zM311 582l-102 129l2 1h83l100 -130h-83z" />
    <glyph glyph-name="tildecomb" unicode="&#x303;" horiz-adv-x="0" 
d="M280 566q-28 0 -44 11t-25.5 25t-18 25t-22.5 11q-17 0 -28 -9t-19 -29h-63q8 42 36.5 72t79.5 30q27 0 42.5 -11t24.5 -25t18 -25t22 -11q19 0 29.5 10t16.5 28h64q-12 -40 -38 -71t-75 -31z" />
    <glyph glyph-name="uni0304" unicode="&#x304;" horiz-adv-x="0" 
d="M54 575l13 73h306l-12 -73h-307z" />
    <glyph glyph-name="uni0306" unicode="&#x306;" horiz-adv-x="0" 
d="M227 564q-51 0 -87.5 17.5t-53.5 48.5t-11 70h78q-4 -31 17 -51t59 -20q41 0 70 20.5t34 50.5h80q-7 -41 -33 -71.5t-65.5 -47.5t-87.5 -17z" />
    <glyph glyph-name="uni0307" unicode="&#x307;" horiz-adv-x="0" 
d="M120 616q-20 0 -35 15t-15 35q0 21 15 35.5t35 14.5q21 0 35.5 -14.5t14.5 -35.5q0 -20 -14.5 -35t-35.5 -15z" />
    <glyph glyph-name="uni0308" unicode="&#x308;" horiz-adv-x="0" 
d="M106 620q-20 0 -34 14t-14 34t14 34t34 14t34 -14t14 -34t-14 -34t-34 -14zM352 620q-19 0 -33.5 14t-14.5 34t14.5 34t33.5 14q20 0 34 -14t14 -34t-14 -34t-34 -14z" />
    <glyph glyph-name="uni030A" unicode="&#x30a;" horiz-adv-x="0" 
d="M200 557q-37 0 -61.5 23.5t-24.5 58.5q0 29 14 52t39 37t56 14q37 0 60.5 -23.5t23.5 -58.5q0 -31 -14 -54t-38.5 -36t-54.5 -13zM204 611q19 0 32 13.5t13 36.5q0 27 -29 27q-21 0 -33.5 -13.5t-12.5 -35.5q0 -12 8 -20t22 -8z" />
    <glyph glyph-name="uni030B" unicode="&#x30b;" horiz-adv-x="0" 
d="M234 571l121 129h104l-132 -129h-93zM53 571l121 129h105l-132 -129h-94z" />
    <glyph glyph-name="uni030C" unicode="&#x30c;" horiz-adv-x="0" 
d="M176 571v1l140 128h97l-142 -129h-95zM175 571l-100 129h83l102 -129h-2h-83z" />
    <glyph glyph-name="uni0312" unicode="&#x312;" horiz-adv-x="0" 
d="M239 712l-93 -130h-91l114 130h70z" />
    <glyph glyph-name="uni0326" unicode="&#x326;" horiz-adv-x="0" 
d="M-75 -200l70 140h88l-88 -140h-70z" />
    <glyph glyph-name="uni0327" unicode="&#x327;" horiz-adv-x="0" 
d="M37 -210q-23 0 -48.5 7t-59.5 28l27 44q16 -9 34.5 -17t34.5 -8q26 0 42.5 12t16.5 34q0 21 -20 31.5t-55 15.5l45 70l55 -13l-19 -27q25 -9 40.5 -30t15.5 -44q0 -52 -29 -77.5t-80 -25.5z" />
    <glyph glyph-name="uni0328" unicode="&#x328;" horiz-adv-x="0" 
d="M79 -212q-53 0 -81 24.5t-23 71.5q4 22 20 44t41.5 43t55.5 40l68 -11q-25 -16 -49.5 -34.5t-42 -40t-20.5 -45.5q-5 -27 27 -27q18 0 33 5t19 7l20 -59q-14 -9 -31.5 -13.5t-36.5 -4.5z" />
    <glyph glyph-name="Wgrave" unicode="&#x1e80;" horiz-adv-x="960" 
d="M606 0l333 700h86l-334 -700h-85zM181 0l-97 700h84l95 -700h-82zM188 0l323 700h83l-323 -700h-83zM600 0l-84 700h80l86 -700h-82zM574 741l-91 129h100l79 -129h-88z" />
    <glyph glyph-name="wgrave" unicode="&#x1e81;" horiz-adv-x="786" 
d="M140 0l-87 500h80l84 -500h-77zM143 0l252 500h75l-250 -500h-77zM483 0l-83 500h75l84 -500h-76zM483 0l252 500h82l-254 -500h-80zM459 571l-91 129h100l79 -129h-88z" />
    <glyph glyph-name="Wacute" unicode="&#x1e82;" horiz-adv-x="960" 
d="M606 0l333 700h86l-334 -700h-85zM181 0l-97 700h84l95 -700h-82zM188 0l323 700h83l-323 -700h-83zM600 0l-84 700h80l86 -700h-82zM492 741l135 129h103l-146 -129h-92z" />
    <glyph glyph-name="wacute" unicode="&#x1e83;" horiz-adv-x="786" 
d="M140 0l-87 500h80l84 -500h-77zM143 0l252 500h75l-250 -500h-77zM483 0l-83 500h75l84 -500h-76zM483 0l252 500h82l-254 -500h-80zM377 571l135 129h103l-146 -129h-92z" />
    <glyph glyph-name="Wdieresis" unicode="&#x1e84;" horiz-adv-x="960" 
d="M606 0l333 700h86l-334 -700h-85zM181 0l-97 700h84l95 -700h-82zM188 0l323 700h83l-323 -700h-83zM600 0l-84 700h80l86 -700h-82zM455 790q-20 0 -34 14t-14 34t14 34t34 14t34 -14t14 -34t-14 -34t-34 -14zM701 790q-19 0 -33.5 14t-14.5 34t14.5 34t33.5 14
q20 0 34 -14t14 -34t-14 -34t-34 -14z" />
    <glyph glyph-name="wdieresis" unicode="&#x1e85;" horiz-adv-x="786" 
d="M140 0l-87 500h80l84 -500h-77zM143 0l252 500h75l-250 -500h-77zM483 0l-83 500h75l84 -500h-76zM483 0l252 500h82l-254 -500h-80zM340 620q-20 0 -34 14t-14 34t14 34t34 14t34 -14t14 -34t-14 -34t-34 -14zM586 620q-19 0 -33.5 14t-14.5 34t14.5 34t33.5 14
q20 0 34 -14t14 -34t-14 -34t-34 -14z" />
    <glyph glyph-name="uni1E9E" unicode="&#x1e9e;" horiz-adv-x="580" 
d="M51 0l91 543q14 82 71.5 125.5t158.5 43.5q51 0 87.5 -12t62 -31.5t41.5 -40t27 -37.5l-62 -61q-13 23 -31 47.5t-49.5 41.5t-84.5 17q-59 0 -95 -31.5t-44 -84.5l-88 -520h-85zM288 -12q-20 0 -52 10t-57 37l49 60q7 -6 22 -17.5t45 -11.5q61 0 99 35t47 96
q10 55 -17.5 85.5t-91.5 30.5h-64l11 69h59q104 0 152.5 -53t31.5 -148q-15 -92 -74.5 -142.5t-159.5 -50.5zM271 332l8 55l257 252l51 -49l-257 -258h-59z" />
    <glyph glyph-name="Ygrave" unicode="&#x1ef2;" horiz-adv-x="604" 
d="M351 291l-68 35l289 374h100zM218 0l56 336h84l-56 -336h-84zM269 291l-184 409h96l165 -374zM396 741l-91 129h100l79 -129h-88z" />
    <glyph glyph-name="ygrave" unicode="&#x1ef3;" horiz-adv-x="525" 
d="M41 -212q-20 0 -44 7.5t-51 20.5l38 65q43 -19 63 -19q27 0 48.5 15.5t36.5 41.5l80 135l260 446h87l-335 -571q-26 -45 -51.5 -76.5t-56.5 -48t-75 -16.5zM183 0l-133 500h85l111 -445l15 -55h-78zM328 571l-91 129h100l79 -129h-88z" />
    <glyph glyph-name="endash" unicode="&#x2013;" horiz-adv-x="550" 
d="M2 261l12 73h550l-12 -73h-550z" />
    <glyph glyph-name="emdash" unicode="&#x2014;" horiz-adv-x="1100" 
d="M2 261l12 73h1100l-12 -73h-1100z" />
    <glyph glyph-name="quoteleft" unicode="&#x2018;" horiz-adv-x="183" 
d="M240 700l-92 -212h-91l113 212h70z" />
    <glyph glyph-name="quoteright" unicode="&#x2019;" horiz-adv-x="183" 
d="M59 489l92 211h91l-114 -211h-69z" />
    <glyph glyph-name="quotesinglbase" unicode="&#x201a;" horiz-adv-x="212" 
d="M-21 -115l92 211h91l-114 -211h-69z" />
    <glyph glyph-name="quotedblleft" unicode="&#x201c;" horiz-adv-x="331" 
d="M239 700l-92 -212h-91l114 212h69zM388 700l-92 -212h-91l114 212h69z" />
    <glyph glyph-name="quotedblright" unicode="&#x201d;" horiz-adv-x="332" 
d="M208 489l92 211h91l-114 -211h-69zM59 489l92 211h91l-114 -211h-69z" />
    <glyph glyph-name="quotedblbase" unicode="&#x201e;" horiz-adv-x="314" 
d="M105 -115l92 211h91l-114 -211h-69zM-44 -115l92 211h91l-114 -211h-69z" />
    <glyph glyph-name="dagger" unicode="&#x2020;" horiz-adv-x="481" 
d="M157 0l90 465l29 235h79l-49 -235l-67 -465h-82zM55 429l13 75l213 -10l216 10l-13 -75l-212 10z" />
    <glyph glyph-name="daggerdbl" unicode="&#x2021;" horiz-adv-x="481" 
d="M124 -200l50 232l28 218l44 215l30 235h78l-49 -235l-27 -215l-45 -218l-27 -232h-82zM-15 -4l11 73l214 -9l215 9l-12 -73l-213 10zM56 430l12 73l212 -9l216 9l-12 -73l-212 9z" />
    <glyph glyph-name="bullet" unicode="&#x2022;" horiz-adv-x="489" 
d="M237 178q-30 0 -52.5 15.5t-32.5 40.5t-6 54q5 28 22 50t41.5 35.5t52.5 13.5q30 0 52.5 -15t33.5 -39.5t6 -54.5q-4 -27 -22 -50t-42.5 -36.5t-52.5 -13.5z" />
    <glyph glyph-name="ellipsis" unicode="&#x2026;" horiz-adv-x="613" 
d="M65 -14q-16 0 -28.5 8.5t-18.5 22.5t-4 30q4 20 21 35t38 15q17 0 29 -8.5t18 -22t4 -30.5q-4 -20 -21 -35t-38 -15zM268 -14q-16 0 -28.5 8.5t-18.5 22.5t-4 30q4 20 21 35t38 15q17 0 29 -8.5t18 -22t4 -30.5q-4 -20 -21 -35t-38 -15zM470 -14q-16 0 -28.5 8.5
t-18.5 22.5t-4 30q4 20 21 35t38 15q17 0 29 -8.5t18 -22t4 -30.5q-4 -20 -21 -35t-38 -15z" />
    <glyph glyph-name="guilsinglleft" unicode="&#x2039;" horiz-adv-x="361" 
d="M57 298l188 202h100l-187 -202h-101zM179 96l-120 202h97l119 -202h-96z" />
    <glyph glyph-name="guilsinglright" unicode="&#x203a;" horiz-adv-x="361" 
d="M320 298l-188 -202h-100l187 202h101zM198 500l120 -202h-97l-119 202h96z" />
    <glyph glyph-name="fraction" unicode="&#x2044;" horiz-adv-x="218" 
d="M-173 0l481 700h82l-481 -700h-82z" />
    <glyph glyph-name="uni2070" unicode="&#x2070;" horiz-adv-x="407" 
d="M229 373q-53 0 -88 29.5t-48 79.5t-3 113q11 63 40 110.5t70.5 74.5t90.5 27q50 0 85.5 -27.5t50.5 -77.5t4 -117q-10 -61 -40 -109.5t-72 -75.5t-90 -27zM231 439q45 0 82 44t48 113q11 64 -9 105t-62 41q-44 0 -81 -43.5t-49 -114.5q-10 -63 10 -104t61 -41z" />
    <glyph glyph-name="uni2074" unicode="&#x2074;" horiz-adv-x="393" 
d="M127 496l-50 30l234 274l37 -41zM67 468l10 58l42 5h300l-11 -63h-341zM247 380l64 379v41h76l-71 -420h-69z" />
    <glyph glyph-name="uni2075" unicode="&#x2075;" horiz-adv-x="368" 
d="M213 373q-28 0 -56.5 9.5t-50 28t-29.5 45.5l67 19q11 -21 29 -30t38 -9q36 0 62 22t33 59q5 31 -11.5 51t-48.5 20q-20 0 -39.5 -9.5t-32.5 -22.5l-64 16l62 228h234l-11 -66h-224l1 64h72l-68 -231l-43 7q12 15 32 31.5t47.5 28t57.5 11.5q53 -1 86.5 -36.5t22.5 -99.5
q-6 -40 -30 -70.5t-59 -48t-77 -17.5z" />
    <glyph glyph-name="uni2076" unicode="&#x2076;" horiz-adv-x="356" 
d="M212 373q-58 0 -89 28.5t-38.5 74.5t1.5 100q12 68 38.5 120t68 81.5t96.5 29.5q34 0 65 -10t53 -28l-43 -51q-16 14 -37 19.5t-37 5.5q-50 0 -88 -45t-51 -138l-14 15q20 34 52 53.5t70 19.5q41 0 70 -19t42.5 -51t6.5 -73q-10 -58 -55 -95t-111 -37zM213 435
q35 0 62 23t32 58q6 31 -11 51.5t-48 20.5q-34 0 -61 -23.5t-33 -57.5q-5 -32 12 -52t47 -20z" />
    <glyph glyph-name="uni2077" unicode="&#x2077;" horiz-adv-x="341" 
d="M83 380l243 364l77 1l-238 -365h-82zM110 734l11 66h291l-9 -55l-72 -11h-221z" />
    <glyph glyph-name="uni2078" unicode="&#x2078;" horiz-adv-x="389" 
d="M220 373q-75 0 -112.5 34t-28.5 87t54.5 86.5t117.5 33.5q79 0 114 -37t26 -92q-8 -49 -53 -80.5t-118 -31.5zM221 434q38 0 66 19.5t33 49.5q4 28 -14.5 45.5t-52.5 17.5q-37 0 -65.5 -20t-33.5 -52q-4 -27 14.5 -43.5t52.5 -16.5zM252 626q35 0 59 18t29 47
q4 25 -12 41t-45 16q-34 0 -58 -19t-29 -51q-3 -22 13 -37t43 -15zM255 582q-67 0 -101 32t-26 84q8 49 50 79t105 30q69 0 103 -33t25 -87q-7 -46 -49.5 -75.5t-106.5 -29.5z" />
    <glyph glyph-name="uni2079" unicode="&#x2079;" horiz-adv-x="355" 
d="M181 373q-34 0 -64.5 10t-53.5 28l43 50q17 -13 37.5 -18.5t35.5 -5.5q53 0 90 45t50 137l14 -14q-20 -34 -52.5 -53.5t-70.5 -19.5q-41 0 -70 19t-42 51.5t-6 73.5q10 58 55.5 94.5t109.5 36.5q59 0 89 -27.5t38.5 -73t-0.5 -101.5q-11 -68 -38 -120t-68 -82t-97 -30z
M221 592q35 0 62 23t33 59q5 29 -11.5 50t-48.5 21q-34 0 -61 -22.5t-32 -56.5q-5 -31 10 -52.5t48 -21.5z" />
    <glyph glyph-name="uni2080" unicode="&#x2080;" horiz-adv-x="407" 
d="M148 -106q-53 0 -88 29.5t-48 79.5t-3 113q11 63 40 110.5t70.5 74.5t90.5 27q50 0 85.5 -27.5t50.5 -77.5t4 -117q-10 -61 -40 -109.5t-72 -75.5t-90 -27zM150 -40q45 0 82 44t48 113q11 64 -9 105t-62 41q-44 0 -81 -43.5t-49 -114.5q-10 -63 10 -104t61 -41z" />
    <glyph glyph-name="uni2081" unicode="&#x2081;" horiz-adv-x="283" 
d="M74 -100l64 381l13 39h64l-71 -420h-70zM33 195l10 65q14 0 33.5 9t39 23t34.5 28l41 -47q-43 -38 -81.5 -59t-76.5 -19z" />
    <glyph glyph-name="uni2082" unicode="&#x2082;" horiz-adv-x="361" 
d="M53 -81l-66 38q5 29 31 60t67 57l79 52q26 16 46 37.5t22 41.5q3 24 -12 40.5t-44 16.5q-31 0 -54.5 -17.5t-34.5 -42.5l-73 18q17 43 60.5 75t100.5 32q69 0 104.5 -37t25.5 -92q-6 -38 -30 -67.5t-65 -55.5l-73 -47q-19 -13 -37 -28.5t-30.5 -35t-16.5 -45.5zM-23 -100
l10 57l55 8h229l-10 -65h-284z" />
    <glyph glyph-name="uni2083" unicode="&#x2083;" horiz-adv-x="331" 
d="M111 -106q-55 0 -89 24t-41 62l68 19q5 -10 11.5 -20t18 -16t28.5 -6q37 0 62 21t28 52q4 27 -17.5 44t-69.5 17h-24l9 51h16q48 0 86 -16t57.5 -45t12.5 -69q-6 -37 -29.5 -63.5t-56.5 -40.5t-70 -14zM88 102l8 50h18q44 0 73 15t32 47q3 18 -11 34.5t-43 16.5
q-20 0 -39.5 -10t-35.5 -33l-61 26q14 26 36.5 44t50.5 27t55 9q40 0 69 -15.5t43 -41.5t8 -60q-6 -36 -32.5 -60.5t-66 -36.5t-83.5 -12h-21z" />
    <glyph glyph-name="uni2084" unicode="&#x2084;" horiz-adv-x="393" 
d="M46 16l-50 30l234 274l37 -41zM-14 -12l10 58l42 5h300l-11 -63h-341zM166 -100l64 379v41h76l-71 -420h-69z" />
    <glyph glyph-name="uni2085" unicode="&#x2085;" horiz-adv-x="368" 
d="M132 -106q-28 0 -56.5 9.5t-50 28t-29.5 45.5l67 19q11 -21 29 -30t38 -9q36 0 62 22t33 59q5 31 -11.5 51t-48.5 20q-20 0 -39.5 -9.5t-32.5 -22.5l-64 16l62 228h234l-11 -66h-224l1 64h72l-68 -231l-43 7q12 15 32 31.5t47.5 28t57.5 11.5q53 -1 86.5 -36.5
t22.5 -99.5q-6 -40 -30 -70.5t-59 -48t-77 -17.5z" />
    <glyph glyph-name="uni2086" unicode="&#x2086;" horiz-adv-x="356" 
d="M131 -106q-58 0 -89 28.5t-38.5 74.5t1.5 100q12 68 38.5 120t68 81.5t96.5 29.5q34 0 65 -10t53 -28l-43 -51q-16 14 -37 19.5t-37 5.5q-50 0 -88 -45t-51 -138l-14 15q20 34 52 53.5t70 19.5q41 0 70 -19t42.5 -51t6.5 -73q-10 -58 -55 -95t-111 -37zM132 -44
q35 0 62 23t32 58q6 31 -11 51.5t-48 20.5q-34 0 -61 -23.5t-33 -57.5q-5 -32 12 -52t47 -20z" />
    <glyph glyph-name="uni2087" unicode="&#x2087;" horiz-adv-x="341" 
d="M2 -100l243 364l77 1l-238 -365h-82zM29 254l11 66h291l-9 -55l-72 -11h-221z" />
    <glyph glyph-name="uni2088" unicode="&#x2088;" horiz-adv-x="389" 
d="M139 -106q-75 0 -112.5 34t-28.5 87t54.5 86.5t117.5 33.5q79 0 114 -37t26 -92q-8 -49 -53 -80.5t-118 -31.5zM140 -45q38 0 66 19.5t33 49.5q4 28 -14.5 45.5t-52.5 17.5q-37 0 -65.5 -20t-33.5 -52q-4 -27 14.5 -43.5t52.5 -16.5zM171 147q35 0 59 18t29 47
q4 25 -12 41t-45 16q-34 0 -58 -19t-29 -51q-3 -22 13 -37t43 -15zM174 103q-67 0 -101 32t-26 84q8 49 50 79t105 30q69 0 103 -33t25 -87q-7 -46 -49.5 -75.5t-106.5 -29.5z" />
    <glyph glyph-name="uni2089" unicode="&#x2089;" horiz-adv-x="355" 
d="M100 -106q-34 0 -64.5 10t-53.5 28l43 50q17 -13 37.5 -18.5t35.5 -5.5q53 0 90 45t50 137l14 -14q-20 -34 -52.5 -53.5t-70.5 -19.5q-41 0 -70 19t-42 51.5t-6 73.5q10 58 55.5 94.5t109.5 36.5q59 0 89 -27.5t38.5 -73t-0.5 -101.5q-11 -68 -38 -120t-68 -82t-97 -30z
M140 113q35 0 62 23t33 59q5 29 -11.5 50t-48.5 21q-34 0 -61 -22.5t-32 -56.5q-5 -31 10 -52.5t48 -21.5z" />
    <glyph glyph-name="Euro" unicode="&#x20ac;" horiz-adv-x="663" 
d="M343 -12q-84 0 -142 47t-80.5 130t-5.5 190q18 105 66.5 185.5t118.5 126t151 45.5q53 0 98 -23t77 -63.5t44 -93.5l-77 -31q-12 60 -52.5 97t-91.5 37q-58 0 -110 -37t-89 -102.5t-52 -150.5q-14 -82 0.5 -145.5t52 -99t95.5 -35.5q37 0 74.5 19t70.5 53t55 78l68 -42
q-30 -55 -74.5 -97t-95 -65t-101.5 -23zM19 257l10 57h437l-10 -57h-437zM41 386l9 57h437l-10 -57h-436z" />
    <glyph glyph-name="trademark" unicode="&#x2122;" horiz-adv-x="857" 
d="M398 280l70 420h78l98 -191l160 191h79l-70 -420h-72l50 303l-166 -197l-103 200l-51 -306h-73zM141 280l59 354h-128l11 66h329l-11 -66h-129l-59 -354h-72z" />
    <glyph glyph-name="oneeighth" unicode="&#x215b;" horiz-adv-x="890" 
d="M138 280l64 381l13 39h64l-71 -420h-70zM97 575l10 65q14 0 33.5 9t39 23t34.5 28l41 -47q-43 -38 -81.5 -59t-76.5 -19zM110 0l481 700h82l-481 -700h-82zM657 -6q-75 0 -112.5 34t-28.5 87t54.5 86.5t117.5 33.5q79 0 114 -37t26 -92q-8 -49 -53 -80.5t-118 -31.5z
M658 55q38 0 66 19.5t33 49.5q4 28 -14.5 45.5t-52.5 17.5q-37 0 -65.5 -20t-33.5 -52q-4 -27 14.5 -43.5t52.5 -16.5zM689 247q35 0 59 18t29 47q4 25 -12 41t-45 16q-34 0 -58 -19t-29 -51q-3 -22 13 -37t43 -15zM692 203q-67 0 -101 32t-26 84q8 49 50 79t105 30
q69 0 103 -33t25 -87q-7 -46 -49.5 -75.5t-106.5 -29.5z" />
    <glyph glyph-name="threeeighths" unicode="&#x215c;" horiz-adv-x="939" 
d="M175 273q-55 0 -89 24t-41 62l68 19q5 -10 11.5 -20t18 -16t28.5 -6q37 0 62 21t28 52q4 27 -17.5 44t-69.5 17h-24l9 51h16q48 0 86 -16t57.5 -45t12.5 -69q-6 -37 -29.5 -63.5t-56.5 -40.5t-70 -14zM152 481l8 50h18q44 0 73 15t32 47q3 18 -11 34.5t-43 16.5
q-20 0 -39.5 -10t-35.5 -33l-61 26q14 26 36.5 44t50.5 27t55 9q40 0 69 -15.5t43 -41.5t8 -60q-6 -36 -32.5 -60.5t-66 -36.5t-83.5 -12h-21zM158 0l481 700h82l-481 -700h-82zM705 -6q-75 0 -112.5 34t-28.5 87t54.5 86.5t117.5 33.5q79 0 114 -37t26 -92
q-8 -49 -53 -80.5t-118 -31.5zM706 55q38 0 66 19.5t33 49.5q4 28 -14.5 45.5t-52.5 17.5q-37 0 -65.5 -20t-33.5 -52q-4 -27 14.5 -43.5t52.5 -16.5zM737 247q35 0 59 18t29 47q4 25 -12 41t-45 16q-34 0 -58 -19t-29 -51q-3 -22 13 -37t43 -15zM740 203q-67 0 -101 32
t-26 84q8 49 50 79t105 30q69 0 103 -33t25 -87q-7 -46 -49.5 -75.5t-106.5 -29.5z" />
    <glyph glyph-name="fiveeighths" unicode="&#x215d;" horiz-adv-x="975" 
d="M196 273q-28 0 -56.5 9.5t-50 28t-29.5 45.5l67 19q11 -21 29 -30t38 -9q36 0 62 22t33 59q5 31 -11.5 51t-48.5 20q-20 0 -39.5 -9.5t-32.5 -22.5l-64 16l62 228h234l-11 -66h-224l1 64h72l-68 -231l-43 7q12 15 32 31.5t47.5 28t57.5 11.5q53 -1 86.5 -36.5t22.5 -99.5
q-6 -40 -30 -70.5t-59 -48t-77 -17.5zM195 0l481 700h82l-481 -700h-82zM742 -6q-75 0 -112.5 34t-28.5 87t54.5 86.5t117.5 33.5q79 0 114 -37t26 -92q-8 -49 -53 -80.5t-118 -31.5zM743 55q38 0 66 19.5t33 49.5q4 28 -14.5 45.5t-52.5 17.5q-37 0 -65.5 -20t-33.5 -52
q-4 -27 14.5 -43.5t52.5 -16.5zM774 247q35 0 59 18t29 47q4 25 -12 41t-45 16q-34 0 -58 -19t-29 -51q-3 -22 13 -37t43 -15zM777 203q-67 0 -101 32t-26 84q8 49 50 79t105 30q69 0 103 -33t25 -87q-7 -46 -49.5 -75.5t-106.5 -29.5z" />
    <glyph glyph-name="seveneighths" unicode="&#x215e;" horiz-adv-x="912" 
d="M66 280l243 364l77 1l-238 -365h-82zM93 634l11 66h291l-9 -55l-72 -11h-221zM132 0l481 700h82l-481 -700h-82zM678 -6q-75 0 -112.5 34t-28.5 87t54.5 86.5t117.5 33.5q79 0 114 -37t26 -92q-8 -49 -53 -80.5t-118 -31.5zM679 55q38 0 66 19.5t33 49.5q4 28 -14.5 45.5
t-52.5 17.5q-37 0 -65.5 -20t-33.5 -52q-4 -27 14.5 -43.5t52.5 -16.5zM710 247q35 0 59 18t29 47q4 25 -12 41t-45 16q-34 0 -58 -19t-29 -51q-3 -22 13 -37t43 -15zM713 203q-67 0 -101 32t-26 84q8 49 50 79t105 30q69 0 103 -33t25 -87q-7 -46 -49.5 -75.5t-106.5 -29.5
z" />
    <glyph glyph-name="arrowleft" unicode="&#x2190;" horiz-adv-x="743" 
d="M145 336l236 -244l-54 -54l-260 261zM411 558l39 -55l-315 -242l-68 38zM689 335l-12 -73h-550l12 73h550z" />
    <glyph glyph-name="arrowup" unicode="&#x2191;" horiz-adv-x="700" 
d="M165 364l-48 47l309 301l26 -73zM576 363l-199 276l49 73l211 -302zM272 0l108 646h73l-108 -646h-73z" />
    <glyph glyph-name="arrowright" unicode="&#x2192;" horiz-adv-x="743" 
d="M614 260l-236 243l54 55l260 -261zM348 38l-39 55l315 242l68 -38zM70 261l13 73h550l-13 -73h-550z" />
    <glyph glyph-name="arrowdown" unicode="&#x2193;" horiz-adv-x="700" 
d="M569 336l48 -47l-310 -301l-26 73zM158 337l198 -276l-49 -73l-210 302zM462 700l-108 -646h-73l108 646h73z" />
    <glyph glyph-name="uni2196" unicode="&#x2196;" horiz-adv-x="708" 
d="M553 179l-375 449l58 51l375 -449zM552 626h-365l-18 74h395zM177 304h-75l67 396l68 -29z" />
    <glyph glyph-name="uni2197" unicode="&#x2197;" horiz-adv-x="708" 
d="M134 179l-44 51l522 449l45 -51zM281 626l13 74h396l-41 -74h-368zM549 304l61 367l80 29l-67 -396h-74z" />
    <glyph glyph-name="uni2198" unicode="&#x2198;" horiz-adv-x="707" 
d="M130 470l57 51l377 -449l-59 -51zM564 396h74l-67 -396l-68 30zM188 74h367l16 -74h-395z" />
    <glyph glyph-name="uni2199" unicode="&#x2199;" horiz-adv-x="708" 
d="M129 21l-45 51l523 449l44 -51zM51 0l66 396h75l-61 -367zM51 0l41 74h368l-13 -74h-396z" />
    <glyph glyph-name="minus" unicode="&#x2212;" horiz-adv-x="623" 
d="M123 262l12 71h382l-13 -71h-381z" />
    <glyph glyph-name="uni2215" unicode="&#x2215;" horiz-adv-x="623" 
d="M-9 0l599 700h76l-599 -700h-76z" />
    <glyph glyph-name="notequal" unicode="&#x2260;" horiz-adv-x="623" 
d="M131 71l334 512h78l-333 -512h-79zM136 393l11 70h400l-11 -70h-400zM102 193l12 70h400l-12 -70h-400z" />
    <glyph glyph-name="lessequal" unicode="&#x2264;" horiz-adv-x="623" 
d="M94 0l10 63h343l-11 -63h-342zM521 503l-15 -81l-367 -151l12 73zM151 342l316 -157l-12 -70l-316 156z" />
    <glyph glyph-name="greaterequal" unicode="&#x2265;" horiz-adv-x="623" 
d="M103 0l11 63h343l-11 -63h-343zM122 113l14 81l367 151l-11 -73zM492 274l-316 157l12 70l316 -156z" />
    <glyph glyph-name="uni004A0301" horiz-adv-x="515" 
d="M159 -12q-38 0 -67.5 10.5t-51 28.5t-35 41t-21.5 47l68 32q10 -21 24 -40t35 -30.5t50 -11.5q38 0 76.5 17.5t68.5 57.5t41 107l75 453h84l-82 -491q-9 -56 -35 -97.5t-63.5 -69t-81 -41t-85.5 -13.5zM402 741l135 129h103l-146 -129h-92z" />
    <glyph glyph-name="I.ss02" horiz-adv-x="381" 
d="M5 0l13 77h102l91 546h-102l13 77h287l-12 -77h-102l-91 -546h101l-13 -77h-287z" />
    <glyph glyph-name="IJ.ss02" horiz-adv-x="895" 
d="M5 0l13 77h102l91 546h-102l13 77h287l-12 -77h-102l-91 -546h101l-13 -77h-287zM540 -12q-38 0 -67.5 10.5t-51 28.5t-35 41t-21.5 47l68 32q10 -21 24 -40t35 -30.5t50 -11.5q38 0 76.5 17.5t68.5 57.5t41 107l75 453h84l-82 -491q-9 -56 -35 -97.5t-63.5 -69t-81 -41
t-85.5 -13.5z" />
    <glyph glyph-name="Iacute.ss02" horiz-adv-x="381" 
d="M5 0l13 77h102l91 546h-102l13 77h287l-12 -77h-102l-91 -546h101l-13 -77h-287zM204 742l135 123h104l-146 -123h-93z" />
    <glyph glyph-name="Icircumflex.ss02" horiz-adv-x="381" 
d="M5 0l13 77h102l91 546h-102l13 77h287l-12 -77h-102l-91 -546h101l-13 -77h-287zM101 757l143 130h95v-2l-140 -128h-98zM357 757l-102 129l2 1h83l100 -130h-83z" />
    <glyph glyph-name="Idieresis.ss02" horiz-adv-x="381" 
d="M357 795q-19 0 -33.5 14.5t-14.5 33.5q0 20 14.5 34t33.5 14q20 0 34 -14t14 -34q0 -19 -14 -33.5t-34 -14.5zM223 795q-19 0 -33.5 14t-14.5 34t14.5 34t33.5 14q20 0 34 -14t14 -34t-14 -34t-34 -14zM5 0l13 77h102l91 546h-102l13 77h287l-12 -77h-102l-91 -546h101
l-13 -77h-287z" />
    <glyph glyph-name="Idotaccent.ss02" horiz-adv-x="381" 
d="M5 0l13 77h102l91 546h-102l13 77h287l-12 -77h-102l-91 -546h101l-13 -77h-287zM290 791q-20 0 -35 15t-15 35q0 21 15 35.5t35 14.5q21 0 35.5 -14.5t14.5 -35.5q0 -20 -14.5 -35t-35.5 -15z" />
    <glyph glyph-name="Igrave.ss02" horiz-adv-x="381" 
d="M5 0l13 77h102l91 546h-102l13 77h287l-12 -77h-102l-91 -546h101l-13 -77h-287zM287 746l-91 129h100l79 -129h-88z" />
    <glyph glyph-name="Imacron.ss02" horiz-adv-x="381" 
d="M5 0l13 77h102l91 546h-102l13 77h287l-12 -77h-102l-91 -546h101l-13 -77h-287zM121 750l13 73h306l-12 -73h-307z" />
    <glyph glyph-name="Iogonek.ss02" horiz-adv-x="381" 
d="M5 0l13 77h102l91 546h-102l13 77h287l-12 -77h-102l-91 -546h101l-13 -77h-287zM147 -212q-53 0 -81 24.5t-23 71.5q4 22 20 44t41.5 43t55.5 40l68 -11q-25 -16 -49.5 -34.5t-42 -40t-20.5 -45.5q-5 -27 27 -27q18 0 33 5t19 7l20 -59q-14 -9 -31.5 -13.5t-36.5 -4.5z
" />
    <glyph glyph-name="i.loclTRK" horiz-adv-x="233" 
d="M33 0l86 500h80l-86 -500h-80zM186 616q-20 0 -35 15t-15 35q0 21 15 35.5t35 14.5q21 0 35.5 -14.5t14.5 -35.5q0 -20 -14.5 -35t-35.5 -15z" />
    <glyph glyph-name="uni006A0301" horiz-adv-x="256" 
d="M-35 -215q-20 0 -43 7t-49 20l39 65q43 -18 61 -18q72 0 87 89l92 552h81l-94 -558q-13 -78 -56.5 -117.5t-117.5 -39.5zM135 571l135 129h103l-146 -129h-92z" />
    <glyph glyph-name="a.ss01" 
d="M399 0l12 93l68 407h80l-84 -500h-76zM230 -12q-59 0 -103 28t-67.5 77.5t-21.5 114.5q2 59 21.5 113.5t55 97.5t83.5 68t107 25t99 -27.5t60 -76t17 -113.5q-1 -76 -23 -133.5t-57.5 -96t-79.5 -58t-91 -19.5zM252 61q44 0 78.5 20t59 54t37.5 75t14 83q1 66 -32 106
t-90 40q-45 0 -81 -20t-63 -53t-41 -73.5t-15 -82.5q-1 -66 35.5 -107.5t97.5 -41.5z" />
    <glyph glyph-name="aacute.ss01" 
d="M399 0l12 93l68 407h80l-84 -500h-76zM230 -12q-59 0 -103 28t-67.5 77.5t-21.5 114.5q2 59 21.5 113.5t55 97.5t83.5 68t107 25t99 -27.5t60 -76t17 -113.5q-1 -76 -23 -133.5t-57.5 -96t-79.5 -58t-91 -19.5zM252 61q44 0 78.5 20t59 54t37.5 75t14 83q1 66 -32 106
t-90 40q-45 0 -81 -20t-63 -53t-41 -73.5t-15 -82.5q-1 -66 35.5 -107.5t97.5 -41.5zM261 571l135 129h103l-146 -129h-92z" />
    <glyph glyph-name="abreve.ss01" 
d="M399 0l12 93l68 407h80l-84 -500h-76zM230 -12q-59 0 -103 28t-67.5 77.5t-21.5 114.5q2 59 21.5 113.5t55 97.5t83.5 68t107 25t99 -27.5t60 -76t17 -113.5q-1 -76 -23 -133.5t-57.5 -96t-79.5 -58t-91 -19.5zM252 61q44 0 78.5 20t59 54t37.5 75t14 83q1 66 -32 106
t-90 40q-45 0 -81 -20t-63 -53t-41 -73.5t-15 -82.5q-1 -66 35.5 -107.5t97.5 -41.5zM335 564q-51 0 -87.5 17.5t-53.5 48.5t-11 70h78q-4 -31 17 -51t59 -20q41 0 70 20.5t34 50.5h80q-7 -41 -33 -71.5t-65.5 -47.5t-87.5 -17z" />
    <glyph glyph-name="uni01CE.ss01" 
d="M399 0l12 93l68 407h80l-84 -500h-76zM230 -12q-59 0 -103 28t-67.5 77.5t-21.5 114.5q2 59 21.5 113.5t55 97.5t83.5 68t107 25t99 -27.5t60 -76t17 -113.5q-1 -76 -23 -133.5t-57.5 -96t-79.5 -58t-91 -19.5zM252 61q44 0 78.5 20t59 54t37.5 75t14 83q1 66 -32 106
t-90 40q-45 0 -81 -20t-63 -53t-41 -73.5t-15 -82.5q-1 -66 35.5 -107.5t97.5 -41.5zM282 571v1l140 128h97l-142 -129h-95zM281 571l-100 129h83l102 -129h-2h-83z" />
    <glyph glyph-name="acircumflex.ss01" 
d="M399 0l12 93l68 407h80l-84 -500h-76zM230 -12q-59 0 -103 28t-67.5 77.5t-21.5 114.5q2 59 21.5 113.5t55 97.5t83.5 68t107 25t99 -27.5t60 -76t17 -113.5q-1 -76 -23 -133.5t-57.5 -96t-79.5 -58t-91 -19.5zM252 61q44 0 78.5 20t59 54t37.5 75t14 83q1 66 -32 106
t-90 40q-45 0 -81 -20t-63 -53t-41 -73.5t-15 -82.5q-1 -66 35.5 -107.5t97.5 -41.5zM157 582l143 130h95v-2l-140 -128h-98zM413 582l-102 129l2 1h83l100 -130h-83z" />
    <glyph glyph-name="adieresis.ss01" 
d="M399 0l12 93l68 407h80l-84 -500h-76zM230 -12q-59 0 -103 28t-67.5 77.5t-21.5 114.5q2 59 21.5 113.5t55 97.5t83.5 68t107 25t99 -27.5t60 -76t17 -113.5q-1 -76 -23 -133.5t-57.5 -96t-79.5 -58t-91 -19.5zM252 61q44 0 78.5 20t59 54t37.5 75t14 83q1 66 -32 106
t-90 40q-45 0 -81 -20t-63 -53t-41 -73.5t-15 -82.5q-1 -66 35.5 -107.5t97.5 -41.5zM223 620q-20 0 -34 14t-14 34t14 34t34 14t34 -14t14 -34t-14 -34t-34 -14zM469 620q-19 0 -33.5 14t-14.5 34t14.5 34t33.5 14q20 0 34 -14t14 -34t-14 -34t-34 -14z" />
    <glyph glyph-name="agrave.ss01" 
d="M399 0l12 93l68 407h80l-84 -500h-76zM230 -12q-59 0 -103 28t-67.5 77.5t-21.5 114.5q2 59 21.5 113.5t55 97.5t83.5 68t107 25t99 -27.5t60 -76t17 -113.5q-1 -76 -23 -133.5t-57.5 -96t-79.5 -58t-91 -19.5zM252 61q44 0 78.5 20t59 54t37.5 75t14 83q1 66 -32 106
t-90 40q-45 0 -81 -20t-63 -53t-41 -73.5t-15 -82.5q-1 -66 35.5 -107.5t97.5 -41.5zM342 571l-91 129h100l79 -129h-88z" />
    <glyph glyph-name="amacron.ss01" 
d="M399 0l12 93l68 407h80l-84 -500h-76zM230 -12q-59 0 -103 28t-67.5 77.5t-21.5 114.5q2 59 21.5 113.5t55 97.5t83.5 68t107 25t99 -27.5t60 -76t17 -113.5q-1 -76 -23 -133.5t-57.5 -96t-79.5 -58t-91 -19.5zM252 61q44 0 78.5 20t59 54t37.5 75t14 83q1 66 -32 106
t-90 40q-45 0 -81 -20t-63 -53t-41 -73.5t-15 -82.5q-1 -66 35.5 -107.5t97.5 -41.5zM177 575l13 73h306l-12 -73h-307z" />
    <glyph glyph-name="aogonek.ss01" 
d="M399 0l12 93l68 407h80l-84 -500h-76zM230 -12q-59 0 -103 28t-67.5 77.5t-21.5 114.5q2 59 21.5 113.5t55 97.5t83.5 68t107 25t99 -27.5t60 -76t17 -113.5q-1 -76 -23 -133.5t-57.5 -96t-79.5 -58t-91 -19.5zM252 61q44 0 78.5 20t59 54t37.5 75t14 83q1 66 -32 106
t-90 40q-45 0 -81 -20t-63 -53t-41 -73.5t-15 -82.5q-1 -66 35.5 -107.5t97.5 -41.5zM393 -212q-53 0 -81 24.5t-23 71.5q4 22 20 44t41.5 43t55.5 40l68 -11q-25 -16 -49.5 -34.5t-42 -40t-20.5 -45.5q-5 -27 27 -27q18 0 33 5t19 7l20 -59q-14 -9 -31.5 -13.5t-36.5 -4.5z
" />
    <glyph glyph-name="aring.ss01" 
d="M399 0l12 93l68 407h80l-84 -500h-76zM230 -12q-59 0 -103 28t-67.5 77.5t-21.5 114.5q2 59 21.5 113.5t55 97.5t83.5 68t107 25t99 -27.5t60 -76t17 -113.5q-1 -76 -23 -133.5t-57.5 -96t-79.5 -58t-91 -19.5zM252 61q44 0 78.5 20t59 54t37.5 75t14 83q1 66 -32 106
t-90 40q-45 0 -81 -20t-63 -53t-41 -73.5t-15 -82.5q-1 -66 35.5 -107.5t97.5 -41.5zM332 557q-37 0 -61.5 23.5t-24.5 58.5q0 29 14 52t39 37t56 14q37 0 60.5 -23.5t23.5 -58.5q0 -31 -14 -54t-38.5 -36t-54.5 -13zM336 611q19 0 32 13.5t13 36.5q0 27 -29 27
q-21 0 -33.5 -13.5t-12.5 -35.5q0 -12 8 -20t22 -8z" />
    <glyph glyph-name="atilde.ss01" 
d="M399 0l12 93l68 407h80l-84 -500h-76zM230 -12q-59 0 -103 28t-67.5 77.5t-21.5 114.5q2 59 21.5 113.5t55 97.5t83.5 68t107 25t99 -27.5t60 -76t17 -113.5q-1 -76 -23 -133.5t-57.5 -96t-79.5 -58t-91 -19.5zM252 61q44 0 78.5 20t59 54t37.5 75t14 83q1 66 -32 106
t-90 40q-45 0 -81 -20t-63 -53t-41 -73.5t-15 -82.5q-1 -66 35.5 -107.5t97.5 -41.5zM415 566q-28 0 -44 11t-25.5 25t-18 25t-22.5 11q-17 0 -28 -9t-19 -29h-63q8 42 36.5 72t79.5 30q27 0 42.5 -11t24.5 -25t18 -25t22 -11q19 0 29.5 10t16.5 28h64q-12 -40 -38 -71
t-75 -31z" />
    <glyph glyph-name="l.ss02" horiz-adv-x="292" 
d="M166 -12q-66 0 -96 39t-19 109l94 564h80l-94 -561q-6 -38 5 -57t38 -19q13 0 24.5 4t33.5 17l25 -68q-30 -17 -51 -22.5t-40 -5.5z" />
    <glyph glyph-name="lacute.ss02" horiz-adv-x="292" 
d="M166 -12q-66 0 -96 39t-19 109l94 564h80l-94 -561q-6 -38 5 -57t38 -19q13 0 24.5 4t33.5 17l25 -68q-30 -17 -51 -22.5t-40 -5.5zM123 746l135 129h103l-146 -129h-92z" />
    <glyph glyph-name="lcaron.ss02" horiz-adv-x="292" 
d="M166 -12q-66 0 -96 39t-19 109l94 564h80l-94 -561q-6 -38 5 -57t38 -19q13 0 24.5 4t33.5 17l25 -68q-30 -17 -51 -22.5t-40 -5.5zM221 531l78 168h85l-94 -168h-69z" />
    <glyph glyph-name="uni013C.ss02" horiz-adv-x="292" 
d="M166 -12q-66 0 -96 39t-19 109l94 564h80l-94 -561q-6 -38 5 -57t38 -19q13 0 24.5 4t33.5 17l25 -68q-30 -17 -51 -22.5t-40 -5.5zM32 -200l70 140h88l-88 -140h-70z" />
    <glyph glyph-name="lslash.ss02" horiz-adv-x="325" 
d="M19 258l11 72l269 121l-11 -71zM197 -12q-66 0 -96 39t-19 109l94 564h80l-94 -561q-6 -38 5 -57t38 -19q13 0 24.5 4t33.5 17l25 -68q-29 -17 -50.5 -22.5t-40.5 -5.5z" />
    <glyph glyph-name="zero.ss02" horiz-adv-x="641" 
d="M97 158l430 413l50 -39l-420 -402zM285 -12q-62 0 -109.5 27.5t-77 77t-39 117.5t3.5 148q18 104 65 184t115 125t147 45q62 0 109 -27.5t77 -77.5t39.5 -117.5t-4.5 -147.5q-17 -103 -64.5 -183t-115 -125.5t-146.5 -45.5zM286 65q59 0 108.5 37t85 101.5t49.5 148.5
q14 82 1 146t-50 101t-93 37t-106 -37t-85.5 -101.5t-49.5 -149.5q-13 -82 0 -146t49 -100.5t91 -36.5z" />
    <glyph glyph-name="zero.tf" horiz-adv-x="623" 
d="M276 -12q-62 0 -109.5 27.5t-77 77t-39 117.5t3.5 148q18 104 65 184t115 125t147 45q62 0 109 -27.5t77 -77.5t39.5 -117.5t-4.5 -147.5q-17 -103 -64.5 -183t-115 -125.5t-146.5 -45.5zM277 65q59 0 108.5 37t85 101.5t49.5 148.5q14 82 1 146t-50 101t-93 37t-106 -37
t-85.5 -101.5t-49.5 -149.5q-13 -82 0 -146t49 -100.5t91 -36.5z" />
    <glyph glyph-name="one.tf" horiz-adv-x="623" 
d="M93 0l13 75h392l-13 -75h-392zM247 0l111 655l14 45h77l-119 -700h-83zM179 520l12 76q20 0 52 15t66.5 39.5t61.5 50.5l46 -60q-60 -51 -120.5 -86.5t-117.5 -34.5z" />
    <glyph glyph-name="two.tf" horiz-adv-x="623" 
d="M146 47l-79 24q6 33 24 66.5t47.5 64.5t71.5 60l164 108q29 19 53 43t40.5 50.5t20.5 52.5q7 50 -23.5 85t-89.5 35q-42 0 -77 -16.5t-60 -42.5t-38 -55l-84 22q19 45 56 83t89 61.5t111 23.5q71 0 119 -27t69.5 -74t11.5 -106q-8 -53 -45 -101.5t-102 -94.5l-155 -103
q-32 -22 -58.5 -47t-43 -53t-22.5 -59zM55 0l12 71l64 4h379l-13 -75h-442z" />
    <glyph glyph-name="three.tf" horiz-adv-x="623" 
d="M266 -12q-52 0 -92 16t-65.5 41t-38.5 54l74 36q9 -15 22 -31.5t36.5 -28.5t60.5 -12q47 0 85 19t62.5 51.5t30.5 73.5q8 43 -12 72.5t-62.5 44.5t-105.5 15h-21l10 66h15q63 0 114 -14.5t86 -42t50.5 -67.5t6.5 -92q-10 -61 -47 -106.5t-92 -70t-117 -24.5zM241 346
l10 65h16q86 0 144.5 30.5t66.5 88.5q7 43 -23 75t-88 32q-42 0 -78 -17.5t-65 -50.5l-62 41q24 32 57 55t72 35t82 12q63 0 108.5 -25t67.5 -67.5t13 -95.5q-8 -43 -34 -76.5t-66.5 -56t-91.5 -34t-110 -11.5h-19z" />
    <glyph glyph-name="four.tf" horiz-adv-x="623" 
d="M101 196l-58 39l397 465l46 -48zM32 170l11 65l55 10h494l-12 -75h-548zM326 0l109 646l5 54h85l-117 -700h-82z" />
    <glyph glyph-name="five.tf" horiz-adv-x="623" 
d="M276 -12q-42 0 -85 13t-77.5 39.5t-52.5 67.5l71 35q28 -43 65.5 -62.5t78.5 -19.5q48 0 87.5 20.5t66 56t33.5 82.5q12 66 -21.5 107.5t-99.5 41.5q-40 0 -79 -17t-63 -41l-75 19l95 370h374l-12 -76h-368l6 73h84l-100 -371l-65 5q17 21 41.5 40.5t53 34.5t60 24
t63.5 8q65 0 111.5 -29t67.5 -80t10 -118q-11 -66 -49 -116t-95 -78.5t-126 -28.5z" />
    <glyph glyph-name="six.tf" horiz-adv-x="623" 
d="M289 -12q-74 0 -119 27.5t-67 75.5t-24.5 110.5t9.5 132.5q15 89 44.5 159t72 119t95.5 74.5t115 25.5q55 0 104.5 -17t85.5 -46l-54 -58q-28 23 -62.5 34.5t-66.5 11.5q-103 0 -173 -87t-92 -262l-16 22q34 61 91.5 95.5t127.5 34.5q60 0 105.5 -25.5t70.5 -68.5t25 -95
t-19.5 -99.5t-56 -84.5t-86.5 -58t-110 -21zM292 62q55 0 97 27t65.5 69.5t23.5 91.5q0 53 -34.5 85t-91.5 32q-47 0 -86.5 -20t-65.5 -56.5t-34 -83.5q-10 -64 25 -104.5t101 -40.5z" />
    <glyph glyph-name="seven.tf" horiz-adv-x="623" 
d="M81 0l455 648l78 -18l-437 -630h-96zM147 623l13 77h465l-11 -70l-66 -7h-401z" />
    <glyph glyph-name="eight.tf" horiz-adv-x="623" 
d="M272 -12q-77 0 -130.5 25t-78 70.5t-15.5 103.5q10 60 48 104.5t97 69.5t134 25q78 0 131.5 -27t78 -73.5t14.5 -108.5q-9 -56 -47 -98.5t-97.5 -66.5t-134.5 -24zM275 62q51 0 92.5 17.5t68.5 48t33 69.5q9 56 -30.5 90t-111.5 34q-50 0 -92 -17.5t-69 -48.5t-33 -71
q-8 -55 31.5 -88.5t110.5 -33.5zM331 337q-69 0 -117.5 24t-70 67t-12.5 99q10 55 44 96.5t87.5 65t119.5 23.5q70 0 118 -24.5t70 -69t12 -101.5q-9 -54 -43.5 -94t-87.5 -63t-120 -23zM331 400q44 0 80 15t59.5 43t28.5 63q9 52 -24.5 85t-94.5 33q-42 0 -78.5 -16.5
t-60.5 -46.5t-30 -69q-7 -48 26.5 -77.5t93.5 -29.5z" />
    <glyph glyph-name="nine.tf" horiz-adv-x="623" 
d="M368 712q74 0 119 -27.5t66.5 -75.5t24 -110.5t-9.5 -132.5q-14 -90 -44 -160t-72 -118.5t-95.5 -74t-115.5 -25.5q-53 0 -103 17t-86 46l53 58q29 -23 63.5 -34.5t66.5 -11.5q103 0 172.5 87t92.5 262l16 -22q-34 -61 -91.5 -96t-127.5 -35q-60 0 -105.5 26t-71 69
t-25.5 95t19.5 99.5t56 84.5t87 58t110.5 21zM365 638q-55 0 -97 -27t-65.5 -69.5t-23.5 -91.5q0 -53 34.5 -85.5t91.5 -32.5q47 0 86.5 20.5t66 56.5t32.5 83q10 65 -25 105.5t-100 40.5z" />
    <glyph glyph-name="zero.tf.ss02" horiz-adv-x="623" 
d="M89 158l430 413l50 -39l-420 -402zM276 -12q-62 0 -109.5 27.5t-76.5 77t-38.5 117.5t3.5 148q17 104 64.5 184t115 125t146.5 45q62 0 109.5 -27.5t77 -77.5t39 -117.5t-4.5 -147.5q-17 -103 -64.5 -183t-115 -125.5t-146.5 -45.5zM278 65q58 0 107.5 37t85 101.5
t49.5 148.5q14 82 1 146t-49.5 101t-93.5 37q-56 0 -106 -37t-85.5 -101.5t-49.5 -149.5q-13 -82 0 -146t49.5 -100.5t91.5 -36.5z" />
    <glyph glyph-name="zero.dnom" horiz-adv-x="407" 
d="M165 -6q-53 0 -88 29.5t-48 79.5t-3 113q11 63 40 110.5t70.5 74.5t90.5 27q50 0 85.5 -27.5t50.5 -77.5t4 -117q-10 -61 -40 -109.5t-72 -75.5t-90 -27zM167 60q45 0 82 44t48 113q11 64 -9 105t-62 41q-44 0 -81 -43.5t-49 -114.5q-10 -63 10 -104t61 -41z" />
    <glyph glyph-name="one.dnom" horiz-adv-x="283" 
d="M91 0l64 381l13 39h64l-71 -420h-70zM50 295l10 65q14 0 33.5 9t39 23t34.5 28l41 -47q-43 -38 -81.5 -59t-76.5 -19z" />
    <glyph glyph-name="two.dnom" horiz-adv-x="361" 
d="M70 19l-66 38q5 29 31 60t67 57l79 52q26 16 46 37.5t22 41.5q3 24 -12 40.5t-44 16.5q-31 0 -54.5 -17.5t-34.5 -42.5l-73 18q17 43 60.5 75t100.5 32q69 0 104.5 -37t25.5 -92q-6 -38 -30 -67.5t-65 -55.5l-73 -47q-19 -13 -37 -28.5t-30.5 -35t-16.5 -45.5zM-6 0
l10 57l55 8h229l-10 -65h-284z" />
    <glyph glyph-name="three.dnom" horiz-adv-x="331" 
d="M128 -6q-55 0 -89 24t-41 62l68 19q5 -10 11.5 -20t18 -16t28.5 -6q37 0 62 21t28 52q4 27 -17.5 44t-69.5 17h-24l9 51h16q48 0 86 -16t57.5 -45t12.5 -69q-6 -37 -29.5 -63.5t-56.5 -40.5t-70 -14zM105 202l8 50h18q44 0 73 15t32 47q3 18 -11 34.5t-43 16.5
q-20 0 -39.5 -10t-35.5 -33l-61 26q14 26 36.5 44t50.5 27t55 9q40 0 69 -15.5t43 -41.5t8 -60q-6 -36 -32.5 -60.5t-66 -36.5t-83.5 -12h-21z" />
    <glyph glyph-name="four.dnom" horiz-adv-x="393" 
d="M63 116l-50 30l234 274l37 -41zM3 88l10 58l42 5h300l-11 -63h-341zM183 0l64 379v41h76l-71 -420h-69z" />
    <glyph glyph-name="five.dnom" horiz-adv-x="368" 
d="M149 -6q-28 0 -56.5 9.5t-50 28t-29.5 45.5l67 19q11 -21 29 -30t38 -9q36 0 62 22t33 59q5 31 -11.5 51t-48.5 20q-20 0 -39.5 -9.5t-32.5 -22.5l-64 16l62 228h234l-11 -66h-224l1 64h72l-68 -231l-43 7q12 15 32 31.5t47.5 28t57.5 11.5q53 -1 86.5 -36.5t22.5 -99.5
q-6 -40 -30 -70.5t-59 -48t-77 -17.5z" />
    <glyph glyph-name="six.dnom" horiz-adv-x="356" 
d="M148 -6q-58 0 -89 28.5t-38.5 74.5t1.5 100q12 68 38.5 120t68 81.5t96.5 29.5q34 0 65 -10t53 -28l-43 -51q-16 14 -37 19.5t-37 5.5q-50 0 -88 -45t-51 -138l-14 15q20 34 52 53.5t70 19.5q41 0 70 -19t42.5 -51t6.5 -73q-10 -58 -55 -95t-111 -37zM149 56q35 0 62 23
t32 58q6 31 -11 51.5t-48 20.5q-34 0 -61 -23.5t-33 -57.5q-5 -32 12 -52t47 -20z" />
    <glyph glyph-name="seven.dnom" horiz-adv-x="341" 
d="M19 0l243 364l77 1l-238 -365h-82zM46 354l11 66h291l-9 -55l-72 -11h-221z" />
    <glyph glyph-name="eight.dnom" horiz-adv-x="389" 
d="M156 -6q-75 0 -112.5 34t-28.5 87t54.5 86.5t117.5 33.5q79 0 114 -37t26 -92q-8 -49 -53 -80.5t-118 -31.5zM157 55q38 0 66 19.5t33 49.5q4 28 -14.5 45.5t-52.5 17.5q-37 0 -65.5 -20t-33.5 -52q-4 -27 14.5 -43.5t52.5 -16.5zM188 247q35 0 59 18t29 47q4 25 -12 41
t-45 16q-34 0 -58 -19t-29 -51q-3 -22 13 -37t43 -15zM191 203q-67 0 -101 32t-26 84q8 49 50 79t105 30q69 0 103 -33t25 -87q-7 -46 -49.5 -75.5t-106.5 -29.5z" />
    <glyph glyph-name="nine.dnom" horiz-adv-x="355" 
d="M117 -6q-34 0 -64.5 10t-53.5 28l43 50q17 -13 37.5 -18.5t35.5 -5.5q53 0 90 45t50 137l14 -14q-20 -34 -52.5 -53.5t-70.5 -19.5q-41 0 -70 19t-42 51.5t-6 73.5q10 58 55.5 94.5t109.5 36.5q59 0 89 -27.5t38.5 -73t-0.5 -101.5q-11 -68 -38 -120t-68 -82t-97 -30z
M157 213q35 0 62 23t33 59q5 29 -11.5 50t-48.5 21q-34 0 -61 -22.5t-32 -56.5q-5 -31 10 -52.5t48 -21.5z" />
    <glyph glyph-name="zero.numr" horiz-adv-x="407" 
d="M212 273q-53 0 -88 29.5t-48 79.5t-3 113q11 63 40 110.5t70.5 74.5t90.5 27q50 0 85.5 -27.5t50.5 -77.5t4 -117q-10 -61 -40 -109.5t-72 -75.5t-90 -27zM214 339q45 0 82 44t48 113q11 64 -9 105t-62 41q-44 0 -81 -43.5t-49 -114.5q-10 -63 10 -104t61 -41z" />
    <glyph glyph-name="one.numr" horiz-adv-x="283" 
d="M138 280l64 381l13 39h64l-71 -420h-70zM97 575l10 65q14 0 33.5 9t39 23t34.5 28l41 -47q-43 -38 -81.5 -59t-76.5 -19z" />
    <glyph glyph-name="two.numr" horiz-adv-x="361" 
d="M117 299l-66 38q5 29 31 60t67 57l79 52q26 16 46 37.5t22 41.5q3 24 -12 40.5t-44 16.5q-31 0 -54.5 -17.5t-34.5 -42.5l-73 18q17 43 60.5 75t100.5 32q69 0 104.5 -37t25.5 -92q-6 -38 -30 -67.5t-65 -55.5l-73 -47q-19 -13 -37 -28.5t-30.5 -35t-16.5 -45.5zM41 280
l10 57l55 8h229l-10 -65h-284z" />
    <glyph glyph-name="three.numr" horiz-adv-x="331" 
d="M175 273q-55 0 -89 24t-41 62l68 19q5 -10 11.5 -20t18 -16t28.5 -6q37 0 62 21t28 52q4 27 -17.5 44t-69.5 17h-24l9 51h16q48 0 86 -16t57.5 -45t12.5 -69q-6 -37 -29.5 -63.5t-56.5 -40.5t-70 -14zM152 481l8 50h18q44 0 73 15t32 47q3 18 -11 34.5t-43 16.5
q-20 0 -39.5 -10t-35.5 -33l-61 26q14 26 36.5 44t50.5 27t55 9q40 0 69 -15.5t43 -41.5t8 -60q-6 -36 -32.5 -60.5t-66 -36.5t-83.5 -12h-21z" />
    <glyph glyph-name="four.numr" horiz-adv-x="393" 
d="M110 396l-50 30l234 274l37 -41zM50 368l10 58l42 5h300l-11 -63h-341zM230 280l64 379v41h76l-71 -420h-69z" />
    <glyph glyph-name="five.numr" horiz-adv-x="368" 
d="M196 273q-28 0 -56.5 9.5t-50 28t-29.5 45.5l67 19q11 -21 29 -30t38 -9q36 0 62 22t33 59q5 31 -11.5 51t-48.5 20q-20 0 -39.5 -9.5t-32.5 -22.5l-64 16l62 228h234l-11 -66h-224l1 64h72l-68 -231l-43 7q12 15 32 31.5t47.5 28t57.5 11.5q53 -1 86.5 -36.5t22.5 -99.5
q-6 -40 -30 -70.5t-59 -48t-77 -17.5z" />
    <glyph glyph-name="six.numr" horiz-adv-x="356" 
d="M195 273q-58 0 -89 28.5t-38.5 74.5t1.5 100q12 68 38.5 120t68 81.5t96.5 29.5q34 0 65 -10t53 -28l-43 -51q-16 14 -37 19.5t-37 5.5q-50 0 -88 -45t-51 -138l-14 15q20 34 52 53.5t70 19.5q41 0 70 -19t42.5 -51t6.5 -73q-10 -58 -55 -95t-111 -37zM196 335
q35 0 62 23t32 58q6 31 -11 51.5t-48 20.5q-34 0 -61 -23.5t-33 -57.5q-5 -32 12 -52t47 -20z" />
    <glyph glyph-name="seven.numr" horiz-adv-x="341" 
d="M66 280l243 364l77 1l-238 -365h-82zM93 634l11 66h291l-9 -55l-72 -11h-221z" />
    <glyph glyph-name="eight.numr" horiz-adv-x="389" 
d="M203 273q-75 0 -112.5 34t-28.5 87t54.5 86.5t117.5 33.5q79 0 114 -37t26 -92q-8 -49 -53 -80.5t-118 -31.5zM204 334q38 0 66 19.5t33 49.5q4 28 -14.5 45.5t-52.5 17.5q-37 0 -65.5 -20t-33.5 -52q-4 -27 14.5 -43.5t52.5 -16.5zM235 526q35 0 59 18t29 47
q4 25 -12 41t-45 16q-34 0 -58 -19t-29 -51q-3 -22 13 -37t43 -15zM238 482q-67 0 -101 32t-26 84q8 49 50 79t105 30q69 0 103 -33t25 -87q-7 -46 -49.5 -75.5t-106.5 -29.5z" />
    <glyph glyph-name="nine.numr" horiz-adv-x="355" 
d="M164 273q-34 0 -64.5 10t-53.5 28l43 50q17 -13 37.5 -18.5t35.5 -5.5q53 0 90 45t50 137l14 -14q-20 -34 -52.5 -53.5t-70.5 -19.5q-41 0 -70 19t-42 51.5t-6 73.5q10 58 55.5 94.5t109.5 36.5q59 0 89 -27.5t38.5 -73t-0.5 -101.5q-11 -68 -38 -120t-68 -82t-97 -30z
M204 492q35 0 62 23t33 59q5 29 -11.5 50t-48.5 21q-34 0 -61 -22.5t-32 -56.5q-5 -31 10 -52.5t48 -21.5z" />
    <glyph glyph-name="periodcentered.loclCAT" horiz-adv-x="104" 
d="M62 259q-16 0 -28.5 8.5t-18.5 22.5t-4 30q4 20 21 35t38 15q17 0 29 -8.5t18 -22t4 -30.5q-4 -20 -21 -35t-38 -15z" />
    <glyph glyph-name="periodcentered.loclCAT.case" horiz-adv-x="0" 
d="M-42 302q-16 0 -28.5 8.5t-18.5 22.5t-4 30q4 20 21 35t38 15q17 0 29 -8.5t18 -22t4 -30.5q-4 -20 -21 -35t-38 -15z" />
    <glyph glyph-name="uni030C.alt" horiz-adv-x="0" 
d="M47 531l78 168h85l-94 -168h-69z" />
    <glyph glyph-name="uni0328.alt" horiz-adv-x="0" 
d="M73 -212q-34 0 -61 10t-42 28t-15 42t11 48.5t31.5 47t46.5 42t56 34.5l21 -3q-42 -33 -67.5 -74t-25.5 -76q0 -15 11 -24.5t27 -9.5q17 0 35 3.5t30 8.5l21 -59q-17 -8 -39 -13t-40 -5z" />
    <glyph glyph-name="uni0304.narrow" horiz-adv-x="0" 
d="M75 575l12 73h265l-12 -73h-265z" />
    </font>
</defs>
</svg>
