<?xml version="1.0" standalone="no"?>
<!DOCTYPE svg PUBLIC "-//W3C//DTD SVG 1.1//EN" "http://www.w3.org/Graphics/SVG/1.1/DTD/svg11.dtd" >
<svg xmlns="http://www.w3.org/2000/svg" xmlns:xlink="http://www.w3.org/1999/xlink" version="1.1">
<metadata>
Created by FontForge 20201107 at Fri Jun 16 12:36:38 2023
 By 
Copyright 2022 The Figtree Project Authors (https://github.com/erikdkennedy/figtree)
</metadata>
<defs>
<font id="Figtree-ExtraBold" horiz-adv-x="636" >
  <font-face 
    font-family="Figtree ExtraBold"
    font-weight="800"
    font-stretch="normal"
    units-per-em="1000"
    panose-1="0 0 0 0 0 0 0 0 0 0"
    ascent="800"
    descent="-200"
    x-height="500"
    cap-height="700"
    bbox="-183 -220 1100 964"
    underline-thickness="50"
    underline-position="-125"
    unicode-range="U+000D-2265"
  />
<missing-glyph horiz-adv-x="708" 
d="M100 -170v960h508v-960h-508zM158 -112h392v844h-392v-844z" />
    <glyph glyph-name=".notdef" horiz-adv-x="708" 
d="M100 -170v960h508v-960h-508zM158 -112h392v844h-392v-844z" />
    <glyph glyph-name=".null" horiz-adv-x="0" 
 />
    <glyph glyph-name="nonmarkingreturn" horiz-adv-x="333" 
 />
    <glyph glyph-name="CR" unicode="&#xd;" horiz-adv-x="600" 
 />
    <glyph glyph-name="space" unicode=" " horiz-adv-x="234" 
 />
    <glyph glyph-name="exclam" unicode="!" horiz-adv-x="319" 
d="M85 239l-12 461h173l-12 -461h-149zM160 -16q-38 0 -65 27.5t-27 64.5t27 64.5t65 27.5q37 0 64 -27.5t27 -64.5t-27 -64.5t-64 -27.5z" />
    <glyph glyph-name="quotedbl" unicode="&#x22;" horiz-adv-x="454" 
d="M77 450l-17 266h146l-17 -266h-112zM265 450l-17 266h146l-17 -266h-112z" />
    <glyph glyph-name="numbersign" unicode="#" horiz-adv-x="632" 
d="M312 0l110 700h112l-110 -700h-112zM10 175l16 109h562l-16 -109h-562zM102 0l110 700h112l-110 -700h-112zM40 390l20 110h562l-20 -110h-562z" />
    <glyph glyph-name="dollar" unicode="$" horiz-adv-x="550" 
d="M280 24q-61 0 -114 20.5t-88 55t-43 74.5l144 41q10 -26 34 -45t63 -20q36 -1 60.5 17t24.5 47q0 21 -17.5 38.5t-49.5 25.5l-89 22q-48 13 -82.5 38t-53 62t-18.5 84q0 90 60 141t170 51q59 0 104.5 -16t77.5 -49t51 -82l-143 -42q-7 23 -31 43t-61 20t-58 -17t-21 -48
q0 -23 17 -37.5t46 -22.5l89 -23q77 -19 119.5 -70.5t42.5 -117.5q0 -59 -28 -101.5t-80 -65.5t-126 -23zM219 -103v883h127v-883h-127z" />
    <glyph glyph-name="percent" unicode="%" horiz-adv-x="825" 
d="M86 0l497 700h150l-500 -700h-147zM622 -15q-49 0 -86.5 22.5t-58.5 62.5t-21 91q0 53 21 92.5t58.5 62t86.5 22.5t86 -23t58 -62.5t21 -91.5q0 -51 -21 -91t-58.5 -62.5t-85.5 -22.5zM621 84q28 0 45 22.5t17 54.5q0 33 -17 55t-45 22q-27 0 -43.5 -22t-16.5 -55
q0 -32 16.5 -54.5t43.5 -22.5zM204 363q-48 0 -86 22.5t-59 62.5t-21 91q0 53 21 92.5t59 62t86 22.5q49 0 86 -23t58.5 -62.5t21.5 -91.5q0 -51 -21.5 -91t-58.5 -62.5t-86 -22.5zM204 462q27 0 44 22.5t17 54.5q0 33 -17 55t-44 22t-44 -22t-17 -55q0 -32 17 -54.5
t44 -22.5z" />
    <glyph glyph-name="ampersand" unicode="&#x26;" horiz-adv-x="649" 
d="M251 -13q-62 0 -111 24.5t-76.5 67t-27.5 98.5q0 34 13 64.5t36 57.5t53 48l150 103q12 8 28 20t29.5 30t13.5 41q0 24 -19 37t-46 13q-28 0 -45.5 -13.5t-17.5 -36.5q0 -24 15 -41.5t32 -40.5l138 -166l243 -293h-178l-172 205l-149 181q-30 38 -47 65t-24 49t-7 43
q0 49 27.5 87.5t73.5 60.5t103 22q63 0 112 -22.5t76.5 -62t27.5 -91.5q0 -42 -21 -77t-63.5 -71.5t-107.5 -80.5l-70 -49q-13 -9 -22.5 -21t-15.5 -26.5t-6 -30.5q0 -28 18.5 -46t48.5 -18q37 0 76 11.5t72 34t52.5 56.5t19.5 80h143q0 -90 -48 -161t-132.5 -111
t-194.5 -40z" />
    <glyph glyph-name="quotesingle" unicode="'" horiz-adv-x="266" 
d="M77 450l-17 266h146l-17 -266h-112z" />
    <glyph glyph-name="parenleft" unicode="(" horiz-adv-x="396" 
d="M210 -100q-46 61 -84 132.5t-60 151.5t-22 166q0 87 22 166.5t60 151t84 132.5h152q-46 -64 -84 -137t-60 -151.5t-22 -161.5q0 -82 22 -161t60 -151.5t84 -137.5h-152z" />
    <glyph glyph-name="parenright" unicode=")" horiz-adv-x="396" 
d="M186 -100h-152q47 65 84.5 137.5t59.5 151.5t22 161q0 83 -22 161.5t-59.5 151.5t-84.5 137h152q47 -61 84.5 -132.5t59.5 -151t22 -166.5q0 -86 -22 -166t-59.5 -151.5t-84.5 -132.5z" />
    <glyph glyph-name="asterisk" unicode="*" horiz-adv-x="491" 
d="M315 339l-98 165l59 43l127 -145zM177 337l-87 63l126 146l60 -43zM234 489l-188 43l33 103l178 -76zM209 524l-18 192h108l-17 -192h-73zM256 489l-22 70l178 75l33 -102z" />
    <glyph glyph-name="plus" unicode="+" 
d="M256 65v466h124v-466h-124zM85 236v124h466v-124h-466z" />
    <glyph glyph-name="comma" unicode="," horiz-adv-x="272" 
d="M23 -114l64 248h158l-106 -248h-116z" />
    <glyph glyph-name="hyphen" unicode="-" horiz-adv-x="404" 
d="M52 232v132h300v-132h-300z" />
    <glyph glyph-name="period" unicode="." horiz-adv-x="267" 
d="M134 -15q-38 0 -65 27t-27 65q0 37 27 64t65 27q37 0 64 -27t27 -64q0 -38 -27 -65t-64 -27z" />
    <glyph glyph-name="slash" unicode="/" horiz-adv-x="452" 
d="M15 -84l276 831h146l-274 -831h-148z" />
    <glyph glyph-name="zero" unicode="0" horiz-adv-x="652" 
d="M325 -12q-86 0 -153 46.5t-104.5 128t-37.5 187.5t37.5 187.5t104 128t152.5 46.5q87 0 154 -46.5t105.5 -128t38.5 -187.5t-38 -187.5t-105 -128t-154 -46.5zM326 134q40 0 71.5 28t49.5 76.5t18 111.5q0 64 -18 113t-50 77t-73 28q-40 0 -71 -28t-48.5 -77t-17.5 -113
q0 -63 17.5 -112t49 -76.5t72.5 -27.5z" />
    <glyph glyph-name="one" unicode="1" horiz-adv-x="426" 
d="M185 0v614l16 86h137v-700h-153zM41 460v146q27 -2 55.5 12t56 37.5t48.5 46.5l102 -99q-37 -42 -79 -76.5t-87 -53t-96 -13.5z" />
    <glyph glyph-name="two" unicode="2" horiz-adv-x="588" 
d="M48 0v116q0 27 20 62.5t55.5 72.5t80.5 68l88 60q20 13 40 30.5t33 38t13 41.5q0 22 -10.5 39.5t-31 27t-53.5 9.5q-25 0 -44.5 -10.5t-32 -28t-18.5 -38.5l-166 28q10 52 43.5 97t89 72.5t127.5 27.5q82 0 140 -28.5t89.5 -78.5t31.5 -116q0 -70 -38.5 -121t-101.5 -94
l-77 -53q-24 -16 -44 -36t-35 -45h304v-141h-503z" />
    <glyph glyph-name="three" unicode="3" horiz-adv-x="561" 
d="M286 -12q-66 0 -120.5 20t-90 58.5t-46.5 94.5l152 37q6 -12 15.5 -29t28.5 -29.5t51 -12.5q42 0 66 22.5t24 59.5q0 22 -10.5 41.5t-38 31t-77.5 11.5h-52v104h46q59 0 111.5 -14.5t93.5 -42.5t64.5 -66t23.5 -86q0 -64 -34 -109t-89 -68t-118 -23zM188 326v97h52
q63 0 89 21t26 57q0 21 -10 37t-28 25.5t-41 9.5q-17 0 -35 -6t-33 -21t-23 -43l-150 36q11 57 48.5 95.5t89.5 58t107 19.5q66 0 119.5 -24.5t85 -68t31.5 -101.5q0 -50 -24.5 -86t-65 -59.5t-90.5 -35t-102 -11.5h-46z" />
    <glyph glyph-name="four" unicode="4" horiz-adv-x="639" 
d="M345 0v123h-327v129l306 448h173v-440h112v-137h-112v-123h-152zM179 260h166v243z" />
    <glyph glyph-name="five" unicode="5" horiz-adv-x="584" 
d="M295 -12q-52 0 -105 18t-94.5 52t-58.5 84l152 36q15 -26 40.5 -38.5t54.5 -12.5q44 0 71.5 26.5t27.5 71.5q0 41 -26.5 69.5t-72.5 28.5q-28 0 -49.5 -13t-31.5 -31l-145 32l46 389h406v-146h-270l-20 -143q26 15 59 23.5t72 8.5q54 -1 99.5 -28t72.5 -73.5t27 -107.5
q0 -73 -33 -128.5t-90 -86.5t-132 -31z" />
    <glyph glyph-name="six" unicode="6" horiz-adv-x="586" 
d="M299 -12q-70 0 -120 25t-82 69t-47.5 102.5t-15.5 126.5q0 76 15.5 148t50 129t91 90.5t137.5 33.5q57 0 110 -16t96 -46l-78 -118q-31 21 -66 30.5t-62 9.5q-66 0 -106 -60.5t-39 -193.5l-32 19q23 52 69 84t109 32q67 0 118 -32t80 -86t29 -121q0 -65 -31.5 -116
t-89 -80.5t-136.5 -29.5zM300 123q27 0 49 13t34.5 35.5t12.5 50.5q0 29 -12.5 52t-34.5 36.5t-49 13.5q-28 0 -50.5 -13.5t-35.5 -36.5t-13 -52q0 -28 13 -50.5t35.5 -35.5t50.5 -13z" />
    <glyph glyph-name="seven" unicode="7" horiz-adv-x="564" 
d="M99 0l260 558l175 26l-257 -584h-178zM29 552v148h505v-116l-172 -32h-333z" />
    <glyph glyph-name="eight" unicode="8" horiz-adv-x="611" 
d="M305 -12q-88 0 -148 24.5t-90.5 68t-30.5 101.5q0 63 30.5 110.5t90.5 74.5t148 27q89 0 148.5 -27t90.5 -74.5t31 -110.5q0 -58 -31 -101.5t-90.5 -68t-148.5 -24.5zM305 121q46 0 75.5 23.5t29.5 59.5q0 42 -29.5 67.5t-75.5 25.5q-30 0 -53.5 -11.5t-37 -32.5
t-13.5 -49q0 -24 13.5 -42.5t37 -29.5t53.5 -11zM305 337q-80 0 -135 23.5t-84 65t-29 96.5q0 56 29 99t84 67t135 24q79 0 134.5 -24t85 -67t29.5 -99q0 -55 -29.5 -96.5t-85 -65t-134.5 -23.5zM305 420q40 0 66 23.5t26 59.5t-26 58.5t-66 22.5t-65.5 -22.5t-25.5 -58.5
t25.5 -59.5t65.5 -23.5z" />
    <glyph glyph-name="nine" unicode="9" horiz-adv-x="586" 
d="M288 711q70 0 120 -24.5t82 -68.5t47.5 -102.5t15.5 -127.5q0 -76 -16 -147.5t-50 -129t-90.5 -91t-137.5 -33.5q-57 0 -110 16t-96 46l77 118q31 -21 66 -30t62 -9q66 0 106.5 60t38.5 193l33 -19q-24 -51 -69.5 -83.5t-109.5 -32.5q-66 0 -117.5 32t-80.5 86.5
t-29 120.5t31.5 117t89.5 80t137 29zM287 576q-28 0 -50 -13t-34.5 -35t-12.5 -51q0 -28 12.5 -51.5t34.5 -37t50 -13.5t50 13.5t35 37t13 51.5q0 29 -13 51t-35 35t-50 13z" />
    <glyph glyph-name="colon" unicode=":" horiz-adv-x="324" 
d="M162 317q-38 0 -65 27t-27 65q0 37 27 64t65 27q37 0 64 -27t27 -64q0 -38 -27 -65t-64 -27zM162 -1q-37 0 -64.5 27t-27.5 64q0 38 27.5 65t64.5 27t64.5 -27t27.5 -65q0 -37 -27.5 -64t-64.5 -27z" />
    <glyph glyph-name="semicolon" unicode=";" horiz-adv-x="326" 
d="M162 314q-38 0 -65 27t-27 65q0 37 27 64t65 27q37 0 64 -27t27 -64q0 -38 -27 -65t-64 -27zM31 -114l64 248h158l-106 -248h-116z" />
    <glyph glyph-name="less" unicode="&#x3c;" 
d="M510 527v-138l-387 -150v121zM123 356l387 -148v-138l-387 165v121z" />
    <glyph glyph-name="equal" unicode="=" 
d="M118 336v123h400v-123h-400zM118 136v123h400v-123h-400z" />
    <glyph glyph-name="greater" unicode="&#x3e;" 
d="M126 69v138l387 151v-122zM513 240l-387 148v139l387 -165v-122z" />
    <glyph glyph-name="question" unicode="?" horiz-adv-x="518" 
d="M157 207l-6 175l83 7q47 4 76 26.5t29 68.5q0 39 -27 63.5t-70 24.5q-30 0 -52 -15t-31 -38l-140 38q20 71 78.5 113t144.5 42q72 0 127 -29t87 -80.5t32 -118.5q0 -51 -22.5 -91.5t-63.5 -66.5t-96 -34l-2 -85h-147zM230 -15q-37 0 -64 27t-27 65q0 37 27 64t64 27
q38 0 65 -27t27 -64q0 -38 -27 -65t-65 -27z" />
    <glyph glyph-name="at" unicode="@" horiz-adv-x="993" 
d="M516 -209q-106 0 -195 34t-154.5 96t-101 146t-35.5 185q0 102 35.5 186.5t100.5 146.5t154.5 96t196.5 34q97 0 179 -34t142 -96t92.5 -146.5t32.5 -186.5h-109q0 78 -25 143t-70 113t-107 73.5t-136 25.5q-83 0 -152 -25.5t-119.5 -73.5t-78 -113t-27.5 -143
t27.5 -142.5t78 -111.5t119.5 -73t152 -26q34 0 71.5 10.5t61.5 27.5l62 -87q-42 -26 -96.5 -42.5t-98.5 -16.5zM453 14q-59 0 -104.5 30.5t-71 84.5t-25.5 123q0 70 25.5 123t71 83.5t104.5 30.5q63 0 111 -30.5t76 -83.5t28 -123q0 -69 -28 -123t-76 -84.5t-111 -30.5z
M504 141q28 0 50 14t34.5 39t12.5 58t-13.5 57.5t-37 38.5t-53.5 14t-52.5 -13.5t-35.5 -38t-13 -57.5q0 -32 14 -58t38 -40t56 -14zM751 -15q-41 0 -75 16.5t-53.5 46.5t-19.5 68l117 8q0 -25 12 -34t31 -9q27 0 47 22t32 60.5t12 88.5h109q0 -78 -27 -138t-75 -94.5
t-110 -34.5zM603 116l-8 363h125v-355z" />
    <glyph glyph-name="A" unicode="A" horiz-adv-x="732" 
d="M554 0l-262 700h160l272 -700h-170zM8 0l272 700h160l-262 -700h-170zM136 133v142h461v-142h-461z" />
    <glyph glyph-name="B" unicode="B" horiz-adv-x="613" 
d="M68 0v700h245q72 0 127 -22t86 -67t31 -114q0 -37 -19.5 -69.5t-53.5 -58.5q48 -25 73.5 -65.5t25.5 -99.5q0 -66 -30 -111.5t-83 -69t-124 -23.5h-278zM225 142h103q41 0 65 21.5t24 55.5q0 36 -25 56.5t-69 20.5h-98v-154zM225 425h83q38 0 61 19.5t23 54.5
q0 36 -24.5 55.5t-65.5 19.5h-77v-149z" />
    <glyph glyph-name="C" unicode="C" horiz-adv-x="727" 
d="M384 -12q-104 0 -183.5 46.5t-125 128t-45.5 187.5t45.5 187.5t125 128t183.5 46.5q76 0 139.5 -26.5t110 -74.5t71.5 -111l-151 -51q-15 35 -40.5 61t-58 40t-71.5 14q-55 0 -98 -27t-67 -75.5t-24 -111.5t24.5 -111.5t68 -76t99.5 -27.5q41 0 73 15t55.5 42t40.5 62
l151 -51q-24 -64 -71 -112.5t-111 -75.5t-141 -27z" />
    <glyph glyph-name="D" unicode="D" horiz-adv-x="705" 
d="M68 0v700h229q111 0 196.5 -45t133.5 -123.5t48 -181.5q0 -102 -48 -181t-133.5 -124t-196.5 -45h-229zM229 152h68q46 0 85 14.5t68 41t45 63t16 79.5t-16 79.5t-45 63t-68 41t-85 14.5h-68v-396z" />
    <glyph glyph-name="E" unicode="E" horiz-adv-x="587" 
d="M68 0v700h456v-148h-295v-128h247v-143h-247v-133h300v-148h-461z" />
    <glyph glyph-name="F" unicode="F" horiz-adv-x="559" 
d="M68 0v700h464v-148h-303v-135h245v-147h-245v-270h-161z" />
    <glyph glyph-name="G" unicode="G" horiz-adv-x="735" 
d="M397 -12q-108 0 -190.5 46.5t-129.5 128t-47 187.5t47 187.5t129.5 128t190.5 46.5q67 0 121.5 -19.5t95.5 -53.5t68 -78l-133 -80q-15 24 -39.5 43t-53.5 29.5t-59 10.5q-59 0 -104.5 -27t-71.5 -75.5t-26 -111.5t25 -111.5t72 -76.5t109 -28q47 0 83 18t57 50t21 75
l153 26q0 -102 -41 -172.5t-112 -106.5t-165 -36zM402 260v124h313v-95l-90 -29h-223z" />
    <glyph glyph-name="H" unicode="H" horiz-adv-x="749" 
d="M520 0v700h161v-700h-161zM68 0v701h161v-701h-161zM182 283v148h424v-148h-424z" />
    <glyph glyph-name="I" unicode="I" horiz-adv-x="297" 
d="M68 0v700h161v-700h-161z" />
    <glyph glyph-name="J" unicode="J" horiz-adv-x="570" 
d="M247 -15q-58 0 -101.5 19t-73 49.5t-45 64t-18.5 62.5l140 47q13 -46 38 -70t62 -24q28 0 51 12.5t37 39t14 67.5v448h161v-490q0 -51 -19 -92.5t-54 -71t-84 -45.5t-108 -16z" />
    <glyph glyph-name="K" unicode="K" horiz-adv-x="692" 
d="M161 148l-8 215l310 337h210zM68 0v700h160v-700h-160zM484 0l-275 356l119 95l355 -451h-199z" />
    <glyph glyph-name="L" unicode="L" horiz-adv-x="545" 
d="M68 0v700h161v-552h298v-148h-459z" />
    <glyph glyph-name="M" unicode="M" horiz-adv-x="863" 
d="M68 0v700h177l186 -276l187 276h177v-700h-161v450l-202 -296l-203 296v-450h-161z" />
    <glyph glyph-name="N" unicode="N" horiz-adv-x="773" 
d="M68 0v700h169l307 -427v427h161v-700h-161l-315 439v-439h-161z" />
    <glyph glyph-name="O" unicode="O" horiz-adv-x="792" 
d="M398 -12q-108 0 -191 46.5t-130 128t-47 186.5q0 106 47 187.5t129.5 128t189.5 46.5t189.5 -46.5t129.5 -128t47 -187.5q0 -105 -46.5 -186.5t-128.5 -128t-189 -46.5zM398 136q59 0 104 27t70 75.5t25 110.5q0 63 -26 111.5t-71 76t-104 27.5t-104 -27.5t-71 -76
t-26 -111.5q0 -62 26 -110.5t72 -75.5t105 -27z" />
    <glyph glyph-name="P" unicode="P" horiz-adv-x="614" 
d="M68 0v700h275q76 0 135 -30.5t92.5 -84t33.5 -124.5q0 -69 -32.5 -123.5t-90.5 -85.5t-133 -31h-119v-221h-161zM229 369h115q43 0 69 25.5t26 66.5t-27.5 66.5t-72.5 25.5h-110v-184z" />
    <glyph glyph-name="Q" unicode="Q" horiz-adv-x="793" 
d="M398 -12q-108 0 -191 46.5t-130 128t-47 187.5q0 79 27 145t76 115t115.5 75.5t147.5 26.5q107 0 189.5 -46.5t129.5 -128t47 -188.5q0 -105 -46.5 -186.5t-128.5 -128t-189 -46.5zM650 -43l-262 266l103 97l259 -265zM398 136q59 0 104 27t70 75.5t25 111.5
q0 62 -26 110.5t-71 76t-104 27.5t-104 -27.5t-71 -76t-26 -110.5q0 -63 26 -111.5t72 -75.5t105 -27z" />
    <glyph glyph-name="R" unicode="R" horiz-adv-x="654" 
d="M68 0v700h275q76 0 135 -29.5t92.5 -82t33.5 -120.5t-34 -121t-93.5 -82.5t-136.5 -29.5h-111v-235h-161zM448 0l-158 278l121 89l221 -367h-184zM229 383h109q28 0 50 11t34.5 30.5t12.5 43.5q0 37 -27.5 61t-72.5 24h-106v-170z" />
    <glyph glyph-name="S" unicode="S" horiz-adv-x="603" 
d="M308 -12q-51 0 -97.5 13.5t-84 37t-61.5 53t-30 63.5l159 45q11 -29 38.5 -50.5t69.5 -22.5q41 -1 68.5 19t27.5 52q0 25 -19.5 44t-55.5 29l-99 25q-52 13 -90.5 41t-60 68.5t-21.5 92.5q0 101 67 157.5t189 56.5q67 0 117 -18.5t85.5 -54.5t56.5 -90l-158 -47
q-8 27 -34.5 49t-68.5 22t-65.5 -19t-23.5 -55q0 -25 19 -41.5t52 -24.5l99 -25q85 -21 132.5 -78.5t47.5 -130.5q0 -66 -30.5 -113t-88.5 -72.5t-140 -25.5z" />
    <glyph glyph-name="T" unicode="T" horiz-adv-x="599" 
d="M220 0v552h-204v148h568v-148h-204v-552h-160z" />
    <glyph glyph-name="U" unicode="U" horiz-adv-x="702" 
d="M349 -13q-90 0 -155.5 34t-100.5 96.5t-35 148.5v434h161v-434q0 -40 16 -69t45.5 -45t70.5 -16q40 0 70 16t46 45t16 69v434h161v-434q0 -86 -35.5 -148.5t-102 -96.5t-157.5 -34z" />
    <glyph glyph-name="V" unicode="V" horiz-adv-x="736" 
d="M300 0l255 700h174l-273 -700h-156zM282 0l-274 700h173l257 -700h-156z" />
    <glyph glyph-name="W" unicode="W" horiz-adv-x="996" 
d="M631 0l194 700h164l-205 -700h-153zM212 0l-204 700h164l193 -700h-153zM234 0l184 700h144l-183 -700h-145zM616 0l-182 700h144l191 -700h-153z" />
    <glyph glyph-name="X" unicode="X" horiz-adv-x="709" 
d="M10 0l272 383l219 317h192l-265 -362l-224 -338h-194zM505 0l-223 338l-266 362h192l220 -317l271 -383h-194z" />
    <glyph glyph-name="Y" unicode="Y" horiz-adv-x="666" 
d="M408 288l-155 32l224 380h183zM253 0v336h161v-336h-161zM258 288l-252 412h183l224 -380z" />
    <glyph glyph-name="Z" unicode="Z" horiz-adv-x="628" 
d="M34 0v152l351 396h-348v152h557v-152l-351 -396h348v-152h-557z" />
    <glyph glyph-name="bracketleft" unicode="[" horiz-adv-x="353" 
d="M68 -100v900h237v-140h-104v-620h104v-140h-237z" />
    <glyph glyph-name="backslash" unicode="\" horiz-adv-x="452" 
d="M437 -84h-148l-274 831h146z" />
    <glyph glyph-name="bracketright" unicode="]" horiz-adv-x="353" 
d="M285 -100h-237v140h104v620h-104v140h237v-900z" />
    <glyph glyph-name="asciicircum" unicode="^" horiz-adv-x="595" 
d="M389 373l-162 327h139l157 -327h-134zM72 373l155 327h138l-158 -327h-135z" />
    <glyph glyph-name="underscore" unicode="_" horiz-adv-x="432" 
d="M16 -131v131h400v-131h-400z" />
    <glyph glyph-name="grave" unicode="`" horiz-adv-x="283" 
d="M131 558l-131 143h169l113 -143h-151z" />
    <glyph glyph-name="a" unicode="a" horiz-adv-x="540" 
d="M348 0l-4 108v141q0 40 -7 70t-25 47t-54 17q-28 0 -49 -13t-36 -36l-136 45q17 37 46.5 67t72.5 48t100 18q78 0 132 -29t81 -81t27 -123l-2 -279h-146zM212 -12q-89 0 -138 40t-49 113q0 79 51 118t143 39h137v-100h-78q-50 0 -72 -14t-22 -39q0 -18 16.5 -28.5
t45.5 -10.5t51 12.5t34.5 33.5t12.5 46h39q0 -100 -42 -155t-129 -55z" />
    <glyph glyph-name="b" unicode="b" horiz-adv-x="600" 
d="M51 0v700h156v-607l-8 -93h-148zM349 -12q-62 0 -104 31.5t-63 90.5t-21 140q0 82 21 140.5t63 90t104 31.5q70 0 121 -31.5t78 -90t27 -140.5q0 -81 -27 -140t-78 -90.5t-121 -31.5zM309 132q30 0 53 15t37 41.5t14 61.5t-13 61.5t-36.5 41.5t-53.5 15t-53.5 -15
t-36.5 -42t-13 -61q0 -35 13 -61.5t36 -41.5t53 -15z" />
    <glyph glyph-name="c" unicode="c" horiz-adv-x="548" 
d="M300 -12q-80 0 -142.5 33.5t-97.5 93t-35 135.5q0 77 35 136t96.5 92.5t141.5 33.5q77 0 141 -39t92 -113l-148 -50q-11 24 -36.5 39.5t-56.5 15.5t-54.5 -14.5t-37 -40.5t-13.5 -60t13.5 -59.5t38 -40.5t55.5 -15t56 16t37 42l148 -50q-29 -75 -92.5 -115t-140.5 -40z
" />
    <glyph glyph-name="d" unicode="d" horiz-adv-x="600" 
d="M400 0l-7 93v607h156v-700h-149zM251 -12q-70 0 -120.5 31.5t-78 90.5t-27.5 140q0 82 27.5 140.5t78 90t120.5 31.5q62 0 104.5 -31.5t63.5 -90t21 -140.5q0 -81 -21 -140t-63.5 -90.5t-104.5 -31.5zM292 132q29 0 52 15t36 41.5t13 61.5t-13 61.5t-36 41.5t-53 15
t-53 -15t-36.5 -41.5t-14.5 -61.5q1 -35 14.5 -61.5t37 -41.5t53.5 -15z" />
    <glyph glyph-name="e" unicode="e" horiz-adv-x="560" 
d="M291 -12q-78 0 -138 33.5t-94 92.5t-34 136q0 78 34.5 137t94.5 92t139 33q71 0 128 -34t90.5 -101t33.5 -167h-376l17 19q0 -34 14 -60t39 -39.5t56 -13.5q37 0 62.5 16.5t35.5 41.5l138 -47q-20 -47 -56.5 -78t-83.5 -46t-100 -15zM190 294l-16 20h224l-14 -20
q0 37 -15 59t-37 31.5t-44 9.5t-44.5 -9.5t-38 -31.5t-15.5 -59z" />
    <glyph glyph-name="f" unicode="f" horiz-adv-x="404" 
d="M101 0v546q0 82 43 129t132 47q33 0 69 -11.5t62 -26.5l-58 -110q-12 8 -24 11.5t-22 3.5q-24 0 -35 -16.5t-11 -54.5v-518h-156zM22 377v123h348v-123h-348z" />
    <glyph glyph-name="g" unicode="g" horiz-adv-x="608" 
d="M287 -214q-61 0 -106.5 8t-77.5 21t-53 29l61 124q16 -7 38 -17.5t54 -18.5t77 -8q35 0 62.5 13.5t43 42t15.5 71.5v449h156v-443q0 -84 -32 -145t-92 -93.5t-146 -32.5zM251 19q-70 0 -120.5 28.5t-78 81.5t-27.5 126q0 80 27.5 137t78 88.5t120.5 31.5
q58 0 100.5 -31.5t65.5 -89.5t23 -139q0 -72 -23 -124t-65.5 -80.5t-100.5 -28.5zM297 149q30 0 51.5 14.5t33 39.5t11.5 57q0 34 -12 59t-33.5 39t-51.5 14q-29 0 -51.5 -14t-35 -39t-13.5 -59q1 -32 13.5 -57t35.5 -39.5t52 -14.5z" />
    <glyph glyph-name="h" unicode="h" horiz-adv-x="575" 
d="M53 0v700h156v-700h-156zM375 0v256h156v-256h-156zM375 256q0 40 -9 63.5t-26 34.5t-40 12q-45 1 -68 -24.5t-23 -77.5h-47q0 79 24 134.5t65.5 84.5t95.5 29q61 0 102 -24.5t61.5 -74.5t20.5 -128v-29h-156z" />
    <glyph glyph-name="i" unicode="i" horiz-adv-x="276" 
d="M60 0v500h156v-500h-156zM138 564q-35 0 -61.5 26.5t-26.5 61.5q0 37 26.5 62.5t61.5 25.5q36 0 62 -25.5t26 -62.5q0 -35 -26 -61.5t-62 -26.5z" />
    <glyph glyph-name="j" unicode="j" horiz-adv-x="301" 
d="M160 560q-36 0 -63 27t-27 63q0 37 27 64t63 27q37 0 64 -27t27 -64q0 -36 -27 -63t-64 -27zM49 -215q-65 0 -115 33l64 129q12 -7 24 -12t22 -5q38 0 38 52v518h156v-529q0 -88 -49 -137t-140 -49z" />
    <glyph glyph-name="k" unicode="k" horiz-adv-x="562" 
d="M199 111l-92 108l251 281h183zM51 0v700h156v-700h-156zM373 0l-155 221l102 107l234 -328h-181z" />
    <glyph glyph-name="l" unicode="l" horiz-adv-x="258" 
d="M51 0v700h156v-700h-156z" />
    <glyph glyph-name="m" unicode="m" horiz-adv-x="881" 
d="M51 0v500h147l6 -63q24 37 59.5 56t78.5 19q62 0 102.5 -25.5t59.5 -77.5q23 50 63 76.5t90 26.5q90 0 135.5 -55t44.5 -171v-286h-156v256q0 40 -8.5 63.5t-24.5 34.5t-38 12q-43 1 -65.5 -24.5t-22.5 -77.5v-264h-156v256q0 40 -8.5 63.5t-24.5 34.5t-38 12
q-43 1 -65.5 -24.5t-22.5 -77.5v-264h-156z" />
    <glyph glyph-name="n" unicode="n" horiz-adv-x="573" 
d="M51 0v500h147l9 -92v-408h-156zM373 0v256h156v-256h-156zM373 256q0 40 -9 63.5t-25.5 34.5t-40.5 12q-45 1 -68 -24.5t-23 -77.5h-47q0 79 24 134.5t65.5 84.5t96.5 29q60 0 101 -24.5t61.5 -74.5t20.5 -128v-29h-156z" />
    <glyph glyph-name="o" unicode="o" horiz-adv-x="582" 
d="M293 -12q-79 0 -139 33.5t-94.5 92.5t-34.5 136t33.5 136t94 92.5t137.5 33.5q79 0 139.5 -33.5t94 -92.5t33.5 -136t-33.5 -136t-93.5 -92.5t-137 -33.5zM293 132q30 0 53.5 15t37 41.5t13.5 61.5t-13.5 61.5t-37.5 41.5t-55 15t-55 -15t-37.5 -41.5t-13.5 -61.5
t13.5 -61.5t38 -41.5t56.5 -15z" />
    <glyph glyph-name="p" unicode="p" horiz-adv-x="605" 
d="M56 -200v700h147l9 -92v-608h-156zM354 -12q-62 0 -104 31.5t-63 90.5t-21 140q0 82 21 140.5t63 90t104 31.5q70 0 121 -31.5t78 -90t27 -140.5q0 -81 -27 -140t-78 -90.5t-121 -31.5zM314 132q30 0 53 15t37 41.5t14 61.5t-13 61.5t-36.5 41.5t-53.5 15t-53.5 -15
t-36.5 -42t-13 -61q0 -35 13 -61.5t36 -41.5t53 -15z" />
    <glyph glyph-name="q" unicode="q" horiz-adv-x="598" 
d="M393 -200v607l9 93h147v-700h-156zM251 -12q-70 0 -120.5 31.5t-78 90.5t-27.5 140q0 82 27.5 140.5t78 90t120.5 31.5q62 0 104.5 -31.5t63.5 -90t21 -140.5q0 -81 -21 -140t-63.5 -90.5t-104.5 -31.5zM292 132q29 0 52 15t36 41.5t13 61.5t-13 61.5t-36 41.5t-53 15
t-53 -15t-36.5 -41.5t-14.5 -61.5q1 -35 14.5 -61.5t37 -41.5t53.5 -15z" />
    <glyph glyph-name="r" unicode="r" horiz-adv-x="398" 
d="M166 259q0 81 32.5 135t82 81t103.5 27v-152q-46 0 -86.5 -10t-65.5 -30.5t-25 -52.5zM51 0v500h156v-500h-156z" />
    <glyph glyph-name="s" unicode="s" horiz-adv-x="479" 
d="M239 -12q-49 0 -91.5 14.5t-73.5 41t-46 64.5l128 54q13 -26 36 -38.5t47 -12.5q25 0 39 8.5t14 23.5q0 16 -14.5 25t-41.5 16l-43 11q-70 18 -107.5 59.5t-37.5 96.5q0 77 53 119t147 42q53 0 93.5 -14t68 -39.5t39.5 -59.5l-124 -51q-7 20 -28.5 30.5t-47.5 10.5
q-22 0 -34 -9.5t-12 -25.5q0 -12 14.5 -20.5t42.5 -15.5l53 -13q47 -12 79 -36.5t48 -57t16 -69.5q0 -47 -27.5 -81.5t-76.5 -53.5t-113 -19z" />
    <glyph glyph-name="t" unicode="t" horiz-adv-x="414" 
d="M266 -12q-89 0 -132.5 42.5t-43.5 121.5v504h156v-465q0 -30 11 -44t34 -14q9 0 21 4.5t22 11.5l54 -114q-24 -20 -57.5 -33.5t-64.5 -13.5zM12 369v131h348v-131h-348z" />
    <glyph glyph-name="u" unicode="u" horiz-adv-x="573" 
d="M375 0l-9 92v408h156v-500h-147zM44 244v256h156v-256h-156zM200 244q0 -39 9 -63t26 -35t40 -12q45 0 68 25.5t23 76.5h47q0 -79 -24 -134.5t-65.5 -84.5t-96.5 -29q-60 0 -101 24.5t-61.5 74.5t-20.5 128v29h156z" />
    <glyph glyph-name="v" unicode="v" horiz-adv-x="573" 
d="M223 0l183 500h161l-203 -500h-141zM209 0l-203 500h161l183 -500h-141z" />
    <glyph glyph-name="w" unicode="w" horiz-adv-x="859" 
d="M526 0l164 500h159l-171 -500h-152zM197 0l156 500h133l-153 -500h-136zM180 0l-170 500h159l155 -500h-144zM525 0l-151 500h133l155 -500h-137z" />
    <glyph glyph-name="x" unicode="x" horiz-adv-x="564" 
d="M10 0l206 285l142 215h184l-203 -283l-143 -217h-186zM369 0l-141 217l-205 283h184l143 -215l204 -285h-185z" />
    <glyph glyph-name="y" unicode="y" horiz-adv-x="599" 
d="M177 -212q-32 0 -67.5 12t-59.5 26l58 127q14 -10 27.5 -15t24.5 -5q19 0 34 9.5t24 30.5l59 139l147 388h173l-221 -530q-22 -54 -46 -95t-59.5 -64t-93.5 -23zM236 0l-234 500h173l157 -388l53 -112h-149z" />
    <glyph glyph-name="z" unicode="z" horiz-adv-x="471" 
d="M26 0v110l224 263h-224v127h418v-110l-225 -264h226v-126h-419z" />
    <glyph glyph-name="braceleft" unicode="{" horiz-adv-x="398" 
d="M52 339v68q37 0 56.5 9t27.5 31.5t8 64.5q0 86 9 142t31.5 88t61.5 45t100 13v-122q-28 0 -43 -14.5t-20.5 -49.5t-5.5 -101q0 -69 -18.5 -107t-67.5 -52.5t-139 -14.5zM346 -100q-61 0 -100 13t-61.5 45t-31.5 88t-9 142q0 42 -8 64.5t-27.5 31.5t-56.5 9v68
q91 0 139.5 -14.5t67.5 -52t19 -107.5q0 -65 5.5 -100.5t20.5 -49.5t42 -15v-122z" />
    <glyph glyph-name="bar" unicode="|" horiz-adv-x="256" 
d="M68 -220v1010h120v-1010h-120z" />
    <glyph glyph-name="braceright" unicode="}" horiz-adv-x="398" 
d="M346 339q-90 0 -138.5 14.5t-67.5 52.5t-19 107q0 66 -5.5 101t-20.5 49.5t-43 14.5v122q61 0 100 -13t61.5 -45t31.5 -88t9 -142q0 -42 8 -64.5t27.5 -31.5t56.5 -9v-68zM52 -100v122q28 1 42.5 15t20 49.5t5.5 100.5q0 70 19 107.5t68.5 52t138.5 14.5v-68
q-37 0 -56.5 -9t-27.5 -31.5t-8 -64.5q0 -86 -9 -142t-31.5 -88t-61.5 -45t-100 -13z" />
    <glyph glyph-name="asciitilde" unicode="~" horiz-adv-x="713" 
d="M478 163q-41 0 -73.5 14t-55.5 35.5t-39 45.5q-15 22 -30.5 41t-41.5 19q-29 0 -44 -19t-19 -50h-123q1 65 25 114.5t65.5 78t92.5 28.5q61 0 105 -20.5t70 -74.5q11 -21 28.5 -40.5t38.5 -19.5q26 0 41.5 17.5t19.5 51.5h123q-1 -64 -25 -114t-65 -78.5t-93 -28.5z" />
    <glyph glyph-name="uni00A0" unicode="&#xa0;" horiz-adv-x="234" 
 />
    <glyph glyph-name="exclamdown" unicode="&#xa1;" horiz-adv-x="303" 
d="M234 257l12 -461h-173l12 461h149zM160 512q37 0 64 -27t27 -65q0 -37 -27 -64t-64 -27q-38 0 -65 27t-27 64q0 38 27 65t65 27z" />
    <glyph glyph-name="cent" unicode="&#xa2;" horiz-adv-x="543" 
d="M250 0v700h78v-700h-78zM300 98q-80 0 -142.5 33.5t-97.5 93t-35 135.5q0 77 35 136t96.5 92.5t141.5 33.5q77 0 141 -39t92 -113l-148 -50q-11 24 -36.5 39.5t-56.5 15.5t-54.5 -14.5t-37 -40.5t-13.5 -60t13.5 -59.5t38 -40.5t55.5 -15t56 16t37 42l148 -50
q-29 -75 -92.5 -115t-140.5 -40z" />
    <glyph glyph-name="sterling" unicode="&#xa3;" horiz-adv-x="604" 
d="M110 208v277q0 76 29.5 126.5t82 75.5t121.5 25q67 0 118 -23.5t80 -71t29 -120.5l-156 10q0 35 -21 53.5t-51 18.5q-34 0 -54.5 -24.5t-20.5 -69.5v-266zM60 70l-1 78q21 0 36 17.5t15 42.5l157 11q0 -41 -28.5 -75t-75.5 -54t-103 -20zM42 0v148h528v-148h-528zM42 276
v124h431v-124h-431z" />
    <glyph glyph-name="currency" unicode="&#xa4;" horiz-adv-x="618" 
d="M311 143q-62 0 -110.5 26.5t-76 73.5t-27.5 107t27.5 106.5t75.5 73t110 26.5t110 -26.5t76 -73t28 -106.5t-27.5 -107t-75.5 -73.5t-110 -26.5zM150 105l-85 86l129 130l88 -84zM310 273q33 0 53.5 21.5t20.5 55.5q0 33 -21 54.5t-53 21.5t-52.5 -21.5t-20.5 -54.5
q0 -34 20.5 -55.5t52.5 -21.5zM204 373l-140 137l85 85l142 -138zM468 105l-130 130l87 84l129 -128zM418 381l-89 84l139 130l86 -85z" />
    <glyph glyph-name="yen" unicode="&#xa5;" horiz-adv-x="621" 
d="M386 289l-147 31l194 382h182zM231 0v336h160v-336h-160zM86 170v84h448v-84h-448zM86 286v84h448v-84h-448zM235 289l-229 413h182l194 -382z" />
    <glyph glyph-name="brokenbar" unicode="&#xa6;" horiz-adv-x="320" 
d="M100 350v440h120v-440h-120zM100 -220v440h120v-440h-120z" />
    <glyph glyph-name="section" unicode="&#xa7;" horiz-adv-x="503" 
d="M256 -91q-54 0 -100 18t-75.5 47.5t-36.5 62.5l114 35q9 -26 33.5 -43.5t58.5 -18.5q37 -1 60.5 15.5t23.5 45.5q0 23 -17.5 38.5t-49.5 23.5l-75 19q-60 17 -97 56t-37 100q0 77 52.5 121t145.5 44q51 0 89 -15t64.5 -43t41.5 -68l-109 -35q-8 25 -31.5 42.5t-57.5 17.5
q-36 0 -56 -16.5t-20 -46.5q0 -22 16.5 -35t43.5 -20l77 -21q66 -17 103.5 -61.5t37.5 -99.5q0 -75 -51.5 -119t-147.5 -44zM257 149q-49 0 -91 18.5t-69 48.5t-33 65l95 30q6 -16 23 -30t38 -22.5t35 -8.5q34 0 57.5 16t23.5 44q0 23 -18 38.5t-50 23.5l-75 20
q-59 16 -96.5 55.5t-37.5 99.5q0 78 52.5 121.5t146.5 43.5q52 0 91 -14.5t66 -42.5t42 -67l-113 -36q-8 24 -30.5 41.5t-57.5 17.5q-37 0 -57.5 -16t-20.5 -47q0 -22 17 -36t44 -20l76 -19q67 -17 104.5 -61.5t37.5 -100.5q0 -74 -52 -118t-148 -44z" />
    <glyph glyph-name="dieresis" unicode="&#xa8;" horiz-adv-x="505" 
d="M385 581q-31 0 -54.5 23.5t-23.5 55.5q0 31 23.5 54.5t54.5 23.5q32 0 55.5 -23.5t23.5 -54.5q0 -32 -23.5 -55.5t-55.5 -23.5zM121 581q-32 0 -55.5 23.5t-23.5 55.5t23.5 55t55.5 23t55 -23t23 -55t-23 -55.5t-55 -23.5z" />
    <glyph glyph-name="copyright" unicode="&#xa9;" horiz-adv-x="783" 
d="M392 -11q-78 0 -144.5 27t-115 75.5t-75.5 114.5t-27 144q0 79 27 145t75.5 114.5t115 75.5t144.5 27t144 -27t114.5 -75.5t75.5 -114.5t27 -145q0 -78 -27 -144t-75.5 -114.5t-114.5 -75.5t-144 -27zM392 152q-57 0 -99 24t-64.5 68.5t-22.5 105.5t22.5 105.5t64 68.5
t98.5 24q49 0 91 -25t67 -70l12 -25l-90 -34l-12 18q-13 17 -31.5 26.5t-36.5 9.5q-38 0 -59.5 -26.5t-21.5 -71.5t22 -71.5t60 -26.5q20 0 39 13t34 34l6 12l93 -33l-9 -19q-25 -50 -68 -78.5t-95 -28.5zM392 88q76 0 134 33.5t90.5 93t32.5 135.5q0 77 -33 136.5t-90.5 93
t-133.5 33.5q-75 0 -133.5 -33.5t-91.5 -93t-33 -136.5q0 -76 33 -135.5t91.5 -93t133.5 -33.5z" />
    <glyph glyph-name="ordfeminine" unicode="&#xaa;" horiz-adv-x="340" 
d="M207 400l-2 147q0 21 -2.5 38t-13 26.5t-35.5 9.5q-13 0 -21.5 -5.5t-19.5 -18.5l-95 30q21 37 55 58.5t84 21.5q72 0 112 -38t40 -100v-169h-102zM128 393q-52 0 -81.5 23.5t-29.5 68.5q0 46 29.5 68.5t81.5 22.5h88v-61h-46q-45 0 -45 -28q0 -9 7.5 -13.5t21.5 -4.5
q22 0 35 13t13 35l31 11q0 -64 -28 -99.5t-77 -35.5z" />
    <glyph glyph-name="guillemotleft" unicode="&#xab;" horiz-adv-x="669" 
d="M300 298l145 202h176l-138 -202h-183zM445 96l-145 202h183l138 -202h-176zM46 298l145 202h176l-138 -202h-183zM191 96l-145 202h183l138 -202h-176z" />
    <glyph glyph-name="logicalnot" unicode="&#xac;" 
d="M130 272v126h368v-126h-368zM371 148v250h127v-250h-127z" />
    <glyph glyph-name="registered" unicode="&#xae;" horiz-adv-x="612" 
d="M306 150q-58 0 -109 22t-89.5 60.5t-60.5 89.5t-22 109q0 59 22 109.5t60.5 89t89.5 60.5t109 22t109 -22t89.5 -60.5t60.5 -89t22 -109.5q0 -58 -22 -109t-60.5 -89.5t-89.5 -60.5t-109 -22zM306 222q62 0 109 26t72.5 73.5t25.5 109.5q0 63 -25.5 110t-72.5 73.5
t-109 26.5t-109 -26.5t-73 -73.5t-26 -110q0 -62 26 -109.5t73 -73.5t109 -26zM199 294v291l117 1q49 0 79.5 -27.5t30.5 -71.5q0 -28 -14.5 -50.5t-39.5 -34.5l66 -108h-81l-55 95h-32v-95h-71zM270 455h43q16 0 27 9t11 23q0 15 -11 24t-28 9h-42v-65z" />
    <glyph glyph-name="macron" unicode="&#xaf;" horiz-adv-x="300" 
d="M-16 555v132h332v-132h-332z" />
    <glyph glyph-name="degree" unicode="&#xb0;" horiz-adv-x="383" 
d="M191 412q-43 0 -78.5 20.5t-57 55.5t-21.5 78q0 42 21.5 76t57.5 54t78 20t78 -20t58 -54t22 -76q0 -43 -22 -78t-58 -55.5t-78 -20.5zM191 511q20 0 35 16.5t15 38.5q0 21 -15 36t-35 15t-34.5 -15t-14.5 -36q0 -22 14.5 -38.5t34.5 -16.5z" />
    <glyph glyph-name="plusminus" unicode="&#xb1;" 
d="M85 325v116h466v-116h-466zM85 24v106h466v-106h-466zM256 170v426h124v-426h-124z" />
    <glyph glyph-name="uni00B2" unicode="&#xb2;" horiz-adv-x="369" 
d="M140 441l-109 17q0 16 13.5 37.5t36.5 44.5t51 42l41 27q17 11 34.5 27t17.5 33q0 16 -11.5 26.5t-36.5 10.5q-18 0 -30.5 -11.5t-16.5 -27.5l-115 18q6 33 27 60.5t55.5 45t79.5 17.5q76 0 119 -38.5t43 -99.5q0 -46 -25 -76t-63 -55l-43 -29q-14 -9 -28.5 -22.5
t-25.5 -26.5t-14 -20zM31 380v78l82 20h230v-98h-312z" />
    <glyph glyph-name="uni00B3" unicode="&#xb3;" horiz-adv-x="355" 
d="M184 373q-64 0 -109.5 29.5t-53.5 86.5l107 21q4 -12 13 -27t36 -15q19 0 30.5 10.5t11.5 29.5q0 8 -3.5 17.5t-16 15.5t-40.5 6h-38v70h33q46 0 86 -15.5t65.5 -43.5t25.5 -66q0 -39 -21.5 -65t-55 -40t-70.5 -14zM121 572v64h38q32 0 43.5 11t11.5 30q0 15 -10.5 25
t-26.5 10q-15 0 -29 -9t-18 -34l-106 21q5 39 29 65t57.5 39t68.5 13q40 0 73 -15t53 -41t20 -62q0 -41 -26 -67t-65.5 -38t-79.5 -12h-33z" />
    <glyph glyph-name="acute" unicode="&#xb4;" horiz-adv-x="283" 
d="M2 558l111 142h169l-129 -142h-151z" />
    <glyph glyph-name="uni00B5" unicode="&#xb5;" horiz-adv-x="573" 
d="M276 -12q-64 0 -101.5 55.5t-36.5 170.5l62 30q0 -39 9 -63t26 -35t40 -12q45 0 68 25.5t23 76.5h47q0 -119 -34.5 -183.5t-102.5 -64.5zM44 -200v700h156v-406h-16v-294h-140zM375 0l-9 92v408h156v-500h-147z" />
    <glyph glyph-name="paragraph" unicode="&#xb6;" horiz-adv-x="603" 
d="M266 221q-75 0 -133 31t-90.5 85.5t-32.5 123.5q0 71 32.5 124.5t90.5 84t133 30.5h44v-479h-44zM276 -84v784h107v-784h-107zM429 -84v784h106v-784h-106zM374 552v148h65v-148h-65z" />
    <glyph glyph-name="periodcentered" unicode="&#xb7;" horiz-adv-x="263" 
d="M132 252q-38 0 -65 27t-27 65q0 37 27 64t65 27q37 0 64 -27t27 -64q0 -38 -27 -65t-64 -27z" />
    <glyph glyph-name="cedilla" unicode="&#xb8;" horiz-adv-x="244" 
d="M106 -210q-23 0 -48 7.5t-48 22.5l21 69q14 -7 27.5 -11t23.5 -4q17 0 28 5.5t11 17.5q0 16 -15.5 25t-44.5 10l30 74l87 -3l-15 -30q35 -12 53 -34.5t18 -48.5q0 -46 -33 -73t-95 -27z" />
    <glyph glyph-name="uni00B9" unicode="&#xb9;" horiz-adv-x="280" 
d="M113 380v361l12 59h93v-420h-105zM29 645v100q24 -2 48.5 15t47.5 41l71 -67q-42 -48 -82 -71t-85 -18z" />
    <glyph glyph-name="ordmasculine" unicode="&#xba;" horiz-adv-x="360" 
d="M182 393q-49 0 -85.5 20t-58 55.5t-21.5 81.5t21 81.5t58 55.5t84 20q72 0 117.5 -44t45.5 -113q0 -46 -21 -81.5t-57 -55.5t-83 -20zM182 493q21 0 35.5 16t14.5 41t-14.5 41.5t-37.5 16.5t-37 -16.5t-14 -41.5t15 -41t38 -16z" />
    <glyph glyph-name="guillemotright" unicode="&#xbb;" horiz-adv-x="669" 
d="M369 298h-183l-138 202h176zM224 96h-176l138 202h183zM623 298h-183l-138 202h176zM478 96h-176l138 202h183z" />
    <glyph glyph-name="onequarter" unicode="&#xbc;" horiz-adv-x="843" 
d="M113 280v361l12 59h93v-420h-105zM29 545v100q24 -2 48.5 15t47.5 41l71 -67q-42 -48 -82 -71t-85 -18zM98 0l481 700h107l-481 -700h-107zM539 115l-79 39l181 266l63 -61zM460 64v90l58 5h305v-95h-363zM656 0v363l-15 57h120v-420h-105z" />
    <glyph glyph-name="onehalf" unicode="&#xbd;" horiz-adv-x="873" 
d="M113 280v361l12 59h93v-420h-105zM29 545v100q24 -2 48.5 15t47.5 41l71 -67q-42 -48 -82 -71t-85 -18zM98 0l481 700h107l-481 -700h-107zM644 61l-109 17q0 16 13.5 37.5t36.5 44.5t51 42l41 27q17 11 34.5 27t17.5 33q0 16 -11.5 26.5t-36.5 10.5q-18 0 -30.5 -11.5
t-16.5 -27.5l-115 18q6 33 27 60.5t55.5 45t79.5 17.5q76 0 119 -38.5t43 -99.5q0 -46 -25 -76t-63 -55l-43 -29q-14 -9 -28.5 -22.5t-25.5 -26.5t-14 -20zM535 0v78l82 20h230v-98h-312z" />
    <glyph glyph-name="threequarters" unicode="&#xbe;" horiz-adv-x="918" 
d="M184 273q-64 0 -109.5 29.5t-53.5 86.5l107 21q4 -12 13 -27t36 -15q19 0 30.5 10.5t11.5 29.5q0 8 -3.5 17.5t-16 15.5t-40.5 6h-38v70h33q46 0 86 -15.5t65.5 -43.5t25.5 -66q0 -39 -21.5 -65t-55 -40t-70.5 -14zM121 472v64h38q32 0 43.5 11t11.5 30q0 15 -10.5 25
t-26.5 10q-15 0 -29 -9t-18 -34l-106 21q5 39 29 65t57.5 39t68.5 13q40 0 73 -15t53 -41t20 -62q0 -41 -26 -67t-65.5 -38t-79.5 -12h-33zM173 0l481 700h107l-481 -700h-107zM614 115l-79 39l181 266l63 -61zM535 64v90l58 5h305v-95h-363zM731 0v363l-15 57h120v-420
h-105z" />
    <glyph glyph-name="questiondown" unicode="&#xbf;" horiz-adv-x="473" 
d="M334 290l6 -175l-84 -7q-46 -3 -75 -26t-29 -69q0 -38 27 -63t70 -25q31 0 52.5 15.5t29.5 38.5l141 -39q-19 -71 -78 -113t-145 -42q-72 0 -127.5 29.5t-87 81t-31.5 117.5q0 53 22.5 93t63.5 65.5t95 33.5l3 85h147zM260 512q38 0 65 -27t27 -64q0 -38 -27 -65t-65 -27
q-37 0 -64 27t-27 65q0 37 27 64t64 27z" />
    <glyph glyph-name="Agrave" unicode="&#xc0;" horiz-adv-x="732" 
d="M554 0l-262 700h160l272 -700h-170zM8 0l272 700h160l-262 -700h-170zM136 133v142h461v-142h-461zM325 752l-131 143h169l113 -143h-151z" />
    <glyph glyph-name="Aacute" unicode="&#xc1;" horiz-adv-x="732" 
d="M554 0l-262 700h160l272 -700h-170zM8 0l272 700h160l-262 -700h-170zM136 133v142h461v-142h-461zM275 749l111 135h169l-129 -135h-151z" />
    <glyph glyph-name="Acircumflex" unicode="&#xc2;" horiz-adv-x="732" 
d="M554 0l-262 700h160l272 -700h-170zM8 0l272 700h160l-262 -700h-170zM136 133v142h461v-142h-461zM429 763l-143 132v11h152l126 -143h-135zM159 763l126 143h152v-11l-143 -132h-135z" />
    <glyph glyph-name="Atilde" unicode="&#xc3;" horiz-adv-x="732" 
d="M554 0l-262 700h160l272 -700h-170zM8 0l272 700h160l-262 -700h-170zM136 133v142h461v-142h-461zM448 736q-36 0 -56 11t-31 25t-21 25t-26 11q-9 0 -18 -7t-15 -32h-100q5 47 21 77t43 44t64 14q38 0 59 -11t33 -25t21.5 -25t24.5 -11t20.5 11t7.5 27h100
q-8 -62 -38 -98t-89 -36z" />
    <glyph glyph-name="Adieresis" unicode="&#xc4;" horiz-adv-x="732" 
d="M554 0l-262 700h160l272 -700h-170zM8 0l272 700h160l-262 -700h-170zM136 133v142h461v-142h-461zM498 775q-31 0 -54.5 23.5t-23.5 55.5q0 31 23.5 54.5t54.5 23.5q32 0 55.5 -23.5t23.5 -54.5q0 -32 -23.5 -55.5t-55.5 -23.5zM234 775q-32 0 -55.5 23.5t-23.5 55.5
t23.5 55t55.5 23t55 -23t23 -55t-23 -55.5t-55 -23.5z" />
    <glyph glyph-name="Aring" unicode="&#xc5;" horiz-adv-x="732" 
d="M554 0l-262 700h160l272 -700h-170zM8 0l272 700h160l-262 -700h-170zM136 133v142h461v-142h-461zM366 723q-34 0 -63.5 16t-47 43.5t-17.5 60.5q0 34 17.5 61.5t46.5 43.5t64 16q34 0 63 -16t46.5 -43.5t17.5 -61.5q0 -33 -17.5 -60.5t-46 -43.5t-63.5 -16zM366 809
q33 0 33 34q0 35 -33 35q-34 0 -34 -35q0 -34 34 -34z" />
    <glyph glyph-name="AE" unicode="&#xc6;" horiz-adv-x="1025" 
d="M8 0l382 700h572v-148h-291v-128h243v-143h-243v-133h296v-148h-461v133h-244l-72 -133h-182zM335 275h171v277h-24z" />
    <glyph glyph-name="Ccedilla" unicode="&#xc7;" horiz-adv-x="727" 
d="M384 -12q-104 0 -183.5 46.5t-125 128t-45.5 187.5t45.5 187.5t125 128t183.5 46.5q76 0 139.5 -26.5t110 -74.5t71.5 -111l-151 -51q-15 35 -40.5 61t-58 40t-71.5 14q-55 0 -98 -27t-67 -75.5t-24 -111.5t24.5 -111.5t68 -76t99.5 -27.5q41 0 73 15t55.5 42t40.5 62
l151 -51q-24 -64 -71 -112.5t-111 -75.5t-141 -27zM336 -210q-23 0 -48 7.5t-48 22.5l21 69q14 -7 27.5 -11t23.5 -4q17 0 28 5.5t11 17.5q0 16 -15.5 25t-44.5 10l30 74l87 -3l-15 -30q35 -12 53 -34.5t18 -48.5q0 -46 -33 -73t-95 -27z" />
    <glyph glyph-name="Egrave" unicode="&#xc8;" horiz-adv-x="587" 
d="M68 0v700h456v-148h-295v-128h247v-143h-247v-133h300v-148h-461zM251 752l-131 143h169l113 -143h-151z" />
    <glyph glyph-name="Eacute" unicode="&#xc9;" horiz-adv-x="587" 
d="M68 0v700h456v-148h-295v-128h247v-143h-247v-133h300v-148h-461zM200 749l112 135h169l-129 -135h-152z" />
    <glyph glyph-name="Ecircumflex" unicode="&#xca;" horiz-adv-x="587" 
d="M68 0v700h456v-148h-295v-128h247v-143h-247v-133h300v-148h-461zM355 763l-143 132v11h152l126 -143h-135zM85 763l126 143h152v-11l-143 -132h-135z" />
    <glyph glyph-name="Edieresis" unicode="&#xcb;" horiz-adv-x="587" 
d="M68 0v700h456v-148h-295v-128h247v-143h-247v-133h300v-148h-461zM424 775q-31 0 -54.5 23.5t-23.5 55.5q0 31 23.5 54.5t54.5 23.5q32 0 55.5 -23.5t23.5 -54.5q0 -32 -23.5 -55.5t-55.5 -23.5zM160 775q-32 0 -55.5 23.5t-23.5 55.5t23.5 55t55.5 23t55 -23t23 -55
t-23 -55.5t-55 -23.5z" />
    <glyph glyph-name="Igrave" unicode="&#xcc;" horiz-adv-x="297" 
d="M68 0v700h161v-700h-161zM109 752l-131 143h169l113 -143h-151z" />
    <glyph glyph-name="Iacute" unicode="&#xcd;" horiz-adv-x="297" 
d="M68 0v700h161v-700h-161zM59 749l112 135h169l-130 -135h-151z" />
    <glyph glyph-name="Icircumflex" unicode="&#xce;" horiz-adv-x="297" 
d="M68 0v700h161v-700h-161zM213 763l-143 132v11h152l126 -143h-135zM-57 763l126 143h152v-11l-143 -132h-135z" />
    <glyph glyph-name="Idieresis" unicode="&#xcf;" horiz-adv-x="317" 
d="M251 775q-32 0 -55.5 23.5t-23.5 55.5q0 31 23.5 54.5t55.5 23.5q31 0 54.5 -23.5t23.5 -54.5q0 -32 -23.5 -55.5t-54.5 -23.5zM66 775q-32 0 -55 23.5t-23 55.5t23 55t55 23q33 0 56 -23t23 -55t-23 -55.5t-56 -23.5zM68 0v700h161v-700h-161z" />
    <glyph glyph-name="Eth" unicode="&#xd0;" horiz-adv-x="743" 
d="M48 294v113h333v-113h-333zM106 0v700h229q111 0 196.5 -45t133.5 -123.5t48 -181.5q0 -102 -48 -181t-133.5 -124t-196.5 -45h-229zM267 152h68q46 0 85 14.5t68 41t45 63t16 79.5t-16 79.5t-45 63t-68 41t-85 14.5h-68v-396z" />
    <glyph glyph-name="Ntilde" unicode="&#xd1;" horiz-adv-x="773" 
d="M68 0v700h169l307 -427v427h161v-700h-161l-315 439v-439h-161zM467 720q-36 0 -56 11t-31 25t-21 25t-26 11q-9 0 -18 -7t-15 -32h-100q5 47 21 77t43 44t64 14q38 0 59 -11t33 -25t21.5 -25t24.5 -11t20.5 11t7.5 27h100q-8 -62 -38 -98t-89 -36z" />
    <glyph glyph-name="Ograve" unicode="&#xd2;" horiz-adv-x="792" 
d="M398 -12q-108 0 -191 46.5t-130 128t-47 186.5q0 106 47 187.5t129.5 128t189.5 46.5t189.5 -46.5t129.5 -128t47 -187.5q0 -105 -46.5 -186.5t-128.5 -128t-189 -46.5zM398 136q59 0 104 27t70 75.5t25 110.5q0 63 -26 111.5t-71 76t-104 27.5t-104 -27.5t-71 -76
t-26 -111.5q0 -62 26 -110.5t72 -75.5t105 -27zM355 752l-131 143h169l113 -143h-151z" />
    <glyph glyph-name="Oacute" unicode="&#xd3;" horiz-adv-x="792" 
d="M398 -12q-108 0 -191 46.5t-130 128t-47 186.5q0 106 47 187.5t129.5 128t189.5 46.5t189.5 -46.5t129.5 -128t47 -187.5q0 -105 -46.5 -186.5t-128.5 -128t-189 -46.5zM398 136q59 0 104 27t70 75.5t25 110.5q0 63 -26 111.5t-71 76t-104 27.5t-104 -27.5t-71 -76
t-26 -111.5q0 -62 26 -110.5t72 -75.5t105 -27zM304 749l113 135h170l-131 -135h-152z" />
    <glyph glyph-name="Ocircumflex" unicode="&#xd4;" horiz-adv-x="792" 
d="M398 -12q-108 0 -191 46.5t-130 128t-47 186.5q0 106 47 187.5t129.5 128t189.5 46.5t189.5 -46.5t129.5 -128t47 -187.5q0 -105 -46.5 -186.5t-128.5 -128t-189 -46.5zM398 136q59 0 104 27t70 75.5t25 110.5q0 63 -26 111.5t-71 76t-104 27.5t-104 -27.5t-71 -76
t-26 -111.5q0 -62 26 -110.5t72 -75.5t105 -27zM459 763l-143 132v11h152l126 -143h-135zM189 763l126 143h152v-11l-143 -132h-135z" />
    <glyph glyph-name="Otilde" unicode="&#xd5;" horiz-adv-x="792" 
d="M398 -12q-108 0 -191 46.5t-130 128t-47 186.5q0 106 47 187.5t129.5 128t189.5 46.5t189.5 -46.5t129.5 -128t47 -187.5q0 -105 -46.5 -186.5t-128.5 -128t-189 -46.5zM398 136q59 0 104 27t70 75.5t25 110.5q0 63 -26 111.5t-71 76t-104 27.5t-104 -27.5t-71 -76
t-26 -111.5q0 -62 26 -110.5t72 -75.5t105 -27zM478 736q-36 0 -56 11t-31 25t-21 25t-26 11q-9 0 -18 -7t-15 -32h-100q5 47 21 77t43 44t64 14q38 0 59 -11t33 -25t21.5 -25t24.5 -11t20.5 11t7.5 27h100q-8 -62 -38 -98t-89 -36z" />
    <glyph glyph-name="Odieresis" unicode="&#xd6;" horiz-adv-x="792" 
d="M398 -12q-108 0 -191 46.5t-130 128t-47 186.5q0 106 47 187.5t129.5 128t189.5 46.5t189.5 -46.5t129.5 -128t47 -187.5q0 -105 -46.5 -186.5t-128.5 -128t-189 -46.5zM398 136q59 0 104 27t70 75.5t25 110.5q0 63 -26 111.5t-71 76t-104 27.5t-104 -27.5t-71 -76
t-26 -111.5q0 -62 26 -110.5t72 -75.5t105 -27zM528 775q-31 0 -54.5 23.5t-23.5 55.5q0 31 23.5 54.5t54.5 23.5q32 0 55.5 -23.5t23.5 -54.5q0 -32 -23.5 -55.5t-55.5 -23.5zM264 775q-32 0 -55.5 23.5t-23.5 55.5t23.5 55t55.5 23t55 -23t23 -55t-23 -55.5t-55 -23.5z
" />
    <glyph glyph-name="multiply" unicode="&#xd7;" 
d="M445 85l-340 340l85 86l341 -341zM190 85l-85 85l340 341l85 -86z" />
    <glyph glyph-name="Oslash" unicode="&#xd8;" horiz-adv-x="793" 
d="M27 0l604 700h137l-605 -700h-136zM395 -12q-108 0 -191 46.5t-130 128t-47 186.5q0 106 47 187.5t129.5 128t189.5 46.5t189.5 -46.5t129.5 -128t47 -187.5q0 -105 -46.5 -186.5t-128.5 -128t-189 -46.5zM395 136q59 0 104 27t70 75.5t25 110.5q0 63 -26 111.5t-71 76
t-104 27.5t-104 -27.5t-71 -76t-26 -111.5q0 -62 26 -110.5t72 -75.5t105 -27z" />
    <glyph glyph-name="Ugrave" unicode="&#xd9;" horiz-adv-x="702" 
d="M349 -13q-90 0 -155.5 34t-100.5 96.5t-35 148.5v434h161v-434q0 -40 16 -69t45.5 -45t70.5 -16q40 0 70 16t46 45t16 69v434h161v-434q0 -86 -35.5 -148.5t-102 -96.5t-157.5 -34zM310 752l-131 143h169l113 -143h-151z" />
    <glyph glyph-name="Uacute" unicode="&#xda;" horiz-adv-x="709" 
d="M349 -13q-90 0 -155.5 34t-100.5 96.5t-35 148.5v434h161v-434q0 -40 16 -69t45.5 -45t70.5 -16q40 0 70 16t46 45t16 69v434h161v-434q0 -86 -35.5 -148.5t-102 -96.5t-157.5 -34zM311 728l111 142h169l-129 -142h-151z" />
    <glyph glyph-name="Ucircumflex" unicode="&#xdb;" horiz-adv-x="702" 
d="M349 -13q-90 0 -155.5 34t-100.5 96.5t-35 148.5v434h161v-434q0 -40 16 -69t45.5 -45t70.5 -16q40 0 70 16t46 45t16 69v434h161v-434q0 -86 -35.5 -148.5t-102 -96.5t-157.5 -34zM414 763l-143 132v11h152l126 -143h-135zM144 763l126 143h152v-11l-143 -132h-135z" />
    <glyph glyph-name="Udieresis" unicode="&#xdc;" horiz-adv-x="702" 
d="M349 -13q-90 0 -155.5 34t-100.5 96.5t-35 148.5v434h161v-434q0 -40 16 -69t45.5 -45t70.5 -16q40 0 70 16t46 45t16 69v434h161v-434q0 -86 -35.5 -148.5t-102 -96.5t-157.5 -34zM483 775q-31 0 -54.5 23.5t-23.5 55.5q0 31 23.5 54.5t54.5 23.5q32 0 55.5 -23.5
t23.5 -54.5q0 -32 -23.5 -55.5t-55.5 -23.5zM219 775q-32 0 -55.5 23.5t-23.5 55.5t23.5 55t55.5 23t55 -23t23 -55t-23 -55.5t-55 -23.5z" />
    <glyph glyph-name="Yacute" unicode="&#xdd;" horiz-adv-x="666" 
d="M408 288l-155 32l224 380h183zM253 0v336h161v-336h-161zM258 288l-252 412h183l224 -380zM242 728l111 142h169l-129 -142h-151z" />
    <glyph glyph-name="Thorn" unicode="&#xde;" horiz-adv-x="630" 
d="M220 118v148h132q43 0 69 25.5t26 66.5t-27.5 66.5t-72.5 25.5h-127v147h135q76 0 135 -30.5t92.5 -84.5t33.5 -124t-32.5 -124.5t-90.5 -85t-133 -30.5h-140zM76 1v700h165v-700h-165z" />
    <glyph glyph-name="germandbls" unicode="&#xdf;" horiz-adv-x="598" 
d="M51 0v485q0 76 31.5 126.5t88 75.5t130.5 25q72 0 127 -23t85.5 -69t30.5 -117q0 -37 -16 -73.5t-45.5 -65.5t-70 -46t-91.5 -17h-37v125h10q32 0 52.5 9.5t31 27.5t10.5 43q0 35 -25.5 54t-63.5 19q-42 0 -66.5 -24.5t-24.5 -69.5v-485h-157zM283 0v142h38q41 0 65 21
t24 50q0 33 -24 52t-64 19h-38v119h12q94 0 154 -20.5t89 -65t29 -119.5q0 -63 -28.5 -107.5t-80.5 -67.5t-120 -23h-56z" />
    <glyph glyph-name="agrave" unicode="&#xe0;" horiz-adv-x="537" 
d="M348 0l-4 108v141q0 40 -7 70t-25 47t-54 17q-28 0 -49 -13t-36 -36l-136 45q17 37 46.5 67t72.5 48t100 18q78 0 132 -29t81 -81t27 -123l-2 -279h-146zM212 -12q-89 0 -138 40t-49 113q0 79 51 118t143 39h137v-100h-78q-50 0 -72 -14t-22 -39q0 -18 16.5 -28.5
t45.5 -10.5t51 12.5t34.5 33.5t12.5 46h39q0 -100 -42 -155t-129 -55zM211 558l-131 143h169l113 -143h-151z" />
    <glyph glyph-name="aacute" unicode="&#xe1;" horiz-adv-x="537" 
d="M348 0l-4 108v141q0 40 -7 70t-25 47t-54 17q-28 0 -49 -13t-36 -36l-136 45q17 37 46.5 67t72.5 48t100 18q78 0 132 -29t81 -81t27 -123l-2 -279h-146zM212 -12q-89 0 -138 40t-49 113q0 79 51 118t143 39h137v-100h-78q-50 0 -72 -14t-22 -39q0 -18 16.5 -28.5
t45.5 -10.5t51 12.5t34.5 33.5t12.5 46h39q0 -100 -42 -155t-129 -55zM161 558l111 142h169l-129 -142h-151z" />
    <glyph glyph-name="acircumflex" unicode="&#xe2;" horiz-adv-x="537" 
d="M348 0l-4 108v141q0 40 -7 70t-25 47t-54 17q-28 0 -49 -13t-36 -36l-136 45q17 37 46.5 67t72.5 48t100 18q78 0 132 -29t81 -81t27 -123l-2 -279h-146zM212 -12q-89 0 -138 40t-49 113q0 79 51 118t143 39h137v-100h-78q-50 0 -72 -14t-22 -39q0 -18 16.5 -28.5
t45.5 -10.5t51 12.5t34.5 33.5t12.5 46h39q0 -100 -42 -155t-129 -55zM315 569l-143 132v11h152l126 -143h-135zM45 569l126 143h152v-11l-143 -132h-135z" />
    <glyph glyph-name="atilde" unicode="&#xe3;" horiz-adv-x="537" 
d="M348 0l-4 108v141q0 40 -7 70t-25 47t-54 17q-28 0 -49 -13t-36 -36l-136 45q17 37 46.5 67t72.5 48t100 18q78 0 132 -29t81 -81t27 -123l-2 -279h-146zM212 -12q-89 0 -138 40t-49 113q0 79 51 118t143 39h137v-100h-78q-50 0 -72 -14t-22 -39q0 -18 16.5 -28.5
t45.5 -10.5t51 12.5t34.5 33.5t12.5 46h39q0 -100 -42 -155t-129 -55zM334 542q-36 0 -56 11t-31 25t-21 25t-26 11q-9 0 -18 -7t-15 -32h-100q5 47 21 77t43 44t64 14q38 0 59 -11t33 -25t21.5 -25t24.5 -11t20.5 11t7.5 27h100q-8 -62 -38 -98t-89 -36z" />
    <glyph glyph-name="adieresis" unicode="&#xe4;" horiz-adv-x="537" 
d="M348 0l-4 108v141q0 40 -7 70t-25 47t-54 17q-28 0 -49 -13t-36 -36l-136 45q17 37 46.5 67t72.5 48t100 18q78 0 132 -29t81 -81t27 -123l-2 -279h-146zM212 -12q-89 0 -138 40t-49 113q0 79 51 118t143 39h137v-100h-78q-50 0 -72 -14t-22 -39q0 -18 16.5 -28.5
t45.5 -10.5t51 12.5t34.5 33.5t12.5 46h39q0 -100 -42 -155t-129 -55zM384 581q-31 0 -54.5 23.5t-23.5 55.5q0 31 23.5 54.5t54.5 23.5q32 0 55.5 -23.5t23.5 -54.5q0 -32 -23.5 -55.5t-55.5 -23.5zM120 581q-32 0 -55.5 23.5t-23.5 55.5t23.5 55t55.5 23t55 -23t23 -55
t-23 -55.5t-55 -23.5z" />
    <glyph glyph-name="aring" unicode="&#xe5;" horiz-adv-x="537" 
d="M348 0l-4 108v141q0 40 -7 70t-25 47t-54 17q-28 0 -49 -13t-36 -36l-136 45q17 37 46.5 67t72.5 48t100 18q78 0 132 -29t81 -81t27 -123l-2 -279h-146zM212 -12q-89 0 -138 40t-49 113q0 79 51 118t143 39h137v-100h-78q-50 0 -72 -14t-22 -39q0 -18 16.5 -28.5
t45.5 -10.5t51 12.5t34.5 33.5t12.5 46h39q0 -100 -42 -155t-129 -55zM252 529q-34 0 -63.5 16t-47 43.5t-17.5 60.5q0 34 17.5 61.5t46.5 43.5t64 16q34 0 63 -16t46.5 -43.5t17.5 -61.5q0 -33 -17.5 -60.5t-46 -43.5t-63.5 -16zM252 615q33 0 33 34q0 35 -33 35
q-34 0 -34 -35q0 -34 34 -34z" />
    <glyph glyph-name="ae" unicode="&#xe6;" horiz-adv-x="873" 
d="M347 164l-5 86q-3 40 -9 71t-25 48t-61 17q-27 0 -46 -11.5t-36 -35.5l-138 44q34 61 89.5 95t133.5 34q101 0 156 -63t55 -171v-114h-114zM210 -12q-88 0 -136.5 39.5t-48.5 113.5q0 77 48.5 115.5t136.5 38.5h155v-94h-99q-42 0 -63.5 -15t-21.5 -42q0 -21 16.5 -32.5
t45.5 -11.5q44 0 69.5 28.5t25.5 75.5l123 16q0 -111 -66.5 -171.5t-184.5 -60.5zM609 -12q-80 0 -141.5 33t-96 92t-34.5 137t34 137t94.5 92t139.5 33q76 0 132.5 -33.5t88.5 -100t32 -165.5h-384l22 24q0 -39 12.5 -68t37 -44.5t59.5 -15.5q38 0 65.5 18t36.5 45l137 -45
q-18 -49 -56 -80t-85 -45t-94 -14zM498 285l-20 27h242l-19 -27q0 41 -14.5 67t-37 38t-48.5 12t-50 -12t-38.5 -37.5t-14.5 -67.5z" />
    <glyph glyph-name="ccedilla" unicode="&#xe7;" horiz-adv-x="548" 
d="M300 -12q-80 0 -142.5 33.5t-97.5 93t-35 135.5q0 77 35 136t96.5 92.5t141.5 33.5q77 0 141 -39t92 -113l-148 -50q-11 24 -36.5 39.5t-56.5 15.5t-54.5 -14.5t-37 -40.5t-13.5 -60t13.5 -59.5t38 -40.5t55.5 -15t56 16t37 42l148 -50q-29 -75 -92.5 -115t-140.5 -40z
M251 -211q-23 0 -48 7.5t-48 22.5l21 69q14 -7 27.5 -11t23.5 -4q17 0 28 5.5t11 17.5q0 16 -15.5 25t-44.5 10l30 74l87 -3l-15 -30q35 -12 53 -34.5t18 -48.5q0 -46 -33 -73t-95 -27z" />
    <glyph glyph-name="egrave" unicode="&#xe8;" horiz-adv-x="561" 
d="M291 -12q-78 0 -138 33.5t-94 92.5t-34 136q0 78 34.5 137t94.5 92t139 33q71 0 128 -34t90.5 -101t33.5 -167h-376l17 19q0 -34 14 -60t39 -39.5t56 -13.5q37 0 62.5 16.5t35.5 41.5l138 -47q-20 -47 -56.5 -78t-83.5 -46t-100 -15zM190 294l-16 20h224l-14 -20
q0 37 -15 59t-37 31.5t-44 9.5t-44.5 -9.5t-38 -31.5t-15.5 -59zM252 558l-131 143h169l113 -143h-151z" />
    <glyph glyph-name="eacute" unicode="&#xe9;" horiz-adv-x="561" 
d="M291 -12q-78 0 -138 33.5t-94 92.5t-34 136q0 78 34.5 137t94.5 92t139 33q71 0 128 -34t90.5 -101t33.5 -167h-376l17 19q0 -34 14 -60t39 -39.5t56 -13.5q37 0 62.5 16.5t35.5 41.5l138 -47q-20 -47 -56.5 -78t-83.5 -46t-100 -15zM190 294l-16 20h224l-14 -20
q0 37 -15 59t-37 31.5t-44 9.5t-44.5 -9.5t-38 -31.5t-15.5 -59zM202 558l111 142h169l-129 -142h-151z" />
    <glyph glyph-name="ecircumflex" unicode="&#xea;" horiz-adv-x="561" 
d="M291 -12q-78 0 -138 33.5t-94 92.5t-34 136q0 78 34.5 137t94.5 92t139 33q71 0 128 -34t90.5 -101t33.5 -167h-376l17 19q0 -34 14 -60t39 -39.5t56 -13.5q37 0 62.5 16.5t35.5 41.5l138 -47q-20 -47 -56.5 -78t-83.5 -46t-100 -15zM190 294l-16 20h224l-14 -20
q0 37 -15 59t-37 31.5t-44 9.5t-44.5 -9.5t-38 -31.5t-15.5 -59zM356 569l-143 132v11h152l126 -143h-135zM86 569l126 143h152v-11l-143 -132h-135z" />
    <glyph glyph-name="edieresis" unicode="&#xeb;" horiz-adv-x="561" 
d="M291 -12q-78 0 -138 33.5t-94 92.5t-34 136q0 78 34.5 137t94.5 92t139 33q71 0 128 -34t90.5 -101t33.5 -167h-376l17 19q0 -34 14 -60t39 -39.5t56 -13.5q37 0 62.5 16.5t35.5 41.5l138 -47q-20 -47 -56.5 -78t-83.5 -46t-100 -15zM190 294l-16 20h224l-14 -20
q0 37 -15 59t-37 31.5t-44 9.5t-44.5 -9.5t-38 -31.5t-15.5 -59zM425 581q-31 0 -54.5 23.5t-23.5 55.5q0 31 23.5 54.5t54.5 23.5q32 0 55.5 -23.5t23.5 -54.5q0 -32 -23.5 -55.5t-55.5 -23.5zM161 581q-32 0 -55.5 23.5t-23.5 55.5t23.5 55t55.5 23t55 -23t23 -55
t-23 -55.5t-55 -23.5z" />
    <glyph glyph-name="igrave" unicode="&#xec;" horiz-adv-x="276" 
d="M60 0v500h156v-500h-156zM97 558l-131 143h169l113 -143h-151z" />
    <glyph glyph-name="iacute" unicode="&#xed;" horiz-adv-x="276" 
d="M60 0v500h156v-500h-156zM47 558l111 142h169l-129 -142h-151z" />
    <glyph glyph-name="icircumflex" unicode="&#xee;" horiz-adv-x="276" 
d="M60 0v500h156v-500h-156zM201 569l-143 132v11h152l126 -143h-135zM-69 569l126 143h152v-11l-143 -132h-135z" />
    <glyph glyph-name="idieresis" unicode="&#xef;" horiz-adv-x="276" 
d="M230 581q-31 0 -54.5 23.5t-23.5 55.5q0 31 23.5 54.5t54.5 23.5q32 0 55.5 -23.5t23.5 -54.5q0 -32 -23.5 -55.5t-55.5 -23.5zM46 581q-32 0 -55 23.5t-23 55.5t23 55t55 23t55 -23t23 -55t-23 -55.5t-55 -23.5zM60 0v500h156v-500h-156z" />
    <glyph glyph-name="eth" unicode="&#xf0;" horiz-adv-x="566" 
d="M278 -12q-74 0 -131 30t-89.5 83t-32.5 122t28.5 121.5t81.5 83t123 30.5q31 0 63.5 -11t60 -28.5t45 -40t20.5 -45.5l83 -94q0 -73 -32 -129.5t-89 -89t-131 -32.5zM278 129q28 0 48 12t31.5 33t11.5 49q0 27 -11.5 48t-32.5 33t-49 12q-26 0 -46.5 -12t-32 -33
t-11.5 -48q0 -28 11.5 -49t32.5 -33t48 -12zM381 316q1 59 -9.5 105t-37.5 80.5t-76 59.5t-127 43l29 128q94 -14 159.5 -47.5t108 -81.5t65.5 -107.5t31 -124.5t6 -132zM241 469l-39 57l252 177l41 -56z" />
    <glyph glyph-name="ntilde" unicode="&#xf1;" horiz-adv-x="573" 
d="M51 0v500h147l9 -92v-408h-156zM373 0v256h156v-256h-156zM373 256q0 40 -9 63.5t-25.5 34.5t-40.5 12q-45 1 -68 -24.5t-23 -77.5h-47q0 79 24 134.5t65.5 84.5t96.5 29q60 0 101 -24.5t61.5 -74.5t20.5 -128v-29h-156zM364 542q-36 0 -56 11t-31 25t-21 25t-26 11
q-9 0 -18 -7t-15 -32h-100q5 47 21 77t43 44t64 14q38 0 59 -11t33 -25t21.5 -25t24.5 -11t20.5 11t7.5 27h100q-8 -62 -38 -98t-89 -36z" />
    <glyph glyph-name="ograve" unicode="&#xf2;" horiz-adv-x="582" 
d="M293 -12q-79 0 -139 33.5t-94.5 92.5t-34.5 136t33.5 136t94 92.5t137.5 33.5q79 0 139.5 -33.5t94 -92.5t33.5 -136t-33.5 -136t-93.5 -92.5t-137 -33.5zM293 132q30 0 53.5 15t37 41.5t13.5 61.5t-13.5 61.5t-37.5 41.5t-55 15t-55 -15t-37.5 -41.5t-13.5 -61.5
t13.5 -61.5t38 -41.5t56.5 -15zM246 558l-131 143h169l113 -143h-151z" />
    <glyph glyph-name="oacute" unicode="&#xf3;" horiz-adv-x="582" 
d="M293 -12q-79 0 -139 33.5t-94.5 92.5t-34.5 136t33.5 136t94 92.5t137.5 33.5q79 0 139.5 -33.5t94 -92.5t33.5 -136t-33.5 -136t-93.5 -92.5t-137 -33.5zM293 132q30 0 53.5 15t37 41.5t13.5 61.5t-13.5 61.5t-37.5 41.5t-55 15t-55 -15t-37.5 -41.5t-13.5 -61.5
t13.5 -61.5t38 -41.5t56.5 -15zM196 558l111 142h169l-129 -142h-151z" />
    <glyph glyph-name="ocircumflex" unicode="&#xf4;" horiz-adv-x="582" 
d="M293 -12q-79 0 -139 33.5t-94.5 92.5t-34.5 136t33.5 136t94 92.5t137.5 33.5q79 0 139.5 -33.5t94 -92.5t33.5 -136t-33.5 -136t-93.5 -92.5t-137 -33.5zM293 132q30 0 53.5 15t37 41.5t13.5 61.5t-13.5 61.5t-37.5 41.5t-55 15t-55 -15t-37.5 -41.5t-13.5 -61.5
t13.5 -61.5t38 -41.5t56.5 -15zM350 569l-143 132v11h152l126 -143h-135zM80 569l126 143h152v-11l-143 -132h-135z" />
    <glyph glyph-name="otilde" unicode="&#xf5;" horiz-adv-x="582" 
d="M293 -12q-79 0 -139 33.5t-94.5 92.5t-34.5 136t33.5 136t94 92.5t137.5 33.5q79 0 139.5 -33.5t94 -92.5t33.5 -136t-33.5 -136t-93.5 -92.5t-137 -33.5zM293 132q30 0 53.5 15t37 41.5t13.5 61.5t-13.5 61.5t-37.5 41.5t-55 15t-55 -15t-37.5 -41.5t-13.5 -61.5
t13.5 -61.5t38 -41.5t56.5 -15zM368 542q-36 0 -56 11t-31 25t-21 25t-26 11q-9 0 -18 -7t-15 -32h-100q5 47 21 77t43 44t64 14q38 0 59 -11t33 -25t21.5 -25t24.5 -11t20.5 11t7.5 27h100q-8 -62 -38 -98t-89 -36z" />
    <glyph glyph-name="odieresis" unicode="&#xf6;" horiz-adv-x="582" 
d="M293 -12q-79 0 -139 33.5t-94.5 92.5t-34.5 136t33.5 136t94 92.5t137.5 33.5q79 0 139.5 -33.5t94 -92.5t33.5 -136t-33.5 -136t-93.5 -92.5t-137 -33.5zM293 132q30 0 53.5 15t37 41.5t13.5 61.5t-13.5 61.5t-37.5 41.5t-55 15t-55 -15t-37.5 -41.5t-13.5 -61.5
t13.5 -61.5t38 -41.5t56.5 -15zM419 581q-31 0 -54.5 23.5t-23.5 55.5q0 31 23.5 54.5t54.5 23.5q32 0 55.5 -23.5t23.5 -54.5q0 -32 -23.5 -55.5t-55.5 -23.5zM155 581q-32 0 -55.5 23.5t-23.5 55.5t23.5 55t55.5 23t55 -23t23 -55t-23 -55.5t-55 -23.5z" />
    <glyph glyph-name="divide" unicode="&#xf7;" 
d="M108 235v126h420v-126h-420zM318 62q-26 0 -46 20t-20 46q0 27 20 47t46 20q27 0 46.5 -20t19.5 -47q0 -26 -19.5 -46t-46.5 -20zM318 401q-27 0 -46.5 20t-19.5 46t19.5 46t46.5 20t46.5 -20t19.5 -46t-19.5 -46t-46.5 -20z" />
    <glyph glyph-name="oslash" unicode="&#xf8;" horiz-adv-x="578" 
d="M12 0l425 500h129l-426 -500h-128zM289 -12q-79 0 -139.5 33.5t-94.5 92.5t-34 136t33.5 136t94 92.5t137.5 33.5q79 0 139 -33.5t94 -92.5t34 -136t-33.5 -136t-93.5 -92.5t-137 -33.5zM288 132q31 0 54.5 15t37 41.5t13.5 61.5t-13.5 61.5t-37.5 41.5t-55 15t-55 -15
t-37.5 -41.5t-13.5 -61.5t13.5 -61.5t38 -41.5t55.5 -15z" />
    <glyph glyph-name="ugrave" unicode="&#xf9;" horiz-adv-x="573" 
d="M375 0l-9 92v408h156v-500h-147zM44 244v256h156v-256h-156zM200 244q0 -39 9 -63t26 -35t40 -12q45 0 68 25.5t23 76.5h47q0 -79 -24 -134.5t-65.5 -84.5t-96.5 -29q-60 0 -101 24.5t-61.5 74.5t-20.5 128v29h156zM243 558l-131 143h169l113 -143h-151z" />
    <glyph glyph-name="uacute" unicode="&#xfa;" horiz-adv-x="573" 
d="M375 0l-9 92v408h156v-500h-147zM44 244v256h156v-256h-156zM200 244q0 -39 9 -63t26 -35t40 -12q45 0 68 25.5t23 76.5h47q0 -79 -24 -134.5t-65.5 -84.5t-96.5 -29q-60 0 -101 24.5t-61.5 74.5t-20.5 128v29h156zM193 558l111 142h169l-129 -142h-151z" />
    <glyph glyph-name="ucircumflex" unicode="&#xfb;" horiz-adv-x="573" 
d="M375 0l-9 92v408h156v-500h-147zM44 244v256h156v-256h-156zM200 244q0 -39 9 -63t26 -35t40 -12q45 0 68 25.5t23 76.5h47q0 -79 -24 -134.5t-65.5 -84.5t-96.5 -29q-60 0 -101 24.5t-61.5 74.5t-20.5 128v29h156zM347 569l-143 132v11h152l126 -143h-135zM77 569
l126 143h152v-11l-143 -132h-135z" />
    <glyph glyph-name="udieresis" unicode="&#xfc;" horiz-adv-x="573" 
d="M375 0l-9 92v408h156v-500h-147zM44 244v256h156v-256h-156zM200 244q0 -39 9 -63t26 -35t40 -12q45 0 68 25.5t23 76.5h47q0 -79 -24 -134.5t-65.5 -84.5t-96.5 -29q-60 0 -101 24.5t-61.5 74.5t-20.5 128v29h156zM416 581q-31 0 -54.5 23.5t-23.5 55.5q0 31 23.5 54.5
t54.5 23.5q32 0 55.5 -23.5t23.5 -54.5q0 -32 -23.5 -55.5t-55.5 -23.5zM152 581q-32 0 -55.5 23.5t-23.5 55.5t23.5 55t55.5 23t55 -23t23 -55t-23 -55.5t-55 -23.5z" />
    <glyph glyph-name="yacute" unicode="&#xfd;" horiz-adv-x="599" 
d="M177 -212q-32 0 -67.5 12t-59.5 26l58 127q14 -10 27.5 -15t24.5 -5q19 0 34 9.5t24 30.5l59 139l147 388h173l-221 -530q-22 -54 -46 -95t-59.5 -64t-93.5 -23zM236 0l-234 500h173l157 -388l53 -112h-149zM208 558l111 142h169l-129 -142h-151z" />
    <glyph glyph-name="thorn" unicode="&#xfe;" horiz-adv-x="600" 
d="M51 -200v900h156v-900h-156zM349 -12q-62 0 -104 31.5t-63 90.5t-21 140q0 82 21 140.5t63 90t104 31.5q70 0 121 -31.5t78 -90t27 -140.5q0 -81 -27 -140t-78 -90.5t-121 -31.5zM309 132q30 0 53 15t37 41.5t14 61.5t-13 61.5t-36.5 41.5t-53.5 15t-53.5 -15t-36.5 -42
t-13 -61q0 -35 13 -61.5t36 -41.5t53 -15z" />
    <glyph glyph-name="ydieresis" unicode="&#xff;" horiz-adv-x="599" 
d="M177 -212q-32 0 -67.5 12t-59.5 26l58 127q14 -10 27.5 -15t24.5 -5q19 0 34 9.5t24 30.5l59 139l147 388h173l-221 -530q-22 -54 -46 -95t-59.5 -64t-93.5 -23zM236 0l-234 500h173l157 -388l53 -112h-149zM431 581q-31 0 -54.5 23.5t-23.5 55.5q0 31 23.5 54.5
t54.5 23.5q32 0 55.5 -23.5t23.5 -54.5q0 -32 -23.5 -55.5t-55.5 -23.5zM167 581q-32 0 -55.5 23.5t-23.5 55.5t23.5 55t55.5 23t55 -23t23 -55t-23 -55.5t-55 -23.5z" />
    <glyph glyph-name="Amacron" unicode="&#x100;" horiz-adv-x="732" 
d="M554 0l-262 700h160l272 -700h-170zM8 0l272 700h160l-262 -700h-170zM136 133v142h461v-142h-461zM200 749v132h332v-132h-332z" />
    <glyph glyph-name="amacron" unicode="&#x101;" horiz-adv-x="537" 
d="M348 0l-4 108v141q0 40 -7 70t-25 47t-54 17q-28 0 -49 -13t-36 -36l-136 45q17 37 46.5 67t72.5 48t100 18q78 0 132 -29t81 -81t27 -123l-2 -279h-146zM212 -12q-89 0 -138 40t-49 113q0 79 51 118t143 39h137v-100h-78q-50 0 -72 -14t-22 -39q0 -18 16.5 -28.5
t45.5 -10.5t51 12.5t34.5 33.5t12.5 46h39q0 -100 -42 -155t-129 -55zM86 555v132h332v-132h-332z" />
    <glyph glyph-name="Abreve" unicode="&#x102;" horiz-adv-x="732" 
d="M554 0l-262 700h160l272 -700h-170zM8 0l272 700h160l-262 -700h-170zM136 133v142h461v-142h-461zM367 741q-56 0 -100.5 19.5t-69.5 54.5t-25 79h143q0 -20 14.5 -33.5t37.5 -13.5t37 13t14 34h143q0 -44 -25 -79t-68.5 -54.5t-100.5 -19.5z" />
    <glyph glyph-name="abreve" unicode="&#x103;" horiz-adv-x="537" 
d="M348 0l-4 108v141q0 40 -7 70t-25 47t-54 17q-28 0 -49 -13t-36 -36l-136 45q17 37 46.5 67t72.5 48t100 18q78 0 132 -29t81 -81t27 -123l-2 -279h-146zM212 -12q-89 0 -138 40t-49 113q0 79 51 118t143 39h137v-100h-78q-50 0 -72 -14t-22 -39q0 -18 16.5 -28.5
t45.5 -10.5t51 12.5t34.5 33.5t12.5 46h39q0 -100 -42 -155t-129 -55zM253 547q-56 0 -100.5 19.5t-69.5 54.5t-25 79h143q0 -20 14.5 -33.5t37.5 -13.5t37 13t14 34h143q0 -44 -25 -79t-68.5 -54.5t-100.5 -19.5z" />
    <glyph glyph-name="Aogonek" unicode="&#x104;" horiz-adv-x="732" 
d="M554 0l-262 700h160l272 -700h-170zM8 0l272 700h160l-262 -700h-170zM136 133v142h461v-142h-461zM683 -212q-40 0 -73.5 13t-53 39t-19.5 65q0 31 20 56.5t47 40.5l120 -2q-28 -19 -46 -41.5t-18 -43.5q0 -9 6 -15.5t17 -6.5q10 0 17.5 2.5t12.5 4.5l46 -95
q-15 -9 -33.5 -13t-42.5 -4z" />
    <glyph glyph-name="aogonek" unicode="&#x105;" horiz-adv-x="537" 
d="M348 0l-4 108v141q0 40 -7 70t-25 47t-54 17q-28 0 -49 -13t-36 -36l-136 45q17 37 46.5 67t72.5 48t100 18q78 0 132 -29t81 -81t27 -123l-2 -279h-146zM212 -12q-89 0 -138 40t-49 113q0 79 51 118t143 39h137v-100h-78q-50 0 -72 -14t-22 -39q0 -18 16.5 -28.5
t45.5 -10.5t51 12.5t34.5 33.5t12.5 46h39q0 -100 -42 -155t-129 -55zM452 -212q-40 0 -73.5 13t-53 39t-19.5 65q0 31 20 56.5t47 40.5l120 -2q-28 -19 -46 -41.5t-18 -43.5q0 -9 6 -15.5t17 -6.5q10 0 17.5 2.5t12.5 4.5l46 -95q-15 -9 -33.5 -13t-42.5 -4z" />
    <glyph glyph-name="Cacute" unicode="&#x106;" horiz-adv-x="727" 
d="M384 -12q-104 0 -183.5 46.5t-125 128t-45.5 187.5t45.5 187.5t125 128t183.5 46.5q76 0 139.5 -26.5t110 -74.5t71.5 -111l-151 -51q-15 35 -40.5 61t-58 40t-71.5 14q-55 0 -98 -27t-67 -75.5t-24 -111.5t24.5 -111.5t68 -76t99.5 -27.5q41 0 73 15t55.5 42t40.5 62
l151 -51q-24 -64 -71 -112.5t-111 -75.5t-141 -27zM292 752l111 142h169l-129 -142h-151z" />
    <glyph glyph-name="cacute" unicode="&#x107;" horiz-adv-x="548" 
d="M300 -12q-80 0 -142.5 33.5t-97.5 93t-35 135.5q0 77 35 136t96.5 92.5t141.5 33.5q77 0 141 -39t92 -113l-148 -50q-11 24 -36.5 39.5t-56.5 15.5t-54.5 -14.5t-37 -40.5t-13.5 -60t13.5 -59.5t38 -40.5t55.5 -15t56 16t37 42l148 -50q-29 -75 -92.5 -115t-140.5 -40z
M207 558l111 142h169l-129 -142h-151z" />
    <glyph glyph-name="Ccircumflex" unicode="&#x108;" horiz-adv-x="727" 
d="M384 -12q-104 0 -183.5 46.5t-125 128t-45.5 187.5t45.5 187.5t125 128t183.5 46.5q76 0 139.5 -26.5t110 -74.5t71.5 -111l-151 -51q-15 35 -40.5 61t-58 40t-71.5 14q-55 0 -98 -27t-67 -75.5t-24 -111.5t24.5 -111.5t68 -76t99.5 -27.5q41 0 73 15t55.5 42t40.5 62
l151 -51q-24 -64 -71 -112.5t-111 -75.5t-141 -27zM447 763l-143 132v11h152l126 -143h-135zM177 763l126 143h152v-11l-143 -132h-135z" />
    <glyph glyph-name="ccircumflex" unicode="&#x109;" horiz-adv-x="548" 
d="M300 -12q-80 0 -142.5 33.5t-97.5 93t-35 135.5q0 77 35 136t96.5 92.5t141.5 33.5q77 0 141 -39t92 -113l-148 -50q-11 24 -36.5 39.5t-56.5 15.5t-54.5 -14.5t-37 -40.5t-13.5 -60t13.5 -59.5t38 -40.5t55.5 -15t56 16t37 42l148 -50q-29 -75 -92.5 -115t-140.5 -40z
M361 569l-143 132v11h152l126 -143h-135zM91 569l126 143h152v-11l-143 -132h-135z" />
    <glyph glyph-name="Cdotaccent" unicode="&#x10a;" horiz-adv-x="727" 
d="M384 -12q-104 0 -183.5 46.5t-125 128t-45.5 187.5t45.5 187.5t125 128t183.5 46.5q76 0 139.5 -26.5t110 -74.5t71.5 -111l-151 -51q-15 35 -40.5 61t-58 40t-71.5 14q-55 0 -98 -27t-67 -75.5t-24 -111.5t24.5 -111.5t68 -76t99.5 -27.5q41 0 73 15t55.5 42t40.5 62
l151 -51q-24 -64 -71 -112.5t-111 -75.5t-141 -27zM384 758q-35 0 -61.5 26.5t-26.5 61.5q0 37 26.5 62.5t61.5 25.5q36 0 62 -25.5t26 -62.5q0 -35 -26 -61.5t-62 -26.5z" />
    <glyph glyph-name="cdotaccent" unicode="&#x10b;" horiz-adv-x="548" 
d="M300 -12q-80 0 -142.5 33.5t-97.5 93t-35 135.5q0 77 35 136t96.5 92.5t141.5 33.5q77 0 141 -39t92 -113l-148 -50q-11 24 -36.5 39.5t-56.5 15.5t-54.5 -14.5t-37 -40.5t-13.5 -60t13.5 -59.5t38 -40.5t55.5 -15t56 16t37 42l148 -50q-29 -75 -92.5 -115t-140.5 -40z
M298 564q-35 0 -61.5 26.5t-26.5 61.5q0 37 26.5 62.5t61.5 25.5q36 0 62 -25.5t26 -62.5q0 -35 -26 -61.5t-62 -26.5z" />
    <glyph glyph-name="Ccaron" unicode="&#x10c;" horiz-adv-x="727" 
d="M384 -12q-104 0 -183.5 46.5t-125 128t-45.5 187.5t45.5 187.5t125 128t183.5 46.5q76 0 139.5 -26.5t110 -74.5t71.5 -111l-151 -51q-15 35 -40.5 61t-58 40t-71.5 14q-55 0 -98 -27t-67 -75.5t-24 -111.5t24.5 -111.5t68 -76t99.5 -27.5q41 0 73 15t55.5 42t40.5 62
l151 -51q-24 -64 -71 -112.5t-111 -75.5t-141 -27zM312 752v4l134 138h136l-126 -142h-144zM303 752l-126 142h136l134 -138v-4h-144z" />
    <glyph glyph-name="ccaron" unicode="&#x10d;" horiz-adv-x="548" 
d="M300 -12q-80 0 -142.5 33.5t-97.5 93t-35 135.5q0 77 35 136t96.5 92.5t141.5 33.5q77 0 141 -39t92 -113l-148 -50q-11 24 -36.5 39.5t-56.5 15.5t-54.5 -14.5t-37 -40.5t-13.5 -60t13.5 -59.5t38 -40.5t55.5 -15t56 16t37 42l148 -50q-29 -75 -92.5 -115t-140.5 -40z
M226 558v4l134 138h136l-126 -142h-144zM217 558l-126 142h136l134 -138v-4h-144z" />
    <glyph glyph-name="Dcaron" unicode="&#x10e;" horiz-adv-x="705" 
d="M68 0v700h229q111 0 196.5 -45t133.5 -123.5t48 -181.5q0 -102 -48 -181t-133.5 -124t-196.5 -45h-229zM229 152h68q46 0 85 14.5t68 41t45 63t16 79.5t-16 79.5t-45 63t-68 41t-85 14.5h-68v-396zM232 752v4l134 138h136l-126 -142h-144zM223 752l-126 142h136l134 -138
v-4h-144z" />
    <glyph glyph-name="dcaron" unicode="&#x10f;" horiz-adv-x="600" 
d="M400 0l-7 93v607h156v-700h-149zM251 -12q-70 0 -120.5 31.5t-78 90.5t-27.5 140q0 82 27.5 140.5t78 90t120.5 31.5q62 0 104.5 -31.5t63.5 -90t21 -140.5q0 -81 -21 -140t-63.5 -90.5t-104.5 -31.5zM292 132q29 0 52 15t36 41.5t13 61.5t-13 61.5t-36 41.5t-53 15
t-53 -15t-36.5 -41.5t-14.5 -61.5q1 -35 14.5 -61.5t37 -41.5t53.5 -15zM567 547l29 153h134l-48 -153h-115z" />
    <glyph glyph-name="Dcroat" unicode="&#x110;" horiz-adv-x="743" 
d="M48 294v113h333v-113h-333zM106 0v700h229q111 0 196.5 -45t133.5 -123.5t48 -181.5q0 -102 -48 -181t-133.5 -124t-196.5 -45h-229zM267 152h68q46 0 85 14.5t68 41t45 63t16 79.5t-16 79.5t-45 63t-68 41t-85 14.5h-68v-396z" />
    <glyph glyph-name="dcroat" unicode="&#x111;" horiz-adv-x="600" 
d="M264 550v95h345v-95h-345zM400 0l-7 93v607h156v-700h-149zM251 -12q-70 0 -120.5 31.5t-78 90.5t-27.5 140q0 82 27.5 140.5t78 90t120.5 31.5q62 0 104.5 -31.5t63.5 -90t21 -140.5q0 -81 -21 -140t-63.5 -90.5t-104.5 -31.5zM292 132q29 0 52 15t36 41.5t13 61.5
t-13 61.5t-36 41.5t-53 15t-53 -15t-36.5 -41.5t-14.5 -61.5q1 -35 14.5 -61.5t37 -41.5t53.5 -15z" />
    <glyph glyph-name="Emacron" unicode="&#x112;" horiz-adv-x="587" 
d="M68 0v700h456v-148h-295v-128h247v-143h-247v-133h300v-148h-461zM126 749v132h332v-132h-332z" />
    <glyph glyph-name="emacron" unicode="&#x113;" horiz-adv-x="561" 
d="M291 -12q-78 0 -138 33.5t-94 92.5t-34 136q0 78 34.5 137t94.5 92t139 33q71 0 128 -34t90.5 -101t33.5 -167h-376l17 19q0 -34 14 -60t39 -39.5t56 -13.5q37 0 62.5 16.5t35.5 41.5l138 -47q-20 -47 -56.5 -78t-83.5 -46t-100 -15zM190 294l-16 20h224l-14 -20
q0 37 -15 59t-37 31.5t-44 9.5t-44.5 -9.5t-38 -31.5t-15.5 -59zM127 555v132h332v-132h-332z" />
    <glyph glyph-name="Edotaccent" unicode="&#x116;" horiz-adv-x="587" 
d="M68 0v700h456v-148h-295v-128h247v-143h-247v-133h300v-148h-461zM292 758q-35 0 -61.5 26.5t-26.5 61.5q0 37 26.5 62.5t61.5 25.5q36 0 62 -25.5t26 -62.5q0 -35 -26 -61.5t-62 -26.5z" />
    <glyph glyph-name="edotaccent" unicode="&#x117;" horiz-adv-x="561" 
d="M291 -12q-78 0 -138 33.5t-94 92.5t-34 136q0 78 34.5 137t94.5 92t139 33q71 0 128 -34t90.5 -101t33.5 -167h-376l17 19q0 -34 14 -60t39 -39.5t56 -13.5q37 0 62.5 16.5t35.5 41.5l138 -47q-20 -47 -56.5 -78t-83.5 -46t-100 -15zM190 294l-16 20h224l-14 -20
q0 37 -15 59t-37 31.5t-44 9.5t-44.5 -9.5t-38 -31.5t-15.5 -59zM293 564q-35 0 -61.5 26.5t-26.5 61.5q0 37 26.5 62.5t61.5 25.5q36 0 62 -25.5t26 -62.5q0 -35 -26 -61.5t-62 -26.5z" />
    <glyph glyph-name="Eogonek" unicode="&#x118;" horiz-adv-x="587" 
d="M68 0v700h456v-148h-295v-128h247v-143h-247v-133h300v-148h-461zM488 -212q-40 0 -73.5 13t-53 39t-19.5 65q0 31 20 56.5t47 40.5l120 -2q-28 -19 -46 -41.5t-18 -43.5q0 -9 6 -15.5t17 -6.5q10 0 17.5 2.5t12.5 4.5l46 -95q-15 -9 -33.5 -13t-42.5 -4z" />
    <glyph glyph-name="eogonek" unicode="&#x119;" horiz-adv-x="561" 
d="M291 -12q-78 0 -138 33.5t-94 92.5t-34 136q0 78 34.5 137t94.5 92t139 33q71 0 128 -34t90.5 -101t33.5 -167h-376l17 19q0 -34 14 -60t39 -39.5t56 -13.5q37 0 62.5 16.5t35.5 41.5l138 -47q-20 -47 -56.5 -78t-83.5 -46t-100 -15zM190 294l-16 20h224l-14 -20
q0 37 -15 59t-37 31.5t-44 9.5t-44.5 -9.5t-38 -31.5t-15.5 -59zM470 -209q-45 0 -83 11.5t-60 35t-22 57.5q0 35 21 62.5t56 51.5t78 49h28q-30 -29 -44 -51t-18.5 -40t-4.5 -36q0 -16 10 -26t28 -10q14 0 24 2t19 6l46 -95q-16 -9 -35 -13t-43 -4z" />
    <glyph glyph-name="Ecaron" unicode="&#x11a;" horiz-adv-x="587" 
d="M68 0v700h456v-148h-295v-128h247v-143h-247v-133h300v-148h-461zM220 752v4l134 138h136l-126 -142h-144zM211 752l-126 142h136l134 -138v-4h-144z" />
    <glyph glyph-name="ecaron" unicode="&#x11b;" horiz-adv-x="561" 
d="M291 -12q-78 0 -138 33.5t-94 92.5t-34 136q0 78 34.5 137t94.5 92t139 33q71 0 128 -34t90.5 -101t33.5 -167h-376l17 19q0 -34 14 -60t39 -39.5t56 -13.5q37 0 62.5 16.5t35.5 41.5l138 -47q-20 -47 -56.5 -78t-83.5 -46t-100 -15zM190 294l-16 20h224l-14 -20
q0 37 -15 59t-37 31.5t-44 9.5t-44.5 -9.5t-38 -31.5t-15.5 -59zM221 558v4l134 138h136l-126 -142h-144zM212 558l-126 142h136l134 -138v-4h-144z" />
    <glyph glyph-name="Gcircumflex" unicode="&#x11c;" horiz-adv-x="735" 
d="M397 -12q-108 0 -190.5 46.5t-129.5 128t-47 187.5t47 187.5t129.5 128t190.5 46.5q67 0 121.5 -19.5t95.5 -53.5t68 -78l-133 -80q-15 24 -39.5 43t-53.5 29.5t-59 10.5q-59 0 -104.5 -27t-71.5 -75.5t-26 -111.5t25 -111.5t72 -76.5t109 -28q47 0 83 18t57 50t21 75
l153 26q0 -102 -41 -172.5t-112 -106.5t-165 -36zM402 260v124h313v-95l-90 -29h-223zM455 763l-143 132v11h152l126 -143h-135zM185 763l126 143h152v-11l-143 -132h-135z" />
    <glyph glyph-name="gcircumflex" unicode="&#x11d;" horiz-adv-x="608" 
d="M287 -214q-61 0 -106.5 8t-77.5 21t-53 29l61 124q16 -7 38 -17.5t54 -18.5t77 -8q35 0 62.5 13.5t43 42t15.5 71.5v449h156v-443q0 -84 -32 -145t-92 -93.5t-146 -32.5zM251 19q-70 0 -120.5 28.5t-78 81.5t-27.5 126q0 80 27.5 137t78 88.5t120.5 31.5
q58 0 100.5 -31.5t65.5 -89.5t23 -139q0 -72 -23 -124t-65.5 -80.5t-100.5 -28.5zM297 149q30 0 51.5 14.5t33 39.5t11.5 57q0 34 -12 59t-33.5 39t-51.5 14q-29 0 -51.5 -14t-35 -39t-13.5 -59q1 -32 13.5 -57t35.5 -39.5t52 -14.5zM361 569l-143 132v11h152l126 -143h-135
zM91 569l126 143h152v-11l-143 -132h-135z" />
    <glyph glyph-name="Gbreve" unicode="&#x11e;" horiz-adv-x="735" 
d="M397 -12q-108 0 -190.5 46.5t-129.5 128t-47 187.5t47 187.5t129.5 128t190.5 46.5q67 0 121.5 -19.5t95.5 -53.5t68 -78l-133 -80q-15 24 -39.5 43t-53.5 29.5t-59 10.5q-59 0 -104.5 -27t-71.5 -75.5t-26 -111.5t25 -111.5t72 -76.5t109 -28q47 0 83 18t57 50t21 75
l153 26q0 -102 -41 -172.5t-112 -106.5t-165 -36zM402 260v124h313v-95l-90 -29h-223zM392 747q-56 0 -100.5 19.5t-69.5 54.5t-25 79h143q0 -20 14.5 -33.5t37.5 -13.5t37 13t14 34h143q0 -44 -25 -79t-68.5 -54.5t-100.5 -19.5z" />
    <glyph glyph-name="gbreve" unicode="&#x11f;" horiz-adv-x="608" 
d="M287 -214q-61 0 -106.5 8t-77.5 21t-53 29l61 124q16 -7 38 -17.5t54 -18.5t77 -8q35 0 62.5 13.5t43 42t15.5 71.5v449h156v-443q0 -84 -32 -145t-92 -93.5t-146 -32.5zM251 19q-70 0 -120.5 28.5t-78 81.5t-27.5 126q0 80 27.5 137t78 88.5t120.5 31.5
q58 0 100.5 -31.5t65.5 -89.5t23 -139q0 -72 -23 -124t-65.5 -80.5t-100.5 -28.5zM297 149q30 0 51.5 14.5t33 39.5t11.5 57q0 34 -12 59t-33.5 39t-51.5 14q-29 0 -51.5 -14t-35 -39t-13.5 -59q1 -32 13.5 -57t35.5 -39.5t52 -14.5zM299 547q-56 0 -100.5 19.5t-69.5 54.5
t-25 79h143q0 -20 14.5 -33.5t37.5 -13.5t37 13t14 34h143q0 -44 -25 -79t-68.5 -54.5t-100.5 -19.5z" />
    <glyph glyph-name="Gdotaccent" unicode="&#x120;" horiz-adv-x="735" 
d="M397 -12q-108 0 -190.5 46.5t-129.5 128t-47 187.5t47 187.5t129.5 128t190.5 46.5q67 0 121.5 -19.5t95.5 -53.5t68 -78l-133 -80q-15 24 -39.5 43t-53.5 29.5t-59 10.5q-59 0 -104.5 -27t-71.5 -75.5t-26 -111.5t25 -111.5t72 -76.5t109 -28q47 0 83 18t57 50t21 75
l153 26q0 -102 -41 -172.5t-112 -106.5t-165 -36zM402 260v124h313v-95l-90 -29h-223zM391 764q-35 0 -61.5 26.5t-26.5 61.5q0 37 26.5 62.5t61.5 25.5q36 0 62 -25.5t26 -62.5q0 -35 -26 -61.5t-62 -26.5z" />
    <glyph glyph-name="gdotaccent" unicode="&#x121;" horiz-adv-x="608" 
d="M287 -214q-61 0 -106.5 8t-77.5 21t-53 29l61 124q16 -7 38 -17.5t54 -18.5t77 -8q35 0 62.5 13.5t43 42t15.5 71.5v449h156v-443q0 -84 -32 -145t-92 -93.5t-146 -32.5zM251 19q-70 0 -120.5 28.5t-78 81.5t-27.5 126q0 80 27.5 137t78 88.5t120.5 31.5
q58 0 100.5 -31.5t65.5 -89.5t23 -139q0 -72 -23 -124t-65.5 -80.5t-100.5 -28.5zM297 149q30 0 51.5 14.5t33 39.5t11.5 57q0 34 -12 59t-33.5 39t-51.5 14q-29 0 -51.5 -14t-35 -39t-13.5 -59q1 -32 13.5 -57t35.5 -39.5t52 -14.5zM298 564q-35 0 -61.5 26.5t-26.5 61.5
q0 37 26.5 62.5t61.5 25.5q36 0 62 -25.5t26 -62.5q0 -35 -26 -61.5t-62 -26.5z" />
    <glyph glyph-name="uni0122" unicode="&#x122;" horiz-adv-x="735" 
d="M397 -12q-108 0 -190.5 46.5t-129.5 128t-47 187.5t47 187.5t129.5 128t190.5 46.5q67 0 121.5 -19.5t95.5 -53.5t68 -78l-133 -80q-15 24 -39.5 43t-53.5 29.5t-59 10.5q-59 0 -104.5 -27t-71.5 -75.5t-26 -111.5t25 -111.5t72 -76.5t109 -28q47 0 83 18t57 50t21 75
l153 26q0 -102 -41 -172.5t-112 -106.5t-165 -36zM402 260v124h313v-95l-90 -29h-223zM287 -200l46 155h148l-79 -155h-115z" />
    <glyph glyph-name="uni0123" unicode="&#x123;" horiz-adv-x="608" 
d="M287 -214q-61 0 -106.5 8t-77.5 21t-53 29l61 124q16 -7 38 -17.5t54 -18.5t77 -8q35 0 62.5 13.5t43 42t15.5 71.5v449h156v-443q0 -84 -32 -145t-92 -93.5t-146 -32.5zM251 19q-70 0 -120.5 28.5t-78 81.5t-27.5 126q0 80 27.5 137t78 88.5t120.5 31.5
q58 0 100.5 -31.5t65.5 -89.5t23 -139q0 -72 -23 -124t-65.5 -80.5t-100.5 -28.5zM297 149q30 0 51.5 14.5t33 39.5t11.5 57q0 34 -12 59t-33.5 39t-51.5 14q-29 0 -51.5 -14t-35 -39t-13.5 -59q1 -32 13.5 -57t35.5 -39.5t52 -14.5zM431 713l-64 -145h-158l107 145h115z
" />
    <glyph glyph-name="Hcircumflex" unicode="&#x124;" horiz-adv-x="749" 
d="M520 0v700h161v-700h-161zM68 0v701h161v-701h-161zM182 283v148h424v-148h-424zM442 764l-143 132v11h152l126 -143h-135zM172 764l126 143h152v-11l-143 -132h-135z" />
    <glyph glyph-name="hcircumflex" unicode="&#x125;" horiz-adv-x="575" 
d="M53 0v700h156v-700h-156zM375 0v256h156v-256h-156zM375 256q0 40 -9 63.5t-26 34.5t-40 12q-45 1 -68 -24.5t-23 -77.5h-47q0 79 24 134.5t65.5 84.5t95.5 29q61 0 102 -24.5t61.5 -74.5t20.5 -128v-29h-156zM192 769l-143 132v11h152l126 -143h-135zM-78 769l126 143
h152v-11l-143 -132h-135z" />
    <glyph glyph-name="Hbar" unicode="&#x126;" horiz-adv-x="749" 
d="M5 503v113h739v-113h-739zM520 0v700h161v-700h-161zM68 0v701h161v-701h-161zM182 283v148h424v-148h-424z" />
    <glyph glyph-name="hbar" unicode="&#x127;" horiz-adv-x="575" 
d="M0 550v95h345v-95h-345zM53 0v700h156v-700h-156zM375 0v256h156v-256h-156zM375 256q0 40 -9 63.5t-26 34.5t-40 12q-45 1 -68 -24.5t-23 -77.5h-47q0 79 24 134.5t65.5 84.5t95.5 29q61 0 102 -24.5t61.5 -74.5t20.5 -128v-29h-156z" />
    <glyph glyph-name="Imacron" unicode="&#x12a;" horiz-adv-x="297" 
d="M68 0v700h161v-700h-161zM-16 749v132h332v-132h-332z" />
    <glyph glyph-name="imacron" unicode="&#x12b;" horiz-adv-x="276" 
d="M60 0v500h156v-500h-156zM-7 555v132h290v-132h-290z" />
    <glyph glyph-name="Iogonek" unicode="&#x12e;" horiz-adv-x="297" 
d="M68 0v700h161v-700h-161zM188 -212q-40 0 -73.5 13t-53 39t-19.5 65q0 31 20 56.5t47 40.5l120 -2q-28 -19 -46 -41.5t-18 -43.5q0 -9 6 -15.5t17 -6.5q10 0 17.5 2.5t12.5 4.5l46 -95q-15 -9 -33.5 -13t-42.5 -4z" />
    <glyph glyph-name="iogonek" unicode="&#x12f;" horiz-adv-x="276" 
d="M60 0v500h156v-500h-156zM138 564q-35 0 -61.5 26.5t-26.5 61.5q0 37 26.5 62.5t61.5 25.5q36 0 62 -25.5t26 -62.5q0 -35 -26 -61.5t-62 -26.5zM175 -212q-40 0 -73.5 13t-53 39t-19.5 65q0 31 20 56.5t47 40.5l120 -2q-28 -19 -46 -41.5t-18 -43.5q0 -9 6 -15.5
t17 -6.5q10 0 17.5 2.5t12.5 4.5l46 -95q-15 -9 -33.5 -13t-42.5 -4z" />
    <glyph glyph-name="Idotaccent" unicode="&#x130;" horiz-adv-x="297" 
d="M68 0v700h161v-700h-161zM150 758q-35 0 -61.5 26.5t-26.5 61.5q0 37 26.5 62.5t61.5 25.5q36 0 62 -25.5t26 -62.5q0 -35 -26 -61.5t-62 -26.5z" />
    <glyph glyph-name="dotlessi" unicode="&#x131;" horiz-adv-x="276" 
d="M60 0v500h156v-500h-156z" />
    <glyph glyph-name="IJ" unicode="&#x132;" horiz-adv-x="866" 
d="M68 0v700h161v-700h-161zM544 -15q-58 0 -101.5 19t-73 49.5t-45 64t-18.5 62.5l140 47q13 -46 38 -70t62 -24q28 0 51 12.5t37 39t14 67.5v448h161v-490q0 -51 -19 -92.5t-54 -71t-84 -45.5t-108 -16z" />
    <glyph glyph-name="ij" unicode="&#x133;" horiz-adv-x="577" 
d="M60 0v500h156v-500h-156zM138 564q-35 0 -61.5 26.5t-26.5 61.5q0 37 26.5 62.5t61.5 25.5q36 0 62 -25.5t26 -62.5q0 -35 -26 -61.5t-62 -26.5zM436 560q-36 0 -63 27t-27 63q0 37 27 64t63 27q37 0 64 -27t27 -64q0 -36 -27 -63t-64 -27zM325 -215q-65 0 -115 33
l64 129q12 -7 24 -12t22 -5q38 0 38 52v518h156v-529q0 -88 -49 -137t-140 -49z" />
    <glyph glyph-name="Jcircumflex" unicode="&#x134;" horiz-adv-x="570" 
d="M247 -15q-58 0 -101.5 19t-73 49.5t-45 64t-18.5 62.5l140 47q13 -46 38 -70t62 -24q28 0 51 12.5t37 39t14 67.5v448h161v-490q0 -51 -19 -92.5t-54 -71t-84 -45.5t-108 -16zM483 765l-143 132v11h152l126 -143h-135zM213 765l126 143h152v-11l-143 -132h-135z" />
    <glyph glyph-name="jcircumflex" unicode="&#x135;" horiz-adv-x="288" 
d="M49 -215q-65 0 -115 33l64 129q12 -7 24 -12t22 -5q38 0 38 52v518h156v-529q0 -88 -49 -137t-140 -49zM223 569l-143 132v11h152l126 -143h-135zM-47 569l126 143h152v-11l-143 -132h-135z" />
    <glyph glyph-name="uni0136" unicode="&#x136;" horiz-adv-x="692" 
d="M161 148l-8 215l310 337h210zM68 0v700h160v-700h-160zM484 0l-275 356l119 95l355 -451h-199zM236 -200l46 155h148l-79 -155h-115z" />
    <glyph glyph-name="uni0137" unicode="&#x137;" horiz-adv-x="562" 
d="M199 111l-92 108l251 281h183zM51 0v700h156v-700h-156zM373 0l-155 221l102 107l234 -328h-181zM168 -200l46 155h148l-79 -155h-115z" />
    <glyph glyph-name="Lacute" unicode="&#x139;" horiz-adv-x="545" 
d="M68 0v700h161v-552h298v-148h-459zM58 752l111 142h169l-129 -142h-151z" />
    <glyph glyph-name="lacute" unicode="&#x13a;" horiz-adv-x="258" 
d="M51 0v700h156v-700h-156zM38 752l111 142h169l-129 -142h-151z" />
    <glyph glyph-name="uni013B" unicode="&#x13b;" horiz-adv-x="545" 
d="M68 0v700h161v-552h298v-148h-459zM176 -200l46 155h148l-79 -155h-115z" />
    <glyph glyph-name="uni013C" unicode="&#x13c;" horiz-adv-x="258" 
d="M51 0v700h156v-700h-156zM19 -200l46 155h148l-79 -155h-115z" />
    <glyph glyph-name="Lcaron" unicode="&#x13d;" horiz-adv-x="545" 
d="M68 0v700h161v-552h298v-148h-459zM263 606l29 153h134l-48 -153h-115z" />
    <glyph glyph-name="lcaron" unicode="&#x13e;" horiz-adv-x="258" 
d="M51 0v700h156v-700h-156zM226 547l29 153h134l-48 -153h-115z" />
    <glyph glyph-name="Lslash" unicode="&#x141;" horiz-adv-x="545" 
d="M1 230v130l323 170v-130zM68 0v700h161v-552h298v-148h-459z" />
    <glyph glyph-name="lslash" unicode="&#x142;" horiz-adv-x="288" 
d="M4 217v122l280 146v-122zM66 0v700h156v-700h-156z" />
    <glyph glyph-name="Nacute" unicode="&#x143;" horiz-adv-x="773" 
d="M68 0v700h169l307 -427v427h161v-700h-161l-315 439v-439h-161zM295 736l111 142h169l-129 -142h-151z" />
    <glyph glyph-name="nacute" unicode="&#x144;" horiz-adv-x="573" 
d="M51 0v500h147l9 -92v-408h-156zM373 0v256h156v-256h-156zM373 256q0 40 -9 63.5t-25.5 34.5t-40.5 12q-45 1 -68 -24.5t-23 -77.5h-47q0 79 24 134.5t65.5 84.5t96.5 29q60 0 101 -24.5t61.5 -74.5t20.5 -128v-29h-156zM191 558l111 142h169l-129 -142h-151z" />
    <glyph glyph-name="uni0145" unicode="&#x145;" horiz-adv-x="773" 
d="M68 0v700h169l307 -427v427h161v-700h-161l-315 439v-439h-161zM278 -200l46 155h148l-79 -155h-115z" />
    <glyph glyph-name="uni0146" unicode="&#x146;" horiz-adv-x="573" 
d="M51 0v500h147l9 -92v-408h-156zM373 0v256h156v-256h-156zM373 256q0 40 -9 63.5t-25.5 34.5t-40.5 12q-45 1 -68 -24.5t-23 -77.5h-47q0 79 24 134.5t65.5 84.5t96.5 29q60 0 101 -24.5t61.5 -74.5t20.5 -128v-29h-156zM172 -200l46 155h148l-79 -155h-115z" />
    <glyph glyph-name="Ncaron" unicode="&#x147;" horiz-adv-x="773" 
d="M68 0v700h169l307 -427v427h161v-700h-161l-315 439v-439h-161zM314 736v4l134 138h136l-126 -142h-144zM305 736l-126 142h136l134 -138v-4h-144z" />
    <glyph glyph-name="ncaron" unicode="&#x148;" horiz-adv-x="573" 
d="M51 0v500h147l9 -92v-408h-156zM373 0v256h156v-256h-156zM373 256q0 40 -9 63.5t-25.5 34.5t-40.5 12q-45 1 -68 -24.5t-23 -77.5h-47q0 79 24 134.5t65.5 84.5t96.5 29q60 0 101 -24.5t61.5 -74.5t20.5 -128v-29h-156zM211 558v4l134 138h136l-126 -142h-144zM202 558
l-126 142h136l134 -138v-4h-144z" />
    <glyph glyph-name="Eng" unicode="&#x14a;" horiz-adv-x="773" 
d="M514 -214q-67 0 -117 32l63 130q13 -8 25 -12.5t22 -4.5q38 0 38 51v119h160v-130q0 -88 -50 -136.5t-141 -48.5zM68 0v700h169l307 -427v427h161v-700h-161l-315 439v-439h-161z" />
    <glyph glyph-name="eng" unicode="&#x14b;" horiz-adv-x="573" 
d="M340 -215q-65 0 -115 33l63 129q13 -7 25 -12t22 -5q38 0 38 52v18h156v-29q0 -88 -49.5 -137t-139.5 -49zM51 0v500h147l9 -92v-408h-156zM373 0v256h156v-256h-156zM373 256q0 40 -9 63.5t-25.5 34.5t-40.5 12q-45 1 -68 -24.5t-23 -77.5h-47q0 79 24 134.5t65.5 84.5
t96.5 29q60 0 101 -24.5t61.5 -74.5t20.5 -128v-29h-156z" />
    <glyph glyph-name="Omacron" unicode="&#x14c;" horiz-adv-x="792" 
d="M398 -12q-108 0 -191 46.5t-130 128t-47 186.5q0 106 47 187.5t129.5 128t189.5 46.5t189.5 -46.5t129.5 -128t47 -187.5q0 -105 -46.5 -186.5t-128.5 -128t-189 -46.5zM398 136q59 0 104 27t70 75.5t25 110.5q0 63 -26 111.5t-71 76t-104 27.5t-104 -27.5t-71 -76
t-26 -111.5q0 -62 26 -110.5t72 -75.5t105 -27zM199 749v132h394v-132h-394z" />
    <glyph glyph-name="omacron" unicode="&#x14d;" horiz-adv-x="582" 
d="M293 -12q-79 0 -139 33.5t-94.5 92.5t-34.5 136t33.5 136t94 92.5t137.5 33.5q79 0 139.5 -33.5t94 -92.5t33.5 -136t-33.5 -136t-93.5 -92.5t-137 -33.5zM293 132q30 0 53.5 15t37 41.5t13.5 61.5t-13.5 61.5t-37.5 41.5t-55 15t-55 -15t-37.5 -41.5t-13.5 -61.5
t13.5 -61.5t38 -41.5t56.5 -15zM121 555v132h332v-132h-332z" />
    <glyph glyph-name="Ohungarumlaut" unicode="&#x150;" horiz-adv-x="792" 
d="M398 -12q-108 0 -191 46.5t-130 128t-47 186.5q0 106 47 187.5t129.5 128t189.5 46.5t189.5 -46.5t129.5 -128t47 -187.5q0 -105 -46.5 -186.5t-128.5 -128t-189 -46.5zM398 136q59 0 104 27t70 75.5t25 110.5q0 63 -26 111.5t-71 76t-104 27.5t-104 -27.5t-71 -76
t-26 -111.5q0 -62 26 -110.5t72 -75.5t105 -27zM437 752l100 142h154l-119 -142h-135zM219 752l97 142h154l-118 -142h-133z" />
    <glyph glyph-name="ohungarumlaut" unicode="&#x151;" horiz-adv-x="582" 
d="M293 -12q-79 0 -139 33.5t-94.5 92.5t-34.5 136t33.5 136t94 92.5t137.5 33.5q79 0 139.5 -33.5t94 -92.5t33.5 -136t-33.5 -136t-93.5 -92.5t-137 -33.5zM293 132q30 0 53.5 15t37 41.5t13.5 61.5t-13.5 61.5t-37.5 41.5t-55 15t-55 -15t-37.5 -41.5t-13.5 -61.5
t13.5 -61.5t38 -41.5t56.5 -15zM327 558l100 142h154l-119 -142h-135zM109 558l97 142h154l-118 -142h-133z" />
    <glyph glyph-name="OE" unicode="&#x152;" horiz-adv-x="1105" 
d="M398 -13q-108 0 -191 46.5t-130 128.5t-47 188t47 187.5t129.5 128t189.5 46.5q95 0 168 -45t114.5 -125.5t41.5 -188.5q0 -109 -41.5 -191.5t-114 -128.5t-166.5 -46zM398 139q56 0 98.5 26t66 73.5t23.5 111.5q0 63 -24 110.5t-67.5 73.5t-98.5 26q-58 0 -102.5 -27
t-69.5 -74.5t-25 -108.5q0 -62 25 -109.5t70.5 -74.5t103.5 -27zM585 0v700h456v-148h-295v-128h247v-143h-247v-133h301v-148h-462z" />
    <glyph glyph-name="oe" unicode="&#x153;" horiz-adv-x="1003" 
d="M293 -12q-79 0 -139 33.5t-94.5 92.5t-34.5 136t33.5 136t94 92.5t137.5 33.5q79 0 139.5 -33.5t94 -92.5t33.5 -136t-33.5 -136t-93.5 -92.5t-137 -33.5zM293 132q30 0 53.5 15t37 41.5t13.5 61.5t-13.5 61.5t-37.5 41.5t-55 15t-55 -15t-37.5 -41.5t-13.5 -61.5
t13.5 -61.5t38 -41.5t56.5 -15zM732 -12q-78 0 -138 33.5t-94 92.5t-34 136q0 78 34.5 137t94.5 92t139 33q71 0 128 -34t90.5 -101t33.5 -167h-376l17 19q0 -34 14 -60t39 -39.5t56 -13.5q37 0 62.5 16.5t35.5 41.5l138 -47q-20 -47 -56.5 -78t-83.5 -46t-100 -15zM631 294
l-16 20h224l-14 -20q0 37 -15 59t-37 31.5t-44 9.5t-44.5 -9.5t-38 -31.5t-15.5 -59z" />
    <glyph glyph-name="Racute" unicode="&#x154;" horiz-adv-x="654" 
d="M68 0v700h275q76 0 135 -29.5t92.5 -82t33.5 -120.5t-34 -121t-93.5 -82.5t-136.5 -29.5h-111v-235h-161zM448 0l-158 278l121 89l221 -367h-184zM229 383h109q28 0 50 11t34.5 30.5t12.5 43.5q0 37 -27.5 61t-72.5 24h-106v-170zM207 752l111 142h169l-129 -142h-151z
" />
    <glyph glyph-name="racute" unicode="&#x155;" horiz-adv-x="398" 
d="M166 259q0 81 32.5 135t82 81t103.5 27v-152q-46 0 -86.5 -10t-65.5 -30.5t-25 -52.5zM51 0v500h156v-500h-156zM90 558l111 142h169l-129 -142h-151z" />
    <glyph glyph-name="uni0156" unicode="&#x156;" horiz-adv-x="654" 
d="M68 0v700h275q76 0 135 -29.5t92.5 -82t33.5 -120.5t-34 -121t-93.5 -82.5t-136.5 -29.5h-111v-235h-161zM448 0l-158 278l121 89l221 -367h-184zM229 383h109q28 0 50 11t34.5 30.5t12.5 43.5q0 37 -27.5 61t-72.5 24h-106v-170zM217 -200l46 155h148l-79 -155h-115z
" />
    <glyph glyph-name="uni0157" unicode="&#x157;" horiz-adv-x="398" 
d="M166 259q0 81 32.5 135t82 81t103.5 27v-152q-46 0 -86.5 -10t-65.5 -30.5t-25 -52.5zM51 0v500h156v-500h-156zM46 -200l46 155h148l-79 -155h-115z" />
    <glyph glyph-name="Rcaron" unicode="&#x158;" horiz-adv-x="654" 
d="M68 0v700h275q76 0 135 -29.5t92.5 -82t33.5 -120.5t-34 -121t-93.5 -82.5t-136.5 -29.5h-111v-235h-161zM448 0l-158 278l121 89l221 -367h-184zM229 383h109q28 0 50 11t34.5 30.5t12.5 43.5q0 37 -27.5 61t-72.5 24h-106v-170zM226 752v4l134 138h136l-126 -142h-144z
M217 752l-126 142h136l134 -138v-4h-144z" />
    <glyph glyph-name="rcaron" unicode="&#x159;" horiz-adv-x="398" 
d="M166 259q0 81 32.5 135t82 81t103.5 27v-152q-46 0 -86.5 -10t-65.5 -30.5t-25 -52.5zM51 0v500h156v-500h-156zM109 558v4l134 138h136l-126 -142h-144zM100 558l-126 142h136l134 -138v-4h-144z" />
    <glyph glyph-name="Sacute" unicode="&#x15a;" horiz-adv-x="603" 
d="M308 -12q-51 0 -97.5 13.5t-84 37t-61.5 53t-30 63.5l159 45q11 -29 38.5 -50.5t69.5 -22.5q41 -1 68.5 19t27.5 52q0 25 -19.5 44t-55.5 29l-99 25q-52 13 -90.5 41t-60 68.5t-21.5 92.5q0 101 67 157.5t189 56.5q67 0 117 -18.5t85.5 -54.5t56.5 -90l-158 -47
q-8 27 -34.5 49t-68.5 22t-65.5 -19t-23.5 -55q0 -25 19 -41.5t52 -24.5l99 -25q85 -21 132.5 -78.5t47.5 -130.5q0 -66 -30.5 -113t-88.5 -72.5t-140 -25.5zM217 752l111 142h169l-129 -142h-151z" />
    <glyph glyph-name="sacute" unicode="&#x15b;" horiz-adv-x="486" 
d="M239 -12q-49 0 -91.5 14.5t-73.5 41t-46 64.5l128 54q13 -26 36 -38.5t47 -12.5q25 0 39 8.5t14 23.5q0 16 -14.5 25t-41.5 16l-43 11q-70 18 -107.5 59.5t-37.5 96.5q0 77 53 119t147 42q53 0 93.5 -14t68 -39.5t39.5 -59.5l-124 -51q-7 20 -28.5 30.5t-47.5 10.5
q-22 0 -34 -9.5t-12 -25.5q0 -12 14.5 -20.5t42.5 -15.5l53 -13q47 -12 79 -36.5t48 -57t16 -69.5q0 -47 -27.5 -81.5t-76.5 -53.5t-113 -19zM156 558l111 142h169l-129 -142h-151z" />
    <glyph glyph-name="Scircumflex" unicode="&#x15c;" horiz-adv-x="603" 
d="M308 -12q-51 0 -97.5 13.5t-84 37t-61.5 53t-30 63.5l159 45q11 -29 38.5 -50.5t69.5 -22.5q41 -1 68.5 19t27.5 52q0 25 -19.5 44t-55.5 29l-99 25q-52 13 -90.5 41t-60 68.5t-21.5 92.5q0 101 67 157.5t189 56.5q67 0 117 -18.5t85.5 -54.5t56.5 -90l-158 -47
q-8 27 -34.5 49t-68.5 22t-65.5 -19t-23.5 -55q0 -25 19 -41.5t52 -24.5l99 -25q85 -21 132.5 -78.5t47.5 -130.5q0 -66 -30.5 -113t-88.5 -72.5t-140 -25.5zM371 763l-143 132v11h152l126 -143h-135zM101 763l126 143h152v-11l-143 -132h-135z" />
    <glyph glyph-name="scircumflex" unicode="&#x15d;" horiz-adv-x="486" 
d="M239 -12q-49 0 -91.5 14.5t-73.5 41t-46 64.5l128 54q13 -26 36 -38.5t47 -12.5q25 0 39 8.5t14 23.5q0 16 -14.5 25t-41.5 16l-43 11q-70 18 -107.5 59.5t-37.5 96.5q0 77 53 119t147 42q53 0 93.5 -14t68 -39.5t39.5 -59.5l-124 -51q-7 20 -28.5 30.5t-47.5 10.5
q-22 0 -34 -9.5t-12 -25.5q0 -12 14.5 -20.5t42.5 -15.5l53 -13q47 -12 79 -36.5t48 -57t16 -69.5q0 -47 -27.5 -81.5t-76.5 -53.5t-113 -19zM310 569l-143 132v11h152l126 -143h-135zM40 569l126 143h152v-11l-143 -132h-135z" />
    <glyph glyph-name="Scedilla" unicode="&#x15e;" horiz-adv-x="603" 
d="M308 -12q-51 0 -97.5 13.5t-84 37t-61.5 53t-30 63.5l159 45q11 -29 38.5 -50.5t69.5 -22.5q41 -1 68.5 19t27.5 52q0 25 -19.5 44t-55.5 29l-99 25q-52 13 -90.5 41t-60 68.5t-21.5 92.5q0 101 67 157.5t189 56.5q67 0 117 -18.5t85.5 -54.5t56.5 -90l-158 -47
q-8 27 -34.5 49t-68.5 22t-65.5 -19t-23.5 -55q0 -25 19 -41.5t52 -24.5l99 -25q85 -21 132.5 -78.5t47.5 -130.5q0 -66 -30.5 -113t-88.5 -72.5t-140 -25.5zM259 -210q-23 0 -48 7.5t-48 22.5l21 69q14 -7 27.5 -11t23.5 -4q17 0 28 5.5t11 17.5q0 16 -15.5 25t-44.5 10
l30 74l87 -3l-15 -30q35 -12 53 -34.5t18 -48.5q0 -46 -33 -73t-95 -27z" />
    <glyph glyph-name="scedilla" unicode="&#x15f;" horiz-adv-x="486" 
d="M239 -12q-49 0 -91.5 14.5t-73.5 41t-46 64.5l128 54q13 -26 36 -38.5t47 -12.5q25 0 39 8.5t14 23.5q0 16 -14.5 25t-41.5 16l-43 11q-70 18 -107.5 59.5t-37.5 96.5q0 77 53 119t147 42q53 0 93.5 -14t68 -39.5t39.5 -59.5l-124 -51q-7 20 -28.5 30.5t-47.5 10.5
q-22 0 -34 -9.5t-12 -25.5q0 -12 14.5 -20.5t42.5 -15.5l53 -13q47 -12 79 -36.5t48 -57t16 -69.5q0 -47 -27.5 -81.5t-76.5 -53.5t-113 -19zM196 -209q-23 0 -48 7.5t-48 22.5l21 69q14 -7 27.5 -11t23.5 -4q17 0 28 5.5t11 17.5q0 16 -15.5 25t-44.5 10l30 74l87 -3
l-15 -30q35 -12 53 -34.5t18 -48.5q0 -46 -33 -73t-95 -27z" />
    <glyph glyph-name="Scaron" unicode="&#x160;" horiz-adv-x="603" 
d="M308 -12q-51 0 -97.5 13.5t-84 37t-61.5 53t-30 63.5l159 45q11 -29 38.5 -50.5t69.5 -22.5q41 -1 68.5 19t27.5 52q0 25 -19.5 44t-55.5 29l-99 25q-52 13 -90.5 41t-60 68.5t-21.5 92.5q0 101 67 157.5t189 56.5q67 0 117 -18.5t85.5 -54.5t56.5 -90l-158 -47
q-8 27 -34.5 49t-68.5 22t-65.5 -19t-23.5 -55q0 -25 19 -41.5t52 -24.5l99 -25q85 -21 132.5 -78.5t47.5 -130.5q0 -66 -30.5 -113t-88.5 -72.5t-140 -25.5zM236 752v4l134 138h136l-126 -142h-144zM227 752l-126 142h136l134 -138v-4h-144z" />
    <glyph glyph-name="scaron" unicode="&#x161;" horiz-adv-x="486" 
d="M239 -12q-49 0 -91.5 14.5t-73.5 41t-46 64.5l128 54q13 -26 36 -38.5t47 -12.5q25 0 39 8.5t14 23.5q0 16 -14.5 25t-41.5 16l-43 11q-70 18 -107.5 59.5t-37.5 96.5q0 77 53 119t147 42q53 0 93.5 -14t68 -39.5t39.5 -59.5l-124 -51q-7 20 -28.5 30.5t-47.5 10.5
q-22 0 -34 -9.5t-12 -25.5q0 -12 14.5 -20.5t42.5 -15.5l53 -13q47 -12 79 -36.5t48 -57t16 -69.5q0 -47 -27.5 -81.5t-76.5 -53.5t-113 -19zM175 558v4l134 138h136l-126 -142h-144zM166 558l-126 142h136l134 -138v-4h-144z" />
    <glyph glyph-name="Tcaron" unicode="&#x164;" horiz-adv-x="599" 
d="M220 0v552h-204v148h568v-148h-204v-552h-160zM227 752v4l134 138h136l-126 -142h-144zM218 752l-126 142h136l134 -138v-4h-144z" />
    <glyph glyph-name="tcaron" unicode="&#x165;" horiz-adv-x="439" 
d="M278 575l30 130h134l-49 -130h-115zM266 -12q-89 0 -132.5 42.5t-43.5 121.5v504h156v-465q0 -30 11 -44t34 -14q9 0 21 4.5t22 11.5l54 -114q-24 -20 -57.5 -33.5t-64.5 -13.5zM12 369v131h348v-131h-348z" />
    <glyph glyph-name="Umacron" unicode="&#x16a;" horiz-adv-x="702" 
d="M349 -13q-90 0 -155.5 34t-100.5 96.5t-35 148.5v434h161v-434q0 -40 16 -69t45.5 -45t70.5 -16q40 0 70 16t46 45t16 69v434h161v-434q0 -86 -35.5 -148.5t-102 -96.5t-157.5 -34zM185 749v132h332v-132h-332z" />
    <glyph glyph-name="umacron" unicode="&#x16b;" horiz-adv-x="573" 
d="M375 0l-9 92v408h156v-500h-147zM44 244v256h156v-256h-156zM200 244q0 -39 9 -63t26 -35t40 -12q45 0 68 25.5t23 76.5h47q0 -79 -24 -134.5t-65.5 -84.5t-96.5 -29q-60 0 -101 24.5t-61.5 74.5t-20.5 128v29h156zM118 555v132h332v-132h-332z" />
    <glyph glyph-name="Ubreve" unicode="&#x16c;" horiz-adv-x="702" 
d="M349 -13q-90 0 -155.5 34t-100.5 96.5t-35 148.5v434h161v-434q0 -40 16 -69t45.5 -45t70.5 -16q40 0 70 16t46 45t16 69v434h161v-434q0 -86 -35.5 -148.5t-102 -96.5t-157.5 -34zM352 741q-56 0 -100.5 19.5t-69.5 54.5t-25 79h143q0 -20 14.5 -33.5t37.5 -13.5t37 13
t14 34h143q0 -44 -25 -79t-68.5 -54.5t-100.5 -19.5z" />
    <glyph glyph-name="ubreve" unicode="&#x16d;" horiz-adv-x="573" 
d="M375 0l-9 92v408h156v-500h-147zM44 244v256h156v-256h-156zM200 244q0 -39 9 -63t26 -35t40 -12q45 0 68 25.5t23 76.5h47q0 -79 -24 -134.5t-65.5 -84.5t-96.5 -29q-60 0 -101 24.5t-61.5 74.5t-20.5 128v29h156zM285 547q-56 0 -100.5 19.5t-69.5 54.5t-25 79h143
q0 -20 14.5 -33.5t37.5 -13.5t37 13t14 34h143q0 -44 -25 -79t-68.5 -54.5t-100.5 -19.5z" />
    <glyph glyph-name="Uring" unicode="&#x16e;" horiz-adv-x="702" 
d="M349 -13q-90 0 -155.5 34t-100.5 96.5t-35 148.5v434h161v-434q0 -40 16 -69t45.5 -45t70.5 -16q40 0 70 16t46 45t16 69v434h161v-434q0 -86 -35.5 -148.5t-102 -96.5t-157.5 -34zM351 723q-34 0 -63.5 16t-47 43.5t-17.5 60.5q0 34 17.5 61.5t46.5 43.5t64 16
q34 0 63 -16t46.5 -43.5t17.5 -61.5q0 -33 -17.5 -60.5t-46 -43.5t-63.5 -16zM351 809q33 0 33 34q0 35 -33 35q-34 0 -34 -35q0 -34 34 -34z" />
    <glyph glyph-name="uring" unicode="&#x16f;" horiz-adv-x="573" 
d="M375 0l-9 92v408h156v-500h-147zM44 244v256h156v-256h-156zM200 244q0 -39 9 -63t26 -35t40 -12q45 0 68 25.5t23 76.5h47q0 -79 -24 -134.5t-65.5 -84.5t-96.5 -29q-60 0 -101 24.5t-61.5 74.5t-20.5 128v29h156zM284 529q-34 0 -63.5 16t-47 43.5t-17.5 60.5
q0 34 17.5 61.5t46.5 43.5t64 16q34 0 63 -16t46.5 -43.5t17.5 -61.5q0 -33 -17.5 -60.5t-46 -43.5t-63.5 -16zM284 615q33 0 33 34q0 35 -33 35q-34 0 -34 -35q0 -34 34 -34z" />
    <glyph glyph-name="Uhungarumlaut" unicode="&#x170;" horiz-adv-x="702" 
d="M349 -13q-90 0 -155.5 34t-100.5 96.5t-35 148.5v434h161v-434q0 -40 16 -69t45.5 -45t70.5 -16q40 0 70 16t46 45t16 69v434h161v-434q0 -86 -35.5 -148.5t-102 -96.5t-157.5 -34zM392 752l100 142h154l-119 -142h-135zM174 752l97 142h154l-118 -142h-133z" />
    <glyph glyph-name="uhungarumlaut" unicode="&#x171;" horiz-adv-x="573" 
d="M375 0l-9 92v408h156v-500h-147zM44 244v256h156v-256h-156zM200 244q0 -39 9 -63t26 -35t40 -12q45 0 68 25.5t23 76.5h47q0 -79 -24 -134.5t-65.5 -84.5t-96.5 -29q-60 0 -101 24.5t-61.5 74.5t-20.5 128v29h156zM325 558l100 142h154l-119 -142h-135zM107 558l97 142
h154l-118 -142h-133z" />
    <glyph glyph-name="Uogonek" unicode="&#x172;" horiz-adv-x="702" 
d="M349 -13q-90 0 -155.5 34t-100.5 96.5t-35 148.5v434h161v-434q0 -40 16 -69t45.5 -45t70.5 -16q40 0 70 16t46 45t16 69v434h161v-434q0 -86 -35.5 -148.5t-102 -96.5t-157.5 -34zM542 -209q-45 0 -83 11.5t-60 35t-22 57.5q0 35 21 62.5t56 51.5t78 49h28
q-30 -29 -44 -51t-18.5 -40t-4.5 -36q0 -16 10 -26t28 -10q14 0 24 2t19 6l46 -95q-16 -9 -35 -13t-43 -4z" />
    <glyph glyph-name="uogonek" unicode="&#x173;" horiz-adv-x="573" 
d="M375 0l-9 92v408h156v-500h-147zM44 244v256h156v-256h-156zM200 244q0 -39 9 -63t26 -35t40 -12q45 0 68 25.5t23 76.5h47q0 -79 -24 -134.5t-65.5 -84.5t-96.5 -29q-60 0 -101 24.5t-61.5 74.5t-20.5 128v29h156zM481 -212q-40 0 -73.5 13t-53 39t-19.5 65
q0 31 20 56.5t47 40.5l120 -2q-28 -19 -46 -41.5t-18 -43.5q0 -9 6 -15.5t17 -6.5q10 0 17.5 2.5t12.5 4.5l46 -95q-15 -9 -33.5 -13t-42.5 -4z" />
    <glyph glyph-name="Wcircumflex" unicode="&#x174;" horiz-adv-x="996" 
d="M631 0l194 700h164l-205 -700h-153zM212 0l-204 700h164l193 -700h-153zM234 0l184 700h144l-183 -700h-145zM616 0l-182 700h144l191 -700h-153zM560 739l-143 132v11h152l126 -143h-135zM290 739l126 143h152v-11l-143 -132h-135z" />
    <glyph glyph-name="wcircumflex" unicode="&#x175;" horiz-adv-x="859" 
d="M526 0l164 500h159l-171 -500h-152zM197 0l156 500h133l-153 -500h-136zM180 0l-170 500h159l155 -500h-144zM525 0l-151 500h133l155 -500h-137zM493 569l-143 132v11h152l126 -143h-135zM223 569l126 143h152v-11l-143 -132h-135z" />
    <glyph glyph-name="Ycircumflex" unicode="&#x176;" horiz-adv-x="666" 
d="M408 288l-155 32l224 380h183zM253 0v336h161v-336h-161zM258 288l-252 412h183l224 -380zM396 739l-143 132v11h152l126 -143h-135zM126 739l126 143h152v-11l-143 -132h-135z" />
    <glyph glyph-name="ycircumflex" unicode="&#x177;" horiz-adv-x="599" 
d="M177 -212q-32 0 -67.5 12t-59.5 26l58 127q14 -10 27.5 -15t24.5 -5q19 0 34 9.5t24 30.5l59 139l147 388h173l-221 -530q-22 -54 -46 -95t-59.5 -64t-93.5 -23zM236 0l-234 500h173l157 -388l53 -112h-149zM362 569l-143 132v11h152l126 -143h-135zM92 569l126 143h152
v-11l-143 -132h-135z" />
    <glyph glyph-name="Ydieresis" unicode="&#x178;" horiz-adv-x="666" 
d="M408 288l-155 32l224 380h183zM253 0v336h161v-336h-161zM258 288l-252 412h183l224 -380zM465 751q-31 0 -54.5 23.5t-23.5 55.5q0 31 23.5 54.5t54.5 23.5q32 0 55.5 -23.5t23.5 -54.5q0 -32 -23.5 -55.5t-55.5 -23.5zM201 751q-32 0 -55.5 23.5t-23.5 55.5t23.5 55
t55.5 23t55 -23t23 -55t-23 -55.5t-55 -23.5z" />
    <glyph glyph-name="Zacute" unicode="&#x179;" horiz-adv-x="628" 
d="M34 0v152l351 396h-348v152h557v-152l-351 -396h348v-152h-557zM224 752l111 142h169l-129 -142h-151z" />
    <glyph glyph-name="zacute" unicode="&#x17a;" horiz-adv-x="471" 
d="M26 0v110l224 263h-224v127h418v-110l-225 -264h226v-126h-419zM144 558l111 142h169l-129 -142h-151z" />
    <glyph glyph-name="Zdotaccent" unicode="&#x17b;" horiz-adv-x="628" 
d="M34 0v152l351 396h-348v152h557v-152l-351 -396h348v-152h-557zM315 758q-35 0 -61.5 26.5t-26.5 61.5q0 37 26.5 62.5t61.5 25.5q36 0 62 -25.5t26 -62.5q0 -35 -26 -61.5t-62 -26.5z" />
    <glyph glyph-name="zdotaccent" unicode="&#x17c;" horiz-adv-x="471" 
d="M26 0v110l224 263h-224v127h418v-110l-225 -264h226v-126h-419zM235 564q-35 0 -61.5 26.5t-26.5 61.5q0 37 26.5 62.5t61.5 25.5q36 0 62 -25.5t26 -62.5q0 -35 -26 -61.5t-62 -26.5z" />
    <glyph glyph-name="Zcaron" unicode="&#x17d;" horiz-adv-x="628" 
d="M34 0v152l351 396h-348v152h557v-152l-351 -396h348v-152h-557zM243 752v4l134 138h136l-126 -142h-144zM234 752l-126 142h136l134 -138v-4h-144z" />
    <glyph glyph-name="zcaron" unicode="&#x17e;" horiz-adv-x="471" 
d="M26 0v110l224 263h-224v127h418v-110l-225 -264h226v-126h-419zM163 558v4l134 138h136l-126 -142h-144zM154 558l-126 142h136l134 -138v-4h-144z" />
    <glyph glyph-name="uni01CD" unicode="&#x1cd;" horiz-adv-x="732" 
d="M554 0l-262 700h160l272 -700h-170zM8 0l272 700h160l-262 -700h-170zM136 133v142h461v-142h-461zM294 752v4l134 138h136l-126 -142h-144zM285 752l-126 142h136l134 -138v-4h-144z" />
    <glyph glyph-name="uni01CE" unicode="&#x1ce;" horiz-adv-x="537" 
d="M348 0l-4 108v141q0 40 -7 70t-25 47t-54 17q-28 0 -49 -13t-36 -36l-136 45q17 37 46.5 67t72.5 48t100 18q78 0 132 -29t81 -81t27 -123l-2 -279h-146zM212 -12q-89 0 -138 40t-49 113q0 79 51 118t143 39h137v-100h-78q-50 0 -72 -14t-22 -39q0 -18 16.5 -28.5
t45.5 -10.5t51 12.5t34.5 33.5t12.5 46h39q0 -100 -42 -155t-129 -55zM180 558v4l134 138h136l-126 -142h-144zM171 558l-126 142h136l134 -138v-4h-144z" />
    <glyph glyph-name="uni0218" unicode="&#x218;" horiz-adv-x="603" 
d="M308 -12q-51 0 -97.5 13.5t-84 37t-61.5 53t-30 63.5l159 45q11 -29 38.5 -50.5t69.5 -22.5q41 -1 68.5 19t27.5 52q0 25 -19.5 44t-55.5 29l-99 25q-52 13 -90.5 41t-60 68.5t-21.5 92.5q0 101 67 157.5t189 56.5q67 0 117 -18.5t85.5 -54.5t56.5 -90l-158 -47
q-8 27 -34.5 49t-68.5 22t-65.5 -19t-23.5 -55q0 -25 19 -41.5t52 -24.5l99 -25q85 -21 132.5 -78.5t47.5 -130.5q0 -66 -30.5 -113t-88.5 -72.5t-140 -25.5zM198 -200l46 155h148l-79 -155h-115z" />
    <glyph glyph-name="uni0219" unicode="&#x219;" horiz-adv-x="486" 
d="M239 -12q-49 0 -91.5 14.5t-73.5 41t-46 64.5l128 54q13 -26 36 -38.5t47 -12.5q25 0 39 8.5t14 23.5q0 16 -14.5 25t-41.5 16l-43 11q-70 18 -107.5 59.5t-37.5 96.5q0 77 53 119t147 42q53 0 93.5 -14t68 -39.5t39.5 -59.5l-124 -51q-7 20 -28.5 30.5t-47.5 10.5
q-22 0 -34 -9.5t-12 -25.5q0 -12 14.5 -20.5t42.5 -15.5l53 -13q47 -12 79 -36.5t48 -57t16 -69.5q0 -47 -27.5 -81.5t-76.5 -53.5t-113 -19zM134 -199l46 155h148l-79 -155h-115z" />
    <glyph glyph-name="uni021A" unicode="&#x21a;" horiz-adv-x="599" 
d="M220 0v552h-204v148h568v-148h-204v-552h-160zM189 -200l46 155h148l-79 -155h-115z" />
    <glyph glyph-name="uni021B" unicode="&#x21b;" horiz-adv-x="414" 
d="M266 -12q-89 0 -132.5 42.5t-43.5 121.5v504h156v-465q0 -30 11 -44t34 -14q9 0 21 4.5t22 11.5l54 -114q-24 -20 -57.5 -33.5t-64.5 -13.5zM12 369v131h348v-131h-348zM110 -200l46 155h148l-79 -155h-115z" />
    <glyph glyph-name="uni0237" unicode="&#x237;" horiz-adv-x="288" 
d="M49 -215q-65 0 -115 33l64 129q12 -7 24 -12t22 -5q38 0 38 52v518h156v-529q0 -88 -49 -137t-140 -49z" />
    <glyph glyph-name="circumflex" unicode="&#x2c6;" horiz-adv-x="425" 
d="M280 569l-143 132v11h152l126 -143h-135zM10 569l126 143h152v-11l-143 -132h-135z" />
    <glyph glyph-name="caron" unicode="&#x2c7;" horiz-adv-x="425" 
d="M137 558v4l134 138h136l-126 -142h-144zM128 558l-126 142h136l134 -138v-4h-144z" />
    <glyph glyph-name="breve" unicode="&#x2d8;" horiz-adv-x="389" 
d="M195 547q-56 0 -100.5 19.5t-69.5 54.5t-25 79h143q0 -20 14.5 -33.5t37.5 -13.5t37 13t14 34h143q0 -44 -25 -79t-68.5 -54.5t-100.5 -19.5z" />
    <glyph glyph-name="dotaccent" unicode="&#x2d9;" horiz-adv-x="176" 
d="M88 564q-35 0 -61.5 26.5t-26.5 61.5q0 37 26.5 62.5t61.5 25.5q36 0 62 -25.5t26 -62.5q0 -35 -26 -61.5t-62 -26.5z" />
    <glyph glyph-name="ring" unicode="&#x2da;" horiz-adv-x="535" 
d="M293 529q-34 0 -63.5 16t-47 43.5t-17.5 60.5q0 34 17.5 61.5t46.5 43.5t64 16t63.5 -16t46 -43.5t17.5 -61.5q0 -33 -17.5 -60.5t-46 -43.5t-63.5 -16zM293 615q33 0 33 34q0 35 -33 35q-34 0 -34 -35q0 -34 34 -34z" />
    <glyph glyph-name="ogonek" unicode="&#x2db;" horiz-adv-x="252" 
d="M170 -212q-40 0 -73.5 13t-53 39t-19.5 65q0 31 20 56.5t47 40.5l120 -2q-28 -19 -46 -41.5t-18 -43.5q0 -9 6 -15.5t17 -6.5q10 0 17.5 2.5t12.5 4.5l46 -95q-15 -9 -33.5 -13t-42.5 -4z" />
    <glyph glyph-name="tilde" unicode="&#x2dc;" horiz-adv-x="414" 
d="M277 542q-36 0 -56 11t-31 25t-21 25t-26 11q-9 0 -18 -7t-15 -32h-100q5 47 21 77t43 44t64 14q38 0 59 -11t33 -25t21.5 -25t24.5 -11t20.5 11t7.5 27h100q-8 -62 -38 -98t-89 -36z" />
    <glyph glyph-name="hungarumlaut" unicode="&#x2dd;" horiz-adv-x="493" 
d="M231 558l100 142h154l-119 -142h-135zM13 558l97 142h154l-118 -142h-133z" />
    <glyph glyph-name="gravecomb" unicode="&#x300;" horiz-adv-x="0" 
d="M191 558l-131 143h169l113 -143h-151z" />
    <glyph glyph-name="acutecomb" unicode="&#x301;" horiz-adv-x="0" 
d="M245 558l111 142h169l-129 -142h-151z" />
    <glyph glyph-name="uni0302" unicode="&#x302;" horiz-adv-x="0" 
d="M278 569l-143 132v11h152l126 -143h-135zM8 569l126 143h152v-11l-143 -132h-135z" />
    <glyph glyph-name="tildecomb" unicode="&#x303;" horiz-adv-x="0" 
d="M347 542q-36 0 -56 11t-31 25t-21 25t-26 11q-9 0 -18 -7t-15 -32h-100q5 47 21 77t43 44t64 14q38 0 59 -11t33 -25t21.5 -25t24.5 -11t20.5 11t7.5 27h100q-8 -62 -38 -98t-89 -36z" />
    <glyph glyph-name="uni0304" unicode="&#x304;" horiz-adv-x="0" 
d="M-16 555v132h332v-132h-332z" />
    <glyph glyph-name="uni0306" unicode="&#x306;" horiz-adv-x="0" 
d="M195 547q-56 0 -100.5 19.5t-69.5 54.5t-25 79h143q0 -20 14.5 -33.5t37.5 -13.5t37 13t14 34h143q0 -44 -25 -79t-68.5 -54.5t-100.5 -19.5z" />
    <glyph glyph-name="uni0307" unicode="&#x307;" horiz-adv-x="0" 
d="M88 564q-35 0 -61.5 26.5t-26.5 61.5q0 37 26.5 62.5t61.5 25.5q36 0 62 -25.5t26 -62.5q0 -35 -26 -61.5t-62 -26.5z" />
    <glyph glyph-name="uni0308" unicode="&#x308;" horiz-adv-x="0" 
d="M383 581q-31 0 -54.5 23.5t-23.5 55.5q0 31 23.5 54.5t54.5 23.5q32 0 55.5 -23.5t23.5 -54.5q0 -32 -23.5 -55.5t-55.5 -23.5zM119 581q-32 0 -55.5 23.5t-23.5 55.5t23.5 55t55.5 23t55 -23t23 -55t-23 -55.5t-55 -23.5z" />
    <glyph glyph-name="uni030A" unicode="&#x30a;" horiz-adv-x="0" 
d="M170 529q-34 0 -63.5 16t-47 43.5t-17.5 60.5q0 34 17.5 61.5t46.5 43.5t64 16q34 0 63 -16t46.5 -43.5t17.5 -61.5q0 -33 -17.5 -60.5t-46 -43.5t-63.5 -16zM170 615q33 0 33 34q0 35 -33 35q-34 0 -34 -35q0 -34 34 -34z" />
    <glyph glyph-name="uni030B" unicode="&#x30b;" horiz-adv-x="0" 
d="M221 558l100 142h154l-119 -142h-135zM3 558l97 142h154l-118 -142h-133z" />
    <glyph glyph-name="uni030C" unicode="&#x30c;" horiz-adv-x="0" 
d="M135 558v4l134 138h136l-126 -142h-144zM126 558l-126 142h136l134 -138v-4h-144z" />
    <glyph glyph-name="uni0312" unicode="&#x312;" horiz-adv-x="0" 
d="M222 713l-64 -145h-158l107 145h115z" />
    <glyph glyph-name="uni0326" unicode="&#x326;" horiz-adv-x="0" 
d="M23 -200l46 155h148l-79 -155h-115z" />
    <glyph glyph-name="uni0327" unicode="&#x327;" horiz-adv-x="0" 
d="M259 -210q-23 0 -48 7.5t-48 22.5l21 69q14 -7 27.5 -11t23.5 -4q17 0 28 5.5t11 17.5q0 16 -15.5 25t-44.5 10l30 74l87 -3l-15 -30q35 -12 53 -34.5t18 -48.5q0 -46 -33 -73t-95 -27z" />
    <glyph glyph-name="uni0328" unicode="&#x328;" horiz-adv-x="0" 
d="M170 -212q-40 0 -73.5 13t-53 39t-19.5 65q0 31 20 56.5t47 40.5l120 -2q-28 -19 -46 -41.5t-18 -43.5q0 -9 6 -15.5t17 -6.5q10 0 17.5 2.5t12.5 4.5l46 -95q-15 -9 -33.5 -13t-42.5 -4z" />
    <glyph glyph-name="Wgrave" unicode="&#x1e80;" horiz-adv-x="996" 
d="M631 0l194 700h164l-205 -700h-153zM212 0l-204 700h164l193 -700h-153zM234 0l184 700h144l-183 -700h-145zM616 0l-182 700h144l191 -700h-153zM456 728l-131 143h169l113 -143h-151z" />
    <glyph glyph-name="wgrave" unicode="&#x1e81;" horiz-adv-x="859" 
d="M526 0l164 500h159l-171 -500h-152zM197 0l156 500h133l-153 -500h-136zM180 0l-170 500h159l155 -500h-144zM525 0l-151 500h133l155 -500h-137zM389 558l-131 143h169l113 -143h-151z" />
    <glyph glyph-name="Wacute" unicode="&#x1e82;" horiz-adv-x="996" 
d="M631 0l194 700h164l-205 -700h-153zM212 0l-204 700h164l193 -700h-153zM234 0l184 700h144l-183 -700h-145zM616 0l-182 700h144l191 -700h-153zM406 728l111 142h169l-129 -142h-151z" />
    <glyph glyph-name="wacute" unicode="&#x1e83;" horiz-adv-x="859" 
d="M526 0l164 500h159l-171 -500h-152zM197 0l156 500h133l-153 -500h-136zM180 0l-170 500h159l155 -500h-144zM525 0l-151 500h133l155 -500h-137zM339 558l111 142h169l-129 -142h-151z" />
    <glyph glyph-name="Wdieresis" unicode="&#x1e84;" horiz-adv-x="996" 
d="M631 0l194 700h164l-205 -700h-153zM212 0l-204 700h164l193 -700h-153zM234 0l184 700h144l-183 -700h-145zM616 0l-182 700h144l191 -700h-153zM629 751q-31 0 -54.5 23.5t-23.5 55.5q0 31 23.5 54.5t54.5 23.5q32 0 55.5 -23.5t23.5 -54.5q0 -32 -23.5 -55.5
t-55.5 -23.5zM365 751q-32 0 -55.5 23.5t-23.5 55.5t23.5 55t55.5 23t55 -23t23 -55t-23 -55.5t-55 -23.5z" />
    <glyph glyph-name="wdieresis" unicode="&#x1e85;" horiz-adv-x="859" 
d="M526 0l164 500h159l-171 -500h-152zM197 0l156 500h133l-153 -500h-136zM180 0l-170 500h159l155 -500h-144zM525 0l-151 500h133l155 -500h-137zM562 581q-31 0 -54.5 23.5t-23.5 55.5q0 31 23.5 54.5t54.5 23.5q32 0 55.5 -23.5t23.5 -54.5q0 -32 -23.5 -55.5
t-55.5 -23.5zM298 581q-32 0 -55.5 23.5t-23.5 55.5t23.5 55t55.5 23t55 -23t23 -55t-23 -55.5t-55 -23.5z" />
    <glyph glyph-name="uni1E9E" unicode="&#x1e9e;" horiz-adv-x="659" 
d="M395 -12q-19 0 -51.5 5.5t-60.5 19.5l34 144q10 -5 26.5 -11t39.5 -6q37 0 62.5 22.5t25.5 61.5q0 35 -21.5 52t-76.5 17h-61v111l109 137q-23 12 -49.5 19.5t-60.5 7.5q-38 0 -58 -19.5t-20 -54.5v-494h-165v542q0 81 66.5 125.5t187.5 44.5q67 0 124.5 -20t103.5 -50.5
t77 -59.5l-142 -195q73 -18 108.5 -67t35.5 -122q0 -99 -60 -154.5t-174 -55.5z" />
    <glyph glyph-name="Ygrave" unicode="&#x1ef2;" horiz-adv-x="666" 
d="M408 288l-155 32l224 380h183zM253 0v336h161v-336h-161zM258 288l-252 412h183l224 -380zM292 728l-131 143h169l113 -143h-151z" />
    <glyph glyph-name="ygrave" unicode="&#x1ef3;" horiz-adv-x="599" 
d="M177 -212q-32 0 -67.5 12t-59.5 26l58 127q14 -10 27.5 -15t24.5 -5q19 0 34 9.5t24 30.5l59 139l147 388h173l-221 -530q-22 -54 -46 -95t-59.5 -64t-93.5 -23zM236 0l-234 500h173l157 -388l53 -112h-149zM258 558l-131 143h169l113 -143h-151z" />
    <glyph glyph-name="endash" unicode="&#x2013;" horiz-adv-x="550" 
d="M0 232v132h550v-132h-550z" />
    <glyph glyph-name="emdash" unicode="&#x2014;" horiz-adv-x="1100" 
d="M0 232v132h1100v-132h-1100z" />
    <glyph glyph-name="quoteleft" unicode="&#x2018;" horiz-adv-x="236" 
d="M226 700l-64 -248h-158l107 248h115z" />
    <glyph glyph-name="quoteright" unicode="&#x2019;" horiz-adv-x="236" 
d="M10 452l64 248h158l-106 -248h-116z" />
    <glyph glyph-name="quotesinglbase" unicode="&#x201a;" horiz-adv-x="268" 
d="M23 -114l64 248h158l-106 -248h-116z" />
    <glyph glyph-name="quotedblleft" unicode="&#x201c;" horiz-adv-x="454" 
d="M226 703l-64 -248h-158l107 248h115zM443 703l-63 -248h-159l107 248h115z" />
    <glyph glyph-name="quotedblright" unicode="&#x201d;" horiz-adv-x="454" 
d="M227 452l64 248h158l-106 -248h-116zM10 452l64 248h158l-106 -248h-116z" />
    <glyph glyph-name="quotedblbase" unicode="&#x201e;" horiz-adv-x="450" 
d="M221 -114l64 248h158l-106 -248h-116zM4 -114l64 248h158l-106 -248h-116z" />
    <glyph glyph-name="dagger" unicode="&#x2020;" horiz-adv-x="491" 
d="M166 0l37 438l-29 262h142l-29 -262l37 -438h-158zM30 366v144l215 -29l214 29v-144l-214 29z" />
    <glyph glyph-name="daggerdbl" unicode="&#x2021;" horiz-adv-x="491" 
d="M164 -200l37 262l-21 188l21 188l-29 262h142l-29 -262l21 -188l-21 -188l37 -262h-158zM33 -6v136l215 -25l214 25v-136l-214 25zM28 370v136l215 -25l214 25v-136l-214 25z" />
    <glyph glyph-name="bullet" unicode="&#x2022;" horiz-adv-x="459" 
d="M229 161q-35 0 -64 17t-46 45.5t-17 63.5t17 63t46 45t64 17q36 0 64.5 -17t46 -45t17.5 -63t-17.5 -63.5t-46 -45.5t-64.5 -17z" />
    <glyph glyph-name="ellipsis" unicode="&#x2026;" horiz-adv-x="754" 
d="M134 -15q-38 0 -65 27t-27 65q0 37 27 64t65 27q37 0 64 -27t27 -64q0 -38 -27 -65t-64 -27zM377 -15q-38 0 -65 27t-27 65q0 37 27 64t65 27q37 0 64 -27t27 -64q0 -38 -27 -65t-64 -27zM620 -15q-38 0 -65 27t-27 65q0 37 27 64t65 27q37 0 64 -27t27 -64
q0 -38 -27 -65t-64 -27z" />
    <glyph glyph-name="guilsinglleft" unicode="&#x2039;" horiz-adv-x="419" 
d="M46 298l145 202h176l-138 -202h-183zM191 96l-145 202h183l138 -202h-176z" />
    <glyph glyph-name="guilsinglright" unicode="&#x203a;" horiz-adv-x="419" 
d="M373 298h-183l-138 202h176zM228 96h-176l138 202h183z" />
    <glyph glyph-name="fraction" unicode="&#x2044;" horiz-adv-x="224" 
d="M-182 0l481 700h107l-481 -700h-107z" />
    <glyph glyph-name="uni2070" unicode="&#x2070;" horiz-adv-x="406" 
d="M204 373q-54 0 -95 27.5t-64.5 76.5t-23.5 113q0 65 23.5 113.5t64.5 76t94 27.5q54 0 94.5 -27.5t64 -76t23.5 -113.5q0 -64 -23.5 -113t-64 -76.5t-93.5 -27.5zM203 474q33 0 53 32.5t20 83.5q0 52 -20.5 85t-53.5 33q-29 0 -48 -33t-19 -85q0 -51 19.5 -83.5
t48.5 -32.5z" />
    <glyph glyph-name="uni2074" unicode="&#x2074;" horiz-adv-x="397" 
d="M92 495l-79 39l181 266l63 -61zM13 444v90l58 5h305v-95h-363zM209 380v363l-15 57h120v-420h-105z" />
    <glyph glyph-name="uni2075" unicode="&#x2075;" horiz-adv-x="366" 
d="M186 373q-33 0 -67 11.5t-59.5 34t-33.5 52.5l108 23q5 -13 17 -19t27 -6q21 0 34.5 13t13.5 34q0 20 -13 34.5t-35 14.5q-14 0 -24.5 -6t-16.5 -18l-100 22l30 237h250v-101h-230l-20 97h110l-42 -246l-48 13q5 12 21.5 32.5t46 36.5t72.5 14q47 0 81 -34.5t34 -88.5
q0 -66 -44 -108t-112 -42z" />
    <glyph glyph-name="uni2076" unicode="&#x2076;" horiz-adv-x="364" 
d="M185 373q-55 0 -91 25t-53 68t-17 97q0 43 8.5 86.5t29.5 79t56 57t87 21.5q35 0 67 -9.5t58 -27.5l-52 -82q-18 13 -38.5 17.5t-35.5 4.5q-33 0 -55 -31t-21 -102l-23 10q14 31 40.5 49t62.5 18q40 0 70 -20t47.5 -52.5t17.5 -72.5q0 -58 -42.5 -97t-115.5 -39zM186 465
q20 0 33.5 15t13.5 35q0 21 -13.5 36t-33.5 15q-21 0 -35 -15t-14 -36t14 -35.5t35 -14.5z" />
    <glyph glyph-name="uni2077" unicode="&#x2077;" horiz-adv-x="352" 
d="M68 380l140 321l123 21l-140 -342h-123zM21 698v102h310v-78l-122 -24h-188z" />
    <glyph glyph-name="uni2078" unicode="&#x2078;" horiz-adv-x="381" 
d="M190 373q-83 0 -124 32t-41 84q0 57 41 93t124 36t124.5 -36t41.5 -93q0 -52 -41.5 -84t-124.5 -32zM190 464q22 0 36.5 11.5t14.5 30.5q0 21 -14.5 34.5t-36.5 13.5t-36 -13.5t-14 -34.5q0 -19 14 -30.5t36 -11.5zM190 637q20 0 33 12t13 31q0 17 -13 29t-33 12
t-32.5 -12t-12.5 -29q0 -19 12.5 -31t32.5 -12zM190 582q-75 0 -114 31t-39 80q0 50 39 82t114 32t114 -32t39 -82q0 -49 -39.5 -80t-113.5 -31z" />
    <glyph glyph-name="uni2079" unicode="&#x2079;" horiz-adv-x="364" 
d="M160 372q-34 0 -67 9.5t-59 27.5l53 82q18 -12 39 -17t35 -5q32 0 53.5 30t22.5 104l22 -11q-13 -28 -39 -47.5t-63 -19.5q-40 0 -70.5 20t-48 53t-17.5 73q0 58 42.5 97t116.5 39q55 0 90.5 -25t53 -68.5t17.5 -97.5q0 -43 -9 -86t-29.5 -78.5t-55.5 -57.5t-87 -22z
M179 613q20 0 34.5 15.5t14.5 36.5t-14.5 35.5t-34.5 14.5t-34 -14.5t-14 -35.5t14 -36.5t34 -15.5z" />
    <glyph glyph-name="uni2080" unicode="&#x2080;" horiz-adv-x="406" 
d="M204 -106q-54 0 -95 27.5t-64.5 76.5t-23.5 113q0 65 23.5 113.5t64.5 76t94 27.5q54 0 94.5 -27.5t64 -76t23.5 -113.5q0 -64 -23.5 -113t-64 -76.5t-93.5 -27.5zM203 -5q33 0 53 32.5t20 83.5q0 52 -20.5 85t-53.5 33q-29 0 -48 -33t-19 -85q0 -51 19.5 -83.5
t48.5 -32.5z" />
    <glyph glyph-name="uni2081" unicode="&#x2081;" horiz-adv-x="280" 
d="M113 -100v361l12 59h93v-420h-105zM29 165v100q24 -2 48.5 15t47.5 41l71 -67q-42 -48 -82 -71t-85 -18z" />
    <glyph glyph-name="uni2082" unicode="&#x2082;" horiz-adv-x="369" 
d="M140 -39l-109 17q0 16 13.5 37.5t36.5 44.5t51 42l41 27q17 11 34.5 27t17.5 33q0 16 -11.5 26.5t-36.5 10.5q-18 0 -30.5 -11.5t-16.5 -27.5l-115 18q6 33 27 60.5t55.5 45t79.5 17.5q76 0 119 -38.5t43 -99.5q0 -46 -25 -76t-63 -55l-43 -29q-14 -9 -28.5 -22.5
t-25.5 -26.5t-14 -20zM31 -100v78l82 20h230v-98h-312z" />
    <glyph glyph-name="uni2083" unicode="&#x2083;" horiz-adv-x="355" 
d="M184 -106q-64 0 -109.5 29.5t-53.5 86.5l107 21q4 -12 13 -27t36 -15q19 0 30.5 10.5t11.5 29.5q0 8 -3.5 17.5t-16 15.5t-40.5 6h-38v70h33q46 0 86 -15.5t65.5 -43.5t25.5 -66q0 -39 -21.5 -65t-55 -40t-70.5 -14zM121 93v64h38q32 0 43.5 11t11.5 30q0 15 -10.5 25
t-26.5 10q-15 0 -29 -9t-18 -34l-106 21q5 39 29 65t57.5 39t68.5 13q40 0 73 -15t53 -41t20 -62q0 -41 -26 -67t-65.5 -38t-79.5 -12h-33z" />
    <glyph glyph-name="uni2084" unicode="&#x2084;" horiz-adv-x="397" 
d="M92 15l-79 39l181 266l63 -61zM13 -36v90l58 5h305v-95h-363zM209 -100v363l-15 57h120v-420h-105z" />
    <glyph glyph-name="uni2085" unicode="&#x2085;" horiz-adv-x="366" 
d="M186 -107q-33 0 -67 11.5t-59.5 34t-33.5 52.5l108 23q5 -13 17 -19t27 -6q21 0 34.5 13t13.5 34q0 20 -13 34.5t-35 14.5q-14 0 -24.5 -6t-16.5 -18l-100 22l30 237h250v-101h-230l-20 97h110l-42 -246l-48 13q5 12 21.5 32.5t46 36.5t72.5 14q47 0 81 -34.5t34 -88.5
q0 -66 -44 -108t-112 -42z" />
    <glyph glyph-name="uni2086" unicode="&#x2086;" horiz-adv-x="364" 
d="M185 -107q-55 0 -91 25t-53 68t-17 97q0 43 8.5 86.5t29.5 79t56 57t87 21.5q35 0 67 -9.5t58 -27.5l-52 -82q-18 13 -38.5 17.5t-35.5 4.5q-33 0 -55 -31t-21 -102l-23 10q14 31 40.5 49t62.5 18q40 0 70 -20t47.5 -52.5t17.5 -72.5q0 -58 -42.5 -97t-115.5 -39z
M186 -15q20 0 33.5 15t13.5 35q0 21 -13.5 36t-33.5 15q-21 0 -35 -15t-14 -36t14 -35.5t35 -14.5z" />
    <glyph glyph-name="uni2087" unicode="&#x2087;" horiz-adv-x="352" 
d="M68 -100l140 321l123 21l-140 -342h-123zM21 218v102h310v-78l-122 -24h-188z" />
    <glyph glyph-name="uni2088" unicode="&#x2088;" horiz-adv-x="381" 
d="M190 -107q-83 0 -124 32t-41 84q0 57 41 93t124 36t124.5 -36t41.5 -93q0 -52 -41.5 -84t-124.5 -32zM190 -16q22 0 36.5 11.5t14.5 30.5q0 21 -14.5 34.5t-36.5 13.5t-36 -13.5t-14 -34.5q0 -19 14 -30.5t36 -11.5zM190 157q20 0 33 12t13 31q0 17 -13 29t-33 12
t-32.5 -12t-12.5 -29q0 -19 12.5 -31t32.5 -12zM190 102q-75 0 -114 31t-39 80q0 50 39 82t114 32t114 -32t39 -82q0 -49 -39.5 -80t-113.5 -31z" />
    <glyph glyph-name="uni2089" unicode="&#x2089;" horiz-adv-x="364" 
d="M160 -108q-34 0 -67 9.5t-59 27.5l53 82q18 -12 39 -17t35 -5q32 0 53.5 30t22.5 104l22 -11q-13 -28 -39 -47.5t-63 -19.5q-40 0 -70.5 20t-48 53t-17.5 73q0 58 42.5 97t116.5 39q55 0 90.5 -25t53 -68.5t17.5 -97.5q0 -43 -9 -86t-29.5 -78.5t-55.5 -57.5t-87 -22z
M179 133q20 0 34.5 15.5t14.5 36.5t-14.5 35.5t-34.5 14.5t-34 -14.5t-14 -35.5t14 -36.5t34 -15.5z" />
    <glyph glyph-name="Euro" unicode="&#x20ac;" horiz-adv-x="710" 
d="M406 -12q-94 0 -167 46.5t-114 128t-41 187.5t41 187.5t113.5 128t167.5 46.5q67 0 122.5 -25.5t96.5 -71.5t63 -107l-142 -51q-13 33 -34 57t-47.5 37t-58.5 13q-46 0 -81.5 -27t-55.5 -75.5t-20 -111.5t20.5 -111.5t56.5 -75.5t82 -27q34 0 60.5 14t45.5 38.5t33 57.5
l143 -51q-22 -61 -63 -108t-97 -73t-124 -26zM12 255v76h466v-76h-466zM12 369v76h466v-76h-466z" />
    <glyph glyph-name="trademark" unicode="&#x2122;" horiz-adv-x="889" 
d="M629 364l-114 164v-248h-111v420h123l102 -150l101 150h123v-420h-111v249zM129 280v318h-119v102h348v-102h-118v-318h-111z" />
    <glyph glyph-name="oneeighth" unicode="&#x215b;" horiz-adv-x="884" 
d="M113 280v361l12 59h93v-420h-105zM29 545v100q24 -2 48.5 15t47.5 41l71 -67q-42 -48 -82 -71t-85 -18zM98 0l481 700h107l-481 -700h-107zM694 -7q-83 0 -124 32t-41 84q0 57 41 93t124 36t124.5 -36t41.5 -93q0 -52 -41.5 -84t-124.5 -32zM694 84q22 0 36.5 11.5
t14.5 30.5q0 21 -14.5 34.5t-36.5 13.5t-36 -13.5t-14 -34.5q0 -19 14 -30.5t36 -11.5zM694 257q20 0 33 12t13 31q0 17 -13 29t-33 12t-32.5 -12t-12.5 -29q0 -19 12.5 -31t32.5 -12zM694 202q-75 0 -114 31t-39 80q0 50 39 82t114 32t114 -32t39 -82q0 -49 -39.5 -80
t-113.5 -31z" />
    <glyph glyph-name="threeeighths" unicode="&#x215c;" horiz-adv-x="960" 
d="M184 273q-64 0 -109.5 29.5t-53.5 86.5l107 21q4 -12 13 -27t36 -15q19 0 30.5 10.5t11.5 29.5q0 8 -3.5 17.5t-16 15.5t-40.5 6h-38v70h33q46 0 86 -15.5t65.5 -43.5t25.5 -66q0 -39 -21.5 -65t-55 -40t-70.5 -14zM121 472v64h38q32 0 43.5 11t11.5 30q0 15 -10.5 25
t-26.5 10q-15 0 -29 -9t-18 -34l-106 21q5 39 29 65t57.5 39t68.5 13q40 0 73 -15t53 -41t20 -62q0 -41 -26 -67t-65.5 -38t-79.5 -12h-33zM173 0l481 700h107l-481 -700h-107zM769 -7q-83 0 -124 32t-41 84q0 57 41 93t124 36t124.5 -36t41.5 -93q0 -52 -41.5 -84
t-124.5 -32zM769 84q22 0 36.5 11.5t14.5 30.5q0 21 -14.5 34.5t-36.5 13.5t-36 -13.5t-14 -34.5q0 -19 14 -30.5t36 -11.5zM769 257q20 0 33 12t13 31q0 17 -13 29t-33 12t-32.5 -12t-12.5 -29q0 -19 12.5 -31t32.5 -12zM769 202q-75 0 -114 31t-39 80q0 50 39 82t114 32
t114 -32t39 -82q0 -49 -39.5 -80t-113.5 -31z" />
    <glyph glyph-name="fiveeighths" unicode="&#x215d;" horiz-adv-x="971" 
d="M186 273q-33 0 -67 11.5t-59.5 34t-33.5 52.5l108 23q5 -13 17 -19t27 -6q21 0 34.5 13t13.5 34q0 20 -13 34.5t-35 14.5q-14 0 -24.5 -6t-16.5 -18l-100 22l30 237h250v-101h-230l-20 97h110l-42 -246l-48 13q5 12 21.5 32.5t46 36.5t72.5 14q47 0 81 -34.5t34 -88.5
q0 -66 -44 -108t-112 -42zM184 0l481 700h107l-481 -700h-107zM780 -7q-83 0 -124 32t-41 84q0 57 41 93t124 36t124.5 -36t41.5 -93q0 -52 -41.5 -84t-124.5 -32zM780 84q22 0 36.5 11.5t14.5 30.5q0 21 -14.5 34.5t-36.5 13.5t-36 -13.5t-14 -34.5q0 -19 14 -30.5
t36 -11.5zM780 257q20 0 33 12t13 31q0 17 -13 29t-33 12t-32.5 -12t-12.5 -29q0 -19 12.5 -31t32.5 -12zM780 202q-75 0 -114 31t-39 80q0 50 39 82t114 32t114 -32t39 -82q0 -49 -39.5 -80t-113.5 -31z" />
    <glyph glyph-name="seveneighths" unicode="&#x215e;" horiz-adv-x="933" 
d="M68 280l140 321l123 21l-140 -342h-123zM21 598v102h310v-78l-122 -24h-188zM146 0l481 700h107l-481 -700h-107zM742 -7q-83 0 -124 32t-41 84q0 57 41 93t124 36t124.5 -36t41.5 -93q0 -52 -41.5 -84t-124.5 -32zM742 84q22 0 36.5 11.5t14.5 30.5q0 21 -14.5 34.5
t-36.5 13.5t-36 -13.5t-14 -34.5q0 -19 14 -30.5t36 -11.5zM742 257q20 0 33 12t13 31q0 17 -13 29t-33 12t-32.5 -12t-12.5 -29q0 -19 12.5 -31t32.5 -12zM742 202q-75 0 -114 31t-39 80q0 50 39 82t114 32t114 -32t39 -82q0 -49 -39.5 -80t-113.5 -31z" />
    <glyph glyph-name="arrowleft" unicode="&#x2190;" horiz-adv-x="754" 
d="M177 228l-121 69l277 287l93 -94zM692 232h-550v132h550v-132zM338 15l-282 282l120 73l253 -260z" />
    <glyph glyph-name="arrowup" unicode="&#x2191;" horiz-adv-x="749" 
d="M446 591l-262 -249l-94 93l287 277zM442 0h-132v626h132v-626zM659 430l-95 -91l-260 253l73 120z" />
    <glyph glyph-name="arrowright" unicode="&#x2192;" horiz-adv-x="754" 
d="M578 227l-250 263l94 94l276 -287zM62 232v132h550v-132h-550zM417 15l-92 95l253 260l120 -73z" />
    <glyph glyph-name="arrowdown" unicode="&#x2193;" horiz-adv-x="749" 
d="M446 109l-69 -121l-287 277l94 93zM442 700v-626h-132v626h132zM659 270l-282 -282l-73 120l260 253z" />
    <glyph glyph-name="uni2196" unicode="&#x2196;" horiz-adv-x="648" 
d="M580 300l-93 -93l-403 404l92 92zM197 319h-129v399l127 -35zM467 590l-364 1l-35 127h399v-128z" />
    <glyph glyph-name="uni2197" unicode="&#x2197;" horiz-adv-x="647" 
d="M161 188l-93 93l403 403l93 -92zM180 571v129h399l-35 -127zM450 301l2 364l127 35v-399h-129z" />
    <glyph glyph-name="uni2198" unicode="&#x2198;" horiz-adv-x="648" 
d="M68 402l93 93l403 -403l-93 -93zM451 383h129v-399l-127 35zM181 113l364 -2l35 -127h-399v129z" />
    <glyph glyph-name="uni2199" unicode="&#x2199;" horiz-adv-x="647" 
d="M486 512l93 -93l-403 -403l-93 92zM467 129v-129h-399l35 127zM197 399l-2 -364l-127 -35v399h129z" />
    <glyph glyph-name="minus" unicode="&#x2212;" 
d="M124 235v126h388v-126h-388z" />
    <glyph glyph-name="uni2215" unicode="&#x2215;" 
d="M29 0l482 700h96l-482 -700h-96z" />
    <glyph glyph-name="notequal" unicode="&#x2260;" 
d="M129 73l260 512h118l-260 -512h-118zM118 369v122h400v-122h-400zM118 169v122h400v-122h-400z" />
    <glyph glyph-name="lessequal" unicode="&#x2264;" 
d="M510 0h-387v106h387v-106zM510 136l-387 153v111l387 -139v-125zM123 293v110l387 152v-126z" />
    <glyph glyph-name="greaterequal" unicode="&#x2265;" 
d="M126 0v106h387v-106h-387zM126 136v125l387 139v-111zM513 293l-387 136v126l387 -152v-110z" />
    <glyph glyph-name="uni004A0301" horiz-adv-x="570" 
d="M247 -15q-58 0 -101.5 19t-73 49.5t-45 64t-18.5 62.5l140 47q13 -46 38 -70t62 -24q28 0 51 12.5t37 39t14 67.5v448h161v-490q0 -51 -19 -92.5t-54 -71t-84 -45.5t-108 -16zM336 728l111 142h169l-129 -142h-151z" />
    <glyph glyph-name="I.ss02" horiz-adv-x="445" 
d="M34 0v148h108v404h-108v148h377v-148h-108v-404h108v-148h-377z" />
    <glyph glyph-name="IJ.ss02" horiz-adv-x="1014" 
d="M34 0v148h108v404h-108v148h377v-148h-108v-404h108v-148h-377zM692 -15q-58 0 -101.5 19t-73 49.5t-45 64t-18.5 62.5l140 47q13 -46 38 -70t62 -24q28 0 51 12.5t37 39t14 67.5v448h161v-490q0 -51 -19 -92.5t-54 -71t-84 -45.5t-108 -16z" />
    <glyph glyph-name="Iacute.ss02" horiz-adv-x="445" 
d="M34 0v148h108v404h-108v148h377v-148h-108v-404h108v-148h-377zM133 749l112 135h169l-130 -135h-151z" />
    <glyph glyph-name="Icircumflex.ss02" horiz-adv-x="445" 
d="M34 0v148h108v404h-108v148h377v-148h-108v-404h108v-148h-377zM287 763l-143 132v11h152l126 -143h-135zM17 763l126 143h152v-11l-143 -132h-135z" />
    <glyph glyph-name="Idieresis.ss02" horiz-adv-x="445" 
d="M325 775q-32 0 -55.5 23.5t-23.5 55.5q0 31 23.5 54.5t55.5 23.5q31 0 54.5 -23.5t23.5 -54.5q0 -32 -23.5 -55.5t-54.5 -23.5zM140 775q-32 0 -55 23.5t-23 55.5t23 55t55 23q33 0 56 -23t23 -55t-23 -55.5t-56 -23.5zM34 0v148h108v404h-108v148h377v-148h-108v-404
h108v-148h-377z" />
    <glyph glyph-name="Idotaccent.ss02" horiz-adv-x="445" 
d="M34 0v148h108v404h-108v148h377v-148h-108v-404h108v-148h-377zM224 758q-35 0 -61.5 26.5t-26.5 61.5q0 37 26.5 62.5t61.5 25.5q36 0 62 -25.5t26 -62.5q0 -35 -26 -61.5t-62 -26.5z" />
    <glyph glyph-name="Igrave.ss02" horiz-adv-x="445" 
d="M34 0v148h108v404h-108v148h377v-148h-108v-404h108v-148h-377zM183 752l-131 143h169l113 -143h-151z" />
    <glyph glyph-name="Imacron.ss02" horiz-adv-x="445" 
d="M34 0v148h108v404h-108v148h377v-148h-108v-404h108v-148h-377zM58 749v132h332v-132h-332z" />
    <glyph glyph-name="Iogonek.ss02" horiz-adv-x="445" 
d="M34 0v148h108v404h-108v148h377v-148h-108v-404h108v-148h-377zM262 -212q-40 0 -73.5 13t-53 39t-19.5 65q0 31 20 56.5t47 40.5l120 -2q-28 -19 -46 -41.5t-18 -43.5q0 -9 6 -15.5t17 -6.5q10 0 17.5 2.5t12.5 4.5l46 -95q-15 -9 -33.5 -13t-42.5 -4z" />
    <glyph glyph-name="i.loclTRK" horiz-adv-x="276" 
d="M60 0v500h156v-500h-156zM138 564q-35 0 -61.5 26.5t-26.5 61.5q0 37 26.5 62.5t61.5 25.5q36 0 62 -25.5t26 -62.5q0 -35 -26 -61.5t-62 -26.5z" />
    <glyph glyph-name="uni006A0301" horiz-adv-x="288" 
d="M49 -215q-65 0 -115 33l64 129q12 -7 24 -12t22 -5q38 0 38 52v518h156v-529q0 -88 -49 -137t-140 -49zM69 558l111 142h169l-129 -142h-151z" />
    <glyph glyph-name="a.ss01" horiz-adv-x="600" 
d="M400 0l-7 93v407h156v-500h-149zM251 -12q-70 0 -120.5 31.5t-78 90.5t-27.5 140q0 82 27.5 140.5t78 90t120.5 31.5q62 0 104.5 -31.5t63.5 -90t21 -140.5q0 -81 -21 -140t-63.5 -90.5t-104.5 -31.5zM292 132q29 0 52 15t36 41.5t13 61.5t-13 61.5t-36 41.5t-53 15
t-53 -15t-36.5 -41.5t-14.5 -61.5q1 -35 14.5 -61.5t37 -41.5t53.5 -15z" />
    <glyph glyph-name="aacute.ss01" horiz-adv-x="600" 
d="M400 0l-7 93v407h156v-500h-149zM251 -12q-70 0 -120.5 31.5t-78 90.5t-27.5 140q0 82 27.5 140.5t78 90t120.5 31.5q62 0 104.5 -31.5t63.5 -90t21 -140.5q0 -81 -21 -140t-63.5 -90.5t-104.5 -31.5zM292 132q29 0 52 15t36 41.5t13 61.5t-13 61.5t-36 41.5t-53 15
t-53 -15t-36.5 -41.5t-14.5 -61.5q1 -35 14.5 -61.5t37 -41.5t53.5 -15zM196 558l111 142h169l-129 -142h-151z" />
    <glyph glyph-name="abreve.ss01" horiz-adv-x="600" 
d="M400 0l-7 93v407h156v-500h-149zM251 -12q-70 0 -120.5 31.5t-78 90.5t-27.5 140q0 82 27.5 140.5t78 90t120.5 31.5q62 0 104.5 -31.5t63.5 -90t21 -140.5q0 -81 -21 -140t-63.5 -90.5t-104.5 -31.5zM292 132q29 0 52 15t36 41.5t13 61.5t-13 61.5t-36 41.5t-53 15
t-53 -15t-36.5 -41.5t-14.5 -61.5q1 -35 14.5 -61.5t37 -41.5t53.5 -15zM288 547q-56 0 -100.5 19.5t-69.5 54.5t-25 79h143q0 -20 14.5 -33.5t37.5 -13.5t37 13t14 34h143q0 -44 -25 -79t-68.5 -54.5t-100.5 -19.5z" />
    <glyph glyph-name="uni01CE.ss01" horiz-adv-x="600" 
d="M400 0l-7 93v407h156v-500h-149zM251 -12q-70 0 -120.5 31.5t-78 90.5t-27.5 140q0 82 27.5 140.5t78 90t120.5 31.5q62 0 104.5 -31.5t63.5 -90t21 -140.5q0 -81 -21 -140t-63.5 -90.5t-104.5 -31.5zM292 132q29 0 52 15t36 41.5t13 61.5t-13 61.5t-36 41.5t-53 15
t-53 -15t-36.5 -41.5t-14.5 -61.5q1 -35 14.5 -61.5t37 -41.5t53.5 -15zM215 558v4l134 138h136l-126 -142h-144zM206 558l-126 142h136l134 -138v-4h-144z" />
    <glyph glyph-name="acircumflex.ss01" horiz-adv-x="600" 
d="M400 0l-7 93v407h156v-500h-149zM251 -12q-70 0 -120.5 31.5t-78 90.5t-27.5 140q0 82 27.5 140.5t78 90t120.5 31.5q62 0 104.5 -31.5t63.5 -90t21 -140.5q0 -81 -21 -140t-63.5 -90.5t-104.5 -31.5zM292 132q29 0 52 15t36 41.5t13 61.5t-13 61.5t-36 41.5t-53 15
t-53 -15t-36.5 -41.5t-14.5 -61.5q1 -35 14.5 -61.5t37 -41.5t53.5 -15zM350 569l-143 132v11h152l126 -143h-135zM80 569l126 143h152v-11l-143 -132h-135z" />
    <glyph glyph-name="adieresis.ss01" horiz-adv-x="600" 
d="M400 0l-7 93v407h156v-500h-149zM251 -12q-70 0 -120.5 31.5t-78 90.5t-27.5 140q0 82 27.5 140.5t78 90t120.5 31.5q62 0 104.5 -31.5t63.5 -90t21 -140.5q0 -81 -21 -140t-63.5 -90.5t-104.5 -31.5zM292 132q29 0 52 15t36 41.5t13 61.5t-13 61.5t-36 41.5t-53 15
t-53 -15t-36.5 -41.5t-14.5 -61.5q1 -35 14.5 -61.5t37 -41.5t53.5 -15zM419 581q-31 0 -54.5 23.5t-23.5 55.5q0 31 23.5 54.5t54.5 23.5q32 0 55.5 -23.5t23.5 -54.5q0 -32 -23.5 -55.5t-55.5 -23.5zM155 581q-32 0 -55.5 23.5t-23.5 55.5t23.5 55t55.5 23t55 -23t23 -55
t-23 -55.5t-55 -23.5z" />
    <glyph glyph-name="agrave.ss01" horiz-adv-x="600" 
d="M400 0l-7 93v407h156v-500h-149zM251 -12q-70 0 -120.5 31.5t-78 90.5t-27.5 140q0 82 27.5 140.5t78 90t120.5 31.5q62 0 104.5 -31.5t63.5 -90t21 -140.5q0 -81 -21 -140t-63.5 -90.5t-104.5 -31.5zM292 132q29 0 52 15t36 41.5t13 61.5t-13 61.5t-36 41.5t-53 15
t-53 -15t-36.5 -41.5t-14.5 -61.5q1 -35 14.5 -61.5t37 -41.5t53.5 -15zM246 558l-131 143h169l113 -143h-151z" />
    <glyph glyph-name="amacron.ss01" horiz-adv-x="600" 
d="M400 0l-7 93v407h156v-500h-149zM251 -12q-70 0 -120.5 31.5t-78 90.5t-27.5 140q0 82 27.5 140.5t78 90t120.5 31.5q62 0 104.5 -31.5t63.5 -90t21 -140.5q0 -81 -21 -140t-63.5 -90.5t-104.5 -31.5zM292 132q29 0 52 15t36 41.5t13 61.5t-13 61.5t-36 41.5t-53 15
t-53 -15t-36.5 -41.5t-14.5 -61.5q1 -35 14.5 -61.5t37 -41.5t53.5 -15zM121 555v132h332v-132h-332z" />
    <glyph glyph-name="aogonek.ss01" horiz-adv-x="600" 
d="M400 0l-7 93v407h156v-500h-149zM251 -12q-70 0 -120.5 31.5t-78 90.5t-27.5 140q0 82 27.5 140.5t78 90t120.5 31.5q62 0 104.5 -31.5t63.5 -90t21 -140.5q0 -81 -21 -140t-63.5 -90.5t-104.5 -31.5zM292 132q29 0 52 15t36 41.5t13 61.5t-13 61.5t-36 41.5t-53 15
t-53 -15t-36.5 -41.5t-14.5 -61.5q1 -35 14.5 -61.5t37 -41.5t53.5 -15zM507 -212q-40 0 -73.5 13t-53 39t-19.5 65q0 31 20 56.5t47 40.5l120 -2q-28 -19 -46 -41.5t-18 -43.5q0 -9 6 -15.5t17 -6.5q10 0 17.5 2.5t12.5 4.5l46 -95q-15 -9 -33.5 -13t-42.5 -4z" />
    <glyph glyph-name="aring.ss01" horiz-adv-x="600" 
d="M400 0l-7 93v407h156v-500h-149zM251 -12q-70 0 -120.5 31.5t-78 90.5t-27.5 140q0 82 27.5 140.5t78 90t120.5 31.5q62 0 104.5 -31.5t63.5 -90t21 -140.5q0 -81 -21 -140t-63.5 -90.5t-104.5 -31.5zM292 132q29 0 52 15t36 41.5t13 61.5t-13 61.5t-36 41.5t-53 15
t-53 -15t-36.5 -41.5t-14.5 -61.5q1 -35 14.5 -61.5t37 -41.5t53.5 -15zM287 529q-34 0 -63.5 16t-47 43.5t-17.5 60.5q0 34 17.5 61.5t46.5 43.5t64 16q34 0 63 -16t46.5 -43.5t17.5 -61.5q0 -33 -17.5 -60.5t-46 -43.5t-63.5 -16zM287 615q33 0 33 34q0 35 -33 35
q-34 0 -34 -35q0 -34 34 -34z" />
    <glyph glyph-name="atilde.ss01" horiz-adv-x="600" 
d="M400 0l-7 93v407h156v-500h-149zM251 -12q-70 0 -120.5 31.5t-78 90.5t-27.5 140q0 82 27.5 140.5t78 90t120.5 31.5q62 0 104.5 -31.5t63.5 -90t21 -140.5q0 -81 -21 -140t-63.5 -90.5t-104.5 -31.5zM292 132q29 0 52 15t36 41.5t13 61.5t-13 61.5t-36 41.5t-53 15
t-53 -15t-36.5 -41.5t-14.5 -61.5q1 -35 14.5 -61.5t37 -41.5t53.5 -15zM368 542q-36 0 -56 11t-31 25t-21 25t-26 11q-9 0 -18 -7t-15 -32h-100q5 47 21 77t43 44t64 14q38 0 59 -11t33 -25t21.5 -25t24.5 -11t20.5 11t7.5 27h100q-8 -62 -38 -98t-89 -36z" />
    <glyph glyph-name="l.ss02" horiz-adv-x="325" 
d="M216 -12q-83 0 -124 42.5t-41 121.5v548h156v-509q0 -28 9 -41t27 -13q6 0 15 3.5t17 8.5l54 -114q-22 -20 -53 -33.5t-60 -13.5z" />
    <glyph glyph-name="lacute.ss02" horiz-adv-x="325" 
d="M216 -12q-83 0 -124 42.5t-41 121.5v548h156v-509q0 -28 9 -41t27 -13q6 0 15 3.5t17 8.5l54 -114q-22 -20 -53 -33.5t-60 -13.5zM38 752l111 142h169l-129 -142h-151z" />
    <glyph glyph-name="lcaron.ss02" horiz-adv-x="325" 
d="M216 -12q-83 0 -124 42.5t-41 121.5v548h156v-509q0 -28 9 -41t27 -13q6 0 15 3.5t17 8.5l54 -114q-22 -20 -53 -33.5t-60 -13.5zM226 547l29 153h134l-48 -153h-115z" />
    <glyph glyph-name="uni013C.ss02" horiz-adv-x="325" 
d="M216 -12q-83 0 -124 42.5t-41 121.5v548h156v-509q0 -28 9 -41t27 -13q6 0 15 3.5t17 8.5l54 -114q-22 -20 -53 -33.5t-60 -13.5zM38 -200l46 155h148l-79 -155h-115z" />
    <glyph glyph-name="lslash.ss02" horiz-adv-x="344" 
d="M4 217v122l280 146v-122zM230 -12q-82 0 -123 42.5t-41 121.5v548h156v-509q0 -28 8.5 -41t27.5 -13q6 0 15 3.5t17 8.5l54 -114q-23 -20 -53.5 -33.5t-60.5 -13.5z" />
    <glyph glyph-name="zero.ss02" horiz-adv-x="652" 
d="M325 -12q-86 0 -153 46.5t-104.5 128t-37.5 187.5t37.5 187.5t104 128t152.5 46.5q87 0 154 -46.5t105.5 -128t38.5 -187.5t-38 -187.5t-105 -128t-154 -46.5zM326 134q40 0 71.5 28t49.5 76.5t18 111.5q0 64 -18 113t-50 77t-73 28q-40 0 -71 -28t-48.5 -77t-17.5 -113
q0 -63 17.5 -112t49 -76.5t72.5 -27.5zM89 155l342 397l129 -9l-340 -395z" />
    <glyph glyph-name="zero.tf" 
d="M317 -12q-86 0 -153 46.5t-104.5 128t-37.5 187.5t37.5 187.5t104 128t152.5 46.5q87 0 154 -46.5t105.5 -128t38.5 -187.5t-38 -187.5t-105 -128t-154 -46.5zM318 134q40 0 71.5 28t49.5 76.5t18 111.5q0 64 -18 113t-50 77t-73 28q-40 0 -71 -28t-48.5 -77t-17.5 -113
q0 -63 17.5 -112t49 -76.5t72.5 -27.5z" />
    <glyph glyph-name="one.tf" 
d="M135 0v141h440v-141h-440zM279 0v614l16 86h137v-700h-153zM135 460v146q27 -2 55.5 12t56 37.5t48.5 46.5l102 -99q-37 -42 -79 -76.5t-87 -53t-96 -13.5z" />
    <glyph glyph-name="two.tf" 
d="M77 0v116q0 27 20 62.5t55.5 72.5t80.5 68l88 60q20 13 40 30.5t33 38t13 41.5q0 22 -10.5 39.5t-31 27t-53.5 9.5q-25 0 -44.5 -10.5t-32 -28t-18.5 -38.5l-166 28q10 52 43.5 97t89 72.5t127.5 27.5q82 0 140 -28.5t89.5 -78.5t31.5 -116q0 -70 -38.5 -121t-101.5 -94
l-77 -53q-24 -16 -44 -36t-35 -45h304v-141h-503z" />
    <glyph glyph-name="three.tf" 
d="M322 -12q-66 0 -120.5 20t-90 58.5t-46.5 94.5l152 37q6 -12 15.5 -29t28.5 -29.5t51 -12.5q42 0 66 22.5t24 59.5q0 22 -10.5 41.5t-38 31t-77.5 11.5h-52v104h46q59 0 111.5 -14.5t93.5 -42.5t64.5 -66t23.5 -86q0 -64 -34 -109t-89 -68t-118 -23zM224 326v97h52
q63 0 89 21t26 57q0 21 -10 37t-28 25.5t-41 9.5q-17 0 -35 -6t-33 -21t-23 -43l-150 36q11 57 48.5 95.5t89.5 58t107 19.5q66 0 119.5 -24.5t85 -68t31.5 -101.5q0 -50 -24.5 -86t-65 -59.5t-90.5 -35t-102 -11.5h-46z" />
    <glyph glyph-name="four.tf" 
d="M134 192l-114 60l302 448l92 -90zM20 123v129l86 8h497v-137h-583zM342 0v615l-19 85h169v-700h-150z" />
    <glyph glyph-name="five.tf" 
d="M321 -12q-52 0 -105 18t-94.5 52t-58.5 84l152 36q15 -26 40.5 -38.5t54.5 -12.5q44 0 71.5 26.5t27.5 71.5q0 41 -26.5 69.5t-72.5 28.5q-28 0 -49.5 -13t-31.5 -31l-145 32l46 389h406v-146h-270l-20 -143q26 15 59 23.5t72 8.5q54 -1 99.5 -28t72.5 -73.5t27 -107.5
q0 -73 -33 -128.5t-90 -86.5t-132 -31z" />
    <glyph glyph-name="six.tf" 
d="M323 -12q-70 0 -120 25t-82 69t-47.5 102.5t-15.5 126.5q0 76 15.5 148t50 129t91 90.5t137.5 33.5q57 0 110 -16t96 -46l-78 -118q-31 21 -66 30.5t-62 9.5q-66 0 -106 -60.5t-39 -193.5l-32 19q23 52 69 84t109 32q67 0 118 -32t80 -86t29 -121q0 -65 -31.5 -116
t-89 -80.5t-136.5 -29.5zM324 123q27 0 49 13t34.5 35.5t12.5 50.5q0 29 -12.5 52t-34.5 36.5t-49 13.5q-28 0 -50.5 -13.5t-35.5 -36.5t-13 -52q0 -28 13 -50.5t35.5 -35.5t50.5 -13z" />
    <glyph glyph-name="seven.tf" 
d="M135 0l260 558l175 26l-257 -584h-178zM65 552v148h505v-116l-172 -32h-333z" />
    <glyph glyph-name="eight.tf" 
d="M317 -12q-88 0 -148 24.5t-90.5 68t-30.5 101.5q0 63 30.5 110.5t90.5 74.5t148 27q89 0 148.5 -27t90.5 -74.5t31 -110.5q0 -58 -31 -101.5t-90.5 -68t-148.5 -24.5zM317 121q46 0 75.5 23.5t29.5 59.5q0 42 -29.5 67.5t-75.5 25.5q-30 0 -53.5 -11.5t-37 -32.5
t-13.5 -49q0 -24 13.5 -42.5t37 -29.5t53.5 -11zM317 337q-80 0 -135 23.5t-84 65t-29 96.5q0 56 29 99t84 67t135 24q79 0 134.5 -24t85 -67t29.5 -99q0 -55 -29.5 -96.5t-85 -65t-134.5 -23.5zM317 420q40 0 66 23.5t26 59.5t-26 58.5t-66 22.5t-65.5 -22.5t-25.5 -58.5
t25.5 -59.5t65.5 -23.5z" />
    <glyph glyph-name="nine.tf" 
d="M313 711q70 0 120 -24.5t82 -68.5t47.5 -102.5t15.5 -127.5q0 -76 -16 -147.5t-50 -129t-90.5 -91t-137.5 -33.5q-57 0 -110 16t-96 46l77 118q32 -21 66.5 -30t61.5 -9q67 0 107 60t38 193l33 -19q-23 -51 -69 -83.5t-110 -32.5q-66 0 -117.5 32t-80.5 86.5t-29 120.5
t31.5 117t89.5 80t137 29zM312 576q-27 0 -49 -13t-35 -35t-13 -51q0 -28 13 -51.5t35 -37t49 -13.5q28 0 50 13.5t35.5 37t13.5 51.5q0 29 -13.5 51t-35.5 35t-50 13z" />
    <glyph glyph-name="zero.tf.ss02" 
d="M87 155l342 397l129 -9l-340 -395zM317 -12q-86 0 -153 46.5t-104.5 128t-37.5 187.5t37.5 187.5t103.5 128t153 46.5t154 -46.5t105 -128t38 -187.5t-38 -187.5t-104.5 -128t-153.5 -46.5zM318 134q40 0 71.5 28t49.5 76.5t18 111.5q0 64 -18 113t-50 77t-73 28
q-40 0 -71 -28t-48.5 -77t-17.5 -113q0 -63 17.5 -112t49 -76.5t72.5 -27.5z" />
    <glyph glyph-name="zero.dnom" horiz-adv-x="406" 
d="M204 -6q-54 0 -95 27.5t-64.5 76.5t-23.5 113q0 65 23.5 113.5t64.5 76t94 27.5q54 0 94.5 -27.5t64 -76t23.5 -113.5q0 -64 -23.5 -113t-64 -76.5t-93.5 -27.5zM203 95q33 0 53 32.5t20 83.5q0 52 -20.5 85t-53.5 33q-29 0 -48 -33t-19 -85q0 -51 19.5 -83.5t48.5 -32.5
z" />
    <glyph glyph-name="one.dnom" horiz-adv-x="280" 
d="M113 0v361l12 59h93v-420h-105zM29 265v100q24 -2 48.5 15t47.5 41l71 -67q-42 -48 -82 -71t-85 -18z" />
    <glyph glyph-name="two.dnom" horiz-adv-x="369" 
d="M140 61l-109 17q0 16 13.5 37.5t36.5 44.5t51 42l41 27q17 11 34.5 27t17.5 33q0 16 -11.5 26.5t-36.5 10.5q-18 0 -30.5 -11.5t-16.5 -27.5l-115 18q6 33 27 60.5t55.5 45t79.5 17.5q76 0 119 -38.5t43 -99.5q0 -46 -25 -76t-63 -55l-43 -29q-14 -9 -28.5 -22.5
t-25.5 -26.5t-14 -20zM31 0v78l82 20h230v-98h-312z" />
    <glyph glyph-name="three.dnom" horiz-adv-x="355" 
d="M184 -6q-64 0 -109.5 29.5t-53.5 86.5l107 21q4 -12 13 -27t36 -15q19 0 30.5 10.5t11.5 29.5q0 8 -3.5 17.5t-16 15.5t-40.5 6h-38v70h33q46 0 86 -15.5t65.5 -43.5t25.5 -66q0 -39 -21.5 -65t-55 -40t-70.5 -14zM121 193v64h38q32 0 43.5 11t11.5 30q0 15 -10.5 25
t-26.5 10q-15 0 -29 -9t-18 -34l-106 21q5 39 29 65t57.5 39t68.5 13q40 0 73 -15t53 -41t20 -62q0 -41 -26 -67t-65.5 -38t-79.5 -12h-33z" />
    <glyph glyph-name="four.dnom" horiz-adv-x="397" 
d="M92 115l-79 39l181 266l63 -61zM13 64v90l58 5h305v-95h-363zM209 0v363l-15 57h120v-420h-105z" />
    <glyph glyph-name="five.dnom" horiz-adv-x="366" 
d="M186 -7q-33 0 -67 11.5t-59.5 34t-33.5 52.5l108 23q5 -13 17 -19t27 -6q21 0 34.5 13t13.5 34q0 20 -13 34.5t-35 14.5q-14 0 -24.5 -6t-16.5 -18l-100 22l30 237h250v-101h-230l-20 97h110l-42 -246l-48 13q5 12 21.5 32.5t46 36.5t72.5 14q47 0 81 -34.5t34 -88.5
q0 -66 -44 -108t-112 -42z" />
    <glyph glyph-name="six.dnom" horiz-adv-x="364" 
d="M185 -7q-55 0 -91 25t-53 68t-17 97q0 43 8.5 86.5t29.5 79t56 57t87 21.5q35 0 67 -9.5t58 -27.5l-52 -82q-18 13 -38.5 17.5t-35.5 4.5q-33 0 -55 -31t-21 -102l-23 10q14 31 40.5 49t62.5 18q40 0 70 -20t47.5 -52.5t17.5 -72.5q0 -58 -42.5 -97t-115.5 -39zM186 85
q20 0 33.5 15t13.5 35q0 21 -13.5 36t-33.5 15q-21 0 -35 -15t-14 -36t14 -35.5t35 -14.5z" />
    <glyph glyph-name="seven.dnom" horiz-adv-x="352" 
d="M68 0l140 321l123 21l-140 -342h-123zM21 318v102h310v-78l-122 -24h-188z" />
    <glyph glyph-name="eight.dnom" horiz-adv-x="381" 
d="M190 -7q-83 0 -124 32t-41 84q0 57 41 93t124 36t124.5 -36t41.5 -93q0 -52 -41.5 -84t-124.5 -32zM190 84q22 0 36.5 11.5t14.5 30.5q0 21 -14.5 34.5t-36.5 13.5t-36 -13.5t-14 -34.5q0 -19 14 -30.5t36 -11.5zM190 257q20 0 33 12t13 31q0 17 -13 29t-33 12t-32.5 -12
t-12.5 -29q0 -19 12.5 -31t32.5 -12zM190 202q-75 0 -114 31t-39 80q0 50 39 82t114 32t114 -32t39 -82q0 -49 -39.5 -80t-113.5 -31z" />
    <glyph glyph-name="nine.dnom" horiz-adv-x="364" 
d="M160 -8q-34 0 -67 9.5t-59 27.5l53 82q18 -12 39 -17t35 -5q32 0 53.5 30t22.5 104l22 -11q-13 -28 -39 -47.5t-63 -19.5q-40 0 -70.5 20t-48 53t-17.5 73q0 58 42.5 97t116.5 39q55 0 90.5 -25t53 -68.5t17.5 -97.5q0 -43 -9 -86t-29.5 -78.5t-55.5 -57.5t-87 -22z
M179 233q20 0 34.5 15.5t14.5 36.5t-14.5 35.5t-34.5 14.5t-34 -14.5t-14 -35.5t14 -36.5t34 -15.5z" />
    <glyph glyph-name="zero.numr" horiz-adv-x="406" 
d="M204 273q-54 0 -95 27.5t-64.5 76.5t-23.5 113q0 65 23.5 113.5t64.5 76t94 27.5q54 0 94.5 -27.5t64 -76t23.5 -113.5q0 -64 -23.5 -113t-64 -76.5t-93.5 -27.5zM203 374q33 0 53 32.5t20 83.5q0 52 -20.5 85t-53.5 33q-29 0 -48 -33t-19 -85q0 -51 19.5 -83.5
t48.5 -32.5z" />
    <glyph glyph-name="one.numr" horiz-adv-x="280" 
d="M113 280v361l12 59h93v-420h-105zM29 545v100q24 -2 48.5 15t47.5 41l71 -67q-42 -48 -82 -71t-85 -18z" />
    <glyph glyph-name="two.numr" horiz-adv-x="369" 
d="M140 341l-109 17q0 16 13.5 37.5t36.5 44.5t51 42l41 27q17 11 34.5 27t17.5 33q0 16 -11.5 26.5t-36.5 10.5q-18 0 -30.5 -11.5t-16.5 -27.5l-115 18q6 33 27 60.5t55.5 45t79.5 17.5q76 0 119 -38.5t43 -99.5q0 -46 -25 -76t-63 -55l-43 -29q-14 -9 -28.5 -22.5
t-25.5 -26.5t-14 -20zM31 280v78l82 20h230v-98h-312z" />
    <glyph glyph-name="three.numr" horiz-adv-x="355" 
d="M184 273q-64 0 -109.5 29.5t-53.5 86.5l107 21q4 -12 13 -27t36 -15q19 0 30.5 10.5t11.5 29.5q0 8 -3.5 17.5t-16 15.5t-40.5 6h-38v70h33q46 0 86 -15.5t65.5 -43.5t25.5 -66q0 -39 -21.5 -65t-55 -40t-70.5 -14zM121 472v64h38q32 0 43.5 11t11.5 30q0 15 -10.5 25
t-26.5 10q-15 0 -29 -9t-18 -34l-106 21q5 39 29 65t57.5 39t68.5 13q40 0 73 -15t53 -41t20 -62q0 -41 -26 -67t-65.5 -38t-79.5 -12h-33z" />
    <glyph glyph-name="four.numr" horiz-adv-x="397" 
d="M92 395l-79 39l181 266l63 -61zM13 344v90l58 5h305v-95h-363zM209 280v363l-15 57h120v-420h-105z" />
    <glyph glyph-name="five.numr" horiz-adv-x="366" 
d="M186 273q-33 0 -67 11.5t-59.5 34t-33.5 52.5l108 23q5 -13 17 -19t27 -6q21 0 34.5 13t13.5 34q0 20 -13 34.5t-35 14.5q-14 0 -24.5 -6t-16.5 -18l-100 22l30 237h250v-101h-230l-20 97h110l-42 -246l-48 13q5 12 21.5 32.5t46 36.5t72.5 14q47 0 81 -34.5t34 -88.5
q0 -66 -44 -108t-112 -42z" />
    <glyph glyph-name="six.numr" horiz-adv-x="364" 
d="M185 273q-55 0 -91 25t-53 68t-17 97q0 43 8.5 86.5t29.5 79t56 57t87 21.5q35 0 67 -9.5t58 -27.5l-52 -82q-18 13 -38.5 17.5t-35.5 4.5q-33 0 -55 -31t-21 -102l-23 10q14 31 40.5 49t62.5 18q40 0 70 -20t47.5 -52.5t17.5 -72.5q0 -58 -42.5 -97t-115.5 -39zM186 365
q20 0 33.5 15t13.5 35q0 21 -13.5 36t-33.5 15q-21 0 -35 -15t-14 -36t14 -35.5t35 -14.5z" />
    <glyph glyph-name="seven.numr" horiz-adv-x="352" 
d="M68 280l140 321l123 21l-140 -342h-123zM21 598v102h310v-78l-122 -24h-188z" />
    <glyph glyph-name="eight.numr" horiz-adv-x="381" 
d="M190 273q-83 0 -124 32t-41 84q0 57 41 93t124 36t124.5 -36t41.5 -93q0 -52 -41.5 -84t-124.5 -32zM190 364q22 0 36.5 11.5t14.5 30.5q0 21 -14.5 34.5t-36.5 13.5t-36 -13.5t-14 -34.5q0 -19 14 -30.5t36 -11.5zM190 537q20 0 33 12t13 31q0 17 -13 29t-33 12
t-32.5 -12t-12.5 -29q0 -19 12.5 -31t32.5 -12zM190 482q-75 0 -114 31t-39 80q0 50 39 82t114 32t114 -32t39 -82q0 -49 -39.5 -80t-113.5 -31z" />
    <glyph glyph-name="nine.numr" horiz-adv-x="364" 
d="M160 272q-34 0 -67 9.5t-59 27.5l53 82q18 -12 39 -17t35 -5q32 0 53.5 30t22.5 104l22 -11q-13 -28 -39 -47.5t-63 -19.5q-40 0 -70.5 20t-48 53t-17.5 73q0 58 42.5 97t116.5 39q55 0 90.5 -25t53 -68.5t17.5 -97.5q0 -43 -9 -86t-29.5 -78.5t-55.5 -57.5t-87 -22z
M179 513q20 0 34.5 15.5t14.5 36.5t-14.5 35.5t-34.5 14.5t-34 -14.5t-14 -35.5t14 -36.5t34 -15.5z" />
    <glyph glyph-name="periodcentered.loclCAT" horiz-adv-x="151" 
d="M76 234q-38 0 -65 27t-27 65q0 37 27 64t65 27q37 0 64 -27t27 -64q0 -38 -27 -65t-64 -27z" />
    <glyph glyph-name="periodcentered.loclCAT.case" horiz-adv-x="0" 
d="M-91 290q-38 0 -65 27t-27 65q0 37 27 64t65 27q37 0 64 -27t27 -64q0 -38 -27 -65t-64 -27z" />
    <glyph glyph-name="uni030C.alt" horiz-adv-x="0" 
d="M17 547l29 153h134l-48 -153h-115z" />
    <glyph glyph-name="uni0328.alt" horiz-adv-x="0" 
d="M184 -212q-45 0 -83 11.5t-60 35t-22 57.5q0 35 21 62.5t56 51.5t78 49h28q-30 -29 -44 -51t-18.5 -40t-4.5 -36q0 -16 10 -26t28 -10q14 0 24 2t19 6l46 -95q-16 -9 -35 -13t-43 -4z" />
    <glyph glyph-name="uni0304.narrow" horiz-adv-x="0" 
d="M5 555v132h290v-132h-290z" />
    <glyph glyph-name="dollar.BRACKET.varAlt01" horiz-adv-x="550" 
d="M280 24q-61 0 -114 20.5t-88 55t-43 74.5l144 41q10 -26 34 -45t63 -20q36 -1 60.5 17t24.5 47q0 21 -17.5 38.5t-49.5 25.5l-89 22q-48 13 -82.5 38t-53 62t-18.5 84q0 90 60 141t170 51q59 0 104.5 -16t77.5 -49t51 -82l-143 -42q-7 23 -31 43t-61 20t-58 -17t-21 -48
q0 -23 17 -37.5t46 -22.5l89 -23q77 -19 119.5 -70.5t42.5 -117.5q0 -59 -28 -101.5t-80 -65.5t-126 -23zM219 -103v186h127v-186h-127zM219 594v186h127v-186h-127z" />
    </font>
</defs>
</svg>
