<?xml version="1.0" standalone="no"?>
<!DOCTYPE svg PUBLIC "-//W3C//DTD SVG 1.1//EN" "http://www.w3.org/Graphics/SVG/1.1/DTD/svg11.dtd" >
<svg xmlns="http://www.w3.org/2000/svg" xmlns:xlink="http://www.w3.org/1999/xlink" version="1.1">
<metadata>
Created by FontForge 20201107 at Fri Jun 16 12:36:38 2023
 By 
Copyright 2022 The Figtree Project Authors (https://github.com/erikdkennedy/figtree)
</metadata>
<defs>
<font id="Figtree-MediumItalic" horiz-adv-x="590" >
  <font-face 
    font-family="Figtree Medium"
    font-weight="500"
    font-style="italic"
    font-stretch="normal"
    units-per-em="1000"
    panose-1="0 0 0 0 0 0 0 0 0 0"
    ascent="800"
    descent="-200"
    x-height="500"
    cap-height="700"
    bbox="-174 -222 1122 927"
    underline-thickness="50"
    underline-position="-125"
    slope="-9.5"
    unicode-range="U+000D-2265"
  />
<missing-glyph horiz-adv-x="708" 
d="M100 -170v960h508v-960h-508zM158 -112h392v844h-392v-844z" />
    <glyph glyph-name=".notdef" horiz-adv-x="708" 
d="M100 -170v960h508v-960h-508zM158 -112h392v844h-392v-844z" />
    <glyph glyph-name=".null" horiz-adv-x="0" 
 />
    <glyph glyph-name="nonmarkingreturn" horiz-adv-x="333" 
 />
    <glyph glyph-name="CR" unicode="&#xd;" horiz-adv-x="600" 
 />
    <glyph glyph-name="space" unicode=" " horiz-adv-x="244" 
 />
    <glyph glyph-name="exclam" unicode="!" horiz-adv-x="302" 
d="M97 210l78 490h103l-87 -490h-94zM113 -15q-18 0 -32 9.5t-21 25.5t-4 34q4 23 23 39.5t42 16.5q19 0 33 -9.5t20.5 -24.5t4.5 -34q-5 -23 -24 -40t-42 -17z" />
    <glyph glyph-name="quotedbl" unicode="&#x22;" horiz-adv-x="345" 
d="M107 476l31 240h92l-49 -240h-74zM240 476l31 240h92l-49 -240h-74z" />
    <glyph glyph-name="numbersign" unicode="#" horiz-adv-x="630" 
d="M294 0l227 700h74l-227 -700h-74zM0 191l21 66h563l-21 -66h-563zM71 0l227 700h74l-227 -700h-74zM78 434l22 66h562l-21 -66h-563z" />
    <glyph glyph-name="dollar" unicode="$" horiz-adv-x="560" 
d="M258 23q-69 0 -117 21t-74.5 54.5t-31.5 69.5l90 24q8 -36 39.5 -61t83.5 -25q67 -1 111 27t51 73q6 37 -21 60.5t-79 36.5l-69 19q-42 11 -74 34t-47 58.5t-7 84.5q14 84 76 131t166 47q63 0 105.5 -20t67 -53t30.5 -70l-90 -24q-8 38 -39.5 61t-81.5 23
q-56 0 -94.5 -28t-46.5 -74q-6 -37 13.5 -57t58.5 -29l71 -18q85 -21 125.5 -74t29.5 -115q-8 -50 -39.5 -90t-83.5 -63t-123 -23zM190 -103l148 883h83l-148 -883h-83z" />
    <glyph glyph-name="percent" unicode="%" horiz-adv-x="793" 
d="M52 0l614 700h106l-617 -700h-103zM231 379q-48 0 -81 22.5t-47.5 61.5t-6.5 90q8 48 33.5 84t63 57t82.5 21q48 0 81 -22.5t47.5 -61.5t5.5 -90q-7 -47 -32.5 -83.5t-63 -57.5t-82.5 -21zM230 449q38 0 68 29.5t37 74.5q7 40 -9.5 65.5t-49.5 25.5q-38 0 -68.5 -29
t-37.5 -74q-6 -40 10.5 -66t49.5 -26zM551 -15q-48 0 -81 22.5t-47.5 62t-6.5 89.5q8 48 33.5 84t63 57t82.5 21q48 0 81.5 -22.5t47.5 -61.5t6 -90q-8 -47 -33.5 -83.5t-63 -57.5t-82.5 -21zM551 55q38 0 68 29.5t36 74.5q7 40 -9.5 66t-49.5 26q-38 0 -68 -29.5t-37 -74.5
q-7 -40 10 -66t50 -26z" />
    <glyph glyph-name="ampersand" unicode="&#x26;" horiz-adv-x="644" 
d="M220 -14q-61 0 -105.5 24.5t-64.5 67t-11 98.5q10 61 51.5 106t96.5 80l115 70q55 34 90.5 69t35.5 72q0 29 -19 44.5t-52 15.5q-37 0 -67 -23.5t-36 -59.5q-4 -26 8.5 -47.5t31.5 -52.5l102 -149l199 -301h-114l-164 249l-101 154q-19 31 -33 56.5t-20 50.5t-1 53
q7 44 35 78t69.5 53.5t88.5 19.5q54 0 93.5 -21t58.5 -58.5t11 -86.5q-6 -39 -32.5 -72.5t-67.5 -65t-95 -64.5l-82 -50q-23 -14 -45.5 -32t-38 -41.5t-21.5 -56.5q-7 -43 18 -69.5t71 -26.5q51 0 98.5 16.5t87.5 48t67 75t36 97.5l91 -3q-15 -93 -69.5 -165t-136 -112.5
t-179.5 -40.5z" />
    <glyph glyph-name="quotesingle" unicode="'" horiz-adv-x="212" 
d="M107 476l31 240h92l-49 -240h-74z" />
    <glyph glyph-name="parenleft" unicode="(" horiz-adv-x="363" 
d="M165 -99q-37 61 -63 133t-35.5 153t5.5 169q15 85 49.5 163.5t83.5 149.5t105 132l100 -2q-57 -64 -108 -137.5t-86.5 -153t-49.5 -164.5q-20 -121 7.5 -234.5t80.5 -210.5z" />
    <glyph glyph-name="parenright" unicode=")" horiz-adv-x="363" 
d="M232 799q37 -61 63 -133t35.5 -152.5t-6.5 -169.5q-14 -84 -48.5 -163t-83 -150t-105.5 -132l-101 2q58 65 108.5 138t86.5 153t50 164q20 121 -8 234.5t-81 210.5z" />
    <glyph glyph-name="asterisk" unicode="*" horiz-adv-x="483" 
d="M263 539l19 177h77l-39 -177h-57zM296 512l-8 55l173 63l12 -73zM341 376l-73 149l50 34l91 -138zM193 374l-57 45l133 137l44 -34zM278 513l-165 45l37 74l155 -65z" />
    <glyph glyph-name="plus" unicode="+" horiz-adv-x="626" 
d="M243 70l76 456h81l-77 -456h-80zM86 257l14 81h456l-14 -81h-456z" />
    <glyph glyph-name="comma" unicode="," horiz-adv-x="236" 
d="M-24 -115l94 218h104l-120 -218h-78z" />
    <glyph glyph-name="hyphen" unicode="-" horiz-adv-x="414" 
d="M58 256l14 83h300l-14 -83h-300z" />
    <glyph glyph-name="period" unicode="." horiz-adv-x="219" 
d="M72 -14q-18 0 -32.5 9.5t-21.5 25t-4 33.5q4 23 23.5 39.5t42.5 16.5q19 0 32.5 -9t20.5 -24.5t4 -34.5q-4 -23 -23 -39.5t-42 -16.5z" />
    <glyph glyph-name="slash" unicode="/" horiz-adv-x="403" 
d="M-41 -84l415 831h97l-413 -831h-99z" />
    <glyph glyph-name="zero" unicode="0" horiz-adv-x="643" 
d="M290 -12q-65 0 -113.5 28t-78.5 78t-40 118t3 148q18 104 65 183.5t115 124t147 44.5q64 0 112.5 -28t79 -78t40 -118t-3.5 -148q-17 -102 -64.5 -181.5t-115.5 -125t-146 -45.5zM290 78q56 0 103.5 35.5t80.5 96.5t46 140q13 78 1 139.5t-47 97.5t-89 36
q-53 0 -100.5 -35t-81 -96.5t-46.5 -141.5q-13 -79 -0.5 -140t47 -96t86.5 -36z" />
    <glyph glyph-name="one" unicode="1" horiz-adv-x="417" 
d="M170 0l109 647l17 53h88l-119 -700h-95zM101 509l15 89q21 -1 53 14t65.5 39t60.5 50l54 -68q-61 -53 -124 -90t-124 -34z" />
    <glyph glyph-name="two" unicode="2" horiz-adv-x="564" 
d="M119 41l-91 39q5 33 24.5 66.5t51 65.5t75.5 61l152 99q27 18 51.5 41.5t41.5 49t20 50.5q6 46 -22.5 78t-83.5 32q-40 0 -72.5 -15.5t-56 -40.5t-35.5 -52l-99 24q19 47 56.5 86t90.5 63t114 24q73 0 122.5 -27.5t71.5 -75.5t12 -109q-8 -55 -46.5 -103.5t-104.5 -94.5
l-142 -94q-32 -21 -60 -46.5t-46 -55t-24 -65.5zM14 0l14 80l75 8h379l-14 -88h-454z" />
    <glyph glyph-name="three" unicode="3" horiz-adv-x="547" 
d="M234 -12q-55 0 -97 17t-68.5 45t-38.5 61l90 35q8 -14 19.5 -30.5t33 -28.5t57.5 -12q45 0 81 18t58.5 48.5t27.5 68.5q6 39 -11.5 65.5t-57 40.5t-98.5 14h-28l12 74h20q62 0 112.5 -15t86 -43t51.5 -68t8 -91q-10 -61 -48 -106t-93 -69t-117 -24zM204 342l12 71h21
q81 0 135.5 29t61.5 85q6 39 -22 68.5t-81 29.5q-39 0 -74 -17.5t-62 -51.5l-77 42q23 36 57.5 61.5t76.5 39t87 13.5q64 0 110.5 -25.5t69 -68.5t13.5 -97q-8 -44 -34.5 -77.5t-67.5 -56t-92.5 -34t-108.5 -11.5h-25z" />
    <glyph glyph-name="four" unicode="4" horiz-adv-x="625" 
d="M104 195l-67 43l394 462l52 -56zM24 161l13 77l61 10h496l-14 -87h-556zM321 0l108 640l2 60h101l-117 -700h-94z" />
    <glyph glyph-name="five" unicode="5" horiz-adv-x="576" 
d="M253 -12q-44 0 -89 14t-79.5 42t-51.5 71l86 34q25 -40 59.5 -57.5t73.5 -17.5q44 0 81 19t62 52t32 78q11 60 -20 98.5t-92 38.5q-38 0 -75 -16.5t-59 -39.5l-87 22l98 374h380l-15 -90h-370l5 87h98l-106 -377l-67 8q16 21 40 40.5t52.5 35.5t61.5 26t68 9
q64 0 109.5 -29t67 -79.5t10.5 -116.5q-12 -67 -50 -118t-96 -79.5t-127 -28.5z" />
    <glyph glyph-name="six" unicode="6" horiz-adv-x="569" 
d="M261 -12q-74 0 -119.5 27t-68 74.5t-25.5 110t9 132.5q14 86 43 156t71.5 120t97 77t119.5 27q56 0 106 -17t86 -47l-60 -68q-28 23 -62 33.5t-65 10.5q-97 0 -163.5 -82t-89.5 -249l-18 23q34 59 89.5 93t123.5 34q60 0 105.5 -26t70.5 -69.5t25 -96.5t-20 -100.5
t-57 -84t-87.5 -57.5t-110.5 -21zM264 74q52 0 91.5 24.5t61 65t21.5 86.5q0 50 -32 79.5t-84 29.5q-45 0 -82 -19t-61.5 -54t-30.5 -80q-9 -59 23.5 -95.5t92.5 -36.5z" />
    <glyph glyph-name="seven" unicode="7" horiz-adv-x="542" 
d="M41 0l436 631l98 -10l-422 -621h-112zM100 610l14 90h473l-12 -79l-88 -11h-387z" />
    <glyph glyph-name="eight" unicode="8" horiz-adv-x="614" 
d="M268 -12q-79 0 -133.5 25.5t-79 70.5t-14.5 104q10 60 47.5 104.5t97 70t136.5 24.5q81 1 135 -26.5t78.5 -74.5t14.5 -110q-9 -56 -47 -98.5t-97.5 -66t-137.5 -23.5zM272 73q48 0 87.5 16.5t64.5 46t30 67.5q8 51 -29 82t-103 31q-47 0 -86.5 -16.5t-64.5 -46
t-30 -68.5q-7 -50 29.5 -81t101.5 -31zM327 337q-71 0 -120 24.5t-71 67t-13 99.5q9 54 43 96t88.5 65t122.5 23q72 0 121 -25t71.5 -69t12.5 -102q-9 -53 -43.5 -93.5t-88.5 -63t-123 -22.5zM327 403q42 0 76 15t55.5 42t26.5 61q7 48 -23.5 78t-86.5 30q-41 0 -75.5 -16
t-56.5 -44.5t-27 -66.5q-6 -44 25 -71.5t86 -27.5z" />
    <glyph glyph-name="nine" unicode="9" horiz-adv-x="569" 
d="M342 712q73 0 118.5 -27t68 -75t26 -110t-8.5 -132q-14 -86 -43.5 -156t-71.5 -120.5t-96.5 -77t-119.5 -26.5q-55 0 -105.5 17t-87.5 46l61 68q28 -22 62 -33t64 -11q98 0 164.5 82.5t88.5 249.5l19 -23q-33 -59 -89 -93t-124 -34q-61 0 -106 26t-70.5 69.5t-25.5 96.5
t20 100.5t57 84t87.5 57.5t111.5 21zM338 626q-51 0 -90.5 -25t-61.5 -65t-22 -86q0 -49 32 -79.5t84 -30.5q46 0 83 19.5t61.5 54t30.5 79.5q8 60 -24.5 96.5t-92.5 36.5z" />
    <glyph glyph-name="colon" unicode=":" horiz-adv-x="266" 
d="M160 377q-18 0 -32.5 9.5t-21 25t-4.5 33.5q5 23 24 39.5t42 16.5q19 0 33 -9t20.5 -24.5t4.5 -34.5q-5 -23 -24 -39.5t-42 -16.5zM98 -2q-18 0 -32.5 9.5t-21 25t-3.5 34.5q4 23 23 39.5t42 16.5q19 0 33 -9.5t21 -25t3 -33.5q-3 -23 -22.5 -40t-42.5 -17z" />
    <glyph glyph-name="semicolon" unicode=";" horiz-adv-x="271" 
d="M157 376q-18 0 -32 9t-21 25t-4 34q4 23 23 39.5t42 16.5q19 0 33 -9.5t21 -24.5t4 -34q-4 -23 -23.5 -39.5t-42.5 -16.5zM-22 -115l95 218h104l-120 -218h-79z" />
    <glyph glyph-name="less" unicode="&#x3c;" horiz-adv-x="626" 
d="M527 502l-17 -95l-375 -151l13 83zM148 338l325 -159l-15 -84l-323 161z" />
    <glyph glyph-name="equal" unicode="=" horiz-adv-x="626" 
d="M131 357l13 81h400l-13 -81h-400zM97 157l14 81h400l-14 -81h-400z" />
    <glyph glyph-name="greater" unicode="&#x3e;" horiz-adv-x="626" 
d="M115 94l16 95l376 151l-13 -83zM494 258l-325 159l14 84l324 -161z" />
    <glyph glyph-name="question" unicode="?" horiz-adv-x="507" 
d="M180 298l10 71l55 3q42 1 77.5 17.5t59.5 46.5t30 71q10 52 -20 85t-87 33q-45 0 -82.5 -22t-53.5 -52l-85 32q30 59 88 94t135 35q68 0 116.5 -28t70 -77t11.5 -112q-10 -59 -45.5 -103.5t-90.5 -69t-122 -24.5h-67zM183 -14q-28 0 -45 18.5t-14 46.5q2 26 20 42.5
t44 16.5q28 0 45 -18.5t15 -46.5q-3 -25 -21 -42t-44 -17zM163 192l26 164h97l-30 -164h-93z" />
    <glyph glyph-name="at" unicode="@" horiz-adv-x="993" 
d="M434 -212q-101 0 -180 34t-130 94.5t-72.5 141t-9.5 174.5q13 110 60 199t121 152.5t166.5 97.5t195.5 34q99 0 173 -33.5t121.5 -94t66 -141t6.5 -172.5q-7 -66 -28.5 -119.5t-54 -91t-71 -58t-80.5 -20.5q-39 0 -65.5 15.5t-37.5 43.5t-5 65l59 370h87l-61 -368
q-4 -25 3.5 -39.5t24.5 -14.5q34 0 64 26t52.5 70.5t31.5 101.5q19 114 -10.5 200.5t-101 136t-177.5 49.5q-86 0 -164 -29.5t-140 -84t-101.5 -130t-50.5 -168.5q-14 -105 20 -188t108.5 -131t181.5 -48q48 0 96.5 12.5t81.5 28.5l36 -65q-46 -23 -105 -36.5t-111 -13.5z
M431 15q-65 0 -110.5 31t-65 86.5t-8.5 126.5q12 68 47.5 120t88 81.5t115.5 29.5q65 0 110 -31.5t64.5 -86t7.5 -125.5q-11 -68 -46.5 -120.5t-87.5 -82t-115 -29.5zM456 97q45 0 82.5 21t63.5 57.5t34 83.5q11 65 -22 106.5t-96 41.5q-44 0 -82.5 -20.5t-64 -56.5
t-33.5 -83q-11 -66 22 -108t96 -42z" />
    <glyph glyph-name="A" unicode="A" horiz-adv-x="691" 
d="M-33 0l399 700h106l-392 -700h-113zM540 0l-160 700h95l165 -700h-100zM132 187l15 88h403l-15 -88h-403z" />
    <glyph glyph-name="B" unicode="B" horiz-adv-x="611" 
d="M47 0l117 700h222q72 0 121 -23t70.5 -67.5t10.5 -108.5q-16 -97 -109 -144q48 -25 68.5 -67.5t10.5 -102.5q-15 -90 -82 -138.5t-171 -48.5h-258zM159 89h148q63 0 104.5 31t48.5 86q8 52 -25.5 80.5t-102.5 28.5h-136zM210 399h142q59 0 96 31t44 85q7 50 -23 76.5
t-94 26.5h-128z" />
    <glyph glyph-name="C" unicode="C" horiz-adv-x="724" 
d="M350 -12q-98 0 -168.5 44.5t-103 122.5t-20.5 180q10 81 44 149.5t87.5 119.5t121.5 79.5t145 28.5q67 0 123 -24t96 -66.5t57 -97.5l-92 -34q-13 40 -40.5 69.5t-64.5 46t-80 16.5q-57 0 -107.5 -22t-90 -62t-65.5 -92t-34 -114q-11 -75 10.5 -132.5t69 -90t116.5 -32.5
q47 0 92.5 19t84 52.5t64.5 75.5l84 -45q-35 -57 -88 -100t-115 -67t-126 -24z" />
    <glyph glyph-name="D" unicode="D" horiz-adv-x="691" 
d="M47 0l117 700h216q99 0 169 -46t101.5 -126t13.5 -184q-13 -76 -48.5 -139t-89 -108.5t-121 -71t-142.5 -25.5h-216zM161 92h114q51 0 99.5 20t88 56.5t67 84.5t36.5 103q12 71 -10.5 128t-72 90.5t-118.5 33.5h-118z" />
    <glyph glyph-name="E" unicode="E" horiz-adv-x="591" 
d="M47 0l117 700h421l-14 -90h-324l-35 -208h291l-14 -88h-291l-38 -224h326l-16 -90h-423z" />
    <glyph glyph-name="F" unicode="F" horiz-adv-x="545" 
d="M47 0l117 700h423l-15 -90h-325l-36 -220h282l-16 -90h-282l-50 -300h-98z" />
    <glyph glyph-name="G" unicode="G" horiz-adv-x="756" 
d="M367 -12q-104 0 -178 44.5t-108.5 122.5t-22.5 179q10 81 45.5 150t91 120t127.5 79.5t154 28.5q59 0 111 -19t91 -52.5t60 -75.5l-87 -47q-15 32 -42.5 55t-62.5 36t-75 13q-58 0 -111 -21.5t-95.5 -61t-70.5 -92t-36 -115.5q-10 -75 13 -132t75 -89.5t126 -32.5
q65 0 120 27t92 74.5t50 107.5l96 5q-10 -64 -41.5 -119t-79.5 -96.5t-109.5 -65t-132.5 -23.5zM463 280l14 82h265l-12 -70l-52 -12h-215z" />
    <glyph glyph-name="H" unicode="H" horiz-adv-x="751" 
d="M47 0l117 700h98l-117 -700h-98zM522 0l117 700h98l-117 -700h-98zM182 315l14 90h424l-14 -90h-424z" />
    <glyph glyph-name="I" unicode="I" horiz-adv-x="276" 
d="M47 0l117 700h98l-117 -700h-98z" />
    <glyph glyph-name="J" unicode="J" horiz-adv-x="525" 
d="M169 -12q-42 0 -74 12t-54 32.5t-35.5 45.5t-19.5 50l82 33q9 -21 22 -40t33 -31t49 -12q37 0 73.5 16.5t64 54t38.5 100.5l75 451h98l-82 -492q-9 -56 -35 -97t-63.5 -68.5t-81.5 -41t-90 -13.5z" />
    <glyph glyph-name="K" unicode="K" horiz-adv-x="625" 
d="M150 222l-14 104l419 374h128zM47 0l117 700h95l-117 -700h-95zM458 0l-227 356l75 62l270 -418h-118z" />
    <glyph glyph-name="L" unicode="L" horiz-adv-x="524" 
d="M47 0l117 700h98l-102 -610h325l-15 -90h-423z" />
    <glyph glyph-name="M" unicode="M" horiz-adv-x="849" 
d="M47 0l117 700h103l175 -343l287 343h106l-117 -700h-98l90 541l-293 -350l-181 351l-91 -542h-98z" />
    <glyph glyph-name="N" unicode="N" horiz-adv-x="774" 
d="M47 0l117 700h101l307 -540l89 540h99l-117 -700h-99l-307 543l-92 -543h-98z" />
    <glyph glyph-name="O" unicode="O" horiz-adv-x="780" 
d="M362 -12q-77 0 -139 27t-103 77t-56.5 118.5t-2.5 150.5q18 105 73.5 183.5t138 123t180.5 44.5q78 0 139.5 -27.5t101.5 -77.5t56 -118.5t2 -150.5q-17 -103 -72.5 -182t-137.5 -123.5t-180 -44.5zM366 78q71 0 131.5 34.5t101.5 95.5t54 140q13 80 -8.5 141.5t-71.5 97
t-123 35.5q-71 0 -132.5 -34.5t-103 -95.5t-54.5 -141t9 -141.5t73.5 -96.5t123.5 -35z" />
    <glyph glyph-name="P" unicode="P" horiz-adv-x="586" 
d="M47 0l117 700h233q70 0 119.5 -29.5t72 -81.5t11.5 -120q-11 -64 -46.5 -113.5t-88.5 -77.5t-117 -28h-161l-42 -250h-98zM202 341h153q39 0 70 18.5t51.5 50.5t26.5 70q8 58 -24 94t-92 36h-140z" />
    <glyph glyph-name="Q" unicode="Q" horiz-adv-x="783" 
d="M362 -12q-77 0 -139 27t-103 77t-56.5 118.5t-2.5 150.5q18 105 73.5 183.5t138 123t180.5 44.5q78 0 139.5 -27.5t101.5 -77.5t56 -118.5t2 -150.5q-17 -103 -72.5 -182t-137.5 -123.5t-180 -44.5zM625 -40l-212 255l74 62l209 -254zM366 78q71 0 131.5 34.5t101.5 95.5
t54 140q13 80 -8.5 141.5t-71.5 97t-123 35.5q-71 0 -132.5 -34.5t-103 -95.5t-54.5 -141t9 -141.5t73.5 -96.5t123.5 -35z" />
    <glyph glyph-name="R" unicode="R" horiz-adv-x="631" 
d="M47 0l117 700h233q71 0 120.5 -28.5t72.5 -78.5t11 -115q-10 -61 -49.5 -109t-99.5 -74.5t-130 -26.5h-132l-45 -268h-98zM440 0l-119 286l84 52l143 -338h-108zM206 358h143q38 0 70.5 16.5t55 46.5t27.5 69q8 54 -24 87t-92 33h-139z" />
    <glyph glyph-name="S" unicode="S" horiz-adv-x="612" 
d="M277 -13q-57 0 -101 13.5t-75 36t-48.5 51t-20.5 60.5l98 25q8 -41 44 -70t97 -29q47 0 88 15t66.5 43.5t25.5 71.5q0 31 -14 49.5t-40 29.5t-62 19l-74 18q-44 11 -77.5 33.5t-52 58t-15.5 83.5q3 66 38 114.5t95 75t137 26.5q70 0 118 -22.5t75 -58t33 -77.5l-97 -26
q-10 45 -46 71t-95 26q-43 0 -79.5 -16t-58 -44.5t-21.5 -66.5q0 -37 24 -58t64 -31l83 -21q62 -15 98.5 -40.5t53 -60t16.5 -78.5q0 -68 -37.5 -117.5t-100.5 -76.5t-139 -27z" />
    <glyph glyph-name="T" unicode="T" horiz-adv-x="561" 
d="M189 0l103 610h-219l14 90h537l-14 -90h-219l-103 -610h-99z" />
    <glyph glyph-name="U" unicode="U" horiz-adv-x="706" 
d="M312 -15q-83 0 -139.5 34t-81.5 94t-12 139l75 448h98l-74 -448q-9 -53 5.5 -92.5t49 -61.5t84.5 -22q54 0 99.5 22.5t75.5 62.5t38 91l74 448h99l-75 -448q-13 -80 -57 -140.5t-110.5 -93.5t-148.5 -33z" />
    <glyph glyph-name="V" unicode="V" horiz-adv-x="701" 
d="M262 0l398 700h107l-404 -700h-101zM254 0l-170 700h103l163 -700h-96z" />
    <glyph glyph-name="W" unicode="W" horiz-adv-x="967" 
d="M602 0l329 700h101l-332 -700h-98zM179 0l-95 700h98l92 -700h-95zM189 0l319 700h94l-318 -700h-95zM595 0l-80 700h91l84 -700h-95z" />
    <glyph glyph-name="X" unicode="X" horiz-adv-x="632" 
d="M-33 0l333 384l277 316h119l-325 -367l-282 -333h-122zM462 0l-168 333l-205 367h115l168 -316l207 -384h-117z" />
    <glyph glyph-name="Y" unicode="Y" horiz-adv-x="616" 
d="M364 291l-85 34l289 375h116zM217 0l56 336h99l-56 -336h-99zM269 291l-184 409h112l164 -375z" />
    <glyph glyph-name="Z" unicode="Z" horiz-adv-x="638" 
d="M18 92l531 539l105 -23l-508 -516h-128zM2 0l16 92h546l-15 -92h-547zM108 608l14 92h547l-15 -92h-546z" />
    <glyph glyph-name="bracketleft" unicode="[" horiz-adv-x="329" 
d="M30 -100l151 900h172l-15 -87h-84l-121 -726h84l-15 -87h-172z" />
    <glyph glyph-name="backslash" unicode="\" horiz-adv-x="681" 
d="M609 -84h-99l-413 831h97z" />
    <glyph glyph-name="bracketright" unicode="]" horiz-adv-x="329" 
d="M333 800l-151 -900h-172l14 87h84l121 726h-83l15 87h172z" />
    <glyph glyph-name="asciicircum" unicode="^" horiz-adv-x="559" 
d="M98 373l210 327h94l-213 -327h-91zM417 373l-107 327h91l102 -327h-86z" />
    <glyph glyph-name="underscore" unicode="_" horiz-adv-x="437" 
d="M-37 -84l14 84h400l-14 -84h-400z" />
    <glyph glyph-name="grave" unicode="`" horiz-adv-x="114" 
d="M85 568l-93 132h112l80 -132h-99z" />
    <glyph glyph-name="a" unicode="a" 
d="M392 0l11 93l68 407h94l-84 -500h-89zM229 -12q-61 0 -106 29t-68 80.5t-19 118.5q3 59 23 112.5t54.5 94.5t81.5 65t104 24q62 0 102 -28.5t58.5 -79t14.5 -118.5q-3 -73 -24 -129t-55.5 -93.5t-77 -56.5t-88.5 -19zM257 74q40 0 72 18.5t54.5 49t35 68t13.5 76.5
q2 63 -29.5 101.5t-85.5 38.5q-41 0 -74.5 -18t-58 -48t-38 -67t-14.5 -77q-1 -62 33 -102t92 -40z" />
    <glyph glyph-name="b" unicode="b" 
d="M24 0l117 700h95l-101 -607l-21 -93h-90zM361 512q62 0 106.5 -29t68 -80t18.5 -119q-2 -59 -22 -112.5t-55 -94.5t-82 -65t-104 -24q-61 0 -101 28.5t-59 79.5t-15 118q3 73 24 129t55.5 93.5t77 56.5t88.5 19zM334 426q-41 0 -72.5 -18.5t-54.5 -49t-35.5 -68
t-13.5 -76.5q-2 -63 29.5 -101.5t86.5 -38.5q40 0 73.5 18t58 48t38 67t14.5 77q2 62 -32 102t-92 40z" />
    <glyph glyph-name="c" unicode="c" horiz-adv-x="545" 
d="M256 -12q-74 0 -126 33.5t-76.5 91.5t-14.5 131q9 80 48 140t100.5 94t134.5 34q52 0 94.5 -17t72.5 -46.5t43 -70.5l-90 -30q-14 37 -45.5 57t-75.5 20q-47 0 -87 -23t-66.5 -64t-33.5 -94q-8 -49 6 -87t45.5 -60t76.5 -22q48 0 88.5 24.5t65.5 64.5l80 -40
q-40 -66 -102.5 -101t-137.5 -35z" />
    <glyph glyph-name="d" unicode="d" 
d="M392 0l11 93l101 607h94l-117 -700h-89zM229 -12q-61 0 -106 29t-68 80.5t-19 118.5q3 59 23 112.5t54.5 94.5t81.5 65t104 24q62 0 102 -28.5t58.5 -79t14.5 -118.5q-3 -73 -24 -129t-55.5 -93.5t-77 -56.5t-88.5 -19zM257 74q40 0 72 18.5t54.5 49t35 68t13.5 76.5
q2 63 -29.5 101.5t-85.5 38.5q-41 0 -74.5 -18t-58 -48t-38 -67t-14.5 -77q-1 -62 33 -102t92 -40z" />
    <glyph glyph-name="e" unicode="e" horiz-adv-x="550" 
d="M252 -12q-75 2 -127 37t-75 95.5t-10 138.5q13 77 54 134.5t102.5 89t133.5 29.5q73 -2 120 -37t65.5 -97t3.5 -146h-387q-6 -50 8 -87t44.5 -57.5t73.5 -20.5q52 -1 92.5 23.5t64.5 63.5l77 -43q-26 -41 -63.5 -69t-82.5 -41.5t-94 -12.5zM147 303h285q1 60 -25.5 96.5
t-85.5 37.5t-105 -36t-69 -98z" />
    <glyph glyph-name="f" unicode="f" horiz-adv-x="375" 
d="M74 0l94 557q13 78 56.5 118t119.5 40q23 0 49 -8t53 -21l-45 -71q-20 9 -34.5 13.5t-23.5 4.5q-35 0 -55 -22t-28 -68l-91 -543h-95zM56 421l13 79h322l-13 -79h-322z" />
    <glyph glyph-name="g" unicode="g" horiz-adv-x="589" 
d="M201 -212q-51 0 -91.5 10t-67 22.5t-40.5 21.5l45 73q13 -7 34.5 -17.5t52.5 -18t69 -7.5q70 0 123 43t68 134l76 451h94l-75 -451q-14 -86 -54 -144.5t-99.5 -87.5t-134.5 -29zM231 7q-69 0 -116.5 33t-67.5 92t-6 136q13 74 49.5 128.5t90.5 85t119 30.5
q67 0 109.5 -33t58.5 -91.5t3 -134.5q-13 -73 -47 -129t-83 -86.5t-110 -30.5zM258 87q42 0 78 22.5t61 61t33 89.5q8 49 -3.5 87t-40 59.5t-70.5 21.5q-44 0 -81.5 -21.5t-63.5 -60t-35 -88.5q-8 -50 5 -88.5t43 -60.5t74 -22z" />
    <glyph glyph-name="h" unicode="h" horiz-adv-x="561" 
d="M25 0l116 700h95l-117 -700h-94zM370 0l43 257l98 19l-46 -276h-95zM413 257q12 68 2 103.5t-34.5 49t-59.5 14.5q-63 0 -104.5 -43.5t-54.5 -122.5l-41 3q14 80 46 136t79.5 85.5t107.5 29.5q92 0 135.5 -56.5t23.5 -170.5l-5 -28h-95z" />
    <glyph glyph-name="i" unicode="i" horiz-adv-x="241" 
d="M30 0l86 500h94l-85 -500h-95zM190 606q-23 0 -40 17.5t-17 40.5q0 24 17 40.5t40 16.5q24 0 40.5 -16.5t16.5 -40.5q0 -23 -16.5 -40.5t-40.5 -17.5z" />
    <glyph glyph-name="j" unicode="j" horiz-adv-x="262" 
d="M-34 -215q-22 0 -46 7.5t-49 20.5l47 78q39 -19 58 -19q66 0 80 82l91 546h95l-93 -552q-14 -81 -60 -122t-123 -41zM222 606q-23 0 -40 17.5t-17 40.5q0 24 17 40.5t40 16.5q24 0 40.5 -16.5t16.5 -40.5q0 -23 -16.5 -40.5t-40.5 -17.5z" />
    <glyph glyph-name="k" unicode="k" horiz-adv-x="499" 
d="M24 0l117 700h95l-117 -700h-95zM145 151l-52 65l310 284h120zM343 0l-139 274l70 66l179 -340h-110z" />
    <glyph glyph-name="l" unicode="l" horiz-adv-x="229" 
d="M24 0l119 700h94l-118 -700h-95z" />
    <glyph glyph-name="m" unicode="m" horiz-adv-x="857" 
d="M24 0l84 500h89l-10 -92l-68 -408h-95zM345 0l44 257l99 30l-48 -287h-95zM389 257q11 68 3.5 104t-29.5 49.5t-53 13.5q-58 0 -96 -44t-52 -123l-40 5q20 120 77 185t140 65q87 0 127.5 -57.5t20.5 -172.5zM666 0l43 258l99 28l-48 -286h-94zM709 257q12 68 4.5 104
t-29.5 49.5t-54 13.5q-57 0 -95.5 -44t-51.5 -123l-40 5q20 120 77 185t140 65q87 0 127.5 -57.5t20.5 -172.5z" />
    <glyph glyph-name="n" unicode="n" horiz-adv-x="561" 
d="M24 0l84 500h89l-10 -92l-68 -408h-95zM370 0l43 257l96 9l-45 -266h-94zM413 257q11 68 1.5 103.5t-34 49t-59.5 14.5q-63 0 -104.5 -43.5t-55.5 -122.5l-40 3q14 80 46 136t79.5 85.5t107.5 29.5q92 0 135 -56.5t23 -170.5l-4 -28h-95z" />
    <glyph glyph-name="o" unicode="o" horiz-adv-x="582" 
d="M260 -12q-76 0 -130.5 34.5t-79 95.5t-10.5 141q12 75 52 132t100 89t131 32q76 0 130.5 -34.5t78.5 -95.5t10 -141q-12 -75 -52 -132t-99.5 -89t-130.5 -32zM262 75q46 0 85 22.5t66 62t35 91.5q9 52 -4.5 91t-45 61t-77.5 22t-85.5 -22.5t-66 -62t-35.5 -91.5t5 -91
t46 -61t77 -22z" />
    <glyph glyph-name="p" unicode="p" horiz-adv-x="595" 
d="M-4 -200l117 700h89l-10 -92l-101 -608h-95zM365 512q62 0 107 -29t68 -80t19 -119q-3 -59 -23 -112.5t-54.5 -94.5t-81.5 -65t-105 -24q-60 0 -100.5 28.5t-59 79.5t-14.5 118q3 73 24 129t55.5 93.5t77 56.5t87.5 19zM338 426q-40 0 -72 -18.5t-54.5 -49t-35 -68
t-13.5 -76.5q-2 -63 29.5 -101.5t85.5 -38.5q41 0 74.5 18t58 48t38 67t14.5 77q1 62 -33 102t-92 40z" />
    <glyph glyph-name="q" unicode="q" horiz-adv-x="595" 
d="M354 -200l101 607l21 93h89l-117 -700h-94zM229 -12q-61 0 -106 29t-68 80.5t-19 118.5q3 59 23 112.5t54.5 94.5t81.5 65t104 24q62 0 102 -28.5t58.5 -79t14.5 -118.5q-3 -73 -24 -129t-55.5 -93.5t-77 -56.5t-88.5 -19zM257 74q40 0 72 18.5t54.5 49t35 68t13.5 76.5
q2 63 -29.5 101.5t-85.5 38.5q-41 0 -74.5 -18t-58 -48t-38 -67t-14.5 -77q-1 -62 33 -102t92 -40z" />
    <glyph glyph-name="r" unicode="r" horiz-adv-x="351" 
d="M24 0l84 500h95l-84 -500h-95zM127 269q14 81 53 132.5t91.5 76t106.5 24.5l-12 -90q-44 0 -87.5 -13.5t-74.5 -45t-40 -83.5z" />
    <glyph glyph-name="s" unicode="s" horiz-adv-x="473" 
d="M201 -12q-56 0 -95.5 16.5t-62 43.5t-28.5 58l84 27q10 -34 38.5 -51.5t62.5 -17.5q28 0 55 9.5t44 27.5t17 45q0 24 -19.5 39.5t-58.5 26.5l-45 12q-57 15 -87.5 47t-30.5 74q0 51 27 88.5t75 58t112 20.5q72 0 113.5 -29.5t53.5 -78.5l-82 -29q-9 34 -32.5 47t-65.5 13
q-44 0 -75.5 -22t-31.5 -56q0 -16 18.5 -31.5t56.5 -25.5l41 -11q68 -17 99.5 -53t31.5 -82q0 -51 -30 -88.5t-78.5 -57.5t-106.5 -20z" />
    <glyph glyph-name="t" unicode="t" horiz-adv-x="392" 
d="M223 -12q-75 0 -108 39.5t-21 110.5l86 518h95l-85 -507q-7 -36 7.5 -55t47.5 -19q11 0 24.5 5t33.5 16l26 -76q-32 -17 -57.5 -24.5t-48.5 -7.5zM56 418l13 82h322l-13 -82h-322z" />
    <glyph glyph-name="u" unicode="u" horiz-adv-x="561" 
d="M364 0l10 92l68 408h95l-84 -500h-89zM50 224l47 276h94l-43 -257zM148 243q-11 -68 -1.5 -103.5t34.5 -49t59 -14.5q63 0 104.5 43.5t55.5 122.5l40 -3q-13 -80 -45.5 -136t-79.5 -85.5t-108 -29.5q-91 0 -134 56.5t-24 170.5l4 28h95z" />
    <glyph glyph-name="v" unicode="v" horiz-adv-x="531" 
d="M181 0l284 500h99l-291 -500h-92zM175 0l-124 500h95l117 -500h-88z" />
    <glyph glyph-name="w" unicode="w" horiz-adv-x="801" 
d="M140 0l-87 500h95l82 -500h-90zM146 0l250 500h86l-248 -500h-88zM484 0l-80 500h85l82 -500h-87zM484 0l251 500h97l-254 -500h-94z" />
    <glyph glyph-name="x" unicode="x" horiz-adv-x="492" 
d="M-32 0l253 287l179 213h114l-238 -273l-192 -227h-116zM328 0l-112 227l-150 273h111l108 -213l155 -287h-112z" />
    <glyph glyph-name="y" unicode="y" horiz-adv-x="539" 
d="M52 -212q-22 0 -48 8.5t-52 21.5l46 76q40 -19 60 -19q26 0 46.5 14.5t34.5 39.5l81 136l251 435h103l-330 -564q-27 -46 -53.5 -79t-59 -51t-79.5 -18zM185 0l-136 500h101l108 -434l19 -66h-92z" />
    <glyph glyph-name="z" unicode="z" horiz-adv-x="488" 
d="M71 18l-59 55l405 412l57 -56zM-1 0l13 73l61 8h344l-13 -81h-405zM70 419l13 81h403l-12 -71l-62 -10h-342z" />
    <glyph glyph-name="braceleft" unicode="{" horiz-adv-x="391" 
d="M75 339l5 47q38 0 61.5 11.5t37 40t21.5 80.5q15 85 31.5 140t41 86t60.5 43.5t90 12.5l-11 -81q-35 -1 -57.5 -19t-37.5 -64t-30 -129q-9 -51 -22 -84t-36.5 -51t-61 -25.5t-92.5 -7.5zM274 -100q-69 0 -103.5 25t-39 88.5t14.5 180.5q8 49 5 75t-21.5 35.5t-58.5 9.5
l6 47q74 0 111.5 -15.5t47 -54t-2.5 -110.5q-13 -80 -14 -123t15 -59.5t52 -17.5z" />
    <glyph glyph-name="bar" unicode="|" horiz-adv-x="257" 
d="M10 -220l169 1010h80l-169 -1010h-80z" />
    <glyph glyph-name="braceright" unicode="}" horiz-adv-x="390" 
d="M349 361l-5 -47q-39 0 -62 -11.5t-36.5 -40t-21.5 -80.5q-15 -85 -31.5 -140t-41 -86t-60.5 -43.5t-90 -12.5l11 81q35 1 57.5 19t38 64.5t29.5 128.5q9 51 22 84t36.5 51t60.5 25.5t93 7.5zM149 800q71 0 105 -25t39 -88.5t-15 -180.5q-8 -49 -5 -74.5t21.5 -35.5
t58.5 -10l-6 -47q-73 0 -111 15.5t-47.5 54.5t2.5 110q13 80 13.5 123t-15 59.5t-51.5 17.5z" />
    <glyph glyph-name="asciitilde" unicode="~" 
d="M389 211q-35 0 -67 18.5t-51 51.5q-16 26 -29.5 38.5t-32.5 12.5q-24 0 -42 -19t-29 -54h-79q9 48 30 84.5t55 57.5t79 21q40 0 70.5 -19.5t45.5 -44.5q12 -17 21.5 -30t20 -20t22.5 -7q27 0 44 20t28 53h79q-9 -48 -31 -84.5t-55 -57.5t-79 -21z" />
    <glyph glyph-name="uni00A0" unicode="&#xa0;" horiz-adv-x="244" 
 />
    <glyph glyph-name="exclamdown" unicode="&#xa1;" horiz-adv-x="296" 
d="M205 288l-78 -491h-103l87 491h94zM189 512q18 0 32 -9.5t21 -24.5t4 -34q-4 -23 -23 -40t-42 -17q-18 0 -32.5 9.5t-21.5 25.5t-4 34q4 23 23.5 39.5t42.5 16.5z" />
    <glyph glyph-name="cent" unicode="&#xa2;" horiz-adv-x="545" 
d="M213 0l119 700h63l-119 -700h-63zM274 98q-74 0 -126 33.5t-76.5 91.5t-14.5 131q9 80 48 140t100.5 94t134.5 34q52 0 94.5 -17t72.5 -46.5t43 -70.5l-90 -30q-14 37 -45.5 57t-75.5 20q-47 0 -87 -23t-66.5 -64t-33.5 -94q-8 -49 6 -87t45.5 -60t76.5 -22
q48 0 88.5 24.5t65.5 64.5l80 -40q-40 -66 -102.5 -101t-137.5 -35z" />
    <glyph glyph-name="sterling" unicode="&#xa3;" horiz-adv-x="582" 
d="M106 154l59 356q12 63 45 108.5t82.5 69.5t109.5 24q62 0 106 -24.5t63.5 -71t7.5 -113.5l-93 16q9 50 -15.5 79t-69.5 29q-34 0 -64 -16t-49 -43.5t-26 -63.5l-58 -342zM41 25v65q21 0 41 19.5t24 44.5l98 8q-7 -41 -30.5 -72t-58.5 -48t-74 -17zM5 0l15 90h491l-16 -90
h-490zM53 286l14 82h374l-14 -82h-374z" />
    <glyph glyph-name="currency" unicode="&#xa4;" horiz-adv-x="567" 
d="M279 172q-54 0 -92 23.5t-55 65.5t-9 95q9 50 37 87.5t71 59t94 21.5q55 0 93 -23t55.5 -63.5t8.5 -93.5q-8 -50 -37 -89t-72 -61t-94 -22zM115 142l-49 55l105 92l51 -54zM420 142l-72 85l64 55l72 -85zM280 254q45 0 77.5 29.5t37.5 75.5q6 37 -14 60.5t-57 23.5
q-44 0 -76 -28.5t-38 -73.5q-5 -38 14.5 -62.5t55.5 -24.5zM199 409l-82 94l62 57l84 -96zM431 416l-51 54l106 90l49 -57z" />
    <glyph glyph-name="yen" unicode="&#xa5;" horiz-adv-x="558" 
d="M334 293l-83 32l261 384h113zM186 0l56 336h99l-56 -336h-99zM77 185l10 64h379l-10 -64h-379zM95 293l10 63h379l-10 -63h-379zM239 293l-154 416h109l133 -384z" />
    <glyph glyph-name="brokenbar" unicode="&#xa6;" horiz-adv-x="280" 
d="M117 350l73 440h80l-73 -440h-80zM21 -220l74 440h80l-74 -440h-80z" />
    <glyph glyph-name="section" unicode="&#xa7;" horiz-adv-x="558" 
d="M235 -90q-58 0 -99 18t-64.5 46t-26.5 60l82 21q5 -31 31 -51.5t68 -21.5q55 0 91.5 23.5t43.5 61.5q4 29 -17 48.5t-63 29.5l-62 16q-54 15 -87.5 52.5t-23.5 99.5q12 71 66 111t141 40q52 0 87 -17t54.5 -45.5t25.5 -61.5l-72 -19q-8 33 -38 51.5t-68 18.5
q-45 0 -75.5 -23.5t-36.5 -63.5q-5 -29 11.5 -45t49.5 -24l61 -16q70 -19 104.5 -63t26.5 -97q-11 -64 -65 -106.5t-145 -42.5zM273 158q-51 0 -87 18.5t-55.5 48.5t-22.5 62l57 16q5 -19 20.5 -35.5t38.5 -25.5t50 -9q51 0 85 22.5t40 59.5q5 30 -16 48.5t-64 30.5l-61 16
q-55 15 -88 52t-23 99q12 72 65.5 111.5t141.5 39.5q53 0 90 -17t58 -44.5t27 -60.5l-81 -20q-6 32 -31 50.5t-67 18.5q-48 0 -81 -23.5t-39 -63.5q-5 -28 11.5 -44.5t49.5 -24.5l62 -15q72 -19 105.5 -63.5t24.5 -97.5q-11 -65 -64.5 -107t-145.5 -42z" />
    <glyph glyph-name="dieresis" unicode="&#xa8;" horiz-adv-x="365" 
d="M121 613q-22 0 -38 16t-16 37q0 23 16 38.5t38 15.5t38 -15.5t16 -38.5q0 -21 -16 -37t-38 -16zM371 613q-22 0 -38 16t-16 37q0 23 16 38.5t38 15.5t38 -15.5t16 -38.5q0 -21 -16 -37t-38 -16z" />
    <glyph glyph-name="copyright" unicode="&#xa9;" horiz-adv-x="809" 
d="M390 152q-57 0 -98 26t-59 72.5t-8 106.5q9 56 40 99t76.5 67.5t99.5 24.5q62 0 104.5 -32.5t55.5 -81.5l-72 -18q-8 30 -30.5 46.5t-53.5 16.5q-35 0 -66 -17.5t-51.5 -48.5t-27.5 -72q-9 -53 15.5 -87t72.5 -34q38 0 68.5 21t50.5 52l69 -32q-30 -50 -79.5 -79.5
t-106.5 -29.5zM367 -11q-77 0 -139.5 28t-104.5 78t-58.5 116.5t-4.5 144.5q13 75 51 140t94.5 113t126 75.5t144.5 27.5q77 0 139 -28t103.5 -78.5t59 -117t4.5 -144.5q-13 -75 -51 -139.5t-94.5 -113t-125.5 -75.5t-144 -27zM367 60q84 0 156 38t120.5 105t62.5 153
q15 83 -10.5 147t-82 101t-136.5 37q-84 0 -156.5 -38.5t-121.5 -105t-64 -153.5q-13 -83 12.5 -147t82 -100.5t137.5 -36.5z" />
    <glyph glyph-name="ordfeminine" unicode="&#xaa;" horiz-adv-x="379" 
d="M191 393q-49 0 -82.5 33t-33.5 87q0 52 18.5 96t55 71t88.5 27q48 0 73.5 -30.5t25.5 -81.5q0 -39 -10 -75t-28.5 -65t-45 -45.5t-61.5 -16.5zM216 463q28 0 48.5 16t32 41.5t11.5 50.5q0 30 -16.5 48t-44.5 18q-26 0 -47.5 -15.5t-33 -40t-11.5 -50.5q0 -30 16.5 -49
t44.5 -19zM284 400l6 56l41 244h76l-51 -300h-72z" />
    <glyph glyph-name="guillemotleft" unicode="&#xab;" horiz-adv-x="576" 
d="M262 298l186 202h115l-184 -202h-117zM382 96l-119 202h114l116 -202h-111zM57 298l186 202h115l-184 -202h-117zM177 96l-119 202h114l116 -202h-111z" />
    <glyph glyph-name="logicalnot" unicode="&#xac;" horiz-adv-x="626" 
d="M120 289l14 82h363l-14 -82h-363zM383 182l32 189h82l-32 -189h-82z" />
    <glyph glyph-name="registered" unicode="&#xae;" horiz-adv-x="621" 
d="M303 167q-60 0 -107.5 21t-79 58.5t-43.5 88t-2 110.5q9 58 37 107t70 84.5t93.5 55.5t109.5 20q60 0 107.5 -21t79 -58.5t44 -88t2.5 -111.5q-10 -57 -38 -106t-69.5 -84.5t-93.5 -55.5t-110 -20zM303 225q63 0 116.5 27.5t89.5 77t46 113.5q11 64 -7 111.5t-61 73.5
t-106 26t-116.5 -27.5t-89 -76.5t-46.5 -114q-10 -63 8 -111t60.5 -74t105.5 -26zM216 298l49 292h104q46 0 72 -28t18 -72q-4 -26 -21 -47t-46 -32l47 -113h-62l-42 104h-46l-17 -104h-56zM297 454h50q19 0 36.5 14t20.5 34q3 17 -7.5 27t-32.5 10h-52z" />
    <glyph glyph-name="macron" unicode="&#xaf;" horiz-adv-x="311" 
d="M54 571l14 84h311l-14 -84h-311z" />
    <glyph glyph-name="degree" unicode="&#xb0;" horiz-adv-x="369" 
d="M218 435q-38 0 -66.5 18.5t-42.5 49.5t-10 68q4 41 26.5 72.5t57.5 50t76 18.5q38 0 66.5 -18t43.5 -48t10 -67q-3 -40 -26.5 -72.5t-59 -52t-75.5 -19.5zM224 505q30 0 53 22t27 53q4 26 -11 44t-40 18q-28 0 -51.5 -21t-27.5 -50q-3 -27 11.5 -46.5t38.5 -19.5z" />
    <glyph glyph-name="plusminus" unicode="&#xb1;" horiz-adv-x="626" 
d="M256 150l70 414h80l-69 -414h-81zM97 318l12 78h456l-13 -78h-455zM44 9l13 70h455l-12 -70h-456z" />
    <glyph glyph-name="uni00B2" unicode="&#xb2;" horiz-adv-x="363" 
d="M139 396l-71 45q5 29 32 61t69 57l74 48q25 15 45.5 36t21.5 41q3 22 -11 37t-41 15q-29 0 -51 -17t-33 -41l-80 20q17 44 60.5 76.5t102.5 32.5q72 0 107.5 -37.5t26.5 -94.5q-7 -38 -31.5 -67.5t-66.5 -55.5l-66 -43q-19 -12 -37.5 -28t-32 -36.5t-18.5 -48.5zM57 380
l11 61l61 10h229l-12 -71h-289z" />
    <glyph glyph-name="uni00B3" unicode="&#xb3;" horiz-adv-x="333" 
d="M194 373q-57 0 -92.5 25.5t-40.5 66.5l75 18q5 -9 10.5 -19t16 -16t27.5 -6q35 0 58 19.5t26 48.5q4 24 -15.5 40t-65.5 16h-27l10 54h18q48 0 86 -16t57.5 -45t12.5 -69q-6 -37 -29.5 -63t-56.5 -40t-70 -14zM169 580l8 52h21q41 0 68 14.5t30 44.5q2 17 -11 32t-38 15
q-20 0 -38.5 -10t-33.5 -34l-69 27q14 29 37.5 48t52.5 28.5t57 9.5q41 0 70.5 -15.5t43.5 -42t8 -60.5q-6 -37 -33 -61.5t-66.5 -36t-83.5 -11.5h-23z" />
    <glyph glyph-name="acute" unicode="&#xb4;" horiz-adv-x="304" 
d="M110 568l131 132h116l-143 -132h-104z" />
    <glyph glyph-name="uni00B5" unicode="&#xb5;" horiz-adv-x="561" 
d="M-20 -200l117 700h94l-70 -419l-6 -1l-47 -280h-88zM227 -12q-77 0 -114 57.5t-18 171.5l53 24q-11 -67 -2 -102.5t33 -48.5t57 -14q64 0 107 44.5t56 122.5l40 -5q-20 -120 -74 -185t-138 -65zM364 0l10 92l68 408h95l-84 -500h-89z" />
    <glyph glyph-name="paragraph" unicode="&#xb6;" horiz-adv-x="557" 
d="M205 -84l56 334h-16q-64 0 -109.5 30t-65.5 82t-8 119q11 65 46 114.5t88 77t117 27.5h230l-131 -784h-79l116 694h-49l-115 -694h-80z" />
    <glyph glyph-name="periodcentered" unicode="&#xb7;" horiz-adv-x="256" 
d="M138 267q-18 0 -32.5 9.5t-21.5 25t-4 33.5q4 23 23.5 39.5t42.5 16.5q19 0 32.5 -9t20.5 -24.5t4 -34.5q-4 -23 -23 -39.5t-42 -16.5z" />
    <glyph glyph-name="cedilla" unicode="&#xb8;" horiz-adv-x="211" 
d="M36 -210q-23 0 -49 7.5t-58 28.5l27 47q16 -9 33.5 -16.5t32.5 -7.5q25 0 41.5 11t16.5 33q0 19 -19.5 29t-53.5 14l45 71l62 -11l-21 -28q26 -10 41.5 -30.5t15.5 -44.5q0 -51 -30 -77t-84 -26z" />
    <glyph glyph-name="uni00B9" unicode="&#xb9;" horiz-adv-x="283" 
d="M152 380l63 378l14 42h70l-71 -420h-76zM111 670l12 71q14 -1 33.5 8t38.5 23t34 28l45 -51q-43 -39 -83 -60.5t-80 -18.5z" />
    <glyph glyph-name="ordmasculine" unicode="&#xba;" horiz-adv-x="364" 
d="M213 393q-47 0 -80.5 21t-48.5 57.5t-7 84.5q11 67 60 109t115 42q47 0 80 -21t48 -57.5t7 -84.5q-7 -44 -32 -78.5t-61.5 -53.5t-80.5 -19zM212 464q36 0 64 26t34 66q7 36 -9.5 58t-47.5 22q-36 0 -64 -25.5t-34 -66.5q-6 -35 9.5 -57.5t47.5 -22.5z" />
    <glyph glyph-name="guillemotright" unicode="&#xbb;" horiz-adv-x="576" 
d="M331 298l-187 -202h-114l184 202h117zM210 500l119 -202h-114l-116 202h111zM535 298l-186 -202h-115l184 202h117zM415 500l119 -202h-114l-116 202h111z" />
    <glyph glyph-name="onequarter" unicode="&#xbc;" horiz-adv-x="833" 
d="M135 280l63 378l14 42h70l-71 -420h-76zM94 570l12 71q14 -1 33.5 8t38.5 23t34 28l45 -51q-43 -39 -83 -60.5t-80 -18.5zM109 0l481 700h86l-481 -700h-86zM505 116l-55 32l233 272l40 -44zM440 83l10 65l46 4h300l-11 -69h-345zM620 0l64 376l-1 44h84l-71 -420h-76z
" />
    <glyph glyph-name="onehalf" unicode="&#xbd;" horiz-adv-x="865" 
d="M135 280l63 378l14 42h70l-71 -420h-76zM94 570l12 71q14 -1 33.5 8t38.5 23t34 28l45 -51q-43 -39 -83 -60.5t-80 -18.5zM109 0l481 700h86l-481 -700h-86zM577 16l-71 45q5 29 32 61t69 57l74 48q25 15 45.5 36t21.5 41q3 22 -11 37t-41 15q-29 0 -51 -17t-33 -41
l-80 20q17 44 60.5 76.5t102.5 32.5q72 0 107.5 -37.5t26.5 -94.5q-7 -38 -31.5 -67.5t-66.5 -55.5l-66 -43q-19 -12 -37.5 -28t-32 -36.5t-18.5 -48.5zM495 0l11 61l61 10h229l-12 -71h-289z" />
    <glyph glyph-name="threequarters" unicode="&#xbe;" horiz-adv-x="883" 
d="M177 273q-57 0 -92.5 25.5t-40.5 66.5l75 18q5 -9 10.5 -19t16 -16t27.5 -6q35 0 58 19.5t26 48.5q4 24 -15.5 40t-65.5 16h-27l10 54h18q48 0 86 -16t57.5 -45t12.5 -69q-6 -37 -29.5 -63t-56.5 -40t-70 -14zM152 480l8 52h21q41 0 68 14.5t30 44.5q2 17 -11 32t-38 15
q-20 0 -38.5 -10t-33.5 -34l-69 27q14 29 37.5 48t52.5 28.5t57 9.5q41 0 70.5 -15.5t43.5 -42t8 -60.5q-6 -37 -33 -61.5t-66.5 -36t-83.5 -11.5h-23zM159 0l481 700h86l-481 -700h-86zM555 116l-55 32l233 272l40 -44zM490 83l10 65l46 4h300l-11 -69h-345zM670 0l64 376
l-1 44h84l-71 -420h-76z" />
    <glyph glyph-name="questiondown" unicode="&#xbf;" horiz-adv-x="465" 
d="M298 200l-11 -71l-55 -3q-41 0 -77 -16.5t-59.5 -46.5t-30.5 -71q-8 -52 21.5 -85t85.5 -33q46 0 83.5 21.5t52.5 52.5l85 -33q-29 -58 -87.5 -93.5t-134.5 -35.5q-69 0 -117 28t-70 77t-11 113q10 59 45.5 103t90.5 68.5t122 24.5h67zM294 513q28 0 45.5 -19t14.5 -46
q-2 -26 -20.5 -43t-44.5 -17q-27 0 -44.5 18.5t-14.5 46.5q2 26 20.5 43t43.5 17zM315 307l-26 -165h-97l29 165h94z" />
    <glyph glyph-name="Agrave" unicode="&#xc0;" horiz-adv-x="691" 
d="M-33 0l399 700h106l-392 -700h-113zM540 0l-160 700h95l165 -700h-100zM132 187l15 88h403l-15 -88h-403zM432 747l-93 132h112l80 -132h-99z" />
    <glyph glyph-name="Aacute" unicode="&#xc1;" horiz-adv-x="691" 
d="M-33 0l399 700h106l-392 -700h-113zM540 0l-160 700h95l165 -700h-100zM132 187l15 88h403l-15 -88h-403zM354 747l131 132h116l-143 -132h-104z" />
    <glyph glyph-name="Acircumflex" unicode="&#xc2;" horiz-adv-x="691" 
d="M-33 0l399 700h106l-392 -700h-113zM540 0l-160 700h95l165 -700h-100zM132 187l15 88h403l-15 -88h-403zM249 759l144 132h105v-2l-143 -130h-106zM508 759l-103 131l1 1h93l100 -132h-91z" />
    <glyph glyph-name="Atilde" unicode="&#xc3;" horiz-adv-x="691" 
d="M-33 0l399 700h106l-392 -700h-113zM540 0l-160 700h95l165 -700h-100zM132 187l15 88h403l-15 -88h-403zM514 740q-29 0 -46 11t-26.5 25t-17.5 25t-22 11q-16 0 -27 -8t-19 -29h-70q10 47 40 77t82 30q29 0 45 -11t24.5 -25t17 -25t22.5 -11q19 0 29.5 10.5t15.5 28.5
h71q-14 -45 -41 -77t-78 -32z" />
    <glyph glyph-name="Adieresis" unicode="&#xc4;" horiz-adv-x="691" 
d="M-33 0l399 700h106l-392 -700h-113zM540 0l-160 700h95l165 -700h-100zM132 187l15 88h403l-15 -88h-403zM320 792q-22 0 -38 16t-16 37q0 23 16 38.5t38 15.5t38 -15.5t16 -38.5q0 -21 -16 -37t-38 -16zM570 792q-22 0 -38 16t-16 37q0 23 16 38.5t38 15.5t38 -15.5
t16 -38.5q0 -21 -16 -37t-38 -16z" />
    <glyph glyph-name="Aring" unicode="&#xc5;" horiz-adv-x="691" 
d="M-33 0l399 700h106l-392 -700h-113zM540 0l-160 700h95l165 -700h-100zM132 187l15 88h403l-15 -88h-403zM432 730q-39 0 -65.5 25t-26.5 62q0 32 15 56.5t41 39t59 14.5q38 0 64 -25t26 -63q0 -32 -15 -56.5t-41 -38.5t-57 -14zM435 791q20 0 32.5 13t12.5 36
q0 26 -29 26q-20 0 -32.5 -13t-12.5 -35q0 -12 8 -19.5t21 -7.5z" />
    <glyph glyph-name="AE" unicode="&#xc6;" horiz-adv-x="1007" 
d="M-33 0l536 700h499l-15 -90h-322l-35 -208h289l-14 -88h-290l-37 -224h324l-15 -90h-424l31 187h-269l-144 -187h-114zM289 275h220l56 335h-21z" />
    <glyph glyph-name="Ccedilla" unicode="&#xc7;" horiz-adv-x="724" 
d="M350 -12q-98 0 -168.5 44.5t-103 122.5t-20.5 180q10 81 44 149.5t87.5 119.5t121.5 79.5t145 28.5q67 0 123 -24t96 -66.5t57 -97.5l-92 -34q-13 40 -40.5 69.5t-64.5 46t-80 16.5q-57 0 -107.5 -22t-90 -62t-65.5 -92t-34 -114q-11 -75 10.5 -132.5t69 -90t116.5 -32.5
q47 0 92.5 19t84 52.5t64.5 75.5l84 -45q-35 -57 -88 -100t-115 -67t-126 -24zM285 -210q-23 0 -49 7.5t-58 28.5l27 47q16 -9 33.5 -16.5t32.5 -7.5q25 0 41.5 11t16.5 33q0 19 -19.5 29t-53.5 14l45 71l62 -11l-21 -28q26 -10 41.5 -30.5t15.5 -44.5q0 -51 -30 -77
t-84 -26z" />
    <glyph glyph-name="Egrave" unicode="&#xc8;" horiz-adv-x="591" 
d="M47 0l117 700h421l-14 -90h-324l-35 -208h291l-14 -88h-291l-38 -224h326l-16 -90h-423zM387 747l-93 132h112l80 -132h-99z" />
    <glyph glyph-name="Eacute" unicode="&#xc9;" horiz-adv-x="591" 
d="M47 0l117 700h421l-14 -90h-324l-35 -208h291l-14 -88h-291l-38 -224h326l-16 -90h-423zM310 747l131 132h116l-143 -132h-104z" />
    <glyph glyph-name="Ecircumflex" unicode="&#xca;" horiz-adv-x="591" 
d="M47 0l117 700h421l-14 -90h-324l-35 -208h291l-14 -88h-291l-38 -224h326l-16 -90h-423zM204 759l144 132h105v-2l-143 -130h-106zM463 759l-103 131l1 1h93l100 -132h-91z" />
    <glyph glyph-name="Edieresis" unicode="&#xcb;" horiz-adv-x="591" 
d="M47 0l117 700h421l-14 -90h-324l-35 -208h291l-14 -88h-291l-38 -224h326l-16 -90h-423zM276 792q-22 0 -38 16t-16 37q0 23 16 38.5t38 15.5t38 -15.5t16 -38.5q0 -21 -16 -37t-38 -16zM526 792q-22 0 -38 16t-16 37q0 23 16 38.5t38 15.5t38 -15.5t16 -38.5
q0 -21 -16 -37t-38 -16z" />
    <glyph glyph-name="Igrave" unicode="&#xcc;" horiz-adv-x="276" 
d="M47 0l117 700h98l-117 -700h-98zM224 747l-93 132h112l80 -132h-99z" />
    <glyph glyph-name="Iacute" unicode="&#xcd;" horiz-adv-x="276" 
d="M47 0l117 700h98l-117 -700h-98zM146 747l131 132h116l-143 -132h-104z" />
    <glyph glyph-name="Icircumflex" unicode="&#xce;" horiz-adv-x="276" 
d="M47 0l117 700h98l-117 -700h-98zM41 759l144 132h105v-2l-143 -130h-106zM300 759l-103 131l1 1h93l100 -132h-91z" />
    <glyph glyph-name="Idieresis" unicode="&#xcf;" horiz-adv-x="285" 
d="M170 791q-22 0 -38 16t-16 38t16 38t38 16q23 0 38.5 -16t15.5 -38t-15.5 -38t-38.5 -16zM315 791q-22 0 -38 16t-16 38t16 38t38 16t37.5 -16t15.5 -38t-15.5 -38t-37.5 -16zM52 0l117 700h99l-117 -700h-99z" />
    <glyph glyph-name="Eth" unicode="&#xd0;" horiz-adv-x="750" 
d="M79 311l12 77h322l-13 -77h-321zM105 0l117 700h216q100 0 170 -46t101 -126t13 -184q-12 -76 -47.5 -139t-89.5 -108.5t-121 -71t-143 -25.5h-216zM219 92h115q51 0 99 20t88 56.5t67 84.5t36 103q12 71 -10.5 128t-72 90.5t-118.5 33.5h-118z" />
    <glyph glyph-name="Ntilde" unicode="&#xd1;" horiz-adv-x="774" 
d="M47 0l117 700h101l307 -540l89 540h99l-117 -700h-99l-307 543l-92 -543h-98zM549 734q-29 0 -46 11t-26.5 25t-17.5 25t-22 11q-16 0 -27 -8t-19 -29h-70q10 47 40 77t82 30q29 0 45 -11t24.5 -25t17 -25t22.5 -11q19 0 29.5 10.5t15.5 28.5h71q-14 -45 -41 -77t-78 -32
z" />
    <glyph glyph-name="Ograve" unicode="&#xd2;" horiz-adv-x="780" 
d="M362 -12q-77 0 -139 27t-103 77t-56.5 118.5t-2.5 150.5q18 105 73.5 183.5t138 123t180.5 44.5q78 0 139.5 -27.5t101.5 -77.5t56 -118.5t2 -150.5q-17 -103 -72.5 -182t-137.5 -123.5t-180 -44.5zM366 78q71 0 131.5 34.5t101.5 95.5t54 140q13 80 -8.5 141.5t-71.5 97
t-123 35.5q-71 0 -132.5 -34.5t-103 -95.5t-54.5 -141t9 -141.5t73.5 -96.5t123.5 -35zM467 747l-93 132h112l80 -132h-99z" />
    <glyph glyph-name="Oacute" unicode="&#xd3;" horiz-adv-x="780" 
d="M362 -12q-77 0 -139 27t-103 77t-56.5 118.5t-2.5 150.5q18 105 73.5 183.5t138 123t180.5 44.5q78 0 139.5 -27.5t101.5 -77.5t56 -118.5t2 -150.5q-17 -103 -72.5 -182t-137.5 -123.5t-180 -44.5zM366 78q71 0 131.5 34.5t101.5 95.5t54 140q13 80 -8.5 141.5t-71.5 97
t-123 35.5q-71 0 -132.5 -34.5t-103 -95.5t-54.5 -141t9 -141.5t73.5 -96.5t123.5 -35zM390 747l131 132h116l-143 -132h-104z" />
    <glyph glyph-name="Ocircumflex" unicode="&#xd4;" horiz-adv-x="780" 
d="M362 -12q-77 0 -139 27t-103 77t-56.5 118.5t-2.5 150.5q18 105 73.5 183.5t138 123t180.5 44.5q78 0 139.5 -27.5t101.5 -77.5t56 -118.5t2 -150.5q-17 -103 -72.5 -182t-137.5 -123.5t-180 -44.5zM366 78q71 0 131.5 34.5t101.5 95.5t54 140q13 80 -8.5 141.5t-71.5 97
t-123 35.5q-71 0 -132.5 -34.5t-103 -95.5t-54.5 -141t9 -141.5t73.5 -96.5t123.5 -35zM284 759l144 132h105v-2l-143 -130h-106zM543 759l-103 131l1 1h93l100 -132h-91z" />
    <glyph glyph-name="Otilde" unicode="&#xd5;" horiz-adv-x="780" 
d="M362 -12q-77 0 -139 27t-103 77t-56.5 118.5t-2.5 150.5q18 105 73.5 183.5t138 123t180.5 44.5q78 0 139.5 -27.5t101.5 -77.5t56 -118.5t2 -150.5q-17 -103 -72.5 -182t-137.5 -123.5t-180 -44.5zM366 78q71 0 131.5 34.5t101.5 95.5t54 140q13 80 -8.5 141.5t-71.5 97
t-123 35.5q-71 0 -132.5 -34.5t-103 -95.5t-54.5 -141t9 -141.5t73.5 -96.5t123.5 -35zM549 740q-29 0 -46 11t-26.5 25t-17.5 25t-22 11q-16 0 -27 -8t-19 -29h-70q10 47 40 77t82 30q29 0 45 -11t24.5 -25t17 -25t22.5 -11q19 0 29.5 10.5t15.5 28.5h71q-14 -45 -41 -77
t-78 -32z" />
    <glyph glyph-name="Odieresis" unicode="&#xd6;" horiz-adv-x="780" 
d="M362 -12q-77 0 -139 27t-103 77t-56.5 118.5t-2.5 150.5q18 105 73.5 183.5t138 123t180.5 44.5q78 0 139.5 -27.5t101.5 -77.5t56 -118.5t2 -150.5q-17 -103 -72.5 -182t-137.5 -123.5t-180 -44.5zM366 78q71 0 131.5 34.5t101.5 95.5t54 140q13 80 -8.5 141.5t-71.5 97
t-123 35.5q-71 0 -132.5 -34.5t-103 -95.5t-54.5 -141t9 -141.5t73.5 -96.5t123.5 -35zM356 792q-22 0 -38 16t-16 37q0 23 16 38.5t38 15.5t38 -15.5t16 -38.5q0 -21 -16 -37t-38 -16zM606 792q-22 0 -38 16t-16 37q0 23 16 38.5t38 15.5t38 -15.5t16 -38.5q0 -21 -16 -37
t-38 -16z" />
    <glyph glyph-name="multiply" unicode="&#xd7;" horiz-adv-x="626" 
d="M432 100l-285 339l62 57l286 -340zM148 100l-48 56l392 340l50 -57z" />
    <glyph glyph-name="Oslash" unicode="&#xd8;" horiz-adv-x="794" 
d="M-4 0l727 700h109l-728 -700h-108zM368 -12q-78 0 -140 27t-102.5 77t-56.5 118.5t-2 150.5q18 105 73 183.5t137.5 123t181.5 44.5q77 0 138.5 -27.5t102 -77.5t56.5 -118.5t1 -150.5q-16 -103 -72 -182t-137.5 -123.5t-179.5 -44.5zM372 78q71 0 131 34.5t101 95.5
t54 140q14 80 -8 141.5t-72 97t-122 35.5t-133 -34.5t-102.5 -95.5t-54.5 -141t9 -141.5t73 -96.5t124 -35z" />
    <glyph glyph-name="Ugrave" unicode="&#xd9;" horiz-adv-x="706" 
d="M312 -15q-83 0 -139.5 34t-81.5 94t-12 139l75 448h98l-74 -448q-9 -53 5.5 -92.5t49 -61.5t84.5 -22q54 0 99.5 22.5t75.5 62.5t38 91l74 448h99l-75 -448q-13 -80 -57 -140.5t-110.5 -93.5t-148.5 -33zM439 747l-93 132h112l80 -132h-99z" />
    <glyph glyph-name="Uacute" unicode="&#xda;" horiz-adv-x="706" 
d="M312 -15q-83 0 -139.5 34t-81.5 94t-12 139l75 448h98l-74 -448q-9 -53 5.5 -92.5t49 -61.5t84.5 -22q54 0 99.5 22.5t75.5 62.5t38 91l74 448h99l-75 -448q-13 -80 -57 -140.5t-110.5 -93.5t-148.5 -33zM361 747l131 132h116l-143 -132h-104z" />
    <glyph glyph-name="Ucircumflex" unicode="&#xdb;" horiz-adv-x="706" 
d="M312 -15q-83 0 -139.5 34t-81.5 94t-12 139l75 448h98l-74 -448q-9 -53 5.5 -92.5t49 -61.5t84.5 -22q54 0 99.5 22.5t75.5 62.5t38 91l74 448h99l-75 -448q-13 -80 -57 -140.5t-110.5 -93.5t-148.5 -33zM256 759l144 132h105v-2l-143 -130h-106zM515 759l-103 131l1 1
h93l100 -132h-91z" />
    <glyph glyph-name="Udieresis" unicode="&#xdc;" horiz-adv-x="706" 
d="M312 -15q-83 0 -139.5 34t-81.5 94t-12 139l75 448h98l-74 -448q-9 -53 5.5 -92.5t49 -61.5t84.5 -22q54 0 99.5 22.5t75.5 62.5t38 91l74 448h99l-75 -448q-13 -80 -57 -140.5t-110.5 -93.5t-148.5 -33zM327 792q-22 0 -38 16t-16 37q0 23 16 38.5t38 15.5t38 -15.5
t16 -38.5q0 -21 -16 -37t-38 -16zM577 792q-22 0 -38 16t-16 37q0 23 16 38.5t38 15.5t38 -15.5t16 -38.5q0 -21 -16 -37t-38 -16z" />
    <glyph glyph-name="Yacute" unicode="&#xdd;" horiz-adv-x="616" 
d="M364 291l-85 34l289 375h116zM217 0l56 336h99l-56 -336h-99zM269 291l-184 409h112l164 -375zM314 738l131 132h116l-143 -132h-104z" />
    <glyph glyph-name="Thorn" unicode="&#xde;" horiz-adv-x="592" 
d="M165 135l15 91h158q39 0 70 18.5t51.5 50.5t26.5 72q9 57 -22.5 92.5t-92.5 35.5h-147l16 90h142q66 0 115 -27.5t73 -76.5t16 -114q-7 -66 -42 -119t-90 -83t-122 -30h-167zM49 1l117 700h101l-117 -700h-101z" />
    <glyph glyph-name="germandbls" unicode="&#xdf;" horiz-adv-x="570" 
d="M24 0l86 510q11 63 45.5 108.5t87 69.5t116.5 24q66 0 112 -24.5t68 -70.5t11 -108q-7 -42 -26.5 -76.5t-50.5 -59.5t-70.5 -39t-88.5 -14h-44l14 82h3q55 0 89.5 14.5t53.5 41.5t25 64q9 47 -19 76t-79 29q-37 0 -69.5 -16t-53.5 -43.5t-28 -63.5l-84 -504h-98zM213 0
l15 89h41q62 0 103.5 30.5t49.5 80.5q9 50 -20 78t-88 28h-47l14 80h11q124 0 182.5 -51.5t41.5 -152.5q-14 -87 -80.5 -134.5t-168.5 -47.5h-54z" />
    <glyph glyph-name="agrave" unicode="&#xe0;" 
d="M392 0l11 93l68 407h94l-84 -500h-89zM229 -12q-61 0 -106 29t-68 80.5t-19 118.5q3 59 23 112.5t54.5 94.5t81.5 65t104 24q62 0 102 -28.5t58.5 -79t14.5 -118.5q-3 -73 -24 -129t-55.5 -93.5t-77 -56.5t-88.5 -19zM257 74q40 0 72 18.5t54.5 49t35 68t13.5 76.5
q2 63 -29.5 101.5t-85.5 38.5q-41 0 -74.5 -18t-58 -48t-38 -67t-14.5 -77q-1 -62 33 -102t92 -40zM336 568l-93 132h112l80 -132h-99z" />
    <glyph glyph-name="aacute" unicode="&#xe1;" 
d="M392 0l11 93l68 407h94l-84 -500h-89zM229 -12q-61 0 -106 29t-68 80.5t-19 118.5q3 59 23 112.5t54.5 94.5t81.5 65t104 24q62 0 102 -28.5t58.5 -79t14.5 -118.5q-3 -73 -24 -129t-55.5 -93.5t-77 -56.5t-88.5 -19zM257 74q40 0 72 18.5t54.5 49t35 68t13.5 76.5
q2 63 -29.5 101.5t-85.5 38.5q-41 0 -74.5 -18t-58 -48t-38 -67t-14.5 -77q-1 -62 33 -102t92 -40zM259 568l131 132h116l-143 -132h-104z" />
    <glyph glyph-name="acircumflex" unicode="&#xe2;" 
d="M392 0l11 93l68 407h94l-84 -500h-89zM229 -12q-61 0 -106 29t-68 80.5t-19 118.5q3 59 23 112.5t54.5 94.5t81.5 65t104 24q62 0 102 -28.5t58.5 -79t14.5 -118.5q-3 -73 -24 -129t-55.5 -93.5t-77 -56.5t-88.5 -19zM257 74q40 0 72 18.5t54.5 49t35 68t13.5 76.5
q2 63 -29.5 101.5t-85.5 38.5q-41 0 -74.5 -18t-58 -48t-38 -67t-14.5 -77q-1 -62 33 -102t92 -40zM154 580l144 132h105v-2l-143 -130h-106zM413 580l-103 131l1 1h93l100 -132h-91z" />
    <glyph glyph-name="atilde" unicode="&#xe3;" 
d="M392 0l11 93l68 407h94l-84 -500h-89zM229 -12q-61 0 -106 29t-68 80.5t-19 118.5q3 59 23 112.5t54.5 94.5t81.5 65t104 24q62 0 102 -28.5t58.5 -79t14.5 -118.5q-3 -73 -24 -129t-55.5 -93.5t-77 -56.5t-88.5 -19zM257 74q40 0 72 18.5t54.5 49t35 68t13.5 76.5
q2 63 -29.5 101.5t-85.5 38.5q-41 0 -74.5 -18t-58 -48t-38 -67t-14.5 -77q-1 -62 33 -102t92 -40zM418 561q-29 0 -46 11t-26.5 25t-17.5 25t-22 11q-16 0 -27 -8t-19 -29h-70q10 47 40 77t82 30q29 0 45 -11t24.5 -25t17 -25t22.5 -11q19 0 29.5 10.5t15.5 28.5h71
q-14 -45 -41 -77t-78 -32z" />
    <glyph glyph-name="adieresis" unicode="&#xe4;" 
d="M392 0l11 93l68 407h94l-84 -500h-89zM229 -12q-61 0 -106 29t-68 80.5t-19 118.5q3 59 23 112.5t54.5 94.5t81.5 65t104 24q62 0 102 -28.5t58.5 -79t14.5 -118.5q-3 -73 -24 -129t-55.5 -93.5t-77 -56.5t-88.5 -19zM257 74q40 0 72 18.5t54.5 49t35 68t13.5 76.5
q2 63 -29.5 101.5t-85.5 38.5q-41 0 -74.5 -18t-58 -48t-38 -67t-14.5 -77q-1 -62 33 -102t92 -40zM225 613q-22 0 -38 16t-16 37q0 23 16 38.5t38 15.5t38 -15.5t16 -38.5q0 -21 -16 -37t-38 -16zM475 613q-22 0 -38 16t-16 37q0 23 16 38.5t38 15.5t38 -15.5t16 -38.5
q0 -21 -16 -37t-38 -16z" />
    <glyph glyph-name="aring" unicode="&#xe5;" 
d="M392 0l11 93l68 407h94l-84 -500h-89zM229 -12q-61 0 -106 29t-68 80.5t-19 118.5q3 59 23 112.5t54.5 94.5t81.5 65t104 24q62 0 102 -28.5t58.5 -79t14.5 -118.5q-3 -73 -24 -129t-55.5 -93.5t-77 -56.5t-88.5 -19zM257 74q40 0 72 18.5t54.5 49t35 68t13.5 76.5
q2 63 -29.5 101.5t-85.5 38.5q-41 0 -74.5 -18t-58 -48t-38 -67t-14.5 -77q-1 -62 33 -102t92 -40zM336 551q-39 0 -65.5 25t-26.5 62q0 32 15 56.5t41 39t59 14.5q38 0 64 -25t26 -63q0 -32 -15 -56.5t-41 -38.5t-57 -14zM339 612q20 0 32.5 13t12.5 36q0 26 -29 26
q-20 0 -32.5 -13t-12.5 -35q0 -12 8 -19.5t21 -7.5z" />
    <glyph glyph-name="ae" unicode="&#xe6;" horiz-adv-x="878" 
d="M362 174l8 90q5 56 1 93t-24.5 55.5t-65.5 18.5q-42 0 -75.5 -17.5t-58.5 -50.5l-81 37q43 56 97 84t120 28q69 0 111 -28t56.5 -82.5t1.5 -132.5l-16 -95h-74zM187 -12q-90 0 -134 42t-32 117q12 73 66 111t142 38h180l-12 -69h-147q-64 0 -96.5 -23.5t-39.5 -66.5
q-5 -34 16.5 -54t68.5 -20q64 0 108 47t56 121h78q-18 -113 -85 -178t-169 -65zM580 -12q-75 2 -127 37t-75 95.5t-10 138.5q13 77 54 134.5t102.5 89t133.5 29.5q73 -2 120 -37t65.5 -97t3.5 -146h-388q-5 -50 8.5 -87t44.5 -57.5t74 -20.5q52 -1 92.5 23.5t64.5 63.5
l77 -43q-26 -41 -63.5 -69t-82.5 -41.5t-94 -12.5zM475 303h285q1 60 -26 96.5t-85 37.5q-59 1 -105 -36t-69 -98z" />
    <glyph glyph-name="ccedilla" unicode="&#xe7;" horiz-adv-x="545" 
d="M256 -12q-74 0 -126 33.5t-76.5 91.5t-14.5 131q9 80 48 140t100.5 94t134.5 34q52 0 94.5 -17t72.5 -46.5t43 -70.5l-90 -30q-14 37 -45.5 57t-75.5 20q-47 0 -87 -23t-66.5 -64t-33.5 -94q-8 -49 6 -87t45.5 -60t76.5 -22q48 0 88.5 24.5t65.5 64.5l80 -40
q-40 -66 -102.5 -101t-137.5 -35zM190 -210q-23 0 -49 7.5t-58 28.5l27 47q16 -9 33.5 -16.5t32.5 -7.5q25 0 41.5 11t16.5 33q0 19 -19.5 29t-53.5 14l45 71l62 -11l-21 -28q26 -10 41.5 -30.5t15.5 -44.5q0 -51 -30 -77t-84 -26z" />
    <glyph glyph-name="egrave" unicode="&#xe8;" horiz-adv-x="550" 
d="M252 -12q-75 2 -127 37t-75 95.5t-10 138.5q13 77 54 134.5t102.5 89t133.5 29.5q73 -2 120 -37t65.5 -97t3.5 -146h-387q-6 -50 8 -87t44.5 -57.5t73.5 -20.5q52 -1 92.5 23.5t64.5 63.5l77 -43q-26 -41 -63.5 -69t-82.5 -41.5t-94 -12.5zM147 303h285q1 60 -25.5 96.5
t-85.5 37.5t-105 -36t-69 -98zM343 568l-93 132h112l80 -132h-99z" />
    <glyph glyph-name="eacute" unicode="&#xe9;" horiz-adv-x="550" 
d="M252 -12q-75 2 -127 37t-75 95.5t-10 138.5q13 77 54 134.5t102.5 89t133.5 29.5q73 -2 120 -37t65.5 -97t3.5 -146h-387q-6 -50 8 -87t44.5 -57.5t73.5 -20.5q52 -1 92.5 23.5t64.5 63.5l77 -43q-26 -41 -63.5 -69t-82.5 -41.5t-94 -12.5zM147 303h285q1 60 -25.5 96.5
t-85.5 37.5t-105 -36t-69 -98zM265 568l131 132h116l-143 -132h-104z" />
    <glyph glyph-name="ecircumflex" unicode="&#xea;" horiz-adv-x="550" 
d="M252 -12q-75 2 -127 37t-75 95.5t-10 138.5q13 77 54 134.5t102.5 89t133.5 29.5q73 -2 120 -37t65.5 -97t3.5 -146h-387q-6 -50 8 -87t44.5 -57.5t73.5 -20.5q52 -1 92.5 23.5t64.5 63.5l77 -43q-26 -41 -63.5 -69t-82.5 -41.5t-94 -12.5zM147 303h285q1 60 -25.5 96.5
t-85.5 37.5t-105 -36t-69 -98zM160 580l144 132h105v-2l-143 -130h-106zM419 580l-103 131l1 1h93l100 -132h-91z" />
    <glyph glyph-name="edieresis" unicode="&#xeb;" horiz-adv-x="550" 
d="M252 -12q-75 2 -127 37t-75 95.5t-10 138.5q13 77 54 134.5t102.5 89t133.5 29.5q73 -2 120 -37t65.5 -97t3.5 -146h-387q-6 -50 8 -87t44.5 -57.5t73.5 -20.5q52 -1 92.5 23.5t64.5 63.5l77 -43q-26 -41 -63.5 -69t-82.5 -41.5t-94 -12.5zM147 303h285q1 60 -25.5 96.5
t-85.5 37.5t-105 -36t-69 -98zM232 613q-22 0 -38 16t-16 37q0 23 16 38.5t38 15.5t38 -15.5t16 -38.5q0 -21 -16 -37t-38 -16zM482 613q-22 0 -38 16t-16 37q0 23 16 38.5t38 15.5t38 -15.5t16 -38.5q0 -21 -16 -37t-38 -16z" />
    <glyph glyph-name="igrave" unicode="&#xec;" horiz-adv-x="241" 
d="M30 0l86 500h94l-85 -500h-95zM176 568l-93 132h112l80 -132h-99z" />
    <glyph glyph-name="iacute" unicode="&#xed;" horiz-adv-x="241" 
d="M30 0l86 500h94l-85 -500h-95zM98 568l131 132h116l-143 -132h-104z" />
    <glyph glyph-name="icircumflex" unicode="&#xee;" horiz-adv-x="241" 
d="M30 0l86 500h94l-85 -500h-95zM-7 580l144 132h105v-2l-143 -130h-106zM252 580l-103 131l1 1h93l100 -132h-91z" />
    <glyph glyph-name="idieresis" unicode="&#xef;" horiz-adv-x="241" 
d="M114 613q-22 0 -38 16t-16 37q0 23 16 38.5t38 15.5q23 0 38.5 -15.5t15.5 -38.5q0 -21 -15.5 -37t-38.5 -16zM259 613q-22 0 -38 16t-16 37q0 23 16 38.5t38 15.5t37.5 -15.5t15.5 -38.5q0 -21 -15.5 -37t-37.5 -16zM30 0l86 500h94l-85 -500h-95z" />
    <glyph glyph-name="eth" unicode="&#xf0;" horiz-adv-x="581" 
d="M249 -12q-75 0 -126.5 33t-74.5 91.5t-11 133.5q13 73 51 128t96.5 87t127.5 32q31 0 59.5 -9t51.5 -25t38.5 -37t21.5 -46l49 -133q-13 -75 -53.5 -132.5t-100 -90t-129.5 -32.5zM250 74q46 0 85 22t66 61t35 89q8 48 -4.5 83.5t-42 56.5t-72.5 21q-45 0 -84.5 -22.5
t-66 -61t-35.5 -89.5q-8 -47 4.5 -83t42.5 -56.5t72 -20.5zM532 243l-87 34q13 78 8.5 140t-30.5 108t-76.5 77.5t-129.5 49.5l27 83q80 -15 136.5 -46.5t92 -76.5t53 -102t18.5 -124t-12 -143zM315 513l-23 49l228 126l23 -47z" />
    <glyph glyph-name="ntilde" unicode="&#xf1;" horiz-adv-x="561" 
d="M24 0l84 500h89l-10 -92l-68 -408h-95zM370 0l43 257l96 9l-45 -266h-94zM413 257q11 68 1.5 103.5t-34 49t-59.5 14.5q-63 0 -104.5 -43.5t-55.5 -122.5l-40 3q14 80 46 136t79.5 85.5t107.5 29.5q92 0 135 -56.5t23 -170.5l-4 -28h-95zM438 561q-29 0 -46 11t-26.5 25
t-17.5 25t-22 11q-16 0 -27 -8t-19 -29h-70q10 47 40 77t82 30q29 0 45 -11t24.5 -25t17 -25t22.5 -11q19 0 29.5 10.5t15.5 28.5h71q-14 -45 -41 -77t-78 -32z" />
    <glyph glyph-name="ograve" unicode="&#xf2;" horiz-adv-x="582" 
d="M260 -12q-76 0 -130.5 34.5t-79 95.5t-10.5 141q12 75 52 132t100 89t131 32q76 0 130.5 -34.5t78.5 -95.5t10 -141q-12 -75 -52 -132t-99.5 -89t-130.5 -32zM262 75q46 0 85 22.5t66 62t35 91.5q9 52 -4.5 91t-45 61t-77.5 22t-85.5 -22.5t-66 -62t-35.5 -91.5t5 -91
t46 -61t77 -22zM344 568l-93 132h112l80 -132h-99z" />
    <glyph glyph-name="oacute" unicode="&#xf3;" horiz-adv-x="582" 
d="M260 -12q-76 0 -130.5 34.5t-79 95.5t-10.5 141q12 75 52 132t100 89t131 32q76 0 130.5 -34.5t78.5 -95.5t10 -141q-12 -75 -52 -132t-99.5 -89t-130.5 -32zM262 75q46 0 85 22.5t66 62t35 91.5q9 52 -4.5 91t-45 61t-77.5 22t-85.5 -22.5t-66 -62t-35.5 -91.5t5 -91
t46 -61t77 -22zM267 568l131 132h116l-143 -132h-104z" />
    <glyph glyph-name="ocircumflex" unicode="&#xf4;" horiz-adv-x="582" 
d="M260 -12q-76 0 -130.5 34.5t-79 95.5t-10.5 141q12 75 52 132t100 89t131 32q76 0 130.5 -34.5t78.5 -95.5t10 -141q-12 -75 -52 -132t-99.5 -89t-130.5 -32zM262 75q46 0 85 22.5t66 62t35 91.5q9 52 -4.5 91t-45 61t-77.5 22t-85.5 -22.5t-66 -62t-35.5 -91.5t5 -91
t46 -61t77 -22zM161 580l144 132h105v-2l-143 -130h-106zM420 580l-103 131l1 1h93l100 -132h-91z" />
    <glyph glyph-name="otilde" unicode="&#xf5;" horiz-adv-x="582" 
d="M260 -12q-76 0 -130.5 34.5t-79 95.5t-10.5 141q12 75 52 132t100 89t131 32q76 0 130.5 -34.5t78.5 -95.5t10 -141q-12 -75 -52 -132t-99.5 -89t-130.5 -32zM262 75q46 0 85 22.5t66 62t35 91.5q9 52 -4.5 91t-45 61t-77.5 22t-85.5 -22.5t-66 -62t-35.5 -91.5t5 -91
t46 -61t77 -22zM426 561q-29 0 -46 11t-26.5 25t-17.5 25t-22 11q-16 0 -27 -8t-19 -29h-70q10 47 40 77t82 30q29 0 45 -11t24.5 -25t17 -25t22.5 -11q19 0 29.5 10.5t15.5 28.5h71q-14 -45 -41 -77t-78 -32z" />
    <glyph glyph-name="odieresis" unicode="&#xf6;" horiz-adv-x="582" 
d="M260 -12q-76 0 -130.5 34.5t-79 95.5t-10.5 141q12 75 52 132t100 89t131 32q76 0 130.5 -34.5t78.5 -95.5t10 -141q-12 -75 -52 -132t-99.5 -89t-130.5 -32zM262 75q46 0 85 22.5t66 62t35 91.5q9 52 -4.5 91t-45 61t-77.5 22t-85.5 -22.5t-66 -62t-35.5 -91.5t5 -91
t46 -61t77 -22zM233 613q-22 0 -38 16t-16 37q0 23 16 38.5t38 15.5t38 -15.5t16 -38.5q0 -21 -16 -37t-38 -16zM483 613q-22 0 -38 16t-16 37q0 23 16 38.5t38 15.5t38 -15.5t16 -38.5q0 -21 -16 -37t-38 -16z" />
    <glyph glyph-name="divide" unicode="&#xf7;" horiz-adv-x="626" 
d="M117 257l14 82h394l-14 -82h-394zM293 92q-23 0 -36.5 16.5t-9.5 39.5q2 17 17 30t33 13q22 0 35.5 -16.5t10.5 -38.5q-3 -18 -18 -31t-32 -13zM345 404q-23 0 -36.5 16.5t-10.5 38.5q4 18 18.5 31t32.5 13q23 0 36.5 -16.5t9.5 -39.5q-3 -17 -17.5 -30t-32.5 -13z" />
    <glyph glyph-name="oslash" unicode="&#xf8;" horiz-adv-x="587" 
d="M-17 0l524 500h97l-525 -500h-96zM262 -12q-76 0 -130.5 34.5t-79 95.5t-10.5 141q12 75 52 132t100 89t131 32q76 0 130.5 -34.5t78.5 -95.5t10 -141q-12 -75 -52 -132t-99.5 -89t-130.5 -32zM264 75q46 0 85 22.5t66 62t35 91.5q9 52 -4.5 91t-45 61t-77.5 22
t-85.5 -22.5t-66 -62t-35.5 -91.5t5 -91t46 -61t77 -22z" />
    <glyph glyph-name="ugrave" unicode="&#xf9;" horiz-adv-x="561" 
d="M364 0l10 92l68 408h95l-84 -500h-89zM50 224l47 276h94l-43 -257zM148 243q-11 -68 -1.5 -103.5t34.5 -49t59 -14.5q63 0 104.5 43.5t55.5 122.5l40 -3q-13 -80 -45.5 -136t-79.5 -85.5t-108 -29.5q-91 0 -134 56.5t-24 170.5l4 28h95zM329 568l-93 132h112l80 -132h-99
z" />
    <glyph glyph-name="uacute" unicode="&#xfa;" horiz-adv-x="561" 
d="M364 0l10 92l68 408h95l-84 -500h-89zM50 224l47 276h94l-43 -257zM148 243q-11 -68 -1.5 -103.5t34.5 -49t59 -14.5q63 0 104.5 43.5t55.5 122.5l40 -3q-13 -80 -45.5 -136t-79.5 -85.5t-108 -29.5q-91 0 -134 56.5t-24 170.5l4 28h95zM251 568l131 132h116l-143 -132
h-104z" />
    <glyph glyph-name="ucircumflex" unicode="&#xfb;" horiz-adv-x="561" 
d="M364 0l10 92l68 408h95l-84 -500h-89zM50 224l47 276h94l-43 -257zM148 243q-11 -68 -1.5 -103.5t34.5 -49t59 -14.5q63 0 104.5 43.5t55.5 122.5l40 -3q-13 -80 -45.5 -136t-79.5 -85.5t-108 -29.5q-91 0 -134 56.5t-24 170.5l4 28h95zM146 580l144 132h105v-2
l-143 -130h-106zM405 580l-103 131l1 1h93l100 -132h-91z" />
    <glyph glyph-name="udieresis" unicode="&#xfc;" horiz-adv-x="561" 
d="M364 0l10 92l68 408h95l-84 -500h-89zM50 224l47 276h94l-43 -257zM148 243q-11 -68 -1.5 -103.5t34.5 -49t59 -14.5q63 0 104.5 43.5t55.5 122.5l40 -3q-13 -80 -45.5 -136t-79.5 -85.5t-108 -29.5q-91 0 -134 56.5t-24 170.5l4 28h95zM218 613q-22 0 -38 16t-16 37
q0 23 16 38.5t38 15.5t38 -15.5t16 -38.5q0 -21 -16 -37t-38 -16zM468 613q-22 0 -38 16t-16 37q0 23 16 38.5t38 15.5t38 -15.5t16 -38.5q0 -21 -16 -37t-38 -16z" />
    <glyph glyph-name="yacute" unicode="&#xfd;" horiz-adv-x="539" 
d="M52 -212q-22 0 -48 8.5t-52 21.5l46 76q40 -19 60 -19q26 0 46.5 14.5t34.5 39.5l81 136l251 435h103l-330 -564q-27 -46 -53.5 -79t-59 -51t-79.5 -18zM185 0l-136 500h101l108 -434l19 -66h-92zM247 568l131 132h116l-143 -132h-104z" />
    <glyph glyph-name="thorn" unicode="&#xfe;" 
d="M-9 -200l150 900h95l-150 -900h-95zM360 512q62 0 107 -29t68 -80t19 -119q-3 -59 -23 -112.5t-54.5 -94.5t-81.5 -65t-105 -24q-60 0 -100.5 28.5t-59 79.5t-14.5 118q3 73 24 129t55.5 93.5t77 56.5t87.5 19zM333 426q-40 0 -72 -18.5t-54.5 -49t-35 -68t-13.5 -76.5
q-2 -63 29.5 -101.5t85.5 -38.5q41 0 74.5 18t58 48t38 67t14.5 77q1 62 -33 102t-92 40z" />
    <glyph glyph-name="ydieresis" unicode="&#xff;" horiz-adv-x="539" 
d="M52 -212q-22 0 -48 8.5t-52 21.5l46 76q40 -19 60 -19q26 0 46.5 14.5t34.5 39.5l81 136l251 435h103l-330 -564q-27 -46 -53.5 -79t-59 -51t-79.5 -18zM185 0l-136 500h101l108 -434l19 -66h-92zM213 613q-22 0 -38 16t-16 37q0 23 16 38.5t38 15.5t38 -15.5t16 -38.5
q0 -21 -16 -37t-38 -16zM463 613q-22 0 -38 16t-16 37q0 23 16 38.5t38 15.5t38 -15.5t16 -38.5q0 -21 -16 -37t-38 -16z" />
    <glyph glyph-name="Amacron" unicode="&#x100;" horiz-adv-x="691" 
d="M-33 0l399 700h106l-392 -700h-113zM540 0l-160 700h95l165 -700h-100zM132 187l15 88h403l-15 -88h-403zM274 750l14 84h311l-14 -84h-311z" />
    <glyph glyph-name="amacron" unicode="&#x101;" 
d="M392 0l11 93l68 407h94l-84 -500h-89zM229 -12q-61 0 -106 29t-68 80.5t-19 118.5q3 59 23 112.5t54.5 94.5t81.5 65t104 24q62 0 102 -28.5t58.5 -79t14.5 -118.5q-3 -73 -24 -129t-55.5 -93.5t-77 -56.5t-88.5 -19zM257 74q40 0 72 18.5t54.5 49t35 68t13.5 76.5
q2 63 -29.5 101.5t-85.5 38.5q-41 0 -74.5 -18t-58 -48t-38 -67t-14.5 -77q-1 -62 33 -102t92 -40zM179 571l14 84h311l-14 -84h-311z" />
    <glyph glyph-name="Abreve" unicode="&#x102;" horiz-adv-x="691" 
d="M-33 0l399 700h106l-392 -700h-113zM540 0l-160 700h95l165 -700h-100zM132 187l15 88h403l-15 -88h-403zM435 740q-52 0 -90 18t-55.5 49.5t-11.5 71.5h91q-5 -29 14.5 -47.5t54.5 -18.5q38 0 64.5 19t31.5 47h91q-6 -42 -33 -73t-67.5 -48.5t-89.5 -17.5z" />
    <glyph glyph-name="abreve" unicode="&#x103;" 
d="M392 0l11 93l68 407h94l-84 -500h-89zM229 -12q-61 0 -106 29t-68 80.5t-19 118.5q3 59 23 112.5t54.5 94.5t81.5 65t104 24q62 0 102 -28.5t58.5 -79t14.5 -118.5q-3 -73 -24 -129t-55.5 -93.5t-77 -56.5t-88.5 -19zM257 74q40 0 72 18.5t54.5 49t35 68t13.5 76.5
q2 63 -29.5 101.5t-85.5 38.5q-41 0 -74.5 -18t-58 -48t-38 -67t-14.5 -77q-1 -62 33 -102t92 -40zM339 561q-52 0 -90 18t-55.5 49.5t-11.5 71.5h91q-5 -29 14.5 -47.5t54.5 -18.5q38 0 64.5 19t31.5 47h91q-6 -42 -33 -73t-67.5 -48.5t-89.5 -17.5z" />
    <glyph glyph-name="Aogonek" unicode="&#x104;" horiz-adv-x="691" 
d="M-33 0l399 700h106l-392 -700h-113zM540 0l-160 700h95l165 -700h-100zM132 187l15 88h403l-15 -88h-403zM562 -212q-55 0 -85 25t-25 73q3 21 17.5 42.5t38 42t53.5 38.5l79 -9q-23 -15 -47 -33t-40.5 -38.5t-19.5 -43.5q-4 -24 25 -24q17 0 31 4.5t18 6.5l24 -67
q-15 -9 -33 -13t-36 -4z" />
    <glyph glyph-name="aogonek" unicode="&#x105;" 
d="M392 0l11 93l68 407h94l-84 -500h-89zM229 -12q-61 0 -106 29t-68 80.5t-19 118.5q3 59 23 112.5t54.5 94.5t81.5 65t104 24q62 0 102 -28.5t58.5 -79t14.5 -118.5q-3 -73 -24 -129t-55.5 -93.5t-77 -56.5t-88.5 -19zM257 74q40 0 72 18.5t54.5 49t35 68t13.5 76.5
q2 63 -29.5 101.5t-85.5 38.5q-41 0 -74.5 -18t-58 -48t-38 -67t-14.5 -77q-1 -62 33 -102t92 -40zM401 -212q-55 0 -85 25t-25 73q3 21 17.5 42.5t38 42t53.5 38.5l79 -9q-23 -15 -47 -33t-40.5 -38.5t-19.5 -43.5q-4 -24 25 -24q17 0 31 4.5t18 6.5l24 -67q-15 -9 -33 -13
t-36 -4z" />
    <glyph glyph-name="Cacute" unicode="&#x106;" horiz-adv-x="724" 
d="M350 -12q-98 0 -168.5 44.5t-103 122.5t-20.5 180q10 81 44 149.5t87.5 119.5t121.5 79.5t145 28.5q67 0 123 -24t96 -66.5t57 -97.5l-92 -34q-13 40 -40.5 69.5t-64.5 46t-80 16.5q-57 0 -107.5 -22t-90 -62t-65.5 -92t-34 -114q-11 -75 10.5 -132.5t69 -90t116.5 -32.5
q47 0 92.5 19t84 52.5t64.5 75.5l84 -45q-35 -57 -88 -100t-115 -67t-126 -24zM393 747l131 132h116l-143 -132h-104z" />
    <glyph glyph-name="cacute" unicode="&#x107;" horiz-adv-x="545" 
d="M256 -12q-74 0 -126 33.5t-76.5 91.5t-14.5 131q9 80 48 140t100.5 94t134.5 34q52 0 94.5 -17t72.5 -46.5t43 -70.5l-90 -30q-14 37 -45.5 57t-75.5 20q-47 0 -87 -23t-66.5 -64t-33.5 -94q-8 -49 6 -87t45.5 -60t76.5 -22q48 0 88.5 24.5t65.5 64.5l80 -40
q-40 -66 -102.5 -101t-137.5 -35zM268 568l131 132h116l-143 -132h-104z" />
    <glyph glyph-name="Ccircumflex" unicode="&#x108;" horiz-adv-x="724" 
d="M350 -12q-98 0 -168.5 44.5t-103 122.5t-20.5 180q10 81 44 149.5t87.5 119.5t121.5 79.5t145 28.5q67 0 123 -24t96 -66.5t57 -97.5l-92 -34q-13 40 -40.5 69.5t-64.5 46t-80 16.5q-57 0 -107.5 -22t-90 -62t-65.5 -92t-34 -114q-11 -75 10.5 -132.5t69 -90t116.5 -32.5
q47 0 92.5 19t84 52.5t64.5 75.5l84 -45q-35 -57 -88 -100t-115 -67t-126 -24zM288 759l144 132h105v-2l-143 -130h-106zM547 759l-103 131l1 1h93l100 -132h-91z" />
    <glyph glyph-name="ccircumflex" unicode="&#x109;" horiz-adv-x="545" 
d="M256 -12q-74 0 -126 33.5t-76.5 91.5t-14.5 131q9 80 48 140t100.5 94t134.5 34q52 0 94.5 -17t72.5 -46.5t43 -70.5l-90 -30q-14 37 -45.5 57t-75.5 20q-47 0 -87 -23t-66.5 -64t-33.5 -94q-8 -49 6 -87t45.5 -60t76.5 -22q48 0 88.5 24.5t65.5 64.5l80 -40
q-40 -66 -102.5 -101t-137.5 -35zM163 580l144 132h105v-2l-143 -130h-106zM422 580l-103 131l1 1h93l100 -132h-91z" />
    <glyph glyph-name="Cdotaccent" unicode="&#x10a;" horiz-adv-x="724" 
d="M350 -12q-98 0 -168.5 44.5t-103 122.5t-20.5 180q10 81 44 149.5t87.5 119.5t121.5 79.5t145 28.5q67 0 123 -24t96 -66.5t57 -97.5l-92 -34q-13 40 -40.5 69.5t-64.5 46t-80 16.5q-57 0 -107.5 -22t-90 -62t-65.5 -92t-34 -114q-11 -75 10.5 -132.5t69 -90t116.5 -32.5
q47 0 92.5 19t84 52.5t64.5 75.5l84 -45q-35 -57 -88 -100t-115 -67t-126 -24zM485 785q-23 0 -40 17.5t-17 40.5q0 24 17 40.5t40 16.5q24 0 40.5 -16.5t16.5 -40.5q0 -23 -16.5 -40.5t-40.5 -17.5z" />
    <glyph glyph-name="cdotaccent" unicode="&#x10b;" horiz-adv-x="545" 
d="M256 -12q-74 0 -126 33.5t-76.5 91.5t-14.5 131q9 80 48 140t100.5 94t134.5 34q52 0 94.5 -17t72.5 -46.5t43 -70.5l-90 -30q-14 37 -45.5 57t-75.5 20q-47 0 -87 -23t-66.5 -64t-33.5 -94q-8 -49 6 -87t45.5 -60t76.5 -22q48 0 88.5 24.5t65.5 64.5l80 -40
q-40 -66 -102.5 -101t-137.5 -35zM360 606q-23 0 -40 17.5t-17 40.5q0 24 17 40.5t40 16.5q24 0 40.5 -16.5t16.5 -40.5q0 -23 -16.5 -40.5t-40.5 -17.5z" />
    <glyph glyph-name="Ccaron" unicode="&#x10c;" horiz-adv-x="724" 
d="M350 -12q-98 0 -168.5 44.5t-103 122.5t-20.5 180q10 81 44 149.5t87.5 119.5t121.5 79.5t145 28.5q67 0 123 -24t96 -66.5t57 -97.5l-92 -34q-13 40 -40.5 69.5t-64.5 46t-80 16.5q-57 0 -107.5 -22t-90 -62t-65.5 -92t-34 -114q-11 -75 10.5 -132.5t69 -90t116.5 -32.5
q47 0 92.5 19t84 52.5t64.5 75.5l84 -45q-35 -57 -88 -100t-115 -67t-126 -24zM415 747v2l143 130h106l-144 -132h-105zM414 747l-100 132h91l103 -130l-1 -2h-93z" />
    <glyph glyph-name="ccaron" unicode="&#x10d;" horiz-adv-x="545" 
d="M256 -12q-74 0 -126 33.5t-76.5 91.5t-14.5 131q9 80 48 140t100.5 94t134.5 34q52 0 94.5 -17t72.5 -46.5t43 -70.5l-90 -30q-14 37 -45.5 57t-75.5 20q-47 0 -87 -23t-66.5 -64t-33.5 -94q-8 -49 6 -87t45.5 -60t76.5 -22q48 0 88.5 24.5t65.5 64.5l80 -40
q-40 -66 -102.5 -101t-137.5 -35zM290 568v2l143 130h106l-144 -132h-105zM289 568l-100 132h91l103 -130l-1 -2h-93z" />
    <glyph glyph-name="Dcaron" unicode="&#x10e;" horiz-adv-x="691" 
d="M47 0l117 700h216q99 0 169 -46t101.5 -126t13.5 -184q-13 -76 -48.5 -139t-89 -108.5t-121 -71t-142.5 -25.5h-216zM161 92h114q51 0 99.5 20t88 56.5t67 84.5t36.5 103q12 71 -10.5 128t-72 90.5t-118.5 33.5h-118zM336 747v2l143 130h106l-144 -132h-105zM335 747
l-100 132h91l103 -130l-1 -2h-93z" />
    <glyph glyph-name="dcaron" unicode="&#x10f;" 
d="M392 0l11 93l101 607h94l-117 -700h-89zM229 -12q-61 0 -106 29t-68 80.5t-19 118.5q3 59 23 112.5t54.5 94.5t81.5 65t104 24q62 0 102 -28.5t58.5 -79t14.5 -118.5q-3 -73 -24 -129t-55.5 -93.5t-77 -56.5t-88.5 -19zM257 74q40 0 72 18.5t54.5 49t35 68t13.5 76.5
q2 63 -29.5 101.5t-85.5 38.5q-41 0 -74.5 -18t-58 -48t-38 -67t-14.5 -77q-1 -62 33 -102t92 -40zM591 534l74 165h95l-90 -165h-79z" />
    <glyph glyph-name="Dcroat" unicode="&#x110;" horiz-adv-x="750" 
d="M79 311l12 77h322l-13 -77h-321zM105 0l117 700h216q100 0 170 -46t101 -126t13 -184q-12 -76 -47.5 -139t-89.5 -108.5t-121 -71t-143 -25.5h-216zM219 92h115q51 0 99 20t88 56.5t67 84.5t36 103q12 71 -10.5 128t-72 90.5t-118.5 33.5h-118z" />
    <glyph glyph-name="dcroat" unicode="&#x111;" horiz-adv-x="588" 
d="M326 564l12 69h321l-12 -69h-321zM392 0l11 93l101 607h94l-117 -700h-89zM229 -12q-61 0 -106 29t-68 80.5t-19 118.5q3 59 23 112.5t54.5 94.5t81.5 65t104 24q62 0 102 -28.5t58.5 -79t14.5 -118.5q-3 -73 -24 -129t-55.5 -93.5t-77 -56.5t-88.5 -19zM257 74
q40 0 72 18.5t54.5 49t35 68t13.5 76.5q2 63 -29.5 101.5t-85.5 38.5q-41 0 -74.5 -18t-58 -48t-38 -67t-14.5 -77q-1 -62 33 -102t92 -40z" />
    <glyph glyph-name="Emacron" unicode="&#x112;" horiz-adv-x="591" 
d="M47 0l117 700h421l-14 -90h-324l-35 -208h291l-14 -88h-291l-38 -224h326l-16 -90h-423zM230 750l14 84h311l-14 -84h-311z" />
    <glyph glyph-name="emacron" unicode="&#x113;" horiz-adv-x="550" 
d="M252 -12q-75 2 -127 37t-75 95.5t-10 138.5q13 77 54 134.5t102.5 89t133.5 29.5q73 -2 120 -37t65.5 -97t3.5 -146h-387q-6 -50 8 -87t44.5 -57.5t73.5 -20.5q52 -1 92.5 23.5t64.5 63.5l77 -43q-26 -41 -63.5 -69t-82.5 -41.5t-94 -12.5zM147 303h285q1 60 -25.5 96.5
t-85.5 37.5t-105 -36t-69 -98zM186 571l14 84h311l-14 -84h-311z" />
    <glyph glyph-name="Edotaccent" unicode="&#x116;" horiz-adv-x="591" 
d="M47 0l117 700h421l-14 -90h-324l-35 -208h291l-14 -88h-291l-38 -224h326l-16 -90h-423zM401 785q-23 0 -40 17.5t-17 40.5q0 24 17 40.5t40 16.5q24 0 40.5 -16.5t16.5 -40.5q0 -23 -16.5 -40.5t-40.5 -17.5z" />
    <glyph glyph-name="edotaccent" unicode="&#x117;" horiz-adv-x="550" 
d="M252 -12q-75 2 -127 37t-75 95.5t-10 138.5q13 77 54 134.5t102.5 89t133.5 29.5q73 -2 120 -37t65.5 -97t3.5 -146h-387q-6 -50 8 -87t44.5 -57.5t73.5 -20.5q52 -1 92.5 23.5t64.5 63.5l77 -43q-26 -41 -63.5 -69t-82.5 -41.5t-94 -12.5zM147 303h285q1 60 -25.5 96.5
t-85.5 37.5t-105 -36t-69 -98zM357 606q-23 0 -40 17.5t-17 40.5q0 24 17 40.5t40 16.5q24 0 40.5 -16.5t16.5 -40.5q0 -23 -16.5 -40.5t-40.5 -17.5z" />
    <glyph glyph-name="Eogonek" unicode="&#x118;" horiz-adv-x="591" 
d="M47 0l117 700h421l-14 -90h-324l-35 -208h291l-14 -88h-291l-38 -224h326l-16 -90h-423zM392 -212q-55 0 -85 25t-25 73q3 21 17.5 42.5t38 42t53.5 38.5l79 -9q-23 -15 -47 -33t-40.5 -38.5t-19.5 -43.5q-4 -24 25 -24q17 0 31 4.5t18 6.5l24 -67q-15 -9 -33 -13t-36 -4
z" />
    <glyph glyph-name="eogonek" unicode="&#x119;" horiz-adv-x="550" 
d="M252 -12q-75 2 -127 37t-75 95.5t-10 138.5q13 77 54 134.5t102.5 89t133.5 29.5q73 -2 120 -37t65.5 -97t3.5 -146h-387q-6 -50 8 -87t44.5 -57.5t73.5 -20.5q52 -1 92.5 23.5t64.5 63.5l77 -43q-26 -41 -63.5 -69t-82.5 -41.5t-94 -12.5zM147 303h285q1 60 -25.5 96.5
t-85.5 37.5t-105 -36t-69 -98zM390 -200q-36 0 -64.5 10t-44.5 29t-16 44q0 26 12 50t33.5 46.5t49 41.5t56.5 34l24 -3q-44 -35 -68.5 -74t-24.5 -73q0 -15 10 -24t25 -9q17 0 33.5 3.5t27.5 8.5l25 -67q-17 -8 -38 -12.5t-40 -4.5z" />
    <glyph glyph-name="Ecaron" unicode="&#x11a;" horiz-adv-x="591" 
d="M47 0l117 700h421l-14 -90h-324l-35 -208h291l-14 -88h-291l-38 -224h326l-16 -90h-423zM331 747v2l143 130h106l-144 -132h-105zM330 747l-100 132h91l103 -130l-1 -2h-93z" />
    <glyph glyph-name="ecaron" unicode="&#x11b;" horiz-adv-x="550" 
d="M252 -12q-75 2 -127 37t-75 95.5t-10 138.5q13 77 54 134.5t102.5 89t133.5 29.5q73 -2 120 -37t65.5 -97t3.5 -146h-387q-6 -50 8 -87t44.5 -57.5t73.5 -20.5q52 -1 92.5 23.5t64.5 63.5l77 -43q-26 -41 -63.5 -69t-82.5 -41.5t-94 -12.5zM147 303h285q1 60 -25.5 96.5
t-85.5 37.5t-105 -36t-69 -98zM287 568v2l143 130h106l-144 -132h-105zM286 568l-100 132h91l103 -130l-1 -2h-93z" />
    <glyph glyph-name="Gcircumflex" unicode="&#x11c;" horiz-adv-x="756" 
d="M367 -12q-104 0 -178 44.5t-108.5 122.5t-22.5 179q10 81 45.5 150t91 120t127.5 79.5t154 28.5q59 0 111 -19t91 -52.5t60 -75.5l-87 -47q-15 32 -42.5 55t-62.5 36t-75 13q-58 0 -111 -21.5t-95.5 -61t-70.5 -92t-36 -115.5q-10 -75 13 -132t75 -89.5t126 -32.5
q65 0 120 27t92 74.5t50 107.5l96 5q-10 -64 -41.5 -119t-79.5 -96.5t-109.5 -65t-132.5 -23.5zM463 280l14 82h265l-12 -70l-52 -12h-215zM306 780l144 132h105v-2l-143 -130h-106zM565 780l-103 131l1 1h93l100 -132h-91z" />
    <glyph glyph-name="gcircumflex" unicode="&#x11d;" horiz-adv-x="589" 
d="M201 -212q-51 0 -91.5 10t-67 22.5t-40.5 21.5l45 73q13 -7 34.5 -17.5t52.5 -18t69 -7.5q70 0 123 43t68 134l76 451h94l-75 -451q-14 -86 -54 -144.5t-99.5 -87.5t-134.5 -29zM231 7q-69 0 -116.5 33t-67.5 92t-6 136q13 74 49.5 128.5t90.5 85t119 30.5
q67 0 109.5 -33t58.5 -91.5t3 -134.5q-13 -73 -47 -129t-83 -86.5t-110 -30.5zM258 87q42 0 78 22.5t61 61t33 89.5q8 49 -3.5 87t-40 59.5t-70.5 21.5q-44 0 -81.5 -21.5t-63.5 -60t-35 -88.5q-8 -50 5 -88.5t43 -60.5t74 -22zM153 580l144 132h105v-2l-143 -130h-106z
M412 580l-103 131l1 1h93l100 -132h-91z" />
    <glyph glyph-name="Gbreve" unicode="&#x11e;" horiz-adv-x="756" 
d="M367 -12q-104 0 -178 44.5t-108.5 122.5t-22.5 179q10 81 45.5 150t91 120t127.5 79.5t154 28.5q59 0 111 -19t91 -52.5t60 -75.5l-87 -47q-15 32 -42.5 55t-62.5 36t-75 13q-58 0 -111 -21.5t-95.5 -61t-70.5 -92t-36 -115.5q-10 -75 13 -132t75 -89.5t126 -32.5
q65 0 120 27t92 74.5t50 107.5l96 5q-10 -64 -41.5 -119t-79.5 -96.5t-109.5 -65t-132.5 -23.5zM463 280l14 82h265l-12 -70l-52 -12h-215zM492 761q-52 0 -90 18t-55.5 49.5t-11.5 71.5h91q-5 -29 14.5 -47.5t54.5 -18.5q38 0 64.5 19t31.5 47h91q-6 -42 -33 -73
t-67.5 -48.5t-89.5 -17.5z" />
    <glyph glyph-name="gbreve" unicode="&#x11f;" horiz-adv-x="589" 
d="M201 -212q-51 0 -91.5 10t-67 22.5t-40.5 21.5l45 73q13 -7 34.5 -17.5t52.5 -18t69 -7.5q70 0 123 43t68 134l76 451h94l-75 -451q-14 -86 -54 -144.5t-99.5 -87.5t-134.5 -29zM231 7q-69 0 -116.5 33t-67.5 92t-6 136q13 74 49.5 128.5t90.5 85t119 30.5
q67 0 109.5 -33t58.5 -91.5t3 -134.5q-13 -73 -47 -129t-83 -86.5t-110 -30.5zM258 87q42 0 78 22.5t61 61t33 89.5q8 49 -3.5 87t-40 59.5t-70.5 21.5q-44 0 -81.5 -21.5t-63.5 -60t-35 -88.5q-8 -50 5 -88.5t43 -60.5t74 -22zM339 561q-52 0 -90 18t-55.5 49.5t-11.5 71.5
h91q-5 -29 14.5 -47.5t54.5 -18.5q38 0 64.5 19t31.5 47h91q-6 -42 -33 -73t-67.5 -48.5t-89.5 -17.5z" />
    <glyph glyph-name="Gdotaccent" unicode="&#x120;" horiz-adv-x="756" 
d="M367 -12q-104 0 -178 44.5t-108.5 122.5t-22.5 179q10 81 45.5 150t91 120t127.5 79.5t154 28.5q59 0 111 -19t91 -52.5t60 -75.5l-87 -47q-15 32 -42.5 55t-62.5 36t-75 13q-58 0 -111 -21.5t-95.5 -61t-70.5 -92t-36 -115.5q-10 -75 13 -132t75 -89.5t126 -32.5
q65 0 120 27t92 74.5t50 107.5l96 5q-10 -64 -41.5 -119t-79.5 -96.5t-109.5 -65t-132.5 -23.5zM463 280l14 82h265l-12 -70l-52 -12h-215zM504 806q-23 0 -40 17.5t-17 40.5q0 24 17 40.5t40 16.5q24 0 40.5 -16.5t16.5 -40.5q0 -23 -16.5 -40.5t-40.5 -17.5z" />
    <glyph glyph-name="gdotaccent" unicode="&#x121;" horiz-adv-x="589" 
d="M201 -212q-51 0 -91.5 10t-67 22.5t-40.5 21.5l45 73q13 -7 34.5 -17.5t52.5 -18t69 -7.5q70 0 123 43t68 134l76 451h94l-75 -451q-14 -86 -54 -144.5t-99.5 -87.5t-134.5 -29zM231 7q-69 0 -116.5 33t-67.5 92t-6 136q13 74 49.5 128.5t90.5 85t119 30.5
q67 0 109.5 -33t58.5 -91.5t3 -134.5q-13 -73 -47 -129t-83 -86.5t-110 -30.5zM258 87q42 0 78 22.5t61 61t33 89.5q8 49 -3.5 87t-40 59.5t-70.5 21.5q-44 0 -81.5 -21.5t-63.5 -60t-35 -88.5q-8 -50 5 -88.5t43 -60.5t74 -22zM350 606q-23 0 -40 17.5t-17 40.5
q0 24 17 40.5t40 16.5q24 0 40.5 -16.5t16.5 -40.5q0 -23 -16.5 -40.5t-40.5 -17.5z" />
    <glyph glyph-name="uni0122" unicode="&#x122;" horiz-adv-x="756" 
d="M367 -12q-104 0 -178 44.5t-108.5 122.5t-22.5 179q10 81 45.5 150t91 120t127.5 79.5t154 28.5q59 0 111 -19t91 -52.5t60 -75.5l-87 -47q-15 32 -42.5 55t-62.5 36t-75 13q-58 0 -111 -21.5t-95.5 -61t-70.5 -92t-36 -115.5q-10 -75 13 -132t75 -89.5t126 -32.5
q65 0 120 27t92 74.5t50 107.5l96 5q-10 -64 -41.5 -119t-79.5 -96.5t-109.5 -65t-132.5 -23.5zM463 280l14 82h265l-12 -70l-52 -12h-215zM242 -200l70 143h101l-92 -143h-79z" />
    <glyph glyph-name="uni0123" unicode="&#x123;" horiz-adv-x="589" 
d="M201 -212q-51 0 -91.5 10t-67 22.5t-40.5 21.5l45 73q13 -7 34.5 -17.5t52.5 -18t69 -7.5q70 0 123 43t68 134l76 451h94l-75 -451q-14 -86 -54 -144.5t-99.5 -87.5t-134.5 -29zM231 7q-69 0 -116.5 33t-67.5 92t-6 136q13 74 49.5 128.5t90.5 85t119 30.5
q67 0 109.5 -33t58.5 -91.5t3 -134.5q-13 -73 -47 -129t-83 -86.5t-110 -30.5zM258 87q42 0 78 22.5t61 61t33 89.5q8 49 -3.5 87t-40 59.5t-70.5 21.5q-44 0 -81.5 -21.5t-63.5 -60t-35 -88.5q-8 -50 5 -88.5t43 -60.5t74 -22zM477 712l-95 -132h-104l120 132h79z" />
    <glyph glyph-name="Hcircumflex" unicode="&#x124;" horiz-adv-x="751" 
d="M47 0l117 700h98l-117 -700h-98zM522 0l117 700h98l-117 -700h-98zM182 315l14 90h424l-14 -90h-424zM281 780l144 132h105v-2l-143 -130h-106zM540 780l-103 131l1 1h93l100 -132h-91z" />
    <glyph glyph-name="hcircumflex" unicode="&#x125;" horiz-adv-x="561" 
d="M25 0l116 700h95l-117 -700h-94zM370 0l43 257l98 19l-46 -276h-95zM413 257q12 68 2 103.5t-34.5 49t-59.5 14.5q-63 0 -104.5 -43.5t-54.5 -122.5l-41 3q14 80 46 136t79.5 85.5t107.5 29.5q92 0 135.5 -56.5t23.5 -170.5l-5 -28h-95zM20 780l144 132h105v-2l-143 -130
h-106zM279 780l-103 131l1 1h93l100 -132h-91z" />
    <glyph glyph-name="Hbar" unicode="&#x126;" horiz-adv-x="751" 
d="M47 501l13 78h741l-13 -78h-741zM47 0l117 700h98l-117 -700h-98zM522 0l117 700h98l-117 -700h-98zM182 315l14 90h424l-14 -90h-424z" />
    <glyph glyph-name="hbar" unicode="&#x127;" horiz-adv-x="561" 
d="M53 564l11 69h321l-11 -69h-321zM25 0l116 700h95l-117 -700h-94zM370 0l43 257l98 19l-46 -276h-95zM413 257q12 68 2 103.5t-34.5 49t-59.5 14.5q-63 0 -104.5 -43.5t-54.5 -122.5l-41 3q14 80 46 136t79.5 85.5t107.5 29.5q92 0 135.5 -56.5t23.5 -170.5l-5 -28h-95z
" />
    <glyph glyph-name="Imacron" unicode="&#x12a;" horiz-adv-x="276" 
d="M47 0l117 700h98l-117 -700h-98zM66 750l14 84h311l-14 -84h-311z" />
    <glyph glyph-name="imacron" unicode="&#x12b;" horiz-adv-x="241" 
d="M30 0l86 500h94l-85 -500h-95zM33 571l14 84h276l-14 -84h-276z" />
    <glyph glyph-name="Iogonek" unicode="&#x12e;" horiz-adv-x="276" 
d="M47 0l117 700h98l-117 -700h-98zM68 -212q-55 0 -85 25t-25 73q3 21 17.5 42.5t38 42t53.5 38.5l79 -9q-23 -15 -47 -33t-40.5 -38.5t-19.5 -43.5q-4 -24 25 -24q17 0 31 4.5t18 6.5l24 -67q-15 -9 -33 -13t-36 -4z" />
    <glyph glyph-name="iogonek" unicode="&#x12f;" horiz-adv-x="241" 
d="M30 0l86 500h94l-85 -500h-95zM190 606q-23 0 -40 17.5t-17 40.5q0 24 17 40.5t40 16.5q24 0 40.5 -16.5t16.5 -40.5q0 -23 -16.5 -40.5t-40.5 -17.5zM46 -212q-55 0 -85 25t-25 73q3 21 17.5 42.5t38 42t53.5 38.5l79 -9q-23 -15 -47 -33t-40.5 -38.5t-19.5 -43.5
q-4 -24 25 -24q17 0 31 4.5t18 6.5l24 -67q-15 -9 -33 -13t-36 -4z" />
    <glyph glyph-name="Idotaccent" unicode="&#x130;" horiz-adv-x="276" 
d="M47 0l117 700h98l-117 -700h-98zM238 785q-23 0 -40 17.5t-17 40.5q0 24 17 40.5t40 16.5q24 0 40.5 -16.5t16.5 -40.5q0 -23 -16.5 -40.5t-40.5 -17.5z" />
    <glyph glyph-name="dotlessi" unicode="&#x131;" horiz-adv-x="241" 
d="M30 0l86 500h94l-85 -500h-95z" />
    <glyph glyph-name="IJ" unicode="&#x132;" horiz-adv-x="801" 
d="M47 0l117 700h98l-117 -700h-98zM445 -12q-42 0 -74 12t-54 32.5t-35.5 45.5t-19.5 50l82 33q9 -21 22 -40t33 -31t49 -12q37 0 73.5 16.5t64 54t38.5 100.5l75 451h98l-82 -492q-9 -56 -35 -97t-63.5 -68.5t-81.5 -41t-90 -13.5z" />
    <glyph glyph-name="ij" unicode="&#x133;" horiz-adv-x="503" 
d="M30 0l86 500h94l-85 -500h-95zM190 606q-23 0 -40 17.5t-17 40.5q0 24 17 40.5t40 16.5q24 0 40.5 -16.5t16.5 -40.5q0 -23 -16.5 -40.5t-40.5 -17.5zM207 -215q-22 0 -46 7.5t-49 20.5l47 78q39 -19 58 -19q66 0 80 82l91 546h95l-93 -552q-14 -81 -60 -122t-123 -41z
M463 606q-23 0 -40 17.5t-17 40.5q0 24 17 40.5t40 16.5q24 0 40.5 -16.5t16.5 -40.5q0 -23 -16.5 -40.5t-40.5 -17.5z" />
    <glyph glyph-name="Jcircumflex" unicode="&#x134;" horiz-adv-x="525" 
d="M169 -12q-42 0 -74 12t-54 32.5t-35.5 45.5t-19.5 50l82 33q9 -21 22 -40t33 -31t49 -12q37 0 73.5 16.5t64 54t38.5 100.5l75 451h98l-82 -492q-9 -56 -35 -97t-63.5 -68.5t-81.5 -41t-90 -13.5zM299 750l144 132h105v-2l-143 -130h-106zM558 750l-103 131l1 1h93
l100 -132h-91z" />
    <glyph glyph-name="jcircumflex" unicode="&#x135;" horiz-adv-x="262" 
d="M-34 -215q-22 0 -46 7.5t-49 20.5l47 78q39 -19 58 -19q66 0 80 82l91 546h95l-93 -552q-14 -81 -60 -122t-123 -41zM25 580l144 132h105v-2l-143 -130h-106zM284 580l-103 131l1 1h93l100 -132h-91z" />
    <glyph glyph-name="uni0136" unicode="&#x136;" horiz-adv-x="625" 
d="M150 222l-14 104l419 374h128zM47 0l117 700h95l-117 -700h-95zM458 0l-227 356l75 62l270 -418h-118zM147 -200l70 143h101l-92 -143h-79z" />
    <glyph glyph-name="uni0137" unicode="&#x137;" horiz-adv-x="499" 
d="M24 0l117 700h95l-117 -700h-95zM145 151l-52 65l310 284h120zM343 0l-139 274l70 66l179 -340h-110zM89 -200l70 143h101l-92 -143h-79z" />
    <glyph glyph-name="Lacute" unicode="&#x139;" horiz-adv-x="524" 
d="M47 0l117 700h98l-102 -610h325l-15 -90h-423zM146 747l131 132h116l-143 -132h-104z" />
    <glyph glyph-name="lacute" unicode="&#x13a;" horiz-adv-x="229" 
d="M24 0l119 700h94l-118 -700h-95zM121 738l131 132h116l-143 -132h-104z" />
    <glyph glyph-name="uni013B" unicode="&#x13b;" horiz-adv-x="524" 
d="M47 0l117 700h98l-102 -610h325l-15 -90h-423zM120 -200l70 143h101l-92 -143h-79z" />
    <glyph glyph-name="uni013C" unicode="&#x13c;" horiz-adv-x="229" 
d="M24 0l119 700h94l-118 -700h-95zM-52 -200l70 143h101l-92 -143h-79z" />
    <glyph glyph-name="Lcaron" unicode="&#x13d;" horiz-adv-x="524" 
d="M47 0l117 700h98l-102 -610h325l-15 -90h-423zM297 593l74 165h95l-90 -165h-79z" />
    <glyph glyph-name="lcaron" unicode="&#x13e;" horiz-adv-x="229" 
d="M24 0l119 700h94l-118 -700h-95zM232 534l74 165h95l-90 -165h-79z" />
    <glyph glyph-name="Lslash" unicode="&#x141;" horiz-adv-x="525" 
d="M4 253l13 84l318 140l-13 -84zM47 0l117 700h99l-102 -610h324l-15 -90h-423z" />
    <glyph glyph-name="lslash" unicode="&#x142;" horiz-adv-x="283" 
d="M16 250l12 81l275 126l-12 -80zM52 0l118 700h95l-119 -700h-94z" />
    <glyph glyph-name="Nacute" unicode="&#x143;" horiz-adv-x="774" 
d="M47 0l117 700h101l307 -540l89 540h99l-117 -700h-99l-307 543l-92 -543h-98zM389 741l131 132h116l-143 -132h-104z" />
    <glyph glyph-name="nacute" unicode="&#x144;" horiz-adv-x="561" 
d="M24 0l84 500h89l-10 -92l-68 -408h-95zM370 0l43 257l96 9l-45 -266h-94zM413 257q11 68 1.5 103.5t-34 49t-59.5 14.5q-63 0 -104.5 -43.5t-55.5 -122.5l-40 3q14 80 46 136t79.5 85.5t107.5 29.5q92 0 135 -56.5t23 -170.5l-4 -28h-95zM279 568l131 132h116l-143 -132
h-104z" />
    <glyph glyph-name="uni0145" unicode="&#x145;" horiz-adv-x="774" 
d="M47 0l117 700h101l307 -540l89 540h99l-117 -700h-99l-307 543l-92 -543h-98zM222 -200l70 143h101l-92 -143h-79z" />
    <glyph glyph-name="uni0146" unicode="&#x146;" horiz-adv-x="561" 
d="M24 0l84 500h89l-10 -92l-68 -408h-95zM370 0l43 257l96 9l-45 -266h-94zM413 257q11 68 1.5 103.5t-34 49t-59.5 14.5q-63 0 -104.5 -43.5t-55.5 -122.5l-40 3q14 80 46 136t79.5 85.5t107.5 29.5q92 0 135 -56.5t23 -170.5l-4 -28h-95zM121 -200l70 143h101l-92 -143
h-79z" />
    <glyph glyph-name="Ncaron" unicode="&#x147;" horiz-adv-x="774" 
d="M47 0l117 700h101l307 -540l89 540h99l-117 -700h-99l-307 543l-92 -543h-98zM411 741v2l143 130h106l-144 -132h-105zM410 741l-100 132h91l103 -130l-1 -2h-93z" />
    <glyph glyph-name="ncaron" unicode="&#x148;" horiz-adv-x="561" 
d="M24 0l84 500h89l-10 -92l-68 -408h-95zM370 0l43 257l96 9l-45 -266h-94zM413 257q11 68 1.5 103.5t-34 49t-59.5 14.5q-63 0 -104.5 -43.5t-55.5 -122.5l-40 3q14 80 46 136t79.5 85.5t107.5 29.5q92 0 135 -56.5t23 -170.5l-4 -28h-95zM301 568v2l143 130h106
l-144 -132h-105zM300 568l-100 132h91l103 -130l-1 -2h-93z" />
    <glyph glyph-name="Eng" unicode="&#x14a;" horiz-adv-x="774" 
d="M455 -213q-23 0 -48 8t-51 21l45 76q20 -10 34.5 -13.5t22.5 -3.5q33 0 54.5 21.5t27.5 61.5l91 544h96l-92 -554q-14 -80 -59 -120.5t-121 -40.5zM47 0l117 700h101l307 -540l89 540h99l-117 -700h-99l-307 543l-92 -543h-98z" />
    <glyph glyph-name="eng" unicode="&#x14b;" horiz-adv-x="561" 
d="M277 -213q-23 0 -47.5 8t-50.5 21l46 76q20 -10 33.5 -13.5t21.5 -3.5q69 0 83 78l7 45h94l-9 -52q-15 -80 -58.5 -119.5t-119.5 -39.5zM24 -2l84 500h89l-10 -92l-68 -408h-95zM370 -2l43 257l96 9l-45 -266h-94zM413 255q11 68 1.5 103.5t-34 49t-59.5 13.5
q-63 1 -104.5 -42.5t-55.5 -122.5l-40 3q14 79 46 135.5t79.5 86t107.5 29.5q92 0 135 -56.5t23 -171.5l-4 -27h-95z" />
    <glyph glyph-name="Omacron" unicode="&#x14c;" horiz-adv-x="780" 
d="M362 -12q-77 0 -139 27t-103 77t-56.5 118.5t-2.5 150.5q18 105 73.5 183.5t138 123t180.5 44.5q78 0 139.5 -27.5t101.5 -77.5t56 -118.5t2 -150.5q-17 -103 -72.5 -182t-137.5 -123.5t-180 -44.5zM366 78q71 0 131.5 34.5t101.5 95.5t54 140q13 80 -8.5 141.5t-71.5 97
t-123 35.5q-71 0 -132.5 -34.5t-103 -95.5t-54.5 -141t9 -141.5t73.5 -96.5t123.5 -35zM310 750l14 84h311l-14 -84h-311z" />
    <glyph glyph-name="omacron" unicode="&#x14d;" horiz-adv-x="582" 
d="M260 -12q-76 0 -130.5 34.5t-79 95.5t-10.5 141q12 75 52 132t100 89t131 32q76 0 130.5 -34.5t78.5 -95.5t10 -141q-12 -75 -52 -132t-99.5 -89t-130.5 -32zM262 75q46 0 85 22.5t66 62t35 91.5q9 52 -4.5 91t-45 61t-77.5 22t-85.5 -22.5t-66 -62t-35.5 -91.5t5 -91
t46 -61t77 -22zM187 571l14 84h311l-14 -84h-311z" />
    <glyph glyph-name="Ohungarumlaut" unicode="&#x150;" horiz-adv-x="780" 
d="M362 -12q-77 0 -139 27t-103 77t-56.5 118.5t-2.5 150.5q18 105 73.5 183.5t138 123t180.5 44.5q78 0 139.5 -27.5t101.5 -77.5t56 -118.5t2 -150.5q-17 -103 -72.5 -182t-137.5 -123.5t-180 -44.5zM366 78q71 0 131.5 34.5t101.5 95.5t54 140q13 80 -8.5 141.5t-71.5 97
t-123 35.5q-71 0 -132.5 -34.5t-103 -95.5t-54.5 -141t9 -141.5t73.5 -96.5t123.5 -35zM496 747l122 132h115l-135 -132h-102zM309 747l121 132h114l-133 -132h-102z" />
    <glyph glyph-name="ohungarumlaut" unicode="&#x151;" horiz-adv-x="582" 
d="M260 -12q-76 0 -130.5 34.5t-79 95.5t-10.5 141q12 75 52 132t100 89t131 32q76 0 130.5 -34.5t78.5 -95.5t10 -141q-12 -75 -52 -132t-99.5 -89t-130.5 -32zM262 75q46 0 85 22.5t66 62t35 91.5q9 52 -4.5 91t-45 61t-77.5 22t-85.5 -22.5t-66 -62t-35.5 -91.5t5 -91
t46 -61t77 -22zM373 568l122 132h115l-135 -132h-102zM186 568l121 132h114l-133 -132h-102z" />
    <glyph glyph-name="OE" unicode="&#x152;" horiz-adv-x="1128" 
d="M351 -12q-100 0 -170 43.5t-102.5 122t-19.5 182.5q9 83 43 151.5t88 119t123 78t148 27.5q90 0 154 -41t93.5 -117.5t15.5 -183.5q-10 -86 -42.5 -156.5t-82 -121t-112.5 -77.5t-136 -27zM357 80q72 0 133 34.5t102.5 99t52.5 153.5q12 81 -9 137t-67 86t-110 30
q-75 0 -139.5 -37.5t-106.5 -102t-53 -147.5q-11 -75 9.5 -132t69 -89t118.5 -32zM583 0l117 700h422l-14 -90h-324l-35 -208h291l-14 -88h-291l-38 -224h326l-16 -90h-424z" />
    <glyph glyph-name="oe" unicode="&#x153;" horiz-adv-x="987" 
d="M260 -12q-76 0 -130.5 34.5t-79 95.5t-10.5 141q12 75 52 132t100 89t131 32q76 0 130.5 -34.5t78.5 -95.5t10 -141q-12 -75 -52 -132t-99.5 -89t-130.5 -32zM262 75q46 0 85 22.5t66 62t35 91.5q9 52 -4.5 91t-45 61t-77.5 22t-85.5 -22.5t-66 -62t-35.5 -91.5t5 -91
t46 -61t77 -22zM689 -12q-75 2 -127 37t-75 95.5t-10 138.5q13 77 54 134.5t102.5 89t133.5 29.5q73 -2 120 -37t65.5 -97t3.5 -146h-387q-6 -50 8 -87t44.5 -57.5t73.5 -20.5q52 -1 92.5 23.5t64.5 63.5l77 -43q-26 -41 -63.5 -69t-82.5 -41.5t-94 -12.5zM584 303h285
q1 60 -25.5 96.5t-85.5 37.5t-105 -36t-69 -98z" />
    <glyph glyph-name="Racute" unicode="&#x154;" horiz-adv-x="631" 
d="M47 0l117 700h233q71 0 120.5 -28.5t72.5 -78.5t11 -115q-10 -61 -49.5 -109t-99.5 -74.5t-130 -26.5h-132l-45 -268h-98zM440 0l-119 286l84 52l143 -338h-108zM206 358h143q38 0 70.5 16.5t55 46.5t27.5 69q8 54 -24 87t-92 33h-139zM299 747l131 132h116l-143 -132
h-104z" />
    <glyph glyph-name="racute" unicode="&#x155;" horiz-adv-x="351" 
d="M24 0l84 500h95l-84 -500h-95zM127 269q14 81 53 132.5t91.5 76t106.5 24.5l-12 -90q-44 0 -87.5 -13.5t-74.5 -45t-40 -83.5zM143 568l131 132h116l-143 -132h-104z" />
    <glyph glyph-name="uni0156" unicode="&#x156;" horiz-adv-x="631" 
d="M47 0l117 700h233q71 0 120.5 -28.5t72.5 -78.5t11 -115q-10 -61 -49.5 -109t-99.5 -74.5t-130 -26.5h-132l-45 -268h-98zM440 0l-119 286l84 52l143 -338h-108zM206 358h143q38 0 70.5 16.5t55 46.5t27.5 69q8 54 -24 87t-92 33h-139zM150 -200l70 143h101l-92 -143h-79
z" />
    <glyph glyph-name="uni0157" unicode="&#x157;" horiz-adv-x="351" 
d="M24 0l84 500h95l-84 -500h-95zM127 269q14 81 53 132.5t91.5 76t106.5 24.5l-12 -90q-44 0 -87.5 -13.5t-74.5 -45t-40 -83.5zM-28 -200l70 143h101l-92 -143h-79z" />
    <glyph glyph-name="Rcaron" unicode="&#x158;" horiz-adv-x="631" 
d="M47 0l117 700h233q71 0 120.5 -28.5t72.5 -78.5t11 -115q-10 -61 -49.5 -109t-99.5 -74.5t-130 -26.5h-132l-45 -268h-98zM440 0l-119 286l84 52l143 -338h-108zM206 358h143q38 0 70.5 16.5t55 46.5t27.5 69q8 54 -24 87t-92 33h-139zM321 747v2l143 130h106l-144 -132
h-105zM320 747l-100 132h91l103 -130l-1 -2h-93z" />
    <glyph glyph-name="rcaron" unicode="&#x159;" horiz-adv-x="351" 
d="M24 0l84 500h95l-84 -500h-95zM127 269q14 81 53 132.5t91.5 76t106.5 24.5l-12 -90q-44 0 -87.5 -13.5t-74.5 -45t-40 -83.5zM164 568v2l143 130h106l-144 -132h-105zM163 568l-100 132h91l103 -130l-1 -2h-93z" />
    <glyph glyph-name="Sacute" unicode="&#x15a;" horiz-adv-x="612" 
d="M277 -13q-57 0 -101 13.5t-75 36t-48.5 51t-20.5 60.5l98 25q8 -41 44 -70t97 -29q47 0 88 15t66.5 43.5t25.5 71.5q0 31 -14 49.5t-40 29.5t-62 19l-74 18q-44 11 -77.5 33.5t-52 58t-15.5 83.5q3 66 38 114.5t95 75t137 26.5q70 0 118 -22.5t75 -58t33 -77.5l-97 -26
q-10 45 -46 71t-95 26q-43 0 -79.5 -16t-58 -44.5t-21.5 -66.5q0 -37 24 -58t64 -31l83 -21q62 -15 98.5 -40.5t53 -60t16.5 -78.5q0 -68 -37.5 -117.5t-100.5 -76.5t-139 -27zM321 747l131 132h116l-143 -132h-104z" />
    <glyph glyph-name="sacute" unicode="&#x15b;" horiz-adv-x="473" 
d="M201 -12q-56 0 -95.5 16.5t-62 43.5t-28.5 58l84 27q10 -34 38.5 -51.5t62.5 -17.5q28 0 55 9.5t44 27.5t17 45q0 24 -19.5 39.5t-58.5 26.5l-45 12q-57 15 -87.5 47t-30.5 74q0 51 27 88.5t75 58t112 20.5q72 0 113.5 -29.5t53.5 -78.5l-82 -29q-9 34 -32.5 47t-65.5 13
q-44 0 -75.5 -22t-31.5 -56q0 -16 18.5 -31.5t56.5 -25.5l41 -11q68 -17 99.5 -53t31.5 -82q0 -51 -30 -88.5t-78.5 -57.5t-106.5 -20zM225 568l131 132h116l-143 -132h-104z" />
    <glyph glyph-name="Scircumflex" unicode="&#x15c;" horiz-adv-x="612" 
d="M277 -13q-57 0 -101 13.5t-75 36t-48.5 51t-20.5 60.5l98 25q8 -41 44 -70t97 -29q47 0 88 15t66.5 43.5t25.5 71.5q0 31 -14 49.5t-40 29.5t-62 19l-74 18q-44 11 -77.5 33.5t-52 58t-15.5 83.5q3 66 38 114.5t95 75t137 26.5q70 0 118 -22.5t75 -58t33 -77.5l-97 -26
q-10 45 -46 71t-95 26q-43 0 -79.5 -16t-58 -44.5t-21.5 -66.5q0 -37 24 -58t64 -31l83 -21q62 -15 98.5 -40.5t53 -60t16.5 -78.5q0 -68 -37.5 -117.5t-100.5 -76.5t-139 -27zM215 759l144 132h105v-2l-143 -130h-106zM474 759l-103 131l1 1h93l100 -132h-91z" />
    <glyph glyph-name="scircumflex" unicode="&#x15d;" horiz-adv-x="473" 
d="M201 -12q-56 0 -95.5 16.5t-62 43.5t-28.5 58l84 27q10 -34 38.5 -51.5t62.5 -17.5q28 0 55 9.5t44 27.5t17 45q0 24 -19.5 39.5t-58.5 26.5l-45 12q-57 15 -87.5 47t-30.5 74q0 51 27 88.5t75 58t112 20.5q72 0 113.5 -29.5t53.5 -78.5l-82 -29q-9 34 -32.5 47t-65.5 13
q-44 0 -75.5 -22t-31.5 -56q0 -16 18.5 -31.5t56.5 -25.5l41 -11q68 -17 99.5 -53t31.5 -82q0 -51 -30 -88.5t-78.5 -57.5t-106.5 -20zM120 580l144 132h105v-2l-143 -130h-106zM379 580l-103 131l1 1h93l100 -132h-91z" />
    <glyph glyph-name="Scedilla" unicode="&#x15e;" horiz-adv-x="612" 
d="M277 -13q-57 0 -101 13.5t-75 36t-48.5 51t-20.5 60.5l98 25q8 -41 44 -70t97 -29q47 0 88 15t66.5 43.5t25.5 71.5q0 31 -14 49.5t-40 29.5t-62 19l-74 18q-44 11 -77.5 33.5t-52 58t-15.5 83.5q3 66 38 114.5t95 75t137 26.5q70 0 118 -22.5t75 -58t33 -77.5l-97 -26
q-10 45 -46 71t-95 26q-43 0 -79.5 -16t-58 -44.5t-21.5 -66.5q0 -37 24 -58t64 -31l83 -21q62 -15 98.5 -40.5t53 -60t16.5 -78.5q0 -68 -37.5 -117.5t-100.5 -76.5t-139 -27zM211 -210q-23 0 -49 7.5t-58 28.5l27 47q16 -9 33.5 -16.5t32.5 -7.5q25 0 41.5 11t16.5 33
q0 19 -19.5 29t-53.5 14l45 71l62 -11l-21 -28q26 -10 41.5 -30.5t15.5 -44.5q0 -51 -30 -77t-84 -26z" />
    <glyph glyph-name="scedilla" unicode="&#x15f;" horiz-adv-x="473" 
d="M201 -12q-56 0 -95.5 16.5t-62 43.5t-28.5 58l84 27q10 -34 38.5 -51.5t62.5 -17.5q28 0 55 9.5t44 27.5t17 45q0 24 -19.5 39.5t-58.5 26.5l-45 12q-57 15 -87.5 47t-30.5 74q0 51 27 88.5t75 58t112 20.5q72 0 113.5 -29.5t53.5 -78.5l-82 -29q-9 34 -32.5 47t-65.5 13
q-44 0 -75.5 -22t-31.5 -56q0 -16 18.5 -31.5t56.5 -25.5l41 -11q68 -17 99.5 -53t31.5 -82q0 -51 -30 -88.5t-78.5 -57.5t-106.5 -20zM139 -222q-23 0 -49 7.5t-58 28.5l27 47q16 -9 33.5 -16.5t32.5 -7.5q25 0 41.5 11t16.5 33q0 19 -19.5 29t-53.5 14l45 71l62 -11
l-21 -28q26 -10 41.5 -30.5t15.5 -44.5q0 -51 -30 -77t-84 -26z" />
    <glyph glyph-name="Scaron" unicode="&#x160;" horiz-adv-x="612" 
d="M277 -13q-57 0 -101 13.5t-75 36t-48.5 51t-20.5 60.5l98 25q8 -41 44 -70t97 -29q47 0 88 15t66.5 43.5t25.5 71.5q0 31 -14 49.5t-40 29.5t-62 19l-74 18q-44 11 -77.5 33.5t-52 58t-15.5 83.5q3 66 38 114.5t95 75t137 26.5q70 0 118 -22.5t75 -58t33 -77.5l-97 -26
q-10 45 -46 71t-95 26q-43 0 -79.5 -16t-58 -44.5t-21.5 -66.5q0 -37 24 -58t64 -31l83 -21q62 -15 98.5 -40.5t53 -60t16.5 -78.5q0 -68 -37.5 -117.5t-100.5 -76.5t-139 -27zM343 747v2l143 130h106l-144 -132h-105zM342 747l-100 132h91l103 -130l-1 -2h-93z" />
    <glyph glyph-name="scaron" unicode="&#x161;" horiz-adv-x="473" 
d="M201 -12q-56 0 -95.5 16.5t-62 43.5t-28.5 58l84 27q10 -34 38.5 -51.5t62.5 -17.5q28 0 55 9.5t44 27.5t17 45q0 24 -19.5 39.5t-58.5 26.5l-45 12q-57 15 -87.5 47t-30.5 74q0 51 27 88.5t75 58t112 20.5q72 0 113.5 -29.5t53.5 -78.5l-82 -29q-9 34 -32.5 47t-65.5 13
q-44 0 -75.5 -22t-31.5 -56q0 -16 18.5 -31.5t56.5 -25.5l41 -11q68 -17 99.5 -53t31.5 -82q0 -51 -30 -88.5t-78.5 -57.5t-106.5 -20zM247 568v2l143 130h106l-144 -132h-105zM246 568l-100 132h91l103 -130l-1 -2h-93z" />
    <glyph glyph-name="Tcaron" unicode="&#x164;" horiz-adv-x="561" 
d="M189 0l103 610h-219l14 90h537l-14 -90h-219l-103 -610h-99zM309 747v2l143 130h106l-144 -132h-105zM308 747l-100 132h91l103 -130l-1 -2h-93z" />
    <glyph glyph-name="tcaron" unicode="&#x165;" horiz-adv-x="401" 
d="M223 -12q-75 0 -108 39.5t-21 110.5l86 518h95l-85 -507q-7 -36 7.5 -55t47.5 -19q11 0 24.5 5t33.5 16l26 -76q-32 -17 -57.5 -24.5t-48.5 -7.5zM56 418l13 82h322l-13 -82h-322zM299 560l74 165h95l-90 -165h-79z" />
    <glyph glyph-name="Umacron" unicode="&#x16a;" horiz-adv-x="706" 
d="M312 -15q-83 0 -139.5 34t-81.5 94t-12 139l75 448h98l-74 -448q-9 -53 5.5 -92.5t49 -61.5t84.5 -22q54 0 99.5 22.5t75.5 62.5t38 91l74 448h99l-75 -448q-13 -80 -57 -140.5t-110.5 -93.5t-148.5 -33zM281 750l14 84h311l-14 -84h-311z" />
    <glyph glyph-name="umacron" unicode="&#x16b;" horiz-adv-x="561" 
d="M364 0l10 92l68 408h95l-84 -500h-89zM50 224l47 276h94l-43 -257zM148 243q-11 -68 -1.5 -103.5t34.5 -49t59 -14.5q63 0 104.5 43.5t55.5 122.5l40 -3q-13 -80 -45.5 -136t-79.5 -85.5t-108 -29.5q-91 0 -134 56.5t-24 170.5l4 28h95zM172 571l14 84h311l-14 -84h-311z
" />
    <glyph glyph-name="Ubreve" unicode="&#x16c;" horiz-adv-x="706" 
d="M312 -15q-83 0 -139.5 34t-81.5 94t-12 139l75 448h98l-74 -448q-9 -53 5.5 -92.5t49 -61.5t84.5 -22q54 0 99.5 22.5t75.5 62.5t38 91l74 448h99l-75 -448q-13 -80 -57 -140.5t-110.5 -93.5t-148.5 -33zM442 740q-52 0 -90 18t-55.5 49.5t-11.5 71.5h91
q-5 -29 14.5 -47.5t54.5 -18.5q38 0 64.5 19t31.5 47h91q-6 -42 -33 -73t-67.5 -48.5t-89.5 -17.5z" />
    <glyph glyph-name="ubreve" unicode="&#x16d;" horiz-adv-x="561" 
d="M364 0l10 92l68 408h95l-84 -500h-89zM50 224l47 276h94l-43 -257zM148 243q-11 -68 -1.5 -103.5t34.5 -49t59 -14.5q63 0 104.5 43.5t55.5 122.5l40 -3q-13 -80 -45.5 -136t-79.5 -85.5t-108 -29.5q-91 0 -134 56.5t-24 170.5l4 28h95zM332 561q-52 0 -90 18t-55.5 49.5
t-11.5 71.5h91q-5 -29 14.5 -47.5t54.5 -18.5q38 0 64.5 19t31.5 47h91q-6 -42 -33 -73t-67.5 -48.5t-89.5 -17.5z" />
    <glyph glyph-name="Uring" unicode="&#x16e;" horiz-adv-x="706" 
d="M312 -15q-83 0 -139.5 34t-81.5 94t-12 139l75 448h98l-74 -448q-9 -53 5.5 -92.5t49 -61.5t84.5 -22q54 0 99.5 22.5t75.5 62.5t38 91l74 448h99l-75 -448q-13 -80 -57 -140.5t-110.5 -93.5t-148.5 -33zM439 730q-39 0 -65.5 25t-26.5 62q0 32 15 56.5t41 39t59 14.5
q38 0 64 -25t26 -63q0 -32 -15 -56.5t-41 -38.5t-57 -14zM442 791q20 0 32.5 13t12.5 36q0 26 -29 26q-20 0 -32.5 -13t-12.5 -35q0 -12 8 -19.5t21 -7.5z" />
    <glyph glyph-name="uring" unicode="&#x16f;" horiz-adv-x="561" 
d="M364 0l10 92l68 408h95l-84 -500h-89zM50 224l47 276h94l-43 -257zM148 243q-11 -68 -1.5 -103.5t34.5 -49t59 -14.5q63 0 104.5 43.5t55.5 122.5l40 -3q-13 -80 -45.5 -136t-79.5 -85.5t-108 -29.5q-91 0 -134 56.5t-24 170.5l4 28h95zM329 551q-39 0 -65.5 25t-26.5 62
q0 32 15 56.5t41 39t59 14.5q38 0 64 -25t26 -63q0 -32 -15 -56.5t-41 -38.5t-57 -14zM332 612q20 0 32.5 13t12.5 36q0 26 -29 26q-20 0 -32.5 -13t-12.5 -35q0 -12 8 -19.5t21 -7.5z" />
    <glyph glyph-name="Uhungarumlaut" unicode="&#x170;" horiz-adv-x="706" 
d="M312 -15q-83 0 -139.5 34t-81.5 94t-12 139l75 448h98l-74 -448q-9 -53 5.5 -92.5t49 -61.5t84.5 -22q54 0 99.5 22.5t75.5 62.5t38 91l74 448h99l-75 -448q-13 -80 -57 -140.5t-110.5 -93.5t-148.5 -33zM467 747l122 132h115l-135 -132h-102zM280 747l121 132h114
l-133 -132h-102z" />
    <glyph glyph-name="uhungarumlaut" unicode="&#x171;" horiz-adv-x="561" 
d="M364 0l10 92l68 408h95l-84 -500h-89zM50 224l47 276h94l-43 -257zM148 243q-11 -68 -1.5 -103.5t34.5 -49t59 -14.5q63 0 104.5 43.5t55.5 122.5l40 -3q-13 -80 -45.5 -136t-79.5 -85.5t-108 -29.5q-91 0 -134 56.5t-24 170.5l4 28h95zM358 568l122 132h115l-135 -132
h-102zM171 568l121 132h114l-133 -132h-102z" />
    <glyph glyph-name="Uogonek" unicode="&#x172;" horiz-adv-x="706" 
d="M312 -15q-83 0 -139.5 34t-81.5 94t-12 139l75 448h98l-74 -448q-9 -53 5.5 -92.5t49 -61.5t84.5 -22q54 0 99.5 22.5t75.5 62.5t38 91l74 448h99l-75 -448q-13 -80 -57 -140.5t-110.5 -93.5t-148.5 -33zM461 -200q-36 0 -64.5 10t-44.5 29t-16 44q0 26 12 50t33.5 46.5
t49 41.5t56.5 34l24 -3q-44 -35 -68.5 -74t-24.5 -73q0 -15 10 -24t25 -9q17 0 33.5 3.5t27.5 8.5l25 -67q-17 -8 -38 -12.5t-40 -4.5z" />
    <glyph glyph-name="uogonek" unicode="&#x173;" horiz-adv-x="561" 
d="M364 0l10 92l68 408h95l-84 -500h-89zM50 224l47 276h94l-43 -257zM148 243q-11 -68 -1.5 -103.5t34.5 -49t59 -14.5q63 0 104.5 43.5t55.5 122.5l40 -3q-13 -80 -45.5 -136t-79.5 -85.5t-108 -29.5q-91 0 -134 56.5t-24 170.5l4 28h95zM374 -212q-55 0 -85 25t-25 73
q3 21 17.5 42.5t38 42t53.5 38.5l79 -9q-23 -15 -47 -33t-40.5 -38.5t-19.5 -43.5q-4 -24 25 -24q17 0 31 4.5t18 6.5l24 -67q-15 -9 -33 -13t-36 -4z" />
    <glyph glyph-name="Wcircumflex" unicode="&#x174;" horiz-adv-x="967" 
d="M602 0l329 700h101l-332 -700h-98zM179 0l-95 700h98l92 -700h-95zM189 0l319 700h94l-318 -700h-95zM595 0l-80 700h91l84 -700h-95zM385 750l144 132h105v-2l-143 -130h-106zM644 750l-103 131l1 1h93l100 -132h-91z" />
    <glyph glyph-name="wcircumflex" unicode="&#x175;" horiz-adv-x="801" 
d="M140 0l-87 500h95l82 -500h-90zM146 0l250 500h86l-248 -500h-88zM484 0l-80 500h85l82 -500h-87zM484 0l251 500h97l-254 -500h-94zM273 580l144 132h105v-2l-143 -130h-106zM532 580l-103 131l1 1h93l100 -132h-91z" />
    <glyph glyph-name="Ycircumflex" unicode="&#x176;" horiz-adv-x="616" 
d="M364 291l-85 34l289 375h116zM217 0l56 336h99l-56 -336h-99zM269 291l-184 409h112l164 -375zM209 750l144 132h105v-2l-143 -130h-106zM468 750l-103 131l1 1h93l100 -132h-91z" />
    <glyph glyph-name="ycircumflex" unicode="&#x177;" horiz-adv-x="539" 
d="M52 -212q-22 0 -48 8.5t-52 21.5l46 76q40 -19 60 -19q26 0 46.5 14.5t34.5 39.5l81 136l251 435h103l-330 -564q-27 -46 -53.5 -79t-59 -51t-79.5 -18zM185 0l-136 500h101l108 -434l19 -66h-92zM142 580l144 132h105v-2l-143 -130h-106zM401 580l-103 131l1 1h93
l100 -132h-91z" />
    <glyph glyph-name="Ydieresis" unicode="&#x178;" horiz-adv-x="616" 
d="M364 291l-85 34l289 375h116zM217 0l56 336h99l-56 -336h-99zM269 291l-184 409h112l164 -375zM280 783q-22 0 -38 16t-16 37q0 23 16 38.5t38 15.5t38 -15.5t16 -38.5q0 -21 -16 -37t-38 -16zM530 783q-22 0 -38 16t-16 37q0 23 16 38.5t38 15.5t38 -15.5t16 -38.5
q0 -21 -16 -37t-38 -16z" />
    <glyph glyph-name="Zacute" unicode="&#x179;" horiz-adv-x="638" 
d="M18 92l531 539l105 -23l-508 -516h-128zM2 0l16 92h546l-15 -92h-547zM108 608l14 92h547l-15 -92h-546zM328 747l131 132h116l-143 -132h-104z" />
    <glyph glyph-name="zacute" unicode="&#x17a;" horiz-adv-x="488" 
d="M71 18l-59 55l405 412l57 -56zM-1 0l13 73l61 8h344l-13 -81h-405zM70 419l13 81h403l-12 -71l-62 -10h-342zM221 568l131 132h116l-143 -132h-104z" />
    <glyph glyph-name="Zdotaccent" unicode="&#x17b;" horiz-adv-x="638" 
d="M18 92l531 539l105 -23l-508 -516h-128zM2 0l16 92h546l-15 -92h-547zM108 608l14 92h547l-15 -92h-546zM419 785q-23 0 -40 17.5t-17 40.5q0 24 17 40.5t40 16.5q24 0 40.5 -16.5t16.5 -40.5q0 -23 -16.5 -40.5t-40.5 -17.5z" />
    <glyph glyph-name="zdotaccent" unicode="&#x17c;" horiz-adv-x="488" 
d="M71 18l-59 55l405 412l57 -56zM-1 0l13 73l61 8h344l-13 -81h-405zM70 419l13 81h403l-12 -71l-62 -10h-342zM312 606q-23 0 -40 17.5t-17 40.5q0 24 17 40.5t40 16.5q24 0 40.5 -16.5t16.5 -40.5q0 -23 -16.5 -40.5t-40.5 -17.5z" />
    <glyph glyph-name="Zcaron" unicode="&#x17d;" horiz-adv-x="638" 
d="M18 92l531 539l105 -23l-508 -516h-128zM2 0l16 92h546l-15 -92h-547zM108 608l14 92h547l-15 -92h-546zM349 747v2l143 130h106l-144 -132h-105zM348 747l-100 132h91l103 -130l-1 -2h-93z" />
    <glyph glyph-name="zcaron" unicode="&#x17e;" horiz-adv-x="488" 
d="M71 18l-59 55l405 412l57 -56zM-1 0l13 73l61 8h344l-13 -81h-405zM70 419l13 81h403l-12 -71l-62 -10h-342zM242 568v2l143 130h106l-144 -132h-105zM241 568l-100 132h91l103 -130l-1 -2h-93z" />
    <glyph glyph-name="uni01CD" unicode="&#x1cd;" horiz-adv-x="691" 
d="M-33 0l399 700h106l-392 -700h-113zM540 0l-160 700h95l165 -700h-100zM132 187l15 88h403l-15 -88h-403zM376 747v2l143 130h106l-144 -132h-105zM375 747l-100 132h91l103 -130l-1 -2h-93z" />
    <glyph glyph-name="uni01CE" unicode="&#x1ce;" 
d="M392 0l11 93l68 407h94l-84 -500h-89zM229 -12q-61 0 -106 29t-68 80.5t-19 118.5q3 59 23 112.5t54.5 94.5t81.5 65t104 24q62 0 102 -28.5t58.5 -79t14.5 -118.5q-3 -73 -24 -129t-55.5 -93.5t-77 -56.5t-88.5 -19zM257 74q40 0 72 18.5t54.5 49t35 68t13.5 76.5
q2 63 -29.5 101.5t-85.5 38.5q-41 0 -74.5 -18t-58 -48t-38 -67t-14.5 -77q-1 -62 33 -102t92 -40zM281 568v2l143 130h106l-144 -132h-105zM280 568l-100 132h91l103 -130l-1 -2h-93z" />
    <glyph glyph-name="uni0218" unicode="&#x218;" horiz-adv-x="612" 
d="M277 -13q-57 0 -101 13.5t-75 36t-48.5 51t-20.5 60.5l98 25q8 -41 44 -70t97 -29q47 0 88 15t66.5 43.5t25.5 71.5q0 31 -14 49.5t-40 29.5t-62 19l-74 18q-44 11 -77.5 33.5t-52 58t-15.5 83.5q3 66 38 114.5t95 75t137 26.5q70 0 118 -22.5t75 -58t33 -77.5l-97 -26
q-10 45 -46 71t-95 26q-43 0 -79.5 -16t-58 -44.5t-21.5 -66.5q0 -37 24 -58t64 -31l83 -21q62 -15 98.5 -40.5t53 -60t16.5 -78.5q0 -68 -37.5 -117.5t-100.5 -76.5t-139 -27zM150 -200l70 143h101l-92 -143h-79z" />
    <glyph glyph-name="uni0219" unicode="&#x219;" horiz-adv-x="473" 
d="M201 -12q-56 0 -95.5 16.5t-62 43.5t-28.5 58l84 27q10 -34 38.5 -51.5t62.5 -17.5q28 0 55 9.5t44 27.5t17 45q0 24 -19.5 39.5t-58.5 26.5l-45 12q-57 15 -87.5 47t-30.5 74q0 51 27 88.5t75 58t112 20.5q72 0 113.5 -29.5t53.5 -78.5l-82 -29q-9 34 -32.5 47t-65.5 13
q-44 0 -75.5 -22t-31.5 -56q0 -16 18.5 -31.5t56.5 -25.5l41 -11q68 -17 99.5 -53t31.5 -82q0 -51 -30 -88.5t-78.5 -57.5t-106.5 -20zM77 -212l70 143h101l-92 -143h-79z" />
    <glyph glyph-name="uni021A" unicode="&#x21a;" horiz-adv-x="561" 
d="M189 0l103 610h-219l14 90h537l-14 -90h-219l-103 -610h-99zM115 -200l70 143h101l-92 -143h-79z" />
    <glyph glyph-name="uni021B" unicode="&#x21b;" horiz-adv-x="392" 
d="M223 -12q-75 0 -108 39.5t-21 110.5l86 518h95l-85 -507q-7 -36 7.5 -55t47.5 -19q11 0 24.5 5t33.5 16l26 -76q-32 -17 -57.5 -24.5t-48.5 -7.5zM56 418l13 82h322l-13 -82h-322zM60 -200l70 143h101l-92 -143h-79z" />
    <glyph glyph-name="uni0237" unicode="&#x237;" horiz-adv-x="262" 
d="M-34 -215q-22 0 -46 7.5t-49 20.5l47 78q39 -19 58 -19q66 0 80 82l91 546h95l-93 -552q-14 -81 -60 -122t-123 -41z" />
    <glyph glyph-name="circumflex" unicode="&#x2c6;" horiz-adv-x="359" 
d="M55 580l144 132h105v-2l-143 -130h-106zM314 580l-103 131l1 1h93l100 -132h-91z" />
    <glyph glyph-name="caron" unicode="&#x2c7;" horiz-adv-x="352" 
d="M176 568v2l143 130h106l-144 -132h-105zM175 568l-100 132h91l103 -130l-1 -2h-93z" />
    <glyph glyph-name="breve" unicode="&#x2d8;" horiz-adv-x="347" 
d="M232 561q-52 0 -90 18t-55.5 49.5t-11.5 71.5h91q-5 -29 14.5 -47.5t54.5 -18.5q38 0 64.5 19t31.5 47h91q-6 -42 -33 -73t-67.5 -48.5t-89.5 -17.5z" />
    <glyph glyph-name="dotaccent" unicode="&#x2d9;" horiz-adv-x="57" 
d="M127 606q-23 0 -40 17.5t-17 40.5q0 24 17 40.5t40 16.5q24 0 40.5 -16.5t16.5 -40.5q0 -23 -16.5 -40.5t-40.5 -17.5z" />
    <glyph glyph-name="ring" unicode="&#x2da;" horiz-adv-x="298" 
d="M205 551q-39 0 -65.5 25t-26.5 62q0 32 15 56.5t41 39t59 14.5q38 0 64 -25t26 -63q0 -32 -15 -56.5t-41 -38.5t-57 -14zM208 612q20 0 32.5 13t12.5 36q0 26 -29 26q-20 0 -32.5 -13t-12.5 -35q0 -12 8 -19.5t21 -7.5z" />
    <glyph glyph-name="ogonek" unicode="&#x2db;" horiz-adv-x="225" 
d="M84 -212q-55 0 -85 25t-25 73q3 21 17.5 42.5t38 42t53.5 38.5l79 -9q-23 -15 -47 -33t-40.5 -38.5t-19.5 -43.5q-4 -24 25 -24q17 0 31 4.5t18 6.5l24 -67q-15 -9 -33 -13t-36 -4z" />
    <glyph glyph-name="tilde" unicode="&#x2dc;" horiz-adv-x="337" 
d="M287 561q-29 0 -46 11t-26.5 25t-17.5 25t-22 11q-16 0 -27 -8t-19 -29h-70q10 47 40 77t82 30q29 0 45 -11t24.5 -25t17 -25t22.5 -11q19 0 29.5 10.5t15.5 28.5h71q-14 -45 -41 -77t-78 -32z" />
    <glyph glyph-name="hungarumlaut" unicode="&#x2dd;" horiz-adv-x="402" 
d="M240 568l122 132h115l-135 -132h-102zM53 568l121 132h114l-133 -132h-102z" />
    <glyph glyph-name="gravecomb" unicode="&#x300;" horiz-adv-x="0" 
d="M204 568l-93 132h112l80 -132h-99z" />
    <glyph glyph-name="acutecomb" unicode="&#x301;" horiz-adv-x="0" 
d="M110 568l131 132h116l-143 -132h-104z" />
    <glyph glyph-name="uni0302" unicode="&#x302;" horiz-adv-x="0" 
d="M55 580l144 132h105v-2l-143 -130h-106zM314 580l-103 131l1 1h93l100 -132h-91z" />
    <glyph glyph-name="tildecomb" unicode="&#x303;" horiz-adv-x="0" 
d="M287 561q-29 0 -46 11t-26.5 25t-17.5 25t-22 11q-16 0 -27 -8t-19 -29h-70q10 47 40 77t82 30q29 0 45 -11t24.5 -25t17 -25t22.5 -11q19 0 29.5 10.5t15.5 28.5h71q-14 -45 -41 -77t-78 -32z" />
    <glyph glyph-name="uni0304" unicode="&#x304;" horiz-adv-x="0" 
d="M54 571l14 84h311l-14 -84h-311z" />
    <glyph glyph-name="uni0306" unicode="&#x306;" horiz-adv-x="0" 
d="M232 561q-52 0 -90 18t-55.5 49.5t-11.5 71.5h91q-5 -29 14.5 -47.5t54.5 -18.5q38 0 64.5 19t31.5 47h91q-6 -42 -33 -73t-67.5 -48.5t-89.5 -17.5z" />
    <glyph glyph-name="uni0307" unicode="&#x307;" horiz-adv-x="0" 
d="M127 606q-23 0 -40 17.5t-17 40.5q0 24 17 40.5t40 16.5q24 0 40.5 -16.5t16.5 -40.5q0 -23 -16.5 -40.5t-40.5 -17.5z" />
    <glyph glyph-name="uni0308" unicode="&#x308;" horiz-adv-x="0" 
d="M121 613q-22 0 -38 16t-16 37q0 23 16 38.5t38 15.5t38 -15.5t16 -38.5q0 -21 -16 -37t-38 -16zM371 613q-22 0 -38 16t-16 37q0 23 16 38.5t38 15.5t38 -15.5t16 -38.5q0 -21 -16 -37t-38 -16z" />
    <glyph glyph-name="uni030A" unicode="&#x30a;" horiz-adv-x="0" 
d="M205 551q-39 0 -65.5 25t-26.5 62q0 32 15 56.5t41 39t59 14.5q38 0 64 -25t26 -63q0 -32 -15 -56.5t-41 -38.5t-57 -14zM208 612q20 0 32.5 13t12.5 36q0 26 -29 26q-20 0 -32.5 -13t-12.5 -35q0 -12 8 -19.5t21 -7.5z" />
    <glyph glyph-name="uni030B" unicode="&#x30b;" horiz-adv-x="0" 
d="M240 568l122 132h115l-135 -132h-102zM53 568l121 132h114l-133 -132h-102z" />
    <glyph glyph-name="uni030C" unicode="&#x30c;" horiz-adv-x="0" 
d="M176 568v2l143 130h106l-144 -132h-105zM175 568l-100 132h91l103 -130l-1 -2h-93z" />
    <glyph glyph-name="uni0312" unicode="&#x312;" horiz-adv-x="0" 
d="M254 712l-95 -132h-104l120 132h79z" />
    <glyph glyph-name="uni0326" unicode="&#x326;" horiz-adv-x="0" 
d="M-75 -200l70 143h101l-92 -143h-79z" />
    <glyph glyph-name="uni0327" unicode="&#x327;" horiz-adv-x="0" 
d="M36 -210q-23 0 -49 7.5t-58 28.5l27 47q16 -9 33.5 -16.5t32.5 -7.5q25 0 41.5 11t16.5 33q0 19 -19.5 29t-53.5 14l45 71l62 -11l-21 -28q26 -10 41.5 -30.5t15.5 -44.5q0 -51 -30 -77t-84 -26z" />
    <glyph glyph-name="uni0328" unicode="&#x328;" horiz-adv-x="0" 
d="M84 -212q-55 0 -85 25t-25 73q3 21 17.5 42.5t38 42t53.5 38.5l79 -9q-23 -15 -47 -33t-40.5 -38.5t-19.5 -43.5q-4 -24 25 -24q17 0 31 4.5t18 6.5l24 -67q-15 -9 -33 -13t-36 -4z" />
    <glyph glyph-name="Wgrave" unicode="&#x1e80;" horiz-adv-x="967" 
d="M602 0l329 700h101l-332 -700h-98zM179 0l-95 700h98l92 -700h-95zM189 0l319 700h94l-318 -700h-95zM595 0l-80 700h91l84 -700h-95zM568 738l-93 132h112l80 -132h-99z" />
    <glyph glyph-name="wgrave" unicode="&#x1e81;" horiz-adv-x="801" 
d="M140 0l-87 500h95l82 -500h-90zM146 0l250 500h86l-248 -500h-88zM484 0l-80 500h85l82 -500h-87zM484 0l251 500h97l-254 -500h-94zM456 568l-93 132h112l80 -132h-99z" />
    <glyph glyph-name="Wacute" unicode="&#x1e82;" horiz-adv-x="967" 
d="M602 0l329 700h101l-332 -700h-98zM179 0l-95 700h98l92 -700h-95zM189 0l319 700h94l-318 -700h-95zM595 0l-80 700h91l84 -700h-95zM491 738l131 132h116l-143 -132h-104z" />
    <glyph glyph-name="wacute" unicode="&#x1e83;" horiz-adv-x="801" 
d="M140 0l-87 500h95l82 -500h-90zM146 0l250 500h86l-248 -500h-88zM484 0l-80 500h85l82 -500h-87zM484 0l251 500h97l-254 -500h-94zM379 568l131 132h116l-143 -132h-104z" />
    <glyph glyph-name="Wdieresis" unicode="&#x1e84;" horiz-adv-x="967" 
d="M602 0l329 700h101l-332 -700h-98zM179 0l-95 700h98l92 -700h-95zM189 0l319 700h94l-318 -700h-95zM595 0l-80 700h91l84 -700h-95zM457 783q-22 0 -38 16t-16 37q0 23 16 38.5t38 15.5t38 -15.5t16 -38.5q0 -21 -16 -37t-38 -16zM707 783q-22 0 -38 16t-16 37
q0 23 16 38.5t38 15.5t38 -15.5t16 -38.5q0 -21 -16 -37t-38 -16z" />
    <glyph glyph-name="wdieresis" unicode="&#x1e85;" horiz-adv-x="801" 
d="M140 0l-87 500h95l82 -500h-90zM146 0l250 500h86l-248 -500h-88zM484 0l-80 500h85l82 -500h-87zM484 0l251 500h97l-254 -500h-94zM345 613q-22 0 -38 16t-16 37q0 23 16 38.5t38 15.5t38 -15.5t16 -38.5q0 -21 -16 -37t-38 -16zM595 613q-22 0 -38 16t-16 37
q0 23 16 38.5t38 15.5t38 -15.5t16 -38.5q0 -21 -16 -37t-38 -16z" />
    <glyph glyph-name="uni1E9E" unicode="&#x1e9e;" horiz-adv-x="595" 
d="M47 0l91 544q14 81 73.5 124.5t163.5 43.5q51 0 89 -12t65.5 -31.5t46 -40.5t31.5 -40l-70 -71q-13 24 -33.5 48.5t-54 41.5t-85.5 17q-55 0 -89 -30t-42 -80l-86 -514h-100zM302 -12q-21 0 -53 9.5t-57 34.5l49 74q7 -5 22.5 -15.5t42.5 -10.5q57 0 94 33t46 91
q9 50 -16.5 78t-87.5 28h-64l12 76h58q110 0 159.5 -54t33.5 -150q-16 -92 -76.5 -143t-162.5 -51zM280 327l10 63l252 252l61 -56l-254 -259h-69z" />
    <glyph glyph-name="Ygrave" unicode="&#x1ef2;" horiz-adv-x="616" 
d="M364 291l-85 34l289 375h116zM217 0l56 336h99l-56 -336h-99zM269 291l-184 409h112l164 -375zM392 738l-93 132h112l80 -132h-99z" />
    <glyph glyph-name="ygrave" unicode="&#x1ef3;" horiz-adv-x="539" 
d="M52 -212q-22 0 -48 8.5t-52 21.5l46 76q40 -19 60 -19q26 0 46.5 14.5t34.5 39.5l81 136l251 435h103l-330 -564q-27 -46 -53.5 -79t-59 -51t-79.5 -18zM185 0l-136 500h101l108 -434l19 -66h-92zM324 568l-93 132h112l80 -132h-99z" />
    <glyph glyph-name="endash" unicode="&#x2013;" horiz-adv-x="550" 
d="M1 256l14 83h550l-14 -83h-550z" />
    <glyph glyph-name="emdash" unicode="&#x2014;" horiz-adv-x="1100" 
d="M1 256l14 83h1100l-14 -83h-1100z" />
    <glyph glyph-name="quoteleft" unicode="&#x2018;" horiz-adv-x="194" 
d="M252 700l-94 -218h-105l120 218h79z" />
    <glyph glyph-name="quoteright" unicode="&#x2019;" horiz-adv-x="194" 
d="M56 482l94 218h104l-120 -218h-78z" />
    <glyph glyph-name="quotesinglbase" unicode="&#x201a;" horiz-adv-x="223" 
d="M-24 -115l94 218h104l-120 -218h-78z" />
    <glyph glyph-name="quotedblleft" unicode="&#x201c;" horiz-adv-x="355" 
d="M252 700l-95 -218h-104l120 218h79zM414 700l-95 -218h-104l120 218h79z" />
    <glyph glyph-name="quotedblright" unicode="&#x201d;" horiz-adv-x="356" 
d="M218 482l94 218h104l-120 -218h-78zM56 482l94 218h104l-120 -218h-78z" />
    <glyph glyph-name="quotedblbase" unicode="&#x201e;" horiz-adv-x="340" 
d="M116 -115l94 218h104l-120 -218h-78zM-46 -115l94 218h104l-120 -218h-78z" />
    <glyph glyph-name="dagger" unicode="&#x2020;" horiz-adv-x="483" 
d="M151 0l94 460l26 240h91l-54 -240l-61 -460h-96zM54 417l15 88l212 -14l217 14l-15 -88l-211 14z" />
    <glyph glyph-name="daggerdbl" unicode="&#x2021;" horiz-adv-x="483" 
d="M117 -200l56 237l25 213l46 210l26 240h91l-54 -240l-24 -210l-47 -213l-23 -237h-96zM-14 -4l13 85l213 -13l216 13l-14 -85l-212 12zM55 419l13 84l213 -12l216 12l-14 -84l-212 12z" />
    <glyph glyph-name="bullet" unicode="&#x2022;" horiz-adv-x="483" 
d="M235 175q-31 0 -55 16t-34.5 42t-6.5 57q6 28 23 51t42.5 36.5t54.5 13.5q31 0 54.5 -15.5t35.5 -41t6 -56.5q-4 -28 -22 -51.5t-43.5 -37.5t-54.5 -14z" />
    <glyph glyph-name="ellipsis" unicode="&#x2026;" horiz-adv-x="640" 
d="M72 -14q-18 0 -32.5 9.5t-21.5 25t-4 33.5q4 23 23.5 39.5t42.5 16.5q19 0 32.5 -9t20.5 -24.5t4 -34.5q-4 -23 -23 -39.5t-42 -16.5zM282 -14q-18 0 -32.5 9.5t-21.5 25t-4 33.5q4 23 23.5 39.5t42.5 16.5q19 0 32.5 -9t20.5 -24.5t4 -34.5q-4 -23 -23 -39.5t-42 -16.5z
M493 -14q-18 0 -32.5 9.5t-21.5 25t-4 33.5q4 23 23.5 39.5t42.5 16.5q19 0 32.5 -9t20.5 -24.5t4 -34.5q-4 -23 -23 -39.5t-42 -16.5z" />
    <glyph glyph-name="guilsinglleft" unicode="&#x2039;" horiz-adv-x="373" 
d="M57 298l186 202h115l-184 -202h-117zM177 96l-119 202h114l116 -202h-111z" />
    <glyph glyph-name="guilsinglright" unicode="&#x203a;" horiz-adv-x="373" 
d="M332 298l-186 -202h-115l184 202h117zM212 500l119 -202h-114l-116 202h111z" />
    <glyph glyph-name="fraction" unicode="&#x2044;" horiz-adv-x="219" 
d="M-174 0l481 700h86l-481 -700h-86z" />
    <glyph glyph-name="uni2070" unicode="&#x2070;" horiz-adv-x="407" 
d="M229 373q-53 0 -88.5 29.5t-49 79.5t-3.5 113q11 63 40 110.5t71 74.5t91 27q52 0 87.5 -28t51 -77.5t4.5 -116.5q-10 -61 -40 -109.5t-72.5 -75.5t-91.5 -27zM231 446q44 0 79 42t46 108q10 61 -8.5 100.5t-58.5 39.5q-42 0 -77.5 -42t-46.5 -110q-10 -60 9 -99t57 -39z
" />
    <glyph glyph-name="uni2074" unicode="&#x2074;" horiz-adv-x="394" 
d="M129 496l-55 32l233 272l40 -44zM64 463l10 65l46 4h300l-11 -69h-345zM244 380l64 376l-1 44h84l-71 -420h-76z" />
    <glyph glyph-name="uni2075" unicode="&#x2075;" horiz-adv-x="368" 
d="M213 373q-29 0 -58.5 10t-51 29t-29.5 48l75 18q10 -19 26.5 -27.5t34.5 -8.5q34 0 58.5 20.5t31.5 55.5q4 29 -11 47.5t-44 18.5q-20 0 -38.5 -9.5t-29.5 -21.5l-70 18l63 229h236l-11 -73h-226l1 70h79l-71 -233l-44 9q11 14 31 31t48 29t60 12q52 0 85 -36t22 -99
q-6 -40 -30 -71t-59.5 -48.5t-77.5 -17.5z" />
    <glyph glyph-name="uni2076" unicode="&#x2076;" horiz-adv-x="357" 
d="M212 373q-58 0 -89 28t-39 74t1 100q11 67 37.5 119.5t68.5 82.5t98 30q35 0 66 -10t54 -28l-46 -56q-17 14 -37.5 19t-35.5 5q-47 0 -83.5 -42.5t-49.5 -131.5l-15 15q19 33 50 52t69 19q41 0 70 -19.5t42 -51.5t6 -74q-10 -57 -55 -94t-112 -37zM214 441
q32 0 57.5 21.5t30.5 54.5q5 29 -10.5 48t-43.5 19q-32 0 -57.5 -22t-31.5 -55q-5 -30 11 -48t44 -18z" />
    <glyph glyph-name="uni2077" unicode="&#x2077;" horiz-adv-x="343" 
d="M84 380l234 356l87 5l-231 -361h-90zM108 727l11 73h295l-9 -59l-83 -14h-214z" />
    <glyph glyph-name="uni2078" unicode="&#x2078;" horiz-adv-x="388" 
d="M220 373q-78 0 -115 34t-28 87t54 87t119 34q80 0 115.5 -37.5t25.5 -93.5q-8 -48 -52.5 -79.5t-118.5 -31.5zM221 439q35 0 61.5 18.5t30.5 47.5q5 26 -12.5 42.5t-48.5 16.5q-34 0 -61 -19t-32 -50q-4 -25 13 -40.5t49 -15.5zM251 628q33 0 55.5 17t27.5 45
q4 23 -11 38t-41 15q-33 0 -55.5 -18t-26.5 -48q-3 -21 11.5 -35t39.5 -14zM255 582q-69 0 -103.5 32t-26.5 85q8 48 50 78t107 30q70 0 104.5 -33.5t25.5 -87.5q-7 -45 -49.5 -74.5t-107.5 -29.5z" />
    <glyph glyph-name="uni2079" unicode="&#x2079;" horiz-adv-x="357" 
d="M182 373q-34 0 -64.5 10t-54.5 28l46 56q17 -13 37.5 -18.5t34.5 -5.5q50 0 85.5 42.5t48.5 131.5l15 -15q-20 -34 -51.5 -52.5t-68.5 -18.5q-41 0 -70 19t-42 52t-6 74q10 57 55.5 94t111.5 37q58 0 89 -27.5t39.5 -72.5t-0.5 -101q-11 -67 -37.5 -119.5t-68 -83
t-99.5 -30.5zM223 596q33 0 58.5 22t31.5 55q4 28 -11 47t-44 19q-32 0 -57.5 -21t-30.5 -54q-5 -28 9.5 -48t43.5 -20z" />
    <glyph glyph-name="uni2080" unicode="&#x2080;" horiz-adv-x="407" 
d="M148 -106q-53 0 -88.5 29.5t-49 79.5t-3.5 113q11 63 40 110.5t71 74.5t91 27q52 0 87.5 -28t51 -77.5t4.5 -116.5q-10 -61 -40 -109.5t-72.5 -75.5t-91.5 -27zM150 -33q44 0 79 42t46 108q10 61 -8.5 100.5t-58.5 39.5q-42 0 -77.5 -42t-46.5 -110q-10 -60 9 -99t57 -39
z" />
    <glyph glyph-name="uni2081" unicode="&#x2081;" horiz-adv-x="283" 
d="M71 -100l63 378l14 42h70l-71 -420h-76zM30 190l12 71q14 -1 33.5 8t38.5 23t34 28l45 -51q-43 -39 -83 -60.5t-80 -18.5z" />
    <glyph glyph-name="uni2082" unicode="&#x2082;" horiz-adv-x="363" 
d="M58 -84l-71 45q5 29 32 61t69 57l74 48q25 15 45.5 36t21.5 41q3 22 -11 37t-41 15q-29 0 -51 -17t-33 -41l-80 20q17 44 60.5 76.5t102.5 32.5q72 0 107.5 -37.5t26.5 -94.5q-7 -38 -31.5 -67.5t-66.5 -55.5l-66 -43q-19 -12 -37.5 -28t-32 -36.5t-18.5 -48.5zM-24 -100
l11 61l61 10h229l-12 -71h-289z" />
    <glyph glyph-name="uni2083" unicode="&#x2083;" horiz-adv-x="333" 
d="M113 -106q-57 0 -92.5 25.5t-40.5 66.5l75 18q5 -9 10.5 -19t16 -16t27.5 -6q35 0 58 19.5t26 48.5q4 24 -15.5 40t-65.5 16h-27l10 54h18q48 0 86 -16t57.5 -45t12.5 -69q-6 -37 -29.5 -63t-56.5 -40t-70 -14zM88 101l8 52h21q41 0 68 14.5t30 44.5q2 17 -11 32t-38 15
q-20 0 -38.5 -10t-33.5 -34l-69 27q14 29 37.5 48t52.5 28.5t57 9.5q41 0 70.5 -15.5t43.5 -42t8 -60.5q-6 -37 -33 -61.5t-66.5 -36t-83.5 -11.5h-23z" />
    <glyph glyph-name="uni2084" unicode="&#x2084;" horiz-adv-x="394" 
d="M48 16l-55 32l233 272l40 -44zM-17 -17l10 65l46 4h300l-11 -69h-345zM163 -100l64 376l-1 44h84l-71 -420h-76z" />
    <glyph glyph-name="uni2085" unicode="&#x2085;" horiz-adv-x="368" 
d="M132 -106q-29 0 -58.5 10t-51 29t-29.5 48l75 18q10 -19 26.5 -27.5t34.5 -8.5q34 0 58.5 20.5t31.5 55.5q4 29 -11 47.5t-44 18.5q-20 0 -38.5 -9.5t-29.5 -21.5l-70 18l63 229h236l-11 -73h-226l1 70h79l-71 -233l-44 9q11 14 31 31t48 29t60 12q52 0 85 -36t22 -99
q-6 -40 -30 -71t-59.5 -48.5t-77.5 -17.5z" />
    <glyph glyph-name="uni2086" unicode="&#x2086;" horiz-adv-x="357" 
d="M131 -106q-58 0 -89 28t-39 74t1 100q11 67 37.5 119.5t68.5 82.5t98 30q35 0 66 -10t54 -28l-46 -56q-17 14 -37.5 19t-35.5 5q-47 0 -83.5 -42.5t-49.5 -131.5l-15 15q19 33 50 52t69 19q41 0 70 -19.5t42 -51.5t6 -74q-10 -57 -55 -94t-112 -37zM133 -38
q32 0 57.5 21.5t30.5 54.5q5 29 -10.5 48t-43.5 19q-32 0 -57.5 -22t-31.5 -55q-5 -30 11 -48t44 -18z" />
    <glyph glyph-name="uni2087" unicode="&#x2087;" horiz-adv-x="343" 
d="M3 -100l234 356l87 5l-231 -361h-90zM27 247l11 73h295l-9 -59l-83 -14h-214z" />
    <glyph glyph-name="uni2088" unicode="&#x2088;" horiz-adv-x="388" 
d="M139 -106q-78 0 -115 34t-28 87t54 87t119 34q80 0 115.5 -37.5t25.5 -93.5q-8 -48 -52.5 -79.5t-118.5 -31.5zM140 -40q35 0 61.5 18.5t30.5 47.5q5 26 -12.5 42.5t-48.5 16.5q-34 0 -61 -19t-32 -50q-4 -25 13 -40.5t49 -15.5zM170 149q33 0 55.5 17t27.5 45
q4 23 -11 38t-41 15q-33 0 -55.5 -18t-26.5 -48q-3 -21 11.5 -35t39.5 -14zM174 103q-69 0 -103.5 32t-26.5 85q8 48 50 78t107 30q70 0 104.5 -33.5t25.5 -87.5q-7 -45 -49.5 -74.5t-107.5 -29.5z" />
    <glyph glyph-name="uni2089" unicode="&#x2089;" horiz-adv-x="357" 
d="M101 -106q-34 0 -64.5 10t-54.5 28l46 56q17 -13 37.5 -18.5t34.5 -5.5q50 0 85.5 42.5t48.5 131.5l15 -15q-20 -34 -51.5 -52.5t-68.5 -18.5q-41 0 -70 19t-42 52t-6 74q10 57 55.5 94t111.5 37q58 0 89 -27.5t39.5 -72.5t-0.5 -101q-11 -67 -37.5 -119.5t-68 -83
t-99.5 -30.5zM142 117q33 0 58.5 22t31.5 55q4 28 -11 47t-44 19q-32 0 -57.5 -21t-30.5 -54q-5 -28 9.5 -48t43.5 -20z" />
    <glyph glyph-name="Euro" unicode="&#x20ac;" horiz-adv-x="672" 
d="M348 -12q-86 0 -145.5 47.5t-83.5 130t-6 190.5q17 104 66.5 184.5t121 126t154.5 45.5q56 0 102.5 -23.5t79 -65.5t44.5 -96l-90 -34q-12 59 -50 94t-88 35q-57 0 -107 -35.5t-86 -98.5t-49 -144q-13 -78 0.5 -138t49.5 -94t91 -34q37 0 73 18.5t67.5 51t52.5 73.5
l82 -45q-31 -56 -76 -98.5t-97 -66t-106 -23.5zM18 257l10 60h442l-10 -60h-442zM39 383l10 60h443l-11 -60h-442z" />
    <glyph glyph-name="trademark" unicode="&#x2122;" horiz-adv-x="863" 
d="M400 280l70 420h86l94 -183l154 183h87l-70 -420h-79l49 292l-161 -190l-101 194l-49 -296h-80zM140 280l57 347h-126l12 73h333l-12 -73h-127l-58 -347h-79z" />
    <glyph glyph-name="oneeighth" unicode="&#x215b;" horiz-adv-x="890" 
d="M135 280l63 378l14 42h70l-71 -420h-76zM94 570l12 71q14 -1 33.5 8t38.5 23t34 28l45 -51q-43 -39 -83 -60.5t-80 -18.5zM109 0l481 700h86l-481 -700h-86zM658 -6q-78 0 -115 34t-28 87t54 87t119 34q80 0 115.5 -37.5t25.5 -93.5q-8 -48 -52.5 -79.5t-118.5 -31.5z
M659 60q35 0 61.5 18.5t30.5 47.5q5 26 -12.5 42.5t-48.5 16.5q-34 0 -61 -19t-32 -50q-4 -25 13 -40.5t49 -15.5zM689 249q33 0 55.5 17t27.5 45q4 23 -11 38t-41 15q-33 0 -55.5 -18t-26.5 -48q-3 -21 11.5 -35t39.5 -14zM693 203q-69 0 -103.5 32t-26.5 85q8 48 50 78
t107 30q70 0 104.5 -33.5t25.5 -87.5q-7 -45 -49.5 -74.5t-107.5 -29.5z" />
    <glyph glyph-name="threeeighths" unicode="&#x215c;" horiz-adv-x="940" 
d="M177 273q-57 0 -92.5 25.5t-40.5 66.5l75 18q5 -9 10.5 -19t16 -16t27.5 -6q35 0 58 19.5t26 48.5q4 24 -15.5 40t-65.5 16h-27l10 54h18q48 0 86 -16t57.5 -45t12.5 -69q-6 -37 -29.5 -63t-56.5 -40t-70 -14zM152 480l8 52h21q41 0 68 14.5t30 44.5q2 17 -11 32t-38 15
q-20 0 -38.5 -10t-33.5 -34l-69 27q14 29 37.5 48t52.5 28.5t57 9.5q41 0 70.5 -15.5t43.5 -42t8 -60.5q-6 -37 -33 -61.5t-66.5 -36t-83.5 -11.5h-23zM159 0l481 700h86l-481 -700h-86zM708 -6q-78 0 -115 34t-28 87t54 87t119 34q80 0 115.5 -37.5t25.5 -93.5
q-8 -48 -52.5 -79.5t-118.5 -31.5zM709 60q35 0 61.5 18.5t30.5 47.5q5 26 -12.5 42.5t-48.5 16.5q-34 0 -61 -19t-32 -50q-4 -25 13 -40.5t49 -15.5zM739 249q33 0 55.5 17t27.5 45q4 23 -11 38t-41 15q-33 0 -55.5 -18t-26.5 -48q-3 -21 11.5 -35t39.5 -14zM743 203
q-69 0 -103.5 32t-26.5 85q8 48 50 78t107 30q70 0 104.5 -33.5t25.5 -87.5q-7 -45 -49.5 -74.5t-107.5 -29.5z" />
    <glyph glyph-name="fiveeighths" unicode="&#x215d;" horiz-adv-x="974" 
d="M196 273q-29 0 -58.5 10t-51 29t-29.5 48l75 18q10 -19 26.5 -27.5t34.5 -8.5q34 0 58.5 20.5t31.5 55.5q4 29 -11 47.5t-44 18.5q-20 0 -38.5 -9.5t-29.5 -21.5l-70 18l63 229h236l-11 -73h-226l1 70h79l-71 -233l-44 9q11 14 31 31t48 29t60 12q52 0 85 -36t22 -99
q-6 -40 -30 -71t-59.5 -48.5t-77.5 -17.5zM194 0l481 700h86l-481 -700h-86zM742 -6q-78 0 -115 34t-28 87t54 87t119 34q80 0 115.5 -37.5t25.5 -93.5q-8 -48 -52.5 -79.5t-118.5 -31.5zM743 60q35 0 61.5 18.5t30.5 47.5q5 26 -12.5 42.5t-48.5 16.5q-34 0 -61 -19
t-32 -50q-4 -25 13 -40.5t49 -15.5zM773 249q33 0 55.5 17t27.5 45q4 23 -11 38t-41 15q-33 0 -55.5 -18t-26.5 -48q-3 -21 11.5 -35t39.5 -14zM777 203q-69 0 -103.5 32t-26.5 85q8 48 50 78t107 30q70 0 104.5 -33.5t25.5 -87.5q-7 -45 -49.5 -74.5t-107.5 -29.5z" />
    <glyph glyph-name="seveneighths" unicode="&#x215e;" horiz-adv-x="916" 
d="M67 280l234 356l87 5l-231 -361h-90zM91 627l11 73h295l-9 -59l-83 -14h-214zM135 0l481 700h86l-481 -700h-86zM684 -6q-78 0 -115 34t-28 87t54 87t119 34q80 0 115.5 -37.5t25.5 -93.5q-8 -48 -52.5 -79.5t-118.5 -31.5zM685 60q35 0 61.5 18.5t30.5 47.5
q5 26 -12.5 42.5t-48.5 16.5q-34 0 -61 -19t-32 -50q-4 -25 13 -40.5t49 -15.5zM715 249q33 0 55.5 17t27.5 45q4 23 -11 38t-41 15q-33 0 -55.5 -18t-26.5 -48q-3 -21 11.5 -35t39.5 -14zM719 203q-69 0 -103.5 32t-26.5 85q8 48 50 78t107 30q70 0 104.5 -33.5t25.5 -87.5
q-7 -45 -49.5 -74.5t-107.5 -29.5z" />
    <glyph glyph-name="arrowleft" unicode="&#x2190;" horiz-adv-x="745" 
d="M154 342l231 -247l-63 -61l-255 265zM407 563l47 -62l-311 -246l-76 44zM694 341l-15 -84h-550l15 84h550z" />
    <glyph glyph-name="arrowup" unicode="&#x2191;" horiz-adv-x="709" 
d="M172 360l-54 55l313 297l31 -82zM577 359l-203 271l57 82l216 -299zM271 0l108 643h84l-108 -643h-84z" />
    <glyph glyph-name="arrowright" unicode="&#x2192;" horiz-adv-x="745" 
d="M607 254l-230 247l63 62l254 -266zM354 34l-46 62l311 246l76 -45zM68 256l14 83h550l-14 -83h-550z" />
    <glyph glyph-name="arrowdown" unicode="&#x2193;" horiz-adv-x="709" 
d="M571 340l54 -55l-313 -297l-31 82zM166 341l203 -271l-57 -82l-216 299zM472 700l-108 -643h-84l108 643h84z" />
    <glyph glyph-name="uni2196" unicode="&#x2196;" horiz-adv-x="696" 
d="M539 181l-368 440l66 59l369 -440zM546 615l-365 1l-16 84h395zM182 304h-85l67 396l78 -30z" />
    <glyph glyph-name="uni2197" unicode="&#x2197;" horiz-adv-x="696" 
d="M138 181l-51 59l512 440l51 -59zM272 615l15 85h396l-43 -84zM532 304l62 366l89 30l-66 -396h-85z" />
    <glyph glyph-name="uni2198" unicode="&#x2198;" horiz-adv-x="696" 
d="M124 460l66 59l369 -440l-67 -59zM547 396h85l-67 -396l-78 31zM183 85l366 -1l15 -84h-395z" />
    <glyph glyph-name="uni2199" unicode="&#x2199;" horiz-adv-x="696" 
d="M131 20l-51 59l512 440l51 -59zM47 0l66 396h84l-61 -366zM47 0l43 84l367 1l-14 -85h-396z" />
    <glyph glyph-name="minus" unicode="&#x2212;" horiz-adv-x="626" 
d="M122 257l14 82h383l-14 -82h-383z" />
    <glyph glyph-name="uni2215" unicode="&#x2215;" horiz-adv-x="626" 
d="M-10 0l599 700h80l-598 -700h-81z" />
    <glyph glyph-name="notequal" unicode="&#x2260;" horiz-adv-x="626" 
d="M126 71l334 512h87l-334 -512h-87zM136 388l13 81h400l-13 -81h-400zM102 188l14 81h400l-14 -81h-400z" />
    <glyph glyph-name="lessequal" unicode="&#x2264;" horiz-adv-x="626" 
d="M91 0l12 71h351l-12 -71h-351zM529 513l-17 -91l-375 -148l13 80zM150 352l325 -153l-14 -80l-324 155z" />
    <glyph glyph-name="greaterequal" unicode="&#x2265;" horiz-adv-x="626" 
d="M100 0l12 71h351l-12 -71h-351zM119 118l16 90l375 148l-13 -79zM497 278l-324 154l13 80l324 -156z" />
    <glyph glyph-name="uni004A0301" horiz-adv-x="525" 
d="M169 -12q-42 0 -74 12t-54 32.5t-35.5 45.5t-19.5 50l82 33q9 -21 22 -40t33 -31t49 -12q37 0 73.5 16.5t64 54t38.5 100.5l75 451h98l-82 -492q-9 -56 -35 -97t-63.5 -68.5t-81.5 -41t-90 -13.5zM405 738l131 132h116l-143 -132h-104z" />
    <glyph glyph-name="I.ss02" horiz-adv-x="393" 
d="M2 0l16 90h103l87 520h-103l14 90h305l-15 -90h-103l-87 -520h103l-15 -90h-305z" />
    <glyph glyph-name="IJ.ss02" horiz-adv-x="918" 
d="M2 0l16 90h103l87 520h-103l14 90h305l-15 -90h-103l-87 -520h103l-15 -90h-305zM562 -12q-42 0 -74 12t-54 32.5t-35.5 45.5t-19.5 50l82 33q9 -21 22 -40t33 -31t49 -12q37 0 73.5 16.5t64 54t38.5 100.5l75 451h98l-82 -492q-9 -56 -35 -97t-63.5 -68.5t-81.5 -41
t-90 -13.5z" />
    <glyph glyph-name="Iacute.ss02" horiz-adv-x="393" 
d="M2 0l16 90h103l87 520h-103l14 90h305l-15 -90h-103l-87 -520h103l-15 -90h-305zM205 743l132 126h116l-144 -126h-104z" />
    <glyph glyph-name="Icircumflex.ss02" horiz-adv-x="393" 
d="M2 0l16 90h103l87 520h-103l14 90h305l-15 -90h-103l-87 -520h103l-15 -90h-305zM100 759l144 132h105v-2l-143 -130h-106zM359 759l-103 131l1 1h93l100 -132h-91z" />
    <glyph glyph-name="Idieresis.ss02" horiz-adv-x="393" 
d="M368 791q-21 0 -37 16t-16 38t16 38t37 16q23 0 38.5 -16t15.5 -38t-15.5 -38t-38.5 -16zM225 791q-22 0 -38 16t-16 38t16 38t38 16t37.5 -16t15.5 -38t-15.5 -38t-37.5 -16zM2 0l16 90h103l87 520h-103l14 90h305l-15 -90h-103l-87 -520h103l-15 -90h-305z" />
    <glyph glyph-name="Idotaccent.ss02" horiz-adv-x="393" 
d="M2 0l16 90h103l87 520h-103l14 90h305l-15 -90h-103l-87 -520h103l-15 -90h-305zM297 785q-23 0 -40 17.5t-17 40.5q0 24 17 40.5t40 16.5q24 0 40.5 -16.5t16.5 -40.5q0 -23 -16.5 -40.5t-40.5 -17.5z" />
    <glyph glyph-name="Igrave.ss02" horiz-adv-x="393" 
d="M2 0l16 90h103l87 520h-103l14 90h305l-15 -90h-103l-87 -520h103l-15 -90h-305zM283 747l-93 132h112l80 -132h-99z" />
    <glyph glyph-name="Imacron.ss02" horiz-adv-x="393" 
d="M2 0l16 90h103l87 520h-103l14 90h305l-15 -90h-103l-87 -520h103l-15 -90h-305zM126 750l14 84h311l-14 -84h-311z" />
    <glyph glyph-name="Iogonek.ss02" horiz-adv-x="393" 
d="M2 0l16 90h103l87 520h-103l14 90h305l-15 -90h-103l-87 -520h103l-15 -90h-305zM158 -212q-55 0 -85 25t-25 73q3 21 17.5 42.5t38 42t53.5 38.5l79 -9q-23 -15 -47 -33t-40.5 -38.5t-19.5 -43.5q-4 -24 25 -24q17 0 31 4.5t18 6.5l24 -67q-15 -9 -33 -13t-36 -4z" />
    <glyph glyph-name="i.loclTRK" horiz-adv-x="241" 
d="M30 0l86 500h94l-85 -500h-95zM190 606q-23 0 -40 17.5t-17 40.5q0 24 17 40.5t40 16.5q24 0 40.5 -16.5t16.5 -40.5q0 -23 -16.5 -40.5t-40.5 -17.5z" />
    <glyph glyph-name="uni006A0301" horiz-adv-x="262" 
d="M-34 -215q-22 0 -46 7.5t-49 20.5l47 78q39 -19 58 -19q66 0 80 82l91 546h95l-93 -552q-14 -81 -60 -122t-123 -41zM130 568l131 132h116l-143 -132h-104z" />
    <glyph glyph-name="a.ss01" 
d="M392 0l11 93l68 407h94l-84 -500h-89zM229 -12q-61 0 -106 29t-68 80.5t-19 118.5q3 59 23 112.5t54.5 94.5t81.5 65t104 24q62 0 102 -28.5t58.5 -79t14.5 -118.5q-3 -73 -24 -129t-55.5 -93.5t-77 -56.5t-88.5 -19zM257 74q40 0 72 18.5t54.5 49t35 68t13.5 76.5
q2 63 -29.5 101.5t-85.5 38.5q-41 0 -74.5 -18t-58 -48t-38 -67t-14.5 -77q-1 -62 33 -102t92 -40z" />
    <glyph glyph-name="aacute.ss01" 
d="M392 0l11 93l68 407h94l-84 -500h-89zM229 -12q-61 0 -106 29t-68 80.5t-19 118.5q3 59 23 112.5t54.5 94.5t81.5 65t104 24q62 0 102 -28.5t58.5 -79t14.5 -118.5q-3 -73 -24 -129t-55.5 -93.5t-77 -56.5t-88.5 -19zM257 74q40 0 72 18.5t54.5 49t35 68t13.5 76.5
q2 63 -29.5 101.5t-85.5 38.5q-41 0 -74.5 -18t-58 -48t-38 -67t-14.5 -77q-1 -62 33 -102t92 -40zM259 568l131 132h116l-143 -132h-104z" />
    <glyph glyph-name="abreve.ss01" 
d="M392 0l11 93l68 407h94l-84 -500h-89zM229 -12q-61 0 -106 29t-68 80.5t-19 118.5q3 59 23 112.5t54.5 94.5t81.5 65t104 24q62 0 102 -28.5t58.5 -79t14.5 -118.5q-3 -73 -24 -129t-55.5 -93.5t-77 -56.5t-88.5 -19zM257 74q40 0 72 18.5t54.5 49t35 68t13.5 76.5
q2 63 -29.5 101.5t-85.5 38.5q-41 0 -74.5 -18t-58 -48t-38 -67t-14.5 -77q-1 -62 33 -102t92 -40zM339 561q-52 0 -90 18t-55.5 49.5t-11.5 71.5h91q-5 -29 14.5 -47.5t54.5 -18.5q38 0 64.5 19t31.5 47h91q-6 -42 -33 -73t-67.5 -48.5t-89.5 -17.5z" />
    <glyph glyph-name="uni01CE.ss01" 
d="M392 0l11 93l68 407h94l-84 -500h-89zM229 -12q-61 0 -106 29t-68 80.5t-19 118.5q3 59 23 112.5t54.5 94.5t81.5 65t104 24q62 0 102 -28.5t58.5 -79t14.5 -118.5q-3 -73 -24 -129t-55.5 -93.5t-77 -56.5t-88.5 -19zM257 74q40 0 72 18.5t54.5 49t35 68t13.5 76.5
q2 63 -29.5 101.5t-85.5 38.5q-41 0 -74.5 -18t-58 -48t-38 -67t-14.5 -77q-1 -62 33 -102t92 -40zM281 568v2l143 130h106l-144 -132h-105zM280 568l-100 132h91l103 -130l-1 -2h-93z" />
    <glyph glyph-name="acircumflex.ss01" 
d="M392 0l11 93l68 407h94l-84 -500h-89zM229 -12q-61 0 -106 29t-68 80.5t-19 118.5q3 59 23 112.5t54.5 94.5t81.5 65t104 24q62 0 102 -28.5t58.5 -79t14.5 -118.5q-3 -73 -24 -129t-55.5 -93.5t-77 -56.5t-88.5 -19zM257 74q40 0 72 18.5t54.5 49t35 68t13.5 76.5
q2 63 -29.5 101.5t-85.5 38.5q-41 0 -74.5 -18t-58 -48t-38 -67t-14.5 -77q-1 -62 33 -102t92 -40zM154 580l144 132h105v-2l-143 -130h-106zM413 580l-103 131l1 1h93l100 -132h-91z" />
    <glyph glyph-name="adieresis.ss01" 
d="M392 0l11 93l68 407h94l-84 -500h-89zM229 -12q-61 0 -106 29t-68 80.5t-19 118.5q3 59 23 112.5t54.5 94.5t81.5 65t104 24q62 0 102 -28.5t58.5 -79t14.5 -118.5q-3 -73 -24 -129t-55.5 -93.5t-77 -56.5t-88.5 -19zM257 74q40 0 72 18.5t54.5 49t35 68t13.5 76.5
q2 63 -29.5 101.5t-85.5 38.5q-41 0 -74.5 -18t-58 -48t-38 -67t-14.5 -77q-1 -62 33 -102t92 -40zM225 613q-22 0 -38 16t-16 37q0 23 16 38.5t38 15.5t38 -15.5t16 -38.5q0 -21 -16 -37t-38 -16zM475 613q-22 0 -38 16t-16 37q0 23 16 38.5t38 15.5t38 -15.5t16 -38.5
q0 -21 -16 -37t-38 -16z" />
    <glyph glyph-name="agrave.ss01" 
d="M392 0l11 93l68 407h94l-84 -500h-89zM229 -12q-61 0 -106 29t-68 80.5t-19 118.5q3 59 23 112.5t54.5 94.5t81.5 65t104 24q62 0 102 -28.5t58.5 -79t14.5 -118.5q-3 -73 -24 -129t-55.5 -93.5t-77 -56.5t-88.5 -19zM257 74q40 0 72 18.5t54.5 49t35 68t13.5 76.5
q2 63 -29.5 101.5t-85.5 38.5q-41 0 -74.5 -18t-58 -48t-38 -67t-14.5 -77q-1 -62 33 -102t92 -40zM336 568l-93 132h112l80 -132h-99z" />
    <glyph glyph-name="amacron.ss01" 
d="M392 0l11 93l68 407h94l-84 -500h-89zM229 -12q-61 0 -106 29t-68 80.5t-19 118.5q3 59 23 112.5t54.5 94.5t81.5 65t104 24q62 0 102 -28.5t58.5 -79t14.5 -118.5q-3 -73 -24 -129t-55.5 -93.5t-77 -56.5t-88.5 -19zM257 74q40 0 72 18.5t54.5 49t35 68t13.5 76.5
q2 63 -29.5 101.5t-85.5 38.5q-41 0 -74.5 -18t-58 -48t-38 -67t-14.5 -77q-1 -62 33 -102t92 -40zM179 571l14 84h311l-14 -84h-311z" />
    <glyph glyph-name="aogonek.ss01" 
d="M392 0l11 93l68 407h94l-84 -500h-89zM229 -12q-61 0 -106 29t-68 80.5t-19 118.5q3 59 23 112.5t54.5 94.5t81.5 65t104 24q62 0 102 -28.5t58.5 -79t14.5 -118.5q-3 -73 -24 -129t-55.5 -93.5t-77 -56.5t-88.5 -19zM257 74q40 0 72 18.5t54.5 49t35 68t13.5 76.5
q2 63 -29.5 101.5t-85.5 38.5q-41 0 -74.5 -18t-58 -48t-38 -67t-14.5 -77q-1 -62 33 -102t92 -40zM401 -212q-55 0 -85 25t-25 73q3 21 17.5 42.5t38 42t53.5 38.5l79 -9q-23 -15 -47 -33t-40.5 -38.5t-19.5 -43.5q-4 -24 25 -24q17 0 31 4.5t18 6.5l24 -67q-15 -9 -33 -13
t-36 -4z" />
    <glyph glyph-name="aring.ss01" 
d="M392 0l11 93l68 407h94l-84 -500h-89zM229 -12q-61 0 -106 29t-68 80.5t-19 118.5q3 59 23 112.5t54.5 94.5t81.5 65t104 24q62 0 102 -28.5t58.5 -79t14.5 -118.5q-3 -73 -24 -129t-55.5 -93.5t-77 -56.5t-88.5 -19zM257 74q40 0 72 18.5t54.5 49t35 68t13.5 76.5
q2 63 -29.5 101.5t-85.5 38.5q-41 0 -74.5 -18t-58 -48t-38 -67t-14.5 -77q-1 -62 33 -102t92 -40zM336 551q-39 0 -65.5 25t-26.5 62q0 32 15 56.5t41 39t59 14.5q38 0 64 -25t26 -63q0 -32 -15 -56.5t-41 -38.5t-57 -14zM339 612q20 0 32.5 13t12.5 36q0 26 -29 26
q-20 0 -32.5 -13t-12.5 -35q0 -12 8 -19.5t21 -7.5z" />
    <glyph glyph-name="atilde.ss01" 
d="M392 0l11 93l68 407h94l-84 -500h-89zM229 -12q-61 0 -106 29t-68 80.5t-19 118.5q3 59 23 112.5t54.5 94.5t81.5 65t104 24q62 0 102 -28.5t58.5 -79t14.5 -118.5q-3 -73 -24 -129t-55.5 -93.5t-77 -56.5t-88.5 -19zM257 74q40 0 72 18.5t54.5 49t35 68t13.5 76.5
q2 63 -29.5 101.5t-85.5 38.5q-41 0 -74.5 -18t-58 -48t-38 -67t-14.5 -77q-1 -62 33 -102t92 -40zM418 561q-29 0 -46 11t-26.5 25t-17.5 25t-22 11q-16 0 -27 -8t-19 -29h-70q10 47 40 77t82 30q29 0 45 -11t24.5 -25t17 -25t22.5 -11q19 0 29.5 10.5t15.5 28.5h71
q-14 -45 -41 -77t-78 -32z" />
    <glyph glyph-name="l.ss02" horiz-adv-x="297" 
d="M169 -12q-70 0 -101 40t-20 111l93 561h95l-92 -552q-7 -36 3 -53.5t34 -17.5q13 0 24.5 4t30.5 16l28 -78q-29 -17 -52 -24t-43 -7z" />
    <glyph glyph-name="lacute.ss02" horiz-adv-x="297" 
d="M169 -12q-70 0 -101 40t-20 111l93 561h95l-92 -552q-7 -36 3 -53.5t34 -17.5q13 0 24.5 4t30.5 16l28 -78q-29 -17 -52 -24t-43 -7zM121 747l131 132h116l-143 -132h-104z" />
    <glyph glyph-name="lcaron.ss02" horiz-adv-x="297" 
d="M169 -12q-70 0 -101 40t-20 111l93 561h95l-92 -552q-7 -36 3 -53.5t34 -17.5q13 0 24.5 4t30.5 16l28 -78q-29 -17 -52 -24t-43 -7zM230 534l74 165h95l-90 -165h-79z" />
    <glyph glyph-name="uni013C.ss02" horiz-adv-x="297" 
d="M169 -12q-70 0 -101 40t-20 111l93 561h95l-92 -552q-7 -36 3 -53.5t34 -17.5q13 0 24.5 4t30.5 16l28 -78q-29 -17 -52 -24t-43 -7zM20 -200l70 143h101l-92 -143h-79z" />
    <glyph glyph-name="lslash.ss02" horiz-adv-x="328" 
d="M16 250l12 81l275 126l-12 -80zM198 -12q-71 0 -102 40t-19 111l93 561h94l-92 -552q-6 -36 3.5 -53.5t33.5 -17.5q13 0 24.5 4t30.5 16l28 -78q-28 -17 -51 -24t-43 -7z" />
    <glyph glyph-name="zero.ss02" horiz-adv-x="643" 
d="M92 158l426 409l65 -33l-417 -401zM290 -12q-65 0 -113.5 28t-78.5 78t-40 118t3 148q18 104 65 183.5t115 124t147 44.5q64 0 112.5 -28t79 -78t40 -118t-3.5 -148q-17 -102 -64.5 -181.5t-115.5 -125t-146 -45.5zM290 78q56 0 103.5 35.5t80.5 96.5t46 140
q13 78 1 139.5t-47 97.5t-89 36q-53 0 -100.5 -35t-81 -96.5t-46.5 -141.5q-13 -79 -0.5 -140t47 -96t86.5 -36z" />
    <glyph glyph-name="zero.tf" horiz-adv-x="626" 
d="M281 -12q-65 0 -113.5 28t-78.5 78t-40 118t3 148q18 104 65 183.5t115 124t147 44.5q64 0 112.5 -28t79 -78t40 -118t-3.5 -148q-17 -102 -64.5 -181.5t-115.5 -125t-146 -45.5zM281 78q56 0 103.5 35.5t80.5 96.5t46 140q13 78 1 139.5t-47 97.5t-89 36
q-53 0 -100.5 -35t-81 -96.5t-46.5 -141.5q-13 -79 -0.5 -140t47 -96t86.5 -36z" />
    <glyph glyph-name="one.tf" horiz-adv-x="626" 
d="M90 0l15 87h401l-15 -87h-401zM242 0l109 647l18 53h87l-118 -700h-96zM174 509l14 89q21 -1 53 14t66 39t60 50l55 -68q-62 -53 -124.5 -90t-123.5 -34z" />
    <glyph glyph-name="two.tf" horiz-adv-x="626" 
d="M156 41l-91 39q5 33 24.5 66.5t51 65.5t75.5 61l152 99q27 18 51.5 41.5t41.5 49t20 50.5q6 46 -22.5 78t-83.5 32q-40 0 -72.5 -15.5t-56 -40.5t-35.5 -52l-99 24q19 47 56.5 86t90.5 63t114 24q73 0 122.5 -27.5t71.5 -75.5t12 -109q-8 -55 -46.5 -103.5t-104.5 -94.5
l-142 -94q-32 -21 -60 -46.5t-46 -55t-24 -65.5zM51 0l14 80l75 8h379l-14 -88h-454z" />
    <glyph glyph-name="three.tf" horiz-adv-x="626" 
d="M270 -12q-55 0 -97 17t-68.5 45t-38.5 61l90 35q8 -14 19.5 -30.5t33 -28.5t57.5 -12q45 0 81 18t58.5 48.5t27.5 68.5q6 39 -11.5 65.5t-57 40.5t-98.5 14h-28l12 74h20q62 0 112.5 -15t86 -43t51.5 -68t8 -91q-10 -61 -48 -106t-93 -69t-117 -24zM240 342l12 71h21
q81 0 135.5 29t61.5 85q6 39 -22 68.5t-81 29.5q-39 0 -74 -17.5t-62 -51.5l-77 42q23 36 57.5 61.5t76.5 39t87 13.5q64 0 110.5 -25.5t69 -68.5t13.5 -97q-8 -44 -34.5 -77.5t-67.5 -56t-92.5 -34t-108.5 -11.5h-25z" />
    <glyph glyph-name="four.tf" horiz-adv-x="626" 
d="M106 195l-67 43l394 462l52 -56zM26 161l13 77l61 10h496l-14 -87h-556zM323 0l108 640l2 60h101l-117 -700h-94z" />
    <glyph glyph-name="five.tf" horiz-adv-x="626" 
d="M278 -12q-44 0 -89 14t-79.5 42t-51.5 71l86 34q25 -40 59.5 -57.5t73.5 -17.5q44 0 81 19t62 52t32 78q11 60 -20 98.5t-92 38.5q-38 0 -75 -16.5t-59 -39.5l-87 22l98 374h380l-15 -90h-370l5 87h98l-106 -377l-67 8q16 21 40 40.5t52.5 35.5t61.5 26t68 9
q64 0 109.5 -29t67 -79.5t10.5 -116.5q-12 -67 -50 -118t-96 -79.5t-127 -28.5z" />
    <glyph glyph-name="six.tf" horiz-adv-x="626" 
d="M289 -12q-74 0 -119.5 27t-68 74.5t-25.5 110t9 132.5q14 86 43 156t71.5 120t97 77t119.5 27q56 0 106 -17t86 -47l-60 -68q-28 23 -62 33.5t-65 10.5q-97 0 -163.5 -82t-89.5 -249l-18 23q34 59 89.5 93t123.5 34q60 0 105.5 -26t70.5 -69.5t25 -96.5t-20 -100.5
t-57 -84t-87.5 -57.5t-110.5 -21zM292 74q52 0 91.5 24.5t61 65t21.5 86.5q0 50 -32 79.5t-84 29.5q-45 0 -82 -19t-61.5 -54t-30.5 -80q-9 -59 23.5 -95.5t92.5 -36.5z" />
    <glyph glyph-name="seven.tf" horiz-adv-x="626" 
d="M83 0l436 631l98 -10l-422 -621h-112zM142 610l14 90h473l-12 -79l-88 -11h-387z" />
    <glyph glyph-name="eight.tf" horiz-adv-x="626" 
d="M274 -12q-79 0 -133.5 25.5t-79 70.5t-14.5 104q10 60 47.5 104.5t97 70t136.5 24.5q81 1 135 -26.5t78.5 -74.5t14.5 -110q-9 -56 -47 -98.5t-97.5 -66t-137.5 -23.5zM278 73q48 0 87.5 16.5t64.5 46t30 67.5q8 51 -29 82t-103 31q-47 0 -86.5 -16.5t-64.5 -46
t-30 -68.5q-7 -50 29.5 -81t101.5 -31zM333 337q-71 0 -120 24.5t-71 67t-13 99.5q9 54 43 96t88.5 65t122.5 23q72 0 121 -25t71.5 -69t12.5 -102q-9 -53 -43.5 -93.5t-88.5 -63t-123 -22.5zM333 403q42 0 76 15t55.5 42t26.5 61q7 48 -23.5 78t-86.5 30q-41 0 -75.5 -16
t-56.5 -44.5t-27 -66.5q-6 -44 25 -71.5t86 -27.5z" />
    <glyph glyph-name="nine.tf" horiz-adv-x="626" 
d="M370 712q73 0 119 -27t68.5 -75t25.5 -110t-9 -132q-14 -86 -43 -156t-71.5 -120.5t-97 -77t-119.5 -26.5q-55 0 -105.5 17t-86.5 46l60 68q29 -22 63 -33t64 -11q97 0 163.5 82.5t88.5 249.5l19 -23q-33 -59 -89 -93t-124 -34q-60 0 -105.5 26t-70.5 69.5t-25 96.5
t19.5 100.5t56.5 84t88 57.5t111 21zM366 626q-51 0 -90.5 -25t-61.5 -65t-22 -86q0 -49 32 -79.5t85 -30.5q45 0 82 19.5t61.5 54t30.5 79.5q8 60 -24 96.5t-93 36.5z" />
    <glyph glyph-name="zero.tf.ss02" horiz-adv-x="626" 
d="M86 158l425 409l65 -33l-417 -401zM281 -12q-64 0 -113 28t-79 78t-40 118t3 148q18 104 65 183.5t115 124t147 44.5q64 0 112.5 -28t79 -78t40.5 -118t-4 -148q-17 -102 -64.5 -181.5t-115.5 -125t-146 -45.5zM281 78q57 0 104 35.5t80 96.5t46 140q13 78 1 139.5
t-47 97.5t-89 36q-53 0 -100 -35t-80.5 -96.5t-47.5 -141.5q-12 -79 0 -140t46.5 -96t86.5 -36z" />
    <glyph glyph-name="zero.dnom" horiz-adv-x="407" 
d="M165 -6q-53 0 -88.5 29.5t-49 79.5t-3.5 113q11 63 40 110.5t71 74.5t91 27q52 0 87.5 -28t51 -77.5t4.5 -116.5q-10 -61 -40 -109.5t-72.5 -75.5t-91.5 -27zM167 67q44 0 79 42t46 108q10 61 -8.5 100.5t-58.5 39.5q-42 0 -77.5 -42t-46.5 -110q-10 -60 9 -99t57 -39z
" />
    <glyph glyph-name="one.dnom" horiz-adv-x="283" 
d="M88 0l63 378l14 42h70l-71 -420h-76zM47 290l12 71q14 -1 33.5 8t38.5 23t34 28l45 -51q-43 -39 -83 -60.5t-80 -18.5z" />
    <glyph glyph-name="two.dnom" horiz-adv-x="363" 
d="M75 16l-71 45q5 29 32 61t69 57l74 48q25 15 45.5 36t21.5 41q3 22 -11 37t-41 15q-29 0 -51 -17t-33 -41l-80 20q17 44 60.5 76.5t102.5 32.5q72 0 107.5 -37.5t26.5 -94.5q-7 -38 -31.5 -67.5t-66.5 -55.5l-66 -43q-19 -12 -37.5 -28t-32 -36.5t-18.5 -48.5zM-7 0
l11 61l61 10h229l-12 -71h-289z" />
    <glyph glyph-name="three.dnom" horiz-adv-x="333" 
d="M130 -6q-57 0 -92.5 25.5t-40.5 66.5l75 18q5 -9 10.5 -19t16 -16t27.5 -6q35 0 58 19.5t26 48.5q4 24 -15.5 40t-65.5 16h-27l10 54h18q48 0 86 -16t57.5 -45t12.5 -69q-6 -37 -29.5 -63t-56.5 -40t-70 -14zM105 201l8 52h21q41 0 68 14.5t30 44.5q2 17 -11 32t-38 15
q-20 0 -38.5 -10t-33.5 -34l-69 27q14 29 37.5 48t52.5 28.5t57 9.5q41 0 70.5 -15.5t43.5 -42t8 -60.5q-6 -37 -33 -61.5t-66.5 -36t-83.5 -11.5h-23z" />
    <glyph glyph-name="four.dnom" horiz-adv-x="394" 
d="M65 116l-55 32l233 272l40 -44zM0 83l10 65l46 4h300l-11 -69h-345zM180 0l64 376l-1 44h84l-71 -420h-76z" />
    <glyph glyph-name="five.dnom" horiz-adv-x="368" 
d="M149 -6q-29 0 -58.5 10t-51 29t-29.5 48l75 18q10 -19 26.5 -27.5t34.5 -8.5q34 0 58.5 20.5t31.5 55.5q4 29 -11 47.5t-44 18.5q-20 0 -38.5 -9.5t-29.5 -21.5l-70 18l63 229h236l-11 -73h-226l1 70h79l-71 -233l-44 9q11 14 31 31t48 29t60 12q52 0 85 -36t22 -99
q-6 -40 -30 -71t-59.5 -48.5t-77.5 -17.5z" />
    <glyph glyph-name="six.dnom" horiz-adv-x="357" 
d="M148 -6q-58 0 -89 28t-39 74t1 100q11 67 37.5 119.5t68.5 82.5t98 30q35 0 66 -10t54 -28l-46 -56q-17 14 -37.5 19t-35.5 5q-47 0 -83.5 -42.5t-49.5 -131.5l-15 15q19 33 50 52t69 19q41 0 70 -19.5t42 -51.5t6 -74q-10 -57 -55 -94t-112 -37zM150 62q32 0 57.5 21.5
t30.5 54.5q5 29 -10.5 48t-43.5 19q-32 0 -57.5 -22t-31.5 -55q-5 -30 11 -48t44 -18z" />
    <glyph glyph-name="seven.dnom" horiz-adv-x="343" 
d="M20 0l234 356l87 5l-231 -361h-90zM44 347l11 73h295l-9 -59l-83 -14h-214z" />
    <glyph glyph-name="eight.dnom" horiz-adv-x="388" 
d="M156 -6q-78 0 -115 34t-28 87t54 87t119 34q80 0 115.5 -37.5t25.5 -93.5q-8 -48 -52.5 -79.5t-118.5 -31.5zM157 60q35 0 61.5 18.5t30.5 47.5q5 26 -12.5 42.5t-48.5 16.5q-34 0 -61 -19t-32 -50q-4 -25 13 -40.5t49 -15.5zM187 249q33 0 55.5 17t27.5 45q4 23 -11 38
t-41 15q-33 0 -55.5 -18t-26.5 -48q-3 -21 11.5 -35t39.5 -14zM191 203q-69 0 -103.5 32t-26.5 85q8 48 50 78t107 30q70 0 104.5 -33.5t25.5 -87.5q-7 -45 -49.5 -74.5t-107.5 -29.5z" />
    <glyph glyph-name="nine.dnom" horiz-adv-x="357" 
d="M118 -6q-34 0 -64.5 10t-54.5 28l46 56q17 -13 37.5 -18.5t34.5 -5.5q50 0 85.5 42.5t48.5 131.5l15 -15q-20 -34 -51.5 -52.5t-68.5 -18.5q-41 0 -70 19t-42 52t-6 74q10 57 55.5 94t111.5 37q58 0 89 -27.5t39.5 -72.5t-0.5 -101q-11 -67 -37.5 -119.5t-68 -83
t-99.5 -30.5zM159 217q33 0 58.5 22t31.5 55q4 28 -11 47t-44 19q-32 0 -57.5 -21t-30.5 -54q-5 -28 9.5 -48t43.5 -20z" />
    <glyph glyph-name="zero.numr" horiz-adv-x="407" 
d="M212 273q-53 0 -88.5 29.5t-49 79.5t-3.5 113q11 63 40 110.5t71 74.5t91 27q52 0 87.5 -28t51 -77.5t4.5 -116.5q-10 -61 -40 -109.5t-72.5 -75.5t-91.5 -27zM214 346q44 0 79 42t46 108q10 61 -8.5 100.5t-58.5 39.5q-42 0 -77.5 -42t-46.5 -110q-10 -60 9 -99t57 -39z
" />
    <glyph glyph-name="one.numr" horiz-adv-x="283" 
d="M135 280l63 378l14 42h70l-71 -420h-76zM94 570l12 71q14 -1 33.5 8t38.5 23t34 28l45 -51q-43 -39 -83 -60.5t-80 -18.5z" />
    <glyph glyph-name="two.numr" horiz-adv-x="363" 
d="M122 296l-71 45q5 29 32 61t69 57l74 48q25 15 45.5 36t21.5 41q3 22 -11 37t-41 15q-29 0 -51 -17t-33 -41l-80 20q17 44 60.5 76.5t102.5 32.5q72 0 107.5 -37.5t26.5 -94.5q-7 -38 -31.5 -67.5t-66.5 -55.5l-66 -43q-19 -12 -37.5 -28t-32 -36.5t-18.5 -48.5zM40 280
l11 61l61 10h229l-12 -71h-289z" />
    <glyph glyph-name="three.numr" horiz-adv-x="333" 
d="M177 273q-57 0 -92.5 25.5t-40.5 66.5l75 18q5 -9 10.5 -19t16 -16t27.5 -6q35 0 58 19.5t26 48.5q4 24 -15.5 40t-65.5 16h-27l10 54h18q48 0 86 -16t57.5 -45t12.5 -69q-6 -37 -29.5 -63t-56.5 -40t-70 -14zM152 480l8 52h21q41 0 68 14.5t30 44.5q2 17 -11 32t-38 15
q-20 0 -38.5 -10t-33.5 -34l-69 27q14 29 37.5 48t52.5 28.5t57 9.5q41 0 70.5 -15.5t43.5 -42t8 -60.5q-6 -37 -33 -61.5t-66.5 -36t-83.5 -11.5h-23z" />
    <glyph glyph-name="four.numr" horiz-adv-x="394" 
d="M112 396l-55 32l233 272l40 -44zM47 363l10 65l46 4h300l-11 -69h-345zM227 280l64 376l-1 44h84l-71 -420h-76z" />
    <glyph glyph-name="five.numr" horiz-adv-x="368" 
d="M196 273q-29 0 -58.5 10t-51 29t-29.5 48l75 18q10 -19 26.5 -27.5t34.5 -8.5q34 0 58.5 20.5t31.5 55.5q4 29 -11 47.5t-44 18.5q-20 0 -38.5 -9.5t-29.5 -21.5l-70 18l63 229h236l-11 -73h-226l1 70h79l-71 -233l-44 9q11 14 31 31t48 29t60 12q52 0 85 -36t22 -99
q-6 -40 -30 -71t-59.5 -48.5t-77.5 -17.5z" />
    <glyph glyph-name="six.numr" horiz-adv-x="357" 
d="M195 273q-58 0 -89 28t-39 74t1 100q11 67 37.5 119.5t68.5 82.5t98 30q35 0 66 -10t54 -28l-46 -56q-17 14 -37.5 19t-35.5 5q-47 0 -83.5 -42.5t-49.5 -131.5l-15 15q19 33 50 52t69 19q41 0 70 -19.5t42 -51.5t6 -74q-10 -57 -55 -94t-112 -37zM197 341
q32 0 57.5 21.5t30.5 54.5q5 29 -10.5 48t-43.5 19q-32 0 -57.5 -22t-31.5 -55q-5 -30 11 -48t44 -18z" />
    <glyph glyph-name="seven.numr" horiz-adv-x="343" 
d="M67 280l234 356l87 5l-231 -361h-90zM91 627l11 73h295l-9 -59l-83 -14h-214z" />
    <glyph glyph-name="eight.numr" horiz-adv-x="388" 
d="M203 273q-78 0 -115 34t-28 87t54 87t119 34q80 0 115.5 -37.5t25.5 -93.5q-8 -48 -52.5 -79.5t-118.5 -31.5zM204 339q35 0 61.5 18.5t30.5 47.5q5 26 -12.5 42.5t-48.5 16.5q-34 0 -61 -19t-32 -50q-4 -25 13 -40.5t49 -15.5zM234 528q33 0 55.5 17t27.5 45
q4 23 -11 38t-41 15q-33 0 -55.5 -18t-26.5 -48q-3 -21 11.5 -35t39.5 -14zM238 482q-69 0 -103.5 32t-26.5 85q8 48 50 78t107 30q70 0 104.5 -33.5t25.5 -87.5q-7 -45 -49.5 -74.5t-107.5 -29.5z" />
    <glyph glyph-name="nine.numr" horiz-adv-x="357" 
d="M165 273q-34 0 -64.5 10t-54.5 28l46 56q17 -13 37.5 -18.5t34.5 -5.5q50 0 85.5 42.5t48.5 131.5l15 -15q-20 -34 -51.5 -52.5t-68.5 -18.5q-41 0 -70 19t-42 52t-6 74q10 57 55.5 94t111.5 37q58 0 89 -27.5t39.5 -72.5t-0.5 -101q-11 -67 -37.5 -119.5t-68 -83
t-99.5 -30.5zM206 496q33 0 58.5 22t31.5 55q4 28 -11 47t-44 19q-32 0 -57.5 -21t-30.5 -54q-5 -28 9.5 -48t43.5 -20z" />
    <glyph glyph-name="periodcentered.loclCAT" horiz-adv-x="113" 
d="M67 254q-18 0 -32.5 9.5t-21.5 25t-4 33.5q4 23 23.5 39.5t42.5 16.5q19 0 32.5 -9t20.5 -24.5t4 -34.5q-4 -23 -23 -39.5t-42 -16.5z" />
    <glyph glyph-name="periodcentered.loclCAT.case" horiz-adv-x="0" 
d="M-48 300q-18 0 -32.5 9.5t-21.5 25t-4 33.5q4 23 23.5 39.5t42.5 16.5q19 0 32.5 -9t20.5 -24.5t4 -34.5q-4 -23 -23 -39.5t-42 -16.5z" />
    <glyph glyph-name="uni030C.alt" horiz-adv-x="0" 
d="M47 534l74 165h95l-90 -165h-79z" />
    <glyph glyph-name="uni0328.alt" horiz-adv-x="0" 
d="M81 -212q-36 0 -64.5 10t-44.5 29t-16 44q0 26 12 50t33.5 46.5t49 41.5t56.5 34l24 -3q-44 -35 -68.5 -74t-24.5 -73q0 -15 10 -24t25 -9q17 0 33.5 3.5t27.5 8.5l25 -67q-17 -8 -38 -12.5t-40 -4.5z" />
    <glyph glyph-name="uni0304.narrow" horiz-adv-x="0" 
d="M71 571l14 84h276l-14 -84h-276z" />
    </font>
</defs>
</svg>
